<svg id="mol10" xmlns="http://www.w3.org/2000/svg" version="1.1" width="124px" height="127px" viewBox="83 87 124 127">
  <style> #mol10 text {font-family: sans-serif;} #mol10 { pointer-events:none; } #mol10 .event  { pointer-events:all; } #mol10 line { stroke-linecap:round; } #mol10 polygon { stroke-linejoin:round; } </style>
  <text x="101.82" y="130.67" stroke="none" font-size="14" fill="rgb(31,240,31)">Cl</text>
  <text x="143.39" y="106.67" stroke="none" font-size="14" fill="rgb(31,240,31)">Cl</text>
  <text x="184.96" y="130.67" stroke="none" font-size="14" fill="rgb(31,240,31)">Cl</text>
  <text x="184.96" y="178.67" stroke="none" font-size="14" fill="rgb(31,240,31)">Cl</text>
  <text x="143.39" y="202.67" stroke="none" font-size="14" fill="rgb(31,240,31)">Cl</text>
  <text x="102.98" y="178.67" stroke="none" font-size="14" fill="rgb(248,113,113)">O</text>
  <text x="92.88" y="178.67" stroke="none" font-size="14" fill="rgb(248,113,113)">H</text>
  <line x1="129.22" y1="162" x2="150" y2="174" stroke="rgb(228,226,242)" stroke-width="1.5" />
  <line x1="133.23" y1="160.16" x2="149.58" y2="169.6" stroke="rgb(228,226,242)" stroke-width="1.5" />
  <line x1="170.78" y1="162" x2="170.78" y2="138" stroke="rgb(228,226,242)" stroke-width="1.5" />
  <line x1="167.18" y1="159.44" x2="167.18" y2="140.56" stroke="rgb(228,226,242)" stroke-width="1.5" />
  <line x1="150" y1="126" x2="129.22" y2="138" stroke="rgb(228,226,242)" stroke-width="1.5" />
  <line x1="149.58" y1="130.4" x2="133.23" y2="139.84" stroke="rgb(228,226,242)" stroke-width="1.5" />
  <line x1="150" y1="174" x2="170.78" y2="162" stroke="rgb(228,226,242)" stroke-width="1.5" />
  <line x1="170.78" y1="138" x2="150" y2="126" stroke="rgb(228,226,242)" stroke-width="1.5" />
  <line x1="129.22" y1="162" x2="129.22" y2="138" stroke="rgb(228,226,242)" stroke-width="1.5" />
  <line x1="129.22" y1="138" x2="116.04" y2="130.39" stroke="rgb(228,226,242)" stroke-width="1.5" />
  <line x1="150" y1="126" x2="150" y2="109" stroke="rgb(228,226,242)" stroke-width="1.5" />
  <line x1="170.78" y1="138" x2="183.96" y2="130.39" stroke="rgb(228,226,242)" stroke-width="1.5" />
  <line x1="170.78" y1="162" x2="183.96" y2="169.61" stroke="rgb(228,226,242)" stroke-width="1.5" />
  <line x1="150" y1="174" x2="150" y2="191" stroke="rgb(228,226,242)" stroke-width="1.5" />
  <line x1="129.22" y1="162" x2="114.88" y2="170.28" stroke="rgb(228,226,242)" stroke-width="1.5" />
  <line id="mol10:Bond:0" class="event" x1="129.22" y1="162" x2="150" y2="174" stroke-width="1.5" opacity="0" />
  <line id="mol10:Bond:2" class="event" x1="170.78" y1="162" x2="170.78" y2="138" stroke-width="1.5" opacity="0" />
  <line id="mol10:Bond:4" class="event" x1="150" y1="126" x2="129.22" y2="138" stroke-width="1.5" opacity="0" />
  <line id="mol10:Bond:1" class="event" x1="150" y1="174" x2="170.78" y2="162" stroke-width="1.5" opacity="0" />
  <line id="mol10:Bond:3" class="event" x1="170.78" y1="138" x2="150" y2="126" stroke-width="1.5" opacity="0" />
  <line id="mol10:Bond:5" class="event" x1="129.22" y1="162" x2="129.22" y2="138" stroke-width="1.5" opacity="0" />
  <line id="mol10:Bond:6" class="event" x1="129.22" y1="138" x2="108.43" y2="126" stroke-width="1.5" opacity="0" />
  <line id="mol10:Bond:7" class="event" x1="150" y1="126" x2="150" y2="102" stroke-width="1.5" opacity="0" />
  <line id="mol10:Bond:8" class="event" x1="170.78" y1="138" x2="191.57" y2="126" stroke-width="1.5" opacity="0" />
  <line id="mol10:Bond:9" class="event" x1="170.78" y1="162" x2="191.57" y2="174" stroke-width="1.5" opacity="0" />
  <line id="mol10:Bond:10" class="event" x1="150" y1="174" x2="150" y2="198" stroke-width="1.5" opacity="0" />
  <line id="mol10:Bond:11" class="event" x1="129.22" y1="162" x2="108.43" y2="174" stroke-width="1.5" opacity="0" />
  <circle id="mol10:Atom:0" class="event" cx="129.22" cy="162" r="8" opacity="0" />
  <circle id="mol10:Atom:1" class="event" cx="150" cy="174" r="8" opacity="0" />
  <circle id="mol10:Atom:2" class="event" cx="170.78" cy="162" r="8" opacity="0" />
  <circle id="mol10:Atom:3" class="event" cx="170.78" cy="138" r="8" opacity="0" />
  <circle id="mol10:Atom:4" class="event" cx="150" cy="126" r="8" opacity="0" />
  <circle id="mol10:Atom:5" class="event" cx="129.22" cy="138" r="8" opacity="0" />
  <circle id="mol10:Atom:6" class="event" cx="108.43" cy="126" r="8" opacity="0" />
  <circle id="mol10:Atom:7" class="event" cx="150" cy="102" r="8" opacity="0" />
  <circle id="mol10:Atom:8" class="event" cx="191.57" cy="126" r="8" opacity="0" />
  <circle id="mol10:Atom:9" class="event" cx="191.57" cy="174" r="8" opacity="0" />
  <circle id="mol10:Atom:10" class="event" cx="150" cy="198" r="8" opacity="0" />
  <circle id="mol10:Atom:11" class="event" cx="108.43" cy="174" r="8" opacity="0" />
</svg>