<svg id="mol11" xmlns="http://www.w3.org/2000/svg" version="1.1" width="204px" height="126px" viewBox="48 87 204 126">
  <style> #mol11 text {font-family: sans-serif;} #mol11 { pointer-events:none; } #mol11 .event  { pointer-events:all; } #mol11 line { stroke-linecap:round; } #mol11 polygon { stroke-linejoin:round; } </style>
  <text x="108.98" y="226.62" stroke="none" font-size="12" fill="rgb(160,0,0)">this enantiomer</text>
  <text x="217.69" y="136.2" stroke="none" font-size="14" fill="rgb(129,140,248)">N</text>
  <text x="217.69" y="122.2" stroke="none" font-size="14" fill="rgb(129,140,248)">H</text>
  <text x="154.39" y="151.53" stroke="none" font-size="9" fill="rgb(160,0,0)">S</text>
  <text x="153.14" y="140.23" stroke="none" font-size="9" fill="rgb(160,0,0)">abs</text>
  <text x="175.14" y="186.31" stroke="none" font-size="14" fill="rgb(205,205,38)">S</text>
  <text x="134.16" y="136.2" stroke="none" font-size="14" fill="rgb(248,113,113)">O</text>
  <line x1="160.39" y1="167.53" x2="140.98" y2="181.64" stroke="rgb(228,226,242)" stroke-width="1.5" />
  <line x1="160.07" y1="172.22" x2="145.53" y2="182.78" stroke="rgb(228,226,242)" stroke-width="1.5" />
  <line x1="148.39" y1="204.47" x2="172.39" y2="204.47" stroke="rgb(228,226,242)" stroke-width="1.5" />
  <line x1="151.41" y1="200.87" x2="169.38" y2="200.87" stroke="rgb(228,226,242)" stroke-width="1.5" />
  <line x1="118.82" y1="143.53" x2="118.82" y2="167.53" stroke="rgb(228,226,242)" stroke-width="1.5" />
  <line x1="115.22" y1="146.09" x2="115.22" y2="164.97" stroke="rgb(228,226,242)" stroke-width="1.5" />
  <line x1="98.04" y1="179.53" x2="77.25" y2="167.53" stroke="rgb(228,226,242)" stroke-width="1.5" />
  <line x1="97.62" y1="175.14" x2="81.27" y2="165.7" stroke="rgb(228,226,242)" stroke-width="1.5" />
  <line x1="77.25" y1="143.53" x2="56.47" y2="131.53" stroke="rgb(228,226,242)" stroke-width="1.5" />
  <line x1="76.84" y1="139.14" x2="60.49" y2="129.7" stroke="rgb(228,226,242)" stroke-width="1.5" />
  <line x1="56.47" y1="107.53" x2="77.25" y2="95.53" stroke="rgb(228,226,242)" stroke-width="1.5" />
  <line x1="60.49" y1="109.37" x2="76.84" y2="99.93" stroke="rgb(228,226,242)" stroke-width="1.5" />
  <line x1="98.04" y1="107.53" x2="98.04" y2="131.53" stroke="rgb(228,226,242)" stroke-width="1.5" />
  <line x1="94.44" y1="110.09" x2="94.44" y2="128.97" stroke="rgb(228,226,242)" stroke-width="1.5" />
  <line x1="243.53" y1="143.53" x2="228.8" y2="135.03" stroke="rgb(228,226,242)" stroke-width="1.5" />
  <line x1="216.69" y1="135.03" x2="201.96" y2="143.53" stroke="rgb(228,226,242)" stroke-width="1.5" />
  <line x1="201.96" y1="143.53" x2="181.18" y2="131.53" stroke="rgb(228,226,242)" stroke-width="1.5" />
  <line x1="181.18" y1="131.53" x2="160.39" y2="143.53" stroke="rgb(228,226,242)" stroke-width="1.5" />
  <line x1="160.39" y1="143.53" x2="160.39" y2="167.53" stroke="rgb(228,226,242)" stroke-width="1.5" />
  <line x1="140.98" y1="181.64" x2="148.39" y2="204.47" stroke="rgb(228,226,242)" stroke-width="1.5" />
  <line x1="172.39" y1="204.47" x2="177.53" y2="188.64" stroke="rgb(228,226,242)" stroke-width="1.5" />
  <line x1="160.39" y1="167.53" x2="174.14" y2="177.52" stroke="rgb(228,226,242)" stroke-width="1.5" />
  <polygon points="160,144 154,139 153,140 " fill="rgb(160,0,0)" stroke="rgb(160,0,0)" stroke-width="1.5" />
  <polygon points="153,140 154,139 147,134 145,137 " fill="rgb(160,0,0)" stroke="rgb(160,0,0)" stroke-width="1.5" />
  <line x1="133.16" y1="135.26" x2="118.82" y2="143.53" stroke="rgb(228,226,242)" stroke-width="1.5" />
  <line x1="118.82" y1="167.53" x2="98.04" y2="179.53" stroke="rgb(228,226,242)" stroke-width="1.5" />
  <line x1="77.25" y1="167.53" x2="77.25" y2="143.53" stroke="rgb(228,226,242)" stroke-width="1.5" />
  <line x1="56.47" y1="131.53" x2="56.47" y2="107.53" stroke="rgb(228,226,242)" stroke-width="1.5" />
  <line x1="77.25" y1="95.53" x2="98.04" y2="107.53" stroke="rgb(228,226,242)" stroke-width="1.5" />
  <line x1="77.25" y1="143.53" x2="98.04" y2="131.53" stroke="rgb(228,226,242)" stroke-width="1.5" />
  <line x1="118.82" y1="143.53" x2="98.04" y2="131.53" stroke="rgb(228,226,242)" stroke-width="1.5" />
  <line id="mol11:Bond:5" class="event" x1="160.39" y1="167.53" x2="140.98" y2="181.64" stroke-width="1.5" opacity="0" />
  <line id="mol11:Bond:7" class="event" x1="148.39" y1="204.47" x2="172.39" y2="204.47" stroke-width="1.5" opacity="0" />
  <line id="mol11:Bond:12" class="event" x1="118.82" y1="143.53" x2="118.82" y2="167.53" stroke-width="1.5" opacity="0" />
  <line id="mol11:Bond:14" class="event" x1="98.04" y1="179.53" x2="77.25" y2="167.53" stroke-width="1.5" opacity="0" />
  <line id="mol11:Bond:16" class="event" x1="77.25" y1="143.53" x2="56.47" y2="131.53" stroke-width="1.5" opacity="0" />
  <line id="mol11:Bond:18" class="event" x1="56.47" y1="107.53" x2="77.25" y2="95.53" stroke-width="1.5" opacity="0" />
  <line id="mol11:Bond:20" class="event" x1="98.04" y1="107.53" x2="98.04" y2="131.53" stroke-width="1.5" opacity="0" />
  <line id="mol11:Bond:0" class="event" x1="243.53" y1="143.53" x2="222.75" y2="131.53" stroke-width="1.5" opacity="0" />
  <line id="mol11:Bond:1" class="event" x1="222.75" y1="131.53" x2="201.96" y2="143.53" stroke-width="1.5" opacity="0" />
  <line id="mol11:Bond:2" class="event" x1="201.96" y1="143.53" x2="181.18" y2="131.53" stroke-width="1.5" opacity="0" />
  <line id="mol11:Bond:3" class="event" x1="181.18" y1="131.53" x2="160.39" y2="143.53" stroke-width="1.5" opacity="0" />
  <line id="mol11:Bond:4" class="event" x1="160.39" y1="143.53" x2="160.39" y2="167.53" stroke-width="1.5" opacity="0" />
  <line id="mol11:Bond:6" class="event" x1="140.98" y1="181.64" x2="148.39" y2="204.47" stroke-width="1.5" opacity="0" />
  <line id="mol11:Bond:8" class="event" x1="172.39" y1="204.47" x2="179.81" y2="181.64" stroke-width="1.5" opacity="0" />
  <line id="mol11:Bond:9" class="event" x1="160.39" y1="167.53" x2="179.81" y2="181.64" stroke-width="1.5" opacity="0" />
  <line id="mol11:Bond:10" class="event" x1="160.39" y1="143.53" x2="139.61" y2="131.53" stroke-width="1.5" opacity="0" />
  <line id="mol11:Bond:11" class="event" x1="139.61" y1="131.53" x2="118.82" y2="143.53" stroke-width="1.5" opacity="0" />
  <line id="mol11:Bond:13" class="event" x1="118.82" y1="167.53" x2="98.04" y2="179.53" stroke-width="1.5" opacity="0" />
  <line id="mol11:Bond:15" class="event" x1="77.25" y1="167.53" x2="77.25" y2="143.53" stroke-width="1.5" opacity="0" />
  <line id="mol11:Bond:17" class="event" x1="56.47" y1="131.53" x2="56.47" y2="107.53" stroke-width="1.5" opacity="0" />
  <line id="mol11:Bond:19" class="event" x1="77.25" y1="95.53" x2="98.04" y2="107.53" stroke-width="1.5" opacity="0" />
  <line id="mol11:Bond:21" class="event" x1="77.25" y1="143.53" x2="98.04" y2="131.53" stroke-width="1.5" opacity="0" />
  <line id="mol11:Bond:22" class="event" x1="118.82" y1="143.53" x2="98.04" y2="131.53" stroke-width="1.5" opacity="0" />
  <circle id="mol11:Atom:0" class="event" cx="243.53" cy="143.53" r="8" opacity="0" />
  <circle id="mol11:Atom:1" class="event" cx="222.75" cy="131.53" r="8" opacity="0" />
  <circle id="mol11:Atom:2" class="event" cx="201.96" cy="143.53" r="8" opacity="0" />
  <circle id="mol11:Atom:3" class="event" cx="181.18" cy="131.53" r="8" opacity="0" />
  <circle id="mol11:Atom:4" class="event" cx="160.39" cy="143.53" r="8" opacity="0" />
  <circle id="mol11:Atom:5" class="event" cx="160.39" cy="167.53" r="8" opacity="0" />
  <circle id="mol11:Atom:6" class="event" cx="140.98" cy="181.64" r="8" opacity="0" />
  <circle id="mol11:Atom:7" class="event" cx="148.39" cy="204.47" r="8" opacity="0" />
  <circle id="mol11:Atom:8" class="event" cx="172.39" cy="204.47" r="8" opacity="0" />
  <circle id="mol11:Atom:9" class="event" cx="179.81" cy="181.64" r="8" opacity="0" />
  <circle id="mol11:Atom:10" class="event" cx="139.61" cy="131.53" r="8" opacity="0" />
  <circle id="mol11:Atom:11" class="event" cx="118.82" cy="143.53" r="8" opacity="0" />
  <circle id="mol11:Atom:12" class="event" cx="118.82" cy="167.53" r="8" opacity="0" />
  <circle id="mol11:Atom:13" class="event" cx="98.04" cy="179.53" r="8" opacity="0" />
  <circle id="mol11:Atom:14" class="event" cx="77.25" cy="167.53" r="8" opacity="0" />
  <circle id="mol11:Atom:15" class="event" cx="77.25" cy="143.53" r="8" opacity="0" />
  <circle id="mol11:Atom:16" class="event" cx="56.47" cy="131.53" r="8" opacity="0" />
  <circle id="mol11:Atom:17" class="event" cx="56.47" cy="107.53" r="8" opacity="0" />
  <circle id="mol11:Atom:18" class="event" cx="77.25" cy="95.53" r="8" opacity="0" />
  <circle id="mol11:Atom:19" class="event" cx="98.04" cy="107.53" r="8" opacity="0" />
  <circle id="mol11:Atom:20" class="event" cx="98.04" cy="131.53" r="8" opacity="0" />
</svg>