<svg id="mol13" xmlns="http://www.w3.org/2000/svg" version="1.1" width="245px" height="168px" viewBox="27 70 245 168">
  <style> #mol13 text {font-family: sans-serif;} #mol13 { pointer-events:none; } #mol13 .event  { pointer-events:all; } #mol13 line { stroke-linecap:round; } #mol13 polygon { stroke-linejoin:round; } </style>
  <text x="103.99" y="251.15" stroke="none" font-size="12" fill="rgb(160,0,0)">unknown chirality</text>
  <text x="155.34" y="94.67" stroke="none" font-size="14" fill="rgb(129,140,248)">N</text>
  <text x="113.77" y="118.67" stroke="none" font-size="14" fill="rgb(129,140,248)">N</text>
  <text x="93.03" y="134" stroke="none" font-size="9" fill="rgb(160,0,0)">?</text>
  <text x="91.43" y="226.67" stroke="none" font-size="14" fill="rgb(31,240,31)">Cl</text>
  <line x1="243.53" y1="90" x2="222.75" y2="78" stroke="rgb(228,226,242)" stroke-width="1.5" />
  <line x1="239.51" y1="91.84" x2="223.16" y2="82.4" stroke="rgb(228,226,242)" stroke-width="1.5" />
  <line x1="201.96" y1="90" x2="201.96" y2="114" stroke="rgb(228,226,242)" stroke-width="1.5" />
  <line x1="205.56" y1="92.56" x2="205.56" y2="111.44" stroke="rgb(228,226,242)" stroke-width="1.5" />
  <line x1="222.75" y1="126" x2="243.53" y2="114" stroke="rgb(228,226,242)" stroke-width="1.5" />
  <line x1="223.16" y1="121.6" x2="239.51" y2="112.16" stroke="rgb(228,226,242)" stroke-width="1.5" />
  <line x1="77.25" y1="114" x2="77.25" y2="90" stroke="rgb(228,226,242)" stroke-width="1.5" />
  <line x1="73.65" y1="111.44" x2="73.65" y2="92.56" stroke="rgb(228,226,242)" stroke-width="1.5" />
  <line x1="56.47" y1="78" x2="35.68" y2="90" stroke="rgb(228,226,242)" stroke-width="1.5" />
  <line x1="56.05" y1="82.4" x2="39.7" y2="91.84" stroke="rgb(228,226,242)" stroke-width="1.5" />
  <line x1="35.68" y1="114" x2="56.47" y2="126" stroke="rgb(228,226,242)" stroke-width="1.5" />
  <line x1="39.7" y1="112.16" x2="56.05" y2="121.6" stroke="rgb(228,226,242)" stroke-width="1.5" />
  <line x1="98.04" y1="150" x2="77.25" y2="162" stroke="rgb(228,226,242)" stroke-width="1.5" />
  <line x1="97.62" y1="154.4" x2="81.27" y2="163.84" stroke="rgb(228,226,242)" stroke-width="1.5" />
  <line x1="77.25" y1="186" x2="98.04" y2="198" stroke="rgb(228,226,242)" stroke-width="1.5" />
  <line x1="81.27" y1="184.16" x2="97.62" y2="193.6" stroke="rgb(228,226,242)" stroke-width="1.5" />
  <line x1="118.82" y1="186" x2="118.82" y2="162" stroke="rgb(228,226,242)" stroke-width="1.5" />
  <line x1="115.22" y1="183.44" x2="115.22" y2="164.56" stroke="rgb(228,226,242)" stroke-width="1.5" />
  <line x1="264.32" y1="78" x2="243.53" y2="90" stroke="rgb(228,226,242)" stroke-width="1.5" />
  <line x1="222.75" y1="78" x2="201.96" y2="90" stroke="rgb(228,226,242)" stroke-width="1.5" />
  <line x1="201.96" y1="114" x2="222.75" y2="126" stroke="rgb(228,226,242)" stroke-width="1.5" />
  <line x1="243.53" y1="90" x2="243.53" y2="114" stroke="rgb(228,226,242)" stroke-width="1.5" />
  <line x1="201.96" y1="90" x2="181.18" y2="78" stroke="rgb(228,226,242)" stroke-width="1.5" />
  <line x1="181.18" y1="78" x2="166.45" y2="86.5" stroke="rgb(228,226,242)" stroke-width="1.5" />
  <line x1="154.34" y1="86.5" x2="139.61" y2="78" stroke="rgb(228,226,242)" stroke-width="1.5" />
  <line x1="139.61" y1="78" x2="118.82" y2="90" stroke="rgb(228,226,242)" stroke-width="1.5" />
  <line x1="118.82" y1="90" x2="118.82" y2="107" stroke="rgb(228,226,242)" stroke-width="1.5" />
  <line x1="124.88" y1="117.5" x2="139.61" y2="126" stroke="rgb(228,226,242)" stroke-width="1.5" />
  <line x1="139.61" y1="126" x2="160.39" y2="114" stroke="rgb(228,226,242)" stroke-width="1.5" />
  <line x1="160.39" y1="97" x2="160.39" y2="114" stroke="rgb(228,226,242)" stroke-width="1.5" />
  <line x1="112.77" y1="117.5" x2="98.04" y2="126" stroke="rgb(228,226,242)" stroke-width="1.5" />
  <line x1="98.04" y1="126" x2="77.25" y2="114" stroke="rgb(228,226,242)" stroke-width="1.5" />
  <line x1="77.25" y1="90" x2="56.47" y2="78" stroke="rgb(228,226,242)" stroke-width="1.5" />
  <line x1="35.68" y1="90" x2="35.68" y2="114" stroke="rgb(228,226,242)" stroke-width="1.5" />
  <line x1="77.25" y1="114" x2="56.47" y2="126" stroke="rgb(228,226,242)" stroke-width="1.5" />
  <line x1="98.04" y1="126" x2="98.04" y2="150" stroke="rgb(228,226,242)" stroke-width="1.5" />
  <line x1="77.25" y1="162" x2="77.25" y2="186" stroke="rgb(228,226,242)" stroke-width="1.5" />
  <line x1="98.04" y1="198" x2="118.82" y2="186" stroke="rgb(228,226,242)" stroke-width="1.5" />
  <line x1="98.04" y1="150" x2="118.82" y2="162" stroke="rgb(228,226,242)" stroke-width="1.5" />
  <line x1="98.04" y1="198" x2="98.04" y2="215" stroke="rgb(228,226,242)" stroke-width="1.5" />
  <line id="mol13:Bond:1" class="event" x1="243.53" y1="90" x2="222.75" y2="78" stroke-width="1.5" opacity="0" />
  <line id="mol13:Bond:3" class="event" x1="201.96" y1="90" x2="201.96" y2="114" stroke-width="1.5" opacity="0" />
  <line id="mol13:Bond:5" class="event" x1="222.75" y1="126" x2="243.53" y2="114" stroke-width="1.5" opacity="0" />
  <line id="mol13:Bond:17" class="event" x1="77.25" y1="114" x2="77.25" y2="90" stroke-width="1.5" opacity="0" />
  <line id="mol13:Bond:19" class="event" x1="56.47" y1="78" x2="35.68" y2="90" stroke-width="1.5" opacity="0" />
  <line id="mol13:Bond:21" class="event" x1="35.68" y1="114" x2="56.47" y2="126" stroke-width="1.5" opacity="0" />
  <line id="mol13:Bond:24" class="event" x1="98.04" y1="150" x2="77.25" y2="162" stroke-width="1.5" opacity="0" />
  <line id="mol13:Bond:26" class="event" x1="77.25" y1="186" x2="98.04" y2="198" stroke-width="1.5" opacity="0" />
  <line id="mol13:Bond:28" class="event" x1="118.82" y1="186" x2="118.82" y2="162" stroke-width="1.5" opacity="0" />
  <line id="mol13:Bond:0" class="event" x1="264.32" y1="78" x2="243.53" y2="90" stroke-width="1.5" opacity="0" />
  <line id="mol13:Bond:2" class="event" x1="222.75" y1="78" x2="201.96" y2="90" stroke-width="1.5" opacity="0" />
  <line id="mol13:Bond:4" class="event" x1="201.96" y1="114" x2="222.75" y2="126" stroke-width="1.5" opacity="0" />
  <line id="mol13:Bond:6" class="event" x1="243.53" y1="90" x2="243.53" y2="114" stroke-width="1.5" opacity="0" />
  <line id="mol13:Bond:7" class="event" x1="201.96" y1="90" x2="181.18" y2="78" stroke-width="1.5" opacity="0" />
  <line id="mol13:Bond:8" class="event" x1="181.18" y1="78" x2="160.39" y2="90" stroke-width="1.5" opacity="0" />
  <line id="mol13:Bond:9" class="event" x1="160.39" y1="90" x2="139.61" y2="78" stroke-width="1.5" opacity="0" />
  <line id="mol13:Bond:10" class="event" x1="139.61" y1="78" x2="118.82" y2="90" stroke-width="1.5" opacity="0" />
  <line id="mol13:Bond:11" class="event" x1="118.82" y1="90" x2="118.82" y2="114" stroke-width="1.5" opacity="0" />
  <line id="mol13:Bond:12" class="event" x1="118.82" y1="114" x2="139.61" y2="126" stroke-width="1.5" opacity="0" />
  <line id="mol13:Bond:13" class="event" x1="139.61" y1="126" x2="160.39" y2="114" stroke-width="1.5" opacity="0" />
  <line id="mol13:Bond:14" class="event" x1="160.39" y1="90" x2="160.39" y2="114" stroke-width="1.5" opacity="0" />
  <line id="mol13:Bond:15" class="event" x1="118.82" y1="114" x2="98.04" y2="126" stroke-width="1.5" opacity="0" />
  <line id="mol13:Bond:16" class="event" x1="98.04" y1="126" x2="77.25" y2="114" stroke-width="1.5" opacity="0" />
  <line id="mol13:Bond:18" class="event" x1="77.25" y1="90" x2="56.47" y2="78" stroke-width="1.5" opacity="0" />
  <line id="mol13:Bond:20" class="event" x1="35.68" y1="90" x2="35.68" y2="114" stroke-width="1.5" opacity="0" />
  <line id="mol13:Bond:22" class="event" x1="77.25" y1="114" x2="56.47" y2="126" stroke-width="1.5" opacity="0" />
  <line id="mol13:Bond:23" class="event" x1="98.04" y1="126" x2="98.04" y2="150" stroke-width="1.5" opacity="0" />
  <line id="mol13:Bond:25" class="event" x1="77.25" y1="162" x2="77.25" y2="186" stroke-width="1.5" opacity="0" />
  <line id="mol13:Bond:27" class="event" x1="98.04" y1="198" x2="118.82" y2="186" stroke-width="1.5" opacity="0" />
  <line id="mol13:Bond:29" class="event" x1="98.04" y1="150" x2="118.82" y2="162" stroke-width="1.5" opacity="0" />
  <line id="mol13:Bond:30" class="event" x1="98.04" y1="198" x2="98.04" y2="222" stroke-width="1.5" opacity="0" />
  <circle id="mol13:Atom:0" class="event" cx="264.32" cy="78" r="8" opacity="0" />
  <circle id="mol13:Atom:1" class="event" cx="243.53" cy="90" r="8" opacity="0" />
  <circle id="mol13:Atom:2" class="event" cx="222.75" cy="78" r="8" opacity="0" />
  <circle id="mol13:Atom:3" class="event" cx="201.96" cy="90" r="8" opacity="0" />
  <circle id="mol13:Atom:4" class="event" cx="201.96" cy="114" r="8" opacity="0" />
  <circle id="mol13:Atom:5" class="event" cx="222.75" cy="126" r="8" opacity="0" />
  <circle id="mol13:Atom:6" class="event" cx="243.53" cy="114" r="8" opacity="0" />
  <circle id="mol13:Atom:7" class="event" cx="181.18" cy="78" r="8" opacity="0" />
  <circle id="mol13:Atom:8" class="event" cx="160.39" cy="90" r="8" opacity="0" />
  <circle id="mol13:Atom:9" class="event" cx="139.61" cy="78" r="8" opacity="0" />
  <circle id="mol13:Atom:10" class="event" cx="118.82" cy="90" r="8" opacity="0" />
  <circle id="mol13:Atom:11" class="event" cx="118.82" cy="114" r="8" opacity="0" />
  <circle id="mol13:Atom:12" class="event" cx="139.61" cy="126" r="8" opacity="0" />
  <circle id="mol13:Atom:13" class="event" cx="160.39" cy="114" r="8" opacity="0" />
  <circle id="mol13:Atom:14" class="event" cx="98.04" cy="126" r="8" opacity="0" />
  <circle id="mol13:Atom:15" class="event" cx="77.25" cy="114" r="8" opacity="0" />
  <circle id="mol13:Atom:16" class="event" cx="77.25" cy="90" r="8" opacity="0" />
  <circle id="mol13:Atom:17" class="event" cx="56.47" cy="78" r="8" opacity="0" />
  <circle id="mol13:Atom:18" class="event" cx="35.68" cy="90" r="8" opacity="0" />
  <circle id="mol13:Atom:19" class="event" cx="35.68" cy="114" r="8" opacity="0" />
  <circle id="mol13:Atom:20" class="event" cx="56.47" cy="126" r="8" opacity="0" />
  <circle id="mol13:Atom:21" class="event" cx="98.04" cy="150" r="8" opacity="0" />
  <circle id="mol13:Atom:22" class="event" cx="77.25" cy="162" r="8" opacity="0" />
  <circle id="mol13:Atom:23" class="event" cx="77.25" cy="186" r="8" opacity="0" />
  <circle id="mol13:Atom:24" class="event" cx="98.04" cy="198" r="8" opacity="0" />
  <circle id="mol13:Atom:25" class="event" cx="118.82" cy="186" r="8" opacity="0" />
  <circle id="mol13:Atom:26" class="event" cx="118.82" cy="162" r="8" opacity="0" />
  <circle id="mol13:Atom:27" class="event" cx="98.04" cy="222" r="8" opacity="0" />
</svg>