<svg id="mol13" xmlns="http://www.w3.org/2000/svg" version="1.1" width="142px" height="137px" viewBox="79 82 142 137">
  <style> #mol13 text {font-family: sans-serif;} #mol13 { pointer-events:none; } #mol13 .event  { pointer-events:all; } #mol13 line { stroke-linecap:round; } #mol13 polygon { stroke-linejoin:round; } </style>
  <text x="103.99" y="232.15" stroke="none" font-size="12" fill="rgb(160,0,0)">unknown chirality</text>
  <text x="186.12" y="166.67" stroke="none" font-size="14" fill="rgb(248,113,113)">O</text>
  <text x="165.34" y="202.67" stroke="none" font-size="14" fill="rgb(248,113,113)">O</text>
  <text x="145" y="170" stroke="none" font-size="9" fill="rgb(160,0,0)">?</text>
  <text x="145" y="146" stroke="none" font-size="9" fill="rgb(160,0,0)">?</text>
  <text x="124.16" y="130.67" stroke="none" font-size="14" fill="rgb(129,140,248)">N</text>
  <text x="114.05" y="130.67" stroke="none" font-size="14" fill="rgb(129,140,248)">H</text>
  <line x1="168.98" y1="172.96" x2="168.98" y2="191" stroke="rgb(228,226,242)" stroke-width="1.5" />
  <line x1="172.58" y1="172.96" x2="172.58" y2="191" stroke="rgb(228,226,242)" stroke-width="1.5" />
  <line x1="129.22" y1="174" x2="108.43" y2="162" stroke="rgb(228,226,242)" stroke-width="1.5" />
  <line x1="125.2" y1="175.84" x2="108.85" y2="166.4" stroke="rgb(228,226,242)" stroke-width="1.5" />
  <line x1="87.65" y1="174" x2="87.65" y2="198" stroke="rgb(228,226,242)" stroke-width="1.5" />
  <line x1="91.25" y1="176.56" x2="91.25" y2="195.44" stroke="rgb(228,226,242)" stroke-width="1.5" />
  <line x1="108.43" y1="210" x2="129.22" y2="198" stroke="rgb(228,226,242)" stroke-width="1.5" />
  <line x1="108.85" y1="205.6" x2="125.2" y2="196.16" stroke="rgb(228,226,242)" stroke-width="1.5" />
  <line x1="212.35" y1="174" x2="198.02" y2="165.72" stroke="rgb(228,226,242)" stroke-width="1.5" />
  <line x1="185.12" y1="165.72" x2="170.78" y2="174" stroke="rgb(228,226,242)" stroke-width="1.5" />
  <line x1="170.78" y1="174" x2="150" y2="162" stroke="rgb(228,226,242)" stroke-width="1.5" />
  <line x1="150" y1="162" x2="150" y2="138" stroke="rgb(228,226,242)" stroke-width="1.5" />
  <line x1="150" y1="138" x2="170.78" y2="126" stroke="rgb(228,226,242)" stroke-width="1.5" />
  <line x1="170.78" y1="126" x2="170.78" y2="102" stroke="rgb(228,226,242)" stroke-width="1.5" />
  <line x1="170.78" y1="102" x2="150" y2="90" stroke="rgb(228,226,242)" stroke-width="1.5" />
  <line x1="150" y1="90" x2="129.22" y2="102" stroke="rgb(228,226,242)" stroke-width="1.5" />
  <line x1="129.22" y1="102" x2="129.22" y2="119" stroke="rgb(228,226,242)" stroke-width="1.5" />
  <line x1="150" y1="138" x2="135.27" y2="129.5" stroke="rgb(228,226,242)" stroke-width="1.5" />
  <line x1="150" y1="162" x2="129.22" y2="174" stroke="rgb(228,226,242)" stroke-width="1.5" />
  <line x1="108.43" y1="162" x2="87.65" y2="174" stroke="rgb(228,226,242)" stroke-width="1.5" />
  <line x1="87.65" y1="198" x2="108.43" y2="210" stroke="rgb(228,226,242)" stroke-width="1.5" />
  <line x1="129.22" y1="174" x2="129.22" y2="198" stroke="rgb(228,226,242)" stroke-width="1.5" />
  <line id="mol13:Bond:2" class="event" x1="170.78" y1="174" x2="170.78" y2="198" stroke-width="1.5" opacity="0" />
  <line id="mol13:Bond:12" class="event" x1="129.22" y1="174" x2="108.43" y2="162" stroke-width="1.5" opacity="0" />
  <line id="mol13:Bond:14" class="event" x1="87.65" y1="174" x2="87.65" y2="198" stroke-width="1.5" opacity="0" />
  <line id="mol13:Bond:16" class="event" x1="108.43" y1="210" x2="129.22" y2="198" stroke-width="1.5" opacity="0" />
  <line id="mol13:Bond:0" class="event" x1="212.35" y1="174" x2="191.57" y2="162" stroke-width="1.5" opacity="0" />
  <line id="mol13:Bond:1" class="event" x1="191.57" y1="162" x2="170.78" y2="174" stroke-width="1.5" opacity="0" />
  <line id="mol13:Bond:3" class="event" x1="170.78" y1="174" x2="150" y2="162" stroke-width="1.5" opacity="0" />
  <line id="mol13:Bond:4" class="event" x1="150" y1="162" x2="150" y2="138" stroke-width="1.5" opacity="0" />
  <line id="mol13:Bond:5" class="event" x1="150" y1="138" x2="170.78" y2="126" stroke-width="1.5" opacity="0" />
  <line id="mol13:Bond:6" class="event" x1="170.78" y1="126" x2="170.78" y2="102" stroke-width="1.5" opacity="0" />
  <line id="mol13:Bond:7" class="event" x1="170.78" y1="102" x2="150" y2="90" stroke-width="1.5" opacity="0" />
  <line id="mol13:Bond:8" class="event" x1="150" y1="90" x2="129.22" y2="102" stroke-width="1.5" opacity="0" />
  <line id="mol13:Bond:9" class="event" x1="129.22" y1="102" x2="129.22" y2="126" stroke-width="1.5" opacity="0" />
  <line id="mol13:Bond:10" class="event" x1="150" y1="138" x2="129.22" y2="126" stroke-width="1.5" opacity="0" />
  <line id="mol13:Bond:11" class="event" x1="150" y1="162" x2="129.22" y2="174" stroke-width="1.5" opacity="0" />
  <line id="mol13:Bond:13" class="event" x1="108.43" y1="162" x2="87.65" y2="174" stroke-width="1.5" opacity="0" />
  <line id="mol13:Bond:15" class="event" x1="87.65" y1="198" x2="108.43" y2="210" stroke-width="1.5" opacity="0" />
  <line id="mol13:Bond:17" class="event" x1="129.22" y1="174" x2="129.22" y2="198" stroke-width="1.5" opacity="0" />
  <circle id="mol13:Atom:0" class="event" cx="212.35" cy="174" r="8" opacity="0" />
  <circle id="mol13:Atom:1" class="event" cx="191.57" cy="162" r="8" opacity="0" />
  <circle id="mol13:Atom:2" class="event" cx="170.78" cy="174" r="8" opacity="0" />
  <circle id="mol13:Atom:3" class="event" cx="170.78" cy="198" r="8" opacity="0" />
  <circle id="mol13:Atom:4" class="event" cx="150" cy="162" r="8" opacity="0" />
  <circle id="mol13:Atom:5" class="event" cx="150" cy="138" r="8" opacity="0" />
  <circle id="mol13:Atom:6" class="event" cx="170.78" cy="126" r="8" opacity="0" />
  <circle id="mol13:Atom:7" class="event" cx="170.78" cy="102" r="8" opacity="0" />
  <circle id="mol13:Atom:8" class="event" cx="150" cy="90" r="8" opacity="0" />
  <circle id="mol13:Atom:9" class="event" cx="129.22" cy="102" r="8" opacity="0" />
  <circle id="mol13:Atom:10" class="event" cx="129.22" cy="126" r="8" opacity="0" />
  <circle id="mol13:Atom:11" class="event" cx="129.22" cy="174" r="8" opacity="0" />
  <circle id="mol13:Atom:12" class="event" cx="108.43" cy="162" r="8" opacity="0" />
  <circle id="mol13:Atom:13" class="event" cx="87.65" cy="174" r="8" opacity="0" />
  <circle id="mol13:Atom:14" class="event" cx="87.65" cy="198" r="8" opacity="0" />
  <circle id="mol13:Atom:15" class="event" cx="108.43" cy="210" r="8" opacity="0" />
  <circle id="mol13:Atom:16" class="event" cx="129.22" cy="198" r="8" opacity="0" />
</svg>