<svg id="mol14" xmlns="http://www.w3.org/2000/svg" version="1.1" width="121px" height="65px" viewBox="90 118 121 65">
  <style> #mol14 text {font-family: sans-serif;} #mol14 { pointer-events:none; } #mol14 .event  { pointer-events:all; } #mol14 line { stroke-linecap:round; } #mol14 polygon { stroke-linejoin:round; } </style>
  <text x="104.18" y="196.15" stroke="none" font-size="12" fill="rgb(160,0,0)">unknown chirality</text>
  <text x="176.17" y="146" stroke="none" font-size="9" fill="rgb(160,0,0)">?</text>
  <text x="176.12" y="166.67" stroke="none" font-size="14" fill="rgb(129,140,248)">N</text>
  <text x="196.34" y="170" stroke="none" font-size="9" fill="rgb(129,140,248)">2</text>
  <text x="186.23" y="166.67" stroke="none" font-size="14" fill="rgb(129,140,248)">H</text>
  <line x1="139.61" y1="138" x2="118.82" y2="126" stroke="rgb(228,226,242)" stroke-width="1.5" />
  <line x1="135.59" y1="139.84" x2="119.24" y2="130.4" stroke="rgb(228,226,242)" stroke-width="1.5" />
  <line x1="98.04" y1="138" x2="98.04" y2="162" stroke="rgb(228,226,242)" stroke-width="1.5" />
  <line x1="101.64" y1="140.56" x2="101.64" y2="159.44" stroke="rgb(228,226,242)" stroke-width="1.5" />
  <line x1="118.82" y1="174" x2="139.61" y2="162" stroke="rgb(228,226,242)" stroke-width="1.5" />
  <line x1="119.24" y1="169.6" x2="135.59" y2="160.16" stroke="rgb(228,226,242)" stroke-width="1.5" />
  <line x1="201.96" y1="126" x2="181.18" y2="138" stroke="rgb(228,226,242)" stroke-width="1.5" />
  <line x1="181.18" y1="138" x2="160.39" y2="126" stroke="rgb(228,226,242)" stroke-width="1.5" />
  <line x1="160.39" y1="126" x2="139.61" y2="138" stroke="rgb(228,226,242)" stroke-width="1.5" />
  <line x1="118.82" y1="126" x2="98.04" y2="138" stroke="rgb(228,226,242)" stroke-width="1.5" />
  <line x1="98.04" y1="162" x2="118.82" y2="174" stroke="rgb(228,226,242)" stroke-width="1.5" />
  <line x1="139.61" y1="138" x2="139.61" y2="162" stroke="rgb(228,226,242)" stroke-width="1.5" />
  <line x1="181.18" y1="138" x2="181.18" y2="155" stroke="rgb(228,226,242)" stroke-width="1.5" />
  <line id="mol14:Bond:3" class="event" x1="139.61" y1="138" x2="118.82" y2="126" stroke-width="1.5" opacity="0" />
  <line id="mol14:Bond:5" class="event" x1="98.04" y1="138" x2="98.04" y2="162" stroke-width="1.5" opacity="0" />
  <line id="mol14:Bond:7" class="event" x1="118.82" y1="174" x2="139.61" y2="162" stroke-width="1.5" opacity="0" />
  <line id="mol14:Bond:0" class="event" x1="201.96" y1="126" x2="181.18" y2="138" stroke-width="1.5" opacity="0" />
  <line id="mol14:Bond:1" class="event" x1="181.18" y1="138" x2="160.39" y2="126" stroke-width="1.5" opacity="0" />
  <line id="mol14:Bond:2" class="event" x1="160.39" y1="126" x2="139.61" y2="138" stroke-width="1.5" opacity="0" />
  <line id="mol14:Bond:4" class="event" x1="118.82" y1="126" x2="98.04" y2="138" stroke-width="1.5" opacity="0" />
  <line id="mol14:Bond:6" class="event" x1="98.04" y1="162" x2="118.82" y2="174" stroke-width="1.5" opacity="0" />
  <line id="mol14:Bond:8" class="event" x1="139.61" y1="138" x2="139.61" y2="162" stroke-width="1.5" opacity="0" />
  <line id="mol14:Bond:9" class="event" x1="181.18" y1="138" x2="181.18" y2="162" stroke-width="1.5" opacity="0" />
  <circle id="mol14:Atom:0" class="event" cx="201.96" cy="126" r="8" opacity="0" />
  <circle id="mol14:Atom:1" class="event" cx="181.18" cy="138" r="8" opacity="0" />
  <circle id="mol14:Atom:2" class="event" cx="160.39" cy="126" r="8" opacity="0" />
  <circle id="mol14:Atom:3" class="event" cx="139.61" cy="138" r="8" opacity="0" />
  <circle id="mol14:Atom:4" class="event" cx="118.82" cy="126" r="8" opacity="0" />
  <circle id="mol14:Atom:5" class="event" cx="98.04" cy="138" r="8" opacity="0" />
  <circle id="mol14:Atom:6" class="event" cx="98.04" cy="162" r="8" opacity="0" />
  <circle id="mol14:Atom:7" class="event" cx="118.82" cy="174" r="8" opacity="0" />
  <circle id="mol14:Atom:8" class="event" cx="139.61" cy="162" r="8" opacity="0" />
  <circle id="mol14:Atom:9" class="event" cx="181.18" cy="162" r="8" opacity="0" />
</svg>