<svg id="mol15" xmlns="http://www.w3.org/2000/svg" version="1.1" width="121px" height="65px" viewBox="90 118 121 65">
  <style> #mol15 text {font-family: sans-serif;} #mol15 { pointer-events:none; } #mol15 .event  { pointer-events:all; } #mol15 line { stroke-linecap:round; } #mol15 polygon { stroke-linejoin:round; } </style>
  <text x="109.17" y="196.15" stroke="none" font-size="12" fill="rgb(160,0,0)">this enantiomer</text>
  <text x="175.17" y="146" stroke="none" font-size="9" fill="rgb(160,0,0)">S</text>
  <text x="173.92" y="134.7" stroke="none" font-size="9" fill="rgb(160,0,0)">abs</text>
  <text x="176.12" y="166.67" stroke="none" font-size="14" fill="rgb(129,140,248)">N</text>
  <text x="196.34" y="170" stroke="none" font-size="9" fill="rgb(129,140,248)">2</text>
  <text x="186.23" y="166.67" stroke="none" font-size="14" fill="rgb(129,140,248)">H</text>
  <line x1="139.61" y1="138" x2="118.82" y2="126" stroke="rgb(228,226,242)" stroke-width="1.5" />
  <line x1="135.59" y1="139.84" x2="119.24" y2="130.4" stroke="rgb(228,226,242)" stroke-width="1.5" />
  <line x1="98.04" y1="138" x2="98.04" y2="162" stroke="rgb(228,226,242)" stroke-width="1.5" />
  <line x1="101.64" y1="140.56" x2="101.64" y2="159.44" stroke="rgb(228,226,242)" stroke-width="1.5" />
  <line x1="118.82" y1="174" x2="139.61" y2="162" stroke="rgb(228,226,242)" stroke-width="1.5" />
  <line x1="119.24" y1="169.6" x2="135.59" y2="160.16" stroke="rgb(228,226,242)" stroke-width="1.5" />
  <line x1="201.96" y1="126" x2="181.18" y2="138" stroke="rgb(228,226,242)" stroke-width="1.5" />
  <line x1="181.18" y1="138" x2="160.39" y2="126" stroke="rgb(228,226,242)" stroke-width="1.5" />
  <line x1="160.39" y1="126" x2="139.61" y2="138" stroke="rgb(228,226,242)" stroke-width="1.5" />
  <line x1="118.82" y1="126" x2="98.04" y2="138" stroke="rgb(228,226,242)" stroke-width="1.5" />
  <line x1="98.04" y1="162" x2="118.82" y2="174" stroke="rgb(228,226,242)" stroke-width="1.5" />
  <line x1="139.61" y1="138" x2="139.61" y2="162" stroke="rgb(228,226,242)" stroke-width="1.5" />
  <line x1="180.8" y1="140.82" x2="181.55" y2="140.82" stroke="rgb(160,0,0)" stroke-width="1.5" />
  <line x1="180.43" y1="143.65" x2="181.93" y2="143.65" stroke="rgb(160,0,0)" stroke-width="1.5" />
  <line x1="180.05" y1="146.47" x2="182.3" y2="146.47" stroke="rgb(160,0,0)" stroke-width="1.5" />
  <line x1="179.68" y1="149.29" x2="182.68" y2="149.29" stroke="rgb(160,0,0)" stroke-width="1.5" />
  <line x1="179.3" y1="152.12" x2="183.05" y2="152.12" stroke="rgb(160,0,0)" stroke-width="1.5" />
  <line x1="178.93" y1="154.94" x2="183.43" y2="154.94" stroke="rgb(160,0,0)" stroke-width="1.5" />
  <line id="mol15:Bond:3" class="event" x1="139.61" y1="138" x2="118.82" y2="126" stroke-width="1.5" opacity="0" />
  <line id="mol15:Bond:5" class="event" x1="98.04" y1="138" x2="98.04" y2="162" stroke-width="1.5" opacity="0" />
  <line id="mol15:Bond:7" class="event" x1="118.82" y1="174" x2="139.61" y2="162" stroke-width="1.5" opacity="0" />
  <line id="mol15:Bond:0" class="event" x1="201.96" y1="126" x2="181.18" y2="138" stroke-width="1.5" opacity="0" />
  <line id="mol15:Bond:1" class="event" x1="181.18" y1="138" x2="160.39" y2="126" stroke-width="1.5" opacity="0" />
  <line id="mol15:Bond:2" class="event" x1="160.39" y1="126" x2="139.61" y2="138" stroke-width="1.5" opacity="0" />
  <line id="mol15:Bond:4" class="event" x1="118.82" y1="126" x2="98.04" y2="138" stroke-width="1.5" opacity="0" />
  <line id="mol15:Bond:6" class="event" x1="98.04" y1="162" x2="118.82" y2="174" stroke-width="1.5" opacity="0" />
  <line id="mol15:Bond:8" class="event" x1="139.61" y1="138" x2="139.61" y2="162" stroke-width="1.5" opacity="0" />
  <line id="mol15:Bond:9" class="event" x1="181.18" y1="138" x2="181.18" y2="162" stroke-width="1.5" opacity="0" />
  <circle id="mol15:Atom:0" class="event" cx="201.96" cy="126" r="8" opacity="0" />
  <circle id="mol15:Atom:1" class="event" cx="181.18" cy="138" r="8" opacity="0" />
  <circle id="mol15:Atom:2" class="event" cx="160.39" cy="126" r="8" opacity="0" />
  <circle id="mol15:Atom:3" class="event" cx="139.61" cy="138" r="8" opacity="0" />
  <circle id="mol15:Atom:4" class="event" cx="118.82" cy="126" r="8" opacity="0" />
  <circle id="mol15:Atom:5" class="event" cx="98.04" cy="138" r="8" opacity="0" />
  <circle id="mol15:Atom:6" class="event" cx="98.04" cy="162" r="8" opacity="0" />
  <circle id="mol15:Atom:7" class="event" cx="118.82" cy="174" r="8" opacity="0" />
  <circle id="mol15:Atom:8" class="event" cx="139.61" cy="162" r="8" opacity="0" />
  <circle id="mol15:Atom:9" class="event" cx="181.18" cy="162" r="8" opacity="0" />
</svg>