<svg id="mol16" xmlns="http://www.w3.org/2000/svg" version="1.1" width="264px" height="118px" viewBox="13 95 264 118">
  <style> #mol16 text {font-family: sans-serif;} #mol16 { pointer-events:none; } #mol16 .event  { pointer-events:all; } #mol16 line { stroke-linecap:round; } #mol16 polygon { stroke-linejoin:round; } </style>
  <text x="103.93" y="226.23" stroke="none" font-size="12" fill="rgb(160,0,0)">this enantiomer</text>
  <text x="232.67" y="117.35" stroke="none" font-size="14" fill="rgb(129,140,248)">N</text>
  <text x="256.71" y="150.98" stroke="none" font-size="14" fill="rgb(248,113,113)">O</text>
  <text x="191.33" y="121.69" stroke="none" font-size="14" fill="rgb(129,140,248)">N</text>
  <text x="181.22" y="121.69" stroke="none" font-size="14" fill="rgb(129,140,248)">H</text>
  <text x="177.78" y="163.4" stroke="none" font-size="14" fill="rgb(129,140,248)">N</text>
  <text x="213.25" y="179.19" stroke="none" font-size="14" fill="rgb(129,140,248)">N</text>
  <text x="152.47" y="164.22" stroke="none" font-size="9" fill="rgb(160,0,0)">R</text>
  <text x="155.14" y="153.94" stroke="none" font-size="9" fill="rgb(160,0,0)">abs</text>
  <text x="140.47" y="143.44" stroke="none" font-size="9" fill="rgb(160,0,0)">R</text>
  <text x="146" y="138.11" stroke="none" font-size="9" fill="rgb(160,0,0)">abs</text>
  <text x="117.49" y="148.43" stroke="none" font-size="9" fill="rgb(160,0,0)">S</text>
  <text x="117.87" y="137.34" stroke="none" font-size="9" fill="rgb(160,0,0)">abs</text>
  <text x="114.48" y="172.3" stroke="none" font-size="9" fill="rgb(160,0,0)">R</text>
  <text x="119.18" y="164.15" stroke="none" font-size="9" fill="rgb(160,0,0)">abs</text>
  <text x="137.46" y="178.72" stroke="none" font-size="14" fill="rgb(248,113,113)">O</text>
  <text x="73.96" y="168.96" stroke="none" font-size="14" fill="rgb(248,113,113)">O</text>
  <text x="53.96" y="180.96" stroke="none" font-size="14" fill="rgb(255,128,0)">P</text>
  <text x="41.18" y="160.18" stroke="none" font-size="14" fill="rgb(248,113,113)">O</text>
  <text x="32.4" y="192.96" stroke="none" font-size="14" fill="rgb(248,113,113)">O</text>
  <text x="22.29" y="192.96" stroke="none" font-size="14" fill="rgb(248,113,113)">H</text>
  <text x="65.18" y="201.75" stroke="none" font-size="14" fill="rgb(248,113,113)">O</text>
  <text x="76.07" y="201.75" stroke="none" font-size="14" fill="rgb(248,113,113)">H</text>
  <text x="100.21" y="129.03" stroke="none" font-size="14" fill="rgb(248,113,113)">O</text>
  <text x="90.1" y="129.03" stroke="none" font-size="14" fill="rgb(248,113,113)">H</text>
  <text x="151.28" y="118.18" stroke="none" font-size="14" fill="rgb(248,113,113)">O</text>
  <text x="162.17" y="118.18" stroke="none" font-size="14" fill="rgb(248,113,113)">H</text>
  <line x1="215.8" y1="102.92" x2="231.67" y2="109.99" stroke="rgb(228,226,242)" stroke-width="1.5" />
  <line x1="216.67" y1="107.25" x2="230.21" y2="113.27" stroke="rgb(228,226,242)" stroke-width="1.5" />
  <line x1="238.55" y1="137.77" x2="254.98" y2="145.09" stroke="rgb(228,226,242)" stroke-width="1.5" />
  <line x1="240.02" y1="134.48" x2="256.44" y2="141.8" stroke="rgb(228,226,242)" stroke-width="1.5" />
  <line x1="220.82" y1="150.66" x2="198.89" y2="140.9" stroke="rgb(228,226,242)" stroke-width="1.5" />
  <line x1="216.6" y1="152.72" x2="200.18" y2="145.41" stroke="rgb(228,226,242)" stroke-width="1.5" />
  <line x1="194.83" y1="179.52" x2="212.25" y2="175.81" stroke="rgb(228,226,242)" stroke-width="1.5" />
  <line x1="197.03" y1="175.37" x2="211.51" y2="172.29" stroke="rgb(228,226,242)" stroke-width="1.5" />
  <line x1="56.14" y1="168.4" x2="52.23" y2="161.61" stroke="rgb(228,226,242)" stroke-width="1.5" />
  <line x1="53.03" y1="170.2" x2="49.11" y2="163.41" stroke="rgb(228,226,242)" stroke-width="1.5" />
  <line x1="238.46" y1="119.68" x2="240.23" y2="136.55" stroke="rgb(228,226,242)" stroke-width="1.5" />
  <line x1="240.23" y1="136.55" x2="220.82" y2="150.66" stroke="rgb(228,226,242)" stroke-width="1.5" />
  <line x1="198.89" y1="140.9" x2="197.12" y2="124.03" stroke="rgb(228,226,242)" stroke-width="1.5" />
  <line x1="215.8" y1="102.92" x2="202.44" y2="112.63" stroke="rgb(228,226,242)" stroke-width="1.5" />
  <line x1="198.89" y1="140.9" x2="188.89" y2="152.01" stroke="rgb(228,226,242)" stroke-width="1.5" />
  <line x1="186.87" y1="165.73" x2="194.83" y2="179.52" stroke="rgb(228,226,242)" stroke-width="1.5" />
  <line x1="220.82" y1="150.66" x2="219.04" y2="167.53" stroke="rgb(228,226,242)" stroke-width="1.5" />
  <line x1="161.73" y1="156.89" x2="161.81" y2="156.14" stroke="rgb(160,0,0)" stroke-width="1.5" />
  <line x1="164.5" y1="157.56" x2="164.66" y2="156.07" stroke="rgb(160,0,0)" stroke-width="1.5" />
  <line x1="167.27" y1="158.23" x2="167.51" y2="155.99" stroke="rgb(160,0,0)" stroke-width="1.5" />
  <line x1="170.04" y1="158.89" x2="170.35" y2="155.91" stroke="rgb(160,0,0)" stroke-width="1.5" />
  <line x1="172.81" y1="159.56" x2="173.2" y2="155.83" stroke="rgb(160,0,0)" stroke-width="1.5" />
  <line x1="175.58" y1="160.23" x2="176.05" y2="155.76" stroke="rgb(160,0,0)" stroke-width="1.5" />
  <line x1="158.96" y1="156.22" x2="146.96" y2="135.44" stroke="rgb(228,226,242)" stroke-width="1.5" />
  <line x1="146.96" y1="135.44" x2="123.49" y2="140.43" stroke="rgb(228,226,242)" stroke-width="1.5" />
  <line x1="123.49" y1="140.43" x2="120.98" y2="164.3" stroke="rgb(228,226,242)" stroke-width="1.5" />
  <line x1="120.98" y1="164.3" x2="136.46" y2="171.19" stroke="rgb(228,226,242)" stroke-width="1.5" />
  <line x1="158.96" y1="156.22" x2="149.21" y2="167.06" stroke="rgb(228,226,242)" stroke-width="1.5" />
  <line x1="118.35" y1="165.38" x2="118.72" y2="166.03" stroke="rgb(160,0,0)" stroke-width="1.5" />
  <line x1="115.71" y1="166.47" x2="116.46" y2="167.77" stroke="rgb(160,0,0)" stroke-width="1.5" />
  <line x1="113.08" y1="167.56" x2="114.21" y2="169.51" stroke="rgb(160,0,0)" stroke-width="1.5" />
  <line x1="110.45" y1="168.64" x2="111.95" y2="171.24" stroke="rgb(160,0,0)" stroke-width="1.5" />
  <line x1="107.82" y1="169.73" x2="109.69" y2="172.98" stroke="rgb(160,0,0)" stroke-width="1.5" />
  <line x1="105.18" y1="170.82" x2="107.43" y2="174.71" stroke="rgb(160,0,0)" stroke-width="1.5" />
  <line x1="102.55" y1="171.9" x2="105.18" y2="176.45" stroke="rgb(160,0,0)" stroke-width="1.5" />
  <line x1="99.92" y1="172.99" x2="102.92" y2="178.19" stroke="rgb(160,0,0)" stroke-width="1.5" />
  <line x1="100.2" y1="176.3" x2="85.86" y2="168.02" stroke="rgb(228,226,242)" stroke-width="1.5" />
  <line x1="72.96" y1="168.02" x2="64.3" y2="173.02" stroke="rgb(228,226,242)" stroke-width="1.5" />
  <line x1="52.96" y1="179.57" x2="44.29" y2="184.57" stroke="rgb(228,226,242)" stroke-width="1.5" />
  <line x1="62.67" y1="183.3" x2="66.58" y2="190.08" stroke="rgb(228,226,242)" stroke-width="1.5" />
  <polygon points="123,140 118,135 117,136 " fill="rgb(160,0,0)" stroke="rgb(160,0,0)" stroke-width="1.5" />
  <polygon points="117,136 118,135 113,129 111,131 " fill="rgb(160,0,0)" stroke="rgb(160,0,0)" stroke-width="1.5" />
  <polygon points="147,135 151,128 149,128 " fill="rgb(160,0,0)" stroke="rgb(160,0,0)" stroke-width="1.5" />
  <polygon points="149,128 151,128 155,121 152,120 " fill="rgb(160,0,0)" stroke="rgb(160,0,0)" stroke-width="1.5" />
  <line id="mol16:Bond:0" class="event" x1="215.8" y1="102.92" x2="237.72" y2="112.68" stroke-width="1.5" opacity="0" />
  <line id="mol16:Bond:2" class="event" x1="240.23" y1="136.55" x2="262.16" y2="146.31" stroke-width="1.5" opacity="0" />
  <line id="mol16:Bond:4" class="event" x1="220.82" y1="150.66" x2="198.89" y2="140.9" stroke-width="1.5" opacity="0" />
  <line id="mol16:Bond:9" class="event" x1="194.83" y1="179.52" x2="218.31" y2="174.53" stroke-width="1.5" opacity="0" />
  <line id="mol16:Bond:20" class="event" x1="58.63" y1="176.3" x2="46.63" y2="155.51" stroke-width="1.5" opacity="0" />
  <line id="mol16:Bond:1" class="event" x1="237.72" y1="112.68" x2="240.23" y2="136.55" stroke-width="1.5" opacity="0" />
  <line id="mol16:Bond:3" class="event" x1="240.23" y1="136.55" x2="220.82" y2="150.66" stroke-width="1.5" opacity="0" />
  <line id="mol16:Bond:5" class="event" x1="198.89" y1="140.9" x2="196.38" y2="117.03" stroke-width="1.5" opacity="0" />
  <line id="mol16:Bond:6" class="event" x1="215.8" y1="102.92" x2="196.38" y2="117.03" stroke-width="1.5" opacity="0" />
  <line id="mol16:Bond:7" class="event" x1="198.89" y1="140.9" x2="182.83" y2="158.73" stroke-width="1.5" opacity="0" />
  <line id="mol16:Bond:8" class="event" x1="182.83" y1="158.73" x2="194.83" y2="179.52" stroke-width="1.5" opacity="0" />
  <line id="mol16:Bond:10" class="event" x1="220.82" y1="150.66" x2="218.31" y2="174.53" stroke-width="1.5" opacity="0" />
  <line id="mol16:Bond:11" class="event" x1="158.96" y1="156.22" x2="182.83" y2="158.73" stroke-width="1.5" opacity="0" />
  <line id="mol16:Bond:12" class="event" x1="158.96" y1="156.22" x2="146.96" y2="135.44" stroke-width="1.5" opacity="0" />
  <line id="mol16:Bond:13" class="event" x1="146.96" y1="135.44" x2="123.49" y2="140.43" stroke-width="1.5" opacity="0" />
  <line id="mol16:Bond:14" class="event" x1="123.49" y1="140.43" x2="120.98" y2="164.3" stroke-width="1.5" opacity="0" />
  <line id="mol16:Bond:15" class="event" x1="120.98" y1="164.3" x2="142.91" y2="174.06" stroke-width="1.5" opacity="0" />
  <line id="mol16:Bond:16" class="event" x1="158.96" y1="156.22" x2="142.91" y2="174.06" stroke-width="1.5" opacity="0" />
  <line id="mol16:Bond:17" class="event" x1="120.98" y1="164.3" x2="100.2" y2="176.3" stroke-width="1.5" opacity="0" />
  <line id="mol16:Bond:18" class="event" x1="100.2" y1="176.3" x2="79.41" y2="164.3" stroke-width="1.5" opacity="0" />
  <line id="mol16:Bond:19" class="event" x1="79.41" y1="164.3" x2="58.63" y2="176.3" stroke-width="1.5" opacity="0" />
  <line id="mol16:Bond:21" class="event" x1="58.63" y1="176.3" x2="37.84" y2="188.3" stroke-width="1.5" opacity="0" />
  <line id="mol16:Bond:22" class="event" x1="58.63" y1="176.3" x2="70.63" y2="197.08" stroke-width="1.5" opacity="0" />
  <line id="mol16:Bond:23" class="event" x1="123.49" y1="140.43" x2="105.65" y2="124.37" stroke-width="1.5" opacity="0" />
  <line id="mol16:Bond:24" class="event" x1="146.96" y1="135.44" x2="156.73" y2="113.51" stroke-width="1.5" opacity="0" />
  <circle id="mol16:Atom:0" class="event" cx="215.8" cy="102.92" r="8" opacity="0" />
  <circle id="mol16:Atom:1" class="event" cx="237.72" cy="112.68" r="8" opacity="0" />
  <circle id="mol16:Atom:2" class="event" cx="240.23" cy="136.55" r="8" opacity="0" />
  <circle id="mol16:Atom:3" class="event" cx="262.16" cy="146.31" r="8" opacity="0" />
  <circle id="mol16:Atom:4" class="event" cx="220.82" cy="150.66" r="8" opacity="0" />
  <circle id="mol16:Atom:5" class="event" cx="198.89" cy="140.9" r="8" opacity="0" />
  <circle id="mol16:Atom:6" class="event" cx="196.38" cy="117.03" r="8" opacity="0" />
  <circle id="mol16:Atom:7" class="event" cx="182.83" cy="158.73" r="8" opacity="0" />
  <circle id="mol16:Atom:8" class="event" cx="194.83" cy="179.52" r="8" opacity="0" />
  <circle id="mol16:Atom:9" class="event" cx="218.31" cy="174.53" r="8" opacity="0" />
  <circle id="mol16:Atom:10" class="event" cx="158.96" cy="156.22" r="8" opacity="0" />
  <circle id="mol16:Atom:11" class="event" cx="146.96" cy="135.44" r="8" opacity="0" />
  <circle id="mol16:Atom:12" class="event" cx="123.49" cy="140.43" r="8" opacity="0" />
  <circle id="mol16:Atom:13" class="event" cx="120.98" cy="164.3" r="8" opacity="0" />
  <circle id="mol16:Atom:14" class="event" cx="142.91" cy="174.06" r="8" opacity="0" />
  <circle id="mol16:Atom:15" class="event" cx="100.2" cy="176.3" r="8" opacity="0" />
  <circle id="mol16:Atom:16" class="event" cx="79.41" cy="164.3" r="8" opacity="0" />
  <circle id="mol16:Atom:17" class="event" cx="58.63" cy="176.3" r="8" opacity="0" />
  <circle id="mol16:Atom:18" class="event" cx="46.63" cy="155.51" r="8" opacity="0" />
  <circle id="mol16:Atom:19" class="event" cx="37.84" cy="188.3" r="8" opacity="0" />
  <circle id="mol16:Atom:20" class="event" cx="70.63" cy="197.08" r="8" opacity="0" />
  <circle id="mol16:Atom:21" class="event" cx="105.65" cy="124.37" r="8" opacity="0" />
  <circle id="mol16:Atom:22" class="event" cx="156.73" cy="113.51" r="8" opacity="0" />
</svg>