<svg id="mol17" xmlns="http://www.w3.org/2000/svg" version="1.1" width="180px" height="312px" viewBox="60 -6 180 312">
  <style> #mol17 text {font-family: sans-serif;} #mol17 { pointer-events:none; } #mol17 .event  { pointer-events:all; } #mol17 line { stroke-linecap:round; } #mol17 polygon { stroke-linejoin:round; } </style>
  <text x="107.82" y="288.53" stroke="none" font-size="11" fill="rgb(160,0,0)">unknown chirality</text>
  <text x="147.33" y="243.06" stroke="none" font-size="13" fill="rgb(129,140,248)">N</text>
  <text x="163.17" y="296.43" stroke="none" font-size="13" fill="rgb(248,113,113)">O</text>
  <text x="129.81" y="281.58" stroke="none" font-size="13" fill="rgb(248,113,113)">O</text>
  <text x="120.43" y="281.58" stroke="none" font-size="13" fill="rgb(248,113,113)">H</text>
  <text x="188.89" y="238.65" stroke="none" font-size="13" fill="rgb(248,113,113)">O</text>
  <text x="189.94" y="203.38" stroke="none" font-size="13" fill="rgb(248,113,113)">O</text>
  <text x="200.06" y="203.38" stroke="none" font-size="13" fill="rgb(248,113,113)">H</text>
  <text x="122.18" y="208.95" stroke="none" font-size="13" fill="rgb(248,113,113)">O</text>
  <text x="109.84" y="195.57" stroke="none" font-size="9" fill="rgb(160,0,0)">?</text>
  <text x="116.36" y="175.52" stroke="none" font-size="9" fill="rgb(160,0,0)">?</text>
  <text x="136.35" y="165.34" stroke="none" font-size="13" fill="rgb(248,113,113)">O</text>
  <text x="113.84" y="99.56" stroke="none" font-size="9" fill="rgb(160,0,0)">?</text>
  <text x="126.94" y="12.96" stroke="none" font-size="13" fill="rgb(248,113,113)">O</text>
  <text x="94.5" y="23.5" stroke="none" font-size="13" fill="rgb(248,113,113)">O</text>
  <text x="93.74" y="102.41" stroke="none" font-size="13" fill="rgb(248,113,113)">O</text>
  <text x="84.35" y="102.41" stroke="none" font-size="13" fill="rgb(248,113,113)">H</text>
  <text x="176.81" y="152.31" stroke="none" font-size="13" fill="rgb(129,140,248)">N</text>
  <text x="220.93" y="118.66" stroke="none" font-size="13" fill="rgb(248,113,113)">O</text>
  <text x="185.21" y="111.07" stroke="none" font-size="13" fill="rgb(248,113,113)">O</text>
  <text x="175.83" y="111.07" stroke="none" font-size="13" fill="rgb(248,113,113)">H</text>
  <text x="207.78" y="180.52" stroke="none" font-size="13" fill="rgb(248,113,113)">O</text>
  <text x="180.22" y="205.35" stroke="none" font-size="13" fill="rgb(248,113,113)">O</text>
  <text x="170.83" y="205.35" stroke="none" font-size="13" fill="rgb(248,113,113)">H</text>
  <line x1="89.13" y1="245.34" x2="97.7" y2="226.08" stroke="rgb(228,226,242)" stroke-width="1.5" />
  <line x1="92.93" y1="244.57" x2="99.67" y2="229.42" stroke="rgb(228,226,242)" stroke-width="1.5" />
  <line x1="118.66" y1="223.88" x2="131.05" y2="240.93" stroke="rgb(228,226,242)" stroke-width="1.5" />
  <line x1="117.43" y1="227.56" x2="127.17" y2="240.97" stroke="rgb(228,226,242)" stroke-width="1.5" />
  <line x1="122.48" y1="260.19" x2="101.52" y2="262.39" stroke="rgb(228,226,242)" stroke-width="1.5" />
  <line x1="119.91" y1="257.28" x2="103.42" y2="259.01" stroke="rgb(228,226,242)" stroke-width="1.5" />
  <line x1="154.02" y1="275.23" x2="162.59" y2="287.02" stroke="rgb(228,226,242)" stroke-width="1.5" />
  <line x1="156.58" y1="273.37" x2="165.14" y2="285.16" stroke="rgb(228,226,242)" stroke-width="1.5" />
  <line x1="179.74" y1="217.46" x2="188.31" y2="229.25" stroke="rgb(228,226,242)" stroke-width="1.5" />
  <line x1="182.54" y1="215.93" x2="190.87" y2="227.39" stroke="rgb(228,226,242)" stroke-width="1.5" />
  <line x1="145.79" y1="140.39" x2="165.84" y2="133.87" stroke="rgb(228,226,242)" stroke-width="1.5" />
  <line x1="146.95" y1="136.68" x2="162.72" y2="131.56" stroke="rgb(228,226,242)" stroke-width="1.5" />
  <line x1="170.22" y1="113.25" x2="154.56" y2="99.15" stroke="rgb(228,226,242)" stroke-width="1.5" />
  <line x1="166.43" y1="114.1" x2="154.11" y2="103" stroke="rgb(228,226,242)" stroke-width="1.5" />
  <line x1="134.51" y1="105.66" x2="130.13" y2="126.28" stroke="rgb(228,226,242)" stroke-width="1.5" />
  <line x1="137.14" y1="108.52" x2="133.69" y2="124.74" stroke="rgb(228,226,242)" stroke-width="1.5" />
  <line x1="123.23" y1="70.94" x2="107.56" y2="56.83" stroke="rgb(228,226,242)" stroke-width="1.5" />
  <line x1="123.67" y1="67.08" x2="111.35" y2="55.99" stroke="rgb(228,226,242)" stroke-width="1.5" />
  <line x1="111.94" y1="36.22" x2="131.99" y2="29.7" stroke="rgb(228,226,242)" stroke-width="1.5" />
  <line x1="115.06" y1="38.53" x2="130.83" y2="33.4" stroke="rgb(228,226,242)" stroke-width="1.5" />
  <line x1="147.66" y1="43.81" x2="143.27" y2="64.43" stroke="rgb(228,226,242)" stroke-width="1.5" />
  <line x1="144.1" y1="45.35" x2="140.65" y2="61.57" stroke="rgb(228,226,242)" stroke-width="1.5" />
  <line x1="205.56" y1="122.63" x2="220.41" y2="117.8" stroke="rgb(228,226,242)" stroke-width="1.5" />
  <line x1="204.58" y1="119.62" x2="219.44" y2="114.8" stroke="rgb(228,226,242)" stroke-width="1.5" />
  <line x1="192" y1="184.62" x2="207.27" y2="179.66" stroke="rgb(228,226,242)" stroke-width="1.5" />
  <line x1="191.43" y1="181.48" x2="206.29" y2="176.65" stroke="rgb(228,226,242)" stroke-width="1.5" />
  <line x1="68.16" y1="247.54" x2="89.13" y2="245.34" stroke="rgb(228,226,242)" stroke-width="1.5" />
  <line x1="97.7" y1="226.08" x2="118.66" y2="223.88" stroke="rgb(228,226,242)" stroke-width="1.5" />
  <line x1="131.05" y1="240.93" x2="122.48" y2="260.19" stroke="rgb(228,226,242)" stroke-width="1.5" />
  <line x1="89.13" y1="245.34" x2="101.52" y2="262.39" stroke="rgb(228,226,242)" stroke-width="1.5" />
  <line x1="131.05" y1="240.93" x2="146.33" y2="239.33" stroke="rgb(228,226,242)" stroke-width="1.5" />
  <line x1="156.38" y1="244.73" x2="164.41" y2="255.78" stroke="rgb(228,226,242)" stroke-width="1.5" />
  <line x1="164.41" y1="255.78" x2="155.83" y2="275.04" stroke="rgb(228,226,242)" stroke-width="1.5" />
  <line x1="155.83" y1="275.04" x2="140.93" y2="276.61" stroke="rgb(228,226,242)" stroke-width="1.5" />
  <line x1="154.69" y1="232.73" x2="160.59" y2="219.47" stroke="rgb(228,226,242)" stroke-width="1.5" />
  <line x1="160.59" y1="219.47" x2="181.56" y2="217.27" stroke="rgb(228,226,242)" stroke-width="1.5" />
  <line x1="181.56" y1="217.27" x2="189.12" y2="207.01" stroke="rgb(228,226,242)" stroke-width="1.5" />
  <line x1="118.66" y1="223.88" x2="124.57" y2="210.62" stroke="rgb(228,226,242)" stroke-width="1.5" />
  <line x1="122.88" y1="198.62" x2="114.85" y2="187.57" stroke="rgb(228,226,242)" stroke-width="1.5" />
  <line x1="114.85" y1="187.57" x2="93.77" y2="187.57" stroke="rgb(228,226,242)" stroke-width="1.5" />
  <line x1="93.77" y1="187.57" x2="87.25" y2="167.52" stroke="rgb(228,226,242)" stroke-width="1.5" />
  <line x1="87.25" y1="167.52" x2="104.31" y2="155.13" stroke="rgb(228,226,242)" stroke-width="1.5" />
  <line x1="104.31" y1="155.13" x2="121.36" y2="167.52" stroke="rgb(228,226,242)" stroke-width="1.5" />
  <line x1="114.85" y1="187.57" x2="121.36" y2="167.52" stroke="rgb(228,226,242)" stroke-width="1.5" />
  <line x1="121.36" y1="167.52" x2="135.35" y2="162.97" stroke="rgb(228,226,242)" stroke-width="1.5" />
  <line x1="142.68" y1="155.01" x2="145.79" y2="140.39" stroke="rgb(228,226,242)" stroke-width="1.5" />
  <line x1="165.84" y1="133.87" x2="170.22" y2="113.25" stroke="rgb(228,226,242)" stroke-width="1.5" />
  <line x1="154.56" y1="99.15" x2="134.51" y2="105.66" stroke="rgb(228,226,242)" stroke-width="1.5" />
  <line x1="145.79" y1="140.39" x2="130.13" y2="126.28" stroke="rgb(228,226,242)" stroke-width="1.5" />
  <line x1="134.51" y1="105.66" x2="118.84" y2="91.56" stroke="rgb(228,226,242)" stroke-width="1.5" />
  <line x1="118.84" y1="91.56" x2="123.23" y2="70.94" stroke="rgb(228,226,242)" stroke-width="1.5" />
  <line x1="107.56" y1="56.83" x2="111.94" y2="36.22" stroke="rgb(228,226,242)" stroke-width="1.5" />
  <line x1="131.99" y1="29.7" x2="147.66" y2="43.81" stroke="rgb(228,226,242)" stroke-width="1.5" />
  <line x1="123.23" y1="70.94" x2="143.27" y2="64.43" stroke="rgb(228,226,242)" stroke-width="1.5" />
  <line x1="131.99" y1="29.7" x2="131.99" y2="14.62" stroke="rgb(228,226,242)" stroke-width="1.5" />
  <line x1="125.94" y1="6.65" x2="111.94" y2="2.11" stroke="rgb(228,226,242)" stroke-width="1.5" />
  <line x1="111.94" y1="2.11" x2="103.91" y2="13.16" stroke="rgb(228,226,242)" stroke-width="1.5" />
  <line x1="111.94" y1="36.22" x2="103.91" y2="25.16" stroke="rgb(228,226,242)" stroke-width="1.5" />
  <line x1="118.84" y1="91.56" x2="104.85" y2="96.1" stroke="rgb(228,226,242)" stroke-width="1.5" />
  <line x1="165.84" y1="133.87" x2="175.81" y2="142.85" stroke="rgb(228,226,242)" stroke-width="1.5" />
  <line x1="187.2" y1="146.13" x2="201.55" y2="141.46" stroke="rgb(228,226,242)" stroke-width="1.5" />
  <line x1="201.55" y1="141.46" x2="205.94" y2="120.84" stroke="rgb(228,226,242)" stroke-width="1.5" />
  <line x1="205.94" y1="120.84" x2="196.33" y2="112.19" stroke="rgb(228,226,242)" stroke-width="1.5" />
  <line x1="180.23" y1="153.98" x2="177.12" y2="168.6" stroke="rgb(228,226,242)" stroke-width="1.5" />
  <line x1="177.12" y1="168.6" x2="192.79" y2="182.7" stroke="rgb(228,226,242)" stroke-width="1.5" />
  <line x1="192.79" y1="182.7" x2="187.74" y2="195.01" stroke="rgb(228,226,242)" stroke-width="1.5" />
  <line id="mol17:Bond:1" class="event" x1="89.13" y1="245.34" x2="97.7" y2="226.08" stroke-width="1.5" opacity="0" />
  <line id="mol17:Bond:3" class="event" x1="118.66" y1="223.88" x2="131.05" y2="240.93" stroke-width="1.5" opacity="0" />
  <line id="mol17:Bond:5" class="event" x1="122.48" y1="260.19" x2="101.52" y2="262.39" stroke-width="1.5" opacity="0" />
  <line id="mol17:Bond:10" class="event" x1="155.83" y1="275.04" x2="168.22" y2="292.09" stroke-width="1.5" opacity="0" />
  <line id="mol17:Bond:14" class="event" x1="181.56" y1="217.27" x2="193.95" y2="234.32" stroke-width="1.5" opacity="0" />
  <line id="mol17:Bond:25" class="event" x1="145.79" y1="140.39" x2="165.84" y2="133.87" stroke-width="1.5" opacity="0" />
  <line id="mol17:Bond:27" class="event" x1="170.22" y1="113.25" x2="154.56" y2="99.15" stroke-width="1.5" opacity="0" />
  <line id="mol17:Bond:29" class="event" x1="134.51" y1="105.66" x2="130.13" y2="126.28" stroke-width="1.5" opacity="0" />
  <line id="mol17:Bond:33" class="event" x1="123.23" y1="70.94" x2="107.56" y2="56.83" stroke-width="1.5" opacity="0" />
  <line id="mol17:Bond:35" class="event" x1="111.94" y1="36.22" x2="131.99" y2="29.7" stroke-width="1.5" opacity="0" />
  <line id="mol17:Bond:37" class="event" x1="147.66" y1="43.81" x2="143.27" y2="64.43" stroke-width="1.5" opacity="0" />
  <line id="mol17:Bond:47" class="event" x1="205.94" y1="120.84" x2="225.98" y2="114.33" stroke-width="1.5" opacity="0" />
  <line id="mol17:Bond:51" class="event" x1="192.79" y1="182.7" x2="212.83" y2="176.19" stroke-width="1.5" opacity="0" />
  <line id="mol17:Bond:0" class="event" x1="68.16" y1="247.54" x2="89.13" y2="245.34" stroke-width="1.5" opacity="0" />
  <line id="mol17:Bond:2" class="event" x1="97.7" y1="226.08" x2="118.66" y2="223.88" stroke-width="1.5" opacity="0" />
  <line id="mol17:Bond:4" class="event" x1="131.05" y1="240.93" x2="122.48" y2="260.19" stroke-width="1.5" opacity="0" />
  <line id="mol17:Bond:6" class="event" x1="89.13" y1="245.34" x2="101.52" y2="262.39" stroke-width="1.5" opacity="0" />
  <line id="mol17:Bond:7" class="event" x1="131.05" y1="240.93" x2="152.02" y2="238.73" stroke-width="1.5" opacity="0" />
  <line id="mol17:Bond:8" class="event" x1="152.02" y1="238.73" x2="164.41" y2="255.78" stroke-width="1.5" opacity="0" />
  <line id="mol17:Bond:9" class="event" x1="164.41" y1="255.78" x2="155.83" y2="275.04" stroke-width="1.5" opacity="0" />
  <line id="mol17:Bond:11" class="event" x1="155.83" y1="275.04" x2="134.87" y2="277.24" stroke-width="1.5" opacity="0" />
  <line id="mol17:Bond:12" class="event" x1="152.02" y1="238.73" x2="160.59" y2="219.47" stroke-width="1.5" opacity="0" />
  <line id="mol17:Bond:13" class="event" x1="160.59" y1="219.47" x2="181.56" y2="217.27" stroke-width="1.5" opacity="0" />
  <line id="mol17:Bond:15" class="event" x1="181.56" y1="217.27" x2="195" y2="199.05" stroke-width="1.5" opacity="0" />
  <line id="mol17:Bond:16" class="event" x1="118.66" y1="223.88" x2="127.24" y2="204.62" stroke-width="1.5" opacity="0" />
  <line id="mol17:Bond:17" class="event" x1="127.24" y1="204.62" x2="114.85" y2="187.57" stroke-width="1.5" opacity="0" />
  <line id="mol17:Bond:18" class="event" x1="114.85" y1="187.57" x2="93.77" y2="187.57" stroke-width="1.5" opacity="0" />
  <line id="mol17:Bond:19" class="event" x1="93.77" y1="187.57" x2="87.25" y2="167.52" stroke-width="1.5" opacity="0" />
  <line id="mol17:Bond:20" class="event" x1="87.25" y1="167.52" x2="104.31" y2="155.13" stroke-width="1.5" opacity="0" />
  <line id="mol17:Bond:21" class="event" x1="104.31" y1="155.13" x2="121.36" y2="167.52" stroke-width="1.5" opacity="0" />
  <line id="mol17:Bond:22" class="event" x1="114.85" y1="187.57" x2="121.36" y2="167.52" stroke-width="1.5" opacity="0" />
  <line id="mol17:Bond:23" class="event" x1="121.36" y1="167.52" x2="141.41" y2="161.01" stroke-width="1.5" opacity="0" />
  <line id="mol17:Bond:24" class="event" x1="141.41" y1="161.01" x2="145.79" y2="140.39" stroke-width="1.5" opacity="0" />
  <line id="mol17:Bond:26" class="event" x1="165.84" y1="133.87" x2="170.22" y2="113.25" stroke-width="1.5" opacity="0" />
  <line id="mol17:Bond:28" class="event" x1="154.56" y1="99.15" x2="134.51" y2="105.66" stroke-width="1.5" opacity="0" />
  <line id="mol17:Bond:30" class="event" x1="145.79" y1="140.39" x2="130.13" y2="126.28" stroke-width="1.5" opacity="0" />
  <line id="mol17:Bond:31" class="event" x1="134.51" y1="105.66" x2="118.84" y2="91.56" stroke-width="1.5" opacity="0" />
  <line id="mol17:Bond:32" class="event" x1="118.84" y1="91.56" x2="123.23" y2="70.94" stroke-width="1.5" opacity="0" />
  <line id="mol17:Bond:34" class="event" x1="107.56" y1="56.83" x2="111.94" y2="36.22" stroke-width="1.5" opacity="0" />
  <line id="mol17:Bond:36" class="event" x1="131.99" y1="29.7" x2="147.66" y2="43.81" stroke-width="1.5" opacity="0" />
  <line id="mol17:Bond:38" class="event" x1="123.23" y1="70.94" x2="143.27" y2="64.43" stroke-width="1.5" opacity="0" />
  <line id="mol17:Bond:39" class="event" x1="131.99" y1="29.7" x2="131.99" y2="8.62" stroke-width="1.5" opacity="0" />
  <line id="mol17:Bond:40" class="event" x1="131.99" y1="8.62" x2="111.94" y2="2.11" stroke-width="1.5" opacity="0" />
  <line id="mol17:Bond:41" class="event" x1="111.94" y1="2.11" x2="99.55" y2="19.16" stroke-width="1.5" opacity="0" />
  <line id="mol17:Bond:42" class="event" x1="111.94" y1="36.22" x2="99.55" y2="19.16" stroke-width="1.5" opacity="0" />
  <line id="mol17:Bond:43" class="event" x1="118.84" y1="91.56" x2="98.8" y2="98.07" stroke-width="1.5" opacity="0" />
  <line id="mol17:Bond:44" class="event" x1="165.84" y1="133.87" x2="181.5" y2="147.98" stroke-width="1.5" opacity="0" />
  <line id="mol17:Bond:45" class="event" x1="181.5" y1="147.98" x2="201.55" y2="141.46" stroke-width="1.5" opacity="0" />
  <line id="mol17:Bond:46" class="event" x1="201.55" y1="141.46" x2="205.94" y2="120.84" stroke-width="1.5" opacity="0" />
  <line id="mol17:Bond:48" class="event" x1="205.94" y1="120.84" x2="190.27" y2="106.74" stroke-width="1.5" opacity="0" />
  <line id="mol17:Bond:49" class="event" x1="181.5" y1="147.98" x2="177.12" y2="168.6" stroke-width="1.5" opacity="0" />
  <line id="mol17:Bond:50" class="event" x1="177.12" y1="168.6" x2="192.79" y2="182.7" stroke-width="1.5" opacity="0" />
  <line id="mol17:Bond:52" class="event" x1="192.79" y1="182.7" x2="185.28" y2="201.01" stroke-width="1.5" opacity="0" />
  <circle id="mol17:Atom:0" class="event" cx="68.16" cy="247.54" r="8" opacity="0" />
  <circle id="mol17:Atom:1" class="event" cx="89.13" cy="245.34" r="8" opacity="0" />
  <circle id="mol17:Atom:2" class="event" cx="97.7" cy="226.08" r="8" opacity="0" />
  <circle id="mol17:Atom:3" class="event" cx="118.66" cy="223.88" r="8" opacity="0" />
  <circle id="mol17:Atom:4" class="event" cx="131.05" cy="240.93" r="8" opacity="0" />
  <circle id="mol17:Atom:5" class="event" cx="122.48" cy="260.19" r="8" opacity="0" />
  <circle id="mol17:Atom:6" class="event" cx="101.52" cy="262.39" r="8" opacity="0" />
  <circle id="mol17:Atom:7" class="event" cx="152.02" cy="238.73" r="8" opacity="0" />
  <circle id="mol17:Atom:8" class="event" cx="164.41" cy="255.78" r="8" opacity="0" />
  <circle id="mol17:Atom:9" class="event" cx="155.83" cy="275.04" r="8" opacity="0" />
  <circle id="mol17:Atom:10" class="event" cx="168.22" cy="292.09" r="8" opacity="0" />
  <circle id="mol17:Atom:11" class="event" cx="134.87" cy="277.24" r="8" opacity="0" />
  <circle id="mol17:Atom:12" class="event" cx="160.59" cy="219.47" r="8" opacity="0" />
  <circle id="mol17:Atom:13" class="event" cx="181.56" cy="217.27" r="8" opacity="0" />
  <circle id="mol17:Atom:14" class="event" cx="193.95" cy="234.32" r="8" opacity="0" />
  <circle id="mol17:Atom:15" class="event" cx="195" cy="199.05" r="8" opacity="0" />
  <circle id="mol17:Atom:16" class="event" cx="127.24" cy="204.62" r="8" opacity="0" />
  <circle id="mol17:Atom:17" class="event" cx="114.85" cy="187.57" r="8" opacity="0" />
  <circle id="mol17:Atom:18" class="event" cx="93.77" cy="187.57" r="8" opacity="0" />
  <circle id="mol17:Atom:19" class="event" cx="87.25" cy="167.52" r="8" opacity="0" />
  <circle id="mol17:Atom:20" class="event" cx="104.31" cy="155.13" r="8" opacity="0" />
  <circle id="mol17:Atom:21" class="event" cx="121.36" cy="167.52" r="8" opacity="0" />
  <circle id="mol17:Atom:22" class="event" cx="141.41" cy="161.01" r="8" opacity="0" />
  <circle id="mol17:Atom:23" class="event" cx="145.79" cy="140.39" r="8" opacity="0" />
  <circle id="mol17:Atom:24" class="event" cx="165.84" cy="133.87" r="8" opacity="0" />
  <circle id="mol17:Atom:25" class="event" cx="170.22" cy="113.25" r="8" opacity="0" />
  <circle id="mol17:Atom:26" class="event" cx="154.56" cy="99.15" r="8" opacity="0" />
  <circle id="mol17:Atom:27" class="event" cx="134.51" cy="105.66" r="8" opacity="0" />
  <circle id="mol17:Atom:28" class="event" cx="130.13" cy="126.28" r="8" opacity="0" />
  <circle id="mol17:Atom:29" class="event" cx="118.84" cy="91.56" r="8" opacity="0" />
  <circle id="mol17:Atom:30" class="event" cx="123.23" cy="70.94" r="8" opacity="0" />
  <circle id="mol17:Atom:31" class="event" cx="107.56" cy="56.83" r="8" opacity="0" />
  <circle id="mol17:Atom:32" class="event" cx="111.94" cy="36.22" r="8" opacity="0" />
  <circle id="mol17:Atom:33" class="event" cx="131.99" cy="29.7" r="8" opacity="0" />
  <circle id="mol17:Atom:34" class="event" cx="147.66" cy="43.81" r="8" opacity="0" />
  <circle id="mol17:Atom:35" class="event" cx="143.27" cy="64.43" r="8" opacity="0" />
  <circle id="mol17:Atom:36" class="event" cx="131.99" cy="8.62" r="8" opacity="0" />
  <circle id="mol17:Atom:37" class="event" cx="111.94" cy="2.11" r="8" opacity="0" />
  <circle id="mol17:Atom:38" class="event" cx="99.55" cy="19.16" r="8" opacity="0" />
  <circle id="mol17:Atom:39" class="event" cx="98.8" cy="98.07" r="8" opacity="0" />
  <circle id="mol17:Atom:40" class="event" cx="181.5" cy="147.98" r="8" opacity="0" />
  <circle id="mol17:Atom:41" class="event" cx="201.55" cy="141.46" r="8" opacity="0" />
  <circle id="mol17:Atom:42" class="event" cx="205.94" cy="120.84" r="8" opacity="0" />
  <circle id="mol17:Atom:43" class="event" cx="225.98" cy="114.33" r="8" opacity="0" />
  <circle id="mol17:Atom:44" class="event" cx="190.27" cy="106.74" r="8" opacity="0" />
  <circle id="mol17:Atom:45" class="event" cx="177.12" cy="168.6" r="8" opacity="0" />
  <circle id="mol17:Atom:46" class="event" cx="192.79" cy="182.7" r="8" opacity="0" />
  <circle id="mol17:Atom:47" class="event" cx="212.83" cy="176.19" r="8" opacity="0" />
  <circle id="mol17:Atom:48" class="event" cx="185.28" cy="201.01" r="8" opacity="0" />
</svg>