<svg id="mol17" xmlns="http://www.w3.org/2000/svg" version="1.1" width="183px" height="137px" viewBox="48 82 183 137">
  <style> #mol17 text {font-family: sans-serif;} #mol17 { pointer-events:none; } #mol17 .event  { pointer-events:all; } #mol17 line { stroke-linecap:round; } #mol17 polygon { stroke-linejoin:round; } </style>
  <text x="98.4" y="232.15" stroke="none" font-size="12" fill="rgb(160,0,0)">this enantiomer</text>
  <text x="134.94" y="130.67" stroke="none" font-size="14" fill="rgb(205,205,38)">S</text>
  <text x="128.44" y="134" stroke="none" font-size="9" fill="rgb(160,0,0)">R</text>
  <text x="137.81" y="125.85" stroke="none" font-size="9" fill="rgb(160,0,0)">abs</text>
  <text x="134.16" y="106.67" stroke="none" font-size="14" fill="rgb(248,113,113)">O</text>
  <text x="92.59" y="106.67" stroke="none" font-size="14" fill="rgb(248,113,113)">O</text>
  <text x="72.2" y="142.67" stroke="none" font-size="14" fill="rgb(129,140,248)">N</text>
  <text x="67.2" y="146" stroke="none" font-size="9" fill="rgb(129,140,248)">2</text>
  <text x="57.09" y="142.67" stroke="none" font-size="14" fill="rgb(129,140,248)">H</text>
  <line x1="222.75" y1="102" x2="201.96" y2="90" stroke="rgb(228,226,242)" stroke-width="1.5" />
  <line x1="218.73" y1="103.84" x2="202.38" y2="94.4" stroke="rgb(228,226,242)" stroke-width="1.5" />
  <line x1="181.18" y1="102" x2="181.18" y2="126" stroke="rgb(228,226,242)" stroke-width="1.5" />
  <line x1="184.78" y1="104.56" x2="184.78" y2="123.44" stroke="rgb(228,226,242)" stroke-width="1.5" />
  <line x1="201.96" y1="138" x2="222.75" y2="126" stroke="rgb(228,226,242)" stroke-width="1.5" />
  <line x1="202.38" y1="133.6" x2="218.73" y2="124.16" stroke="rgb(228,226,242)" stroke-width="1.5" />
  <line x1="160.39" y1="162" x2="139.61" y2="174" stroke="rgb(228,226,242)" stroke-width="1.5" />
  <line x1="159.97" y1="166.4" x2="143.63" y2="175.84" stroke="rgb(228,226,242)" stroke-width="1.5" />
  <line x1="139.61" y1="198" x2="160.39" y2="210" stroke="rgb(228,226,242)" stroke-width="1.5" />
  <line x1="143.63" y1="196.16" x2="159.97" y2="205.6" stroke="rgb(228,226,242)" stroke-width="1.5" />
  <line x1="181.18" y1="198" x2="181.18" y2="174" stroke="rgb(228,226,242)" stroke-width="1.5" />
  <line x1="177.58" y1="195.44" x2="177.58" y2="176.56" stroke="rgb(228,226,242)" stroke-width="1.5" />
  <line x1="141.41" y1="119" x2="141.41" y2="109" stroke="rgb(228,226,242)" stroke-width="1.5" />
  <line x1="137.81" y1="119" x2="137.81" y2="109" stroke="rgb(228,226,242)" stroke-width="1.5" />
  <line x1="99.84" y1="127.04" x2="99.84" y2="109" stroke="rgb(228,226,242)" stroke-width="1.5" />
  <line x1="96.24" y1="127.04" x2="96.24" y2="109" stroke="rgb(228,226,242)" stroke-width="1.5" />
  <line x1="201.96" y1="90" x2="181.18" y2="102" stroke="rgb(228,226,242)" stroke-width="1.5" />
  <line x1="181.18" y1="126" x2="201.96" y2="138" stroke="rgb(228,226,242)" stroke-width="1.5" />
  <line x1="222.75" y1="102" x2="222.75" y2="126" stroke="rgb(228,226,242)" stroke-width="1.5" />
  <line x1="181.18" y1="126" x2="160.39" y2="138" stroke="rgb(228,226,242)" stroke-width="1.5" />
  <line x1="160.39" y1="138" x2="160.39" y2="162" stroke="rgb(228,226,242)" stroke-width="1.5" />
  <line x1="139.61" y1="174" x2="139.61" y2="198" stroke="rgb(228,226,242)" stroke-width="1.5" />
  <line x1="160.39" y1="210" x2="181.18" y2="198" stroke="rgb(228,226,242)" stroke-width="1.5" />
  <line x1="160.39" y1="162" x2="181.18" y2="174" stroke="rgb(228,226,242)" stroke-width="1.5" />
  <line x1="160.39" y1="138" x2="145.28" y2="129.27" stroke="rgb(228,226,242)" stroke-width="1.5" />
  <polygon points="134,129 126,133 127,134 " fill="rgb(160,0,0)" stroke="rgb(160,0,0)" stroke-width="1.5" />
  <polygon points="127,134 126,133 118,136 120,140 " fill="rgb(160,0,0)" stroke="rgb(160,0,0)" stroke-width="1.5" />
  <line x1="118.82" y1="138" x2="98.04" y2="126" stroke="rgb(228,226,242)" stroke-width="1.5" />
  <line x1="98.04" y1="126" x2="83.31" y2="134.5" stroke="rgb(228,226,242)" stroke-width="1.5" />
  <line id="mol17:Bond:0" class="event" x1="222.75" y1="102" x2="201.96" y2="90" stroke-width="1.5" opacity="0" />
  <line id="mol17:Bond:2" class="event" x1="181.18" y1="102" x2="181.18" y2="126" stroke-width="1.5" opacity="0" />
  <line id="mol17:Bond:4" class="event" x1="201.96" y1="138" x2="222.75" y2="126" stroke-width="1.5" opacity="0" />
  <line id="mol17:Bond:8" class="event" x1="160.39" y1="162" x2="139.61" y2="174" stroke-width="1.5" opacity="0" />
  <line id="mol17:Bond:10" class="event" x1="139.61" y1="198" x2="160.39" y2="210" stroke-width="1.5" opacity="0" />
  <line id="mol17:Bond:12" class="event" x1="181.18" y1="198" x2="181.18" y2="174" stroke-width="1.5" opacity="0" />
  <line id="mol17:Bond:15" class="event" x1="139.61" y1="126" x2="139.61" y2="102" stroke-width="1.5" opacity="0" />
  <line id="mol17:Bond:18" class="event" x1="98.04" y1="126" x2="98.04" y2="102" stroke-width="1.5" opacity="0" />
  <line id="mol17:Bond:1" class="event" x1="201.96" y1="90" x2="181.18" y2="102" stroke-width="1.5" opacity="0" />
  <line id="mol17:Bond:3" class="event" x1="181.18" y1="126" x2="201.96" y2="138" stroke-width="1.5" opacity="0" />
  <line id="mol17:Bond:5" class="event" x1="222.75" y1="102" x2="222.75" y2="126" stroke-width="1.5" opacity="0" />
  <line id="mol17:Bond:6" class="event" x1="181.18" y1="126" x2="160.39" y2="138" stroke-width="1.5" opacity="0" />
  <line id="mol17:Bond:7" class="event" x1="160.39" y1="138" x2="160.39" y2="162" stroke-width="1.5" opacity="0" />
  <line id="mol17:Bond:9" class="event" x1="139.61" y1="174" x2="139.61" y2="198" stroke-width="1.5" opacity="0" />
  <line id="mol17:Bond:11" class="event" x1="160.39" y1="210" x2="181.18" y2="198" stroke-width="1.5" opacity="0" />
  <line id="mol17:Bond:13" class="event" x1="160.39" y1="162" x2="181.18" y2="174" stroke-width="1.5" opacity="0" />
  <line id="mol17:Bond:14" class="event" x1="160.39" y1="138" x2="139.61" y2="126" stroke-width="1.5" opacity="0" />
  <line id="mol17:Bond:16" class="event" x1="139.61" y1="126" x2="118.82" y2="138" stroke-width="1.5" opacity="0" />
  <line id="mol17:Bond:17" class="event" x1="118.82" y1="138" x2="98.04" y2="126" stroke-width="1.5" opacity="0" />
  <line id="mol17:Bond:19" class="event" x1="98.04" y1="126" x2="77.25" y2="138" stroke-width="1.5" opacity="0" />
  <circle id="mol17:Atom:0" class="event" cx="222.75" cy="102" r="8" opacity="0" />
  <circle id="mol17:Atom:1" class="event" cx="201.96" cy="90" r="8" opacity="0" />
  <circle id="mol17:Atom:2" class="event" cx="181.18" cy="102" r="8" opacity="0" />
  <circle id="mol17:Atom:3" class="event" cx="181.18" cy="126" r="8" opacity="0" />
  <circle id="mol17:Atom:4" class="event" cx="201.96" cy="138" r="8" opacity="0" />
  <circle id="mol17:Atom:5" class="event" cx="222.75" cy="126" r="8" opacity="0" />
  <circle id="mol17:Atom:6" class="event" cx="160.39" cy="138" r="8" opacity="0" />
  <circle id="mol17:Atom:7" class="event" cx="160.39" cy="162" r="8" opacity="0" />
  <circle id="mol17:Atom:8" class="event" cx="139.61" cy="174" r="8" opacity="0" />
  <circle id="mol17:Atom:9" class="event" cx="139.61" cy="198" r="8" opacity="0" />
  <circle id="mol17:Atom:10" class="event" cx="160.39" cy="210" r="8" opacity="0" />
  <circle id="mol17:Atom:11" class="event" cx="181.18" cy="198" r="8" opacity="0" />
  <circle id="mol17:Atom:12" class="event" cx="181.18" cy="174" r="8" opacity="0" />
  <circle id="mol17:Atom:13" class="event" cx="139.61" cy="126" r="8" opacity="0" />
  <circle id="mol17:Atom:14" class="event" cx="139.61" cy="102" r="8" opacity="0" />
  <circle id="mol17:Atom:15" class="event" cx="118.82" cy="138" r="8" opacity="0" />
  <circle id="mol17:Atom:16" class="event" cx="98.04" cy="126" r="8" opacity="0" />
  <circle id="mol17:Atom:17" class="event" cx="98.04" cy="102" r="8" opacity="0" />
  <circle id="mol17:Atom:18" class="event" cx="77.25" cy="138" r="8" opacity="0" />
</svg>