<svg id="mol18" xmlns="http://www.w3.org/2000/svg" version="1.1" width="266px" height="154px" viewBox="17 73 266 154">
  <style> #mol18 text {font-family: sans-serif;} #mol18 { pointer-events:none; } #mol18 .event  { pointer-events:all; } #mol18 line { stroke-linecap:round; } #mol18 polygon { stroke-linejoin:round; } </style>
  <text x="227.69" y="130.67" stroke="none" font-size="14" fill="rgb(248,113,113)">O</text>
  <text x="206.91" y="166.67" stroke="none" font-size="14" fill="rgb(248,113,113)">O</text>
  <text x="186.52" y="130.67" stroke="none" font-size="14" fill="rgb(129,140,248)">N</text>
  <text x="186.52" y="116.67" stroke="none" font-size="14" fill="rgb(129,140,248)">H</text>
  <text x="102.98" y="130.67" stroke="none" font-size="14" fill="rgb(248,113,113)">O</text>
  <text x="186.12" y="178.67" stroke="none" font-size="14" fill="rgb(248,113,113)">O</text>
  <text x="103.38" y="178.67" stroke="none" font-size="14" fill="rgb(129,140,248)">N</text>
  <text x="103.38" y="192.67" stroke="none" font-size="14" fill="rgb(129,140,248)">H</text>
  <text x="82.2" y="142.67" stroke="none" font-size="14" fill="rgb(248,113,113)">O</text>
  <text x="61.42" y="178.67" stroke="none" font-size="14" fill="rgb(248,113,113)">O</text>
  <line x1="210.55" y1="136.96" x2="210.55" y2="155" stroke="rgb(228,226,242)" stroke-width="1.5" />
  <line x1="214.15" y1="136.96" x2="214.15" y2="155" stroke="rgb(228,226,242)" stroke-width="1.5" />
  <line x1="170.78" y1="138" x2="150" y2="126" stroke="rgb(228,226,242)" stroke-width="1.5" />
  <line x1="166.77" y1="139.84" x2="150.42" y2="130.4" stroke="rgb(228,226,242)" stroke-width="1.5" />
  <line x1="131.02" y1="136.96" x2="115.78" y2="128.16" stroke="rgb(228,226,242)" stroke-width="1.5" />
  <line x1="129.22" y1="140.08" x2="113.98" y2="131.28" stroke="rgb(228,226,242)" stroke-width="1.5" />
  <line x1="129.22" y1="162" x2="150" y2="174" stroke="rgb(228,226,242)" stroke-width="1.5" />
  <line x1="133.23" y1="160.16" x2="149.58" y2="169.6" stroke="rgb(228,226,242)" stroke-width="1.5" />
  <line x1="168.98" y1="163.04" x2="184.22" y2="171.84" stroke="rgb(228,226,242)" stroke-width="1.5" />
  <line x1="170.78" y1="159.92" x2="186.02" y2="168.72" stroke="rgb(228,226,242)" stroke-width="1.5" />
  <line x1="89.45" y1="163.04" x2="89.45" y2="145" stroke="rgb(228,226,242)" stroke-width="1.5" />
  <line x1="85.85" y1="163.04" x2="85.85" y2="145" stroke="rgb(228,226,242)" stroke-width="1.5" />
  <line x1="274.71" y1="126" x2="253.92" y2="138" stroke="rgb(228,226,242)" stroke-width="1.5" />
  <line x1="253.92" y1="138" x2="239.58" y2="129.72" stroke="rgb(228,226,242)" stroke-width="1.5" />
  <line x1="226.69" y1="129.72" x2="212.35" y2="138" stroke="rgb(228,226,242)" stroke-width="1.5" />
  <line x1="212.35" y1="138" x2="197.62" y2="129.5" stroke="rgb(228,226,242)" stroke-width="1.5" />
  <line x1="185.52" y1="129.5" x2="170.78" y2="138" stroke="rgb(228,226,242)" stroke-width="1.5" />
  <line x1="150" y1="126" x2="129.22" y2="138" stroke="rgb(228,226,242)" stroke-width="1.5" />
  <line x1="129.22" y1="138" x2="129.22" y2="162" stroke="rgb(228,226,242)" stroke-width="1.5" />
  <line x1="150" y1="174" x2="170.78" y2="162" stroke="rgb(228,226,242)" stroke-width="1.5" />
  <line x1="170.78" y1="138" x2="170.78" y2="162" stroke="rgb(228,226,242)" stroke-width="1.5" />
  <line x1="150" y1="174" x2="150" y2="198" stroke="rgb(228,226,242)" stroke-width="1.5" />
  <line x1="150" y1="198" x2="138" y2="218.78" stroke="rgb(228,226,242)" stroke-width="1.5" />
  <line x1="138" y1="218.78" x2="162" y2="218.78" stroke="rgb(228,226,242)" stroke-width="1.5" />
  <line x1="150" y1="198" x2="162" y2="218.78" stroke="rgb(228,226,242)" stroke-width="1.5" />
  <line x1="129.22" y1="162" x2="114.48" y2="170.5" stroke="rgb(228,226,242)" stroke-width="1.5" />
  <line x1="102.38" y1="170.5" x2="87.65" y2="162" stroke="rgb(228,226,242)" stroke-width="1.5" />
  <line x1="87.65" y1="162" x2="73.31" y2="170.28" stroke="rgb(228,226,242)" stroke-width="1.5" />
  <line x1="60.42" y1="170.28" x2="46.08" y2="162" stroke="rgb(228,226,242)" stroke-width="1.5" />
  <line x1="46.08" y1="162" x2="25.29" y2="174" stroke="rgb(228,226,242)" stroke-width="1.5" />
  <line x1="150" y1="126" x2="150" y2="102" stroke="rgb(228,226,242)" stroke-width="1.5" />
  <line x1="150" y1="102" x2="162" y2="81.22" stroke="rgb(228,226,242)" stroke-width="1.5" />
  <line x1="162" y1="81.22" x2="138" y2="81.22" stroke="rgb(228,226,242)" stroke-width="1.5" />
  <line x1="150" y1="102" x2="138" y2="81.22" stroke="rgb(228,226,242)" stroke-width="1.5" />
  <line id="mol18:Bond:3" class="event" x1="212.35" y1="138" x2="212.35" y2="162" stroke-width="1.5" opacity="0" />
  <line id="mol18:Bond:6" class="event" x1="170.78" y1="138" x2="150" y2="126" stroke-width="1.5" opacity="0" />
  <line id="mol18:Bond:8" class="event" x1="129.22" y1="138" x2="108.43" y2="126" stroke-width="1.5" opacity="0" />
  <line id="mol18:Bond:10" class="event" x1="129.22" y1="162" x2="150" y2="174" stroke-width="1.5" opacity="0" />
  <line id="mol18:Bond:13" class="event" x1="170.78" y1="162" x2="191.57" y2="174" stroke-width="1.5" opacity="0" />
  <line id="mol18:Bond:20" class="event" x1="87.65" y1="162" x2="87.65" y2="138" stroke-width="1.5" opacity="0" />
  <line id="mol18:Bond:0" class="event" x1="274.71" y1="126" x2="253.92" y2="138" stroke-width="1.5" opacity="0" />
  <line id="mol18:Bond:1" class="event" x1="253.92" y1="138" x2="233.14" y2="126" stroke-width="1.5" opacity="0" />
  <line id="mol18:Bond:2" class="event" x1="233.14" y1="126" x2="212.35" y2="138" stroke-width="1.5" opacity="0" />
  <line id="mol18:Bond:4" class="event" x1="212.35" y1="138" x2="191.57" y2="126" stroke-width="1.5" opacity="0" />
  <line id="mol18:Bond:5" class="event" x1="191.57" y1="126" x2="170.78" y2="138" stroke-width="1.5" opacity="0" />
  <line id="mol18:Bond:7" class="event" x1="150" y1="126" x2="129.22" y2="138" stroke-width="1.5" opacity="0" />
  <line id="mol18:Bond:9" class="event" x1="129.22" y1="138" x2="129.22" y2="162" stroke-width="1.5" opacity="0" />
  <line id="mol18:Bond:11" class="event" x1="150" y1="174" x2="170.78" y2="162" stroke-width="1.5" opacity="0" />
  <line id="mol18:Bond:12" class="event" x1="170.78" y1="138" x2="170.78" y2="162" stroke-width="1.5" opacity="0" />
  <line id="mol18:Bond:14" class="event" x1="150" y1="174" x2="150" y2="198" stroke-width="1.5" opacity="0" />
  <line id="mol18:Bond:15" class="event" x1="150" y1="198" x2="138" y2="218.78" stroke-width="1.5" opacity="0" />
  <line id="mol18:Bond:16" class="event" x1="138" y1="218.78" x2="162" y2="218.78" stroke-width="1.5" opacity="0" />
  <line id="mol18:Bond:17" class="event" x1="150" y1="198" x2="162" y2="218.78" stroke-width="1.5" opacity="0" />
  <line id="mol18:Bond:18" class="event" x1="129.22" y1="162" x2="108.43" y2="174" stroke-width="1.5" opacity="0" />
  <line id="mol18:Bond:19" class="event" x1="108.43" y1="174" x2="87.65" y2="162" stroke-width="1.5" opacity="0" />
  <line id="mol18:Bond:21" class="event" x1="87.65" y1="162" x2="66.86" y2="174" stroke-width="1.5" opacity="0" />
  <line id="mol18:Bond:22" class="event" x1="66.86" y1="174" x2="46.08" y2="162" stroke-width="1.5" opacity="0" />
  <line id="mol18:Bond:23" class="event" x1="46.08" y1="162" x2="25.29" y2="174" stroke-width="1.5" opacity="0" />
  <line id="mol18:Bond:24" class="event" x1="150" y1="126" x2="150" y2="102" stroke-width="1.5" opacity="0" />
  <line id="mol18:Bond:25" class="event" x1="150" y1="102" x2="162" y2="81.22" stroke-width="1.5" opacity="0" />
  <line id="mol18:Bond:26" class="event" x1="162" y1="81.22" x2="138" y2="81.22" stroke-width="1.5" opacity="0" />
  <line id="mol18:Bond:27" class="event" x1="150" y1="102" x2="138" y2="81.22" stroke-width="1.5" opacity="0" />
  <circle id="mol18:Atom:0" class="event" cx="274.71" cy="126" r="8" opacity="0" />
  <circle id="mol18:Atom:1" class="event" cx="253.92" cy="138" r="8" opacity="0" />
  <circle id="mol18:Atom:2" class="event" cx="233.14" cy="126" r="8" opacity="0" />
  <circle id="mol18:Atom:3" class="event" cx="212.35" cy="138" r="8" opacity="0" />
  <circle id="mol18:Atom:4" class="event" cx="212.35" cy="162" r="8" opacity="0" />
  <circle id="mol18:Atom:5" class="event" cx="191.57" cy="126" r="8" opacity="0" />
  <circle id="mol18:Atom:6" class="event" cx="170.78" cy="138" r="8" opacity="0" />
  <circle id="mol18:Atom:7" class="event" cx="150" cy="126" r="8" opacity="0" />
  <circle id="mol18:Atom:8" class="event" cx="129.22" cy="138" r="8" opacity="0" />
  <circle id="mol18:Atom:9" class="event" cx="108.43" cy="126" r="8" opacity="0" />
  <circle id="mol18:Atom:10" class="event" cx="129.22" cy="162" r="8" opacity="0" />
  <circle id="mol18:Atom:11" class="event" cx="150" cy="174" r="8" opacity="0" />
  <circle id="mol18:Atom:12" class="event" cx="170.78" cy="162" r="8" opacity="0" />
  <circle id="mol18:Atom:13" class="event" cx="191.57" cy="174" r="8" opacity="0" />
  <circle id="mol18:Atom:14" class="event" cx="150" cy="198" r="8" opacity="0" />
  <circle id="mol18:Atom:15" class="event" cx="138" cy="218.78" r="8" opacity="0" />
  <circle id="mol18:Atom:16" class="event" cx="162" cy="218.78" r="8" opacity="0" />
  <circle id="mol18:Atom:17" class="event" cx="108.43" cy="174" r="8" opacity="0" />
  <circle id="mol18:Atom:18" class="event" cx="87.65" cy="162" r="8" opacity="0" />
  <circle id="mol18:Atom:19" class="event" cx="87.65" cy="138" r="8" opacity="0" />
  <circle id="mol18:Atom:20" class="event" cx="66.86" cy="174" r="8" opacity="0" />
  <circle id="mol18:Atom:21" class="event" cx="46.08" cy="162" r="8" opacity="0" />
  <circle id="mol18:Atom:22" class="event" cx="25.29" cy="174" r="8" opacity="0" />
  <circle id="mol18:Atom:23" class="event" cx="150" cy="102" r="8" opacity="0" />
  <circle id="mol18:Atom:24" class="event" cx="162" cy="81.22" r="8" opacity="0" />
  <circle id="mol18:Atom:25" class="event" cx="138" cy="81.22" r="8" opacity="0" />
</svg>