<svg id="mol18" xmlns="http://www.w3.org/2000/svg" version="1.1" width="150px" height="164px" viewBox="74 68 150 164">
  <style> #mol18 text {font-family: sans-serif;} #mol18 { pointer-events:none; } #mol18 .event  { pointer-events:all; } #mol18 line { stroke-linecap:round; } #mol18 polygon { stroke-linejoin:round; } </style>
  <text x="166.32" y="104.3" stroke="none" font-size="14" fill="rgb(129,140,248)">N</text>
  <text x="204.29" y="90.88" stroke="none" font-size="14" fill="rgb(248,113,113)">O</text>
  <text x="189.72" y="152.89" stroke="none" font-size="14" fill="rgb(129,140,248)">N</text>
  <text x="83.65" y="155.27" stroke="none" font-size="14" fill="rgb(31,240,31)">Cl</text>
  <line x1="195.64" y1="106.78" x2="205.56" y2="94.34" stroke="rgb(228,226,242)" stroke-width="1.5" />
  <line x1="192.83" y1="104.53" x2="202.75" y2="92.09" stroke="rgb(228,226,242)" stroke-width="1.5" />
  <line x1="171.38" y1="153.57" x2="188.72" y2="149.61" stroke="rgb(228,226,242)" stroke-width="1.5" />
  <line x1="172.69" y1="149.57" x2="187.92" y2="146.1" stroke="rgb(228,226,242)" stroke-width="1.5" />
  <line x1="152.61" y1="138.6" x2="152.61" y2="114.6" stroke="rgb(228,226,242)" stroke-width="1.5" />
  <line x1="149.01" y1="136.04" x2="149.01" y2="117.16" stroke="rgb(228,226,242)" stroke-width="1.5" />
  <line x1="131.83" y1="102.6" x2="111.04" y2="114.6" stroke="rgb(228,226,242)" stroke-width="1.5" />
  <line x1="131.41" y1="107" x2="115.06" y2="116.44" stroke="rgb(228,226,242)" stroke-width="1.5" />
  <line x1="111.04" y1="138.6" x2="131.83" y2="150.6" stroke="rgb(228,226,242)" stroke-width="1.5" />
  <line x1="115.06" y1="136.76" x2="131.41" y2="146.2" stroke="rgb(228,226,242)" stroke-width="1.5" />
  <line x1="166.04" y1="176.96" x2="143.1" y2="184.04" stroke="rgb(228,226,242)" stroke-width="1.5" />
  <line x1="164.65" y1="181.16" x2="146.61" y2="186.72" stroke="rgb(228,226,242)" stroke-width="1.5" />
  <line x1="137.76" y1="207.44" x2="155.36" y2="223.76" stroke="rgb(228,226,242)" stroke-width="1.5" />
  <line x1="142.09" y1="206.54" x2="155.93" y2="219.38" stroke="rgb(228,226,242)" stroke-width="1.5" />
  <line x1="178.29" y1="216.69" x2="183.63" y2="193.29" stroke="rgb(228,226,242)" stroke-width="1.5" />
  <line x1="175.35" y1="213.39" x2="179.55" y2="194.98" stroke="rgb(228,226,242)" stroke-width="1.5" />
  <line x1="166.04" y1="76.24" x2="169.78" y2="92.64" stroke="rgb(228,226,242)" stroke-width="1.5" />
  <line x1="177.43" y1="101.02" x2="194.78" y2="104.98" stroke="rgb(228,226,242)" stroke-width="1.5" />
  <line x1="194.78" y1="104.98" x2="205.19" y2="126.6" stroke="rgb(228,226,242)" stroke-width="1.5" />
  <line x1="205.19" y1="126.6" x2="198.15" y2="141.22" stroke="rgb(228,226,242)" stroke-width="1.5" />
  <line x1="171.38" y1="153.57" x2="152.61" y2="138.6" stroke="rgb(228,226,242)" stroke-width="1.5" />
  <line x1="165.32" y1="104.47" x2="152.61" y2="114.6" stroke="rgb(228,226,242)" stroke-width="1.5" />
  <line x1="152.61" y1="114.6" x2="131.83" y2="102.6" stroke="rgb(228,226,242)" stroke-width="1.5" />
  <line x1="111.04" y1="114.6" x2="111.04" y2="138.6" stroke="rgb(228,226,242)" stroke-width="1.5" />
  <line x1="152.61" y1="138.6" x2="131.83" y2="150.6" stroke="rgb(228,226,242)" stroke-width="1.5" />
  <line x1="111.04" y1="138.6" x2="97.87" y2="146.21" stroke="rgb(228,226,242)" stroke-width="1.5" />
  <line x1="171.38" y1="153.57" x2="166.04" y2="176.96" stroke="rgb(228,226,242)" stroke-width="1.5" />
  <line x1="143.1" y1="184.04" x2="137.76" y2="207.44" stroke="rgb(228,226,242)" stroke-width="1.5" />
  <line x1="155.36" y1="223.76" x2="178.29" y2="216.69" stroke="rgb(228,226,242)" stroke-width="1.5" />
  <line x1="166.04" y1="176.96" x2="183.63" y2="193.29" stroke="rgb(228,226,242)" stroke-width="1.5" />
  <line id="mol18:Bond:2" class="event" x1="194.78" y1="104.98" x2="209.74" y2="86.21" stroke-width="1.5" opacity="0" />
  <line id="mol18:Bond:5" class="event" x1="194.78" y1="148.22" x2="171.38" y2="153.57" stroke-width="1.5" opacity="0" />
  <line id="mol18:Bond:7" class="event" x1="152.61" y1="138.6" x2="152.61" y2="114.6" stroke-width="1.5" opacity="0" />
  <line id="mol18:Bond:10" class="event" x1="131.83" y1="102.6" x2="111.04" y2="114.6" stroke-width="1.5" opacity="0" />
  <line id="mol18:Bond:12" class="event" x1="111.04" y1="138.6" x2="131.83" y2="150.6" stroke-width="1.5" opacity="0" />
  <line id="mol18:Bond:16" class="event" x1="166.04" y1="176.96" x2="143.1" y2="184.04" stroke-width="1.5" opacity="0" />
  <line id="mol18:Bond:18" class="event" x1="137.76" y1="207.44" x2="155.36" y2="223.76" stroke-width="1.5" opacity="0" />
  <line id="mol18:Bond:20" class="event" x1="178.29" y1="216.69" x2="183.63" y2="193.29" stroke-width="1.5" opacity="0" />
  <line id="mol18:Bond:0" class="event" x1="166.04" y1="76.24" x2="171.38" y2="99.64" stroke-width="1.5" opacity="0" />
  <line id="mol18:Bond:1" class="event" x1="171.38" y1="99.64" x2="194.78" y2="104.98" stroke-width="1.5" opacity="0" />
  <line id="mol18:Bond:3" class="event" x1="194.78" y1="104.98" x2="205.19" y2="126.6" stroke-width="1.5" opacity="0" />
  <line id="mol18:Bond:4" class="event" x1="205.19" y1="126.6" x2="194.78" y2="148.22" stroke-width="1.5" opacity="0" />
  <line id="mol18:Bond:6" class="event" x1="171.38" y1="153.57" x2="152.61" y2="138.6" stroke-width="1.5" opacity="0" />
  <line id="mol18:Bond:8" class="event" x1="171.38" y1="99.64" x2="152.61" y2="114.6" stroke-width="1.5" opacity="0" />
  <line id="mol18:Bond:9" class="event" x1="152.61" y1="114.6" x2="131.83" y2="102.6" stroke-width="1.5" opacity="0" />
  <line id="mol18:Bond:11" class="event" x1="111.04" y1="114.6" x2="111.04" y2="138.6" stroke-width="1.5" opacity="0" />
  <line id="mol18:Bond:13" class="event" x1="152.61" y1="138.6" x2="131.83" y2="150.6" stroke-width="1.5" opacity="0" />
  <line id="mol18:Bond:14" class="event" x1="111.04" y1="138.6" x2="90.26" y2="150.6" stroke-width="1.5" opacity="0" />
  <line id="mol18:Bond:15" class="event" x1="171.38" y1="153.57" x2="166.04" y2="176.96" stroke-width="1.5" opacity="0" />
  <line id="mol18:Bond:17" class="event" x1="143.1" y1="184.04" x2="137.76" y2="207.44" stroke-width="1.5" opacity="0" />
  <line id="mol18:Bond:19" class="event" x1="155.36" y1="223.76" x2="178.29" y2="216.69" stroke-width="1.5" opacity="0" />
  <line id="mol18:Bond:21" class="event" x1="166.04" y1="176.96" x2="183.63" y2="193.29" stroke-width="1.5" opacity="0" />
  <circle id="mol18:Atom:0" class="event" cx="166.04" cy="76.24" r="8" opacity="0" />
  <circle id="mol18:Atom:1" class="event" cx="171.38" cy="99.64" r="8" opacity="0" />
  <circle id="mol18:Atom:2" class="event" cx="194.78" cy="104.98" r="8" opacity="0" />
  <circle id="mol18:Atom:3" class="event" cx="209.74" cy="86.21" r="8" opacity="0" />
  <circle id="mol18:Atom:4" class="event" cx="205.19" cy="126.6" r="8" opacity="0" />
  <circle id="mol18:Atom:5" class="event" cx="194.78" cy="148.22" r="8" opacity="0" />
  <circle id="mol18:Atom:6" class="event" cx="171.38" cy="153.57" r="8" opacity="0" />
  <circle id="mol18:Atom:7" class="event" cx="152.61" cy="138.6" r="8" opacity="0" />
  <circle id="mol18:Atom:8" class="event" cx="152.61" cy="114.6" r="8" opacity="0" />
  <circle id="mol18:Atom:9" class="event" cx="131.83" cy="102.6" r="8" opacity="0" />
  <circle id="mol18:Atom:10" class="event" cx="111.04" cy="114.6" r="8" opacity="0" />
  <circle id="mol18:Atom:11" class="event" cx="111.04" cy="138.6" r="8" opacity="0" />
  <circle id="mol18:Atom:12" class="event" cx="131.83" cy="150.6" r="8" opacity="0" />
  <circle id="mol18:Atom:13" class="event" cx="90.26" cy="150.6" r="8" opacity="0" />
  <circle id="mol18:Atom:14" class="event" cx="166.04" cy="176.96" r="8" opacity="0" />
  <circle id="mol18:Atom:15" class="event" cx="143.1" cy="184.04" r="8" opacity="0" />
  <circle id="mol18:Atom:16" class="event" cx="137.76" cy="207.44" r="8" opacity="0" />
  <circle id="mol18:Atom:17" class="event" cx="155.36" cy="223.76" r="8" opacity="0" />
  <circle id="mol18:Atom:18" class="event" cx="178.29" cy="216.69" r="8" opacity="0" />
  <circle id="mol18:Atom:19" class="event" cx="183.63" cy="193.29" r="8" opacity="0" />
</svg>