<svg id="mol19" xmlns="http://www.w3.org/2000/svg" version="1.1" width="146px" height="182px" viewBox="78 57 146 182">
  <style> #mol19 text {font-family: sans-serif;} #mol19 { pointer-events:none; } #mol19 .event  { pointer-events:all; } #mol19 line { stroke-linecap:round; } #mol19 polygon { stroke-linejoin:round; } </style>
  <text x="103.09" y="76.8" stroke="none" font-size="14" fill="rgb(129,140,248)">N</text>
  <text x="87.04" y="94.63" stroke="none" font-size="14" fill="rgb(129,140,248)">N</text>
  <text x="122.51" y="110.43" stroke="none" font-size="14" fill="rgb(129,140,248)">N</text>
  <text x="201.3" y="162.6" stroke="none" font-size="14" fill="rgb(31,240,31)">Cl</text>
  <text x="98.39" y="158.66" stroke="none" font-size="14" fill="rgb(129,140,248)">N</text>
  <line x1="130.07" y1="81.89" x2="114.2" y2="74.83" stroke="rgb(228,226,242)" stroke-width="1.5" />
  <line x1="125.85" y1="83.95" x2="114.2" y2="78.77" stroke="rgb(228,226,242)" stroke-width="1.5" />
  <line x1="104.09" y1="110.75" x2="96.13" y2="96.97" stroke="rgb(228,226,242)" stroke-width="1.5" />
  <line x1="105.7" y1="106.34" x2="99.25" y2="95.17" stroke="rgb(228,226,242)" stroke-width="1.5" />
  <line x1="146.1" y1="121" x2="145.74" y2="145" stroke="rgb(228,226,242)" stroke-width="1.5" />
  <line x1="149.66" y1="123.62" x2="149.38" y2="142.49" stroke="rgb(228,226,242)" stroke-width="1.5" />
  <line x1="166.35" y1="157.31" x2="187.31" y2="145.62" stroke="rgb(228,226,242)" stroke-width="1.5" />
  <line x1="166.83" y1="152.92" x2="183.32" y2="143.72" stroke="rgb(228,226,242)" stroke-width="1.5" />
  <line x1="187.67" y1="121.62" x2="167.06" y2="109.32" stroke="rgb(228,226,242)" stroke-width="1.5" />
  <line x1="183.62" y1="123.4" x2="167.42" y2="113.72" stroke="rgb(228,226,242)" stroke-width="1.5" />
  <line x1="126.76" y1="159.68" x2="109.5" y2="155.47" stroke="rgb(228,226,242)" stroke-width="1.5" />
  <line x1="125.51" y1="155.67" x2="110.35" y2="151.97" stroke="rgb(228,226,242)" stroke-width="1.5" />
  <line x1="131.75" y1="183.16" x2="113.91" y2="199.22" stroke="rgb(228,226,242)" stroke-width="1.5" />
  <line x1="132.25" y1="187.55" x2="118.22" y2="200.18" stroke="rgb(228,226,242)" stroke-width="1.5" />
  <line x1="118.9" y1="222.69" x2="141.73" y2="230.11" stroke="rgb(228,226,242)" stroke-width="1.5" />
  <line x1="122.45" y1="220.06" x2="140.4" y2="225.89" stroke="rgb(228,226,242)" stroke-width="1.5" />
  <line x1="159.56" y1="214.05" x2="154.57" y2="190.57" stroke="rgb(228,226,242)" stroke-width="1.5" />
  <line x1="155.51" y1="212.29" x2="151.58" y2="193.83" stroke="rgb(228,226,242)" stroke-width="1.5" />
  <line x1="150.86" y1="69.89" x2="130.07" y2="81.89" stroke="rgb(228,226,242)" stroke-width="1.5" />
  <line x1="102.09" y1="78.85" x2="98.14" y2="83.24" stroke="rgb(228,226,242)" stroke-width="1.5" />
  <line x1="104.09" y1="110.75" x2="121.51" y2="107.05" stroke="rgb(228,226,242)" stroke-width="1.5" />
  <line x1="130.07" y1="81.89" x2="128.3" y2="98.76" stroke="rgb(228,226,242)" stroke-width="1.5" />
  <line x1="133.62" y1="110.74" x2="146.1" y2="121" stroke="rgb(228,226,242)" stroke-width="1.5" />
  <line x1="145.74" y1="145" x2="166.35" y2="157.31" stroke="rgb(228,226,242)" stroke-width="1.5" />
  <line x1="187.31" y1="145.62" x2="187.67" y2="121.62" stroke="rgb(228,226,242)" stroke-width="1.5" />
  <line x1="146.1" y1="121" x2="167.06" y2="109.32" stroke="rgb(228,226,242)" stroke-width="1.5" />
  <line x1="187.31" y1="145.62" x2="200.3" y2="153.39" stroke="rgb(228,226,242)" stroke-width="1.5" />
  <line x1="145.74" y1="145" x2="126.76" y2="159.68" stroke="rgb(228,226,242)" stroke-width="1.5" />
  <line x1="100.2" y1="146.99" x2="93.35" y2="132.22" stroke="rgb(228,226,242)" stroke-width="1.5" />
  <line x1="104.09" y1="110.75" x2="93.35" y2="132.22" stroke="rgb(228,226,242)" stroke-width="1.5" />
  <line x1="126.76" y1="159.68" x2="131.75" y2="183.16" stroke="rgb(228,226,242)" stroke-width="1.5" />
  <line x1="113.91" y1="199.22" x2="118.9" y2="222.69" stroke="rgb(228,226,242)" stroke-width="1.5" />
  <line x1="141.73" y1="230.11" x2="159.56" y2="214.05" stroke="rgb(228,226,242)" stroke-width="1.5" />
  <line x1="131.75" y1="183.16" x2="154.57" y2="190.57" stroke="rgb(228,226,242)" stroke-width="1.5" />
  <line id="mol19:Bond:1" class="event" x1="130.07" y1="81.89" x2="108.15" y2="72.13" stroke-width="1.5" opacity="0" />
  <line id="mol19:Bond:3" class="event" x1="92.09" y1="89.97" x2="104.09" y2="110.75" stroke-width="1.5" opacity="0" />
  <line id="mol19:Bond:7" class="event" x1="146.1" y1="121" x2="145.74" y2="145" stroke-width="1.5" opacity="0" />
  <line id="mol19:Bond:9" class="event" x1="166.35" y1="157.31" x2="187.31" y2="145.62" stroke-width="1.5" opacity="0" />
  <line id="mol19:Bond:11" class="event" x1="187.67" y1="121.62" x2="167.06" y2="109.32" stroke-width="1.5" opacity="0" />
  <line id="mol19:Bond:15" class="event" x1="126.76" y1="159.68" x2="103.44" y2="153.99" stroke-width="1.5" opacity="0" />
  <line id="mol19:Bond:19" class="event" x1="131.75" y1="183.16" x2="113.91" y2="199.22" stroke-width="1.5" opacity="0" />
  <line id="mol19:Bond:21" class="event" x1="118.9" y1="222.69" x2="141.73" y2="230.11" stroke-width="1.5" opacity="0" />
  <line id="mol19:Bond:23" class="event" x1="159.56" y1="214.05" x2="154.57" y2="190.57" stroke-width="1.5" opacity="0" />
  <line id="mol19:Bond:0" class="event" x1="150.86" y1="69.89" x2="130.07" y2="81.89" stroke-width="1.5" opacity="0" />
  <line id="mol19:Bond:2" class="event" x1="108.15" y1="72.13" x2="92.09" y2="89.97" stroke-width="1.5" opacity="0" />
  <line id="mol19:Bond:4" class="event" x1="104.09" y1="110.75" x2="127.56" y2="105.76" stroke-width="1.5" opacity="0" />
  <line id="mol19:Bond:5" class="event" x1="130.07" y1="81.89" x2="127.56" y2="105.76" stroke-width="1.5" opacity="0" />
  <line id="mol19:Bond:6" class="event" x1="127.56" y1="105.76" x2="146.1" y2="121" stroke-width="1.5" opacity="0" />
  <line id="mol19:Bond:8" class="event" x1="145.74" y1="145" x2="166.35" y2="157.31" stroke-width="1.5" opacity="0" />
  <line id="mol19:Bond:10" class="event" x1="187.31" y1="145.62" x2="187.67" y2="121.62" stroke-width="1.5" opacity="0" />
  <line id="mol19:Bond:12" class="event" x1="146.1" y1="121" x2="167.06" y2="109.32" stroke-width="1.5" opacity="0" />
  <line id="mol19:Bond:13" class="event" x1="187.31" y1="145.62" x2="207.91" y2="157.93" stroke-width="1.5" opacity="0" />
  <line id="mol19:Bond:14" class="event" x1="145.74" y1="145" x2="126.76" y2="159.68" stroke-width="1.5" opacity="0" />
  <line id="mol19:Bond:16" class="event" x1="103.44" y1="153.99" x2="93.35" y2="132.22" stroke-width="1.5" opacity="0" />
  <line id="mol19:Bond:17" class="event" x1="104.09" y1="110.75" x2="93.35" y2="132.22" stroke-width="1.5" opacity="0" />
  <line id="mol19:Bond:18" class="event" x1="126.76" y1="159.68" x2="131.75" y2="183.16" stroke-width="1.5" opacity="0" />
  <line id="mol19:Bond:20" class="event" x1="113.91" y1="199.22" x2="118.9" y2="222.69" stroke-width="1.5" opacity="0" />
  <line id="mol19:Bond:22" class="event" x1="141.73" y1="230.11" x2="159.56" y2="214.05" stroke-width="1.5" opacity="0" />
  <line id="mol19:Bond:24" class="event" x1="131.75" y1="183.16" x2="154.57" y2="190.57" stroke-width="1.5" opacity="0" />
  <circle id="mol19:Atom:0" class="event" cx="150.86" cy="69.89" r="8" opacity="0" />
  <circle id="mol19:Atom:1" class="event" cx="130.07" cy="81.89" r="8" opacity="0" />
  <circle id="mol19:Atom:2" class="event" cx="108.15" cy="72.13" r="8" opacity="0" />
  <circle id="mol19:Atom:3" class="event" cx="92.09" cy="89.97" r="8" opacity="0" />
  <circle id="mol19:Atom:4" class="event" cx="104.09" cy="110.75" r="8" opacity="0" />
  <circle id="mol19:Atom:5" class="event" cx="127.56" cy="105.76" r="8" opacity="0" />
  <circle id="mol19:Atom:6" class="event" cx="146.1" cy="121" r="8" opacity="0" />
  <circle id="mol19:Atom:7" class="event" cx="145.74" cy="145" r="8" opacity="0" />
  <circle id="mol19:Atom:8" class="event" cx="166.35" cy="157.31" r="8" opacity="0" />
  <circle id="mol19:Atom:9" class="event" cx="187.31" cy="145.62" r="8" opacity="0" />
  <circle id="mol19:Atom:10" class="event" cx="187.67" cy="121.62" r="8" opacity="0" />
  <circle id="mol19:Atom:11" class="event" cx="167.06" cy="109.32" r="8" opacity="0" />
  <circle id="mol19:Atom:12" class="event" cx="207.91" cy="157.93" r="8" opacity="0" />
  <circle id="mol19:Atom:13" class="event" cx="126.76" cy="159.68" r="8" opacity="0" />
  <circle id="mol19:Atom:14" class="event" cx="103.44" cy="153.99" r="8" opacity="0" />
  <circle id="mol19:Atom:15" class="event" cx="93.35" cy="132.22" r="8" opacity="0" />
  <circle id="mol19:Atom:16" class="event" cx="131.75" cy="183.16" r="8" opacity="0" />
  <circle id="mol19:Atom:17" class="event" cx="113.91" cy="199.22" r="8" opacity="0" />
  <circle id="mol19:Atom:18" class="event" cx="118.9" cy="222.69" r="8" opacity="0" />
  <circle id="mol19:Atom:19" class="event" cx="141.73" cy="230.11" r="8" opacity="0" />
  <circle id="mol19:Atom:20" class="event" cx="159.56" cy="214.05" r="8" opacity="0" />
  <circle id="mol19:Atom:21" class="event" cx="154.57" cy="190.57" r="8" opacity="0" />
</svg>