<svg id="mol2" xmlns="http://www.w3.org/2000/svg" version="1.1" width="111px" height="115px" viewBox="95 96 111 115">
  <style> #mol2 text {font-family: sans-serif;} #mol2 { pointer-events:none; } #mol2 .event  { pointer-events:all; } #mol2 line { stroke-linecap:round; } #mol2 polygon { stroke-linejoin:round; } </style>
  <text x="108.98" y="224.88" stroke="none" font-size="12" fill="rgb(160,0,0)">this enantiomer</text>
  <text x="135.94" y="120.94" stroke="none" font-size="14" fill="rgb(129,140,248)">N</text>
  <text x="132.49" y="148.14" stroke="none" font-size="9" fill="rgb(160,0,0)">S</text>
  <text x="137.12" y="140.88" stroke="none" font-size="9" fill="rgb(160,0,0)">abs</text>
  <text x="164.12" y="200.4" stroke="none" font-size="14" fill="rgb(129,140,248)">N</text>
  <line x1="156.33" y1="156.2" x2="151.34" y2="179.67" stroke="rgb(228,226,242)" stroke-width="1.5" />
  <line x1="159.31" y1="159.45" x2="155.39" y2="177.92" stroke="rgb(228,226,242)" stroke-width="1.5" />
  <line x1="192" y1="188.31" x2="175.22" y2="193.76" stroke="rgb(228,226,242)" stroke-width="1.5" />
  <line x1="188.45" y1="185.68" x2="175.22" y2="189.98" stroke="rgb(228,226,242)" stroke-width="1.5" />
  <line x1="196.99" y1="164.84" x2="179.15" y2="148.78" stroke="rgb(228,226,242)" stroke-width="1.5" />
  <line x1="192.67" y1="165.8" x2="178.64" y2="153.17" stroke="rgb(228,226,242)" stroke-width="1.5" />
  <line x1="161.78" y1="104.27" x2="147.05" y2="112.77" stroke="rgb(228,226,242)" stroke-width="1.5" />
  <line x1="134.94" y1="113.57" x2="119.07" y2="106.51" stroke="rgb(228,226,242)" stroke-width="1.5" />
  <line x1="119.07" y1="106.51" x2="103.01" y2="124.34" stroke="rgb(228,226,242)" stroke-width="1.5" />
  <line x1="103.01" y1="124.34" x2="115.01" y2="145.13" stroke="rgb(228,226,242)" stroke-width="1.5" />
  <line x1="115.01" y1="145.13" x2="138.49" y2="140.14" stroke="rgb(228,226,242)" stroke-width="1.5" />
  <line x1="140.26" y1="123.27" x2="138.49" y2="140.14" stroke="rgb(228,226,242)" stroke-width="1.5" />
  <line x1="140.34" y1="142.31" x2="140.84" y2="141.75" stroke="rgb(160,0,0)" stroke-width="1.5" />
  <line x1="142.18" y1="144.47" x2="143.19" y2="143.36" stroke="rgb(160,0,0)" stroke-width="1.5" />
  <line x1="144.03" y1="146.64" x2="145.54" y2="144.97" stroke="rgb(160,0,0)" stroke-width="1.5" />
  <line x1="145.88" y1="148.81" x2="147.89" y2="146.58" stroke="rgb(160,0,0)" stroke-width="1.5" />
  <line x1="147.73" y1="150.98" x2="150.24" y2="148.19" stroke="rgb(160,0,0)" stroke-width="1.5" />
  <line x1="149.57" y1="153.15" x2="152.58" y2="149.8" stroke="rgb(160,0,0)" stroke-width="1.5" />
  <line x1="151.42" y1="155.31" x2="154.93" y2="151.41" stroke="rgb(160,0,0)" stroke-width="1.5" />
  <line x1="153.27" y1="157.48" x2="157.28" y2="153.02" stroke="rgb(160,0,0)" stroke-width="1.5" />
  <line x1="151.34" y1="179.67" x2="163.12" y2="190.28" stroke="rgb(228,226,242)" stroke-width="1.5" />
  <line x1="192" y1="188.31" x2="196.99" y2="164.84" stroke="rgb(228,226,242)" stroke-width="1.5" />
  <line x1="156.33" y1="156.2" x2="179.15" y2="148.78" stroke="rgb(228,226,242)" stroke-width="1.5" />
  <line id="mol2:Bond:7" class="event" x1="156.33" y1="156.2" x2="151.34" y2="179.67" stroke-width="1.5" opacity="0" />
  <line id="mol2:Bond:9" class="event" x1="169.17" y1="195.73" x2="192" y2="188.31" stroke-width="1.5" opacity="0" />
  <line id="mol2:Bond:11" class="event" x1="196.99" y1="164.84" x2="179.15" y2="148.78" stroke-width="1.5" opacity="0" />
  <line id="mol2:Bond:0" class="event" x1="161.78" y1="104.27" x2="141" y2="116.27" stroke-width="1.5" opacity="0" />
  <line id="mol2:Bond:1" class="event" x1="141" y1="116.27" x2="119.07" y2="106.51" stroke-width="1.5" opacity="0" />
  <line id="mol2:Bond:2" class="event" x1="119.07" y1="106.51" x2="103.01" y2="124.34" stroke-width="1.5" opacity="0" />
  <line id="mol2:Bond:3" class="event" x1="103.01" y1="124.34" x2="115.01" y2="145.13" stroke-width="1.5" opacity="0" />
  <line id="mol2:Bond:4" class="event" x1="115.01" y1="145.13" x2="138.49" y2="140.14" stroke-width="1.5" opacity="0" />
  <line id="mol2:Bond:5" class="event" x1="141" y1="116.27" x2="138.49" y2="140.14" stroke-width="1.5" opacity="0" />
  <line id="mol2:Bond:6" class="event" x1="138.49" y1="140.14" x2="156.33" y2="156.2" stroke-width="1.5" opacity="0" />
  <line id="mol2:Bond:8" class="event" x1="151.34" y1="179.67" x2="169.17" y2="195.73" stroke-width="1.5" opacity="0" />
  <line id="mol2:Bond:10" class="event" x1="192" y1="188.31" x2="196.99" y2="164.84" stroke-width="1.5" opacity="0" />
  <line id="mol2:Bond:12" class="event" x1="156.33" y1="156.2" x2="179.15" y2="148.78" stroke-width="1.5" opacity="0" />
  <circle id="mol2:Atom:0" class="event" cx="161.78" cy="104.27" r="8" opacity="0" />
  <circle id="mol2:Atom:1" class="event" cx="141" cy="116.27" r="8" opacity="0" />
  <circle id="mol2:Atom:2" class="event" cx="119.07" cy="106.51" r="8" opacity="0" />
  <circle id="mol2:Atom:3" class="event" cx="103.01" cy="124.34" r="8" opacity="0" />
  <circle id="mol2:Atom:4" class="event" cx="115.01" cy="145.13" r="8" opacity="0" />
  <circle id="mol2:Atom:5" class="event" cx="138.49" cy="140.14" r="8" opacity="0" />
  <circle id="mol2:Atom:6" class="event" cx="156.33" cy="156.2" r="8" opacity="0" />
  <circle id="mol2:Atom:7" class="event" cx="151.34" cy="179.67" r="8" opacity="0" />
  <circle id="mol2:Atom:8" class="event" cx="169.17" cy="195.73" r="8" opacity="0" />
  <circle id="mol2:Atom:9" class="event" cx="192" cy="188.31" r="8" opacity="0" />
  <circle id="mol2:Atom:10" class="event" cx="196.99" cy="164.84" r="8" opacity="0" />
  <circle id="mol2:Atom:11" class="event" cx="179.15" cy="148.78" r="8" opacity="0" />
</svg>