<svg id="mol20" xmlns="http://www.w3.org/2000/svg" version="1.1" width="253px" height="173px" viewBox="20 64 253 173">
  <style> #mol20 text {font-family: sans-serif;} #mol20 { pointer-events:none; } #mol20 .event  { pointer-events:all; } #mol20 line { stroke-linecap:round; } #mol20 polygon { stroke-linejoin:round; } </style>
  <text x="217.69" y="124.67" stroke="none" font-size="14" fill="rgb(129,140,248)">N</text>
  <text x="154.95" y="112.67" stroke="none" font-size="14" fill="rgb(248,113,113)">O</text>
  <text x="29.08" y="160.67" stroke="none" font-size="14" fill="rgb(31,240,31)">Cl</text>
  <line x1="139.61" y1="120" x2="118.82" y2="108" stroke="rgb(228,226,242)" stroke-width="1.5" />
  <line x1="135.59" y1="121.84" x2="119.24" y2="112.4" stroke="rgb(228,226,242)" stroke-width="1.5" />
  <line x1="98.04" y1="120" x2="98.04" y2="144" stroke="rgb(228,226,242)" stroke-width="1.5" />
  <line x1="101.64" y1="122.56" x2="101.64" y2="141.44" stroke="rgb(228,226,242)" stroke-width="1.5" />
  <line x1="118.82" y1="156" x2="139.61" y2="144" stroke="rgb(228,226,242)" stroke-width="1.5" />
  <line x1="119.24" y1="151.6" x2="135.59" y2="142.16" stroke="rgb(228,226,242)" stroke-width="1.5" />
  <line x1="77.25" y1="156" x2="60.49" y2="142.16" stroke="rgb(228,226,242)" stroke-width="1.5" />
  <line x1="76.84" y1="151.6" x2="56.47" y2="144" stroke="rgb(228,226,242)" stroke-width="1.5" />
  <line x1="56.47" y1="120" x2="77.25" y2="108" stroke="rgb(228,226,242)" stroke-width="1.5" />
  <line x1="56.89" y1="115.6" x2="73.24" y2="106.16" stroke="rgb(228,226,242)" stroke-width="1.5" />
  <line x1="77.25" y1="84" x2="56.47" y2="72" stroke="rgb(228,226,242)" stroke-width="1.5" />
  <line x1="73.24" y1="85.84" x2="56.89" y2="76.4" stroke="rgb(228,226,242)" stroke-width="1.5" />
  <line x1="35.68" y1="84" x2="35.68" y2="108" stroke="rgb(228,226,242)" stroke-width="1.5" />
  <line x1="39.28" y1="86.56" x2="39.28" y2="105.44" stroke="rgb(228,226,242)" stroke-width="1.5" />
  <line x1="77.25" y1="180" x2="56.47" y2="192" stroke="rgb(228,226,242)" stroke-width="1.5" />
  <line x1="76.84" y1="184.4" x2="60.49" y2="193.84" stroke="rgb(228,226,242)" stroke-width="1.5" />
  <line x1="56.47" y1="216" x2="77.25" y2="228" stroke="rgb(228,226,242)" stroke-width="1.5" />
  <line x1="60.49" y1="214.16" x2="76.84" y2="223.6" stroke="rgb(228,226,242)" stroke-width="1.5" />
  <line x1="98.04" y1="216" x2="98.04" y2="192" stroke="rgb(228,226,242)" stroke-width="1.5" />
  <line x1="94.44" y1="213.44" x2="94.44" y2="194.56" stroke="rgb(228,226,242)" stroke-width="1.5" />
  <line x1="264.32" y1="120" x2="243.53" y2="108" stroke="rgb(228,226,242)" stroke-width="1.5" />
  <line x1="243.53" y1="108" x2="228.8" y2="116.5" stroke="rgb(228,226,242)" stroke-width="1.5" />
  <line x1="222.75" y1="127" x2="222.75" y2="144" stroke="rgb(228,226,242)" stroke-width="1.5" />
  <line x1="222.75" y1="144" x2="243.53" y2="156" stroke="rgb(228,226,242)" stroke-width="1.5" />
  <line x1="216.69" y1="116.5" x2="201.96" y2="108" stroke="rgb(228,226,242)" stroke-width="1.5" />
  <line x1="201.96" y1="108" x2="181.18" y2="120" stroke="rgb(228,226,242)" stroke-width="1.5" />
  <line x1="181.18" y1="120" x2="166.84" y2="111.72" stroke="rgb(228,226,242)" stroke-width="1.5" />
  <line x1="153.95" y1="111.72" x2="139.61" y2="120" stroke="rgb(228,226,242)" stroke-width="1.5" />
  <line x1="118.82" y1="108" x2="98.04" y2="120" stroke="rgb(228,226,242)" stroke-width="1.5" />
  <line x1="98.04" y1="144" x2="118.82" y2="156" stroke="rgb(228,226,242)" stroke-width="1.5" />
  <line x1="139.61" y1="120" x2="139.61" y2="144" stroke="rgb(228,226,242)" stroke-width="1.5" />
  <line x1="98.04" y1="144" x2="77.25" y2="156" stroke="rgb(228,226,242)" stroke-width="1.5" />
  <line x1="56.47" y1="144" x2="56.47" y2="120" stroke="rgb(228,226,242)" stroke-width="1.5" />
  <line x1="77.25" y1="108" x2="77.25" y2="84" stroke="rgb(228,226,242)" stroke-width="1.5" />
  <line x1="56.47" y1="72" x2="35.68" y2="84" stroke="rgb(228,226,242)" stroke-width="1.5" />
  <line x1="56.47" y1="120" x2="35.68" y2="108" stroke="rgb(228,226,242)" stroke-width="1.5" />
  <line x1="56.47" y1="144" x2="43.29" y2="151.61" stroke="rgb(228,226,242)" stroke-width="1.5" />
  <line x1="77.25" y1="156" x2="77.25" y2="180" stroke="rgb(228,226,242)" stroke-width="1.5" />
  <line x1="56.47" y1="192" x2="56.47" y2="216" stroke="rgb(228,226,242)" stroke-width="1.5" />
  <line x1="77.25" y1="228" x2="98.04" y2="216" stroke="rgb(228,226,242)" stroke-width="1.5" />
  <line x1="77.25" y1="180" x2="98.04" y2="192" stroke="rgb(228,226,242)" stroke-width="1.5" />
  <line id="mol20:Bond:8" class="event" x1="139.61" y1="120" x2="118.82" y2="108" stroke-width="1.5" opacity="0" />
  <line id="mol20:Bond:10" class="event" x1="98.04" y1="120" x2="98.04" y2="144" stroke-width="1.5" opacity="0" />
  <line id="mol20:Bond:12" class="event" x1="118.82" y1="156" x2="139.61" y2="144" stroke-width="1.5" opacity="0" />
  <line id="mol20:Bond:15" class="event" x1="77.25" y1="156" x2="56.47" y2="144" stroke-width="1.5" opacity="0" />
  <line id="mol20:Bond:17" class="event" x1="56.47" y1="120" x2="77.25" y2="108" stroke-width="1.5" opacity="0" />
  <line id="mol20:Bond:19" class="event" x1="77.25" y1="84" x2="56.47" y2="72" stroke-width="1.5" opacity="0" />
  <line id="mol20:Bond:21" class="event" x1="35.68" y1="84" x2="35.68" y2="108" stroke-width="1.5" opacity="0" />
  <line id="mol20:Bond:25" class="event" x1="77.25" y1="180" x2="56.47" y2="192" stroke-width="1.5" opacity="0" />
  <line id="mol20:Bond:27" class="event" x1="56.47" y1="216" x2="77.25" y2="228" stroke-width="1.5" opacity="0" />
  <line id="mol20:Bond:29" class="event" x1="98.04" y1="216" x2="98.04" y2="192" stroke-width="1.5" opacity="0" />
  <line id="mol20:Bond:0" class="event" x1="264.32" y1="120" x2="243.53" y2="108" stroke-width="1.5" opacity="0" />
  <line id="mol20:Bond:1" class="event" x1="243.53" y1="108" x2="222.75" y2="120" stroke-width="1.5" opacity="0" />
  <line id="mol20:Bond:2" class="event" x1="222.75" y1="120" x2="222.75" y2="144" stroke-width="1.5" opacity="0" />
  <line id="mol20:Bond:3" class="event" x1="222.75" y1="144" x2="243.53" y2="156" stroke-width="1.5" opacity="0" />
  <line id="mol20:Bond:4" class="event" x1="222.75" y1="120" x2="201.96" y2="108" stroke-width="1.5" opacity="0" />
  <line id="mol20:Bond:5" class="event" x1="201.96" y1="108" x2="181.18" y2="120" stroke-width="1.5" opacity="0" />
  <line id="mol20:Bond:6" class="event" x1="181.18" y1="120" x2="160.39" y2="108" stroke-width="1.5" opacity="0" />
  <line id="mol20:Bond:7" class="event" x1="160.39" y1="108" x2="139.61" y2="120" stroke-width="1.5" opacity="0" />
  <line id="mol20:Bond:9" class="event" x1="118.82" y1="108" x2="98.04" y2="120" stroke-width="1.5" opacity="0" />
  <line id="mol20:Bond:11" class="event" x1="98.04" y1="144" x2="118.82" y2="156" stroke-width="1.5" opacity="0" />
  <line id="mol20:Bond:13" class="event" x1="139.61" y1="120" x2="139.61" y2="144" stroke-width="1.5" opacity="0" />
  <line id="mol20:Bond:14" class="event" x1="98.04" y1="144" x2="77.25" y2="156" stroke-width="1.5" opacity="0" />
  <line id="mol20:Bond:16" class="event" x1="56.47" y1="144" x2="56.47" y2="120" stroke-width="1.5" opacity="0" />
  <line id="mol20:Bond:18" class="event" x1="77.25" y1="108" x2="77.25" y2="84" stroke-width="1.5" opacity="0" />
  <line id="mol20:Bond:20" class="event" x1="56.47" y1="72" x2="35.68" y2="84" stroke-width="1.5" opacity="0" />
  <line id="mol20:Bond:22" class="event" x1="56.47" y1="120" x2="35.68" y2="108" stroke-width="1.5" opacity="0" />
  <line id="mol20:Bond:23" class="event" x1="56.47" y1="144" x2="35.68" y2="156" stroke-width="1.5" opacity="0" />
  <line id="mol20:Bond:24" class="event" x1="77.25" y1="156" x2="77.25" y2="180" stroke-width="1.5" opacity="0" />
  <line id="mol20:Bond:26" class="event" x1="56.47" y1="192" x2="56.47" y2="216" stroke-width="1.5" opacity="0" />
  <line id="mol20:Bond:28" class="event" x1="77.25" y1="228" x2="98.04" y2="216" stroke-width="1.5" opacity="0" />
  <line id="mol20:Bond:30" class="event" x1="77.25" y1="180" x2="98.04" y2="192" stroke-width="1.5" opacity="0" />
  <circle id="mol20:Atom:0" class="event" cx="264.32" cy="120" r="8" opacity="0" />
  <circle id="mol20:Atom:1" class="event" cx="243.53" cy="108" r="8" opacity="0" />
  <circle id="mol20:Atom:2" class="event" cx="222.75" cy="120" r="8" opacity="0" />
  <circle id="mol20:Atom:3" class="event" cx="222.75" cy="144" r="8" opacity="0" />
  <circle id="mol20:Atom:4" class="event" cx="243.53" cy="156" r="8" opacity="0" />
  <circle id="mol20:Atom:5" class="event" cx="201.96" cy="108" r="8" opacity="0" />
  <circle id="mol20:Atom:6" class="event" cx="181.18" cy="120" r="8" opacity="0" />
  <circle id="mol20:Atom:7" class="event" cx="160.39" cy="108" r="8" opacity="0" />
  <circle id="mol20:Atom:8" class="event" cx="139.61" cy="120" r="8" opacity="0" />
  <circle id="mol20:Atom:9" class="event" cx="118.82" cy="108" r="8" opacity="0" />
  <circle id="mol20:Atom:10" class="event" cx="98.04" cy="120" r="8" opacity="0" />
  <circle id="mol20:Atom:11" class="event" cx="98.04" cy="144" r="8" opacity="0" />
  <circle id="mol20:Atom:12" class="event" cx="118.82" cy="156" r="8" opacity="0" />
  <circle id="mol20:Atom:13" class="event" cx="139.61" cy="144" r="8" opacity="0" />
  <circle id="mol20:Atom:14" class="event" cx="77.25" cy="156" r="8" opacity="0" />
  <circle id="mol20:Atom:15" class="event" cx="56.47" cy="144" r="8" opacity="0" />
  <circle id="mol20:Atom:16" class="event" cx="56.47" cy="120" r="8" opacity="0" />
  <circle id="mol20:Atom:17" class="event" cx="77.25" cy="108" r="8" opacity="0" />
  <circle id="mol20:Atom:18" class="event" cx="77.25" cy="84" r="8" opacity="0" />
  <circle id="mol20:Atom:19" class="event" cx="56.47" cy="72" r="8" opacity="0" />
  <circle id="mol20:Atom:20" class="event" cx="35.68" cy="84" r="8" opacity="0" />
  <circle id="mol20:Atom:21" class="event" cx="35.68" cy="108" r="8" opacity="0" />
  <circle id="mol20:Atom:22" class="event" cx="35.68" cy="156" r="8" opacity="0" />
  <circle id="mol20:Atom:23" class="event" cx="77.25" cy="180" r="8" opacity="0" />
  <circle id="mol20:Atom:24" class="event" cx="56.47" cy="192" r="8" opacity="0" />
  <circle id="mol20:Atom:25" class="event" cx="56.47" cy="216" r="8" opacity="0" />
  <circle id="mol20:Atom:26" class="event" cx="77.25" cy="228" r="8" opacity="0" />
  <circle id="mol20:Atom:27" class="event" cx="98.04" cy="216" r="8" opacity="0" />
  <circle id="mol20:Atom:28" class="event" cx="98.04" cy="192" r="8" opacity="0" />
</svg>