<svg id="mol20" xmlns="http://www.w3.org/2000/svg" version="1.1" width="170px" height="162px" viewBox="65 73 170 162">
  <style> #mol20 text {font-family: sans-serif;} #mol20 { pointer-events:none; } #mol20 .event  { pointer-events:all; } #mol20 line { stroke-linecap:round; } #mol20 polygon { stroke-linejoin:round; } </style>
  <text x="214.69" y="223.44" stroke="none" font-size="14" fill="rgb(248,113,113)">O</text>
  <text x="176.72" y="210.02" stroke="none" font-size="14" fill="rgb(129,140,248)">N</text>
  <text x="176.72" y="224.02" stroke="none" font-size="14" fill="rgb(129,140,248)">H</text>
  <text x="95.6" y="159.05" stroke="none" font-size="14" fill="rgb(129,140,248)">N</text>
  <text x="106.71" y="153.39" stroke="none" font-size="9" fill="rgb(129,140,248)">+</text>
  <text x="95.21" y="135.05" stroke="none" font-size="14" fill="rgb(248,113,113)">O</text>
  <text x="74.42" y="171.05" stroke="none" font-size="14" fill="rgb(248,113,113)">O</text>
  <text x="86.31" y="165.39" stroke="none" font-size="9" fill="rgb(248,113,113)">-</text>
  <text x="200.11" y="161.43" stroke="none" font-size="14" fill="rgb(129,140,248)">N</text>
  <text x="210.35" y="123.44" stroke="none" font-size="14" fill="rgb(31,240,31)">Cl</text>
  <line x1="203.22" y1="200.45" x2="213.14" y2="212.9" stroke="rgb(228,226,242)" stroke-width="1.5" />
  <line x1="206.04" y1="198.21" x2="215.96" y2="210.65" stroke="rgb(228,226,242)" stroke-width="1.5" />
  <line x1="163.01" y1="190.39" x2="163.01" y2="166.39" stroke="rgb(228,226,242)" stroke-width="1.5" />
  <line x1="159.41" y1="187.82" x2="159.41" y2="168.95" stroke="rgb(228,226,242)" stroke-width="1.5" />
  <line x1="142.22" y1="154.39" x2="121.44" y2="166.39" stroke="rgb(228,226,242)" stroke-width="1.5" />
  <line x1="141.8" y1="158.78" x2="125.45" y2="168.22" stroke="rgb(228,226,242)" stroke-width="1.5" />
  <line x1="121.44" y1="190.39" x2="142.22" y2="202.39" stroke="rgb(228,226,242)" stroke-width="1.5" />
  <line x1="125.45" y1="188.55" x2="141.8" y2="197.99" stroke="rgb(228,226,242)" stroke-width="1.5" />
  <line x1="102.45" y1="147.39" x2="102.45" y2="137.39" stroke="rgb(228,226,242)" stroke-width="1.5" />
  <line x1="98.85" y1="147.39" x2="98.85" y2="137.39" stroke="rgb(228,226,242)" stroke-width="1.5" />
  <line x1="181.77" y1="151.42" x2="199.11" y2="155.38" stroke="rgb(228,226,242)" stroke-width="1.5" />
  <line x1="183.08" y1="155.41" x2="198.31" y2="158.89" stroke="rgb(228,226,242)" stroke-width="1.5" />
  <line x1="176.43" y1="128.02" x2="153.5" y2="120.95" stroke="rgb(228,226,242)" stroke-width="1.5" />
  <line x1="175.04" y1="123.83" x2="157" y2="118.26" stroke="rgb(228,226,242)" stroke-width="1.5" />
  <line x1="148.16" y1="97.55" x2="165.75" y2="81.23" stroke="rgb(228,226,242)" stroke-width="1.5" />
  <line x1="152.48" y1="98.45" x2="166.32" y2="85.61" stroke="rgb(228,226,242)" stroke-width="1.5" />
  <line x1="188.68" y1="88.3" x2="194.02" y2="111.7" stroke="rgb(228,226,242)" stroke-width="1.5" />
  <line x1="185.74" y1="91.6" x2="189.94" y2="110" stroke="rgb(228,226,242)" stroke-width="1.5" />
  <line x1="215.58" y1="178.39" x2="205.17" y2="200.01" stroke="rgb(228,226,242)" stroke-width="1.5" />
  <line x1="205.17" y1="200.01" x2="187.82" y2="203.97" stroke="rgb(228,226,242)" stroke-width="1.5" />
  <line x1="175.72" y1="200.52" x2="163.01" y2="190.39" stroke="rgb(228,226,242)" stroke-width="1.5" />
  <line x1="163.01" y1="166.39" x2="142.22" y2="154.39" stroke="rgb(228,226,242)" stroke-width="1.5" />
  <line x1="121.44" y1="166.39" x2="121.44" y2="190.39" stroke="rgb(228,226,242)" stroke-width="1.5" />
  <line x1="163.01" y1="190.39" x2="142.22" y2="202.39" stroke="rgb(228,226,242)" stroke-width="1.5" />
  <line x1="121.44" y1="166.39" x2="106.71" y2="157.88" stroke="rgb(228,226,242)" stroke-width="1.5" />
  <line x1="94.6" y1="157.88" x2="90.31" y2="160.36" stroke="rgb(228,226,242)" stroke-width="1.5" />
  <line x1="163.01" y1="166.39" x2="181.77" y2="151.42" stroke="rgb(228,226,242)" stroke-width="1.5" />
  <line x1="215.58" y1="178.39" x2="208.54" y2="163.76" stroke="rgb(228,226,242)" stroke-width="1.5" />
  <line x1="181.77" y1="151.42" x2="176.43" y2="128.02" stroke="rgb(228,226,242)" stroke-width="1.5" />
  <line x1="153.5" y1="120.95" x2="148.16" y2="97.55" stroke="rgb(228,226,242)" stroke-width="1.5" />
  <line x1="165.75" y1="81.23" x2="188.68" y2="88.3" stroke="rgb(228,226,242)" stroke-width="1.5" />
  <line x1="176.43" y1="128.02" x2="194.02" y2="111.7" stroke="rgb(228,226,242)" stroke-width="1.5" />
  <line x1="194.02" y1="111.7" x2="209.35" y2="116.43" stroke="rgb(228,226,242)" stroke-width="1.5" />
  <line id="mol20:Bond:1" class="event" x1="205.17" y1="200.01" x2="220.13" y2="218.77" stroke-width="1.5" opacity="0" />
  <line id="mol20:Bond:4" class="event" x1="163.01" y1="190.39" x2="163.01" y2="166.39" stroke-width="1.5" opacity="0" />
  <line id="mol20:Bond:6" class="event" x1="142.22" y1="154.39" x2="121.44" y2="166.39" stroke-width="1.5" opacity="0" />
  <line id="mol20:Bond:8" class="event" x1="121.44" y1="190.39" x2="142.22" y2="202.39" stroke-width="1.5" opacity="0" />
  <line id="mol20:Bond:11" class="event" x1="100.65" y1="154.39" x2="100.65" y2="130.39" stroke-width="1.5" opacity="0" />
  <line id="mol20:Bond:14" class="event" x1="181.77" y1="151.42" x2="205.17" y2="156.76" stroke-width="1.5" opacity="0" />
  <line id="mol20:Bond:17" class="event" x1="176.43" y1="128.02" x2="153.5" y2="120.95" stroke-width="1.5" opacity="0" />
  <line id="mol20:Bond:19" class="event" x1="148.16" y1="97.55" x2="165.75" y2="81.23" stroke-width="1.5" opacity="0" />
  <line id="mol20:Bond:21" class="event" x1="188.68" y1="88.3" x2="194.02" y2="111.7" stroke-width="1.5" opacity="0" />
  <line id="mol20:Bond:0" class="event" x1="215.58" y1="178.39" x2="205.17" y2="200.01" stroke-width="1.5" opacity="0" />
  <line id="mol20:Bond:2" class="event" x1="205.17" y1="200.01" x2="181.77" y2="205.35" stroke-width="1.5" opacity="0" />
  <line id="mol20:Bond:3" class="event" x1="181.77" y1="205.35" x2="163.01" y2="190.39" stroke-width="1.5" opacity="0" />
  <line id="mol20:Bond:5" class="event" x1="163.01" y1="166.39" x2="142.22" y2="154.39" stroke-width="1.5" opacity="0" />
  <line id="mol20:Bond:7" class="event" x1="121.44" y1="166.39" x2="121.44" y2="190.39" stroke-width="1.5" opacity="0" />
  <line id="mol20:Bond:9" class="event" x1="163.01" y1="190.39" x2="142.22" y2="202.39" stroke-width="1.5" opacity="0" />
  <line id="mol20:Bond:10" class="event" x1="121.44" y1="166.39" x2="100.65" y2="154.39" stroke-width="1.5" opacity="0" />
  <line id="mol20:Bond:12" class="event" x1="100.65" y1="154.39" x2="79.87" y2="166.39" stroke-width="1.5" opacity="0" />
  <line id="mol20:Bond:13" class="event" x1="163.01" y1="166.39" x2="181.77" y2="151.42" stroke-width="1.5" opacity="0" />
  <line id="mol20:Bond:15" class="event" x1="215.58" y1="178.39" x2="205.17" y2="156.76" stroke-width="1.5" opacity="0" />
  <line id="mol20:Bond:16" class="event" x1="181.77" y1="151.42" x2="176.43" y2="128.02" stroke-width="1.5" opacity="0" />
  <line id="mol20:Bond:18" class="event" x1="153.5" y1="120.95" x2="148.16" y2="97.55" stroke-width="1.5" opacity="0" />
  <line id="mol20:Bond:20" class="event" x1="165.75" y1="81.23" x2="188.68" y2="88.3" stroke-width="1.5" opacity="0" />
  <line id="mol20:Bond:22" class="event" x1="176.43" y1="128.02" x2="194.02" y2="111.7" stroke-width="1.5" opacity="0" />
  <line id="mol20:Bond:23" class="event" x1="194.02" y1="111.7" x2="216.96" y2="118.77" stroke-width="1.5" opacity="0" />
  <circle id="mol20:Atom:0" class="event" cx="215.58" cy="178.39" r="8" opacity="0" />
  <circle id="mol20:Atom:1" class="event" cx="205.17" cy="200.01" r="8" opacity="0" />
  <circle id="mol20:Atom:2" class="event" cx="220.13" cy="218.77" r="8" opacity="0" />
  <circle id="mol20:Atom:3" class="event" cx="181.77" cy="205.35" r="8" opacity="0" />
  <circle id="mol20:Atom:4" class="event" cx="163.01" cy="190.39" r="8" opacity="0" />
  <circle id="mol20:Atom:5" class="event" cx="163.01" cy="166.39" r="8" opacity="0" />
  <circle id="mol20:Atom:6" class="event" cx="142.22" cy="154.39" r="8" opacity="0" />
  <circle id="mol20:Atom:7" class="event" cx="121.44" cy="166.39" r="8" opacity="0" />
  <circle id="mol20:Atom:8" class="event" cx="121.44" cy="190.39" r="8" opacity="0" />
  <circle id="mol20:Atom:9" class="event" cx="142.22" cy="202.39" r="8" opacity="0" />
  <circle id="mol20:Atom:10" class="event" cx="100.65" cy="154.39" r="8" opacity="0" />
  <circle id="mol20:Atom:11" class="event" cx="100.65" cy="130.39" r="8" opacity="0" />
  <circle id="mol20:Atom:12" class="event" cx="79.87" cy="166.39" r="8" opacity="0" />
  <circle id="mol20:Atom:13" class="event" cx="181.77" cy="151.42" r="8" opacity="0" />
  <circle id="mol20:Atom:14" class="event" cx="205.17" cy="156.76" r="8" opacity="0" />
  <circle id="mol20:Atom:15" class="event" cx="176.43" cy="128.02" r="8" opacity="0" />
  <circle id="mol20:Atom:16" class="event" cx="153.5" cy="120.95" r="8" opacity="0" />
  <circle id="mol20:Atom:17" class="event" cx="148.16" cy="97.55" r="8" opacity="0" />
  <circle id="mol20:Atom:18" class="event" cx="165.75" cy="81.23" r="8" opacity="0" />
  <circle id="mol20:Atom:19" class="event" cx="188.68" cy="88.3" r="8" opacity="0" />
  <circle id="mol20:Atom:20" class="event" cx="194.02" cy="111.7" r="8" opacity="0" />
  <circle id="mol20:Atom:21" class="event" cx="216.96" cy="118.77" r="8" opacity="0" />
</svg>