<svg id="mol22" xmlns="http://www.w3.org/2000/svg" version="1.1" width="222px" height="197px" viewBox="34 52 222 197">
  <style> #mol22 text {font-family: sans-serif;} #mol22 { pointer-events:none; } #mol22 .event  { pointer-events:all; } #mol22 line { stroke-linecap:round; } #mol22 polygon { stroke-linejoin:round; } </style>
  <text x="98.93" y="262.15" stroke="none" font-size="12" fill="rgb(160,0,0)">unknown chirality</text>
  <text x="214.74" y="208.67" stroke="none" font-size="14" fill="rgb(248,113,113)">O</text>
  <text x="235.53" y="172.67" stroke="none" font-size="14" fill="rgb(248,113,113)">O</text>
  <text x="194.4" y="176" stroke="none" font-size="9" fill="rgb(160,0,0)">?</text>
  <text x="173.57" y="184.67" stroke="none" font-size="14" fill="rgb(129,140,248)">N</text>
  <text x="173.57" y="198.67" stroke="none" font-size="14" fill="rgb(129,140,248)">H</text>
  <text x="152.83" y="176" stroke="none" font-size="9" fill="rgb(160,0,0)">?</text>
  <text x="137.37" y="132.41" stroke="none" font-size="14" fill="rgb(205,205,38)">S</text>
  <text x="113.3" y="139.32" stroke="none" font-size="9" fill="rgb(160,0,0)">?</text>
  <text x="110.02" y="179.11" stroke="none" font-size="14" fill="rgb(129,140,248)">N</text>
  <text x="136.14" y="209.92" stroke="none" font-size="14" fill="rgb(248,113,113)">O</text>
  <text x="62.83" y="168.43" stroke="none" font-size="14" fill="rgb(248,113,113)">O</text>
  <text x="53.58" y="208.96" stroke="none" font-size="14" fill="rgb(248,113,113)">O</text>
  <text x="43.47" y="208.96" stroke="none" font-size="14" fill="rgb(248,113,113)">H</text>
  <text x="76.13" y="115.44" stroke="none" font-size="14" fill="rgb(205,205,38)">S</text>
  <line x1="220.19" y1="182.08" x2="235.43" y2="173.28" stroke="rgb(228,226,242)" stroke-width="1.5" />
  <line x1="218.39" y1="178.96" x2="233.63" y2="170.16" stroke="rgb(228,226,242)" stroke-width="1.5" />
  <line x1="178.62" y1="108" x2="157.84" y2="96" stroke="rgb(228,226,242)" stroke-width="1.5" />
  <line x1="178.2" y1="103.6" x2="161.85" y2="94.16" stroke="rgb(228,226,242)" stroke-width="1.5" />
  <line x1="157.84" y1="72" x2="178.62" y2="60" stroke="rgb(228,226,242)" stroke-width="1.5" />
  <line x1="161.85" y1="73.84" x2="178.2" y2="64.4" stroke="rgb(228,226,242)" stroke-width="1.5" />
  <line x1="199.41" y1="72" x2="199.41" y2="96" stroke="rgb(228,226,242)" stroke-width="1.5" />
  <line x1="195.81" y1="74.56" x2="195.81" y2="93.44" stroke="rgb(228,226,242)" stroke-width="1.5" />
  <line x1="136.1" y1="180.93" x2="138.75" y2="198.52" stroke="rgb(228,226,242)" stroke-width="1.5" />
  <line x1="139.66" y1="180.39" x2="142.31" y2="197.98" stroke="rgb(228,226,242)" stroke-width="1.5" />
  <line x1="77.38" y1="187.16" x2="72.16" y2="170.23" stroke="rgb(228,226,242)" stroke-width="1.5" />
  <line x1="73.94" y1="188.22" x2="68.71" y2="171.3" stroke="rgb(228,226,242)" stroke-width="1.5" />
  <line x1="104.78" y1="111.49" x2="112.88" y2="88.9" stroke="rgb(228,226,242)" stroke-width="1.5" />
  <line x1="102.41" y1="107.44" x2="108.47" y2="90.52" stroke="rgb(228,226,242)" stroke-width="1.5" />
  <line x1="93.89" y1="74.22" x2="74.06" y2="87.74" stroke="rgb(228,226,242)" stroke-width="1.5" />
  <line x1="93.43" y1="78.89" x2="78.58" y2="89.01" stroke="rgb(228,226,242)" stroke-width="1.5" />
  <line x1="240.97" y1="240" x2="240.97" y2="216" stroke="rgb(228,226,242)" stroke-width="1.5" />
  <line x1="240.97" y1="216" x2="226.64" y2="207.72" stroke="rgb(228,226,242)" stroke-width="1.5" />
  <line x1="220.19" y1="197" x2="220.19" y2="180" stroke="rgb(228,226,242)" stroke-width="1.5" />
  <line x1="220.19" y1="180" x2="199.41" y2="168" stroke="rgb(228,226,242)" stroke-width="1.5" />
  <line x1="199.41" y1="168" x2="199.41" y2="144" stroke="rgb(228,226,242)" stroke-width="1.5" />
  <line x1="199.41" y1="144" x2="178.62" y2="132" stroke="rgb(228,226,242)" stroke-width="1.5" />
  <line x1="178.62" y1="132" x2="178.62" y2="108" stroke="rgb(228,226,242)" stroke-width="1.5" />
  <line x1="157.84" y1="96" x2="157.84" y2="72" stroke="rgb(228,226,242)" stroke-width="1.5" />
  <line x1="178.62" y1="60" x2="199.41" y2="72" stroke="rgb(228,226,242)" stroke-width="1.5" />
  <line x1="178.62" y1="108" x2="199.41" y2="96" stroke="rgb(228,226,242)" stroke-width="1.5" />
  <line x1="199.41" y1="168" x2="184.67" y2="176.5" stroke="rgb(228,226,242)" stroke-width="1.5" />
  <line x1="172.57" y1="176.5" x2="157.84" y2="168" stroke="rgb(228,226,242)" stroke-width="1.5" />
  <line x1="157.84" y1="168" x2="159.63" y2="144.07" stroke="rgb(228,226,242)" stroke-width="1.5" />
  <line x1="159.63" y1="144.07" x2="147.71" y2="133" stroke="rgb(228,226,242)" stroke-width="1.5" />
  <line x1="136.37" y1="128.6" x2="118.3" y2="131.32" stroke="rgb(228,226,242)" stroke-width="1.5" />
  <line x1="118.3" y1="131.32" x2="106.3" y2="152.1" stroke="rgb(228,226,242)" stroke-width="1.5" />
  <line x1="106.3" y1="152.1" x2="112.33" y2="167.45" stroke="rgb(228,226,242)" stroke-width="1.5" />
  <line x1="121.13" y1="176.31" x2="138.01" y2="181.52" stroke="rgb(228,226,242)" stroke-width="1.5" />
  <line x1="157.84" y1="168" x2="138.01" y2="181.52" stroke="rgb(228,226,242)" stroke-width="1.5" />
  <line x1="109.02" y1="180.97" x2="98.75" y2="192.04" stroke="rgb(228,226,242)" stroke-width="1.5" />
  <line x1="98.75" y1="192.04" x2="75.35" y2="186.7" stroke="rgb(228,226,242)" stroke-width="1.5" />
  <line x1="75.35" y1="186.7" x2="65.47" y2="197.34" stroke="rgb(228,226,242)" stroke-width="1.5" />
  <line x1="118.3" y1="131.32" x2="104.78" y2="111.49" stroke="rgb(228,226,242)" stroke-width="1.5" />
  <line x1="112.88" y1="88.9" x2="93.89" y2="74.22" stroke="rgb(228,226,242)" stroke-width="1.5" />
  <line x1="74.06" y1="87.74" x2="78.75" y2="103.77" stroke="rgb(228,226,242)" stroke-width="1.5" />
  <line x1="104.78" y1="111.49" x2="86.46" y2="110.94" stroke="rgb(228,226,242)" stroke-width="1.5" />
  <line id="mol22:Bond:3" class="event" x1="220.19" y1="180" x2="240.97" y2="168" stroke-width="1.5" opacity="0" />
  <line id="mol22:Bond:8" class="event" x1="178.62" y1="108" x2="157.84" y2="96" stroke-width="1.5" opacity="0" />
  <line id="mol22:Bond:10" class="event" x1="157.84" y1="72" x2="178.62" y2="60" stroke-width="1.5" opacity="0" />
  <line id="mol22:Bond:12" class="event" x1="199.41" y1="72" x2="199.41" y2="96" stroke-width="1.5" opacity="0" />
  <line id="mol22:Bond:23" class="event" x1="138.01" y1="181.52" x2="141.58" y2="205.25" stroke-width="1.5" opacity="0" />
  <line id="mol22:Bond:26" class="event" x1="75.35" y1="186.7" x2="68.28" y2="163.76" stroke-width="1.5" opacity="0" />
  <line id="mol22:Bond:29" class="event" x1="104.78" y1="111.49" x2="112.88" y2="88.9" stroke-width="1.5" opacity="0" />
  <line id="mol22:Bond:31" class="event" x1="93.89" y1="74.22" x2="74.06" y2="87.74" stroke-width="1.5" opacity="0" />
  <line id="mol22:Bond:0" class="event" x1="240.97" y1="240" x2="240.97" y2="216" stroke-width="1.5" opacity="0" />
  <line id="mol22:Bond:1" class="event" x1="240.97" y1="216" x2="220.19" y2="204" stroke-width="1.5" opacity="0" />
  <line id="mol22:Bond:2" class="event" x1="220.19" y1="204" x2="220.19" y2="180" stroke-width="1.5" opacity="0" />
  <line id="mol22:Bond:4" class="event" x1="220.19" y1="180" x2="199.41" y2="168" stroke-width="1.5" opacity="0" />
  <line id="mol22:Bond:5" class="event" x1="199.41" y1="168" x2="199.41" y2="144" stroke-width="1.5" opacity="0" />
  <line id="mol22:Bond:6" class="event" x1="199.41" y1="144" x2="178.62" y2="132" stroke-width="1.5" opacity="0" />
  <line id="mol22:Bond:7" class="event" x1="178.62" y1="132" x2="178.62" y2="108" stroke-width="1.5" opacity="0" />
  <line id="mol22:Bond:9" class="event" x1="157.84" y1="96" x2="157.84" y2="72" stroke-width="1.5" opacity="0" />
  <line id="mol22:Bond:11" class="event" x1="178.62" y1="60" x2="199.41" y2="72" stroke-width="1.5" opacity="0" />
  <line id="mol22:Bond:13" class="event" x1="178.62" y1="108" x2="199.41" y2="96" stroke-width="1.5" opacity="0" />
  <line id="mol22:Bond:14" class="event" x1="199.41" y1="168" x2="178.62" y2="180" stroke-width="1.5" opacity="0" />
  <line id="mol22:Bond:15" class="event" x1="178.62" y1="180" x2="157.84" y2="168" stroke-width="1.5" opacity="0" />
  <line id="mol22:Bond:16" class="event" x1="157.84" y1="168" x2="159.63" y2="144.07" stroke-width="1.5" opacity="0" />
  <line id="mol22:Bond:17" class="event" x1="159.63" y1="144.07" x2="142.04" y2="127.74" stroke-width="1.5" opacity="0" />
  <line id="mol22:Bond:18" class="event" x1="142.04" y1="127.74" x2="118.3" y2="131.32" stroke-width="1.5" opacity="0" />
  <line id="mol22:Bond:19" class="event" x1="118.3" y1="131.32" x2="106.3" y2="152.1" stroke-width="1.5" opacity="0" />
  <line id="mol22:Bond:20" class="event" x1="106.3" y1="152.1" x2="115.07" y2="174.45" stroke-width="1.5" opacity="0" />
  <line id="mol22:Bond:21" class="event" x1="115.07" y1="174.45" x2="138.01" y2="181.52" stroke-width="1.5" opacity="0" />
  <line id="mol22:Bond:22" class="event" x1="157.84" y1="168" x2="138.01" y2="181.52" stroke-width="1.5" opacity="0" />
  <line id="mol22:Bond:24" class="event" x1="115.07" y1="174.45" x2="98.75" y2="192.04" stroke-width="1.5" opacity="0" />
  <line id="mol22:Bond:25" class="event" x1="98.75" y1="192.04" x2="75.35" y2="186.7" stroke-width="1.5" opacity="0" />
  <line id="mol22:Bond:27" class="event" x1="75.35" y1="186.7" x2="59.03" y2="204.29" stroke-width="1.5" opacity="0" />
  <line id="mol22:Bond:28" class="event" x1="118.3" y1="131.32" x2="104.78" y2="111.49" stroke-width="1.5" opacity="0" />
  <line id="mol22:Bond:30" class="event" x1="112.88" y1="88.9" x2="93.89" y2="74.22" stroke-width="1.5" opacity="0" />
  <line id="mol22:Bond:32" class="event" x1="74.06" y1="87.74" x2="80.8" y2="110.77" stroke-width="1.5" opacity="0" />
  <line id="mol22:Bond:33" class="event" x1="104.78" y1="111.49" x2="80.8" y2="110.77" stroke-width="1.5" opacity="0" />
  <circle id="mol22:Atom:0" class="event" cx="240.97" cy="240" r="8" opacity="0" />
  <circle id="mol22:Atom:1" class="event" cx="240.97" cy="216" r="8" opacity="0" />
  <circle id="mol22:Atom:2" class="event" cx="220.19" cy="204" r="8" opacity="0" />
  <circle id="mol22:Atom:3" class="event" cx="220.19" cy="180" r="8" opacity="0" />
  <circle id="mol22:Atom:4" class="event" cx="240.97" cy="168" r="8" opacity="0" />
  <circle id="mol22:Atom:5" class="event" cx="199.41" cy="168" r="8" opacity="0" />
  <circle id="mol22:Atom:6" class="event" cx="199.41" cy="144" r="8" opacity="0" />
  <circle id="mol22:Atom:7" class="event" cx="178.62" cy="132" r="8" opacity="0" />
  <circle id="mol22:Atom:8" class="event" cx="178.62" cy="108" r="8" opacity="0" />
  <circle id="mol22:Atom:9" class="event" cx="157.84" cy="96" r="8" opacity="0" />
  <circle id="mol22:Atom:10" class="event" cx="157.84" cy="72" r="8" opacity="0" />
  <circle id="mol22:Atom:11" class="event" cx="178.62" cy="60" r="8" opacity="0" />
  <circle id="mol22:Atom:12" class="event" cx="199.41" cy="72" r="8" opacity="0" />
  <circle id="mol22:Atom:13" class="event" cx="199.41" cy="96" r="8" opacity="0" />
  <circle id="mol22:Atom:14" class="event" cx="178.62" cy="180" r="8" opacity="0" />
  <circle id="mol22:Atom:15" class="event" cx="157.84" cy="168" r="8" opacity="0" />
  <circle id="mol22:Atom:16" class="event" cx="159.63" cy="144.07" r="8" opacity="0" />
  <circle id="mol22:Atom:17" class="event" cx="142.04" cy="127.74" r="8" opacity="0" />
  <circle id="mol22:Atom:18" class="event" cx="118.3" cy="131.32" r="8" opacity="0" />
  <circle id="mol22:Atom:19" class="event" cx="106.3" cy="152.1" r="8" opacity="0" />
  <circle id="mol22:Atom:20" class="event" cx="115.07" cy="174.45" r="8" opacity="0" />
  <circle id="mol22:Atom:21" class="event" cx="138.01" cy="181.52" r="8" opacity="0" />
  <circle id="mol22:Atom:22" class="event" cx="141.58" cy="205.25" r="8" opacity="0" />
  <circle id="mol22:Atom:23" class="event" cx="98.75" cy="192.04" r="8" opacity="0" />
  <circle id="mol22:Atom:24" class="event" cx="75.35" cy="186.7" r="8" opacity="0" />
  <circle id="mol22:Atom:25" class="event" cx="68.28" cy="163.76" r="8" opacity="0" />
  <circle id="mol22:Atom:26" class="event" cx="59.03" cy="204.29" r="8" opacity="0" />
  <circle id="mol22:Atom:27" class="event" cx="104.78" cy="111.49" r="8" opacity="0" />
  <circle id="mol22:Atom:28" class="event" cx="112.88" cy="88.9" r="8" opacity="0" />
  <circle id="mol22:Atom:29" class="event" cx="93.89" cy="74.22" r="8" opacity="0" />
  <circle id="mol22:Atom:30" class="event" cx="74.06" cy="87.74" r="8" opacity="0" />
  <circle id="mol22:Atom:31" class="event" cx="80.8" cy="110.77" r="8" opacity="0" />
</svg>