<svg id="mol22" xmlns="http://www.w3.org/2000/svg" version="1.1" width="170px" height="139px" viewBox="68 81 170 139">
  <style> #mol22 text {font-family: sans-serif;} #mol22 { pointer-events:none; } #mol22 .event  { pointer-events:all; } #mol22 line { stroke-linecap:round; } #mol22 polygon { stroke-linejoin:round; } </style>
  <text x="107.21" y="233.79" stroke="none" font-size="12" fill="rgb(160,0,0)">unknown chirality</text>
  <text x="187.29" y="164.54" stroke="none" font-size="14" fill="rgb(129,140,248)">N</text>
  <text x="101.05" y="209.31" stroke="none" font-size="14" fill="rgb(31,240,31)">Cl</text>
  <text x="156.92" y="119.98" stroke="none" font-size="14" fill="rgb(129,140,248)">N</text>
  <text x="180.9" y="125.11" stroke="none" font-size="9" fill="rgb(160,0,0)">?</text>
  <text x="217.71" y="138.03" stroke="none" font-size="14" fill="rgb(248,113,113)">O</text>
  <text x="192.46" y="100.99" stroke="none" font-size="14" fill="rgb(248,113,113)">O</text>
  <text x="203.35" y="100.99" stroke="none" font-size="14" fill="rgb(248,113,113)">H</text>
  <line x1="170.01" y1="168.64" x2="149.22" y2="156.64" stroke="rgb(228,226,242)" stroke-width="1.5" />
  <line x1="165.99" y1="170.48" x2="149.64" y2="161.04" stroke="rgb(228,226,242)" stroke-width="1.5" />
  <line x1="128.44" y1="168.64" x2="128.44" y2="192.64" stroke="rgb(228,226,242)" stroke-width="1.5" />
  <line x1="132.04" y1="171.2" x2="132.04" y2="190.08" stroke="rgb(228,226,242)" stroke-width="1.5" />
  <line x1="149.22" y1="204.64" x2="170.01" y2="192.64" stroke="rgb(228,226,242)" stroke-width="1.5" />
  <line x1="149.64" y1="200.24" x2="165.99" y2="190.8" stroke="rgb(228,226,242)" stroke-width="1.5" />
  <line x1="145.65" y1="132.91" x2="155.92" y2="121.84" stroke="rgb(228,226,242)" stroke-width="1.5" />
  <line x1="149.76" y1="133.77" x2="158.56" y2="124.29" stroke="rgb(228,226,242)" stroke-width="1.5" />
  <line x1="198.83" y1="138.85" x2="216.98" y2="136.11" stroke="rgb(228,226,242)" stroke-width="1.5" />
  <line x1="198.3" y1="135.29" x2="216.44" y2="132.55" stroke="rgb(228,226,242)" stroke-width="1.5" />
  <line x1="122.71" y1="125.83" x2="117.37" y2="102.43" stroke="rgb(228,226,242)" stroke-width="1.5" />
  <line x1="118.63" y1="124.14" x2="114.43" y2="105.73" stroke="rgb(228,226,242)" stroke-width="1.5" />
  <line x1="94.44" y1="95.36" x2="76.85" y2="111.68" stroke="rgb(228,226,242)" stroke-width="1.5" />
  <line x1="95.01" y1="99.74" x2="81.17" y2="112.58" stroke="rgb(228,226,242)" stroke-width="1.5" />
  <line x1="82.19" y1="135.08" x2="105.12" y2="142.16" stroke="rgb(228,226,242)" stroke-width="1.5" />
  <line x1="85.69" y1="132.4" x2="103.73" y2="137.96" stroke="rgb(228,226,242)" stroke-width="1.5" />
  <line x1="209.94" y1="176.2" x2="198.4" y2="165.49" stroke="rgb(228,226,242)" stroke-width="1.5" />
  <line x1="186.29" y1="162.25" x2="170.01" y2="168.64" stroke="rgb(228,226,242)" stroke-width="1.5" />
  <line x1="149.22" y1="156.64" x2="128.44" y2="168.64" stroke="rgb(228,226,242)" stroke-width="1.5" />
  <line x1="128.44" y1="192.64" x2="149.22" y2="204.64" stroke="rgb(228,226,242)" stroke-width="1.5" />
  <line x1="170.01" y1="168.64" x2="170.01" y2="192.64" stroke="rgb(228,226,242)" stroke-width="1.5" />
  <line x1="128.44" y1="192.64" x2="115.26" y2="200.25" stroke="rgb(228,226,242)" stroke-width="1.5" />
  <line x1="149.22" y1="156.64" x2="145.65" y2="132.91" stroke="rgb(228,226,242)" stroke-width="1.5" />
  <line x1="168.02" y1="115.77" x2="185.9" y2="117.11" stroke="rgb(228,226,242)" stroke-width="1.5" />
  <line x1="185.9" y1="117.11" x2="199.42" y2="136.94" stroke="rgb(228,226,242)" stroke-width="1.5" />
  <line x1="194.51" y1="152.87" x2="199.42" y2="136.94" stroke="rgb(228,226,242)" stroke-width="1.5" />
  <line x1="185.9" y1="117.11" x2="193.86" y2="103.32" stroke="rgb(228,226,242)" stroke-width="1.5" />
  <line x1="145.65" y1="132.91" x2="122.71" y2="125.83" stroke="rgb(228,226,242)" stroke-width="1.5" />
  <line x1="117.37" y1="102.43" x2="94.44" y2="95.36" stroke="rgb(228,226,242)" stroke-width="1.5" />
  <line x1="76.85" y1="111.68" x2="82.19" y2="135.08" stroke="rgb(228,226,242)" stroke-width="1.5" />
  <line x1="122.71" y1="125.83" x2="105.12" y2="142.16" stroke="rgb(228,226,242)" stroke-width="1.5" />
  <line id="mol22:Bond:2" class="event" x1="170.01" y1="168.64" x2="149.22" y2="156.64" stroke-width="1.5" opacity="0" />
  <line id="mol22:Bond:4" class="event" x1="128.44" y1="168.64" x2="128.44" y2="192.64" stroke-width="1.5" opacity="0" />
  <line id="mol22:Bond:6" class="event" x1="149.22" y1="204.64" x2="170.01" y2="192.64" stroke-width="1.5" opacity="0" />
  <line id="mol22:Bond:10" class="event" x1="145.65" y1="132.91" x2="161.97" y2="115.31" stroke-width="1.5" opacity="0" />
  <line id="mol22:Bond:14" class="event" x1="199.42" y1="136.94" x2="223.15" y2="133.36" stroke-width="1.5" opacity="0" />
  <line id="mol22:Bond:17" class="event" x1="122.71" y1="125.83" x2="117.37" y2="102.43" stroke-width="1.5" opacity="0" />
  <line id="mol22:Bond:19" class="event" x1="94.44" y1="95.36" x2="76.85" y2="111.68" stroke-width="1.5" opacity="0" />
  <line id="mol22:Bond:21" class="event" x1="82.19" y1="135.08" x2="105.12" y2="142.16" stroke-width="1.5" opacity="0" />
  <line id="mol22:Bond:0" class="event" x1="209.94" y1="176.2" x2="192.35" y2="159.87" stroke-width="1.5" opacity="0" />
  <line id="mol22:Bond:1" class="event" x1="192.35" y1="159.87" x2="170.01" y2="168.64" stroke-width="1.5" opacity="0" />
  <line id="mol22:Bond:3" class="event" x1="149.22" y1="156.64" x2="128.44" y2="168.64" stroke-width="1.5" opacity="0" />
  <line id="mol22:Bond:5" class="event" x1="128.44" y1="192.64" x2="149.22" y2="204.64" stroke-width="1.5" opacity="0" />
  <line id="mol22:Bond:7" class="event" x1="170.01" y1="168.64" x2="170.01" y2="192.64" stroke-width="1.5" opacity="0" />
  <line id="mol22:Bond:8" class="event" x1="128.44" y1="192.64" x2="107.65" y2="204.64" stroke-width="1.5" opacity="0" />
  <line id="mol22:Bond:9" class="event" x1="149.22" y1="156.64" x2="145.65" y2="132.91" stroke-width="1.5" opacity="0" />
  <line id="mol22:Bond:11" class="event" x1="161.97" y1="115.31" x2="185.9" y2="117.11" stroke-width="1.5" opacity="0" />
  <line id="mol22:Bond:12" class="event" x1="185.9" y1="117.11" x2="199.42" y2="136.94" stroke-width="1.5" opacity="0" />
  <line id="mol22:Bond:13" class="event" x1="192.35" y1="159.87" x2="199.42" y2="136.94" stroke-width="1.5" opacity="0" />
  <line id="mol22:Bond:15" class="event" x1="185.9" y1="117.11" x2="197.9" y2="96.32" stroke-width="1.5" opacity="0" />
  <line id="mol22:Bond:16" class="event" x1="145.65" y1="132.91" x2="122.71" y2="125.83" stroke-width="1.5" opacity="0" />
  <line id="mol22:Bond:18" class="event" x1="117.37" y1="102.43" x2="94.44" y2="95.36" stroke-width="1.5" opacity="0" />
  <line id="mol22:Bond:20" class="event" x1="76.85" y1="111.68" x2="82.19" y2="135.08" stroke-width="1.5" opacity="0" />
  <line id="mol22:Bond:22" class="event" x1="122.71" y1="125.83" x2="105.12" y2="142.16" stroke-width="1.5" opacity="0" />
  <circle id="mol22:Atom:0" class="event" cx="209.94" cy="176.2" r="8" opacity="0" />
  <circle id="mol22:Atom:1" class="event" cx="192.35" cy="159.87" r="8" opacity="0" />
  <circle id="mol22:Atom:2" class="event" cx="170.01" cy="168.64" r="8" opacity="0" />
  <circle id="mol22:Atom:3" class="event" cx="149.22" cy="156.64" r="8" opacity="0" />
  <circle id="mol22:Atom:4" class="event" cx="128.44" cy="168.64" r="8" opacity="0" />
  <circle id="mol22:Atom:5" class="event" cx="128.44" cy="192.64" r="8" opacity="0" />
  <circle id="mol22:Atom:6" class="event" cx="149.22" cy="204.64" r="8" opacity="0" />
  <circle id="mol22:Atom:7" class="event" cx="170.01" cy="192.64" r="8" opacity="0" />
  <circle id="mol22:Atom:8" class="event" cx="107.65" cy="204.64" r="8" opacity="0" />
  <circle id="mol22:Atom:9" class="event" cx="145.65" cy="132.91" r="8" opacity="0" />
  <circle id="mol22:Atom:10" class="event" cx="161.97" cy="115.31" r="8" opacity="0" />
  <circle id="mol22:Atom:11" class="event" cx="185.9" cy="117.11" r="8" opacity="0" />
  <circle id="mol22:Atom:12" class="event" cx="199.42" cy="136.94" r="8" opacity="0" />
  <circle id="mol22:Atom:13" class="event" cx="223.15" cy="133.36" r="8" opacity="0" />
  <circle id="mol22:Atom:14" class="event" cx="197.9" cy="96.32" r="8" opacity="0" />
  <circle id="mol22:Atom:15" class="event" cx="122.71" cy="125.83" r="8" opacity="0" />
  <circle id="mol22:Atom:16" class="event" cx="117.37" cy="102.43" r="8" opacity="0" />
  <circle id="mol22:Atom:17" class="event" cx="94.44" cy="95.36" r="8" opacity="0" />
  <circle id="mol22:Atom:18" class="event" cx="76.85" cy="111.68" r="8" opacity="0" />
  <circle id="mol22:Atom:19" class="event" cx="82.19" cy="135.08" r="8" opacity="0" />
  <circle id="mol22:Atom:20" class="event" cx="105.12" cy="142.16" r="8" opacity="0" />
</svg>