<svg id="mol23" xmlns="http://www.w3.org/2000/svg" version="1.1" width="155px" height="203px" viewBox="73 49 155 203">
  <style> #mol23 text {font-family: sans-serif;} #mol23 { pointer-events:none; } #mol23 .event  { pointer-events:all; } #mol23 line { stroke-linecap:round; } #mol23 polygon { stroke-linejoin:round; } </style>
  <text x="161.66" y="189.18" stroke="none" font-size="14" fill="rgb(129,140,248)">N</text>
  <text x="197.13" y="173.39" stroke="none" font-size="14" fill="rgb(129,140,248)">N</text>
  <text x="117.19" y="189.32" stroke="none" font-size="14" fill="rgb(248,113,113)">O</text>
  <text x="96.8" y="153.32" stroke="none" font-size="14" fill="rgb(129,140,248)">N</text>
  <line x1="201.1" y1="80.46" x2="178.27" y2="87.88" stroke="rgb(228,226,242)" stroke-width="1.5" />
  <line x1="199.78" y1="84.68" x2="181.82" y2="90.51" stroke="rgb(228,226,242)" stroke-width="1.5" />
  <line x1="173.28" y1="111.35" x2="191.12" y2="127.41" stroke="rgb(228,226,242)" stroke-width="1.5" />
  <line x1="177.6" y1="110.39" x2="191.62" y2="123.02" stroke="rgb(228,226,242)" stroke-width="1.5" />
  <line x1="213.94" y1="120" x2="218.93" y2="96.52" stroke="rgb(228,226,242)" stroke-width="1.5" />
  <line x1="210.96" y1="116.74" x2="214.88" y2="98.28" stroke="rgb(228,226,242)" stroke-width="1.5" />
  <line x1="186.13" y1="150.89" x2="164.2" y2="160.65" stroke="rgb(228,226,242)" stroke-width="1.5" />
  <line x1="184.84" y1="155.4" x2="168.42" y2="162.71" stroke="rgb(228,226,242)" stroke-width="1.5" />
  <line x1="150.65" y1="202.35" x2="158.07" y2="225.18" stroke="rgb(228,226,242)" stroke-width="1.5" />
  <line x1="154.87" y1="203.68" x2="160.7" y2="221.63" stroke="rgb(228,226,242)" stroke-width="1.5" />
  <line x1="181.55" y1="230.17" x2="197.6" y2="212.33" stroke="rgb(228,226,242)" stroke-width="1.5" />
  <line x1="180.58" y1="225.86" x2="193.22" y2="211.83" stroke="rgb(228,226,242)" stroke-width="1.5" />
  <line x1="190.19" y1="189.51" x2="198.15" y2="175.72" stroke="rgb(228,226,242)" stroke-width="1.5" />
  <line x1="188.58" y1="185.1" x2="195.03" y2="173.92" stroke="rgb(228,226,242)" stroke-width="1.5" />
  <line x1="120.83" y1="159.61" x2="120.83" y2="177.65" stroke="rgb(228,226,242)" stroke-width="1.5" />
  <line x1="124.43" y1="159.61" x2="124.43" y2="177.65" stroke="rgb(228,226,242)" stroke-width="1.5" />
  <line x1="206.09" y1="56.99" x2="201.1" y2="80.46" stroke="rgb(228,226,242)" stroke-width="1.5" />
  <line x1="178.27" y1="87.88" x2="173.28" y2="111.35" stroke="rgb(228,226,242)" stroke-width="1.5" />
  <line x1="191.12" y1="127.41" x2="213.94" y2="120" stroke="rgb(228,226,242)" stroke-width="1.5" />
  <line x1="201.1" y1="80.46" x2="218.93" y2="96.52" stroke="rgb(228,226,242)" stroke-width="1.5" />
  <line x1="191.12" y1="127.41" x2="186.13" y2="150.89" stroke="rgb(228,226,242)" stroke-width="1.5" />
  <line x1="164.2" y1="160.65" x2="165.98" y2="177.52" stroke="rgb(228,226,242)" stroke-width="1.5" />
  <line x1="160.66" y1="191.24" x2="150.65" y2="202.35" stroke="rgb(228,226,242)" stroke-width="1.5" />
  <line x1="158.07" y1="225.18" x2="181.55" y2="230.17" stroke="rgb(228,226,242)" stroke-width="1.5" />
  <line x1="197.6" y1="212.33" x2="190.19" y2="189.51" stroke="rgb(228,226,242)" stroke-width="1.5" />
  <line x1="172.77" y1="185.8" x2="190.19" y2="189.51" stroke="rgb(228,226,242)" stroke-width="1.5" />
  <line x1="186.13" y1="150.89" x2="196.13" y2="162" stroke="rgb(228,226,242)" stroke-width="1.5" />
  <line x1="158.07" y1="225.18" x2="142.01" y2="243.01" stroke="rgb(228,226,242)" stroke-width="1.5" />
  <line x1="164.2" y1="160.65" x2="143.42" y2="148.65" stroke="rgb(228,226,242)" stroke-width="1.5" />
  <line x1="143.42" y1="148.65" x2="122.63" y2="160.65" stroke="rgb(228,226,242)" stroke-width="1.5" />
  <line x1="122.63" y1="160.65" x2="107.9" y2="152.14" stroke="rgb(228,226,242)" stroke-width="1.5" />
  <line x1="101.85" y1="141.65" x2="101.85" y2="124.65" stroke="rgb(228,226,242)" stroke-width="1.5" />
  <line x1="95.8" y1="152.14" x2="81.07" y2="160.65" stroke="rgb(228,226,242)" stroke-width="1.5" />
  <line id="mol23:Bond:1" class="event" x1="201.1" y1="80.46" x2="178.27" y2="87.88" stroke-width="1.5" opacity="0" />
  <line id="mol23:Bond:3" class="event" x1="173.28" y1="111.35" x2="191.12" y2="127.41" stroke-width="1.5" opacity="0" />
  <line id="mol23:Bond:5" class="event" x1="213.94" y1="120" x2="218.93" y2="96.52" stroke-width="1.5" opacity="0" />
  <line id="mol23:Bond:8" class="event" x1="186.13" y1="150.89" x2="164.2" y2="160.65" stroke-width="1.5" opacity="0" />
  <line id="mol23:Bond:11" class="event" x1="150.65" y1="202.35" x2="158.07" y2="225.18" stroke-width="1.5" opacity="0" />
  <line id="mol23:Bond:13" class="event" x1="181.55" y1="230.17" x2="197.6" y2="212.33" stroke-width="1.5" opacity="0" />
  <line id="mol23:Bond:16" class="event" x1="190.19" y1="189.51" x2="202.19" y2="168.72" stroke-width="1.5" opacity="0" />
  <line id="mol23:Bond:21" class="event" x1="122.63" y1="160.65" x2="122.63" y2="184.65" stroke-width="1.5" opacity="0" />
  <line id="mol23:Bond:0" class="event" x1="206.09" y1="56.99" x2="201.1" y2="80.46" stroke-width="1.5" opacity="0" />
  <line id="mol23:Bond:2" class="event" x1="178.27" y1="87.88" x2="173.28" y2="111.35" stroke-width="1.5" opacity="0" />
  <line id="mol23:Bond:4" class="event" x1="191.12" y1="127.41" x2="213.94" y2="120" stroke-width="1.5" opacity="0" />
  <line id="mol23:Bond:6" class="event" x1="201.1" y1="80.46" x2="218.93" y2="96.52" stroke-width="1.5" opacity="0" />
  <line id="mol23:Bond:7" class="event" x1="191.12" y1="127.41" x2="186.13" y2="150.89" stroke-width="1.5" opacity="0" />
  <line id="mol23:Bond:9" class="event" x1="164.2" y1="160.65" x2="166.71" y2="184.52" stroke-width="1.5" opacity="0" />
  <line id="mol23:Bond:10" class="event" x1="166.71" y1="184.52" x2="150.65" y2="202.35" stroke-width="1.5" opacity="0" />
  <line id="mol23:Bond:12" class="event" x1="158.07" y1="225.18" x2="181.55" y2="230.17" stroke-width="1.5" opacity="0" />
  <line id="mol23:Bond:14" class="event" x1="197.6" y1="212.33" x2="190.19" y2="189.51" stroke-width="1.5" opacity="0" />
  <line id="mol23:Bond:15" class="event" x1="166.71" y1="184.52" x2="190.19" y2="189.51" stroke-width="1.5" opacity="0" />
  <line id="mol23:Bond:17" class="event" x1="186.13" y1="150.89" x2="202.19" y2="168.72" stroke-width="1.5" opacity="0" />
  <line id="mol23:Bond:18" class="event" x1="158.07" y1="225.18" x2="142.01" y2="243.01" stroke-width="1.5" opacity="0" />
  <line id="mol23:Bond:19" class="event" x1="164.2" y1="160.65" x2="143.42" y2="148.65" stroke-width="1.5" opacity="0" />
  <line id="mol23:Bond:20" class="event" x1="143.42" y1="148.65" x2="122.63" y2="160.65" stroke-width="1.5" opacity="0" />
  <line id="mol23:Bond:22" class="event" x1="122.63" y1="160.65" x2="101.85" y2="148.65" stroke-width="1.5" opacity="0" />
  <line id="mol23:Bond:23" class="event" x1="101.85" y1="148.65" x2="101.85" y2="124.65" stroke-width="1.5" opacity="0" />
  <line id="mol23:Bond:24" class="event" x1="101.85" y1="148.65" x2="81.07" y2="160.65" stroke-width="1.5" opacity="0" />
  <circle id="mol23:Atom:0" class="event" cx="206.09" cy="56.99" r="8" opacity="0" />
  <circle id="mol23:Atom:1" class="event" cx="201.1" cy="80.46" r="8" opacity="0" />
  <circle id="mol23:Atom:2" class="event" cx="178.27" cy="87.88" r="8" opacity="0" />
  <circle id="mol23:Atom:3" class="event" cx="173.28" cy="111.35" r="8" opacity="0" />
  <circle id="mol23:Atom:4" class="event" cx="191.12" cy="127.41" r="8" opacity="0" />
  <circle id="mol23:Atom:5" class="event" cx="213.94" cy="120" r="8" opacity="0" />
  <circle id="mol23:Atom:6" class="event" cx="218.93" cy="96.52" r="8" opacity="0" />
  <circle id="mol23:Atom:7" class="event" cx="186.13" cy="150.89" r="8" opacity="0" />
  <circle id="mol23:Atom:8" class="event" cx="164.2" cy="160.65" r="8" opacity="0" />
  <circle id="mol23:Atom:9" class="event" cx="166.71" cy="184.52" r="8" opacity="0" />
  <circle id="mol23:Atom:10" class="event" cx="150.65" cy="202.35" r="8" opacity="0" />
  <circle id="mol23:Atom:11" class="event" cx="158.07" cy="225.18" r="8" opacity="0" />
  <circle id="mol23:Atom:12" class="event" cx="181.55" cy="230.17" r="8" opacity="0" />
  <circle id="mol23:Atom:13" class="event" cx="197.6" cy="212.33" r="8" opacity="0" />
  <circle id="mol23:Atom:14" class="event" cx="190.19" cy="189.51" r="8" opacity="0" />
  <circle id="mol23:Atom:15" class="event" cx="202.19" cy="168.72" r="8" opacity="0" />
  <circle id="mol23:Atom:16" class="event" cx="142.01" cy="243.01" r="8" opacity="0" />
  <circle id="mol23:Atom:17" class="event" cx="143.42" cy="148.65" r="8" opacity="0" />
  <circle id="mol23:Atom:18" class="event" cx="122.63" cy="160.65" r="8" opacity="0" />
  <circle id="mol23:Atom:19" class="event" cx="122.63" cy="184.65" r="8" opacity="0" />
  <circle id="mol23:Atom:20" class="event" cx="101.85" cy="148.65" r="8" opacity="0" />
  <circle id="mol23:Atom:21" class="event" cx="101.85" cy="124.65" r="8" opacity="0" />
  <circle id="mol23:Atom:22" class="event" cx="81.07" cy="160.65" r="8" opacity="0" />
</svg>