<svg id="mol23" xmlns="http://www.w3.org/2000/svg" version="1.1" width="173px" height="146px" viewBox="59 77 173 146">
  <style> #mol23 text {font-family: sans-serif;} #mol23 { pointer-events:none; } #mol23 .event  { pointer-events:all; } #mol23 line { stroke-linecap:round; } #mol23 polygon { stroke-linejoin:round; } </style>
  <text x="99.13" y="236.87" stroke="none" font-size="12" fill="rgb(160,0,0)">unknown chirality</text>
  <text x="178.61" y="113.95" stroke="none" font-size="14" fill="rgb(129,140,248)">N</text>
  <text x="78.27" y="134.02" stroke="none" font-size="14" fill="rgb(129,140,248)">N</text>
  <text x="68.17" y="134.02" stroke="none" font-size="14" fill="rgb(129,140,248)">H</text>
  <text x="161.98" y="206.66" stroke="none" font-size="9" fill="rgb(160,0,0)">?</text>
  <text x="200.16" y="207.38" stroke="none" font-size="14" fill="rgb(248,113,113)">O</text>
  <text x="211.23" y="166.07" stroke="none" font-size="14" fill="rgb(248,113,113)">O</text>
  <text x="171.69" y="181.4" stroke="none" font-size="14" fill="rgb(129,140,248)">N</text>
  <text x="161.58" y="181.4" stroke="none" font-size="14" fill="rgb(129,140,248)">H</text>
  <line x1="121.31" y1="121.28" x2="99.39" y2="111.52" stroke="rgb(228,226,242)" stroke-width="1.5" />
  <line x1="117.09" y1="123.35" x2="100.68" y2="116.04" stroke="rgb(228,226,242)" stroke-width="1.5" />
  <line x1="95.33" y1="150.14" x2="118.8" y2="145.15" stroke="rgb(228,226,242)" stroke-width="1.5" />
  <line x1="98.58" y1="153.13" x2="117.05" y2="149.21" stroke="rgb(228,226,242)" stroke-width="1.5" />
  <line x1="134.86" y1="162.99" x2="127.45" y2="185.81" stroke="rgb(228,226,242)" stroke-width="1.5" />
  <line x1="130.65" y1="164.31" x2="124.81" y2="182.26" stroke="rgb(228,226,242)" stroke-width="1.5" />
  <line x1="103.97" y1="190.8" x2="87.91" y2="172.97" stroke="rgb(228,226,242)" stroke-width="1.5" />
  <line x1="104.93" y1="186.49" x2="92.3" y2="172.46" stroke="rgb(228,226,242)" stroke-width="1.5" />
  <line x1="201.07" y1="181.42" x2="211.71" y2="169.61" stroke="rgb(228,226,242)" stroke-width="1.5" />
  <line x1="198.4" y1="179.01" x2="209.03" y2="167.2" stroke="rgb(228,226,242)" stroke-width="1.5" />
  <line x1="204.45" y1="121.28" x2="189.72" y2="112.78" stroke="rgb(228,226,242)" stroke-width="1.5" />
  <line x1="183.67" y1="102.28" x2="183.67" y2="85.28" stroke="rgb(228,226,242)" stroke-width="1.5" />
  <line x1="177.61" y1="112.78" x2="162.88" y2="121.28" stroke="rgb(228,226,242)" stroke-width="1.5" />
  <line x1="162.88" y1="121.28" x2="142.1" y2="109.28" stroke="rgb(228,226,242)" stroke-width="1.5" />
  <line x1="142.1" y1="109.28" x2="121.31" y2="121.28" stroke="rgb(228,226,242)" stroke-width="1.5" />
  <line x1="99.39" y1="111.52" x2="89.38" y2="122.63" stroke="rgb(228,226,242)" stroke-width="1.5" />
  <line x1="87.37" y1="136.36" x2="95.33" y2="150.14" stroke="rgb(228,226,242)" stroke-width="1.5" />
  <line x1="121.31" y1="121.28" x2="118.8" y2="145.15" stroke="rgb(228,226,242)" stroke-width="1.5" />
  <line x1="118.8" y1="145.15" x2="134.86" y2="162.99" stroke="rgb(228,226,242)" stroke-width="1.5" />
  <line x1="127.45" y1="185.81" x2="103.97" y2="190.8" stroke="rgb(228,226,242)" stroke-width="1.5" />
  <line x1="95.33" y1="150.14" x2="87.91" y2="172.97" stroke="rgb(228,226,242)" stroke-width="1.5" />
  <line x1="127.45" y1="185.81" x2="143.51" y2="203.65" stroke="rgb(228,226,242)" stroke-width="1.5" />
  <line x1="143.51" y1="203.65" x2="166.98" y2="198.66" stroke="rgb(228,226,242)" stroke-width="1.5" />
  <line x1="166.98" y1="198.66" x2="184.82" y2="214.72" stroke="rgb(228,226,242)" stroke-width="1.5" />
  <line x1="184.82" y1="214.72" x2="199.16" y2="206.44" stroke="rgb(228,226,242)" stroke-width="1.5" />
  <line x1="204.11" y1="195.72" x2="200.61" y2="179.24" stroke="rgb(228,226,242)" stroke-width="1.5" />
  <line x1="200.61" y1="179.24" x2="182.8" y2="177.37" stroke="rgb(228,226,242)" stroke-width="1.5" />
  <line x1="166.98" y1="198.66" x2="173.63" y2="183.73" stroke="rgb(228,226,242)" stroke-width="1.5" />
  <line id="mol23:Bond:5" class="event" x1="121.31" y1="121.28" x2="99.39" y2="111.52" stroke-width="1.5" opacity="0" />
  <line id="mol23:Bond:8" class="event" x1="95.33" y1="150.14" x2="118.8" y2="145.15" stroke-width="1.5" opacity="0" />
  <line id="mol23:Bond:11" class="event" x1="134.86" y1="162.99" x2="127.45" y2="185.81" stroke-width="1.5" opacity="0" />
  <line id="mol23:Bond:13" class="event" x1="103.97" y1="190.8" x2="87.91" y2="172.97" stroke-width="1.5" opacity="0" />
  <line id="mol23:Bond:20" class="event" x1="200.61" y1="179.24" x2="216.67" y2="161.41" stroke-width="1.5" opacity="0" />
  <line id="mol23:Bond:0" class="event" x1="204.45" y1="121.28" x2="183.67" y2="109.28" stroke-width="1.5" opacity="0" />
  <line id="mol23:Bond:1" class="event" x1="183.67" y1="109.28" x2="183.67" y2="85.28" stroke-width="1.5" opacity="0" />
  <line id="mol23:Bond:2" class="event" x1="183.67" y1="109.28" x2="162.88" y2="121.28" stroke-width="1.5" opacity="0" />
  <line id="mol23:Bond:3" class="event" x1="162.88" y1="121.28" x2="142.1" y2="109.28" stroke-width="1.5" opacity="0" />
  <line id="mol23:Bond:4" class="event" x1="142.1" y1="109.28" x2="121.31" y2="121.28" stroke-width="1.5" opacity="0" />
  <line id="mol23:Bond:6" class="event" x1="99.39" y1="111.52" x2="83.33" y2="129.36" stroke-width="1.5" opacity="0" />
  <line id="mol23:Bond:7" class="event" x1="83.33" y1="129.36" x2="95.33" y2="150.14" stroke-width="1.5" opacity="0" />
  <line id="mol23:Bond:9" class="event" x1="121.31" y1="121.28" x2="118.8" y2="145.15" stroke-width="1.5" opacity="0" />
  <line id="mol23:Bond:10" class="event" x1="118.8" y1="145.15" x2="134.86" y2="162.99" stroke-width="1.5" opacity="0" />
  <line id="mol23:Bond:12" class="event" x1="127.45" y1="185.81" x2="103.97" y2="190.8" stroke-width="1.5" opacity="0" />
  <line id="mol23:Bond:14" class="event" x1="95.33" y1="150.14" x2="87.91" y2="172.97" stroke-width="1.5" opacity="0" />
  <line id="mol23:Bond:15" class="event" x1="127.45" y1="185.81" x2="143.51" y2="203.65" stroke-width="1.5" opacity="0" />
  <line id="mol23:Bond:16" class="event" x1="143.51" y1="203.65" x2="166.98" y2="198.66" stroke-width="1.5" opacity="0" />
  <line id="mol23:Bond:17" class="event" x1="166.98" y1="198.66" x2="184.82" y2="214.72" stroke-width="1.5" opacity="0" />
  <line id="mol23:Bond:18" class="event" x1="184.82" y1="214.72" x2="205.6" y2="202.72" stroke-width="1.5" opacity="0" />
  <line id="mol23:Bond:19" class="event" x1="205.6" y1="202.72" x2="200.61" y2="179.24" stroke-width="1.5" opacity="0" />
  <line id="mol23:Bond:21" class="event" x1="200.61" y1="179.24" x2="176.74" y2="176.73" stroke-width="1.5" opacity="0" />
  <line id="mol23:Bond:22" class="event" x1="166.98" y1="198.66" x2="176.74" y2="176.73" stroke-width="1.5" opacity="0" />
  <circle id="mol23:Atom:0" class="event" cx="204.45" cy="121.28" r="8" opacity="0" />
  <circle id="mol23:Atom:1" class="event" cx="183.67" cy="109.28" r="8" opacity="0" />
  <circle id="mol23:Atom:2" class="event" cx="183.67" cy="85.28" r="8" opacity="0" />
  <circle id="mol23:Atom:3" class="event" cx="162.88" cy="121.28" r="8" opacity="0" />
  <circle id="mol23:Atom:4" class="event" cx="142.1" cy="109.28" r="8" opacity="0" />
  <circle id="mol23:Atom:5" class="event" cx="121.31" cy="121.28" r="8" opacity="0" />
  <circle id="mol23:Atom:6" class="event" cx="99.39" cy="111.52" r="8" opacity="0" />
  <circle id="mol23:Atom:7" class="event" cx="83.33" cy="129.36" r="8" opacity="0" />
  <circle id="mol23:Atom:8" class="event" cx="95.33" cy="150.14" r="8" opacity="0" />
  <circle id="mol23:Atom:9" class="event" cx="118.8" cy="145.15" r="8" opacity="0" />
  <circle id="mol23:Atom:10" class="event" cx="134.86" cy="162.99" r="8" opacity="0" />
  <circle id="mol23:Atom:11" class="event" cx="127.45" cy="185.81" r="8" opacity="0" />
  <circle id="mol23:Atom:12" class="event" cx="103.97" cy="190.8" r="8" opacity="0" />
  <circle id="mol23:Atom:13" class="event" cx="87.91" cy="172.97" r="8" opacity="0" />
  <circle id="mol23:Atom:14" class="event" cx="143.51" cy="203.65" r="8" opacity="0" />
  <circle id="mol23:Atom:15" class="event" cx="166.98" cy="198.66" r="8" opacity="0" />
  <circle id="mol23:Atom:16" class="event" cx="184.82" cy="214.72" r="8" opacity="0" />
  <circle id="mol23:Atom:17" class="event" cx="205.6" cy="202.72" r="8" opacity="0" />
  <circle id="mol23:Atom:18" class="event" cx="200.61" cy="179.24" r="8" opacity="0" />
  <circle id="mol23:Atom:19" class="event" cx="216.67" cy="161.41" r="8" opacity="0" />
  <circle id="mol23:Atom:20" class="event" cx="176.74" cy="176.73" r="8" opacity="0" />
</svg>