<svg id="mol24" xmlns="http://www.w3.org/2000/svg" version="1.1" width="158px" height="79px" viewBox="63 111 158 79">
  <style> #mol24 text {font-family: sans-serif;} #mol24 { pointer-events:none; } #mol24 .event  { pointer-events:all; } #mol24 line { stroke-linecap:round; } #mol24 polygon { stroke-linejoin:round; } </style>
  <text x="100.71" y="203.15" stroke="none" font-size="12" fill="rgb(160,0,0)">this enantiomer</text>
  <text x="144" y="170" stroke="none" font-size="9" fill="rgb(160,0,0)">S</text>
  <text x="148.2" y="161.85" stroke="none" font-size="9" fill="rgb(160,0,0)">abs</text>
  <text x="102.98" y="142.67" stroke="none" font-size="14" fill="rgb(248,113,113)">O</text>
  <text x="82.2" y="178.67" stroke="none" font-size="14" fill="rgb(248,113,113)">O</text>
  <text x="72.09" y="178.67" stroke="none" font-size="14" fill="rgb(248,113,113)">H</text>
  <text x="124.16" y="130.67" stroke="none" font-size="14" fill="rgb(129,140,248)">N</text>
  <text x="119.16" y="134" stroke="none" font-size="9" fill="rgb(129,140,248)">2</text>
  <text x="109.05" y="130.67" stroke="none" font-size="14" fill="rgb(129,140,248)">H</text>
  <line x1="110.23" y1="163.04" x2="110.23" y2="145" stroke="rgb(228,226,242)" stroke-width="1.5" />
  <line x1="106.63" y1="163.04" x2="106.63" y2="145" stroke="rgb(228,226,242)" stroke-width="1.5" />
  <line x1="212.35" y1="174" x2="191.57" y2="162" stroke="rgb(228,226,242)" stroke-width="1.5" />
  <line x1="191.57" y1="162" x2="191.57" y2="138" stroke="rgb(228,226,242)" stroke-width="1.5" />
  <line x1="191.57" y1="162" x2="170.78" y2="174" stroke="rgb(228,226,242)" stroke-width="1.5" />
  <polygon points="150,162 160,169 161,167 " fill="rgb(160,0,0)" stroke="rgb(160,0,0)" stroke-width="1.5" />
  <polygon points="161,167 160,169 169,176 172,172 " fill="rgb(160,0,0)" stroke="rgb(160,0,0)" stroke-width="1.5" />
  <line x1="150" y1="162" x2="129.22" y2="174" stroke="rgb(228,226,242)" stroke-width="1.5" />
  <line x1="129.22" y1="174" x2="108.43" y2="162" stroke="rgb(228,226,242)" stroke-width="1.5" />
  <line x1="108.43" y1="162" x2="94.09" y2="170.28" stroke="rgb(228,226,242)" stroke-width="1.5" />
  <line x1="150" y1="162" x2="150" y2="138" stroke="rgb(228,226,242)" stroke-width="1.5" />
  <line x1="150" y1="138" x2="135.27" y2="129.5" stroke="rgb(228,226,242)" stroke-width="1.5" />
  <line id="mol24:Bond:6" class="event" x1="108.43" y1="162" x2="108.43" y2="138" stroke-width="1.5" opacity="0" />
  <line id="mol24:Bond:0" class="event" x1="212.35" y1="174" x2="191.57" y2="162" stroke-width="1.5" opacity="0" />
  <line id="mol24:Bond:1" class="event" x1="191.57" y1="162" x2="191.57" y2="138" stroke-width="1.5" opacity="0" />
  <line id="mol24:Bond:2" class="event" x1="191.57" y1="162" x2="170.78" y2="174" stroke-width="1.5" opacity="0" />
  <line id="mol24:Bond:3" class="event" x1="150" y1="162" x2="170.78" y2="174" stroke-width="1.5" opacity="0" />
  <line id="mol24:Bond:4" class="event" x1="150" y1="162" x2="129.22" y2="174" stroke-width="1.5" opacity="0" />
  <line id="mol24:Bond:5" class="event" x1="129.22" y1="174" x2="108.43" y2="162" stroke-width="1.5" opacity="0" />
  <line id="mol24:Bond:7" class="event" x1="108.43" y1="162" x2="87.65" y2="174" stroke-width="1.5" opacity="0" />
  <line id="mol24:Bond:8" class="event" x1="150" y1="162" x2="150" y2="138" stroke-width="1.5" opacity="0" />
  <line id="mol24:Bond:9" class="event" x1="150" y1="138" x2="129.22" y2="126" stroke-width="1.5" opacity="0" />
  <circle id="mol24:Atom:0" class="event" cx="212.35" cy="174" r="8" opacity="0" />
  <circle id="mol24:Atom:1" class="event" cx="191.57" cy="162" r="8" opacity="0" />
  <circle id="mol24:Atom:2" class="event" cx="191.57" cy="138" r="8" opacity="0" />
  <circle id="mol24:Atom:3" class="event" cx="170.78" cy="174" r="8" opacity="0" />
  <circle id="mol24:Atom:4" class="event" cx="150" cy="162" r="8" opacity="0" />
  <circle id="mol24:Atom:5" class="event" cx="129.22" cy="174" r="8" opacity="0" />
  <circle id="mol24:Atom:6" class="event" cx="108.43" cy="162" r="8" opacity="0" />
  <circle id="mol24:Atom:7" class="event" cx="108.43" cy="138" r="8" opacity="0" />
  <circle id="mol24:Atom:8" class="event" cx="87.65" cy="174" r="8" opacity="0" />
  <circle id="mol24:Atom:9" class="event" cx="150" cy="138" r="8" opacity="0" />
  <circle id="mol24:Atom:10" class="event" cx="129.22" cy="126" r="8" opacity="0" />
</svg>