<svg id="mol27" xmlns="http://www.w3.org/2000/svg" version="1.1" width="179px" height="129px" viewBox="52 89 179 129">
  <style> #mol27 text {font-family: sans-serif;} #mol27 { pointer-events:none; } #mol27 .event  { pointer-events:all; } #mol27 line { stroke-linecap:round; } #mol27 polygon { stroke-linejoin:round; } </style>
  <text x="100.71" y="231.99" stroke="none" font-size="12" fill="rgb(160,0,0)">this enantiomer</text>
  <text x="197.4" y="128.97" stroke="none" font-size="14" fill="rgb(129,140,248)">N</text>
  <text x="149.43" y="151.69" stroke="none" font-size="9" fill="rgb(160,0,0)">S</text>
  <text x="148.18" y="140.39" stroke="none" font-size="9" fill="rgb(160,0,0)">abs</text>
  <text x="169.09" y="140.06" stroke="none" font-size="9" fill="rgb(160,0,0)">R</text>
  <text x="174" y="132.31" stroke="none" font-size="9" fill="rgb(160,0,0)">abs</text>
  <text x="169.09" y="116.79" stroke="none" font-size="9" fill="rgb(160,0,0)">R</text>
  <text x="171.48" y="106.33" stroke="none" font-size="9" fill="rgb(160,0,0)">abs</text>
  <text x="71.95" y="154.76" stroke="none" font-size="14" fill="rgb(248,113,113)">O</text>
  <text x="61.85" y="154.76" stroke="none" font-size="14" fill="rgb(248,113,113)">H</text>
  <text x="122.02" y="173.55" stroke="none" font-size="14" fill="rgb(248,113,113)">O</text>
  <text x="144.1" y="174.45" stroke="none" font-size="9" fill="rgb(160,0,0)">R</text>
  <text x="149.17" y="167.06" stroke="none" font-size="9" fill="rgb(160,0,0)">abs</text>
  <text x="164.65" y="187.65" stroke="none" font-size="9" fill="rgb(160,0,0)">S</text>
  <text x="163.92" y="176.37" stroke="none" font-size="9" fill="rgb(160,0,0)">abs</text>
  <text x="163.31" y="207.51" stroke="none" font-size="14" fill="rgb(248,113,113)">O</text>
  <text x="174.2" y="207.51" stroke="none" font-size="14" fill="rgb(248,113,113)">H</text>
  <line x1="135.29" y1="108.79" x2="135.29" y2="132.06" stroke="rgb(228,226,242)" stroke-width="1.5" />
  <line x1="131.69" y1="111.69" x2="131.69" y2="130.08" stroke="rgb(228,226,242)" stroke-width="1.5" />
  <line x1="118" y1="147.62" x2="96.53" y2="136.86" stroke="rgb(228,226,242)" stroke-width="1.5" />
  <line x1="117.02" y1="143.11" x2="100.33" y2="134.74" stroke="rgb(228,226,242)" stroke-width="1.5" />
  <line x1="94.1" y1="113.72" x2="112.92" y2="100.04" stroke="rgb(228,226,242)" stroke-width="1.5" />
  <line x1="98.29" y1="115.13" x2="113.06" y2="104.39" stroke="rgb(228,226,242)" stroke-width="1.5" />
  <line x1="191.91" y1="170.19" x2="192.58" y2="145.45" stroke="rgb(228,226,242)" stroke-width="1.5" />
  <line x1="188.39" y1="167.35" x2="188.92" y2="147.61" stroke="rgb(228,226,242)" stroke-width="1.5" />
  <line x1="222.6" y1="112.67" x2="208.51" y2="120.81" stroke="rgb(228,226,242)" stroke-width="1.5" />
  <line x1="202.68" y1="131.3" x2="203.2" y2="147.73" stroke="rgb(228,226,242)" stroke-width="1.5" />
  <line x1="203.2" y1="147.73" x2="181.44" y2="159.18" stroke="rgb(228,226,242)" stroke-width="1.5" />
  <polygon points="155,144 168,153 169,150 " fill="rgb(160,0,0)" stroke="rgb(160,0,0)" stroke-width="1.5" />
  <polygon points="169,150 168,153 180,162 183,156 " fill="rgb(160,0,0)" stroke="rgb(160,0,0)" stroke-width="1.5" />
  <line x1="155.44" y1="143.69" x2="175.59" y2="132.06" stroke="rgb(228,226,242)" stroke-width="1.5" />
  <line x1="175.59" y1="132.06" x2="175.59" y2="108.79" stroke="rgb(228,226,242)" stroke-width="1.5" />
  <polygon points="176,109 185,116 187,114 " fill="rgb(160,0,0)" stroke="rgb(160,0,0)" stroke-width="1.5" />
  <polygon points="187,114 185,116 195,123 198,118 " fill="rgb(160,0,0)" stroke="rgb(160,0,0)" stroke-width="1.5" />
  <line x1="175.59" y1="108.79" x2="155.44" y2="97.16" stroke="rgb(228,226,242)" stroke-width="1.5" />
  <line x1="155.44" y1="97.16" x2="135.29" y2="108.79" stroke="rgb(228,226,242)" stroke-width="1.5" />
  <line x1="155.44" y1="143.69" x2="135.29" y2="132.06" stroke="rgb(228,226,242)" stroke-width="1.5" />
  <line x1="135.29" y1="132.06" x2="118" y2="147.62" stroke="rgb(228,226,242)" stroke-width="1.5" />
  <line x1="96.53" y1="136.86" x2="94.1" y2="113.72" stroke="rgb(228,226,242)" stroke-width="1.5" />
  <line x1="135.29" y1="108.79" x2="112.92" y2="100.04" stroke="rgb(228,226,242)" stroke-width="1.5" />
  <line x1="96.53" y1="136.86" x2="83.85" y2="145.64" stroke="rgb(228,226,242)" stroke-width="1.5" />
  <line x1="118" y1="147.62" x2="124.34" y2="161.88" stroke="rgb(228,226,242)" stroke-width="1.5" />
  <line x1="147.84" y1="166.37" x2="147.92" y2="167.1" stroke="rgb(160,0,0)" stroke-width="1.5" />
  <line x1="145.08" y1="166.3" x2="145.23" y2="167.74" stroke="rgb(160,0,0)" stroke-width="1.5" />
  <line x1="142.32" y1="166.22" x2="142.55" y2="168.39" stroke="rgb(160,0,0)" stroke-width="1.5" />
  <line x1="139.56" y1="166.15" x2="139.86" y2="169.04" stroke="rgb(160,0,0)" stroke-width="1.5" />
  <line x1="136.8" y1="166.07" x2="137.18" y2="169.69" stroke="rgb(160,0,0)" stroke-width="1.5" />
  <line x1="134.04" y1="166" x2="134.49" y2="170.33" stroke="rgb(160,0,0)" stroke-width="1.5" />
  <line x1="155.44" y1="143.69" x2="150.6" y2="166.45" stroke="rgb(228,226,242)" stroke-width="1.5" />
  <line x1="150.6" y1="166.45" x2="170.66" y2="179.65" stroke="rgb(228,226,242)" stroke-width="1.5" />
  <line x1="170.66" y1="179.65" x2="191.91" y2="170.19" stroke="rgb(228,226,242)" stroke-width="1.5" />
  <line x1="177.38" y1="133.9" x2="177.79" y2="133.37" stroke="rgb(160,0,0)" stroke-width="1.5" />
  <line x1="179.17" y1="135.74" x2="180" y2="134.68" stroke="rgb(160,0,0)" stroke-width="1.5" />
  <line x1="180.95" y1="137.58" x2="182.21" y2="135.99" stroke="rgb(160,0,0)" stroke-width="1.5" />
  <line x1="182.74" y1="139.42" x2="184.42" y2="137.3" stroke="rgb(160,0,0)" stroke-width="1.5" />
  <line x1="184.53" y1="141.26" x2="186.63" y2="138.61" stroke="rgb(160,0,0)" stroke-width="1.5" />
  <line x1="186.32" y1="143.11" x2="188.84" y2="139.92" stroke="rgb(160,0,0)" stroke-width="1.5" />
  <line x1="188.11" y1="144.95" x2="191.04" y2="141.23" stroke="rgb(160,0,0)" stroke-width="1.5" />
  <line x1="189.9" y1="146.79" x2="193.25" y2="142.54" stroke="rgb(160,0,0)" stroke-width="1.5" />
  <line x1="170.07" y1="182.35" x2="170.8" y2="182.41" stroke="rgb(160,0,0)" stroke-width="1.5" />
  <line x1="169.49" y1="185.05" x2="170.94" y2="185.17" stroke="rgb(160,0,0)" stroke-width="1.5" />
  <line x1="168.9" y1="187.75" x2="171.07" y2="187.93" stroke="rgb(160,0,0)" stroke-width="1.5" />
  <line x1="168.31" y1="190.45" x2="171.21" y2="190.68" stroke="rgb(160,0,0)" stroke-width="1.5" />
  <line x1="167.73" y1="193.15" x2="171.35" y2="193.44" stroke="rgb(160,0,0)" stroke-width="1.5" />
  <line id="mol27:Bond:9" class="event" x1="135.29" y1="108.79" x2="135.29" y2="132.06" stroke-width="1.5" opacity="0" />
  <line id="mol27:Bond:12" class="event" x1="118" y1="147.62" x2="96.53" y2="136.86" stroke-width="1.5" opacity="0" />
  <line id="mol27:Bond:14" class="event" x1="94.1" y1="113.72" x2="112.92" y2="100.04" stroke-width="1.5" opacity="0" />
  <line id="mol27:Bond:22" class="event" x1="191.91" y1="170.19" x2="192.58" y2="145.45" stroke-width="1.5" opacity="0" />
  <line id="mol27:Bond:0" class="event" x1="222.6" y1="112.67" x2="202.45" y2="124.3" stroke-width="1.5" opacity="0" />
  <line id="mol27:Bond:1" class="event" x1="202.45" y1="124.3" x2="203.2" y2="147.73" stroke-width="1.5" opacity="0" />
  <line id="mol27:Bond:2" class="event" x1="203.2" y1="147.73" x2="181.44" y2="159.18" stroke-width="1.5" opacity="0" />
  <line id="mol27:Bond:3" class="event" x1="155.44" y1="143.69" x2="181.44" y2="159.18" stroke-width="1.5" opacity="0" />
  <line id="mol27:Bond:4" class="event" x1="155.44" y1="143.69" x2="175.59" y2="132.06" stroke-width="1.5" opacity="0" />
  <line id="mol27:Bond:5" class="event" x1="175.59" y1="132.06" x2="175.59" y2="108.79" stroke-width="1.5" opacity="0" />
  <line id="mol27:Bond:6" class="event" x1="175.59" y1="108.79" x2="202.45" y2="124.3" stroke-width="1.5" opacity="0" />
  <line id="mol27:Bond:7" class="event" x1="175.59" y1="108.79" x2="155.44" y2="97.16" stroke-width="1.5" opacity="0" />
  <line id="mol27:Bond:8" class="event" x1="155.44" y1="97.16" x2="135.29" y2="108.79" stroke-width="1.5" opacity="0" />
  <line id="mol27:Bond:10" class="event" x1="155.44" y1="143.69" x2="135.29" y2="132.06" stroke-width="1.5" opacity="0" />
  <line id="mol27:Bond:11" class="event" x1="135.29" y1="132.06" x2="118" y2="147.62" stroke-width="1.5" opacity="0" />
  <line id="mol27:Bond:13" class="event" x1="96.53" y1="136.86" x2="94.1" y2="113.72" stroke-width="1.5" opacity="0" />
  <line id="mol27:Bond:15" class="event" x1="135.29" y1="108.79" x2="112.92" y2="100.04" stroke-width="1.5" opacity="0" />
  <line id="mol27:Bond:16" class="event" x1="96.53" y1="136.86" x2="77.4" y2="150.1" stroke-width="1.5" opacity="0" />
  <line id="mol27:Bond:17" class="event" x1="118" y1="147.62" x2="127.46" y2="168.88" stroke-width="1.5" opacity="0" />
  <line id="mol27:Bond:18" class="event" x1="150.6" y1="166.45" x2="127.46" y2="168.88" stroke-width="1.5" opacity="0" />
  <line id="mol27:Bond:19" class="event" x1="155.44" y1="143.69" x2="150.6" y2="166.45" stroke-width="1.5" opacity="0" />
  <line id="mol27:Bond:20" class="event" x1="150.6" y1="166.45" x2="170.66" y2="179.65" stroke-width="1.5" opacity="0" />
  <line id="mol27:Bond:21" class="event" x1="170.66" y1="179.65" x2="191.91" y2="170.19" stroke-width="1.5" opacity="0" />
  <line id="mol27:Bond:23" class="event" x1="175.59" y1="132.06" x2="192.58" y2="145.45" stroke-width="1.5" opacity="0" />
  <line id="mol27:Bond:24" class="event" x1="170.66" y1="179.65" x2="168.76" y2="202.84" stroke-width="1.5" opacity="0" />
  <circle id="mol27:Atom:0" class="event" cx="222.6" cy="112.67" r="8" opacity="0" />
  <circle id="mol27:Atom:1" class="event" cx="202.45" cy="124.3" r="8" opacity="0" />
  <circle id="mol27:Atom:2" class="event" cx="203.2" cy="147.73" r="8" opacity="0" />
  <circle id="mol27:Atom:3" class="event" cx="181.44" cy="159.18" r="8" opacity="0" />
  <circle id="mol27:Atom:4" class="event" cx="155.44" cy="143.69" r="8" opacity="0" />
  <circle id="mol27:Atom:5" class="event" cx="175.59" cy="132.06" r="8" opacity="0" />
  <circle id="mol27:Atom:6" class="event" cx="175.59" cy="108.79" r="8" opacity="0" />
  <circle id="mol27:Atom:7" class="event" cx="155.44" cy="97.16" r="8" opacity="0" />
  <circle id="mol27:Atom:8" class="event" cx="135.29" cy="108.79" r="8" opacity="0" />
  <circle id="mol27:Atom:9" class="event" cx="135.29" cy="132.06" r="8" opacity="0" />
  <circle id="mol27:Atom:10" class="event" cx="118" cy="147.62" r="8" opacity="0" />
  <circle id="mol27:Atom:11" class="event" cx="96.53" cy="136.86" r="8" opacity="0" />
  <circle id="mol27:Atom:12" class="event" cx="94.1" cy="113.72" r="8" opacity="0" />
  <circle id="mol27:Atom:13" class="event" cx="112.92" cy="100.04" r="8" opacity="0" />
  <circle id="mol27:Atom:14" class="event" cx="77.4" cy="150.1" r="8" opacity="0" />
  <circle id="mol27:Atom:15" class="event" cx="127.46" cy="168.88" r="8" opacity="0" />
  <circle id="mol27:Atom:16" class="event" cx="150.6" cy="166.45" r="8" opacity="0" />
  <circle id="mol27:Atom:17" class="event" cx="170.66" cy="179.65" r="8" opacity="0" />
  <circle id="mol27:Atom:18" class="event" cx="191.91" cy="170.19" r="8" opacity="0" />
  <circle id="mol27:Atom:19" class="event" cx="192.58" cy="145.45" r="8" opacity="0" />
  <circle id="mol27:Atom:20" class="event" cx="168.76" cy="202.84" r="8" opacity="0" />
</svg>