<svg id="mol28" xmlns="http://www.w3.org/2000/svg" version="1.1" width="149px" height="72px" viewBox="72 118 149 72">
  <style> #mol28 text {font-family: sans-serif;} #mol28 { pointer-events:none; } #mol28 .event  { pointer-events:all; } #mol28 line { stroke-linecap:round; } #mol28 polygon { stroke-linejoin:round; } </style>
  <text x="100.37" y="203.15" stroke="none" font-size="12" fill="rgb(160,0,0)">unknown chirality</text>
  <text x="186.57" y="146" stroke="none" font-size="9" fill="rgb(160,0,0)">?</text>
  <text x="81.04" y="178.67" stroke="none" font-size="14" fill="rgb(31,240,31)">Cl</text>
  <text x="186.52" y="166.67" stroke="none" font-size="14" fill="rgb(129,140,248)">N</text>
  <text x="206.73" y="170" stroke="none" font-size="9" fill="rgb(129,140,248)">2</text>
  <text x="196.62" y="166.67" stroke="none" font-size="14" fill="rgb(129,140,248)">H</text>
  <line x1="150" y1="138" x2="129.22" y2="126" stroke="rgb(228,226,242)" stroke-width="1.5" />
  <line x1="145.98" y1="139.84" x2="129.63" y2="130.4" stroke="rgb(228,226,242)" stroke-width="1.5" />
  <line x1="108.43" y1="138" x2="108.43" y2="162" stroke="rgb(228,226,242)" stroke-width="1.5" />
  <line x1="112.03" y1="140.56" x2="112.03" y2="159.44" stroke="rgb(228,226,242)" stroke-width="1.5" />
  <line x1="129.22" y1="174" x2="150" y2="162" stroke="rgb(228,226,242)" stroke-width="1.5" />
  <line x1="129.63" y1="169.6" x2="145.98" y2="160.16" stroke="rgb(228,226,242)" stroke-width="1.5" />
  <line x1="212.35" y1="126" x2="191.57" y2="138" stroke="rgb(228,226,242)" stroke-width="1.5" />
  <line x1="191.57" y1="138" x2="170.78" y2="126" stroke="rgb(228,226,242)" stroke-width="1.5" />
  <line x1="170.78" y1="126" x2="150" y2="138" stroke="rgb(228,226,242)" stroke-width="1.5" />
  <line x1="129.22" y1="126" x2="108.43" y2="138" stroke="rgb(228,226,242)" stroke-width="1.5" />
  <line x1="108.43" y1="162" x2="129.22" y2="174" stroke="rgb(228,226,242)" stroke-width="1.5" />
  <line x1="150" y1="138" x2="150" y2="162" stroke="rgb(228,226,242)" stroke-width="1.5" />
  <line x1="108.43" y1="162" x2="95.25" y2="169.61" stroke="rgb(228,226,242)" stroke-width="1.5" />
  <line x1="191.57" y1="138" x2="191.57" y2="155" stroke="rgb(228,226,242)" stroke-width="1.5" />
  <line id="mol28:Bond:3" class="event" x1="150" y1="138" x2="129.22" y2="126" stroke-width="1.5" opacity="0" />
  <line id="mol28:Bond:5" class="event" x1="108.43" y1="138" x2="108.43" y2="162" stroke-width="1.5" opacity="0" />
  <line id="mol28:Bond:7" class="event" x1="129.22" y1="174" x2="150" y2="162" stroke-width="1.5" opacity="0" />
  <line id="mol28:Bond:0" class="event" x1="212.35" y1="126" x2="191.57" y2="138" stroke-width="1.5" opacity="0" />
  <line id="mol28:Bond:1" class="event" x1="191.57" y1="138" x2="170.78" y2="126" stroke-width="1.5" opacity="0" />
  <line id="mol28:Bond:2" class="event" x1="170.78" y1="126" x2="150" y2="138" stroke-width="1.5" opacity="0" />
  <line id="mol28:Bond:4" class="event" x1="129.22" y1="126" x2="108.43" y2="138" stroke-width="1.5" opacity="0" />
  <line id="mol28:Bond:6" class="event" x1="108.43" y1="162" x2="129.22" y2="174" stroke-width="1.5" opacity="0" />
  <line id="mol28:Bond:8" class="event" x1="150" y1="138" x2="150" y2="162" stroke-width="1.5" opacity="0" />
  <line id="mol28:Bond:9" class="event" x1="108.43" y1="162" x2="87.65" y2="174" stroke-width="1.5" opacity="0" />
  <line id="mol28:Bond:10" class="event" x1="191.57" y1="138" x2="191.57" y2="162" stroke-width="1.5" opacity="0" />
  <circle id="mol28:Atom:0" class="event" cx="212.35" cy="126" r="8" opacity="0" />
  <circle id="mol28:Atom:1" class="event" cx="191.57" cy="138" r="8" opacity="0" />
  <circle id="mol28:Atom:2" class="event" cx="170.78" cy="126" r="8" opacity="0" />
  <circle id="mol28:Atom:3" class="event" cx="150" cy="138" r="8" opacity="0" />
  <circle id="mol28:Atom:4" class="event" cx="129.22" cy="126" r="8" opacity="0" />
  <circle id="mol28:Atom:5" class="event" cx="108.43" cy="138" r="8" opacity="0" />
  <circle id="mol28:Atom:6" class="event" cx="108.43" cy="162" r="8" opacity="0" />
  <circle id="mol28:Atom:7" class="event" cx="129.22" cy="174" r="8" opacity="0" />
  <circle id="mol28:Atom:8" class="event" cx="150" cy="162" r="8" opacity="0" />
  <circle id="mol28:Atom:9" class="event" cx="87.65" cy="174" r="8" opacity="0" />
  <circle id="mol28:Atom:10" class="event" cx="191.57" cy="162" r="8" opacity="0" />
</svg>