<svg id="mol28" xmlns="http://www.w3.org/2000/svg" version="1.1" width="121px" height="173px" viewBox="90 64 121 173">
  <style> #mol28 text {font-family: sans-serif;} #mol28 { pointer-events:none; } #mol28 .event  { pointer-events:all; } #mol28 line { stroke-linecap:round; } #mol28 polygon { stroke-linejoin:round; } </style>
  <text x="108.98" y="250.15" stroke="none" font-size="12" fill="rgb(160,0,0)">this enantiomer</text>
  <text x="155.34" y="88.67" stroke="none" font-size="14" fill="rgb(129,140,248)">N</text>
  <text x="133.11" y="128" stroke="none" font-size="9" fill="rgb(160,0,0)">R</text>
  <text x="132.35" y="116.7" stroke="none" font-size="9" fill="rgb(160,0,0)">abs</text>
  <text x="133.11" y="152" stroke="none" font-size="9" fill="rgb(160,0,0)">R</text>
  <text x="137.81" y="143.85" stroke="none" font-size="9" fill="rgb(160,0,0)">abs</text>
  <text x="175.73" y="220.67" stroke="none" font-size="14" fill="rgb(248,113,113)">O</text>
  <text x="134.16" y="172.67" stroke="none" font-size="14" fill="rgb(248,113,113)">O</text>
  <text x="145.05" y="172.67" stroke="none" font-size="14" fill="rgb(248,113,113)">H</text>
  <line x1="160.39" y1="156" x2="160.39" y2="180" stroke="rgb(228,226,242)" stroke-width="1.5" />
  <line x1="163.99" y1="158.56" x2="163.99" y2="177.44" stroke="rgb(228,226,242)" stroke-width="1.5" />
  <line x1="181.18" y1="192" x2="201.96" y2="180" stroke="rgb(228,226,242)" stroke-width="1.5" />
  <line x1="181.59" y1="187.6" x2="197.94" y2="178.16" stroke="rgb(228,226,242)" stroke-width="1.5" />
  <line x1="201.96" y1="156" x2="181.18" y2="144" stroke="rgb(228,226,242)" stroke-width="1.5" />
  <line x1="197.94" y1="157.84" x2="181.59" y2="148.4" stroke="rgb(228,226,242)" stroke-width="1.5" />
  <line x1="181.18" y1="72" x2="166.45" y2="80.5" stroke="rgb(228,226,242)" stroke-width="1.5" />
  <line x1="154.34" y1="80.5" x2="139.61" y2="72" stroke="rgb(228,226,242)" stroke-width="1.5" />
  <line x1="160.39" y1="91" x2="160.39" y2="108" stroke="rgb(228,226,242)" stroke-width="1.5" />
  <line x1="142.24" y1="118.91" x2="141.87" y2="118.26" stroke="rgb(160,0,0)" stroke-width="1.5" />
  <line x1="144.87" y1="117.83" x2="144.12" y2="116.53" stroke="rgb(160,0,0)" stroke-width="1.5" />
  <line x1="147.51" y1="116.74" x2="146.38" y2="114.79" stroke="rgb(160,0,0)" stroke-width="1.5" />
  <line x1="150.14" y1="115.65" x2="148.64" y2="113.05" stroke="rgb(160,0,0)" stroke-width="1.5" />
  <line x1="152.77" y1="114.56" x2="150.9" y2="111.32" stroke="rgb(160,0,0)" stroke-width="1.5" />
  <line x1="155.4" y1="113.48" x2="153.15" y2="109.58" stroke="rgb(160,0,0)" stroke-width="1.5" />
  <line x1="158.04" y1="112.39" x2="155.41" y2="107.84" stroke="rgb(160,0,0)" stroke-width="1.5" />
  <line x1="160.67" y1="111.3" x2="157.67" y2="106.11" stroke="rgb(160,0,0)" stroke-width="1.5" />
  <line x1="139.61" y1="120" x2="118.82" y2="108" stroke="rgb(228,226,242)" stroke-width="1.5" />
  <line x1="118.82" y1="108" x2="98.04" y2="120" stroke="rgb(228,226,242)" stroke-width="1.5" />
  <line x1="98.04" y1="120" x2="98.04" y2="144" stroke="rgb(228,226,242)" stroke-width="1.5" />
  <line x1="98.04" y1="144" x2="118.82" y2="156" stroke="rgb(228,226,242)" stroke-width="1.5" />
  <line x1="118.82" y1="156" x2="139.61" y2="144" stroke="rgb(228,226,242)" stroke-width="1.5" />
  <line x1="139.61" y1="120" x2="139.61" y2="144" stroke="rgb(228,226,242)" stroke-width="1.5" />
  <line x1="139.61" y1="144" x2="160.39" y2="156" stroke="rgb(228,226,242)" stroke-width="1.5" />
  <line x1="160.39" y1="180" x2="181.18" y2="192" stroke="rgb(228,226,242)" stroke-width="1.5" />
  <line x1="201.96" y1="180" x2="201.96" y2="156" stroke="rgb(228,226,242)" stroke-width="1.5" />
  <line x1="160.39" y1="156" x2="181.18" y2="144" stroke="rgb(228,226,242)" stroke-width="1.5" />
  <line x1="181.18" y1="192" x2="181.18" y2="209" stroke="rgb(228,226,242)" stroke-width="1.5" />
  <line x1="187.62" y1="219.72" x2="201.96" y2="228" stroke="rgb(228,226,242)" stroke-width="1.5" />
  <line x1="139.23" y1="146.82" x2="139.98" y2="146.82" stroke="rgb(160,0,0)" stroke-width="1.5" />
  <line x1="138.86" y1="149.65" x2="140.36" y2="149.65" stroke="rgb(160,0,0)" stroke-width="1.5" />
  <line x1="138.48" y1="152.47" x2="140.73" y2="152.47" stroke="rgb(160,0,0)" stroke-width="1.5" />
  <line x1="138.11" y1="155.29" x2="141.11" y2="155.29" stroke="rgb(160,0,0)" stroke-width="1.5" />
  <line x1="137.73" y1="158.12" x2="141.48" y2="158.12" stroke="rgb(160,0,0)" stroke-width="1.5" />
  <line x1="137.36" y1="160.94" x2="141.86" y2="160.94" stroke="rgb(160,0,0)" stroke-width="1.5" />
  <line id="mol28:Bond:11" class="event" x1="160.39" y1="156" x2="160.39" y2="180" stroke-width="1.5" opacity="0" />
  <line id="mol28:Bond:13" class="event" x1="181.18" y1="192" x2="201.96" y2="180" stroke-width="1.5" opacity="0" />
  <line id="mol28:Bond:15" class="event" x1="201.96" y1="156" x2="181.18" y2="144" stroke-width="1.5" opacity="0" />
  <line id="mol28:Bond:0" class="event" x1="181.18" y1="72" x2="160.39" y2="84" stroke-width="1.5" opacity="0" />
  <line id="mol28:Bond:1" class="event" x1="160.39" y1="84" x2="139.61" y2="72" stroke-width="1.5" opacity="0" />
  <line id="mol28:Bond:2" class="event" x1="160.39" y1="84" x2="160.39" y2="108" stroke-width="1.5" opacity="0" />
  <line id="mol28:Bond:3" class="event" x1="139.61" y1="120" x2="160.39" y2="108" stroke-width="1.5" opacity="0" />
  <line id="mol28:Bond:4" class="event" x1="139.61" y1="120" x2="118.82" y2="108" stroke-width="1.5" opacity="0" />
  <line id="mol28:Bond:5" class="event" x1="118.82" y1="108" x2="98.04" y2="120" stroke-width="1.5" opacity="0" />
  <line id="mol28:Bond:6" class="event" x1="98.04" y1="120" x2="98.04" y2="144" stroke-width="1.5" opacity="0" />
  <line id="mol28:Bond:7" class="event" x1="98.04" y1="144" x2="118.82" y2="156" stroke-width="1.5" opacity="0" />
  <line id="mol28:Bond:8" class="event" x1="118.82" y1="156" x2="139.61" y2="144" stroke-width="1.5" opacity="0" />
  <line id="mol28:Bond:9" class="event" x1="139.61" y1="120" x2="139.61" y2="144" stroke-width="1.5" opacity="0" />
  <line id="mol28:Bond:10" class="event" x1="139.61" y1="144" x2="160.39" y2="156" stroke-width="1.5" opacity="0" />
  <line id="mol28:Bond:12" class="event" x1="160.39" y1="180" x2="181.18" y2="192" stroke-width="1.5" opacity="0" />
  <line id="mol28:Bond:14" class="event" x1="201.96" y1="180" x2="201.96" y2="156" stroke-width="1.5" opacity="0" />
  <line id="mol28:Bond:16" class="event" x1="160.39" y1="156" x2="181.18" y2="144" stroke-width="1.5" opacity="0" />
  <line id="mol28:Bond:17" class="event" x1="181.18" y1="192" x2="181.18" y2="216" stroke-width="1.5" opacity="0" />
  <line id="mol28:Bond:18" class="event" x1="181.18" y1="216" x2="201.96" y2="228" stroke-width="1.5" opacity="0" />
  <line id="mol28:Bond:19" class="event" x1="139.61" y1="144" x2="139.61" y2="168" stroke-width="1.5" opacity="0" />
  <circle id="mol28:Atom:0" class="event" cx="181.18" cy="72" r="8" opacity="0" />
  <circle id="mol28:Atom:1" class="event" cx="160.39" cy="84" r="8" opacity="0" />
  <circle id="mol28:Atom:2" class="event" cx="139.61" cy="72" r="8" opacity="0" />
  <circle id="mol28:Atom:3" class="event" cx="160.39" cy="108" r="8" opacity="0" />
  <circle id="mol28:Atom:4" class="event" cx="139.61" cy="120" r="8" opacity="0" />
  <circle id="mol28:Atom:5" class="event" cx="118.82" cy="108" r="8" opacity="0" />
  <circle id="mol28:Atom:6" class="event" cx="98.04" cy="120" r="8" opacity="0" />
  <circle id="mol28:Atom:7" class="event" cx="98.04" cy="144" r="8" opacity="0" />
  <circle id="mol28:Atom:8" class="event" cx="118.82" cy="156" r="8" opacity="0" />
  <circle id="mol28:Atom:9" class="event" cx="139.61" cy="144" r="8" opacity="0" />
  <circle id="mol28:Atom:10" class="event" cx="160.39" cy="156" r="8" opacity="0" />
  <circle id="mol28:Atom:11" class="event" cx="160.39" cy="180" r="8" opacity="0" />
  <circle id="mol28:Atom:12" class="event" cx="181.18" cy="192" r="8" opacity="0" />
  <circle id="mol28:Atom:13" class="event" cx="201.96" cy="180" r="8" opacity="0" />
  <circle id="mol28:Atom:14" class="event" cx="201.96" cy="156" r="8" opacity="0" />
  <circle id="mol28:Atom:15" class="event" cx="181.18" cy="144" r="8" opacity="0" />
  <circle id="mol28:Atom:16" class="event" cx="181.18" cy="216" r="8" opacity="0" />
  <circle id="mol28:Atom:17" class="event" cx="201.96" cy="228" r="8" opacity="0" />
  <circle id="mol28:Atom:18" class="event" cx="139.61" cy="168" r="8" opacity="0" />
</svg>