<svg id="mol29" xmlns="http://www.w3.org/2000/svg" version="1.1" width="185px" height="130px" viewBox="57 82 185 130">
  <style> #mol29 text {font-family: sans-serif;} #mol29 { pointer-events:none; } #mol29 .event  { pointer-events:all; } #mol29 line { stroke-linecap:round; } #mol29 polygon { stroke-linejoin:round; } </style>
  <text x="108.98" y="225.1" stroke="none" font-size="12" fill="rgb(160,0,0)">this enantiomer</text>
  <text x="209.57" y="175.32" stroke="none" font-size="14" fill="rgb(129,140,248)">N</text>
  <text x="158.19" y="166.07" stroke="none" font-size="9" fill="rgb(160,0,0)">S</text>
  <text x="151.2" y="158.46" stroke="none" font-size="9" fill="rgb(160,0,0)">abs</text>
  <text x="153.05" y="143.27" stroke="none" font-size="9" fill="rgb(160,0,0)">R</text>
  <text x="150.4" y="132.26" stroke="none" font-size="9" fill="rgb(160,0,0)">abs</text>
  <text x="166.89" y="101.71" stroke="none" font-size="14" fill="rgb(248,113,113)">O</text>
  <text x="180.26" y="173.45" stroke="none" font-size="9" fill="rgb(160,0,0)">S</text>
  <text x="177.79" y="162.27" stroke="none" font-size="9" fill="rgb(160,0,0)">abs</text>
  <text x="180.96" y="197.44" stroke="none" font-size="9" fill="rgb(160,0,0)">R</text>
  <text x="183.83" y="197.59" stroke="none" font-size="9" fill="rgb(160,0,0)">abs</text>
  <text x="80.36" y="160.02" stroke="none" font-size="14" fill="rgb(248,113,113)">O</text>
  <text x="130.98" y="137.31" stroke="none" font-size="14" fill="rgb(248,113,113)">O</text>
  <text x="199.67" y="178.54" stroke="none" font-size="14" fill="rgb(248,113,113)">O</text>
  <text x="210.56" y="178.54" stroke="none" font-size="14" fill="rgb(248,113,113)">H</text>
  <line x1="178.95" y1="120.51" x2="175.52" y2="103.69" stroke="rgb(228,226,242)" stroke-width="1.5" />
  <line x1="175.42" y1="121.23" x2="171.99" y2="104.41" stroke="rgb(228,226,242)" stroke-width="1.5" />
  <line x1="147.35" y1="193.31" x2="143.94" y2="169.53" stroke="rgb(228,226,242)" stroke-width="1.5" />
  <line x1="143.34" y1="190.71" x2="140.58" y2="171.43" stroke="rgb(228,226,242)" stroke-width="1.5" />
  <line x1="126.78" y1="153.81" x2="105.96" y2="166.99" stroke="rgb(228,226,242)" stroke-width="1.5" />
  <line x1="126.08" y1="158.52" x2="109.87" y2="168.77" stroke="rgb(228,226,242)" stroke-width="1.5" />
  <line x1="105.02" y1="190.24" x2="124.68" y2="202.67" stroke="rgb(228,226,242)" stroke-width="1.5" />
  <line x1="109.11" y1="188.56" x2="124.64" y2="198.39" stroke="rgb(228,226,242)" stroke-width="1.5" />
  <line x1="234.35" y1="180.68" x2="221.67" y2="174.24" stroke="rgb(228,226,242)" stroke-width="1.5" />
  <line x1="214.05" y1="163.66" x2="212.72" y2="147.42" stroke="rgb(228,226,242)" stroke-width="1.5" />
  <line x1="212.72" y1="147.42" x2="189.1" y2="138.7" stroke="rgb(228,226,242)" stroke-width="1.5" />
  <line x1="167.43" y1="156.18" x2="166.82" y2="155.4" stroke="rgb(160,0,0)" stroke-width="1.5" />
  <line x1="170.66" y1="154.29" x2="169.45" y2="152.73" stroke="rgb(160,0,0)" stroke-width="1.5" />
  <line x1="173.89" y1="152.4" x2="172.08" y2="150.07" stroke="rgb(160,0,0)" stroke-width="1.5" />
  <line x1="177.12" y1="150.51" x2="174.7" y2="147.4" stroke="rgb(160,0,0)" stroke-width="1.5" />
  <line x1="180.36" y1="148.62" x2="177.33" y2="144.73" stroke="rgb(160,0,0)" stroke-width="1.5" />
  <line x1="183.59" y1="146.73" x2="179.96" y2="142.06" stroke="rgb(160,0,0)" stroke-width="1.5" />
  <line x1="186.82" y1="144.84" x2="182.59" y2="139.4" stroke="rgb(160,0,0)" stroke-width="1.5" />
  <line x1="190.06" y1="142.96" x2="185.22" y2="136.73" stroke="rgb(160,0,0)" stroke-width="1.5" />
  <line x1="164.19" y1="158.07" x2="159.55" y2="135.27" stroke="rgb(228,226,242)" stroke-width="1.5" />
  <line x1="159.55" y1="135.27" x2="176.97" y2="119.85" stroke="rgb(228,226,242)" stroke-width="1.5" />
  <line x1="176.97" y1="119.85" x2="199.04" y2="127.23" stroke="rgb(228,226,242)" stroke-width="1.5" />
  <line x1="199.04" y1="127.23" x2="202.52" y2="151.45" stroke="rgb(228,226,242)" stroke-width="1.5" />
  <line x1="202.52" y1="151.45" x2="186.26" y2="165.45" stroke="rgb(228,226,242)" stroke-width="1.5" />
  <line x1="164.19" y1="158.07" x2="186.26" y2="165.45" stroke="rgb(228,226,242)" stroke-width="1.5" />
  <line x1="186.26" y1="165.45" x2="187.46" y2="189.44" stroke="rgb(228,226,242)" stroke-width="1.5" />
  <line x1="190.95" y1="187.65" x2="190.36" y2="186.8" stroke="rgb(160,0,0)" stroke-width="1.5" />
  <line x1="194.44" y1="185.87" x2="193.27" y2="184.17" stroke="rgb(160,0,0)" stroke-width="1.5" />
  <line x1="197.93" y1="184.08" x2="196.17" y2="181.54" stroke="rgb(160,0,0)" stroke-width="1.5" />
  <line x1="201.42" y1="182.3" x2="200.43" y2="180.87" stroke="rgb(160,0,0)" stroke-width="1.5" />
  <line x1="187.46" y1="189.44" x2="168.52" y2="202.95" stroke="rgb(228,226,242)" stroke-width="1.5" />
  <line x1="168.52" y1="202.95" x2="147.35" y2="193.31" stroke="rgb(228,226,242)" stroke-width="1.5" />
  <line x1="164.19" y1="158.07" x2="143.94" y2="169.53" stroke="rgb(228,226,242)" stroke-width="1.5" />
  <line x1="143.94" y1="169.53" x2="126.78" y2="153.81" stroke="rgb(228,226,242)" stroke-width="1.5" />
  <line x1="105.96" y1="166.99" x2="105.02" y2="190.24" stroke="rgb(228,226,242)" stroke-width="1.5" />
  <line x1="147.35" y1="193.31" x2="124.68" y2="202.67" stroke="rgb(228,226,242)" stroke-width="1.5" />
  <line x1="105.96" y1="166.99" x2="92.25" y2="159.07" stroke="rgb(228,226,242)" stroke-width="1.5" />
  <line x1="79.36" y1="159.07" x2="65.65" y2="166.99" stroke="rgb(228,226,242)" stroke-width="1.5" />
  <line x1="126.78" y1="153.81" x2="133.24" y2="139.64" stroke="rgb(228,226,242)" stroke-width="1.5" />
  <polygon points="160,135 151,133 151,135 " fill="rgb(160,0,0)" stroke="rgb(160,0,0)" stroke-width="1.5" />
  <polygon points="151,135 151,133 143,132 143,135 " fill="rgb(160,0,0)" stroke="rgb(160,0,0)" stroke-width="1.5" />
  <line x1="188.35" y1="166.74" x2="188.61" y2="166.15" stroke="rgb(160,0,0)" stroke-width="1.5" />
  <line x1="190.43" y1="168.02" x2="190.96" y2="166.84" stroke="rgb(160,0,0)" stroke-width="1.5" />
  <line x1="192.52" y1="169.31" x2="193.31" y2="167.54" stroke="rgb(160,0,0)" stroke-width="1.5" />
  <line x1="194.61" y1="170.59" x2="195.66" y2="168.24" stroke="rgb(160,0,0)" stroke-width="1.5" />
  <line x1="196.69" y1="171.88" x2="198.01" y2="168.93" stroke="rgb(160,0,0)" stroke-width="1.5" />
  <line id="mol29:Bond:6" class="event" x1="176.97" y1="119.85" x2="172.33" y2="97.05" stroke-width="1.5" opacity="0" />
  <line id="mol29:Bond:15" class="event" x1="147.35" y1="193.31" x2="143.94" y2="169.53" stroke-width="1.5" opacity="0" />
  <line id="mol29:Bond:18" class="event" x1="126.78" y1="153.81" x2="105.96" y2="166.99" stroke-width="1.5" opacity="0" />
  <line id="mol29:Bond:20" class="event" x1="105.02" y1="190.24" x2="124.68" y2="202.67" stroke-width="1.5" opacity="0" />
  <line id="mol29:Bond:0" class="event" x1="234.35" y1="180.68" x2="214.63" y2="170.66" stroke-width="1.5" opacity="0" />
  <line id="mol29:Bond:1" class="event" x1="214.63" y1="170.66" x2="212.72" y2="147.42" stroke-width="1.5" opacity="0" />
  <line id="mol29:Bond:2" class="event" x1="212.72" y1="147.42" x2="189.1" y2="138.7" stroke-width="1.5" opacity="0" />
  <line id="mol29:Bond:3" class="event" x1="164.19" y1="158.07" x2="189.1" y2="138.7" stroke-width="1.5" opacity="0" />
  <line id="mol29:Bond:4" class="event" x1="164.19" y1="158.07" x2="159.55" y2="135.27" stroke-width="1.5" opacity="0" />
  <line id="mol29:Bond:5" class="event" x1="159.55" y1="135.27" x2="176.97" y2="119.85" stroke-width="1.5" opacity="0" />
  <line id="mol29:Bond:7" class="event" x1="176.97" y1="119.85" x2="199.04" y2="127.23" stroke-width="1.5" opacity="0" />
  <line id="mol29:Bond:8" class="event" x1="199.04" y1="127.23" x2="202.52" y2="151.45" stroke-width="1.5" opacity="0" />
  <line id="mol29:Bond:9" class="event" x1="202.52" y1="151.45" x2="186.26" y2="165.45" stroke-width="1.5" opacity="0" />
  <line id="mol29:Bond:10" class="event" x1="164.19" y1="158.07" x2="186.26" y2="165.45" stroke-width="1.5" opacity="0" />
  <line id="mol29:Bond:11" class="event" x1="186.26" y1="165.45" x2="187.46" y2="189.44" stroke-width="1.5" opacity="0" />
  <line id="mol29:Bond:12" class="event" x1="187.46" y1="189.44" x2="214.63" y2="170.66" stroke-width="1.5" opacity="0" />
  <line id="mol29:Bond:13" class="event" x1="187.46" y1="189.44" x2="168.52" y2="202.95" stroke-width="1.5" opacity="0" />
  <line id="mol29:Bond:14" class="event" x1="168.52" y1="202.95" x2="147.35" y2="193.31" stroke-width="1.5" opacity="0" />
  <line id="mol29:Bond:16" class="event" x1="164.19" y1="158.07" x2="143.94" y2="169.53" stroke-width="1.5" opacity="0" />
  <line id="mol29:Bond:17" class="event" x1="143.94" y1="169.53" x2="126.78" y2="153.81" stroke-width="1.5" opacity="0" />
  <line id="mol29:Bond:19" class="event" x1="105.96" y1="166.99" x2="105.02" y2="190.24" stroke-width="1.5" opacity="0" />
  <line id="mol29:Bond:21" class="event" x1="147.35" y1="193.31" x2="124.68" y2="202.67" stroke-width="1.5" opacity="0" />
  <line id="mol29:Bond:22" class="event" x1="105.96" y1="166.99" x2="85.8" y2="155.35" stroke-width="1.5" opacity="0" />
  <line id="mol29:Bond:23" class="event" x1="85.8" y1="155.35" x2="65.65" y2="166.99" stroke-width="1.5" opacity="0" />
  <line id="mol29:Bond:24" class="event" x1="126.78" y1="153.81" x2="136.43" y2="132.64" stroke-width="1.5" opacity="0" />
  <line id="mol29:Bond:25" class="event" x1="159.55" y1="135.27" x2="136.43" y2="132.64" stroke-width="1.5" opacity="0" />
  <line id="mol29:Bond:26" class="event" x1="186.26" y1="165.45" x2="205.12" y2="173.87" stroke-width="1.5" opacity="0" />
  <circle id="mol29:Atom:0" class="event" cx="234.35" cy="180.68" r="8" opacity="0" />
  <circle id="mol29:Atom:1" class="event" cx="214.63" cy="170.66" r="8" opacity="0" />
  <circle id="mol29:Atom:2" class="event" cx="212.72" cy="147.42" r="8" opacity="0" />
  <circle id="mol29:Atom:3" class="event" cx="189.1" cy="138.7" r="8" opacity="0" />
  <circle id="mol29:Atom:4" class="event" cx="164.19" cy="158.07" r="8" opacity="0" />
  <circle id="mol29:Atom:5" class="event" cx="159.55" cy="135.27" r="8" opacity="0" />
  <circle id="mol29:Atom:6" class="event" cx="176.97" cy="119.85" r="8" opacity="0" />
  <circle id="mol29:Atom:7" class="event" cx="172.33" cy="97.05" r="8" opacity="0" />
  <circle id="mol29:Atom:8" class="event" cx="199.04" cy="127.23" r="8" opacity="0" />
  <circle id="mol29:Atom:9" class="event" cx="202.52" cy="151.45" r="8" opacity="0" />
  <circle id="mol29:Atom:10" class="event" cx="186.26" cy="165.45" r="8" opacity="0" />
  <circle id="mol29:Atom:11" class="event" cx="187.46" cy="189.44" r="8" opacity="0" />
  <circle id="mol29:Atom:12" class="event" cx="168.52" cy="202.95" r="8" opacity="0" />
  <circle id="mol29:Atom:13" class="event" cx="147.35" cy="193.31" r="8" opacity="0" />
  <circle id="mol29:Atom:14" class="event" cx="143.94" cy="169.53" r="8" opacity="0" />
  <circle id="mol29:Atom:15" class="event" cx="126.78" cy="153.81" r="8" opacity="0" />
  <circle id="mol29:Atom:16" class="event" cx="105.96" cy="166.99" r="8" opacity="0" />
  <circle id="mol29:Atom:17" class="event" cx="105.02" cy="190.24" r="8" opacity="0" />
  <circle id="mol29:Atom:18" class="event" cx="124.68" cy="202.67" r="8" opacity="0" />
  <circle id="mol29:Atom:19" class="event" cx="85.8" cy="155.35" r="8" opacity="0" />
  <circle id="mol29:Atom:20" class="event" cx="65.65" cy="166.99" r="8" opacity="0" />
  <circle id="mol29:Atom:21" class="event" cx="136.43" cy="132.64" r="8" opacity="0" />
  <circle id="mol29:Atom:22" class="event" cx="205.12" cy="173.87" r="8" opacity="0" />
</svg>