<svg id="mol30" xmlns="http://www.w3.org/2000/svg" version="1.1" width="181px" height="135px" viewBox="51 82 181 135">
  <style> #mol30 text {font-family: sans-serif;} #mol30 { pointer-events:none; } #mol30 .event  { pointer-events:all; } #mol30 line { stroke-linecap:round; } #mol30 polygon { stroke-linejoin:round; } </style>
  <text x="100.71" y="230.89" stroke="none" font-size="12" fill="rgb(160,0,0)">this enantiomer</text>
  <text x="158.91" y="110.88" stroke="none" font-size="14" fill="rgb(129,140,248)">N</text>
  <text x="118.17" y="147.74" stroke="none" font-size="9" fill="rgb(160,0,0)">S</text>
  <text x="122.35" y="145.93" stroke="none" font-size="9" fill="rgb(160,0,0)">abs</text>
  <text x="96.45" y="138.14" stroke="none" font-size="9" fill="rgb(160,0,0)">R</text>
  <text x="100.82" y="129.47" stroke="none" font-size="9" fill="rgb(160,0,0)">abs</text>
  <text x="73.99" y="102.02" stroke="none" font-size="14" fill="rgb(248,113,113)">O</text>
  <text x="137.1" y="134.17" stroke="none" font-size="9" fill="rgb(160,0,0)">S</text>
  <text x="130.13" y="126.53" stroke="none" font-size="9" fill="rgb(160,0,0)">abs</text>
  <text x="156.77" y="147.26" stroke="none" font-size="9" fill="rgb(160,0,0)">R</text>
  <text x="162.31" y="142.35" stroke="none" font-size="9" fill="rgb(160,0,0)">abs</text>
  <text x="70.54" y="206.41" stroke="none" font-size="14" fill="rgb(248,113,113)">O</text>
  <text x="60.44" y="206.41" stroke="none" font-size="14" fill="rgb(248,113,113)">H</text>
  <text x="81.81" y="152.02" stroke="none" font-size="14" fill="rgb(248,113,113)">O</text>
  <text x="155.55" y="120.48" stroke="none" font-size="14" fill="rgb(248,113,113)">O</text>
  <text x="166.44" y="120.48" stroke="none" font-size="14" fill="rgb(248,113,113)">H</text>
  <line x1="224.01" y1="96.09" x2="203.84" y2="107.74" stroke="rgb(228,226,242)" stroke-width="1.5" />
  <line x1="222.21" y1="92.98" x2="204.26" y2="103.34" stroke="rgb(228,226,242)" stroke-width="1.5" />
  <line x1="102.35" y1="105.74" x2="86.63" y2="98.63" stroke="rgb(228,226,242)" stroke-width="1.5" />
  <line x1="100.86" y1="109.02" x2="85.14" y2="101.91" stroke="rgb(228,226,242)" stroke-width="1.5" />
  <line x1="142.88" y1="174.08" x2="121.59" y2="162.89" stroke="rgb(228,226,242)" stroke-width="1.5" />
  <line x1="138.42" y1="175.8" x2="121.16" y2="166.74" stroke="rgb(228,226,242)" stroke-width="1.5" />
  <line x1="98.78" y1="167.6" x2="97.25" y2="192.22" stroke="rgb(228,226,242)" stroke-width="1.5" />
  <line x1="102.18" y1="170.92" x2="100.99" y2="190.09" stroke="rgb(228,226,242)" stroke-width="1.5" />
  <line x1="115.56" y1="206.62" x2="137.18" y2="197.96" stroke="rgb(228,226,242)" stroke-width="1.5" />
  <line x1="116.6" y1="202.32" x2="133.68" y2="195.48" stroke="rgb(228,226,242)" stroke-width="1.5" />
  <line x1="203.84" y1="107.74" x2="183.66" y2="96.09" stroke="rgb(228,226,242)" stroke-width="1.5" />
  <line x1="183.66" y1="96.09" x2="170.02" y2="103.1" stroke="rgb(228,226,242)" stroke-width="1.5" />
  <line x1="157.91" y1="102.55" x2="143.99" y2="94.13" stroke="rgb(228,226,242)" stroke-width="1.5" />
  <line x1="143.99" y1="94.13" x2="123.07" y2="108.18" stroke="rgb(228,226,242)" stroke-width="1.5" />
  <line x1="124.53" y1="136.01" x2="123.55" y2="136.05" stroke="rgb(160,0,0)" stroke-width="1.5" />
  <line x1="124.9" y1="132.28" x2="122.92" y2="132.35" stroke="rgb(160,0,0)" stroke-width="1.5" />
  <line x1="125.26" y1="128.55" x2="122.3" y2="128.65" stroke="rgb(160,0,0)" stroke-width="1.5" />
  <line x1="125.63" y1="124.82" x2="121.68" y2="124.96" stroke="rgb(160,0,0)" stroke-width="1.5" />
  <line x1="125.99" y1="121.09" x2="121.06" y2="121.26" stroke="rgb(160,0,0)" stroke-width="1.5" />
  <line x1="126.35" y1="117.36" x2="120.43" y2="117.56" stroke="rgb(160,0,0)" stroke-width="1.5" />
  <line x1="126.72" y1="113.63" x2="119.81" y2="113.87" stroke="rgb(160,0,0)" stroke-width="1.5" />
  <line x1="127.08" y1="109.89" x2="119.19" y2="110.17" stroke="rgb(160,0,0)" stroke-width="1.5" />
  <line x1="124.17" y1="139.74" x2="102.95" y2="130.14" stroke="rgb(228,226,242)" stroke-width="1.5" />
  <line x1="102.95" y1="130.14" x2="100.66" y2="106.96" stroke="rgb(228,226,242)" stroke-width="1.5" />
  <line x1="100.66" y1="106.96" x2="119.59" y2="93.38" stroke="rgb(228,226,242)" stroke-width="1.5" />
  <line x1="119.59" y1="93.38" x2="141.28" y2="104.77" stroke="rgb(228,226,242)" stroke-width="1.5" />
  <line x1="141.28" y1="104.77" x2="143.1" y2="126.17" stroke="rgb(228,226,242)" stroke-width="1.5" />
  <line x1="124.17" y1="139.74" x2="143.1" y2="126.17" stroke="rgb(228,226,242)" stroke-width="1.5" />
  <line x1="143.1" y1="126.17" x2="163.27" y2="139.26" stroke="rgb(228,226,242)" stroke-width="1.5" />
  <line x1="163.86" y1="135.39" x2="162.83" y2="135.36" stroke="rgb(160,0,0)" stroke-width="1.5" />
  <line x1="164.46" y1="131.51" x2="162.4" y2="131.47" stroke="rgb(160,0,0)" stroke-width="1.5" />
  <line x1="165.06" y1="127.63" x2="161.96" y2="127.57" stroke="rgb(160,0,0)" stroke-width="1.5" />
  <line x1="165.66" y1="123.75" x2="161.53" y2="123.67" stroke="rgb(160,0,0)" stroke-width="1.5" />
  <line x1="163.27" y1="139.26" x2="163.12" y2="162.56" stroke="rgb(228,226,242)" stroke-width="1.5" />
  <line x1="163.12" y1="162.56" x2="142.88" y2="174.08" stroke="rgb(228,226,242)" stroke-width="1.5" />
  <line x1="124.17" y1="139.74" x2="121.59" y2="162.89" stroke="rgb(228,226,242)" stroke-width="1.5" />
  <line x1="121.59" y1="162.89" x2="98.78" y2="167.6" stroke="rgb(228,226,242)" stroke-width="1.5" />
  <line x1="97.25" y1="192.22" x2="115.56" y2="206.62" stroke="rgb(228,226,242)" stroke-width="1.5" />
  <line x1="142.88" y1="174.08" x2="137.18" y2="197.96" stroke="rgb(228,226,242)" stroke-width="1.5" />
  <line x1="97.25" y1="192.22" x2="82.44" y2="198.86" stroke="rgb(228,226,242)" stroke-width="1.5" />
  <line x1="98.78" y1="167.6" x2="91.24" y2="154.35" stroke="rgb(228,226,242)" stroke-width="1.5" />
  <polygon points="103,130 98,135 99,136 " fill="rgb(160,0,0)" stroke="rgb(160,0,0)" stroke-width="1.5" />
  <polygon points="99,136 98,135 93,139 95,141 " fill="rgb(160,0,0)" stroke="rgb(160,0,0)" stroke-width="1.5" />
  <line x1="145.37" y1="125.23" x2="145.04" y2="124.67" stroke="rgb(160,0,0)" stroke-width="1.5" />
  <line x1="147.64" y1="124.29" x2="146.99" y2="123.17" stroke="rgb(160,0,0)" stroke-width="1.5" />
  <line x1="149.9" y1="123.35" x2="148.93" y2="121.68" stroke="rgb(160,0,0)" stroke-width="1.5" />
  <line x1="152.17" y1="122.41" x2="150.87" y2="120.18" stroke="rgb(160,0,0)" stroke-width="1.5" />
  <line x1="154.44" y1="121.47" x2="152.82" y2="118.68" stroke="rgb(160,0,0)" stroke-width="1.5" />
  <line id="mol30:Bond:0" class="event" x1="224.01" y1="96.09" x2="203.84" y2="107.74" stroke-width="1.5" opacity="0" />
  <line id="mol30:Bond:8" class="event" x1="100.66" y1="106.96" x2="79.44" y2="97.35" stroke-width="1.5" opacity="0" />
  <line id="mol30:Bond:17" class="event" x1="142.88" y1="174.08" x2="121.59" y2="162.89" stroke-width="1.5" opacity="0" />
  <line id="mol30:Bond:20" class="event" x1="98.78" y1="167.6" x2="97.25" y2="192.22" stroke-width="1.5" opacity="0" />
  <line id="mol30:Bond:22" class="event" x1="115.56" y1="206.62" x2="137.18" y2="197.96" stroke-width="1.5" opacity="0" />
  <line id="mol30:Bond:1" class="event" x1="203.84" y1="107.74" x2="183.66" y2="96.09" stroke-width="1.5" opacity="0" />
  <line id="mol30:Bond:2" class="event" x1="183.66" y1="96.09" x2="163.96" y2="106.21" stroke-width="1.5" opacity="0" />
  <line id="mol30:Bond:3" class="event" x1="163.96" y1="106.21" x2="143.99" y2="94.13" stroke-width="1.5" opacity="0" />
  <line id="mol30:Bond:4" class="event" x1="143.99" y1="94.13" x2="123.07" y2="108.18" stroke-width="1.5" opacity="0" />
  <line id="mol30:Bond:5" class="event" x1="124.17" y1="139.74" x2="123.07" y2="108.18" stroke-width="1.5" opacity="0" />
  <line id="mol30:Bond:6" class="event" x1="124.17" y1="139.74" x2="102.95" y2="130.14" stroke-width="1.5" opacity="0" />
  <line id="mol30:Bond:7" class="event" x1="102.95" y1="130.14" x2="100.66" y2="106.96" stroke-width="1.5" opacity="0" />
  <line id="mol30:Bond:9" class="event" x1="100.66" y1="106.96" x2="119.59" y2="93.38" stroke-width="1.5" opacity="0" />
  <line id="mol30:Bond:10" class="event" x1="119.59" y1="93.38" x2="141.28" y2="104.77" stroke-width="1.5" opacity="0" />
  <line id="mol30:Bond:11" class="event" x1="141.28" y1="104.77" x2="143.1" y2="126.17" stroke-width="1.5" opacity="0" />
  <line id="mol30:Bond:12" class="event" x1="124.17" y1="139.74" x2="143.1" y2="126.17" stroke-width="1.5" opacity="0" />
  <line id="mol30:Bond:13" class="event" x1="143.1" y1="126.17" x2="163.27" y2="139.26" stroke-width="1.5" opacity="0" />
  <line id="mol30:Bond:14" class="event" x1="163.27" y1="139.26" x2="163.96" y2="106.21" stroke-width="1.5" opacity="0" />
  <line id="mol30:Bond:15" class="event" x1="163.27" y1="139.26" x2="163.12" y2="162.56" stroke-width="1.5" opacity="0" />
  <line id="mol30:Bond:16" class="event" x1="163.12" y1="162.56" x2="142.88" y2="174.08" stroke-width="1.5" opacity="0" />
  <line id="mol30:Bond:18" class="event" x1="124.17" y1="139.74" x2="121.59" y2="162.89" stroke-width="1.5" opacity="0" />
  <line id="mol30:Bond:19" class="event" x1="121.59" y1="162.89" x2="98.78" y2="167.6" stroke-width="1.5" opacity="0" />
  <line id="mol30:Bond:21" class="event" x1="97.25" y1="192.22" x2="115.56" y2="206.62" stroke-width="1.5" opacity="0" />
  <line id="mol30:Bond:23" class="event" x1="142.88" y1="174.08" x2="137.18" y2="197.96" stroke-width="1.5" opacity="0" />
  <line id="mol30:Bond:24" class="event" x1="97.25" y1="192.22" x2="75.99" y2="201.74" stroke-width="1.5" opacity="0" />
  <line id="mol30:Bond:25" class="event" x1="98.78" y1="167.6" x2="87.26" y2="147.35" stroke-width="1.5" opacity="0" />
  <line id="mol30:Bond:26" class="event" x1="102.95" y1="130.14" x2="87.26" y2="147.35" stroke-width="1.5" opacity="0" />
  <line id="mol30:Bond:27" class="event" x1="143.1" y1="126.17" x2="161" y2="115.81" stroke-width="1.5" opacity="0" />
  <circle id="mol30:Atom:0" class="event" cx="224.01" cy="96.09" r="8" opacity="0" />
  <circle id="mol30:Atom:1" class="event" cx="203.84" cy="107.74" r="8" opacity="0" />
  <circle id="mol30:Atom:2" class="event" cx="183.66" cy="96.09" r="8" opacity="0" />
  <circle id="mol30:Atom:3" class="event" cx="163.96" cy="106.21" r="8" opacity="0" />
  <circle id="mol30:Atom:4" class="event" cx="143.99" cy="94.13" r="8" opacity="0" />
  <circle id="mol30:Atom:5" class="event" cx="123.07" cy="108.18" r="8" opacity="0" />
  <circle id="mol30:Atom:6" class="event" cx="124.17" cy="139.74" r="8" opacity="0" />
  <circle id="mol30:Atom:7" class="event" cx="102.95" cy="130.14" r="8" opacity="0" />
  <circle id="mol30:Atom:8" class="event" cx="100.66" cy="106.96" r="8" opacity="0" />
  <circle id="mol30:Atom:9" class="event" cx="79.44" cy="97.35" r="8" opacity="0" />
  <circle id="mol30:Atom:10" class="event" cx="119.59" cy="93.38" r="8" opacity="0" />
  <circle id="mol30:Atom:11" class="event" cx="141.28" cy="104.77" r="8" opacity="0" />
  <circle id="mol30:Atom:12" class="event" cx="143.1" cy="126.17" r="8" opacity="0" />
  <circle id="mol30:Atom:13" class="event" cx="163.27" cy="139.26" r="8" opacity="0" />
  <circle id="mol30:Atom:14" class="event" cx="163.12" cy="162.56" r="8" opacity="0" />
  <circle id="mol30:Atom:15" class="event" cx="142.88" cy="174.08" r="8" opacity="0" />
  <circle id="mol30:Atom:16" class="event" cx="121.59" cy="162.89" r="8" opacity="0" />
  <circle id="mol30:Atom:17" class="event" cx="98.78" cy="167.6" r="8" opacity="0" />
  <circle id="mol30:Atom:18" class="event" cx="97.25" cy="192.22" r="8" opacity="0" />
  <circle id="mol30:Atom:19" class="event" cx="115.56" cy="206.62" r="8" opacity="0" />
  <circle id="mol30:Atom:20" class="event" cx="137.18" cy="197.96" r="8" opacity="0" />
  <circle id="mol30:Atom:21" class="event" cx="75.99" cy="201.74" r="8" opacity="0" />
  <circle id="mol30:Atom:22" class="event" cx="87.26" cy="147.35" r="8" opacity="0" />
  <circle id="mol30:Atom:23" class="event" cx="161" cy="115.81" r="8" opacity="0" />
</svg>