<svg id="mol30" xmlns="http://www.w3.org/2000/svg" version="1.1" width="133px" height="139px" viewBox="83 77 133 139">
  <style> #mol30 text {font-family: sans-serif;} #mol30 { pointer-events:none; } #mol30 .event  { pointer-events:all; } #mol30 line { stroke-linecap:round; } #mol30 polygon { stroke-linejoin:round; } </style>
  <text x="108.98" y="230.07" stroke="none" font-size="12" fill="rgb(160,0,0)">this enantiomer</text>
  <text x="183.9" y="199.33" stroke="none" font-size="14" fill="rgb(129,140,248)">N</text>
  <text x="145.27" y="168.42" stroke="none" font-size="9" fill="rgb(160,0,0)">S</text>
  <text x="149.72" y="160.73" stroke="none" font-size="9" fill="rgb(160,0,0)">abs</text>
  <text x="163.93" y="181.67" stroke="none" font-size="9" fill="rgb(160,0,0)">R</text>
  <text x="163.69" y="170.4" stroke="none" font-size="9" fill="rgb(160,0,0)">abs</text>
  <text x="184.99" y="171.71" stroke="none" font-size="9" fill="rgb(160,0,0)">R</text>
  <text x="190.51" y="167.23" stroke="none" font-size="9" fill="rgb(160,0,0)">abs</text>
  <text x="106.62" y="97.21" stroke="none" font-size="14" fill="rgb(248,113,113)">O</text>
  <text x="111.05" y="150.55" stroke="none" font-size="14" fill="rgb(248,113,113)">O</text>
  <text x="122.11" y="173.79" stroke="none" font-size="9" fill="rgb(160,0,0)">R</text>
  <text x="123.78" y="162.97" stroke="none" font-size="9" fill="rgb(160,0,0)">abs</text>
  <text x="98" y="202.47" stroke="none" font-size="14" fill="rgb(248,113,113)">O</text>
  <line x1="174.23" y1="127.24" x2="153.18" y2="137.21" stroke="rgb(228,226,242)" stroke-width="1.5" />
  <line x1="170.08" y1="125.23" x2="153.43" y2="133.1" stroke="rgb(228,226,242)" stroke-width="1.5" />
  <line x1="131.68" y1="128.22" x2="132.24" y2="104.19" stroke="rgb(228,226,242)" stroke-width="1.5" />
  <line x1="135.35" y1="125.41" x2="135.78" y2="106.72" stroke="rgb(228,226,242)" stroke-width="1.5" />
  <line x1="152.14" y1="92.08" x2="172.57" y2="103.26" stroke="rgb(228,226,242)" stroke-width="1.5" />
  <line x1="152.66" y1="96.47" x2="168.7" y2="105.24" stroke="rgb(228,226,242)" stroke-width="1.5" />
  <line x1="125.53" y1="187.56" x2="109.26" y2="193.69" stroke="rgb(228,226,242)" stroke-width="1.5" />
  <line x1="126.8" y1="190.93" x2="110.53" y2="197.06" stroke="rgb(228,226,242)" stroke-width="1.5" />
  <line x1="208.11" y1="207.92" x2="195.01" y2="198.86" stroke="rgb(228,226,242)" stroke-width="1.5" />
  <line x1="182.9" y1="197.77" x2="168.07" y2="205.38" stroke="rgb(228,226,242)" stroke-width="1.5" />
  <line x1="168.07" y1="205.38" x2="148.39" y2="190.58" stroke="rgb(228,226,242)" stroke-width="1.5" />
  <polygon points="151,160 148,175 152,176 " fill="rgb(160,0,0)" stroke="rgb(160,0,0)" stroke-width="1.5" />
  <polygon points="152,176 148,175 145,190 152,191 " fill="rgb(160,0,0)" stroke="rgb(160,0,0)" stroke-width="1.5" />
  <line x1="151.28" y1="160.42" x2="170.43" y2="173.67" stroke="rgb(228,226,242)" stroke-width="1.5" />
  <line x1="170.43" y1="173.67" x2="191.49" y2="163.71" stroke="rgb(228,226,242)" stroke-width="1.5" />
  <polygon points="191,164 189,176 192,176 " fill="rgb(160,0,0)" stroke="rgb(160,0,0)" stroke-width="1.5" />
  <polygon points="192,176 189,176 187,187 192,188 " fill="rgb(160,0,0)" stroke="rgb(160,0,0)" stroke-width="1.5" />
  <line x1="191.49" y1="163.71" x2="193.39" y2="140.5" stroke="rgb(228,226,242)" stroke-width="1.5" />
  <line x1="193.39" y1="140.5" x2="174.23" y2="127.24" stroke="rgb(228,226,242)" stroke-width="1.5" />
  <line x1="151.28" y1="160.42" x2="153.18" y2="137.21" stroke="rgb(228,226,242)" stroke-width="1.5" />
  <line x1="153.18" y1="137.21" x2="131.68" y2="128.22" stroke="rgb(228,226,242)" stroke-width="1.5" />
  <line x1="132.24" y1="104.19" x2="152.14" y2="92.08" stroke="rgb(228,226,242)" stroke-width="1.5" />
  <line x1="174.23" y1="127.24" x2="172.57" y2="103.26" stroke="rgb(228,226,242)" stroke-width="1.5" />
  <line x1="132.24" y1="104.19" x2="118.51" y2="96.26" stroke="rgb(228,226,242)" stroke-width="1.5" />
  <line x1="105.62" y1="96.26" x2="91.89" y2="104.19" stroke="rgb(228,226,242)" stroke-width="1.5" />
  <line x1="131.68" y1="128.22" x2="122.52" y2="138.89" stroke="rgb(228,226,242)" stroke-width="1.5" />
  <line x1="127.5" y1="163.26" x2="126.87" y2="163.64" stroke="rgb(160,0,0)" stroke-width="1.5" />
  <line x1="126.38" y1="160.73" x2="125.14" y2="161.48" stroke="rgb(160,0,0)" stroke-width="1.5" />
  <line x1="125.27" y1="158.2" x2="123.4" y2="159.33" stroke="rgb(160,0,0)" stroke-width="1.5" />
  <line x1="124.15" y1="155.67" x2="121.67" y2="157.18" stroke="rgb(160,0,0)" stroke-width="1.5" />
  <line x1="123.04" y1="153.14" x2="119.93" y2="155.03" stroke="rgb(160,0,0)" stroke-width="1.5" />
  <line x1="151.28" y1="160.42" x2="128.61" y2="165.79" stroke="rgb(228,226,242)" stroke-width="1.5" />
  <line x1="128.61" y1="165.79" x2="125.25" y2="189.59" stroke="rgb(228,226,242)" stroke-width="1.5" />
  <line x1="125.25" y1="189.59" x2="142.91" y2="204.78" stroke="rgb(228,226,242)" stroke-width="1.5" />
  <line x1="142.91" y1="204.78" x2="165.58" y2="194.79" stroke="rgb(228,226,242)" stroke-width="1.5" />
  <line x1="169.53" y1="176.08" x2="170.19" y2="176.23" stroke="rgb(160,0,0)" stroke-width="1.5" />
  <line x1="168.63" y1="178.49" x2="169.95" y2="178.79" stroke="rgb(160,0,0)" stroke-width="1.5" />
  <line x1="167.73" y1="180.9" x2="169.71" y2="181.35" stroke="rgb(160,0,0)" stroke-width="1.5" />
  <line x1="166.83" y1="183.31" x2="169.47" y2="183.91" stroke="rgb(160,0,0)" stroke-width="1.5" />
  <line x1="165.93" y1="185.72" x2="169.23" y2="186.47" stroke="rgb(160,0,0)" stroke-width="1.5" />
  <line x1="165.03" y1="188.12" x2="168.99" y2="189.03" stroke="rgb(160,0,0)" stroke-width="1.5" />
  <line x1="164.13" y1="190.53" x2="168.75" y2="191.59" stroke="rgb(160,0,0)" stroke-width="1.5" />
  <line x1="163.23" y1="192.94" x2="168.51" y2="194.15" stroke="rgb(160,0,0)" stroke-width="1.5" />
  <line id="mol30:Bond:9" class="event" x1="174.23" y1="127.24" x2="153.18" y2="137.21" stroke-width="1.5" opacity="0" />
  <line id="mol30:Bond:12" class="event" x1="131.68" y1="128.22" x2="132.24" y2="104.19" stroke-width="1.5" opacity="0" />
  <line id="mol30:Bond:14" class="event" x1="152.14" y1="92.08" x2="172.57" y2="103.26" stroke-width="1.5" opacity="0" />
  <line id="mol30:Bond:22" class="event" x1="125.25" y1="189.59" x2="103.45" y2="197.8" stroke-width="1.5" opacity="0" />
  <line id="mol30:Bond:0" class="event" x1="208.11" y1="207.92" x2="188.95" y2="194.67" stroke-width="1.5" opacity="0" />
  <line id="mol30:Bond:1" class="event" x1="188.95" y1="194.67" x2="168.07" y2="205.38" stroke-width="1.5" opacity="0" />
  <line id="mol30:Bond:2" class="event" x1="168.07" y1="205.38" x2="148.39" y2="190.58" stroke-width="1.5" opacity="0" />
  <line id="mol30:Bond:3" class="event" x1="151.28" y1="160.42" x2="148.39" y2="190.58" stroke-width="1.5" opacity="0" />
  <line id="mol30:Bond:4" class="event" x1="151.28" y1="160.42" x2="170.43" y2="173.67" stroke-width="1.5" opacity="0" />
  <line id="mol30:Bond:5" class="event" x1="170.43" y1="173.67" x2="191.49" y2="163.71" stroke-width="1.5" opacity="0" />
  <line id="mol30:Bond:6" class="event" x1="191.49" y1="163.71" x2="188.95" y2="194.67" stroke-width="1.5" opacity="0" />
  <line id="mol30:Bond:7" class="event" x1="191.49" y1="163.71" x2="193.39" y2="140.5" stroke-width="1.5" opacity="0" />
  <line id="mol30:Bond:8" class="event" x1="193.39" y1="140.5" x2="174.23" y2="127.24" stroke-width="1.5" opacity="0" />
  <line id="mol30:Bond:10" class="event" x1="151.28" y1="160.42" x2="153.18" y2="137.21" stroke-width="1.5" opacity="0" />
  <line id="mol30:Bond:11" class="event" x1="153.18" y1="137.21" x2="131.68" y2="128.22" stroke-width="1.5" opacity="0" />
  <line id="mol30:Bond:13" class="event" x1="132.24" y1="104.19" x2="152.14" y2="92.08" stroke-width="1.5" opacity="0" />
  <line id="mol30:Bond:15" class="event" x1="174.23" y1="127.24" x2="172.57" y2="103.26" stroke-width="1.5" opacity="0" />
  <line id="mol30:Bond:16" class="event" x1="132.24" y1="104.19" x2="112.07" y2="92.54" stroke-width="1.5" opacity="0" />
  <line id="mol30:Bond:17" class="event" x1="112.07" y1="92.54" x2="91.89" y2="104.19" stroke-width="1.5" opacity="0" />
  <line id="mol30:Bond:18" class="event" x1="131.68" y1="128.22" x2="116.5" y2="145.89" stroke-width="1.5" opacity="0" />
  <line id="mol30:Bond:19" class="event" x1="128.61" y1="165.79" x2="116.5" y2="145.89" stroke-width="1.5" opacity="0" />
  <line id="mol30:Bond:20" class="event" x1="151.28" y1="160.42" x2="128.61" y2="165.79" stroke-width="1.5" opacity="0" />
  <line id="mol30:Bond:21" class="event" x1="128.61" y1="165.79" x2="125.25" y2="189.59" stroke-width="1.5" opacity="0" />
  <line id="mol30:Bond:23" class="event" x1="125.25" y1="189.59" x2="142.91" y2="204.78" stroke-width="1.5" opacity="0" />
  <line id="mol30:Bond:24" class="event" x1="142.91" y1="204.78" x2="165.58" y2="194.79" stroke-width="1.5" opacity="0" />
  <line id="mol30:Bond:25" class="event" x1="170.43" y1="173.67" x2="165.58" y2="194.79" stroke-width="1.5" opacity="0" />
  <circle id="mol30:Atom:0" class="event" cx="208.11" cy="207.92" r="8" opacity="0" />
  <circle id="mol30:Atom:1" class="event" cx="188.95" cy="194.67" r="8" opacity="0" />
  <circle id="mol30:Atom:2" class="event" cx="168.07" cy="205.38" r="8" opacity="0" />
  <circle id="mol30:Atom:3" class="event" cx="148.39" cy="190.58" r="8" opacity="0" />
  <circle id="mol30:Atom:4" class="event" cx="151.28" cy="160.42" r="8" opacity="0" />
  <circle id="mol30:Atom:5" class="event" cx="170.43" cy="173.67" r="8" opacity="0" />
  <circle id="mol30:Atom:6" class="event" cx="191.49" cy="163.71" r="8" opacity="0" />
  <circle id="mol30:Atom:7" class="event" cx="193.39" cy="140.5" r="8" opacity="0" />
  <circle id="mol30:Atom:8" class="event" cx="174.23" cy="127.24" r="8" opacity="0" />
  <circle id="mol30:Atom:9" class="event" cx="153.18" cy="137.21" r="8" opacity="0" />
  <circle id="mol30:Atom:10" class="event" cx="131.68" cy="128.22" r="8" opacity="0" />
  <circle id="mol30:Atom:11" class="event" cx="132.24" cy="104.19" r="8" opacity="0" />
  <circle id="mol30:Atom:12" class="event" cx="152.14" cy="92.08" r="8" opacity="0" />
  <circle id="mol30:Atom:13" class="event" cx="172.57" cy="103.26" r="8" opacity="0" />
  <circle id="mol30:Atom:14" class="event" cx="112.07" cy="92.54" r="8" opacity="0" />
  <circle id="mol30:Atom:15" class="event" cx="91.89" cy="104.19" r="8" opacity="0" />
  <circle id="mol30:Atom:16" class="event" cx="116.5" cy="145.89" r="8" opacity="0" />
  <circle id="mol30:Atom:17" class="event" cx="128.61" cy="165.79" r="8" opacity="0" />
  <circle id="mol30:Atom:18" class="event" cx="125.25" cy="189.59" r="8" opacity="0" />
  <circle id="mol30:Atom:19" class="event" cx="103.45" cy="197.8" r="8" opacity="0" />
  <circle id="mol30:Atom:20" class="event" cx="142.91" cy="204.78" r="8" opacity="0" />
  <circle id="mol30:Atom:21" class="event" cx="165.58" cy="194.79" r="8" opacity="0" />
</svg>