<svg id="mol31" xmlns="http://www.w3.org/2000/svg" version="1.1" width="229px" height="179px" viewBox="43 64 229 179">
  <style> #mol31 text {font-family: sans-serif;} #mol31 { pointer-events:none; } #mol31 .event  { pointer-events:all; } #mol31 line { stroke-linecap:round; } #mol31 polygon { stroke-linejoin:round; } </style>
  <text x="116.4" y="256.77" stroke="none" font-size="12" fill="rgb(160,0,0)">this enantiomer</text>
  <text x="216.92" y="128.31" stroke="none" font-size="9" fill="rgb(160,0,0)">S</text>
  <text x="210.36" y="119.91" stroke="none" font-size="9" fill="rgb(160,0,0)">abs</text>
  <text x="197.82" y="138.54" stroke="none" font-size="9" fill="rgb(160,0,0)">R</text>
  <text x="196.8" y="127.25" stroke="none" font-size="9" fill="rgb(160,0,0)">abs</text>
  <text x="153.8" y="135.84" stroke="none" font-size="9" fill="rgb(160,0,0)">S</text>
  <text x="151.89" y="124.57" stroke="none" font-size="9" fill="rgb(160,0,0)">abs</text>
  <text x="193.1" y="162.78" stroke="none" font-size="9" fill="rgb(160,0,0)">R</text>
  <text x="198.16" y="155.37" stroke="none" font-size="9" fill="rgb(160,0,0)">abs</text>
  <text x="171.48" y="173.27" stroke="none" font-size="9" fill="rgb(160,0,0)">R</text>
  <text x="171.18" y="161.99" stroke="none" font-size="9" fill="rgb(160,0,0)">abs</text>
  <text x="152.08" y="159.81" stroke="none" font-size="9" fill="rgb(160,0,0)">S</text>
  <text x="156.5" y="152.05" stroke="none" font-size="9" fill="rgb(160,0,0)">abs</text>
  <text x="110.27" y="130.46" stroke="none" font-size="14" fill="rgb(129,140,248)">N</text>
  <text x="130.91" y="125.18" stroke="none" font-size="9" fill="rgb(160,0,0)">R</text>
  <text x="130.38" y="113.88" stroke="none" font-size="9" fill="rgb(160,0,0)">abs</text>
  <text x="124.14" y="232.29" stroke="none" font-size="14" fill="rgb(248,113,113)">O</text>
  <text x="135.04" y="232.29" stroke="none" font-size="14" fill="rgb(248,113,113)">H</text>
  <text x="165.88" y="193.03" stroke="none" font-size="14" fill="rgb(248,113,113)">O</text>
  <text x="214.05" y="172.91" stroke="none" font-size="14" fill="rgb(248,113,113)">O</text>
  <text x="241.44" y="126.69" stroke="none" font-size="14" fill="rgb(248,113,113)">O</text>
  <text x="252.33" y="126.69" stroke="none" font-size="14" fill="rgb(248,113,113)">H</text>
  <line x1="117.82" y1="157.24" x2="139.78" y2="169.18" stroke="rgb(228,226,242)" stroke-width="1.5" />
  <line x1="118.61" y1="161.77" x2="136.73" y2="171.62" stroke="rgb(228,226,242)" stroke-width="1.5" />
  <line x1="147.31" y1="189.16" x2="126.49" y2="203.79" stroke="rgb(228,226,242)" stroke-width="1.5" />
  <line x1="142.67" y1="188.02" x2="126.35" y2="199.49" stroke="rgb(228,226,242)" stroke-width="1.5" />
  <line x1="103.95" y1="195.47" x2="99.89" y2="171.79" stroke="rgb(228,226,242)" stroke-width="1.5" />
  <line x1="107.06" y1="192.34" x2="103.87" y2="173.73" stroke="rgb(228,226,242)" stroke-width="1.5" />
  <line x1="233.42" y1="141.92" x2="222.92" y2="120.31" stroke="rgb(228,226,242)" stroke-width="1.5" />
  <line x1="222.92" y1="120.31" x2="204.31" y2="130.54" stroke="rgb(228,226,242)" stroke-width="1.5" />
  <line x1="201.71" y1="128.93" x2="201.38" y2="129.67" stroke="rgb(160,0,0)" stroke-width="1.5" />
  <line x1="199.1" y1="127.33" x2="198.45" y2="128.8" stroke="rgb(160,0,0)" stroke-width="1.5" />
  <line x1="196.5" y1="125.72" x2="195.51" y2="127.93" stroke="rgb(160,0,0)" stroke-width="1.5" />
  <line x1="193.89" y1="124.12" x2="192.58" y2="127.06" stroke="rgb(160,0,0)" stroke-width="1.5" />
  <line x1="191.29" y1="122.51" x2="189.65" y2="126.19" stroke="rgb(160,0,0)" stroke-width="1.5" />
  <line x1="188.68" y1="120.91" x2="186.71" y2="125.32" stroke="rgb(160,0,0)" stroke-width="1.5" />
  <line x1="186.08" y1="119.3" x2="183.78" y2="124.45" stroke="rgb(160,0,0)" stroke-width="1.5" />
  <line x1="183.48" y1="117.69" x2="180.84" y2="123.58" stroke="rgb(160,0,0)" stroke-width="1.5" />
  <polygon points="160,128 171,125 170,123 " fill="rgb(160,0,0)" stroke="rgb(160,0,0)" stroke-width="1.5" />
  <polygon points="170,123 171,125 182,122 180,118 " fill="rgb(160,0,0)" stroke="rgb(160,0,0)" stroke-width="1.5" />
  <line x1="159.8" y1="127.84" x2="181.41" y2="111.33" stroke="rgb(228,226,242)" stroke-width="1.5" />
  <line x1="181.41" y1="111.33" x2="195.3" y2="130.81" stroke="rgb(228,226,242)" stroke-width="1.5" />
  <line x1="195.3" y1="130.81" x2="199.6" y2="154.78" stroke="rgb(228,226,242)" stroke-width="1.5" />
  <line x1="204.31" y1="130.54" x2="199.6" y2="154.78" stroke="rgb(228,226,242)" stroke-width="1.5" />
  <line x1="199.6" y1="154.78" x2="177.98" y2="165.27" stroke="rgb(228,226,242)" stroke-width="1.5" />
  <line x1="177.98" y1="165.27" x2="158.08" y2="151.81" stroke="rgb(228,226,242)" stroke-width="1.5" />
  <line x1="159.8" y1="127.84" x2="158.08" y2="151.81" stroke="rgb(228,226,242)" stroke-width="1.5" />
  <polygon points="158,152 147,155 148,157 " fill="rgb(160,0,0)" stroke="rgb(160,0,0)" stroke-width="1.5" />
  <polygon points="148,157 147,155 137,158 138,162 " fill="rgb(160,0,0)" stroke="rgb(160,0,0)" stroke-width="1.5" />
  <line x1="137.51" y1="160.15" x2="114.01" y2="149.45" stroke="rgb(228,226,242)" stroke-width="1.5" />
  <line x1="114.01" y1="149.45" x2="114.93" y2="132.8" stroke="rgb(228,226,242)" stroke-width="1.5" />
  <polygon points="137,117 129,119 130,121 " fill="rgb(160,0,0)" stroke="rgb(160,0,0)" stroke-width="1.5" />
  <polygon points="130,121 129,119 121,122 122,125 " fill="rgb(160,0,0)" stroke="rgb(160,0,0)" stroke-width="1.5" />
  <line x1="159.8" y1="127.84" x2="137.41" y2="117.18" stroke="rgb(228,226,242)" stroke-width="1.5" />
  <line x1="137.41" y1="117.18" x2="118.87" y2="133.76" stroke="rgb(228,226,242)" stroke-width="1.5" />
  <line x1="118.87" y1="133.76" x2="117.82" y2="157.24" stroke="rgb(228,226,242)" stroke-width="1.5" />
  <line x1="158.08" y1="151.81" x2="139.78" y2="169.18" stroke="rgb(228,226,242)" stroke-width="1.5" />
  <line x1="139.78" y1="169.18" x2="147.31" y2="189.16" stroke="rgb(228,226,242)" stroke-width="1.5" />
  <line x1="126.49" y1="203.79" x2="103.95" y2="195.47" stroke="rgb(228,226,242)" stroke-width="1.5" />
  <line x1="117.82" y1="157.24" x2="99.89" y2="171.79" stroke="rgb(228,226,242)" stroke-width="1.5" />
  <line x1="126.49" y1="203.79" x2="128.68" y2="220.62" stroke="rgb(228,226,242)" stroke-width="1.5" />
  <line x1="147.31" y1="189.16" x2="164.88" y2="188.57" stroke="rgb(228,226,242)" stroke-width="1.5" />
  <line x1="176.84" y1="167.89" x2="177.56" y2="168.09" stroke="rgb(160,0,0)" stroke-width="1.5" />
  <line x1="175.69" y1="170.5" x2="177.14" y2="170.91" stroke="rgb(160,0,0)" stroke-width="1.5" />
  <line x1="174.55" y1="173.11" x2="176.71" y2="173.73" stroke="rgb(160,0,0)" stroke-width="1.5" />
  <line x1="173.41" y1="175.72" x2="176.29" y2="176.55" stroke="rgb(160,0,0)" stroke-width="1.5" />
  <line x1="172.26" y1="178.33" x2="175.87" y2="179.37" stroke="rgb(160,0,0)" stroke-width="1.5" />
  <line x1="171.12" y1="180.95" x2="172.55" y2="181.36" stroke="rgb(160,0,0)" stroke-width="1.5" />
  <line x1="109.27" y1="122.89" x2="96.23" y2="116.63" stroke="rgb(228,226,242)" stroke-width="1.5" />
  <line x1="96.23" y1="116.63" x2="75.42" y2="128.65" stroke="rgb(228,226,242)" stroke-width="1.5" />
  <line x1="75.42" y1="128.65" x2="51.4" y2="128.65" stroke="rgb(228,226,242)" stroke-width="1.5" />
  <line x1="51.4" y1="128.65" x2="63.41" y2="149.45" stroke="rgb(228,226,242)" stroke-width="1.5" />
  <line x1="75.42" y1="128.65" x2="63.41" y2="149.45" stroke="rgb(228,226,242)" stroke-width="1.5" />
  <line x1="201.73" y1="156.67" x2="202.15" y2="156.05" stroke="rgb(160,0,0)" stroke-width="1.5" />
  <line x1="203.86" y1="158.57" x2="204.7" y2="157.32" stroke="rgb(160,0,0)" stroke-width="1.5" />
  <line x1="205.99" y1="160.46" x2="207.25" y2="158.6" stroke="rgb(160,0,0)" stroke-width="1.5" />
  <line x1="208.12" y1="162.36" x2="209.8" y2="159.87" stroke="rgb(160,0,0)" stroke-width="1.5" />
  <line x1="210.25" y1="164.25" x2="212.35" y2="161.14" stroke="rgb(160,0,0)" stroke-width="1.5" />
  <line x1="212.38" y1="166.15" x2="213.05" y2="165.16" stroke="rgb(160,0,0)" stroke-width="1.5" />
  <line x1="218.99" y1="175.24" x2="217.78" y2="192.21" stroke="rgb(228,226,242)" stroke-width="1.5" />
  <line x1="222.92" y1="120.31" x2="224.64" y2="96.35" stroke="rgb(228,226,242)" stroke-width="1.5" />
  <line x1="224.64" y1="96.35" x2="200.67" y2="94.63" stroke="rgb(228,226,242)" stroke-width="1.5" />
  <line x1="224.64" y1="96.35" x2="226.35" y2="72.38" stroke="rgb(228,226,242)" stroke-width="1.5" />
  <line x1="224.64" y1="96.35" x2="248.6" y2="98.06" stroke="rgb(228,226,242)" stroke-width="1.5" />
  <polygon points="223,120 232,122 232,120 " fill="rgb(160,0,0)" stroke="rgb(160,0,0)" stroke-width="1.5" />
  <polygon points="232,120 232,122 240,124 241,120 " fill="rgb(160,0,0)" stroke="rgb(160,0,0)" stroke-width="1.5" />
  <line id="mol31:Bond:18" class="event" x1="117.82" y1="157.24" x2="139.78" y2="169.18" stroke-width="1.5" opacity="0" />
  <line id="mol31:Bond:21" class="event" x1="147.31" y1="189.16" x2="126.49" y2="203.79" stroke-width="1.5" opacity="0" />
  <line id="mol31:Bond:23" class="event" x1="103.95" y1="195.47" x2="99.89" y2="171.79" stroke-width="1.5" opacity="0" />
  <line id="mol31:Bond:0" class="event" x1="233.42" y1="141.92" x2="222.92" y2="120.31" stroke-width="1.5" opacity="0" />
  <line id="mol31:Bond:1" class="event" x1="222.92" y1="120.31" x2="204.31" y2="130.54" stroke-width="1.5" opacity="0" />
  <line id="mol31:Bond:2" class="event" x1="204.31" y1="130.54" x2="180.78" y2="120.02" stroke-width="1.5" opacity="0" />
  <line id="mol31:Bond:3" class="event" x1="159.8" y1="127.84" x2="180.78" y2="120.02" stroke-width="1.5" opacity="0" />
  <line id="mol31:Bond:4" class="event" x1="159.8" y1="127.84" x2="181.41" y2="111.33" stroke-width="1.5" opacity="0" />
  <line id="mol31:Bond:5" class="event" x1="181.41" y1="111.33" x2="195.3" y2="130.81" stroke-width="1.5" opacity="0" />
  <line id="mol31:Bond:6" class="event" x1="195.3" y1="130.81" x2="199.6" y2="154.78" stroke-width="1.5" opacity="0" />
  <line id="mol31:Bond:7" class="event" x1="204.31" y1="130.54" x2="199.6" y2="154.78" stroke-width="1.5" opacity="0" />
  <line id="mol31:Bond:8" class="event" x1="199.6" y1="154.78" x2="177.98" y2="165.27" stroke-width="1.5" opacity="0" />
  <line id="mol31:Bond:9" class="event" x1="177.98" y1="165.27" x2="158.08" y2="151.81" stroke-width="1.5" opacity="0" />
  <line id="mol31:Bond:10" class="event" x1="159.8" y1="127.84" x2="158.08" y2="151.81" stroke-width="1.5" opacity="0" />
  <line id="mol31:Bond:11" class="event" x1="158.08" y1="151.81" x2="137.51" y2="160.15" stroke-width="1.5" opacity="0" />
  <line id="mol31:Bond:12" class="event" x1="137.51" y1="160.15" x2="114.01" y2="149.45" stroke-width="1.5" opacity="0" />
  <line id="mol31:Bond:13" class="event" x1="114.01" y1="149.45" x2="115.32" y2="125.8" stroke-width="1.5" opacity="0" />
  <line id="mol31:Bond:14" class="event" x1="137.41" y1="117.18" x2="115.32" y2="125.8" stroke-width="1.5" opacity="0" />
  <line id="mol31:Bond:15" class="event" x1="159.8" y1="127.84" x2="137.41" y2="117.18" stroke-width="1.5" opacity="0" />
  <line id="mol31:Bond:16" class="event" x1="137.41" y1="117.18" x2="118.87" y2="133.76" stroke-width="1.5" opacity="0" />
  <line id="mol31:Bond:17" class="event" x1="118.87" y1="133.76" x2="117.82" y2="157.24" stroke-width="1.5" opacity="0" />
  <line id="mol31:Bond:19" class="event" x1="158.08" y1="151.81" x2="139.78" y2="169.18" stroke-width="1.5" opacity="0" />
  <line id="mol31:Bond:20" class="event" x1="139.78" y1="169.18" x2="147.31" y2="189.16" stroke-width="1.5" opacity="0" />
  <line id="mol31:Bond:22" class="event" x1="126.49" y1="203.79" x2="103.95" y2="195.47" stroke-width="1.5" opacity="0" />
  <line id="mol31:Bond:24" class="event" x1="117.82" y1="157.24" x2="99.89" y2="171.79" stroke-width="1.5" opacity="0" />
  <line id="mol31:Bond:25" class="event" x1="126.49" y1="203.79" x2="129.59" y2="227.62" stroke-width="1.5" opacity="0" />
  <line id="mol31:Bond:26" class="event" x1="147.31" y1="189.16" x2="171.32" y2="188.36" stroke-width="1.5" opacity="0" />
  <line id="mol31:Bond:27" class="event" x1="177.98" y1="165.27" x2="171.32" y2="188.36" stroke-width="1.5" opacity="0" />
  <line id="mol31:Bond:28" class="event" x1="115.32" y1="125.8" x2="96.23" y2="116.63" stroke-width="1.5" opacity="0" />
  <line id="mol31:Bond:29" class="event" x1="96.23" y1="116.63" x2="75.42" y2="128.65" stroke-width="1.5" opacity="0" />
  <line id="mol31:Bond:30" class="event" x1="75.42" y1="128.65" x2="51.4" y2="128.65" stroke-width="1.5" opacity="0" />
  <line id="mol31:Bond:31" class="event" x1="51.4" y1="128.65" x2="63.41" y2="149.45" stroke-width="1.5" opacity="0" />
  <line id="mol31:Bond:32" class="event" x1="75.42" y1="128.65" x2="63.41" y2="149.45" stroke-width="1.5" opacity="0" />
  <line id="mol31:Bond:33" class="event" x1="199.6" y1="154.78" x2="219.49" y2="168.24" stroke-width="1.5" opacity="0" />
  <line id="mol31:Bond:34" class="event" x1="219.49" y1="168.24" x2="217.78" y2="192.21" stroke-width="1.5" opacity="0" />
  <line id="mol31:Bond:35" class="event" x1="222.92" y1="120.31" x2="224.64" y2="96.35" stroke-width="1.5" opacity="0" />
  <line id="mol31:Bond:36" class="event" x1="224.64" y1="96.35" x2="200.67" y2="94.63" stroke-width="1.5" opacity="0" />
  <line id="mol31:Bond:37" class="event" x1="224.64" y1="96.35" x2="226.35" y2="72.38" stroke-width="1.5" opacity="0" />
  <line id="mol31:Bond:38" class="event" x1="224.64" y1="96.35" x2="248.6" y2="98.06" stroke-width="1.5" opacity="0" />
  <line id="mol31:Bond:39" class="event" x1="222.92" y1="120.31" x2="246.89" y2="122.03" stroke-width="1.5" opacity="0" />
  <circle id="mol31:Atom:0" class="event" cx="233.42" cy="141.92" r="8" opacity="0" />
  <circle id="mol31:Atom:1" class="event" cx="222.92" cy="120.31" r="8" opacity="0" />
  <circle id="mol31:Atom:2" class="event" cx="204.31" cy="130.54" r="8" opacity="0" />
  <circle id="mol31:Atom:3" class="event" cx="180.78" cy="120.02" r="8" opacity="0" />
  <circle id="mol31:Atom:4" class="event" cx="159.8" cy="127.84" r="8" opacity="0" />
  <circle id="mol31:Atom:5" class="event" cx="181.41" cy="111.33" r="8" opacity="0" />
  <circle id="mol31:Atom:6" class="event" cx="195.3" cy="130.81" r="8" opacity="0" />
  <circle id="mol31:Atom:7" class="event" cx="199.6" cy="154.78" r="8" opacity="0" />
  <circle id="mol31:Atom:8" class="event" cx="177.98" cy="165.27" r="8" opacity="0" />
  <circle id="mol31:Atom:9" class="event" cx="158.08" cy="151.81" r="8" opacity="0" />
  <circle id="mol31:Atom:10" class="event" cx="137.51" cy="160.15" r="8" opacity="0" />
  <circle id="mol31:Atom:11" class="event" cx="114.01" cy="149.45" r="8" opacity="0" />
  <circle id="mol31:Atom:12" class="event" cx="115.32" cy="125.8" r="8" opacity="0" />
  <circle id="mol31:Atom:13" class="event" cx="137.41" cy="117.18" r="8" opacity="0" />
  <circle id="mol31:Atom:14" class="event" cx="118.87" cy="133.76" r="8" opacity="0" />
  <circle id="mol31:Atom:15" class="event" cx="117.82" cy="157.24" r="8" opacity="0" />
  <circle id="mol31:Atom:16" class="event" cx="139.78" cy="169.18" r="8" opacity="0" />
  <circle id="mol31:Atom:17" class="event" cx="147.31" cy="189.16" r="8" opacity="0" />
  <circle id="mol31:Atom:18" class="event" cx="126.49" cy="203.79" r="8" opacity="0" />
  <circle id="mol31:Atom:19" class="event" cx="103.95" cy="195.47" r="8" opacity="0" />
  <circle id="mol31:Atom:20" class="event" cx="99.89" cy="171.79" r="8" opacity="0" />
  <circle id="mol31:Atom:21" class="event" cx="129.59" cy="227.62" r="8" opacity="0" />
  <circle id="mol31:Atom:22" class="event" cx="171.32" cy="188.36" r="8" opacity="0" />
  <circle id="mol31:Atom:23" class="event" cx="96.23" cy="116.63" r="8" opacity="0" />
  <circle id="mol31:Atom:24" class="event" cx="75.42" cy="128.65" r="8" opacity="0" />
  <circle id="mol31:Atom:25" class="event" cx="51.4" cy="128.65" r="8" opacity="0" />
  <circle id="mol31:Atom:26" class="event" cx="63.41" cy="149.45" r="8" opacity="0" />
  <circle id="mol31:Atom:27" class="event" cx="219.49" cy="168.24" r="8" opacity="0" />
  <circle id="mol31:Atom:28" class="event" cx="217.78" cy="192.21" r="8" opacity="0" />
  <circle id="mol31:Atom:29" class="event" cx="224.64" cy="96.35" r="8" opacity="0" />
  <circle id="mol31:Atom:30" class="event" cx="200.67" cy="94.63" r="8" opacity="0" />
  <circle id="mol31:Atom:31" class="event" cx="226.35" cy="72.38" r="8" opacity="0" />
  <circle id="mol31:Atom:32" class="event" cx="248.6" cy="98.06" r="8" opacity="0" />
  <circle id="mol31:Atom:33" class="event" cx="246.89" cy="122.03" r="8" opacity="0" />
</svg>