<svg id="mol32" xmlns="http://www.w3.org/2000/svg" version="1.1" width="218px" height="142px" viewBox="47 79 218 142">
  <style> #mol32 text {font-family: sans-serif;} #mol32 { pointer-events:none; } #mol32 .event  { pointer-events:all; } #mol32 line { stroke-linecap:round; } #mol32 polygon { stroke-linejoin:round; } </style>
  <text x="109.79" y="234.5" stroke="none" font-size="12" fill="rgb(160,0,0)">unknown chirality</text>
  <text x="194.15" y="196.24" stroke="none" font-size="14" fill="rgb(129,140,248)">N</text>
  <text x="205.25" y="190.57" stroke="none" font-size="9" fill="rgb(129,140,248)">+</text>
  <text x="194.15" y="182.24" stroke="none" font-size="14" fill="rgb(129,140,248)">H</text>
  <text x="133.75" y="175.45" stroke="none" font-size="14" fill="rgb(248,113,113)">O</text>
  <text x="122.2" y="158" stroke="none" font-size="9" fill="rgb(160,0,0)">?</text>
  <text x="96.59" y="196.24" stroke="none" font-size="14" fill="rgb(31,240,31)">Cl</text>
  <text x="238.19" y="196.24" stroke="none" font-size="14" fill="rgb(31,240,31)">Cl</text>
  <text x="252.41" y="190.57" stroke="none" font-size="9" fill="rgb(31,240,31)">-</text>
  <line x1="139.2" y1="129.22" x2="163.2" y2="129.22" stroke="rgb(228,226,242)" stroke-width="1.5" />
  <line x1="141.76" y1="125.62" x2="160.64" y2="125.62" stroke="rgb(228,226,242)" stroke-width="1.5" />
  <line x1="175.2" y1="108.43" x2="163.2" y2="87.65" stroke="rgb(228,226,242)" stroke-width="1.5" />
  <line x1="170.8" y1="108.01" x2="161.36" y2="91.66" stroke="rgb(228,226,242)" stroke-width="1.5" />
  <line x1="139.2" y1="87.65" x2="127.2" y2="108.43" stroke="rgb(228,226,242)" stroke-width="1.5" />
  <line x1="141.04" y1="91.66" x2="131.6" y2="108.01" stroke="rgb(228,226,242)" stroke-width="1.5" />
  <line x1="103.2" y1="150" x2="91.2" y2="129.22" stroke="rgb(228,226,242)" stroke-width="1.5" />
  <line x1="98.8" y1="149.58" x2="89.36" y2="133.23" stroke="rgb(228,226,242)" stroke-width="1.5" />
  <line x1="67.2" y1="129.22" x2="55.2" y2="150" stroke="rgb(228,226,242)" stroke-width="1.5" />
  <line x1="69.04" y1="133.23" x2="59.6" y2="149.58" stroke="rgb(228,226,242)" stroke-width="1.5" />
  <line x1="67.2" y1="170.78" x2="91.2" y2="170.78" stroke="rgb(228,226,242)" stroke-width="1.5" />
  <line x1="69.76" y1="167.18" x2="88.64" y2="167.18" stroke="rgb(228,226,242)" stroke-width="1.5" />
  <line x1="211.2" y1="212.35" x2="203.24" y2="198.57" stroke="rgb(228,226,242)" stroke-width="1.5" />
  <line x1="203.24" y1="184.57" x2="211.2" y2="170.78" stroke="rgb(228,226,242)" stroke-width="1.5" />
  <line x1="193.15" y1="191.57" x2="175.2" y2="191.57" stroke="rgb(228,226,242)" stroke-width="1.5" />
  <line x1="175.2" y1="191.57" x2="163.2" y2="170.78" stroke="rgb(228,226,242)" stroke-width="1.5" />
  <line x1="163.2" y1="170.78" x2="145.65" y2="170.78" stroke="rgb(228,226,242)" stroke-width="1.5" />
  <line x1="135.16" y1="163.78" x2="127.2" y2="150" stroke="rgb(228,226,242)" stroke-width="1.5" />
  <line x1="127.2" y1="150" x2="139.2" y2="129.22" stroke="rgb(228,226,242)" stroke-width="1.5" />
  <line x1="163.2" y1="129.22" x2="175.2" y2="108.43" stroke="rgb(228,226,242)" stroke-width="1.5" />
  <line x1="163.2" y1="87.65" x2="139.2" y2="87.65" stroke="rgb(228,226,242)" stroke-width="1.5" />
  <line x1="139.2" y1="129.22" x2="127.2" y2="108.43" stroke="rgb(228,226,242)" stroke-width="1.5" />
  <line x1="127.2" y1="150" x2="103.2" y2="150" stroke="rgb(228,226,242)" stroke-width="1.5" />
  <line x1="91.2" y1="129.22" x2="67.2" y2="129.22" stroke="rgb(228,226,242)" stroke-width="1.5" />
  <line x1="55.2" y1="150" x2="67.2" y2="170.78" stroke="rgb(228,226,242)" stroke-width="1.5" />
  <line x1="103.2" y1="150" x2="91.2" y2="170.78" stroke="rgb(228,226,242)" stroke-width="1.5" />
  <line x1="91.2" y1="170.78" x2="99.16" y2="184.57" stroke="rgb(228,226,242)" stroke-width="1.5" />
  <line id="mol32:Bond:7" class="event" x1="139.2" y1="129.22" x2="163.2" y2="129.22" stroke-width="1.5" opacity="0" />
  <line id="mol32:Bond:9" class="event" x1="175.2" y1="108.43" x2="163.2" y2="87.65" stroke-width="1.5" opacity="0" />
  <line id="mol32:Bond:11" class="event" x1="139.2" y1="87.65" x2="127.2" y2="108.43" stroke-width="1.5" opacity="0" />
  <line id="mol32:Bond:14" class="event" x1="103.2" y1="150" x2="91.2" y2="129.22" stroke-width="1.5" opacity="0" />
  <line id="mol32:Bond:16" class="event" x1="67.2" y1="129.22" x2="55.2" y2="150" stroke-width="1.5" opacity="0" />
  <line id="mol32:Bond:18" class="event" x1="67.2" y1="170.78" x2="91.2" y2="170.78" stroke-width="1.5" opacity="0" />
  <line id="mol32:Bond:0" class="event" x1="211.2" y1="212.35" x2="199.2" y2="191.57" stroke-width="1.5" opacity="0" />
  <line id="mol32:Bond:1" class="event" x1="199.2" y1="191.57" x2="211.2" y2="170.78" stroke-width="1.5" opacity="0" />
  <line id="mol32:Bond:2" class="event" x1="199.2" y1="191.57" x2="175.2" y2="191.57" stroke-width="1.5" opacity="0" />
  <line id="mol32:Bond:3" class="event" x1="175.2" y1="191.57" x2="163.2" y2="170.78" stroke-width="1.5" opacity="0" />
  <line id="mol32:Bond:4" class="event" x1="163.2" y1="170.78" x2="139.2" y2="170.78" stroke-width="1.5" opacity="0" />
  <line id="mol32:Bond:5" class="event" x1="139.2" y1="170.78" x2="127.2" y2="150" stroke-width="1.5" opacity="0" />
  <line id="mol32:Bond:6" class="event" x1="127.2" y1="150" x2="139.2" y2="129.22" stroke-width="1.5" opacity="0" />
  <line id="mol32:Bond:8" class="event" x1="163.2" y1="129.22" x2="175.2" y2="108.43" stroke-width="1.5" opacity="0" />
  <line id="mol32:Bond:10" class="event" x1="163.2" y1="87.65" x2="139.2" y2="87.65" stroke-width="1.5" opacity="0" />
  <line id="mol32:Bond:12" class="event" x1="139.2" y1="129.22" x2="127.2" y2="108.43" stroke-width="1.5" opacity="0" />
  <line id="mol32:Bond:13" class="event" x1="127.2" y1="150" x2="103.2" y2="150" stroke-width="1.5" opacity="0" />
  <line id="mol32:Bond:15" class="event" x1="91.2" y1="129.22" x2="67.2" y2="129.22" stroke-width="1.5" opacity="0" />
  <line id="mol32:Bond:17" class="event" x1="55.2" y1="150" x2="67.2" y2="170.78" stroke-width="1.5" opacity="0" />
  <line id="mol32:Bond:19" class="event" x1="103.2" y1="150" x2="91.2" y2="170.78" stroke-width="1.5" opacity="0" />
  <line id="mol32:Bond:20" class="event" x1="91.2" y1="170.78" x2="103.2" y2="191.57" stroke-width="1.5" opacity="0" />
  <circle id="mol32:Atom:0" class="event" cx="211.2" cy="212.35" r="8" opacity="0" />
  <circle id="mol32:Atom:1" class="event" cx="199.2" cy="191.57" r="8" opacity="0" />
  <circle id="mol32:Atom:2" class="event" cx="211.2" cy="170.78" r="8" opacity="0" />
  <circle id="mol32:Atom:3" class="event" cx="175.2" cy="191.57" r="8" opacity="0" />
  <circle id="mol32:Atom:4" class="event" cx="163.2" cy="170.78" r="8" opacity="0" />
  <circle id="mol32:Atom:5" class="event" cx="139.2" cy="170.78" r="8" opacity="0" />
  <circle id="mol32:Atom:6" class="event" cx="127.2" cy="150" r="8" opacity="0" />
  <circle id="mol32:Atom:7" class="event" cx="139.2" cy="129.22" r="8" opacity="0" />
  <circle id="mol32:Atom:8" class="event" cx="163.2" cy="129.22" r="8" opacity="0" />
  <circle id="mol32:Atom:9" class="event" cx="175.2" cy="108.43" r="8" opacity="0" />
  <circle id="mol32:Atom:10" class="event" cx="163.2" cy="87.65" r="8" opacity="0" />
  <circle id="mol32:Atom:11" class="event" cx="139.2" cy="87.65" r="8" opacity="0" />
  <circle id="mol32:Atom:12" class="event" cx="127.2" cy="108.43" r="8" opacity="0" />
  <circle id="mol32:Atom:13" class="event" cx="103.2" cy="150" r="8" opacity="0" />
  <circle id="mol32:Atom:14" class="event" cx="91.2" cy="129.22" r="8" opacity="0" />
  <circle id="mol32:Atom:15" class="event" cx="67.2" cy="129.22" r="8" opacity="0" />
  <circle id="mol32:Atom:16" class="event" cx="55.2" cy="150" r="8" opacity="0" />
  <circle id="mol32:Atom:17" class="event" cx="67.2" cy="170.78" r="8" opacity="0" />
  <circle id="mol32:Atom:18" class="event" cx="91.2" cy="170.78" r="8" opacity="0" />
  <circle id="mol32:Atom:19" class="event" cx="103.2" cy="191.57" r="8" opacity="0" />
  <circle id="mol32:Atom:20" class="event" cx="244.8" cy="191.57" r="8" opacity="0" />
</svg>