<svg id="mol32" xmlns="http://www.w3.org/2000/svg" version="1.1" width="171px" height="137px" viewBox="58 82 171 137">
  <style> #mol32 text {font-family: sans-serif;} #mol32 { pointer-events:none; } #mol32 .event  { pointer-events:all; } #mol32 line { stroke-linecap:round; } #mol32 polygon { stroke-linejoin:round; } </style>
  <text x="165.34" y="202.67" stroke="none" font-size="14" fill="rgb(248,113,113)">O</text>
  <text x="82.59" y="178.67" stroke="none" font-size="14" fill="rgb(129,140,248)">N</text>
  <text x="77.59" y="182" stroke="none" font-size="9" fill="rgb(129,140,248)">2</text>
  <text x="67.48" y="178.67" stroke="none" font-size="14" fill="rgb(129,140,248)">H</text>
  <text x="165.34" y="106.67" stroke="none" font-size="14" fill="rgb(248,113,113)">O</text>
  <text x="205.35" y="130.67" stroke="none" font-size="14" fill="rgb(166,41,41)">Br</text>
  <line x1="170.78" y1="174" x2="191.57" y2="162" stroke="rgb(228,226,242)" stroke-width="1.5" />
  <line x1="171.2" y1="169.6" x2="187.55" y2="160.16" stroke="rgb(228,226,242)" stroke-width="1.5" />
  <line x1="191.57" y1="138" x2="170.78" y2="126" stroke="rgb(228,226,242)" stroke-width="1.5" />
  <line x1="187.55" y1="139.84" x2="171.2" y2="130.4" stroke="rgb(228,226,242)" stroke-width="1.5" />
  <line x1="150" y1="138" x2="150" y2="162" stroke="rgb(228,226,242)" stroke-width="1.5" />
  <line x1="153.6" y1="140.56" x2="153.6" y2="159.44" stroke="rgb(228,226,242)" stroke-width="1.5" />
  <line x1="150" y1="210" x2="164.34" y2="201.72" stroke="rgb(228,226,242)" stroke-width="1.5" />
  <line x1="170.78" y1="191" x2="170.78" y2="174" stroke="rgb(228,226,242)" stroke-width="1.5" />
  <line x1="191.57" y1="162" x2="191.57" y2="138" stroke="rgb(228,226,242)" stroke-width="1.5" />
  <line x1="170.78" y1="126" x2="150" y2="138" stroke="rgb(228,226,242)" stroke-width="1.5" />
  <line x1="170.78" y1="174" x2="150" y2="162" stroke="rgb(228,226,242)" stroke-width="1.5" />
  <line x1="150" y1="162" x2="129.22" y2="174" stroke="rgb(228,226,242)" stroke-width="1.5" />
  <line x1="129.22" y1="174" x2="108.43" y2="162" stroke="rgb(228,226,242)" stroke-width="1.5" />
  <line x1="108.43" y1="162" x2="93.7" y2="170.5" stroke="rgb(228,226,242)" stroke-width="1.5" />
  <line x1="170.78" y1="126" x2="170.78" y2="109" stroke="rgb(228,226,242)" stroke-width="1.5" />
  <line x1="164.34" y1="98.28" x2="150" y2="90" stroke="rgb(228,226,242)" stroke-width="1.5" />
  <line x1="191.57" y1="138" x2="204.35" y2="130.62" stroke="rgb(228,226,242)" stroke-width="1.5" />
  <line id="mol32:Bond:2" class="event" x1="170.78" y1="174" x2="191.57" y2="162" stroke-width="1.5" opacity="0" />
  <line id="mol32:Bond:4" class="event" x1="191.57" y1="138" x2="170.78" y2="126" stroke-width="1.5" opacity="0" />
  <line id="mol32:Bond:6" class="event" x1="150" y1="138" x2="150" y2="162" stroke-width="1.5" opacity="0" />
  <line id="mol32:Bond:0" class="event" x1="150" y1="210" x2="170.78" y2="198" stroke-width="1.5" opacity="0" />
  <line id="mol32:Bond:1" class="event" x1="170.78" y1="198" x2="170.78" y2="174" stroke-width="1.5" opacity="0" />
  <line id="mol32:Bond:3" class="event" x1="191.57" y1="162" x2="191.57" y2="138" stroke-width="1.5" opacity="0" />
  <line id="mol32:Bond:5" class="event" x1="170.78" y1="126" x2="150" y2="138" stroke-width="1.5" opacity="0" />
  <line id="mol32:Bond:7" class="event" x1="170.78" y1="174" x2="150" y2="162" stroke-width="1.5" opacity="0" />
  <line id="mol32:Bond:8" class="event" x1="150" y1="162" x2="129.22" y2="174" stroke-width="1.5" opacity="0" />
  <line id="mol32:Bond:9" class="event" x1="129.22" y1="174" x2="108.43" y2="162" stroke-width="1.5" opacity="0" />
  <line id="mol32:Bond:10" class="event" x1="108.43" y1="162" x2="87.65" y2="174" stroke-width="1.5" opacity="0" />
  <line id="mol32:Bond:11" class="event" x1="170.78" y1="126" x2="170.78" y2="102" stroke-width="1.5" opacity="0" />
  <line id="mol32:Bond:12" class="event" x1="170.78" y1="102" x2="150" y2="90" stroke-width="1.5" opacity="0" />
  <line id="mol32:Bond:13" class="event" x1="191.57" y1="138" x2="212.35" y2="126" stroke-width="1.5" opacity="0" />
  <circle id="mol32:Atom:0" class="event" cx="150" cy="210" r="8" opacity="0" />
  <circle id="mol32:Atom:1" class="event" cx="170.78" cy="198" r="8" opacity="0" />
  <circle id="mol32:Atom:2" class="event" cx="170.78" cy="174" r="8" opacity="0" />
  <circle id="mol32:Atom:3" class="event" cx="191.57" cy="162" r="8" opacity="0" />
  <circle id="mol32:Atom:4" class="event" cx="191.57" cy="138" r="8" opacity="0" />
  <circle id="mol32:Atom:5" class="event" cx="170.78" cy="126" r="8" opacity="0" />
  <circle id="mol32:Atom:6" class="event" cx="150" cy="138" r="8" opacity="0" />
  <circle id="mol32:Atom:7" class="event" cx="150" cy="162" r="8" opacity="0" />
  <circle id="mol32:Atom:8" class="event" cx="129.22" cy="174" r="8" opacity="0" />
  <circle id="mol32:Atom:9" class="event" cx="108.43" cy="162" r="8" opacity="0" />
  <circle id="mol32:Atom:10" class="event" cx="87.65" cy="174" r="8" opacity="0" />
  <circle id="mol32:Atom:11" class="event" cx="170.78" cy="102" r="8" opacity="0" />
  <circle id="mol32:Atom:12" class="event" cx="150" cy="90" r="8" opacity="0" />
  <circle id="mol32:Atom:13" class="event" cx="212.35" cy="126" r="8" opacity="0" />
</svg>