<svg id="mol34" xmlns="http://www.w3.org/2000/svg" version="1.1" width="175px" height="122px" viewBox="54 89 175 122">
  <style> #mol34 text {font-family: sans-serif;} #mol34 { pointer-events:none; } #mol34 .event  { pointer-events:all; } #mol34 line { stroke-linecap:round; } #mol34 polygon { stroke-linejoin:round; } </style>
  <text x="174.33" y="125.91" stroke="none" font-size="14" fill="rgb(129,140,248)">N</text>
  <text x="73.99" y="145.98" stroke="none" font-size="14" fill="rgb(129,140,248)">N</text>
  <text x="63.88" y="145.98" stroke="none" font-size="14" fill="rgb(129,140,248)">H</text>
  <text x="148.61" y="174.62" stroke="none" font-size="14" fill="rgb(248,113,113)">O</text>
  <text x="159.5" y="174.62" stroke="none" font-size="14" fill="rgb(248,113,113)">H</text>
  <line x1="117.03" y1="133.24" x2="95.11" y2="123.48" stroke="rgb(228,226,242)" stroke-width="1.5" />
  <line x1="112.81" y1="135.3" x2="96.4" y2="127.99" stroke="rgb(228,226,242)" stroke-width="1.5" />
  <line x1="91.05" y1="162.1" x2="114.52" y2="157.11" stroke="rgb(228,226,242)" stroke-width="1.5" />
  <line x1="94.3" y1="165.09" x2="112.77" y2="161.16" stroke="rgb(228,226,242)" stroke-width="1.5" />
  <line x1="130.58" y1="174.94" x2="123.16" y2="197.77" stroke="rgb(228,226,242)" stroke-width="1.5" />
  <line x1="126.37" y1="176.27" x2="120.53" y2="194.22" stroke="rgb(228,226,242)" stroke-width="1.5" />
  <line x1="99.69" y1="202.76" x2="83.63" y2="184.92" stroke="rgb(228,226,242)" stroke-width="1.5" />
  <line x1="100.65" y1="198.45" x2="88.02" y2="184.42" stroke="rgb(228,226,242)" stroke-width="1.5" />
  <line x1="220.95" y1="121.24" x2="200.17" y2="133.24" stroke="rgb(228,226,242)" stroke-width="1.5" />
  <line x1="200.17" y1="133.24" x2="185.44" y2="124.74" stroke="rgb(228,226,242)" stroke-width="1.5" />
  <line x1="179.38" y1="114.24" x2="179.38" y2="97.24" stroke="rgb(228,226,242)" stroke-width="1.5" />
  <line x1="173.33" y1="124.74" x2="158.6" y2="133.24" stroke="rgb(228,226,242)" stroke-width="1.5" />
  <line x1="158.6" y1="133.24" x2="137.82" y2="121.24" stroke="rgb(228,226,242)" stroke-width="1.5" />
  <line x1="137.82" y1="121.24" x2="117.03" y2="133.24" stroke="rgb(228,226,242)" stroke-width="1.5" />
  <line x1="95.11" y1="123.48" x2="85.1" y2="134.59" stroke="rgb(228,226,242)" stroke-width="1.5" />
  <line x1="83.09" y1="148.31" x2="91.05" y2="162.1" stroke="rgb(228,226,242)" stroke-width="1.5" />
  <line x1="117.03" y1="133.24" x2="114.52" y2="157.11" stroke="rgb(228,226,242)" stroke-width="1.5" />
  <line x1="114.52" y1="157.11" x2="130.58" y2="174.94" stroke="rgb(228,226,242)" stroke-width="1.5" />
  <line x1="123.16" y1="197.77" x2="99.69" y2="202.76" stroke="rgb(228,226,242)" stroke-width="1.5" />
  <line x1="91.05" y1="162.1" x2="83.63" y2="184.92" stroke="rgb(228,226,242)" stroke-width="1.5" />
  <line x1="130.58" y1="174.94" x2="147.61" y2="171.32" stroke="rgb(228,226,242)" stroke-width="1.5" />
  <line id="mol34:Bond:6" class="event" x1="117.03" y1="133.24" x2="95.11" y2="123.48" stroke-width="1.5" opacity="0" />
  <line id="mol34:Bond:9" class="event" x1="91.05" y1="162.1" x2="114.52" y2="157.11" stroke-width="1.5" opacity="0" />
  <line id="mol34:Bond:12" class="event" x1="130.58" y1="174.94" x2="123.16" y2="197.77" stroke-width="1.5" opacity="0" />
  <line id="mol34:Bond:14" class="event" x1="99.69" y1="202.76" x2="83.63" y2="184.92" stroke-width="1.5" opacity="0" />
  <line id="mol34:Bond:0" class="event" x1="220.95" y1="121.24" x2="200.17" y2="133.24" stroke-width="1.5" opacity="0" />
  <line id="mol34:Bond:1" class="event" x1="200.17" y1="133.24" x2="179.38" y2="121.24" stroke-width="1.5" opacity="0" />
  <line id="mol34:Bond:2" class="event" x1="179.38" y1="121.24" x2="179.38" y2="97.24" stroke-width="1.5" opacity="0" />
  <line id="mol34:Bond:3" class="event" x1="179.38" y1="121.24" x2="158.6" y2="133.24" stroke-width="1.5" opacity="0" />
  <line id="mol34:Bond:4" class="event" x1="158.6" y1="133.24" x2="137.82" y2="121.24" stroke-width="1.5" opacity="0" />
  <line id="mol34:Bond:5" class="event" x1="137.82" y1="121.24" x2="117.03" y2="133.24" stroke-width="1.5" opacity="0" />
  <line id="mol34:Bond:7" class="event" x1="95.11" y1="123.48" x2="79.05" y2="141.31" stroke-width="1.5" opacity="0" />
  <line id="mol34:Bond:8" class="event" x1="79.05" y1="141.31" x2="91.05" y2="162.1" stroke-width="1.5" opacity="0" />
  <line id="mol34:Bond:10" class="event" x1="117.03" y1="133.24" x2="114.52" y2="157.11" stroke-width="1.5" opacity="0" />
  <line id="mol34:Bond:11" class="event" x1="114.52" y1="157.11" x2="130.58" y2="174.94" stroke-width="1.5" opacity="0" />
  <line id="mol34:Bond:13" class="event" x1="123.16" y1="197.77" x2="99.69" y2="202.76" stroke-width="1.5" opacity="0" />
  <line id="mol34:Bond:15" class="event" x1="91.05" y1="162.1" x2="83.63" y2="184.92" stroke-width="1.5" opacity="0" />
  <line id="mol34:Bond:16" class="event" x1="130.58" y1="174.94" x2="154.06" y2="169.95" stroke-width="1.5" opacity="0" />
  <circle id="mol34:Atom:0" class="event" cx="220.95" cy="121.24" r="8" opacity="0" />
  <circle id="mol34:Atom:1" class="event" cx="200.17" cy="133.24" r="8" opacity="0" />
  <circle id="mol34:Atom:2" class="event" cx="179.38" cy="121.24" r="8" opacity="0" />
  <circle id="mol34:Atom:3" class="event" cx="179.38" cy="97.24" r="8" opacity="0" />
  <circle id="mol34:Atom:4" class="event" cx="158.6" cy="133.24" r="8" opacity="0" />
  <circle id="mol34:Atom:5" class="event" cx="137.82" cy="121.24" r="8" opacity="0" />
  <circle id="mol34:Atom:6" class="event" cx="117.03" cy="133.24" r="8" opacity="0" />
  <circle id="mol34:Atom:7" class="event" cx="95.11" cy="123.48" r="8" opacity="0" />
  <circle id="mol34:Atom:8" class="event" cx="79.05" cy="141.31" r="8" opacity="0" />
  <circle id="mol34:Atom:9" class="event" cx="91.05" cy="162.1" r="8" opacity="0" />
  <circle id="mol34:Atom:10" class="event" cx="114.52" cy="157.11" r="8" opacity="0" />
  <circle id="mol34:Atom:11" class="event" cx="130.58" cy="174.94" r="8" opacity="0" />
  <circle id="mol34:Atom:12" class="event" cx="123.16" cy="197.77" r="8" opacity="0" />
  <circle id="mol34:Atom:13" class="event" cx="99.69" cy="202.76" r="8" opacity="0" />
  <circle id="mol34:Atom:14" class="event" cx="83.63" cy="184.92" r="8" opacity="0" />
  <circle id="mol34:Atom:15" class="event" cx="154.06" cy="169.95" r="8" opacity="0" />
</svg>