<svg id="mol35" xmlns="http://www.w3.org/2000/svg" version="1.1" width="169px" height="144px" viewBox="66 82 169 144">
  <style> #mol35 text {font-family: sans-serif;} #mol35 { pointer-events:none; } #mol35 .event  { pointer-events:all; } #mol35 line { stroke-linecap:round; } #mol35 polygon { stroke-linejoin:round; } </style>
  <text x="195.86" y="107.54" stroke="none" font-size="14" fill="rgb(248,113,113)">O</text>
  <text x="164.97" y="135.36" stroke="none" font-size="14" fill="rgb(248,113,113)">O</text>
  <text x="178.06" y="214.64" stroke="none" font-size="14" fill="rgb(129,140,248)">N</text>
  <text x="188.17" y="214.64" stroke="none" font-size="14" fill="rgb(129,140,248)">H</text>
  <text x="89.72" y="173.78" stroke="none" font-size="14" fill="rgb(129,140,248)">N</text>
  <line x1="177.19" y1="109.84" x2="195.23" y2="106.01" stroke="rgb(228,226,242)" stroke-width="1.5" />
  <line x1="176.44" y1="106.32" x2="194.49" y2="102.48" stroke="rgb(228,226,242)" stroke-width="1.5" />
  <line x1="186.47" y1="148.53" x2="209.95" y2="143.54" stroke="rgb(228,226,242)" stroke-width="1.5" />
  <line x1="189.73" y1="151.51" x2="208.19" y2="147.59" stroke="rgb(228,226,242)" stroke-width="1.5" />
  <line x1="226.01" y1="161.37" x2="218.59" y2="184.2" stroke="rgb(228,226,242)" stroke-width="1.5" />
  <line x1="221.79" y1="162.69" x2="215.96" y2="180.65" stroke="rgb(228,226,242)" stroke-width="1.5" />
  <line x1="195.12" y1="189.19" x2="179.06" y2="171.35" stroke="rgb(228,226,242)" stroke-width="1.5" />
  <line x1="196.08" y1="184.87" x2="183.45" y2="170.84" stroke="rgb(228,226,242)" stroke-width="1.5" />
  <line x1="157.13" y1="181.11" x2="159.64" y2="204.98" stroke="rgb(228,226,242)" stroke-width="1.5" />
  <line x1="161.03" y1="183.73" x2="162.9" y2="201.61" stroke="rgb(228,226,242)" stroke-width="1.5" />
  <line x1="161.77" y1="90.03" x2="177.83" y2="107.86" stroke="rgb(228,226,242)" stroke-width="1.5" />
  <line x1="177.83" y1="107.86" x2="172.69" y2="123.69" stroke="rgb(228,226,242)" stroke-width="1.5" />
  <line x1="176.72" y1="137.69" x2="186.47" y2="148.53" stroke="rgb(228,226,242)" stroke-width="1.5" />
  <line x1="209.95" y1="143.54" x2="226.01" y2="161.37" stroke="rgb(228,226,242)" stroke-width="1.5" />
  <line x1="218.59" y1="184.2" x2="195.12" y2="189.19" stroke="rgb(228,226,242)" stroke-width="1.5" />
  <line x1="186.47" y1="148.53" x2="179.06" y2="171.35" stroke="rgb(228,226,242)" stroke-width="1.5" />
  <line x1="179.06" y1="171.35" x2="157.13" y2="181.11" stroke="rgb(228,226,242)" stroke-width="1.5" />
  <line x1="159.64" y1="204.98" x2="177.06" y2="208.68" stroke="rgb(228,226,242)" stroke-width="1.5" />
  <line x1="195.12" y1="189.19" x2="187.16" y2="202.97" stroke="rgb(228,226,242)" stroke-width="1.5" />
  <line x1="157.13" y1="181.11" x2="136.35" y2="169.11" stroke="rgb(228,226,242)" stroke-width="1.5" />
  <line x1="136.35" y1="169.11" x2="115.56" y2="181.11" stroke="rgb(228,226,242)" stroke-width="1.5" />
  <line x1="115.56" y1="181.11" x2="100.83" y2="172.61" stroke="rgb(228,226,242)" stroke-width="1.5" />
  <line x1="94.78" y1="162.11" x2="94.78" y2="145.11" stroke="rgb(228,226,242)" stroke-width="1.5" />
  <line x1="88.72" y1="172.61" x2="73.99" y2="181.11" stroke="rgb(228,226,242)" stroke-width="1.5" />
  <line id="mol35:Bond:1" class="event" x1="177.83" y1="107.86" x2="201.31" y2="102.87" stroke-width="1.5" opacity="0" />
  <line id="mol35:Bond:4" class="event" x1="186.47" y1="148.53" x2="209.95" y2="143.54" stroke-width="1.5" opacity="0" />
  <line id="mol35:Bond:6" class="event" x1="226.01" y1="161.37" x2="218.59" y2="184.2" stroke-width="1.5" opacity="0" />
  <line id="mol35:Bond:8" class="event" x1="195.12" y1="189.19" x2="179.06" y2="171.35" stroke-width="1.5" opacity="0" />
  <line id="mol35:Bond:11" class="event" x1="157.13" y1="181.11" x2="159.64" y2="204.98" stroke-width="1.5" opacity="0" />
  <line id="mol35:Bond:0" class="event" x1="161.77" y1="90.03" x2="177.83" y2="107.86" stroke-width="1.5" opacity="0" />
  <line id="mol35:Bond:2" class="event" x1="177.83" y1="107.86" x2="170.41" y2="130.69" stroke-width="1.5" opacity="0" />
  <line id="mol35:Bond:3" class="event" x1="170.41" y1="130.69" x2="186.47" y2="148.53" stroke-width="1.5" opacity="0" />
  <line id="mol35:Bond:5" class="event" x1="209.95" y1="143.54" x2="226.01" y2="161.37" stroke-width="1.5" opacity="0" />
  <line id="mol35:Bond:7" class="event" x1="218.59" y1="184.2" x2="195.12" y2="189.19" stroke-width="1.5" opacity="0" />
  <line id="mol35:Bond:9" class="event" x1="186.47" y1="148.53" x2="179.06" y2="171.35" stroke-width="1.5" opacity="0" />
  <line id="mol35:Bond:10" class="event" x1="179.06" y1="171.35" x2="157.13" y2="181.11" stroke-width="1.5" opacity="0" />
  <line id="mol35:Bond:12" class="event" x1="159.64" y1="204.98" x2="183.12" y2="209.97" stroke-width="1.5" opacity="0" />
  <line id="mol35:Bond:13" class="event" x1="195.12" y1="189.19" x2="183.12" y2="209.97" stroke-width="1.5" opacity="0" />
  <line id="mol35:Bond:14" class="event" x1="157.13" y1="181.11" x2="136.35" y2="169.11" stroke-width="1.5" opacity="0" />
  <line id="mol35:Bond:15" class="event" x1="136.35" y1="169.11" x2="115.56" y2="181.11" stroke-width="1.5" opacity="0" />
  <line id="mol35:Bond:16" class="event" x1="115.56" y1="181.11" x2="94.78" y2="169.11" stroke-width="1.5" opacity="0" />
  <line id="mol35:Bond:17" class="event" x1="94.78" y1="169.11" x2="94.78" y2="145.11" stroke-width="1.5" opacity="0" />
  <line id="mol35:Bond:18" class="event" x1="94.78" y1="169.11" x2="73.99" y2="181.11" stroke-width="1.5" opacity="0" />
  <circle id="mol35:Atom:0" class="event" cx="161.77" cy="90.03" r="8" opacity="0" />
  <circle id="mol35:Atom:1" class="event" cx="177.83" cy="107.86" r="8" opacity="0" />
  <circle id="mol35:Atom:2" class="event" cx="201.31" cy="102.87" r="8" opacity="0" />
  <circle id="mol35:Atom:3" class="event" cx="170.41" cy="130.69" r="8" opacity="0" />
  <circle id="mol35:Atom:4" class="event" cx="186.47" cy="148.53" r="8" opacity="0" />
  <circle id="mol35:Atom:5" class="event" cx="209.95" cy="143.54" r="8" opacity="0" />
  <circle id="mol35:Atom:6" class="event" cx="226.01" cy="161.37" r="8" opacity="0" />
  <circle id="mol35:Atom:7" class="event" cx="218.59" cy="184.2" r="8" opacity="0" />
  <circle id="mol35:Atom:8" class="event" cx="195.12" cy="189.19" r="8" opacity="0" />
  <circle id="mol35:Atom:9" class="event" cx="179.06" cy="171.35" r="8" opacity="0" />
  <circle id="mol35:Atom:10" class="event" cx="157.13" cy="181.11" r="8" opacity="0" />
  <circle id="mol35:Atom:11" class="event" cx="159.64" cy="204.98" r="8" opacity="0" />
  <circle id="mol35:Atom:12" class="event" cx="183.12" cy="209.97" r="8" opacity="0" />
  <circle id="mol35:Atom:13" class="event" cx="136.35" cy="169.11" r="8" opacity="0" />
  <circle id="mol35:Atom:14" class="event" cx="115.56" cy="181.11" r="8" opacity="0" />
  <circle id="mol35:Atom:15" class="event" cx="94.78" cy="169.11" r="8" opacity="0" />
  <circle id="mol35:Atom:16" class="event" cx="94.78" cy="145.11" r="8" opacity="0" />
  <circle id="mol35:Atom:17" class="event" cx="73.99" cy="181.11" r="8" opacity="0" />
</svg>