<svg id="mol35" xmlns="http://www.w3.org/2000/svg" version="1.1" width="312px" height="160px" viewBox="-6 70 312 160">
  <style> #mol35 text {font-family: sans-serif;} #mol35 { pointer-events:none; } #mol35 .event  { pointer-events:all; } #mol35 line { stroke-linecap:round; } #mol35 polygon { stroke-linejoin:round; } </style>
  <text x="123.16" y="235.64" stroke="none" font-size="7" fill="rgb(160,0,0)">unknown chirality</text>
  <text x="279.89" y="164.16" stroke="none" font-size="8" fill="rgb(248,113,113)">O</text>
  <text x="272.04" y="141.37" stroke="none" font-size="8" fill="rgb(205,205,38)">S</text>
  <text x="234.76" y="141.94" stroke="none" font-size="8" fill="rgb(129,140,248)">N</text>
  <text x="234.76" y="149.94" stroke="none" font-size="8" fill="rgb(129,140,248)">H</text>
  <text x="226.24" y="119.15" stroke="none" font-size="8" fill="rgb(248,113,113)">O</text>
  <text x="186.98" y="133.52" stroke="none" font-size="8" fill="rgb(129,140,248)">N</text>
  <text x="186.98" y="141.52" stroke="none" font-size="8" fill="rgb(129,140,248)">H</text>
  <text x="178.46" y="110.72" stroke="none" font-size="8" fill="rgb(248,113,113)">O</text>
  <text x="162.36" y="131.31" stroke="none" font-size="5" fill="rgb(160,0,0)">R</text>
  <text x="162.55" y="124.86" stroke="none" font-size="5" fill="rgb(160,0,0)">abs</text>
  <text x="128.24" y="116.09" stroke="none" font-size="8" fill="rgb(248,113,113)">O</text>
  <text x="115.52" y="120.88" stroke="none" font-size="8" fill="rgb(255,128,0)">P</text>
  <text x="112.74" y="122.88" stroke="none" font-size="5" fill="rgb(160,0,0)">?</text>
  <text x="119.87" y="134.04" stroke="none" font-size="8" fill="rgb(248,113,113)">O</text>
  <text x="106.07" y="131.61" stroke="none" font-size="8" fill="rgb(248,113,113)">O</text>
  <text x="113.3" y="128.61" stroke="none" font-size="5" fill="rgb(248,113,113)">-</text>
  <text x="104.34" y="111.88" stroke="none" font-size="8" fill="rgb(248,113,113)">O</text>
  <text x="91.63" y="116.67" stroke="none" font-size="8" fill="rgb(255,128,0)">P</text>
  <text x="88.85" y="118.67" stroke="none" font-size="5" fill="rgb(160,0,0)">?</text>
  <text x="86.39" y="103.5" stroke="none" font-size="8" fill="rgb(248,113,113)">O</text>
  <text x="77.39" y="114.23" stroke="none" font-size="8" fill="rgb(248,113,113)">O</text>
  <text x="71.61" y="114.23" stroke="none" font-size="8" fill="rgb(248,113,113)">H</text>
  <text x="88.75" y="130.46" stroke="none" font-size="8" fill="rgb(248,113,113)">O</text>
  <text x="72.66" y="151.05" stroke="none" font-size="5" fill="rgb(160,0,0)">R</text>
  <text x="75.58" y="147.02" stroke="none" font-size="5" fill="rgb(160,0,0)">abs</text>
  <text x="60.34" y="157.19" stroke="none" font-size="5" fill="rgb(160,0,0)">S</text>
  <text x="59.71" y="150.69" stroke="none" font-size="5" fill="rgb(160,0,0)">abs</text>
  <text x="62.02" y="171.06" stroke="none" font-size="5" fill="rgb(160,0,0)">R</text>
  <text x="64.11" y="165.63" stroke="none" font-size="5" fill="rgb(160,0,0)">abs</text>
  <text x="75.81" y="173.49" stroke="none" font-size="5" fill="rgb(160,0,0)">R</text>
  <text x="78.89" y="170.55" stroke="none" font-size="5" fill="rgb(160,0,0)">abs</text>
  <text x="82.89" y="159.12" stroke="none" font-size="8" fill="rgb(248,113,113)">O</text>
  <text x="82.67" y="184.08" stroke="none" font-size="8" fill="rgb(129,140,248)">N</text>
  <text x="85.83" y="206.52" stroke="none" font-size="8" fill="rgb(129,140,248)">N</text>
  <text x="122.44" y="197.01" stroke="none" font-size="8" fill="rgb(129,140,248)">N</text>
  <text x="107.51" y="177.89" stroke="none" font-size="8" fill="rgb(129,140,248)">N</text>
  <text x="113.35" y="219.5" stroke="none" font-size="8" fill="rgb(129,140,248)">N</text>
  <text x="124.91" y="221.5" stroke="none" font-size="5" fill="rgb(129,140,248)">2</text>
  <text x="119.13" y="219.5" stroke="none" font-size="8" fill="rgb(129,140,248)">H</text>
  <text x="52.44" y="178.79" stroke="none" font-size="8" fill="rgb(248,113,113)">O</text>
  <text x="46.66" y="178.79" stroke="none" font-size="8" fill="rgb(248,113,113)">H</text>
  <text x="48.2" y="148.61" stroke="none" font-size="8" fill="rgb(248,113,113)">O</text>
  <text x="36.76" y="156.03" stroke="none" font-size="8" fill="rgb(255,128,0)">P</text>
  <text x="28.9" y="144.15" stroke="none" font-size="8" fill="rgb(248,113,113)">O</text>
  <text x="24.44" y="163.46" stroke="none" font-size="8" fill="rgb(248,113,113)">O</text>
  <text x="31.66" y="160.46" stroke="none" font-size="5" fill="rgb(248,113,113)">-</text>
  <text x="43.74" y="167.91" stroke="none" font-size="8" fill="rgb(248,113,113)">O</text>
  <text x="50.97" y="164.91" stroke="none" font-size="5" fill="rgb(248,113,113)">-</text>
  <text x="160.43" y="143.1" stroke="none" font-size="8" fill="rgb(248,113,113)">O</text>
  <text x="154.65" y="143.1" stroke="none" font-size="8" fill="rgb(248,113,113)">H</text>
  <text x="104.07" y="83.89" stroke="none" font-size="8" fill="rgb(171,92,242)">Na</text>
  <text x="115.3" y="80.89" stroke="none" font-size="5" fill="rgb(171,92,242)">+</text>
  <text x="29.04" y="189.91" stroke="none" font-size="8" fill="rgb(171,92,242)">Na</text>
  <text x="40.26" y="186.91" stroke="none" font-size="5" fill="rgb(171,92,242)">+</text>
  <text x="2.83" y="163.46" stroke="none" font-size="8" fill="rgb(171,92,242)">Na</text>
  <text x="14.05" y="160.46" stroke="none" font-size="5" fill="rgb(171,92,242)">+</text>
  <line x1="284.51" y1="146.92" x2="282.68" y2="157.32" stroke="rgb(228,226,242)" stroke-width="1.5" />
  <line x1="286.58" y1="147.29" x2="284.74" y2="157.68" stroke="rgb(228,226,242)" stroke-width="1.5" />
  <line x1="227.85" y1="131.05" x2="229.68" y2="120.66" stroke="rgb(228,226,242)" stroke-width="1.5" />
  <line x1="225.78" y1="130.69" x2="227.61" y2="120.3" stroke="rgb(228,226,242)" stroke-width="1.5" />
  <line x1="180.06" y1="122.63" x2="181.9" y2="112.24" stroke="rgb(228,226,242)" stroke-width="1.5" />
  <line x1="178" y1="122.26" x2="179.83" y2="111.87" stroke="rgb(228,226,242)" stroke-width="1.5" />
  <line x1="118.66" y1="122.57" x2="120.53" y2="127.73" stroke="rgb(228,226,242)" stroke-width="1.5" />
  <line x1="120.63" y1="121.85" x2="122.51" y2="127.02" stroke="rgb(228,226,242)" stroke-width="1.5" />
  <line x1="93.83" y1="109.64" x2="91.95" y2="104.48" stroke="rgb(228,226,242)" stroke-width="1.5" />
  <line x1="91.85" y1="110.36" x2="89.97" y2="105.2" stroke="rgb(228,226,242)" stroke-width="1.5" />
  <line x1="78.99" y1="193.78" x2="84.85" y2="199.86" stroke="rgb(228,226,242)" stroke-width="1.5" />
  <line x1="81.72" y1="193.59" x2="86.36" y2="198.4" stroke="rgb(228,226,242)" stroke-width="1.5" />
  <line x1="101.31" y1="197.72" x2="114.29" y2="202.96" stroke="rgb(228,226,242)" stroke-width="1.5" />
  <line x1="103.48" y1="196.33" x2="113.69" y2="200.46" stroke="rgb(228,226,242)" stroke-width="1.5" />
  <line x1="123.38" y1="180.47" x2="124.77" y2="190.34" stroke="rgb(228,226,242)" stroke-width="1.5" />
  <line x1="121.51" y1="182.24" x2="122.65" y2="190.34" stroke="rgb(228,226,242)" stroke-width="1.5" />
  <line x1="99.36" y1="183.85" x2="106.51" y2="178.26" stroke="rgb(228,226,242)" stroke-width="1.5" />
  <line x1="101.83" y1="184.58" x2="107.8" y2="179.92" stroke="rgb(228,226,242)" stroke-width="1.5" />
  <line x1="37.82" y1="148.81" x2="35.4" y2="144.93" stroke="rgb(228,226,242)" stroke-width="1.5" />
  <line x1="36.04" y1="149.92" x2="33.62" y2="146.04" stroke="rgb(228,226,242)" stroke-width="1.5" />
  <line x1="298.6" y1="142.91" x2="285.44" y2="147.7" stroke="rgb(228,226,242)" stroke-width="1.5" />
  <line x1="285.44" y1="147.7" x2="278.37" y2="141.78" stroke="rgb(228,226,242)" stroke-width="1.5" />
  <line x1="271.04" y1="140.03" x2="261.54" y2="143.49" stroke="rgb(228,226,242)" stroke-width="1.5" />
  <line x1="261.54" y1="143.49" x2="250.81" y2="134.49" stroke="rgb(228,226,242)" stroke-width="1.5" />
  <line x1="250.81" y1="134.49" x2="241.54" y2="137.86" stroke="rgb(228,226,242)" stroke-width="1.5" />
  <line x1="233.76" y1="136.02" x2="226.92" y2="130.27" stroke="rgb(228,226,242)" stroke-width="1.5" />
  <line x1="226.92" y1="130.27" x2="213.76" y2="135.06" stroke="rgb(228,226,242)" stroke-width="1.5" />
  <line x1="213.76" y1="135.06" x2="203.03" y2="126.06" stroke="rgb(228,226,242)" stroke-width="1.5" />
  <line x1="203.03" y1="126.06" x2="193.75" y2="129.44" stroke="rgb(228,226,242)" stroke-width="1.5" />
  <line x1="185.98" y1="127.59" x2="179.14" y2="121.85" stroke="rgb(228,226,242)" stroke-width="1.5" />
  <line x1="179.14" y1="121.85" x2="165.97" y2="126.64" stroke="rgb(228,226,242)" stroke-width="1.5" />
  <line x1="165.97" y1="126.64" x2="155.24" y2="117.64" stroke="rgb(228,226,242)" stroke-width="1.5" />
  <line x1="155.24" y1="117.64" x2="150.45" y2="104.47" stroke="rgb(228,226,242)" stroke-width="1.5" />
  <line x1="155.24" y1="117.64" x2="164.25" y2="106.91" stroke="rgb(228,226,242)" stroke-width="1.5" />
  <line x1="155.24" y1="117.64" x2="142.08" y2="122.43" stroke="rgb(228,226,242)" stroke-width="1.5" />
  <line x1="142.08" y1="122.43" x2="135.46" y2="116.87" stroke="rgb(228,226,242)" stroke-width="1.5" />
  <line x1="127.24" y1="114.92" x2="121.86" y2="116.88" stroke="rgb(228,226,242)" stroke-width="1.5" />
  <line x1="114.83" y1="122.21" x2="112.54" y2="124.94" stroke="rgb(228,226,242)" stroke-width="1.5" />
  <line x1="114.52" y1="115.14" x2="111.57" y2="112.66" stroke="rgb(228,226,242)" stroke-width="1.5" />
  <line x1="103.34" y1="110.71" x2="97.96" y2="112.66" stroke="rgb(228,226,242)" stroke-width="1.5" />
  <line x1="90.63" y1="113.35" x2="84.61" y2="112.29" stroke="rgb(228,226,242)" stroke-width="1.5" />
  <line x1="93.59" y1="118" x2="92.57" y2="123.79" stroke="rgb(228,226,242)" stroke-width="1.5" />
  <line x1="87.75" y1="129.29" x2="78.7" y2="132.59" stroke="rgb(228,226,242)" stroke-width="1.5" />
  <polygon points="76,146 78,140 77,139 " fill="rgb(160,0,0)" stroke="rgb(160,0,0)" stroke-width="1.5" />
  <polygon points="77,139 78,140 80,133 77,132 " fill="rgb(160,0,0)" stroke="rgb(160,0,0)" stroke-width="1.5" />
  <line x1="76.27" y1="146.38" x2="63.68" y2="152.52" stroke="rgb(228,226,242)" stroke-width="1.5" />
  <line x1="63.68" y1="152.52" x2="65.63" y2="166.39" stroke="rgb(228,226,242)" stroke-width="1.5" />
  <line x1="65.63" y1="166.39" x2="79.42" y2="168.82" stroke="rgb(228,226,242)" stroke-width="1.5" />
  <line x1="79.42" y1="168.82" x2="83.87" y2="160.46" stroke="rgb(228,226,242)" stroke-width="1.5" />
  <line x1="76.27" y1="146.38" x2="82.13" y2="152.46" stroke="rgb(228,226,242)" stroke-width="1.5" />
  <polygon points="79,169 81,173 82,173 " fill="rgb(160,0,0)" stroke="rgb(160,0,0)" stroke-width="1.5" />
  <polygon points="82,173 81,173 83,178 85,177 " fill="rgb(160,0,0)" stroke="rgb(160,0,0)" stroke-width="1.5" />
  <line x1="83.43" y1="185.41" x2="78.99" y2="193.78" stroke="rgb(228,226,242)" stroke-width="1.5" />
  <line x1="92.6" y1="201.96" x2="101.31" y2="197.72" stroke="rgb(228,226,242)" stroke-width="1.5" />
  <line x1="114.29" y1="202.96" x2="121.44" y2="197.38" stroke="rgb(228,226,242)" stroke-width="1.5" />
  <line x1="123.38" y1="180.47" x2="114.28" y2="176.79" stroke="rgb(228,226,242)" stroke-width="1.5" />
  <line x1="101.31" y1="197.72" x2="99.36" y2="183.85" stroke="rgb(228,226,242)" stroke-width="1.5" />
  <line x1="89.45" y1="182.1" x2="99.36" y2="183.85" stroke="rgb(228,226,242)" stroke-width="1.5" />
  <line x1="114.29" y1="202.96" x2="115.68" y2="212.83" stroke="rgb(228,226,242)" stroke-width="1.5" />
  <line x1="64.29" y1="167.38" x2="64.59" y2="167.69" stroke="rgb(160,0,0)" stroke-width="1.5" />
  <line x1="62.95" y1="168.37" x2="63.56" y2="169" stroke="rgb(160,0,0)" stroke-width="1.5" />
  <line x1="61.61" y1="169.35" x2="62.53" y2="170.3" stroke="rgb(160,0,0)" stroke-width="1.5" />
  <line x1="60.28" y1="170.34" x2="61.49" y2="171.6" stroke="rgb(160,0,0)" stroke-width="1.5" />
  <line x1="58.94" y1="171.33" x2="60.46" y2="172.9" stroke="rgb(160,0,0)" stroke-width="1.5" />
  <line x1="62.32" y1="151.55" x2="62.12" y2="151.94" stroke="rgb(160,0,0)" stroke-width="1.5" />
  <line x1="60.97" y1="150.59" x2="60.56" y2="151.36" stroke="rgb(160,0,0)" stroke-width="1.5" />
  <line x1="59.62" y1="149.62" x2="59" y2="150.78" stroke="rgb(160,0,0)" stroke-width="1.5" />
  <line x1="58.27" y1="148.65" x2="57.45" y2="150.2" stroke="rgb(160,0,0)" stroke-width="1.5" />
  <line x1="56.92" y1="147.69" x2="55.89" y2="149.62" stroke="rgb(160,0,0)" stroke-width="1.5" />
  <line x1="55.56" y1="146.72" x2="55.42" y2="146.99" stroke="rgb(160,0,0)" stroke-width="1.5" />
  <line x1="47.2" y1="148.51" x2="43.1" y2="151.07" stroke="rgb(228,226,242)" stroke-width="1.5" />
  <line x1="35.76" y1="155.66" x2="31.66" y2="158.22" stroke="rgb(228,226,242)" stroke-width="1.5" />
  <line x1="41.93" y1="157.37" x2="44.35" y2="161.25" stroke="rgb(228,226,242)" stroke-width="1.5" />
  <line x1="165.47" y1="128.22" x2="165.9" y2="128.3" stroke="rgb(160,0,0)" stroke-width="1.5" />
  <line x1="164.97" y1="129.81" x2="165.83" y2="129.96" stroke="rgb(160,0,0)" stroke-width="1.5" />
  <line x1="164.47" y1="131.39" x2="165.76" y2="131.62" stroke="rgb(160,0,0)" stroke-width="1.5" />
  <line x1="163.97" y1="132.98" x2="165.69" y2="133.28" stroke="rgb(160,0,0)" stroke-width="1.5" />
  <line x1="163.46" y1="134.56" x2="165.62" y2="134.94" stroke="rgb(160,0,0)" stroke-width="1.5" />
  <line x1="162.96" y1="136.15" x2="164.58" y2="136.43" stroke="rgb(160,0,0)" stroke-width="1.5" />
  <line id="mol35:Bond:1" class="event" x1="285.44" y1="147.7" x2="283" y2="161.5" stroke-width="1.5" opacity="0" />
  <line id="mol35:Bond:7" class="event" x1="226.92" y1="130.27" x2="229.35" y2="116.48" stroke-width="1.5" opacity="0" />
  <line id="mol35:Bond:12" class="event" x1="179.14" y1="121.85" x2="181.57" y2="108.05" stroke-width="1.5" opacity="0" />
  <line id="mol35:Bond:20" class="event" x1="118.19" y1="118.21" x2="122.98" y2="131.38" stroke-width="1.5" opacity="0" />
  <line id="mol35:Bond:24" class="event" x1="94.29" y1="114" x2="89.5" y2="100.84" stroke-width="1.5" opacity="0" />
  <line id="mol35:Bond:36" class="event" x1="78.99" y1="193.78" x2="88.72" y2="203.86" stroke-width="1.5" opacity="0" />
  <line id="mol35:Bond:38" class="event" x1="101.31" y1="197.72" x2="114.29" y2="202.96" stroke-width="1.5" opacity="0" />
  <line id="mol35:Bond:40" class="event" x1="125.33" y1="194.34" x2="123.38" y2="180.47" stroke-width="1.5" opacity="0" />
  <line id="mol35:Bond:42" class="event" x1="110.39" y1="175.22" x2="99.36" y2="183.85" stroke-width="1.5" opacity="0" />
  <line id="mol35:Bond:49" class="event" x1="39.43" y1="153.37" x2="32.01" y2="141.49" stroke-width="1.5" opacity="0" />
  <line id="mol35:Bond:0" class="event" x1="298.6" y1="142.91" x2="285.44" y2="147.7" stroke-width="1.5" opacity="0" />
  <line id="mol35:Bond:2" class="event" x1="285.44" y1="147.7" x2="274.71" y2="138.7" stroke-width="1.5" opacity="0" />
  <line id="mol35:Bond:3" class="event" x1="274.71" y1="138.7" x2="261.54" y2="143.49" stroke-width="1.5" opacity="0" />
  <line id="mol35:Bond:4" class="event" x1="261.54" y1="143.49" x2="250.81" y2="134.49" stroke-width="1.5" opacity="0" />
  <line id="mol35:Bond:5" class="event" x1="250.81" y1="134.49" x2="237.65" y2="139.28" stroke-width="1.5" opacity="0" />
  <line id="mol35:Bond:6" class="event" x1="237.65" y1="139.28" x2="226.92" y2="130.27" stroke-width="1.5" opacity="0" />
  <line id="mol35:Bond:8" class="event" x1="226.92" y1="130.27" x2="213.76" y2="135.06" stroke-width="1.5" opacity="0" />
  <line id="mol35:Bond:9" class="event" x1="213.76" y1="135.06" x2="203.03" y2="126.06" stroke-width="1.5" opacity="0" />
  <line id="mol35:Bond:10" class="event" x1="203.03" y1="126.06" x2="189.87" y2="130.85" stroke-width="1.5" opacity="0" />
  <line id="mol35:Bond:11" class="event" x1="189.87" y1="130.85" x2="179.14" y2="121.85" stroke-width="1.5" opacity="0" />
  <line id="mol35:Bond:13" class="event" x1="179.14" y1="121.85" x2="165.97" y2="126.64" stroke-width="1.5" opacity="0" />
  <line id="mol35:Bond:14" class="event" x1="165.97" y1="126.64" x2="155.24" y2="117.64" stroke-width="1.5" opacity="0" />
  <line id="mol35:Bond:15" class="event" x1="155.24" y1="117.64" x2="150.45" y2="104.47" stroke-width="1.5" opacity="0" />
  <line id="mol35:Bond:16" class="event" x1="155.24" y1="117.64" x2="164.25" y2="106.91" stroke-width="1.5" opacity="0" />
  <line id="mol35:Bond:17" class="event" x1="155.24" y1="117.64" x2="142.08" y2="122.43" stroke-width="1.5" opacity="0" />
  <line id="mol35:Bond:18" class="event" x1="142.08" y1="122.43" x2="131.35" y2="113.42" stroke-width="1.5" opacity="0" />
  <line id="mol35:Bond:19" class="event" x1="131.35" y1="113.42" x2="118.19" y2="118.21" stroke-width="1.5" opacity="0" />
  <line id="mol35:Bond:21" class="event" x1="118.19" y1="118.21" x2="109.18" y2="128.94" stroke-width="1.5" opacity="0" />
  <line id="mol35:Bond:22" class="event" x1="118.19" y1="118.21" x2="107.46" y2="109.21" stroke-width="1.5" opacity="0" />
  <line id="mol35:Bond:23" class="event" x1="107.46" y1="109.21" x2="94.29" y2="114" stroke-width="1.5" opacity="0" />
  <line id="mol35:Bond:25" class="event" x1="94.29" y1="114" x2="80.5" y2="111.57" stroke-width="1.5" opacity="0" />
  <line id="mol35:Bond:26" class="event" x1="94.29" y1="114" x2="91.86" y2="127.79" stroke-width="1.5" opacity="0" />
  <line id="mol35:Bond:27" class="event" x1="91.86" y1="127.79" x2="78.7" y2="132.59" stroke-width="1.5" opacity="0" />
  <line id="mol35:Bond:28" class="event" x1="76.27" y1="146.38" x2="78.7" y2="132.59" stroke-width="1.5" opacity="0" />
  <line id="mol35:Bond:29" class="event" x1="76.27" y1="146.38" x2="63.68" y2="152.52" stroke-width="1.5" opacity="0" />
  <line id="mol35:Bond:30" class="event" x1="63.68" y1="152.52" x2="65.63" y2="166.39" stroke-width="1.5" opacity="0" />
  <line id="mol35:Bond:31" class="event" x1="65.63" y1="166.39" x2="79.42" y2="168.82" stroke-width="1.5" opacity="0" />
  <line id="mol35:Bond:32" class="event" x1="79.42" y1="168.82" x2="86" y2="156.46" stroke-width="1.5" opacity="0" />
  <line id="mol35:Bond:33" class="event" x1="76.27" y1="146.38" x2="86" y2="156.46" stroke-width="1.5" opacity="0" />
  <line id="mol35:Bond:34" class="event" x1="79.42" y1="168.82" x2="85.56" y2="181.41" stroke-width="1.5" opacity="0" />
  <line id="mol35:Bond:35" class="event" x1="85.56" y1="181.41" x2="78.99" y2="193.78" stroke-width="1.5" opacity="0" />
  <line id="mol35:Bond:37" class="event" x1="88.72" y1="203.86" x2="101.31" y2="197.72" stroke-width="1.5" opacity="0" />
  <line id="mol35:Bond:39" class="event" x1="114.29" y1="202.96" x2="125.33" y2="194.34" stroke-width="1.5" opacity="0" />
  <line id="mol35:Bond:41" class="event" x1="123.38" y1="180.47" x2="110.39" y2="175.22" stroke-width="1.5" opacity="0" />
  <line id="mol35:Bond:43" class="event" x1="101.31" y1="197.72" x2="99.36" y2="183.85" stroke-width="1.5" opacity="0" />
  <line id="mol35:Bond:44" class="event" x1="85.56" y1="181.41" x2="99.36" y2="183.85" stroke-width="1.5" opacity="0" />
  <line id="mol35:Bond:45" class="event" x1="114.29" y1="202.96" x2="116.24" y2="216.83" stroke-width="1.5" opacity="0" />
  <line id="mol35:Bond:46" class="event" x1="65.63" y1="166.39" x2="55.55" y2="176.12" stroke-width="1.5" opacity="0" />
  <line id="mol35:Bond:47" class="event" x1="63.68" y1="152.52" x2="51.31" y2="145.94" stroke-width="1.5" opacity="0" />
  <line id="mol35:Bond:48" class="event" x1="51.31" y1="145.94" x2="39.43" y2="153.37" stroke-width="1.5" opacity="0" />
  <line id="mol35:Bond:50" class="event" x1="39.43" y1="153.37" x2="27.55" y2="160.79" stroke-width="1.5" opacity="0" />
  <line id="mol35:Bond:51" class="event" x1="39.43" y1="153.37" x2="46.85" y2="165.25" stroke-width="1.5" opacity="0" />
  <line id="mol35:Bond:52" class="event" x1="165.97" y1="126.64" x2="163.54" y2="140.43" stroke-width="1.5" opacity="0" />
  <circle id="mol35:Atom:0" class="event" cx="298.6" cy="142.91" r="8" opacity="0" />
  <circle id="mol35:Atom:1" class="event" cx="285.44" cy="147.7" r="8" opacity="0" />
  <circle id="mol35:Atom:2" class="event" cx="283" cy="161.5" r="8" opacity="0" />
  <circle id="mol35:Atom:3" class="event" cx="274.71" cy="138.7" r="8" opacity="0" />
  <circle id="mol35:Atom:4" class="event" cx="261.54" cy="143.49" r="8" opacity="0" />
  <circle id="mol35:Atom:5" class="event" cx="250.81" cy="134.49" r="8" opacity="0" />
  <circle id="mol35:Atom:6" class="event" cx="237.65" cy="139.28" r="8" opacity="0" />
  <circle id="mol35:Atom:7" class="event" cx="226.92" cy="130.27" r="8" opacity="0" />
  <circle id="mol35:Atom:8" class="event" cx="229.35" cy="116.48" r="8" opacity="0" />
  <circle id="mol35:Atom:9" class="event" cx="213.76" cy="135.06" r="8" opacity="0" />
  <circle id="mol35:Atom:10" class="event" cx="203.03" cy="126.06" r="8" opacity="0" />
  <circle id="mol35:Atom:11" class="event" cx="189.87" cy="130.85" r="8" opacity="0" />
  <circle id="mol35:Atom:12" class="event" cx="179.14" cy="121.85" r="8" opacity="0" />
  <circle id="mol35:Atom:13" class="event" cx="181.57" cy="108.05" r="8" opacity="0" />
  <circle id="mol35:Atom:14" class="event" cx="165.97" cy="126.64" r="8" opacity="0" />
  <circle id="mol35:Atom:15" class="event" cx="155.24" cy="117.64" r="8" opacity="0" />
  <circle id="mol35:Atom:16" class="event" cx="150.45" cy="104.47" r="8" opacity="0" />
  <circle id="mol35:Atom:17" class="event" cx="164.25" cy="106.91" r="8" opacity="0" />
  <circle id="mol35:Atom:18" class="event" cx="142.08" cy="122.43" r="8" opacity="0" />
  <circle id="mol35:Atom:19" class="event" cx="131.35" cy="113.42" r="8" opacity="0" />
  <circle id="mol35:Atom:20" class="event" cx="118.19" cy="118.21" r="8" opacity="0" />
  <circle id="mol35:Atom:21" class="event" cx="122.98" cy="131.38" r="8" opacity="0" />
  <circle id="mol35:Atom:22" class="event" cx="109.18" cy="128.94" r="8" opacity="0" />
  <circle id="mol35:Atom:23" class="event" cx="107.46" cy="109.21" r="8" opacity="0" />
  <circle id="mol35:Atom:24" class="event" cx="94.29" cy="114" r="8" opacity="0" />
  <circle id="mol35:Atom:25" class="event" cx="89.5" cy="100.84" r="8" opacity="0" />
  <circle id="mol35:Atom:26" class="event" cx="80.5" cy="111.57" r="8" opacity="0" />
  <circle id="mol35:Atom:27" class="event" cx="91.86" cy="127.79" r="8" opacity="0" />
  <circle id="mol35:Atom:28" class="event" cx="78.7" cy="132.59" r="8" opacity="0" />
  <circle id="mol35:Atom:29" class="event" cx="76.27" cy="146.38" r="8" opacity="0" />
  <circle id="mol35:Atom:30" class="event" cx="63.68" cy="152.52" r="8" opacity="0" />
  <circle id="mol35:Atom:31" class="event" cx="65.63" cy="166.39" r="8" opacity="0" />
  <circle id="mol35:Atom:32" class="event" cx="79.42" cy="168.82" r="8" opacity="0" />
  <circle id="mol35:Atom:33" class="event" cx="86" cy="156.46" r="8" opacity="0" />
  <circle id="mol35:Atom:34" class="event" cx="85.56" cy="181.41" r="8" opacity="0" />
  <circle id="mol35:Atom:35" class="event" cx="78.99" cy="193.78" r="8" opacity="0" />
  <circle id="mol35:Atom:36" class="event" cx="88.72" cy="203.86" r="8" opacity="0" />
  <circle id="mol35:Atom:37" class="event" cx="101.31" cy="197.72" r="8" opacity="0" />
  <circle id="mol35:Atom:38" class="event" cx="114.29" cy="202.96" r="8" opacity="0" />
  <circle id="mol35:Atom:39" class="event" cx="125.33" cy="194.34" r="8" opacity="0" />
  <circle id="mol35:Atom:40" class="event" cx="123.38" cy="180.47" r="8" opacity="0" />
  <circle id="mol35:Atom:41" class="event" cx="110.39" cy="175.22" r="8" opacity="0" />
  <circle id="mol35:Atom:42" class="event" cx="99.36" cy="183.85" r="8" opacity="0" />
  <circle id="mol35:Atom:43" class="event" cx="116.24" cy="216.83" r="8" opacity="0" />
  <circle id="mol35:Atom:44" class="event" cx="55.55" cy="176.12" r="8" opacity="0" />
  <circle id="mol35:Atom:45" class="event" cx="51.31" cy="145.94" r="8" opacity="0" />
  <circle id="mol35:Atom:46" class="event" cx="39.43" cy="153.37" r="8" opacity="0" />
  <circle id="mol35:Atom:47" class="event" cx="32.01" cy="141.49" r="8" opacity="0" />
  <circle id="mol35:Atom:48" class="event" cx="27.55" cy="160.79" r="8" opacity="0" />
  <circle id="mol35:Atom:49" class="event" cx="46.85" cy="165.25" r="8" opacity="0" />
  <circle id="mol35:Atom:50" class="event" cx="163.54" cy="140.43" r="8" opacity="0" />
  <circle id="mol35:Atom:51" class="event" cx="109.18" cy="81.23" r="8" opacity="0" />
  <circle id="mol35:Atom:52" class="event" cx="34.15" cy="187.24" r="8" opacity="0" />
  <circle id="mol35:Atom:53" class="event" cx="7.94" cy="160.79" r="8" opacity="0" />
</svg>