<svg id="mol36" xmlns="http://www.w3.org/2000/svg" version="1.1" width="186px" height="174px" viewBox="55 63 186 174">
  <style> #mol36 text {font-family: sans-serif;} #mol36 { pointer-events:none; } #mol36 .event  { pointer-events:all; } #mol36 line { stroke-linecap:round; } #mol36 polygon { stroke-linejoin:round; } </style>
  <text x="107.24" y="250.53" stroke="none" font-size="12" fill="rgb(160,0,0)">this enantiomer</text>
  <text x="186.42" y="124.19" stroke="none" font-size="14" fill="rgb(129,140,248)">N</text>
  <text x="165.29" y="88.26" stroke="none" font-size="14" fill="rgb(248,113,113)">O</text>
  <text x="143.5" y="127.52" stroke="none" font-size="9" fill="rgb(160,0,0)">R</text>
  <text x="142.75" y="116.22" stroke="none" font-size="9" fill="rgb(160,0,0)">abs</text>
  <text x="103.47" y="124.19" stroke="none" font-size="14" fill="rgb(129,140,248)">N</text>
  <text x="102.02" y="151.47" stroke="none" font-size="9" fill="rgb(160,0,0)">R</text>
  <text x="106.72" y="143.32" stroke="none" font-size="9" fill="rgb(160,0,0)">abs</text>
  <text x="74.67" y="221.95" stroke="none" font-size="14" fill="rgb(129,140,248)">N</text>
  <text x="64.57" y="221.95" stroke="none" font-size="14" fill="rgb(129,140,248)">H</text>
  <line x1="172.54" y1="108.58" x2="172.54" y2="90.6" stroke="rgb(228,226,242)" stroke-width="1.5" />
  <line x1="168.94" y1="108.58" x2="168.94" y2="90.6" stroke="rgb(228,226,242)" stroke-width="1.5" />
  <line x1="87.78" y1="179.39" x2="69.99" y2="195.41" stroke="rgb(228,226,242)" stroke-width="1.5" />
  <line x1="87.95" y1="184.08" x2="74.64" y2="196.07" stroke="rgb(228,226,242)" stroke-width="1.5" />
  <line x1="103.54" y1="214.78" x2="124.19" y2="228.38" stroke="rgb(228,226,242)" stroke-width="1.5" />
  <line x1="107.94" y1="213.37" x2="124.12" y2="224.02" stroke="rgb(228,226,242)" stroke-width="1.5" />
  <line x1="146.07" y1="218.64" x2="148.57" y2="194.82" stroke="rgb(228,226,242)" stroke-width="1.5" />
  <line x1="142.75" y1="215.71" x2="144.73" y2="196.88" stroke="rgb(228,226,242)" stroke-width="1.5" />
  <line x1="129.26" y1="179.39" x2="108.52" y2="191.36" stroke="rgb(228,226,242)" stroke-width="1.5" />
  <line x1="128.55" y1="183.95" x2="112.04" y2="193.49" stroke="rgb(228,226,242)" stroke-width="1.5" />
  <line x1="129.26" y1="155.44" x2="150" y2="143.47" stroke="rgb(228,226,242)" stroke-width="1.5" />
  <line x1="129.68" y1="151.04" x2="145.98" y2="141.63" stroke="rgb(228,226,242)" stroke-width="1.5" />
  <line x1="87.78" y1="83.6" x2="67.05" y2="71.62" stroke="rgb(228,226,242)" stroke-width="1.5" />
  <line x1="83.77" y1="85.44" x2="65.25" y2="74.74" stroke="rgb(228,226,242)" stroke-width="1.5" />
  <line x1="232.95" y1="119.52" x2="212.22" y2="107.55" stroke="rgb(228,226,242)" stroke-width="1.5" />
  <line x1="212.22" y1="107.55" x2="197.53" y2="116.02" stroke="rgb(228,226,242)" stroke-width="1.5" />
  <line x1="191.48" y1="126.52" x2="191.48" y2="143.47" stroke="rgb(228,226,242)" stroke-width="1.5" />
  <line x1="191.48" y1="143.47" x2="212.22" y2="155.44" stroke="rgb(228,226,242)" stroke-width="1.5" />
  <line x1="185.42" y1="116.02" x2="170.74" y2="107.55" stroke="rgb(228,226,242)" stroke-width="1.5" />
  <line x1="152.63" y1="118.43" x2="152.25" y2="117.79" stroke="rgb(160,0,0)" stroke-width="1.5" />
  <line x1="155.25" y1="117.35" x2="154.51" y2="116.05" stroke="rgb(160,0,0)" stroke-width="1.5" />
  <line x1="157.88" y1="116.26" x2="156.76" y2="114.32" stroke="rgb(160,0,0)" stroke-width="1.5" />
  <line x1="160.51" y1="115.18" x2="159.01" y2="112.59" stroke="rgb(160,0,0)" stroke-width="1.5" />
  <line x1="163.13" y1="114.1" x2="161.26" y2="110.86" stroke="rgb(160,0,0)" stroke-width="1.5" />
  <line x1="165.76" y1="113.01" x2="163.52" y2="109.12" stroke="rgb(160,0,0)" stroke-width="1.5" />
  <line x1="168.39" y1="111.93" x2="165.77" y2="107.39" stroke="rgb(160,0,0)" stroke-width="1.5" />
  <line x1="171.02" y1="110.84" x2="168.02" y2="105.66" stroke="rgb(160,0,0)" stroke-width="1.5" />
  <line x1="150" y1="119.52" x2="129.26" y2="107.55" stroke="rgb(228,226,242)" stroke-width="1.5" />
  <line x1="129.26" y1="107.55" x2="114.58" y2="116.02" stroke="rgb(228,226,242)" stroke-width="1.5" />
  <polygon points="109,143 109,135 108,135 " fill="rgb(160,0,0)" stroke="rgb(160,0,0)" stroke-width="1.5" />
  <polygon points="108,135 109,135 110,127 107,127 " fill="rgb(160,0,0)" stroke="rgb(160,0,0)" stroke-width="1.5" />
  <line x1="108.52" y1="143.47" x2="87.78" y2="155.44" stroke="rgb(228,226,242)" stroke-width="1.5" />
  <line x1="87.78" y1="155.44" x2="87.78" y2="179.39" stroke="rgb(228,226,242)" stroke-width="1.5" />
  <line x1="69.99" y1="195.41" x2="76.61" y2="210.29" stroke="rgb(228,226,242)" stroke-width="1.5" />
  <line x1="85.78" y1="216.65" x2="103.54" y2="214.78" stroke="rgb(228,226,242)" stroke-width="1.5" />
  <line x1="124.19" y1="228.38" x2="146.07" y2="218.64" stroke="rgb(228,226,242)" stroke-width="1.5" />
  <line x1="148.57" y1="194.82" x2="129.26" y2="179.39" stroke="rgb(228,226,242)" stroke-width="1.5" />
  <line x1="87.78" y1="179.39" x2="108.52" y2="191.36" stroke="rgb(228,226,242)" stroke-width="1.5" />
  <line x1="103.54" y1="214.78" x2="108.52" y2="191.36" stroke="rgb(228,226,242)" stroke-width="1.5" />
  <line x1="129.26" y1="179.39" x2="129.26" y2="155.44" stroke="rgb(228,226,242)" stroke-width="1.5" />
  <line x1="108.52" y1="143.47" x2="129.26" y2="155.44" stroke="rgb(228,226,242)" stroke-width="1.5" />
  <line x1="150" y1="119.52" x2="150" y2="143.47" stroke="rgb(228,226,242)" stroke-width="1.5" />
  <line x1="102.47" y1="116.02" x2="87.78" y2="107.55" stroke="rgb(228,226,242)" stroke-width="1.5" />
  <line x1="87.78" y1="107.55" x2="87.78" y2="83.6" stroke="rgb(228,226,242)" stroke-width="1.5" />
  <line id="mol36:Bond:5" class="event" x1="170.74" y1="107.55" x2="170.74" y2="83.6" stroke-width="1.5" opacity="0" />
  <line id="mol36:Bond:12" class="event" x1="87.78" y1="179.39" x2="69.99" y2="195.41" stroke-width="1.5" opacity="0" />
  <line id="mol36:Bond:15" class="event" x1="103.54" y1="214.78" x2="124.19" y2="228.38" stroke-width="1.5" opacity="0" />
  <line id="mol36:Bond:17" class="event" x1="146.07" y1="218.64" x2="148.57" y2="194.82" stroke-width="1.5" opacity="0" />
  <line id="mol36:Bond:19" class="event" x1="129.26" y1="179.39" x2="108.52" y2="191.36" stroke-width="1.5" opacity="0" />
  <line id="mol36:Bond:24" class="event" x1="129.26" y1="155.44" x2="150" y2="143.47" stroke-width="1.5" opacity="0" />
  <line id="mol36:Bond:28" class="event" x1="87.78" y1="83.6" x2="67.05" y2="71.62" stroke-width="1.5" opacity="0" />
  <line id="mol36:Bond:0" class="event" x1="232.95" y1="119.52" x2="212.22" y2="107.55" stroke-width="1.5" opacity="0" />
  <line id="mol36:Bond:1" class="event" x1="212.22" y1="107.55" x2="191.48" y2="119.52" stroke-width="1.5" opacity="0" />
  <line id="mol36:Bond:2" class="event" x1="191.48" y1="119.52" x2="191.48" y2="143.47" stroke-width="1.5" opacity="0" />
  <line id="mol36:Bond:3" class="event" x1="191.48" y1="143.47" x2="212.22" y2="155.44" stroke-width="1.5" opacity="0" />
  <line id="mol36:Bond:4" class="event" x1="191.48" y1="119.52" x2="170.74" y2="107.55" stroke-width="1.5" opacity="0" />
  <line id="mol36:Bond:6" class="event" x1="150" y1="119.52" x2="170.74" y2="107.55" stroke-width="1.5" opacity="0" />
  <line id="mol36:Bond:7" class="event" x1="150" y1="119.52" x2="129.26" y2="107.55" stroke-width="1.5" opacity="0" />
  <line id="mol36:Bond:8" class="event" x1="129.26" y1="107.55" x2="108.52" y2="119.52" stroke-width="1.5" opacity="0" />
  <line id="mol36:Bond:9" class="event" x1="108.52" y1="143.47" x2="108.52" y2="119.52" stroke-width="1.5" opacity="0" />
  <line id="mol36:Bond:10" class="event" x1="108.52" y1="143.47" x2="87.78" y2="155.44" stroke-width="1.5" opacity="0" />
  <line id="mol36:Bond:11" class="event" x1="87.78" y1="155.44" x2="87.78" y2="179.39" stroke-width="1.5" opacity="0" />
  <line id="mol36:Bond:13" class="event" x1="69.99" y1="195.41" x2="79.73" y2="217.29" stroke-width="1.5" opacity="0" />
  <line id="mol36:Bond:14" class="event" x1="79.73" y1="217.29" x2="103.54" y2="214.78" stroke-width="1.5" opacity="0" />
  <line id="mol36:Bond:16" class="event" x1="124.19" y1="228.38" x2="146.07" y2="218.64" stroke-width="1.5" opacity="0" />
  <line id="mol36:Bond:18" class="event" x1="148.57" y1="194.82" x2="129.26" y2="179.39" stroke-width="1.5" opacity="0" />
  <line id="mol36:Bond:20" class="event" x1="87.78" y1="179.39" x2="108.52" y2="191.36" stroke-width="1.5" opacity="0" />
  <line id="mol36:Bond:21" class="event" x1="103.54" y1="214.78" x2="108.52" y2="191.36" stroke-width="1.5" opacity="0" />
  <line id="mol36:Bond:22" class="event" x1="129.26" y1="179.39" x2="129.26" y2="155.44" stroke-width="1.5" opacity="0" />
  <line id="mol36:Bond:23" class="event" x1="108.52" y1="143.47" x2="129.26" y2="155.44" stroke-width="1.5" opacity="0" />
  <line id="mol36:Bond:25" class="event" x1="150" y1="119.52" x2="150" y2="143.47" stroke-width="1.5" opacity="0" />
  <line id="mol36:Bond:26" class="event" x1="108.52" y1="119.52" x2="87.78" y2="107.55" stroke-width="1.5" opacity="0" />
  <line id="mol36:Bond:27" class="event" x1="87.78" y1="107.55" x2="87.78" y2="83.6" stroke-width="1.5" opacity="0" />
  <circle id="mol36:Atom:0" class="event" cx="232.95" cy="119.52" r="8" opacity="0" />
  <circle id="mol36:Atom:1" class="event" cx="212.22" cy="107.55" r="8" opacity="0" />
  <circle id="mol36:Atom:2" class="event" cx="191.48" cy="119.52" r="8" opacity="0" />
  <circle id="mol36:Atom:3" class="event" cx="191.48" cy="143.47" r="8" opacity="0" />
  <circle id="mol36:Atom:4" class="event" cx="212.22" cy="155.44" r="8" opacity="0" />
  <circle id="mol36:Atom:5" class="event" cx="170.74" cy="107.55" r="8" opacity="0" />
  <circle id="mol36:Atom:6" class="event" cx="170.74" cy="83.6" r="8" opacity="0" />
  <circle id="mol36:Atom:7" class="event" cx="150" cy="119.52" r="8" opacity="0" />
  <circle id="mol36:Atom:8" class="event" cx="129.26" cy="107.55" r="8" opacity="0" />
  <circle id="mol36:Atom:9" class="event" cx="108.52" cy="119.52" r="8" opacity="0" />
  <circle id="mol36:Atom:10" class="event" cx="108.52" cy="143.47" r="8" opacity="0" />
  <circle id="mol36:Atom:11" class="event" cx="87.78" cy="155.44" r="8" opacity="0" />
  <circle id="mol36:Atom:12" class="event" cx="87.78" cy="179.39" r="8" opacity="0" />
  <circle id="mol36:Atom:13" class="event" cx="69.99" cy="195.41" r="8" opacity="0" />
  <circle id="mol36:Atom:14" class="event" cx="79.73" cy="217.29" r="8" opacity="0" />
  <circle id="mol36:Atom:15" class="event" cx="103.54" cy="214.78" r="8" opacity="0" />
  <circle id="mol36:Atom:16" class="event" cx="124.19" cy="228.38" r="8" opacity="0" />
  <circle id="mol36:Atom:17" class="event" cx="146.07" cy="218.64" r="8" opacity="0" />
  <circle id="mol36:Atom:18" class="event" cx="148.57" cy="194.82" r="8" opacity="0" />
  <circle id="mol36:Atom:19" class="event" cx="129.26" cy="179.39" r="8" opacity="0" />
  <circle id="mol36:Atom:20" class="event" cx="108.52" cy="191.36" r="8" opacity="0" />
  <circle id="mol36:Atom:21" class="event" cx="129.26" cy="155.44" r="8" opacity="0" />
  <circle id="mol36:Atom:22" class="event" cx="150" cy="143.47" r="8" opacity="0" />
  <circle id="mol36:Atom:23" class="event" cx="87.78" cy="107.55" r="8" opacity="0" />
  <circle id="mol36:Atom:24" class="event" cx="87.78" cy="83.6" r="8" opacity="0" />
  <circle id="mol36:Atom:25" class="event" cx="67.05" cy="71.62" r="8" opacity="0" />
</svg>