<svg id="mol36" xmlns="http://www.w3.org/2000/svg" version="1.1" width="218px" height="181px" viewBox="45 60 218 181">
  <style> #mol36 text {font-family: sans-serif;} #mol36 { pointer-events:none; } #mol36 .event  { pointer-events:all; } #mol36 line { stroke-linecap:round; } #mol36 polygon { stroke-linejoin:round; } </style>
  <text x="89.91" y="164.73" stroke="none" font-size="14" fill="rgb(255,128,0)">P</text>
  <text x="100.25" y="159.06" stroke="none" font-size="9" fill="rgb(255,128,0)">+</text>
  <text x="89.53" y="178.73" stroke="none" font-size="14" fill="rgb(255,128,0)">H</text>
  <text x="150.35" y="144.61" stroke="none" font-size="14" fill="rgb(255,128,0)">P</text>
  <text x="160.69" y="138.94" stroke="none" font-size="9" fill="rgb(255,128,0)">+</text>
  <text x="149.96" y="130.61" stroke="none" font-size="14" fill="rgb(255,128,0)">H</text>
  <text x="233.04" y="175.45" stroke="none" font-size="14" fill="rgb(148,0,148)">I</text>
  <text x="240.37" y="154.67" stroke="none" font-size="14" fill="rgb(182,182,196)">Pt</text>
  <text x="233.04" y="133.88" stroke="none" font-size="14" fill="rgb(148,0,148)">I</text>
  <line x1="136.15" y1="232.06" x2="136.15" y2="208.06" stroke="rgb(228,226,242)" stroke-width="1.5" />
  <line x1="136.15" y1="208.06" x2="115.37" y2="196.06" stroke="rgb(228,226,242)" stroke-width="1.5" />
  <line x1="115.37" y1="196.06" x2="115.37" y2="172.06" stroke="rgb(228,226,242)" stroke-width="1.5" />
  <line x1="115.37" y1="172.06" x2="100.25" y2="163.33" stroke="rgb(228,226,242)" stroke-width="1.5" />
  <line x1="88.91" y1="163.33" x2="73.8" y2="172.06" stroke="rgb(228,226,242)" stroke-width="1.5" />
  <line x1="73.8" y1="172.06" x2="73.8" y2="196.06" stroke="rgb(228,226,242)" stroke-width="1.5" />
  <line x1="73.8" y1="196.06" x2="53.01" y2="208.06" stroke="rgb(228,226,242)" stroke-width="1.5" />
  <line x1="53.01" y1="208.06" x2="53.01" y2="232.06" stroke="rgb(228,226,242)" stroke-width="1.5" />
  <line x1="94.58" y1="153.06" x2="94.58" y2="136.06" stroke="rgb(228,226,242)" stroke-width="1.5" />
  <line x1="94.58" y1="136.06" x2="73.8" y2="124.06" stroke="rgb(228,226,242)" stroke-width="1.5" />
  <line x1="73.8" y1="124.06" x2="73.8" y2="100.06" stroke="rgb(228,226,242)" stroke-width="1.5" />
  <line x1="73.8" y1="100.06" x2="53.01" y2="88.06" stroke="rgb(228,226,242)" stroke-width="1.5" />
  <line x1="113.45" y1="67.94" x2="113.45" y2="91.94" stroke="rgb(228,226,242)" stroke-width="1.5" />
  <line x1="113.45" y1="91.94" x2="134.23" y2="103.94" stroke="rgb(228,226,242)" stroke-width="1.5" />
  <line x1="134.23" y1="103.94" x2="134.23" y2="127.94" stroke="rgb(228,226,242)" stroke-width="1.5" />
  <line x1="134.23" y1="127.94" x2="149.35" y2="136.67" stroke="rgb(228,226,242)" stroke-width="1.5" />
  <line x1="166.56" y1="133.27" x2="175.8" y2="127.94" stroke="rgb(228,226,242)" stroke-width="1.5" />
  <line x1="175.8" y1="127.94" x2="175.8" y2="103.94" stroke="rgb(228,226,242)" stroke-width="1.5" />
  <line x1="175.8" y1="103.94" x2="196.59" y2="91.94" stroke="rgb(228,226,242)" stroke-width="1.5" />
  <line x1="196.59" y1="91.94" x2="196.59" y2="67.94" stroke="rgb(228,226,242)" stroke-width="1.5" />
  <line x1="155.02" y1="146.94" x2="155.02" y2="163.94" stroke="rgb(228,226,242)" stroke-width="1.5" />
  <line x1="155.02" y1="163.94" x2="175.8" y2="175.94" stroke="rgb(228,226,242)" stroke-width="1.5" />
  <line x1="175.8" y1="175.94" x2="175.8" y2="199.94" stroke="rgb(228,226,242)" stroke-width="1.5" />
  <line x1="175.8" y1="199.94" x2="196.59" y2="211.94" stroke="rgb(228,226,242)" stroke-width="1.5" />
  <line x1="237.93" y1="165.68" x2="242.95" y2="157" stroke="rgb(228,226,242)" stroke-width="1.5" />
  <line x1="242.95" y1="143" x2="237.93" y2="134.32" stroke="rgb(228,226,242)" stroke-width="1.5" />
  <line id="mol36:Bond:0" class="event" x1="136.15" y1="232.06" x2="136.15" y2="208.06" stroke-width="1.5" opacity="0" />
  <line id="mol36:Bond:1" class="event" x1="136.15" y1="208.06" x2="115.37" y2="196.06" stroke-width="1.5" opacity="0" />
  <line id="mol36:Bond:2" class="event" x1="115.37" y1="196.06" x2="115.37" y2="172.06" stroke-width="1.5" opacity="0" />
  <line id="mol36:Bond:3" class="event" x1="115.37" y1="172.06" x2="94.58" y2="160.06" stroke-width="1.5" opacity="0" />
  <line id="mol36:Bond:4" class="event" x1="94.58" y1="160.06" x2="73.8" y2="172.06" stroke-width="1.5" opacity="0" />
  <line id="mol36:Bond:5" class="event" x1="73.8" y1="172.06" x2="73.8" y2="196.06" stroke-width="1.5" opacity="0" />
  <line id="mol36:Bond:6" class="event" x1="73.8" y1="196.06" x2="53.01" y2="208.06" stroke-width="1.5" opacity="0" />
  <line id="mol36:Bond:7" class="event" x1="53.01" y1="208.06" x2="53.01" y2="232.06" stroke-width="1.5" opacity="0" />
  <line id="mol36:Bond:8" class="event" x1="94.58" y1="160.06" x2="94.58" y2="136.06" stroke-width="1.5" opacity="0" />
  <line id="mol36:Bond:9" class="event" x1="94.58" y1="136.06" x2="73.8" y2="124.06" stroke-width="1.5" opacity="0" />
  <line id="mol36:Bond:10" class="event" x1="73.8" y1="124.06" x2="73.8" y2="100.06" stroke-width="1.5" opacity="0" />
  <line id="mol36:Bond:11" class="event" x1="73.8" y1="100.06" x2="53.01" y2="88.06" stroke-width="1.5" opacity="0" />
  <line id="mol36:Bond:12" class="event" x1="113.45" y1="67.94" x2="113.45" y2="91.94" stroke-width="1.5" opacity="0" />
  <line id="mol36:Bond:13" class="event" x1="113.45" y1="91.94" x2="134.23" y2="103.94" stroke-width="1.5" opacity="0" />
  <line id="mol36:Bond:14" class="event" x1="134.23" y1="103.94" x2="134.23" y2="127.94" stroke-width="1.5" opacity="0" />
  <line id="mol36:Bond:15" class="event" x1="134.23" y1="127.94" x2="155.02" y2="139.94" stroke-width="1.5" opacity="0" />
  <line id="mol36:Bond:16" class="event" x1="155.02" y1="139.94" x2="175.8" y2="127.94" stroke-width="1.5" opacity="0" />
  <line id="mol36:Bond:17" class="event" x1="175.8" y1="127.94" x2="175.8" y2="103.94" stroke-width="1.5" opacity="0" />
  <line id="mol36:Bond:18" class="event" x1="175.8" y1="103.94" x2="196.59" y2="91.94" stroke-width="1.5" opacity="0" />
  <line id="mol36:Bond:19" class="event" x1="196.59" y1="91.94" x2="196.59" y2="67.94" stroke-width="1.5" opacity="0" />
  <line id="mol36:Bond:20" class="event" x1="155.02" y1="139.94" x2="155.02" y2="163.94" stroke-width="1.5" opacity="0" />
  <line id="mol36:Bond:21" class="event" x1="155.02" y1="163.94" x2="175.8" y2="175.94" stroke-width="1.5" opacity="0" />
  <line id="mol36:Bond:22" class="event" x1="175.8" y1="175.94" x2="175.8" y2="199.94" stroke-width="1.5" opacity="0" />
  <line id="mol36:Bond:23" class="event" x1="175.8" y1="199.94" x2="196.59" y2="211.94" stroke-width="1.5" opacity="0" />
  <line id="mol36:Bond:24" class="event" x1="234.99" y1="170.78" x2="246.99" y2="150" stroke-width="1.5" opacity="0" />
  <line id="mol36:Bond:25" class="event" x1="246.99" y1="150" x2="234.99" y2="129.22" stroke-width="1.5" opacity="0" />
  <circle id="mol36:Atom:0" class="event" cx="136.15" cy="232.06" r="8" opacity="0" />
  <circle id="mol36:Atom:1" class="event" cx="136.15" cy="208.06" r="8" opacity="0" />
  <circle id="mol36:Atom:2" class="event" cx="115.37" cy="196.06" r="8" opacity="0" />
  <circle id="mol36:Atom:3" class="event" cx="115.37" cy="172.06" r="8" opacity="0" />
  <circle id="mol36:Atom:4" class="event" cx="94.58" cy="160.06" r="8" opacity="0" />
  <circle id="mol36:Atom:5" class="event" cx="73.8" cy="172.06" r="8" opacity="0" />
  <circle id="mol36:Atom:6" class="event" cx="73.8" cy="196.06" r="8" opacity="0" />
  <circle id="mol36:Atom:7" class="event" cx="53.01" cy="208.06" r="8" opacity="0" />
  <circle id="mol36:Atom:8" class="event" cx="53.01" cy="232.06" r="8" opacity="0" />
  <circle id="mol36:Atom:9" class="event" cx="94.58" cy="136.06" r="8" opacity="0" />
  <circle id="mol36:Atom:10" class="event" cx="73.8" cy="124.06" r="8" opacity="0" />
  <circle id="mol36:Atom:11" class="event" cx="73.8" cy="100.06" r="8" opacity="0" />
  <circle id="mol36:Atom:12" class="event" cx="53.01" cy="88.06" r="8" opacity="0" />
  <circle id="mol36:Atom:13" class="event" cx="113.45" cy="67.94" r="8" opacity="0" />
  <circle id="mol36:Atom:14" class="event" cx="113.45" cy="91.94" r="8" opacity="0" />
  <circle id="mol36:Atom:15" class="event" cx="134.23" cy="103.94" r="8" opacity="0" />
  <circle id="mol36:Atom:16" class="event" cx="134.23" cy="127.94" r="8" opacity="0" />
  <circle id="mol36:Atom:17" class="event" cx="155.02" cy="139.94" r="8" opacity="0" />
  <circle id="mol36:Atom:18" class="event" cx="175.8" cy="127.94" r="8" opacity="0" />
  <circle id="mol36:Atom:19" class="event" cx="175.8" cy="103.94" r="8" opacity="0" />
  <circle id="mol36:Atom:20" class="event" cx="196.59" cy="91.94" r="8" opacity="0" />
  <circle id="mol36:Atom:21" class="event" cx="196.59" cy="67.94" r="8" opacity="0" />
  <circle id="mol36:Atom:22" class="event" cx="155.02" cy="163.94" r="8" opacity="0" />
  <circle id="mol36:Atom:23" class="event" cx="175.8" cy="175.94" r="8" opacity="0" />
  <circle id="mol36:Atom:24" class="event" cx="175.8" cy="199.94" r="8" opacity="0" />
  <circle id="mol36:Atom:25" class="event" cx="196.59" cy="211.94" r="8" opacity="0" />
  <circle id="mol36:Atom:26" class="event" cx="234.99" cy="170.78" r="8" opacity="0" />
  <circle id="mol36:Atom:27" class="event" cx="246.99" cy="150" r="8" opacity="0" />
  <circle id="mol36:Atom:28" class="event" cx="234.99" cy="129.22" r="8" opacity="0" />
</svg>