<svg id="mol37" xmlns="http://www.w3.org/2000/svg" version="1.1" width="294px" height="139px" viewBox="6 81 294 139">
  <style> #mol37 text {font-family: sans-serif;} #mol37 { pointer-events:none; } #mol37 .event  { pointer-events:all; } #mol37 line { stroke-linecap:round; } #mol37 polygon { stroke-linejoin:round; } </style>
  <text x="106.66" y="233.15" stroke="none" font-size="12" fill="rgb(160,0,0)">unknown chirality</text>
  <text x="183.4" y="172.67" stroke="none" font-size="14" fill="rgb(189,128,227)">As</text>
  <text x="162.62" y="160.67" stroke="none" font-size="14" fill="rgb(189,128,227)">As</text>
  <text x="82.2" y="208.67" stroke="none" font-size="14" fill="rgb(248,113,113)">O</text>
  <text x="72.09" y="208.67" stroke="none" font-size="14" fill="rgb(248,113,113)">H</text>
  <text x="82.59" y="160.67" stroke="none" font-size="14" fill="rgb(129,140,248)">N</text>
  <text x="82.59" y="146.67" stroke="none" font-size="14" fill="rgb(129,140,248)">H</text>
  <text x="41.41" y="160.67" stroke="none" font-size="14" fill="rgb(205,205,38)">S</text>
  <text x="36.4" y="164" stroke="none" font-size="9" fill="rgb(160,0,0)">?</text>
  <text x="40.63" y="136.67" stroke="none" font-size="14" fill="rgb(248,113,113)">O</text>
  <text x="19.85" y="172.67" stroke="none" font-size="14" fill="rgb(248,113,113)">O</text>
  <text x="228.08" y="100.67" stroke="none" font-size="14" fill="rgb(129,140,248)">N</text>
  <text x="248.3" y="104" stroke="none" font-size="9" fill="rgb(129,140,248)">2</text>
  <text x="238.19" y="100.67" stroke="none" font-size="14" fill="rgb(129,140,248)">H</text>
  <text x="269.26" y="124.67" stroke="none" font-size="14" fill="rgb(248,113,113)">O</text>
  <text x="280.15" y="124.67" stroke="none" font-size="14" fill="rgb(248,113,113)">H</text>
  <circle cx="16.97" cy="168" r="1.44" fill="rgb(228,226,242)" />
  <line x1="233.14" y1="168" x2="253.92" y2="156" stroke="rgb(228,226,242)" stroke-width="1.5" />
  <line x1="233.56" y1="163.6" x2="249.91" y2="154.16" stroke="rgb(228,226,242)" stroke-width="1.5" />
  <line x1="253.92" y1="132" x2="233.14" y2="120" stroke="rgb(228,226,242)" stroke-width="1.5" />
  <line x1="249.91" y1="133.84" x2="233.56" y2="124.4" stroke="rgb(228,226,242)" stroke-width="1.5" />
  <line x1="212.35" y1="132" x2="212.35" y2="156" stroke="rgb(228,226,242)" stroke-width="1.5" />
  <line x1="215.95" y1="134.56" x2="215.95" y2="153.44" stroke="rgb(228,226,242)" stroke-width="1.5" />
  <line x1="183.3" y1="161.15" x2="179.05" y2="162.85" stroke="rgb(228,226,242)" stroke-width="1.5" />
  <line x1="181.5" y1="164.27" x2="180.85" y2="159.73" stroke="rgb(228,226,242)" stroke-width="1.5" />
  <line x1="150" y1="168" x2="129.22" y2="156" stroke="rgb(228,226,242)" stroke-width="1.5" />
  <line x1="145.98" y1="169.84" x2="129.63" y2="160.4" stroke="rgb(228,226,242)" stroke-width="1.5" />
  <line x1="108.43" y1="168" x2="108.43" y2="192" stroke="rgb(228,226,242)" stroke-width="1.5" />
  <line x1="112.03" y1="170.56" x2="112.03" y2="189.44" stroke="rgb(228,226,242)" stroke-width="1.5" />
  <line x1="129.22" y1="204" x2="150" y2="192" stroke="rgb(228,226,242)" stroke-width="1.5" />
  <line x1="129.63" y1="199.6" x2="145.98" y2="190.16" stroke="rgb(228,226,242)" stroke-width="1.5" />
  <line x1="47.88" y1="149" x2="47.88" y2="139" stroke="rgb(228,226,242)" stroke-width="1.5" />
  <line x1="44.28" y1="149" x2="44.28" y2="139" stroke="rgb(228,226,242)" stroke-width="1.5" />
  <line x1="253.92" y1="156" x2="253.92" y2="132" stroke="rgb(228,226,242)" stroke-width="1.5" />
  <line x1="233.14" y1="120" x2="212.35" y2="132" stroke="rgb(228,226,242)" stroke-width="1.5" />
  <line x1="233.14" y1="168" x2="212.35" y2="156" stroke="rgb(228,226,242)" stroke-width="1.5" />
  <line x1="212.35" y1="156" x2="200.74" y2="162.71" stroke="rgb(228,226,242)" stroke-width="1.5" />
  <line x1="161.62" y1="161.29" x2="150" y2="168" stroke="rgb(228,226,242)" stroke-width="1.5" />
  <line x1="129.22" y1="156" x2="108.43" y2="168" stroke="rgb(228,226,242)" stroke-width="1.5" />
  <line x1="108.43" y1="192" x2="129.22" y2="204" stroke="rgb(228,226,242)" stroke-width="1.5" />
  <line x1="150" y1="168" x2="150" y2="192" stroke="rgb(228,226,242)" stroke-width="1.5" />
  <line x1="108.43" y1="192" x2="94.09" y2="200.28" stroke="rgb(228,226,242)" stroke-width="1.5" />
  <line x1="108.43" y1="168" x2="93.7" y2="159.5" stroke="rgb(228,226,242)" stroke-width="1.5" />
  <line x1="81.59" y1="159.5" x2="66.86" y2="168" stroke="rgb(228,226,242)" stroke-width="1.5" />
  <line x1="66.86" y1="168" x2="51.75" y2="159.27" stroke="rgb(228,226,242)" stroke-width="1.5" />
  <line x1="40.41" y1="159.27" x2="31.74" y2="164.28" stroke="rgb(228,226,242)" stroke-width="1.5" />
  <line x1="233.14" y1="120" x2="233.14" y2="103" stroke="rgb(228,226,242)" stroke-width="1.5" />
  <line x1="253.92" y1="132" x2="268.26" y2="123.72" stroke="rgb(228,226,242)" stroke-width="1.5" />
  <line id="mol37:Bond:0" class="event" x1="233.14" y1="168" x2="253.92" y2="156" stroke-width="1.5" opacity="0" />
  <line id="mol37:Bond:2" class="event" x1="253.92" y1="132" x2="233.14" y2="120" stroke-width="1.5" opacity="0" />
  <line id="mol37:Bond:4" class="event" x1="212.35" y1="132" x2="212.35" y2="156" stroke-width="1.5" opacity="0" />
  <line id="mol37:Bond:7" class="event" x1="191.57" y1="168" x2="170.78" y2="156" stroke-width="1.5" opacity="0" />
  <line id="mol37:Bond:9" class="event" x1="150" y1="168" x2="129.22" y2="156" stroke-width="1.5" opacity="0" />
  <line id="mol37:Bond:11" class="event" x1="108.43" y1="168" x2="108.43" y2="192" stroke-width="1.5" opacity="0" />
  <line id="mol37:Bond:13" class="event" x1="129.22" y1="204" x2="150" y2="192" stroke-width="1.5" opacity="0" />
  <line id="mol37:Bond:19" class="event" x1="46.08" y1="156" x2="46.08" y2="132" stroke-width="1.5" opacity="0" />
  <line id="mol37:Bond:1" class="event" x1="253.92" y1="156" x2="253.92" y2="132" stroke-width="1.5" opacity="0" />
  <line id="mol37:Bond:3" class="event" x1="233.14" y1="120" x2="212.35" y2="132" stroke-width="1.5" opacity="0" />
  <line id="mol37:Bond:5" class="event" x1="233.14" y1="168" x2="212.35" y2="156" stroke-width="1.5" opacity="0" />
  <line id="mol37:Bond:6" class="event" x1="212.35" y1="156" x2="191.57" y2="168" stroke-width="1.5" opacity="0" />
  <line id="mol37:Bond:8" class="event" x1="170.78" y1="156" x2="150" y2="168" stroke-width="1.5" opacity="0" />
  <line id="mol37:Bond:10" class="event" x1="129.22" y1="156" x2="108.43" y2="168" stroke-width="1.5" opacity="0" />
  <line id="mol37:Bond:12" class="event" x1="108.43" y1="192" x2="129.22" y2="204" stroke-width="1.5" opacity="0" />
  <line id="mol37:Bond:14" class="event" x1="150" y1="168" x2="150" y2="192" stroke-width="1.5" opacity="0" />
  <line id="mol37:Bond:15" class="event" x1="108.43" y1="192" x2="87.65" y2="204" stroke-width="1.5" opacity="0" />
  <line id="mol37:Bond:16" class="event" x1="108.43" y1="168" x2="87.65" y2="156" stroke-width="1.5" opacity="0" />
  <line id="mol37:Bond:17" class="event" x1="87.65" y1="156" x2="66.86" y2="168" stroke-width="1.5" opacity="0" />
  <line id="mol37:Bond:18" class="event" x1="66.86" y1="168" x2="46.08" y2="156" stroke-width="1.5" opacity="0" />
  <line id="mol37:Bond:20" class="event" x1="46.08" y1="156" x2="25.29" y2="168" stroke-width="1.5" opacity="0" />
  <line id="mol37:Bond:21" class="event" x1="233.14" y1="120" x2="233.14" y2="96" stroke-width="1.5" opacity="0" />
  <line id="mol37:Bond:22" class="event" x1="253.92" y1="132" x2="274.71" y2="120" stroke-width="1.5" opacity="0" />
  <circle id="mol37:Atom:0" class="event" cx="233.14" cy="168" r="8" opacity="0" />
  <circle id="mol37:Atom:1" class="event" cx="253.92" cy="156" r="8" opacity="0" />
  <circle id="mol37:Atom:2" class="event" cx="253.92" cy="132" r="8" opacity="0" />
  <circle id="mol37:Atom:3" class="event" cx="233.14" cy="120" r="8" opacity="0" />
  <circle id="mol37:Atom:4" class="event" cx="212.35" cy="132" r="8" opacity="0" />
  <circle id="mol37:Atom:5" class="event" cx="212.35" cy="156" r="8" opacity="0" />
  <circle id="mol37:Atom:6" class="event" cx="191.57" cy="168" r="8" opacity="0" />
  <circle id="mol37:Atom:7" class="event" cx="170.78" cy="156" r="8" opacity="0" />
  <circle id="mol37:Atom:8" class="event" cx="150" cy="168" r="8" opacity="0" />
  <circle id="mol37:Atom:9" class="event" cx="129.22" cy="156" r="8" opacity="0" />
  <circle id="mol37:Atom:10" class="event" cx="108.43" cy="168" r="8" opacity="0" />
  <circle id="mol37:Atom:11" class="event" cx="108.43" cy="192" r="8" opacity="0" />
  <circle id="mol37:Atom:12" class="event" cx="129.22" cy="204" r="8" opacity="0" />
  <circle id="mol37:Atom:13" class="event" cx="150" cy="192" r="8" opacity="0" />
  <circle id="mol37:Atom:14" class="event" cx="87.65" cy="204" r="8" opacity="0" />
  <circle id="mol37:Atom:15" class="event" cx="87.65" cy="156" r="8" opacity="0" />
  <circle id="mol37:Atom:16" class="event" cx="66.86" cy="168" r="8" opacity="0" />
  <circle id="mol37:Atom:17" class="event" cx="46.08" cy="156" r="8" opacity="0" />
  <circle id="mol37:Atom:18" class="event" cx="46.08" cy="132" r="8" opacity="0" />
  <circle id="mol37:Atom:19" class="event" cx="25.29" cy="168" r="8" opacity="0" />
  <circle id="mol37:Atom:20" class="event" cx="233.14" cy="96" r="8" opacity="0" />
  <circle id="mol37:Atom:21" class="event" cx="274.71" cy="120" r="8" opacity="0" />
</svg>