<svg id="mol37" xmlns="http://www.w3.org/2000/svg" version="1.1" width="236px" height="135px" viewBox="40 83 236 135">
  <style> #mol37 text {font-family: sans-serif;} #mol37 { pointer-events:none; } #mol37 .event  { pointer-events:all; } #mol37 line { stroke-linecap:round; } #mol37 polygon { stroke-linejoin:round; } </style>
  <text x="117.06" y="231.14" stroke="none" font-size="12" fill="rgb(160,0,0)">this enantiomer</text>
  <text x="147.26" y="177.74" stroke="none" font-size="14" fill="rgb(129,140,248)">N</text>
  <text x="125.08" y="145.16" stroke="none" font-size="9" fill="rgb(160,0,0)">R</text>
  <text x="124.32" y="133.86" stroke="none" font-size="9" fill="rgb(160,0,0)">abs</text>
  <text x="166.55" y="169.1" stroke="none" font-size="9" fill="rgb(160,0,0)">R</text>
  <text x="171.25" y="160.95" stroke="none" font-size="9" fill="rgb(160,0,0)">abs</text>
  <text x="246.32" y="153.8" stroke="none" font-size="14" fill="rgb(129,140,248)">N</text>
  <text x="256.43" y="153.8" stroke="none" font-size="14" fill="rgb(129,140,248)">H</text>
  <text x="105.39" y="105.91" stroke="none" font-size="14" fill="rgb(248,113,113)">O</text>
  <text x="85.05" y="141.82" stroke="none" font-size="14" fill="rgb(129,140,248)">N</text>
  <line x1="152.31" y1="125.18" x2="173.05" y2="137.16" stroke="rgb(228,226,242)" stroke-width="1.5" />
  <line x1="152.73" y1="129.58" x2="169.03" y2="138.99" stroke="rgb(228,226,242)" stroke-width="1.5" />
  <line x1="214.52" y1="161.1" x2="237.3" y2="168.5" stroke="rgb(228,226,242)" stroke-width="1.5" />
  <line x1="218.5" y1="158.61" x2="235.54" y2="164.14" stroke="rgb(228,226,242)" stroke-width="1.5" />
  <line x1="237.3" y1="129.76" x2="238.75" y2="105.08" stroke="rgb(228,226,242)" stroke-width="1.5" />
  <line x1="233.87" y1="126.65" x2="235.01" y2="107.32" stroke="rgb(228,226,242)" stroke-width="1.5" />
  <line x1="219.37" y1="91.01" x2="197.5" y2="100.75" stroke="rgb(228,226,242)" stroke-width="1.5" />
  <line x1="218.5" y1="95.34" x2="201.2" y2="103.04" stroke="rgb(228,226,242)" stroke-width="1.5" />
  <line x1="193.79" y1="125.18" x2="214.52" y2="137.16" stroke="rgb(228,226,242)" stroke-width="1.5" />
  <line x1="198.1" y1="123.51" x2="214.61" y2="133.05" stroke="rgb(228,226,242)" stroke-width="1.5" />
  <line x1="112.64" y1="126.22" x2="112.64" y2="108.24" stroke="rgb(228,226,242)" stroke-width="1.5" />
  <line x1="109.04" y1="126.22" x2="109.04" y2="108.24" stroke="rgb(228,226,242)" stroke-width="1.5" />
  <line x1="131.58" y1="208.99" x2="152.31" y2="197.02" stroke="rgb(228,226,242)" stroke-width="1.5" />
  <line x1="152.31" y1="197.02" x2="152.31" y2="180.07" stroke="rgb(228,226,242)" stroke-width="1.5" />
  <line x1="146.26" y1="169.58" x2="131.58" y2="161.1" stroke="rgb(228,226,242)" stroke-width="1.5" />
  <line x1="131.58" y1="161.1" x2="131.58" y2="137.16" stroke="rgb(228,226,242)" stroke-width="1.5" />
  <line x1="131.58" y1="137.16" x2="152.31" y2="125.18" stroke="rgb(228,226,242)" stroke-width="1.5" />
  <line x1="173.05" y1="137.16" x2="173.05" y2="161.1" stroke="rgb(228,226,242)" stroke-width="1.5" />
  <polygon points="173,161 165,165 166,166 " fill="rgb(160,0,0)" stroke="rgb(160,0,0)" stroke-width="1.5" />
  <polygon points="166,166 165,165 157,168 159,171 " fill="rgb(160,0,0)" stroke="rgb(160,0,0)" stroke-width="1.5" />
  <line x1="173.05" y1="161.1" x2="193.79" y2="173.07" stroke="rgb(228,226,242)" stroke-width="1.5" />
  <line x1="193.79" y1="173.07" x2="214.52" y2="161.1" stroke="rgb(228,226,242)" stroke-width="1.5" />
  <line x1="237.3" y1="168.5" x2="246.29" y2="156.13" stroke="rgb(228,226,242)" stroke-width="1.5" />
  <line x1="246.29" y1="142.13" x2="237.3" y2="129.76" stroke="rgb(228,226,242)" stroke-width="1.5" />
  <line x1="238.75" y1="105.08" x2="219.37" y2="91.01" stroke="rgb(228,226,242)" stroke-width="1.5" />
  <line x1="197.5" y1="100.75" x2="193.79" y2="125.18" stroke="rgb(228,226,242)" stroke-width="1.5" />
  <line x1="173.05" y1="137.16" x2="193.79" y2="125.18" stroke="rgb(228,226,242)" stroke-width="1.5" />
  <line x1="214.52" y1="161.1" x2="214.52" y2="137.16" stroke="rgb(228,226,242)" stroke-width="1.5" />
  <line x1="237.3" y1="129.76" x2="214.52" y2="137.16" stroke="rgb(228,226,242)" stroke-width="1.5" />
  <line x1="129.32" y1="135.42" x2="128.95" y2="136.07" stroke="rgb(160,0,0)" stroke-width="1.5" />
  <line x1="127.07" y1="133.69" x2="126.32" y2="134.99" stroke="rgb(160,0,0)" stroke-width="1.5" />
  <line x1="124.82" y1="131.96" x2="123.7" y2="133.9" stroke="rgb(160,0,0)" stroke-width="1.5" />
  <line x1="122.57" y1="130.23" x2="121.07" y2="132.82" stroke="rgb(160,0,0)" stroke-width="1.5" />
  <line x1="120.31" y1="128.49" x2="118.44" y2="131.73" stroke="rgb(160,0,0)" stroke-width="1.5" />
  <line x1="118.06" y1="126.76" x2="115.82" y2="130.65" stroke="rgb(160,0,0)" stroke-width="1.5" />
  <line x1="115.81" y1="125.03" x2="113.19" y2="129.56" stroke="rgb(160,0,0)" stroke-width="1.5" />
  <line x1="113.56" y1="123.3" x2="110.56" y2="128.48" stroke="rgb(160,0,0)" stroke-width="1.5" />
  <line x1="110.84" y1="125.18" x2="96.16" y2="133.66" stroke="rgb(228,226,242)" stroke-width="1.5" />
  <line x1="90.1" y1="144.16" x2="90.1" y2="161.1" stroke="rgb(228,226,242)" stroke-width="1.5" />
  <line x1="90.1" y1="161.1" x2="110.84" y2="173.07" stroke="rgb(228,226,242)" stroke-width="1.5" />
  <line x1="84.05" y1="133.66" x2="69.37" y2="125.18" stroke="rgb(228,226,242)" stroke-width="1.5" />
  <line x1="69.37" y1="125.18" x2="48.63" y2="137.16" stroke="rgb(228,226,242)" stroke-width="1.5" />
  <line id="mol37:Bond:5" class="event" x1="152.31" y1="125.18" x2="173.05" y2="137.16" stroke-width="1.5" opacity="0" />
  <line id="mol37:Bond:10" class="event" x1="214.52" y1="161.1" x2="237.3" y2="168.5" stroke-width="1.5" opacity="0" />
  <line id="mol37:Bond:13" class="event" x1="237.3" y1="129.76" x2="238.75" y2="105.08" stroke-width="1.5" opacity="0" />
  <line id="mol37:Bond:15" class="event" x1="219.37" y1="91.01" x2="197.5" y2="100.75" stroke-width="1.5" opacity="0" />
  <line id="mol37:Bond:18" class="event" x1="193.79" y1="125.18" x2="214.52" y2="137.16" stroke-width="1.5" opacity="0" />
  <line id="mol37:Bond:22" class="event" x1="110.84" y1="125.18" x2="110.84" y2="101.24" stroke-width="1.5" opacity="0" />
  <line id="mol37:Bond:0" class="event" x1="131.58" y1="208.99" x2="152.31" y2="197.02" stroke-width="1.5" opacity="0" />
  <line id="mol37:Bond:1" class="event" x1="152.31" y1="197.02" x2="152.31" y2="173.07" stroke-width="1.5" opacity="0" />
  <line id="mol37:Bond:2" class="event" x1="152.31" y1="173.07" x2="131.58" y2="161.1" stroke-width="1.5" opacity="0" />
  <line id="mol37:Bond:3" class="event" x1="131.58" y1="161.1" x2="131.58" y2="137.16" stroke-width="1.5" opacity="0" />
  <line id="mol37:Bond:4" class="event" x1="131.58" y1="137.16" x2="152.31" y2="125.18" stroke-width="1.5" opacity="0" />
  <line id="mol37:Bond:6" class="event" x1="173.05" y1="137.16" x2="173.05" y2="161.1" stroke-width="1.5" opacity="0" />
  <line id="mol37:Bond:7" class="event" x1="173.05" y1="161.1" x2="152.31" y2="173.07" stroke-width="1.5" opacity="0" />
  <line id="mol37:Bond:8" class="event" x1="173.05" y1="161.1" x2="193.79" y2="173.07" stroke-width="1.5" opacity="0" />
  <line id="mol37:Bond:9" class="event" x1="193.79" y1="173.07" x2="214.52" y2="161.1" stroke-width="1.5" opacity="0" />
  <line id="mol37:Bond:11" class="event" x1="237.3" y1="168.5" x2="251.37" y2="149.13" stroke-width="1.5" opacity="0" />
  <line id="mol37:Bond:12" class="event" x1="251.37" y1="149.13" x2="237.3" y2="129.76" stroke-width="1.5" opacity="0" />
  <line id="mol37:Bond:14" class="event" x1="238.75" y1="105.08" x2="219.37" y2="91.01" stroke-width="1.5" opacity="0" />
  <line id="mol37:Bond:16" class="event" x1="197.5" y1="100.75" x2="193.79" y2="125.18" stroke-width="1.5" opacity="0" />
  <line id="mol37:Bond:17" class="event" x1="173.05" y1="137.16" x2="193.79" y2="125.18" stroke-width="1.5" opacity="0" />
  <line id="mol37:Bond:19" class="event" x1="214.52" y1="161.1" x2="214.52" y2="137.16" stroke-width="1.5" opacity="0" />
  <line id="mol37:Bond:20" class="event" x1="237.3" y1="129.76" x2="214.52" y2="137.16" stroke-width="1.5" opacity="0" />
  <line id="mol37:Bond:21" class="event" x1="131.58" y1="137.16" x2="110.84" y2="125.18" stroke-width="1.5" opacity="0" />
  <line id="mol37:Bond:23" class="event" x1="110.84" y1="125.18" x2="90.1" y2="137.16" stroke-width="1.5" opacity="0" />
  <line id="mol37:Bond:24" class="event" x1="90.1" y1="137.16" x2="90.1" y2="161.1" stroke-width="1.5" opacity="0" />
  <line id="mol37:Bond:25" class="event" x1="90.1" y1="161.1" x2="110.84" y2="173.07" stroke-width="1.5" opacity="0" />
  <line id="mol37:Bond:26" class="event" x1="90.1" y1="137.16" x2="69.37" y2="125.18" stroke-width="1.5" opacity="0" />
  <line id="mol37:Bond:27" class="event" x1="69.37" y1="125.18" x2="48.63" y2="137.16" stroke-width="1.5" opacity="0" />
  <circle id="mol37:Atom:0" class="event" cx="131.58" cy="208.99" r="8" opacity="0" />
  <circle id="mol37:Atom:1" class="event" cx="152.31" cy="197.02" r="8" opacity="0" />
  <circle id="mol37:Atom:2" class="event" cx="152.31" cy="173.07" r="8" opacity="0" />
  <circle id="mol37:Atom:3" class="event" cx="131.58" cy="161.1" r="8" opacity="0" />
  <circle id="mol37:Atom:4" class="event" cx="131.58" cy="137.16" r="8" opacity="0" />
  <circle id="mol37:Atom:5" class="event" cx="152.31" cy="125.18" r="8" opacity="0" />
  <circle id="mol37:Atom:6" class="event" cx="173.05" cy="137.16" r="8" opacity="0" />
  <circle id="mol37:Atom:7" class="event" cx="173.05" cy="161.1" r="8" opacity="0" />
  <circle id="mol37:Atom:8" class="event" cx="193.79" cy="173.07" r="8" opacity="0" />
  <circle id="mol37:Atom:9" class="event" cx="214.52" cy="161.1" r="8" opacity="0" />
  <circle id="mol37:Atom:10" class="event" cx="237.3" cy="168.5" r="8" opacity="0" />
  <circle id="mol37:Atom:11" class="event" cx="251.37" cy="149.13" r="8" opacity="0" />
  <circle id="mol37:Atom:12" class="event" cx="237.3" cy="129.76" r="8" opacity="0" />
  <circle id="mol37:Atom:13" class="event" cx="238.75" cy="105.08" r="8" opacity="0" />
  <circle id="mol37:Atom:14" class="event" cx="219.37" cy="91.01" r="8" opacity="0" />
  <circle id="mol37:Atom:15" class="event" cx="197.5" cy="100.75" r="8" opacity="0" />
  <circle id="mol37:Atom:16" class="event" cx="193.79" cy="125.18" r="8" opacity="0" />
  <circle id="mol37:Atom:17" class="event" cx="214.52" cy="137.16" r="8" opacity="0" />
  <circle id="mol37:Atom:18" class="event" cx="110.84" cy="125.18" r="8" opacity="0" />
  <circle id="mol37:Atom:19" class="event" cx="110.84" cy="101.24" r="8" opacity="0" />
  <circle id="mol37:Atom:20" class="event" cx="90.1" cy="137.16" r="8" opacity="0" />
  <circle id="mol37:Atom:21" class="event" cx="90.1" cy="161.1" r="8" opacity="0" />
  <circle id="mol37:Atom:22" class="event" cx="110.84" cy="173.07" r="8" opacity="0" />
  <circle id="mol37:Atom:23" class="event" cx="69.37" cy="125.18" r="8" opacity="0" />
  <circle id="mol37:Atom:24" class="event" cx="48.63" cy="137.16" r="8" opacity="0" />
</svg>