<svg id="mol4" xmlns="http://www.w3.org/2000/svg" version="1.1" width="242px" height="130px" viewBox="29 81 242 130">
  <style> #mol4 text {font-family: sans-serif;} #mol4 { pointer-events:none; } #mol4 .event  { pointer-events:all; } #mol4 line { stroke-linecap:round; } #mol4 polygon { stroke-linejoin:round; } </style>
  <text x="108.98" y="225.3" stroke="none" font-size="12" fill="rgb(160,0,0)">this enantiomer</text>
  <text x="137.06" y="176.12" stroke="none" font-size="14" fill="rgb(248,113,113)">O</text>
  <text x="147.95" y="176.12" stroke="none" font-size="14" fill="rgb(248,113,113)">H</text>
  <text x="92.36" y="152.09" stroke="none" font-size="9" fill="rgb(160,0,0)">R</text>
  <text x="91.6" y="140.79" stroke="none" font-size="9" fill="rgb(160,0,0)">abs</text>
  <text x="92.36" y="175.72" stroke="none" font-size="9" fill="rgb(160,0,0)">R</text>
  <text x="97.06" y="167.57" stroke="none" font-size="9" fill="rgb(160,0,0)">abs</text>
  <text x="93.41" y="101.52" stroke="none" font-size="14" fill="rgb(248,113,113)">O</text>
  <text x="83.3" y="101.52" stroke="none" font-size="14" fill="rgb(248,113,113)">H</text>
  <line x1="160.23" y1="108.66" x2="139.77" y2="96.85" stroke="rgb(228,226,242)" stroke-width="1.5" />
  <line x1="156.21" y1="110.5" x2="140.19" y2="101.25" stroke="rgb(228,226,242)" stroke-width="1.5" />
  <line x1="119.31" y1="108.66" x2="119.31" y2="132.28" stroke="rgb(228,226,242)" stroke-width="1.5" />
  <line x1="122.91" y1="111.22" x2="122.91" y2="129.72" stroke="rgb(228,226,242)" stroke-width="1.5" />
  <line x1="139.77" y1="144.09" x2="160.23" y2="132.28" stroke="rgb(228,226,242)" stroke-width="1.5" />
  <line x1="140.19" y1="139.7" x2="156.21" y2="130.45" stroke="rgb(228,226,242)" stroke-width="1.5" />
  <line x1="78.4" y1="132.28" x2="57.94" y2="144.09" stroke="rgb(228,226,242)" stroke-width="1.5" />
  <line x1="77.98" y1="136.68" x2="61.96" y2="145.93" stroke="rgb(228,226,242)" stroke-width="1.5" />
  <line x1="119.31" y1="179.53" x2="119.31" y2="203.15" stroke="rgb(228,226,242)" stroke-width="1.5" />
  <line x1="115.71" y1="182.09" x2="115.71" y2="203.15" stroke="rgb(228,226,242)" stroke-width="1.5" />
  <line x1="262.52" y1="96.85" x2="242.06" y2="108.66" stroke="rgb(228,226,242)" stroke-width="1.5" />
  <line x1="242.06" y1="108.66" x2="221.6" y2="96.85" stroke="rgb(228,226,242)" stroke-width="1.5" />
  <line x1="221.6" y1="96.85" x2="201.14" y2="108.66" stroke="rgb(228,226,242)" stroke-width="1.5" />
  <line x1="201.14" y1="108.66" x2="180.69" y2="96.85" stroke="rgb(228,226,242)" stroke-width="1.5" />
  <line x1="180.69" y1="96.85" x2="160.23" y2="108.66" stroke="rgb(228,226,242)" stroke-width="1.5" />
  <line x1="139.77" y1="96.85" x2="119.31" y2="108.66" stroke="rgb(228,226,242)" stroke-width="1.5" />
  <line x1="119.31" y1="132.28" x2="139.77" y2="144.09" stroke="rgb(228,226,242)" stroke-width="1.5" />
  <line x1="160.23" y1="108.66" x2="160.23" y2="132.28" stroke="rgb(228,226,242)" stroke-width="1.5" />
  <line x1="139.77" y1="144.09" x2="141.81" y2="164.45" stroke="rgb(228,226,242)" stroke-width="1.5" />
  <polygon points="99,144 110,139 108,137 " fill="rgb(160,0,0)" stroke="rgb(160,0,0)" stroke-width="1.5" />
  <polygon points="108,137 110,139 121,135 118,130 " fill="rgb(160,0,0)" stroke="rgb(160,0,0)" stroke-width="1.5" />
  <line x1="98.86" y1="144.09" x2="78.4" y2="132.28" stroke="rgb(228,226,242)" stroke-width="1.5" />
  <line x1="57.94" y1="144.09" x2="57.94" y2="167.72" stroke="rgb(228,226,242)" stroke-width="1.5" />
  <line x1="57.94" y1="167.72" x2="78.4" y2="179.53" stroke="rgb(228,226,242)" stroke-width="1.5" />
  <line x1="78.4" y1="179.53" x2="98.86" y2="167.72" stroke="rgb(228,226,242)" stroke-width="1.5" />
  <line x1="98.86" y1="144.09" x2="98.86" y2="167.72" stroke="rgb(228,226,242)" stroke-width="1.5" />
  <line x1="101.08" y1="169.43" x2="101.45" y2="168.79" stroke="rgb(160,0,0)" stroke-width="1.5" />
  <line x1="103.3" y1="171.14" x2="104.04" y2="169.86" stroke="rgb(160,0,0)" stroke-width="1.5" />
  <line x1="105.52" y1="172.84" x2="106.63" y2="170.93" stroke="rgb(160,0,0)" stroke-width="1.5" />
  <line x1="107.74" y1="174.55" x2="109.22" y2="172" stroke="rgb(160,0,0)" stroke-width="1.5" />
  <line x1="109.97" y1="176.26" x2="111.81" y2="173.07" stroke="rgb(160,0,0)" stroke-width="1.5" />
  <line x1="112.19" y1="177.97" x2="114.4" y2="174.14" stroke="rgb(160,0,0)" stroke-width="1.5" />
  <line x1="114.41" y1="179.68" x2="117" y2="175.21" stroke="rgb(160,0,0)" stroke-width="1.5" />
  <line x1="116.63" y1="181.39" x2="119.59" y2="176.28" stroke="rgb(160,0,0)" stroke-width="1.5" />
  <line x1="119.31" y1="179.53" x2="142.56" y2="162.51" stroke="rgb(228,226,242)" stroke-width="1.5" />
  <line x1="57.94" y1="144.09" x2="37.48" y2="132.28" stroke="rgb(228,226,242)" stroke-width="1.5" />
  <line x1="119.31" y1="108.66" x2="105.3" y2="100.57" stroke="rgb(228,226,242)" stroke-width="1.5" />
  <line id="mol4:Bond:5" class="event" x1="160.23" y1="108.66" x2="139.77" y2="96.85" stroke-width="1.5" opacity="0" />
  <line id="mol4:Bond:7" class="event" x1="119.31" y1="108.66" x2="119.31" y2="132.28" stroke-width="1.5" opacity="0" />
  <line id="mol4:Bond:9" class="event" x1="139.77" y1="144.09" x2="160.23" y2="132.28" stroke-width="1.5" opacity="0" />
  <line id="mol4:Bond:14" class="event" x1="78.4" y1="132.28" x2="57.94" y2="144.09" stroke-width="1.5" opacity="0" />
  <line id="mol4:Bond:20" class="event" x1="119.31" y1="179.53" x2="119.31" y2="203.15" stroke-width="1.5" opacity="0" />
  <line id="mol4:Bond:0" class="event" x1="262.52" y1="96.85" x2="242.06" y2="108.66" stroke-width="1.5" opacity="0" />
  <line id="mol4:Bond:1" class="event" x1="242.06" y1="108.66" x2="221.6" y2="96.85" stroke-width="1.5" opacity="0" />
  <line id="mol4:Bond:2" class="event" x1="221.6" y1="96.85" x2="201.14" y2="108.66" stroke-width="1.5" opacity="0" />
  <line id="mol4:Bond:3" class="event" x1="201.14" y1="108.66" x2="180.69" y2="96.85" stroke-width="1.5" opacity="0" />
  <line id="mol4:Bond:4" class="event" x1="180.69" y1="96.85" x2="160.23" y2="108.66" stroke-width="1.5" opacity="0" />
  <line id="mol4:Bond:6" class="event" x1="139.77" y1="96.85" x2="119.31" y2="108.66" stroke-width="1.5" opacity="0" />
  <line id="mol4:Bond:8" class="event" x1="119.31" y1="132.28" x2="139.77" y2="144.09" stroke-width="1.5" opacity="0" />
  <line id="mol4:Bond:10" class="event" x1="160.23" y1="108.66" x2="160.23" y2="132.28" stroke-width="1.5" opacity="0" />
  <line id="mol4:Bond:11" class="event" x1="139.77" y1="144.09" x2="142.51" y2="171.45" stroke-width="1.5" opacity="0" />
  <line id="mol4:Bond:12" class="event" x1="98.86" y1="144.09" x2="119.31" y2="132.28" stroke-width="1.5" opacity="0" />
  <line id="mol4:Bond:13" class="event" x1="98.86" y1="144.09" x2="78.4" y2="132.28" stroke-width="1.5" opacity="0" />
  <line id="mol4:Bond:15" class="event" x1="57.94" y1="144.09" x2="57.94" y2="167.72" stroke-width="1.5" opacity="0" />
  <line id="mol4:Bond:16" class="event" x1="57.94" y1="167.72" x2="78.4" y2="179.53" stroke-width="1.5" opacity="0" />
  <line id="mol4:Bond:17" class="event" x1="78.4" y1="179.53" x2="98.86" y2="167.72" stroke-width="1.5" opacity="0" />
  <line id="mol4:Bond:18" class="event" x1="98.86" y1="144.09" x2="98.86" y2="167.72" stroke-width="1.5" opacity="0" />
  <line id="mol4:Bond:19" class="event" x1="98.86" y1="167.72" x2="119.31" y2="179.53" stroke-width="1.5" opacity="0" />
  <line id="mol4:Bond:21" class="event" x1="119.31" y1="179.53" x2="142.56" y2="162.51" stroke-width="1.5" opacity="0" />
  <line id="mol4:Bond:22" class="event" x1="57.94" y1="144.09" x2="37.48" y2="132.28" stroke-width="1.5" opacity="0" />
  <line id="mol4:Bond:23" class="event" x1="119.31" y1="108.66" x2="98.86" y2="96.85" stroke-width="1.5" opacity="0" />
  <circle id="mol4:Atom:0" class="event" cx="262.52" cy="96.85" r="8" opacity="0" />
  <circle id="mol4:Atom:1" class="event" cx="242.06" cy="108.66" r="8" opacity="0" />
  <circle id="mol4:Atom:2" class="event" cx="221.6" cy="96.85" r="8" opacity="0" />
  <circle id="mol4:Atom:3" class="event" cx="201.14" cy="108.66" r="8" opacity="0" />
  <circle id="mol4:Atom:4" class="event" cx="180.69" cy="96.85" r="8" opacity="0" />
  <circle id="mol4:Atom:5" class="event" cx="160.23" cy="108.66" r="8" opacity="0" />
  <circle id="mol4:Atom:6" class="event" cx="139.77" cy="96.85" r="8" opacity="0" />
  <circle id="mol4:Atom:7" class="event" cx="119.31" cy="108.66" r="8" opacity="0" />
  <circle id="mol4:Atom:8" class="event" cx="119.31" cy="132.28" r="8" opacity="0" />
  <circle id="mol4:Atom:9" class="event" cx="139.77" cy="144.09" r="8" opacity="0" />
  <circle id="mol4:Atom:10" class="event" cx="160.23" cy="132.28" r="8" opacity="0" />
  <circle id="mol4:Atom:11" class="event" cx="142.51" cy="171.45" r="8" opacity="0" />
  <circle id="mol4:Atom:12" class="event" cx="98.86" cy="144.09" r="8" opacity="0" />
  <circle id="mol4:Atom:13" class="event" cx="78.4" cy="132.28" r="8" opacity="0" />
  <circle id="mol4:Atom:14" class="event" cx="57.94" cy="144.09" r="8" opacity="0" />
  <circle id="mol4:Atom:15" class="event" cx="57.94" cy="167.72" r="8" opacity="0" />
  <circle id="mol4:Atom:16" class="event" cx="78.4" cy="179.53" r="8" opacity="0" />
  <circle id="mol4:Atom:17" class="event" cx="98.86" cy="167.72" r="8" opacity="0" />
  <circle id="mol4:Atom:18" class="event" cx="119.31" cy="179.53" r="8" opacity="0" />
  <circle id="mol4:Atom:19" class="event" cx="119.31" cy="203.15" r="8" opacity="0" />
  <circle id="mol4:Atom:20" class="event" cx="142.56" cy="162.51" r="8" opacity="0" />
  <circle id="mol4:Atom:21" class="event" cx="37.48" cy="132.28" r="8" opacity="0" />
  <circle id="mol4:Atom:22" class="event" cx="98.86" cy="96.85" r="8" opacity="0" />
</svg>