<svg id="mol42" xmlns="http://www.w3.org/2000/svg" version="1.1" width="183px" height="110px" viewBox="48 100 183 110">
  <style> #mol42 text {font-family: sans-serif;} #mol42 { pointer-events:none; } #mol42 .event  { pointer-events:all; } #mol42 line { stroke-linecap:round; } #mol42 polygon { stroke-linejoin:round; } </style>
  <text x="154.95" y="124.67" stroke="none" font-size="14" fill="rgb(248,113,113)">O</text>
  <text x="196.52" y="148.67" stroke="none" font-size="14" fill="rgb(248,113,113)">O</text>
  <text x="196.52" y="196.67" stroke="none" font-size="14" fill="rgb(248,113,113)">O</text>
  <text x="72.2" y="196.67" stroke="none" font-size="14" fill="rgb(129,140,248)">N</text>
  <text x="67.2" y="200" stroke="none" font-size="9" fill="rgb(129,140,248)">2</text>
  <text x="57.09" y="196.67" stroke="none" font-size="14" fill="rgb(129,140,248)">H</text>
  <line x1="160.39" y1="144" x2="139.61" y2="156" stroke="rgb(228,226,242)" stroke-width="1.5" />
  <line x1="159.97" y1="148.4" x2="143.63" y2="157.84" stroke="rgb(228,226,242)" stroke-width="1.5" />
  <line x1="139.61" y1="180" x2="160.39" y2="192" stroke="rgb(228,226,242)" stroke-width="1.5" />
  <line x1="143.63" y1="178.16" x2="159.97" y2="187.6" stroke="rgb(228,226,242)" stroke-width="1.5" />
  <line x1="181.18" y1="180" x2="181.18" y2="156" stroke="rgb(228,226,242)" stroke-width="1.5" />
  <line x1="177.58" y1="177.44" x2="177.58" y2="158.56" stroke="rgb(228,226,242)" stroke-width="1.5" />
  <line x1="181.18" y1="108" x2="166.84" y2="116.28" stroke="rgb(228,226,242)" stroke-width="1.5" />
  <line x1="160.39" y1="127" x2="160.39" y2="144" stroke="rgb(228,226,242)" stroke-width="1.5" />
  <line x1="139.61" y1="156" x2="139.61" y2="180" stroke="rgb(228,226,242)" stroke-width="1.5" />
  <line x1="160.39" y1="192" x2="181.18" y2="180" stroke="rgb(228,226,242)" stroke-width="1.5" />
  <line x1="160.39" y1="144" x2="181.18" y2="156" stroke="rgb(228,226,242)" stroke-width="1.5" />
  <line x1="181.18" y1="156" x2="195.52" y2="147.72" stroke="rgb(228,226,242)" stroke-width="1.5" />
  <line x1="201.96" y1="137" x2="201.96" y2="120" stroke="rgb(228,226,242)" stroke-width="1.5" />
  <line x1="181.18" y1="180" x2="195.52" y2="188.28" stroke="rgb(228,226,242)" stroke-width="1.5" />
  <line x1="208.41" y1="188.28" x2="222.75" y2="180" stroke="rgb(228,226,242)" stroke-width="1.5" />
  <line x1="139.61" y1="180" x2="118.82" y2="192" stroke="rgb(228,226,242)" stroke-width="1.5" />
  <line x1="118.82" y1="192" x2="98.04" y2="180" stroke="rgb(228,226,242)" stroke-width="1.5" />
  <line x1="98.04" y1="180" x2="83.31" y2="188.5" stroke="rgb(228,226,242)" stroke-width="1.5" />
  <line id="mol42:Bond:2" class="event" x1="160.39" y1="144" x2="139.61" y2="156" stroke-width="1.5" opacity="0" />
  <line id="mol42:Bond:4" class="event" x1="139.61" y1="180" x2="160.39" y2="192" stroke-width="1.5" opacity="0" />
  <line id="mol42:Bond:6" class="event" x1="181.18" y1="180" x2="181.18" y2="156" stroke-width="1.5" opacity="0" />
  <line id="mol42:Bond:0" class="event" x1="181.18" y1="108" x2="160.39" y2="120" stroke-width="1.5" opacity="0" />
  <line id="mol42:Bond:1" class="event" x1="160.39" y1="120" x2="160.39" y2="144" stroke-width="1.5" opacity="0" />
  <line id="mol42:Bond:3" class="event" x1="139.61" y1="156" x2="139.61" y2="180" stroke-width="1.5" opacity="0" />
  <line id="mol42:Bond:5" class="event" x1="160.39" y1="192" x2="181.18" y2="180" stroke-width="1.5" opacity="0" />
  <line id="mol42:Bond:7" class="event" x1="160.39" y1="144" x2="181.18" y2="156" stroke-width="1.5" opacity="0" />
  <line id="mol42:Bond:8" class="event" x1="181.18" y1="156" x2="201.96" y2="144" stroke-width="1.5" opacity="0" />
  <line id="mol42:Bond:9" class="event" x1="201.96" y1="144" x2="201.96" y2="120" stroke-width="1.5" opacity="0" />
  <line id="mol42:Bond:10" class="event" x1="181.18" y1="180" x2="201.96" y2="192" stroke-width="1.5" opacity="0" />
  <line id="mol42:Bond:11" class="event" x1="201.96" y1="192" x2="222.75" y2="180" stroke-width="1.5" opacity="0" />
  <line id="mol42:Bond:12" class="event" x1="139.61" y1="180" x2="118.82" y2="192" stroke-width="1.5" opacity="0" />
  <line id="mol42:Bond:13" class="event" x1="118.82" y1="192" x2="98.04" y2="180" stroke-width="1.5" opacity="0" />
  <line id="mol42:Bond:14" class="event" x1="98.04" y1="180" x2="77.25" y2="192" stroke-width="1.5" opacity="0" />
  <circle id="mol42:Atom:0" class="event" cx="181.18" cy="108" r="8" opacity="0" />
  <circle id="mol42:Atom:1" class="event" cx="160.39" cy="120" r="8" opacity="0" />
  <circle id="mol42:Atom:2" class="event" cx="160.39" cy="144" r="8" opacity="0" />
  <circle id="mol42:Atom:3" class="event" cx="139.61" cy="156" r="8" opacity="0" />
  <circle id="mol42:Atom:4" class="event" cx="139.61" cy="180" r="8" opacity="0" />
  <circle id="mol42:Atom:5" class="event" cx="160.39" cy="192" r="8" opacity="0" />
  <circle id="mol42:Atom:6" class="event" cx="181.18" cy="180" r="8" opacity="0" />
  <circle id="mol42:Atom:7" class="event" cx="181.18" cy="156" r="8" opacity="0" />
  <circle id="mol42:Atom:8" class="event" cx="201.96" cy="144" r="8" opacity="0" />
  <circle id="mol42:Atom:9" class="event" cx="201.96" cy="120" r="8" opacity="0" />
  <circle id="mol42:Atom:10" class="event" cx="201.96" cy="192" r="8" opacity="0" />
  <circle id="mol42:Atom:11" class="event" cx="222.75" cy="180" r="8" opacity="0" />
  <circle id="mol42:Atom:12" class="event" cx="118.82" cy="192" r="8" opacity="0" />
  <circle id="mol42:Atom:13" class="event" cx="98.04" cy="180" r="8" opacity="0" />
  <circle id="mol42:Atom:14" class="event" cx="77.25" cy="192" r="8" opacity="0" />
</svg>