<svg id="mol42" xmlns="http://www.w3.org/2000/svg" version="1.1" width="168px" height="131px" viewBox="69 85 168 131">
  <style> #mol42 text {font-family: sans-serif;} #mol42 { pointer-events:none; } #mol42 .event  { pointer-events:all; } #mol42 line { stroke-linecap:round; } #mol42 polygon { stroke-linejoin:round; } </style>
  <text x="107.01" y="229.12" stroke="none" font-size="12" fill="rgb(160,0,0)">unknown chirality</text>
  <text x="217.74" y="166.21" stroke="none" font-size="14" fill="rgb(129,140,248)">N</text>
  <text x="212.74" y="169.54" stroke="none" font-size="9" fill="rgb(160,0,0)">?</text>
  <text x="175.85" y="187.39" stroke="none" font-size="9" fill="rgb(160,0,0)">?</text>
  <text x="170.88" y="146.61" stroke="none" font-size="9" fill="rgb(160,0,0)">?</text>
  <text x="131.36" y="143.27" stroke="none" font-size="14" fill="rgb(129,140,248)">N</text>
  <text x="92.27" y="166.06" stroke="none" font-size="14" fill="rgb(205,205,38)">S</text>
  <line x1="116.68" y1="127.21" x2="116.68" y2="104.42" stroke="rgb(228,226,242)" stroke-width="1.5" />
  <line x1="113.08" y1="124.65" x2="113.08" y2="106.98" stroke="rgb(228,226,242)" stroke-width="1.5" />
  <line x1="96.94" y1="93.03" x2="77.2" y2="104.42" stroke="rgb(228,226,242)" stroke-width="1.5" />
  <line x1="96.52" y1="97.42" x2="81.22" y2="106.26" stroke="rgb(228,226,242)" stroke-width="1.5" />
  <line x1="77.2" y1="127.21" x2="96.94" y2="138.61" stroke="rgb(228,226,242)" stroke-width="1.5" />
  <line x1="81.22" y1="125.37" x2="96.52" y2="134.21" stroke="rgb(228,226,242)" stroke-width="1.5" />
  <line x1="116.68" y1="172.79" x2="116.68" y2="195.58" stroke="rgb(228,226,242)" stroke-width="1.5" />
  <line x1="120.28" y1="175.35" x2="120.28" y2="193.02" stroke="rgb(228,226,242)" stroke-width="1.5" />
  <line x1="136.41" y1="206.97" x2="156.15" y2="195.58" stroke="rgb(228,226,242)" stroke-width="1.5" />
  <line x1="136.83" y1="202.58" x2="152.13" y2="193.74" stroke="rgb(228,226,242)" stroke-width="1.5" />
  <line x1="156.15" y1="172.79" x2="136.41" y2="161.39" stroke="rgb(228,226,242)" stroke-width="1.5" />
  <line x1="152.13" y1="174.63" x2="136.83" y2="165.79" stroke="rgb(228,226,242)" stroke-width="1.5" />
  <line x1="199.07" y1="193.09" x2="220.04" y2="184.16" stroke="rgb(228,226,242)" stroke-width="1.5" />
  <line x1="220.04" y1="184.16" x2="221.94" y2="168.54" stroke="rgb(228,226,242)" stroke-width="1.5" />
  <line x1="216.74" y1="158.05" x2="202.29" y2="149.71" stroke="rgb(228,226,242)" stroke-width="1.5" />
  <line x1="202.29" y1="149.71" x2="186.55" y2="156.41" stroke="rgb(228,226,242)" stroke-width="1.5" />
  <line x1="186.55" y1="156.41" x2="180.86" y2="179.39" stroke="rgb(228,226,242)" stroke-width="1.5" />
  <line x1="199.07" y1="193.09" x2="180.86" y2="179.39" stroke="rgb(228,226,242)" stroke-width="1.5" />
  <line x1="180.86" y1="179.39" x2="175.89" y2="138.61" stroke="rgb(228,226,242)" stroke-width="1.5" />
  <line x1="175.89" y1="138.61" x2="196.86" y2="129.68" stroke="rgb(228,226,242)" stroke-width="1.5" />
  <line x1="217.1" y1="154.54" x2="196.86" y2="129.68" stroke="rgb(228,226,242)" stroke-width="1.5" />
  <line x1="175.89" y1="138.61" x2="156.15" y2="127.21" stroke="rgb(228,226,242)" stroke-width="1.5" />
  <line x1="156.15" y1="127.21" x2="142.47" y2="135.11" stroke="rgb(228,226,242)" stroke-width="1.5" />
  <line x1="130.36" y1="135.11" x2="116.68" y2="127.21" stroke="rgb(228,226,242)" stroke-width="1.5" />
  <line x1="116.68" y1="104.42" x2="96.94" y2="93.03" stroke="rgb(228,226,242)" stroke-width="1.5" />
  <line x1="77.2" y1="104.42" x2="77.2" y2="127.21" stroke="rgb(228,226,242)" stroke-width="1.5" />
  <line x1="116.68" y1="127.21" x2="96.94" y2="138.61" stroke="rgb(228,226,242)" stroke-width="1.5" />
  <line x1="96.94" y1="138.61" x2="96.94" y2="154.39" stroke="rgb(228,226,242)" stroke-width="1.5" />
  <line x1="102.61" y1="164.67" x2="116.68" y2="172.79" stroke="rgb(228,226,242)" stroke-width="1.5" />
  <line x1="116.68" y1="195.58" x2="136.41" y2="206.97" stroke="rgb(228,226,242)" stroke-width="1.5" />
  <line x1="156.15" y1="195.58" x2="156.15" y2="172.79" stroke="rgb(228,226,242)" stroke-width="1.5" />
  <line x1="116.68" y1="172.79" x2="136.41" y2="161.39" stroke="rgb(228,226,242)" stroke-width="1.5" />
  <line x1="136.41" y1="145.61" x2="136.41" y2="161.39" stroke="rgb(228,226,242)" stroke-width="1.5" />
  <line id="mol42:Bond:12" class="event" x1="116.68" y1="127.21" x2="116.68" y2="104.42" stroke-width="1.5" opacity="0" />
  <line id="mol42:Bond:14" class="event" x1="96.94" y1="93.03" x2="77.2" y2="104.42" stroke-width="1.5" opacity="0" />
  <line id="mol42:Bond:16" class="event" x1="77.2" y1="127.21" x2="96.94" y2="138.61" stroke-width="1.5" opacity="0" />
  <line id="mol42:Bond:20" class="event" x1="116.68" y1="172.79" x2="116.68" y2="195.58" stroke-width="1.5" opacity="0" />
  <line id="mol42:Bond:22" class="event" x1="136.41" y1="206.97" x2="156.15" y2="195.58" stroke-width="1.5" opacity="0" />
  <line id="mol42:Bond:24" class="event" x1="156.15" y1="172.79" x2="136.41" y2="161.39" stroke-width="1.5" opacity="0" />
  <line id="mol42:Bond:0" class="event" x1="199.07" y1="193.09" x2="220.04" y2="184.16" stroke-width="1.5" opacity="0" />
  <line id="mol42:Bond:1" class="event" x1="220.04" y1="184.16" x2="222.8" y2="161.54" stroke-width="1.5" opacity="0" />
  <line id="mol42:Bond:2" class="event" x1="222.8" y1="161.54" x2="202.29" y2="149.71" stroke-width="1.5" opacity="0" />
  <line id="mol42:Bond:3" class="event" x1="202.29" y1="149.71" x2="186.55" y2="156.41" stroke-width="1.5" opacity="0" />
  <line id="mol42:Bond:4" class="event" x1="186.55" y1="156.41" x2="180.86" y2="179.39" stroke-width="1.5" opacity="0" />
  <line id="mol42:Bond:5" class="event" x1="199.07" y1="193.09" x2="180.86" y2="179.39" stroke-width="1.5" opacity="0" />
  <line id="mol42:Bond:6" class="event" x1="180.86" y1="179.39" x2="175.89" y2="138.61" stroke-width="1.5" opacity="0" />
  <line id="mol42:Bond:7" class="event" x1="175.89" y1="138.61" x2="196.86" y2="129.68" stroke-width="1.5" opacity="0" />
  <line id="mol42:Bond:8" class="event" x1="222.8" y1="161.54" x2="196.86" y2="129.68" stroke-width="1.5" opacity="0" />
  <line id="mol42:Bond:9" class="event" x1="175.89" y1="138.61" x2="156.15" y2="127.21" stroke-width="1.5" opacity="0" />
  <line id="mol42:Bond:10" class="event" x1="156.15" y1="127.21" x2="136.41" y2="138.61" stroke-width="1.5" opacity="0" />
  <line id="mol42:Bond:11" class="event" x1="136.41" y1="138.61" x2="116.68" y2="127.21" stroke-width="1.5" opacity="0" />
  <line id="mol42:Bond:13" class="event" x1="116.68" y1="104.42" x2="96.94" y2="93.03" stroke-width="1.5" opacity="0" />
  <line id="mol42:Bond:15" class="event" x1="77.2" y1="104.42" x2="77.2" y2="127.21" stroke-width="1.5" opacity="0" />
  <line id="mol42:Bond:17" class="event" x1="116.68" y1="127.21" x2="96.94" y2="138.61" stroke-width="1.5" opacity="0" />
  <line id="mol42:Bond:18" class="event" x1="96.94" y1="138.61" x2="96.94" y2="161.39" stroke-width="1.5" opacity="0" />
  <line id="mol42:Bond:19" class="event" x1="96.94" y1="161.39" x2="116.68" y2="172.79" stroke-width="1.5" opacity="0" />
  <line id="mol42:Bond:21" class="event" x1="116.68" y1="195.58" x2="136.41" y2="206.97" stroke-width="1.5" opacity="0" />
  <line id="mol42:Bond:23" class="event" x1="156.15" y1="195.58" x2="156.15" y2="172.79" stroke-width="1.5" opacity="0" />
  <line id="mol42:Bond:25" class="event" x1="116.68" y1="172.79" x2="136.41" y2="161.39" stroke-width="1.5" opacity="0" />
  <line id="mol42:Bond:26" class="event" x1="136.41" y1="138.61" x2="136.41" y2="161.39" stroke-width="1.5" opacity="0" />
  <circle id="mol42:Atom:0" class="event" cx="199.07" cy="193.09" r="8" opacity="0" />
  <circle id="mol42:Atom:1" class="event" cx="220.04" cy="184.16" r="8" opacity="0" />
  <circle id="mol42:Atom:2" class="event" cx="222.8" cy="161.54" r="8" opacity="0" />
  <circle id="mol42:Atom:3" class="event" cx="202.29" cy="149.71" r="8" opacity="0" />
  <circle id="mol42:Atom:4" class="event" cx="186.55" cy="156.41" r="8" opacity="0" />
  <circle id="mol42:Atom:5" class="event" cx="180.86" cy="179.39" r="8" opacity="0" />
  <circle id="mol42:Atom:6" class="event" cx="175.89" cy="138.61" r="8" opacity="0" />
  <circle id="mol42:Atom:7" class="event" cx="196.86" cy="129.68" r="8" opacity="0" />
  <circle id="mol42:Atom:8" class="event" cx="156.15" cy="127.21" r="8" opacity="0" />
  <circle id="mol42:Atom:9" class="event" cx="136.41" cy="138.61" r="8" opacity="0" />
  <circle id="mol42:Atom:10" class="event" cx="116.68" cy="127.21" r="8" opacity="0" />
  <circle id="mol42:Atom:11" class="event" cx="116.68" cy="104.42" r="8" opacity="0" />
  <circle id="mol42:Atom:12" class="event" cx="96.94" cy="93.03" r="8" opacity="0" />
  <circle id="mol42:Atom:13" class="event" cx="77.2" cy="104.42" r="8" opacity="0" />
  <circle id="mol42:Atom:14" class="event" cx="77.2" cy="127.21" r="8" opacity="0" />
  <circle id="mol42:Atom:15" class="event" cx="96.94" cy="138.61" r="8" opacity="0" />
  <circle id="mol42:Atom:16" class="event" cx="96.94" cy="161.39" r="8" opacity="0" />
  <circle id="mol42:Atom:17" class="event" cx="116.68" cy="172.79" r="8" opacity="0" />
  <circle id="mol42:Atom:18" class="event" cx="116.68" cy="195.58" r="8" opacity="0" />
  <circle id="mol42:Atom:19" class="event" cx="136.41" cy="206.97" r="8" opacity="0" />
  <circle id="mol42:Atom:20" class="event" cx="156.15" cy="195.58" r="8" opacity="0" />
  <circle id="mol42:Atom:21" class="event" cx="156.15" cy="172.79" r="8" opacity="0" />
  <circle id="mol42:Atom:22" class="event" cx="136.41" cy="161.39" r="8" opacity="0" />
</svg>