<svg id="mol43" xmlns="http://www.w3.org/2000/svg" version="1.1" width="178px" height="88px" viewBox="61 97 178 88">
  <style> #mol43 text {font-family: sans-serif;} #mol43 { pointer-events:none; } #mol43 .event  { pointer-events:all; } #mol43 line { stroke-linecap:round; } #mol43 polygon { stroke-linejoin:round; } </style>
  <text x="103.99" y="198.57" stroke="none" font-size="12" fill="rgb(160,0,0)">unknown chirality</text>
  <text x="105.75" y="146" stroke="none" font-size="9" fill="rgb(160,0,0)">?</text>
  <text x="211.27" y="174.08" stroke="none" font-size="14" fill="rgb(248,113,113)">O</text>
  <text x="211.27" y="135.25" stroke="none" font-size="14" fill="rgb(248,113,113)">O</text>
  <text x="84.91" y="130.67" stroke="none" font-size="14" fill="rgb(129,140,248)">N</text>
  <text x="84.91" y="116.67" stroke="none" font-size="14" fill="rgb(129,140,248)">H</text>
  <line x1="152.32" y1="138" x2="173.1" y2="126" stroke="rgb(228,226,242)" stroke-width="1.5" />
  <line x1="156.34" y1="139.84" x2="172.69" y2="130.4" stroke="rgb(228,226,242)" stroke-width="1.5" />
  <line x1="193.89" y1="138" x2="193.89" y2="162" stroke="rgb(228,226,242)" stroke-width="1.5" />
  <line x1="190.29" y1="140.56" x2="190.29" y2="159.44" stroke="rgb(228,226,242)" stroke-width="1.5" />
  <line x1="173.1" y1="174" x2="152.32" y2="162" stroke="rgb(228,226,242)" stroke-width="1.5" />
  <line x1="172.69" y1="169.6" x2="156.34" y2="160.16" stroke="rgb(228,226,242)" stroke-width="1.5" />
  <line x1="110.75" y1="162" x2="110.75" y2="138" stroke="rgb(228,226,242)" stroke-width="1.5" />
  <line x1="110.75" y1="138" x2="131.53" y2="126" stroke="rgb(228,226,242)" stroke-width="1.5" />
  <line x1="131.53" y1="126" x2="152.32" y2="138" stroke="rgb(228,226,242)" stroke-width="1.5" />
  <line x1="173.1" y1="126" x2="193.89" y2="138" stroke="rgb(228,226,242)" stroke-width="1.5" />
  <line x1="193.89" y1="162" x2="173.1" y2="174" stroke="rgb(228,226,242)" stroke-width="1.5" />
  <line x1="152.32" y1="138" x2="152.32" y2="162" stroke="rgb(228,226,242)" stroke-width="1.5" />
  <line x1="193.89" y1="162" x2="210.27" y2="167.32" stroke="rgb(228,226,242)" stroke-width="1.5" />
  <line x1="221.8" y1="162.42" x2="230.82" y2="150" stroke="rgb(228,226,242)" stroke-width="1.5" />
  <line x1="230.82" y1="150" x2="221.8" y2="137.58" stroke="rgb(228,226,242)" stroke-width="1.5" />
  <line x1="193.89" y1="138" x2="210.27" y2="132.68" stroke="rgb(228,226,242)" stroke-width="1.5" />
  <line x1="110.75" y1="138" x2="96.02" y2="129.5" stroke="rgb(228,226,242)" stroke-width="1.5" />
  <line x1="83.91" y1="129.5" x2="69.18" y2="138" stroke="rgb(228,226,242)" stroke-width="1.5" />
  <line id="mol43:Bond:3" class="event" x1="152.32" y1="138" x2="173.1" y2="126" stroke-width="1.5" opacity="0" />
  <line id="mol43:Bond:5" class="event" x1="193.89" y1="138" x2="193.89" y2="162" stroke-width="1.5" opacity="0" />
  <line id="mol43:Bond:7" class="event" x1="173.1" y1="174" x2="152.32" y2="162" stroke-width="1.5" opacity="0" />
  <line id="mol43:Bond:0" class="event" x1="110.75" y1="162" x2="110.75" y2="138" stroke-width="1.5" opacity="0" />
  <line id="mol43:Bond:1" class="event" x1="110.75" y1="138" x2="131.53" y2="126" stroke-width="1.5" opacity="0" />
  <line id="mol43:Bond:2" class="event" x1="131.53" y1="126" x2="152.32" y2="138" stroke-width="1.5" opacity="0" />
  <line id="mol43:Bond:4" class="event" x1="173.1" y1="126" x2="193.89" y2="138" stroke-width="1.5" opacity="0" />
  <line id="mol43:Bond:6" class="event" x1="193.89" y1="162" x2="173.1" y2="174" stroke-width="1.5" opacity="0" />
  <line id="mol43:Bond:8" class="event" x1="152.32" y1="138" x2="152.32" y2="162" stroke-width="1.5" opacity="0" />
  <line id="mol43:Bond:9" class="event" x1="193.89" y1="162" x2="216.71" y2="169.42" stroke-width="1.5" opacity="0" />
  <line id="mol43:Bond:10" class="event" x1="216.71" y1="169.42" x2="230.82" y2="150" stroke-width="1.5" opacity="0" />
  <line id="mol43:Bond:11" class="event" x1="230.82" y1="150" x2="216.71" y2="130.58" stroke-width="1.5" opacity="0" />
  <line id="mol43:Bond:12" class="event" x1="193.89" y1="138" x2="216.71" y2="130.58" stroke-width="1.5" opacity="0" />
  <line id="mol43:Bond:13" class="event" x1="110.75" y1="138" x2="89.96" y2="126" stroke-width="1.5" opacity="0" />
  <line id="mol43:Bond:14" class="event" x1="89.96" y1="126" x2="69.18" y2="138" stroke-width="1.5" opacity="0" />
  <circle id="mol43:Atom:0" class="event" cx="110.75" cy="162" r="8" opacity="0" />
  <circle id="mol43:Atom:1" class="event" cx="110.75" cy="138" r="8" opacity="0" />
  <circle id="mol43:Atom:2" class="event" cx="131.53" cy="126" r="8" opacity="0" />
  <circle id="mol43:Atom:3" class="event" cx="152.32" cy="138" r="8" opacity="0" />
  <circle id="mol43:Atom:4" class="event" cx="173.1" cy="126" r="8" opacity="0" />
  <circle id="mol43:Atom:5" class="event" cx="193.89" cy="138" r="8" opacity="0" />
  <circle id="mol43:Atom:6" class="event" cx="193.89" cy="162" r="8" opacity="0" />
  <circle id="mol43:Atom:7" class="event" cx="173.1" cy="174" r="8" opacity="0" />
  <circle id="mol43:Atom:8" class="event" cx="152.32" cy="162" r="8" opacity="0" />
  <circle id="mol43:Atom:9" class="event" cx="216.71" cy="169.42" r="8" opacity="0" />
  <circle id="mol43:Atom:10" class="event" cx="230.82" cy="150" r="8" opacity="0" />
  <circle id="mol43:Atom:11" class="event" cx="216.71" cy="130.58" r="8" opacity="0" />
  <circle id="mol43:Atom:12" class="event" cx="89.96" cy="126" r="8" opacity="0" />
  <circle id="mol43:Atom:13" class="event" cx="69.18" cy="138" r="8" opacity="0" />
</svg>