<svg id="mol43" xmlns="http://www.w3.org/2000/svg" version="1.1" width="187px" height="189px" viewBox="53 49 187 189">
  <style> #mol43 text {font-family: sans-serif;} #mol43 { pointer-events:none; } #mol43 .event  { pointer-events:all; } #mol43 line { stroke-linecap:round; } #mol43 polygon { stroke-linejoin:round; } </style>
  <text x="105.76" y="251.15" stroke="none" font-size="12" fill="rgb(160,0,0)">this enantiomer</text>
  <text x="205.83" y="82.67" stroke="none" font-size="14" fill="rgb(129,140,248)">N</text>
  <text x="205.83" y="68.67" stroke="none" font-size="14" fill="rgb(129,140,248)">H</text>
  <text x="184.09" y="122" stroke="none" font-size="9" fill="rgb(160,0,0)">S</text>
  <text x="188.3" y="113.85" stroke="none" font-size="9" fill="rgb(160,0,0)">abs</text>
  <text x="204.38" y="134" stroke="none" font-size="9" fill="rgb(160,0,0)">R</text>
  <text x="203.63" y="122.7" stroke="none" font-size="9" fill="rgb(160,0,0)">abs</text>
  <text x="206.6" y="226.67" stroke="none" font-size="14" fill="rgb(144,224,80)">F</text>
  <text x="143.08" y="118.67" stroke="none" font-size="14" fill="rgb(248,113,113)">O</text>
  <text x="62.89" y="170.73" stroke="none" font-size="14" fill="rgb(248,113,113)">O</text>
  <text x="96.52" y="190.14" stroke="none" font-size="14" fill="rgb(248,113,113)">O</text>
  <line x1="210.88" y1="150" x2="190.09" y2="162" stroke="rgb(228,226,242)" stroke-width="1.5" />
  <line x1="210.46" y1="154.4" x2="194.11" y2="163.84" stroke="rgb(228,226,242)" stroke-width="1.5" />
  <line x1="190.09" y1="186" x2="210.88" y2="198" stroke="rgb(228,226,242)" stroke-width="1.5" />
  <line x1="194.11" y1="184.16" x2="210.46" y2="193.6" stroke="rgb(228,226,242)" stroke-width="1.5" />
  <line x1="231.66" y1="186" x2="231.66" y2="162" stroke="rgb(228,226,242)" stroke-width="1.5" />
  <line x1="228.06" y1="183.44" x2="228.06" y2="164.56" stroke="rgb(228,226,242)" stroke-width="1.5" />
  <line x1="127.74" y1="126" x2="127.74" y2="150" stroke="rgb(228,226,242)" stroke-width="1.5" />
  <line x1="124.14" y1="128.56" x2="124.14" y2="147.44" stroke="rgb(228,226,242)" stroke-width="1.5" />
  <line x1="106.96" y1="162" x2="86.17" y2="150" stroke="rgb(228,226,242)" stroke-width="1.5" />
  <line x1="106.54" y1="157.6" x2="90.19" y2="148.16" stroke="rgb(228,226,242)" stroke-width="1.5" />
  <line x1="86.17" y1="126" x2="106.96" y2="114" stroke="rgb(228,226,242)" stroke-width="1.5" />
  <line x1="90.19" y1="127.84" x2="106.54" y2="118.4" stroke="rgb(228,226,242)" stroke-width="1.5" />
  <line x1="231.66" y1="114" x2="231.66" y2="90" stroke="rgb(228,226,242)" stroke-width="1.5" />
  <line x1="231.66" y1="90" x2="216.93" y2="81.5" stroke="rgb(228,226,242)" stroke-width="1.5" />
  <line x1="204.83" y1="81.5" x2="190.09" y2="90" stroke="rgb(228,226,242)" stroke-width="1.5" />
  <line x1="190.09" y1="90" x2="190.09" y2="114" stroke="rgb(228,226,242)" stroke-width="1.5" />
  <line x1="190.09" y1="114" x2="210.88" y2="126" stroke="rgb(228,226,242)" stroke-width="1.5" />
  <line x1="231.66" y1="114" x2="210.88" y2="126" stroke="rgb(228,226,242)" stroke-width="1.5" />
  <polygon points="211,126 210,138 212,138 " fill="rgb(160,0,0)" stroke="rgb(160,0,0)" stroke-width="1.5" />
  <polygon points="212,138 210,138 208,150 214,150 " fill="rgb(160,0,0)" stroke="rgb(160,0,0)" stroke-width="1.5" />
  <line x1="190.09" y1="162" x2="190.09" y2="186" stroke="rgb(228,226,242)" stroke-width="1.5" />
  <line x1="210.88" y1="198" x2="231.66" y2="186" stroke="rgb(228,226,242)" stroke-width="1.5" />
  <line x1="210.88" y1="150" x2="231.66" y2="162" stroke="rgb(228,226,242)" stroke-width="1.5" />
  <line x1="210.88" y1="198" x2="210.88" y2="215" stroke="rgb(228,226,242)" stroke-width="1.5" />
  <line x1="187.46" y1="115.09" x2="187.84" y2="115.74" stroke="rgb(160,0,0)" stroke-width="1.5" />
  <line x1="184.83" y1="116.17" x2="185.58" y2="117.47" stroke="rgb(160,0,0)" stroke-width="1.5" />
  <line x1="182.2" y1="117.26" x2="183.32" y2="119.21" stroke="rgb(160,0,0)" stroke-width="1.5" />
  <line x1="179.56" y1="118.35" x2="181.06" y2="120.95" stroke="rgb(160,0,0)" stroke-width="1.5" />
  <line x1="176.93" y1="119.44" x2="178.81" y2="122.68" stroke="rgb(160,0,0)" stroke-width="1.5" />
  <line x1="174.3" y1="120.52" x2="176.55" y2="124.42" stroke="rgb(160,0,0)" stroke-width="1.5" />
  <line x1="171.67" y1="121.61" x2="174.29" y2="126.16" stroke="rgb(160,0,0)" stroke-width="1.5" />
  <line x1="169.03" y1="122.7" x2="172.03" y2="127.89" stroke="rgb(160,0,0)" stroke-width="1.5" />
  <line x1="169.31" y1="126" x2="154.97" y2="117.72" stroke="rgb(228,226,242)" stroke-width="1.5" />
  <line x1="142.08" y1="117.72" x2="127.74" y2="126" stroke="rgb(228,226,242)" stroke-width="1.5" />
  <line x1="127.74" y1="150" x2="106.96" y2="162" stroke="rgb(228,226,242)" stroke-width="1.5" />
  <line x1="86.17" y1="150" x2="86.17" y2="126" stroke="rgb(228,226,242)" stroke-width="1.5" />
  <line x1="127.74" y1="126" x2="106.96" y2="114" stroke="rgb(228,226,242)" stroke-width="1.5" />
  <line x1="86.17" y1="150" x2="74.78" y2="160.26" stroke="rgb(228,226,242)" stroke-width="1.5" />
  <line x1="71.45" y1="173.06" x2="78.1" y2="187.98" stroke="rgb(228,226,242)" stroke-width="1.5" />
  <line x1="78.1" y1="187.98" x2="95.52" y2="186.15" stroke="rgb(228,226,242)" stroke-width="1.5" />
  <line x1="106.96" y1="162" x2="103.45" y2="178.48" stroke="rgb(228,226,242)" stroke-width="1.5" />
  <line id="mol43:Bond:7" class="event" x1="210.88" y1="150" x2="190.09" y2="162" stroke-width="1.5" opacity="0" />
  <line id="mol43:Bond:9" class="event" x1="190.09" y1="186" x2="210.88" y2="198" stroke-width="1.5" opacity="0" />
  <line id="mol43:Bond:11" class="event" x1="231.66" y1="186" x2="231.66" y2="162" stroke-width="1.5" opacity="0" />
  <line id="mol43:Bond:17" class="event" x1="127.74" y1="126" x2="127.74" y2="150" stroke-width="1.5" opacity="0" />
  <line id="mol43:Bond:19" class="event" x1="106.96" y1="162" x2="86.17" y2="150" stroke-width="1.5" opacity="0" />
  <line id="mol43:Bond:21" class="event" x1="86.17" y1="126" x2="106.96" y2="114" stroke-width="1.5" opacity="0" />
  <line id="mol43:Bond:0" class="event" x1="231.66" y1="114" x2="231.66" y2="90" stroke-width="1.5" opacity="0" />
  <line id="mol43:Bond:1" class="event" x1="231.66" y1="90" x2="210.88" y2="78" stroke-width="1.5" opacity="0" />
  <line id="mol43:Bond:2" class="event" x1="210.88" y1="78" x2="190.09" y2="90" stroke-width="1.5" opacity="0" />
  <line id="mol43:Bond:3" class="event" x1="190.09" y1="90" x2="190.09" y2="114" stroke-width="1.5" opacity="0" />
  <line id="mol43:Bond:4" class="event" x1="190.09" y1="114" x2="210.88" y2="126" stroke-width="1.5" opacity="0" />
  <line id="mol43:Bond:5" class="event" x1="231.66" y1="114" x2="210.88" y2="126" stroke-width="1.5" opacity="0" />
  <line id="mol43:Bond:6" class="event" x1="210.88" y1="126" x2="210.88" y2="150" stroke-width="1.5" opacity="0" />
  <line id="mol43:Bond:8" class="event" x1="190.09" y1="162" x2="190.09" y2="186" stroke-width="1.5" opacity="0" />
  <line id="mol43:Bond:10" class="event" x1="210.88" y1="198" x2="231.66" y2="186" stroke-width="1.5" opacity="0" />
  <line id="mol43:Bond:12" class="event" x1="210.88" y1="150" x2="231.66" y2="162" stroke-width="1.5" opacity="0" />
  <line id="mol43:Bond:13" class="event" x1="210.88" y1="198" x2="210.88" y2="222" stroke-width="1.5" opacity="0" />
  <line id="mol43:Bond:14" class="event" x1="190.09" y1="114" x2="169.31" y2="126" stroke-width="1.5" opacity="0" />
  <line id="mol43:Bond:15" class="event" x1="169.31" y1="126" x2="148.53" y2="114" stroke-width="1.5" opacity="0" />
  <line id="mol43:Bond:16" class="event" x1="148.53" y1="114" x2="127.74" y2="126" stroke-width="1.5" opacity="0" />
  <line id="mol43:Bond:18" class="event" x1="127.74" y1="150" x2="106.96" y2="162" stroke-width="1.5" opacity="0" />
  <line id="mol43:Bond:20" class="event" x1="86.17" y1="150" x2="86.17" y2="126" stroke-width="1.5" opacity="0" />
  <line id="mol43:Bond:22" class="event" x1="127.74" y1="126" x2="106.96" y2="114" stroke-width="1.5" opacity="0" />
  <line id="mol43:Bond:23" class="event" x1="86.17" y1="150" x2="68.34" y2="166.06" stroke-width="1.5" opacity="0" />
  <line id="mol43:Bond:24" class="event" x1="68.34" y1="166.06" x2="78.1" y2="187.98" stroke-width="1.5" opacity="0" />
  <line id="mol43:Bond:25" class="event" x1="78.1" y1="187.98" x2="101.97" y2="185.48" stroke-width="1.5" opacity="0" />
  <line id="mol43:Bond:26" class="event" x1="106.96" y1="162" x2="101.97" y2="185.48" stroke-width="1.5" opacity="0" />
  <circle id="mol43:Atom:0" class="event" cx="231.66" cy="114" r="8" opacity="0" />
  <circle id="mol43:Atom:1" class="event" cx="231.66" cy="90" r="8" opacity="0" />
  <circle id="mol43:Atom:2" class="event" cx="210.88" cy="78" r="8" opacity="0" />
  <circle id="mol43:Atom:3" class="event" cx="190.09" cy="90" r="8" opacity="0" />
  <circle id="mol43:Atom:4" class="event" cx="190.09" cy="114" r="8" opacity="0" />
  <circle id="mol43:Atom:5" class="event" cx="210.88" cy="126" r="8" opacity="0" />
  <circle id="mol43:Atom:6" class="event" cx="210.88" cy="150" r="8" opacity="0" />
  <circle id="mol43:Atom:7" class="event" cx="190.09" cy="162" r="8" opacity="0" />
  <circle id="mol43:Atom:8" class="event" cx="190.09" cy="186" r="8" opacity="0" />
  <circle id="mol43:Atom:9" class="event" cx="210.88" cy="198" r="8" opacity="0" />
  <circle id="mol43:Atom:10" class="event" cx="231.66" cy="186" r="8" opacity="0" />
  <circle id="mol43:Atom:11" class="event" cx="231.66" cy="162" r="8" opacity="0" />
  <circle id="mol43:Atom:12" class="event" cx="210.88" cy="222" r="8" opacity="0" />
  <circle id="mol43:Atom:13" class="event" cx="169.31" cy="126" r="8" opacity="0" />
  <circle id="mol43:Atom:14" class="event" cx="148.53" cy="114" r="8" opacity="0" />
  <circle id="mol43:Atom:15" class="event" cx="127.74" cy="126" r="8" opacity="0" />
  <circle id="mol43:Atom:16" class="event" cx="127.74" cy="150" r="8" opacity="0" />
  <circle id="mol43:Atom:17" class="event" cx="106.96" cy="162" r="8" opacity="0" />
  <circle id="mol43:Atom:18" class="event" cx="86.17" cy="150" r="8" opacity="0" />
  <circle id="mol43:Atom:19" class="event" cx="86.17" cy="126" r="8" opacity="0" />
  <circle id="mol43:Atom:20" class="event" cx="106.96" cy="114" r="8" opacity="0" />
  <circle id="mol43:Atom:21" class="event" cx="68.34" cy="166.06" r="8" opacity="0" />
  <circle id="mol43:Atom:22" class="event" cx="78.1" cy="187.98" r="8" opacity="0" />
  <circle id="mol43:Atom:23" class="event" cx="101.97" cy="185.48" r="8" opacity="0" />
</svg>