<svg id="mol44" xmlns="http://www.w3.org/2000/svg" version="1.1" width="146px" height="188px" viewBox="80 56 146 188">
  <style> #mol44 text {font-family: sans-serif;} #mol44 { pointer-events:none; } #mol44 .event  { pointer-events:all; } #mol44 line { stroke-linecap:round; } #mol44 polygon { stroke-linejoin:round; } </style>
  <text x="111.47" y="257.61" stroke="none" font-size="12" fill="rgb(160,0,0)">this enantiomer</text>
  <text x="163.73" y="105.45" stroke="none" font-size="14" fill="rgb(129,140,248)">N</text>
  <text x="181.42" y="94.64" stroke="none" font-size="9" fill="rgb(160,0,0)">S</text>
  <text x="186.35" y="88.4" stroke="none" font-size="9" fill="rgb(160,0,0)">abs</text>
  <text x="143.08" y="95.43" stroke="none" font-size="9" fill="rgb(160,0,0)">R</text>
  <text x="136.1" y="89.45" stroke="none" font-size="9" fill="rgb(160,0,0)">abs</text>
  <text x="142.41" y="127.34" stroke="none" font-size="9" fill="rgb(160,0,0)">R</text>
  <text x="147.18" y="119.32" stroke="none" font-size="9" fill="rgb(160,0,0)">abs</text>
  <text x="163.43" y="139.92" stroke="none" font-size="9" fill="rgb(160,0,0)">S</text>
  <text x="162.05" y="128.62" stroke="none" font-size="9" fill="rgb(160,0,0)">abs</text>
  <text x="164.45" y="158.67" stroke="none" font-size="14" fill="rgb(248,113,113)">O</text>
  <text x="204.97" y="157.82" stroke="none" font-size="14" fill="rgb(248,113,113)">O</text>
  <text x="123.2" y="159.1" stroke="none" font-size="14" fill="rgb(248,113,113)">O</text>
  <text x="102.93" y="124" stroke="none" font-size="14" fill="rgb(248,113,113)">O</text>
  <line x1="190.45" y1="167.35" x2="204.9" y2="158.6" stroke="rgb(228,226,242)" stroke-width="1.5" />
  <line x1="188.58" y1="164.27" x2="203.04" y2="155.52" stroke="rgb(228,226,242)" stroke-width="1.5" />
  <line x1="190.89" y1="188.67" x2="211.4" y2="199.94" stroke="rgb(228,226,242)" stroke-width="1.5" />
  <line x1="191.4" y1="193.06" x2="207.42" y2="201.86" stroke="rgb(228,226,242)" stroke-width="1.5" />
  <line x1="211.89" y1="223.34" x2="191.87" y2="235.46" stroke="rgb(228,226,242)" stroke-width="1.5" />
  <line x1="207.83" y1="221.58" x2="192.2" y2="231.05" stroke="rgb(228,226,242)" stroke-width="1.5" />
  <line x1="171.37" y1="224.18" x2="170.88" y2="200.79" stroke="rgb(228,226,242)" stroke-width="1.5" />
  <line x1="174.91" y1="221.55" x2="174.53" y2="203.28" stroke="rgb(228,226,242)" stroke-width="1.5" />
  <line x1="126.84" y1="130" x2="126.84" y2="147.43" stroke="rgb(228,226,242)" stroke-width="1.5" />
  <line x1="130.44" y1="130" x2="130.44" y2="147.43" stroke="rgb(228,226,242)" stroke-width="1.5" />
  <line x1="169.22" y1="121.53" x2="168.93" y2="107.79" stroke="rgb(228,226,242)" stroke-width="1.5" />
  <line x1="185.01" y1="88.01" x2="185.45" y2="88.6" stroke="rgb(160,0,0)" stroke-width="1.5" />
  <line x1="182.6" y1="89.39" x2="183.48" y2="90.55" stroke="rgb(160,0,0)" stroke-width="1.5" />
  <line x1="180.18" y1="90.76" x2="181.51" y2="92.51" stroke="rgb(160,0,0)" stroke-width="1.5" />
  <line x1="177.77" y1="92.13" x2="179.54" y2="94.46" stroke="rgb(160,0,0)" stroke-width="1.5" />
  <line x1="175.36" y1="93.51" x2="177.57" y2="96.42" stroke="rgb(160,0,0)" stroke-width="1.5" />
  <line x1="174.84" y1="97.38" x2="175.59" y2="98.37" stroke="rgb(160,0,0)" stroke-width="1.5" />
  <line x1="187.42" y1="86.64" x2="179.73" y2="64.54" stroke="rgb(228,226,242)" stroke-width="1.5" />
  <line x1="179.73" y1="64.54" x2="156.34" y2="65.03" stroke="rgb(228,226,242)" stroke-width="1.5" />
  <line x1="156.34" y1="65.03" x2="149.57" y2="87.43" stroke="rgb(228,226,242)" stroke-width="1.5" />
  <line x1="151.62" y1="89.3" x2="152.04" y2="88.7" stroke="rgb(160,0,0)" stroke-width="1.5" />
  <line x1="153.68" y1="91.17" x2="154.51" y2="89.97" stroke="rgb(160,0,0)" stroke-width="1.5" />
  <line x1="155.73" y1="93.05" x2="156.98" y2="91.24" stroke="rgb(160,0,0)" stroke-width="1.5" />
  <line x1="157.78" y1="94.92" x2="159.45" y2="92.52" stroke="rgb(160,0,0)" stroke-width="1.5" />
  <line x1="159.83" y1="96.79" x2="161.92" y2="93.79" stroke="rgb(160,0,0)" stroke-width="1.5" />
  <line x1="161.88" y1="98.66" x2="162.73" y2="97.44" stroke="rgb(160,0,0)" stroke-width="1.5" />
  <line x1="149.57" y1="87.43" x2="148.91" y2="119.34" stroke="rgb(228,226,242)" stroke-width="1.5" />
  <line x1="148.91" y1="119.34" x2="169.44" y2="131.92" stroke="rgb(228,226,242)" stroke-width="1.5" />
  <line x1="169.44" y1="131.92" x2="189.43" y2="118.49" stroke="rgb(228,226,242)" stroke-width="1.5" />
  <line x1="187.42" y1="86.64" x2="189.43" y2="118.49" stroke="rgb(228,226,242)" stroke-width="1.5" />
  <line x1="169.15" y1="134.52" x2="169.84" y2="134.51" stroke="rgb(160,0,0)" stroke-width="1.5" />
  <line x1="168.86" y1="137.13" x2="170.24" y2="137.1" stroke="rgb(160,0,0)" stroke-width="1.5" />
  <line x1="168.57" y1="139.74" x2="170.64" y2="139.69" stroke="rgb(160,0,0)" stroke-width="1.5" />
  <line x1="168.27" y1="142.34" x2="171.04" y2="142.28" stroke="rgb(160,0,0)" stroke-width="1.5" />
  <line x1="167.98" y1="144.95" x2="171.43" y2="144.87" stroke="rgb(160,0,0)" stroke-width="1.5" />
  <line x1="176.35" y1="157.55" x2="190.4" y2="165.28" stroke="rgb(228,226,242)" stroke-width="1.5" />
  <line x1="190.4" y1="165.28" x2="190.89" y2="188.67" stroke="rgb(228,226,242)" stroke-width="1.5" />
  <line x1="211.4" y1="199.94" x2="211.89" y2="223.34" stroke="rgb(228,226,242)" stroke-width="1.5" />
  <line x1="191.87" y1="235.46" x2="171.37" y2="224.18" stroke="rgb(228,226,242)" stroke-width="1.5" />
  <line x1="190.89" y1="188.67" x2="170.88" y2="200.79" stroke="rgb(228,226,242)" stroke-width="1.5" />
  <line x1="146.34" y1="120.4" x2="146.7" y2="121.03" stroke="rgb(160,0,0)" stroke-width="1.5" />
  <line x1="143.77" y1="121.46" x2="144.5" y2="122.72" stroke="rgb(160,0,0)" stroke-width="1.5" />
  <line x1="141.21" y1="122.52" x2="142.3" y2="124.42" stroke="rgb(160,0,0)" stroke-width="1.5" />
  <line x1="138.64" y1="123.58" x2="140.1" y2="126.11" stroke="rgb(160,0,0)" stroke-width="1.5" />
  <line x1="136.07" y1="124.63" x2="137.9" y2="127.8" stroke="rgb(160,0,0)" stroke-width="1.5" />
  <line x1="133.51" y1="125.69" x2="135.7" y2="129.49" stroke="rgb(160,0,0)" stroke-width="1.5" />
  <line x1="130.94" y1="126.75" x2="133.5" y2="131.19" stroke="rgb(160,0,0)" stroke-width="1.5" />
  <line x1="128.37" y1="127.81" x2="131.3" y2="132.88" stroke="rgb(160,0,0)" stroke-width="1.5" />
  <line x1="128.64" y1="131.04" x2="114.82" y2="123.06" stroke="rgb(228,226,242)" stroke-width="1.5" />
  <line x1="101.93" y1="123.06" x2="88.11" y2="131.04" stroke="rgb(228,226,242)" stroke-width="1.5" />
  <line id="mol44:Bond:12" class="event" x1="190.4" y1="165.28" x2="210.42" y2="153.16" stroke-width="1.5" opacity="0" />
  <line id="mol44:Bond:14" class="event" x1="190.89" y1="188.67" x2="211.4" y2="199.94" stroke-width="1.5" opacity="0" />
  <line id="mol44:Bond:16" class="event" x1="211.89" y1="223.34" x2="191.87" y2="235.46" stroke-width="1.5" opacity="0" />
  <line id="mol44:Bond:18" class="event" x1="171.37" y1="224.18" x2="170.88" y2="200.79" stroke-width="1.5" opacity="0" />
  <line id="mol44:Bond:21" class="event" x1="128.64" y1="131.04" x2="128.64" y2="154.43" stroke-width="1.5" opacity="0" />
  <line id="mol44:Bond:0" class="event" x1="169.22" y1="121.53" x2="168.79" y2="100.79" stroke-width="1.5" opacity="0" />
  <line id="mol44:Bond:1" class="event" x1="187.42" y1="86.64" x2="168.79" y2="100.79" stroke-width="1.5" opacity="0" />
  <line id="mol44:Bond:2" class="event" x1="187.42" y1="86.64" x2="179.73" y2="64.54" stroke-width="1.5" opacity="0" />
  <line id="mol44:Bond:3" class="event" x1="179.73" y1="64.54" x2="156.34" y2="65.03" stroke-width="1.5" opacity="0" />
  <line id="mol44:Bond:4" class="event" x1="156.34" y1="65.03" x2="149.57" y2="87.43" stroke-width="1.5" opacity="0" />
  <line id="mol44:Bond:5" class="event" x1="149.57" y1="87.43" x2="168.79" y2="100.79" stroke-width="1.5" opacity="0" />
  <line id="mol44:Bond:6" class="event" x1="149.57" y1="87.43" x2="148.91" y2="119.34" stroke-width="1.5" opacity="0" />
  <line id="mol44:Bond:7" class="event" x1="148.91" y1="119.34" x2="169.44" y2="131.92" stroke-width="1.5" opacity="0" />
  <line id="mol44:Bond:8" class="event" x1="169.44" y1="131.92" x2="189.43" y2="118.49" stroke-width="1.5" opacity="0" />
  <line id="mol44:Bond:9" class="event" x1="187.42" y1="86.64" x2="189.43" y2="118.49" stroke-width="1.5" opacity="0" />
  <line id="mol44:Bond:10" class="event" x1="169.44" y1="131.92" x2="169.9" y2="154" stroke-width="1.5" opacity="0" />
  <line id="mol44:Bond:11" class="event" x1="169.9" y1="154" x2="190.4" y2="165.28" stroke-width="1.5" opacity="0" />
  <line id="mol44:Bond:13" class="event" x1="190.4" y1="165.28" x2="190.89" y2="188.67" stroke-width="1.5" opacity="0" />
  <line id="mol44:Bond:15" class="event" x1="211.4" y1="199.94" x2="211.89" y2="223.34" stroke-width="1.5" opacity="0" />
  <line id="mol44:Bond:17" class="event" x1="191.87" y1="235.46" x2="171.37" y2="224.18" stroke-width="1.5" opacity="0" />
  <line id="mol44:Bond:19" class="event" x1="190.89" y1="188.67" x2="170.88" y2="200.79" stroke-width="1.5" opacity="0" />
  <line id="mol44:Bond:20" class="event" x1="148.91" y1="119.34" x2="128.64" y2="131.04" stroke-width="1.5" opacity="0" />
  <line id="mol44:Bond:22" class="event" x1="128.64" y1="131.04" x2="108.38" y2="119.34" stroke-width="1.5" opacity="0" />
  <line id="mol44:Bond:23" class="event" x1="108.38" y1="119.34" x2="88.11" y2="131.04" stroke-width="1.5" opacity="0" />
  <circle id="mol44:Atom:0" class="event" cx="169.22" cy="121.53" r="8" opacity="0" />
  <circle id="mol44:Atom:1" class="event" cx="168.79" cy="100.79" r="8" opacity="0" />
  <circle id="mol44:Atom:2" class="event" cx="187.42" cy="86.64" r="8" opacity="0" />
  <circle id="mol44:Atom:3" class="event" cx="179.73" cy="64.54" r="8" opacity="0" />
  <circle id="mol44:Atom:4" class="event" cx="156.34" cy="65.03" r="8" opacity="0" />
  <circle id="mol44:Atom:5" class="event" cx="149.57" cy="87.43" r="8" opacity="0" />
  <circle id="mol44:Atom:6" class="event" cx="148.91" cy="119.34" r="8" opacity="0" />
  <circle id="mol44:Atom:7" class="event" cx="169.44" cy="131.92" r="8" opacity="0" />
  <circle id="mol44:Atom:8" class="event" cx="189.43" cy="118.49" r="8" opacity="0" />
  <circle id="mol44:Atom:9" class="event" cx="169.9" cy="154" r="8" opacity="0" />
  <circle id="mol44:Atom:10" class="event" cx="190.4" cy="165.28" r="8" opacity="0" />
  <circle id="mol44:Atom:11" class="event" cx="210.42" cy="153.16" r="8" opacity="0" />
  <circle id="mol44:Atom:12" class="event" cx="190.89" cy="188.67" r="8" opacity="0" />
  <circle id="mol44:Atom:13" class="event" cx="211.4" cy="199.94" r="8" opacity="0" />
  <circle id="mol44:Atom:14" class="event" cx="211.89" cy="223.34" r="8" opacity="0" />
  <circle id="mol44:Atom:15" class="event" cx="191.87" cy="235.46" r="8" opacity="0" />
  <circle id="mol44:Atom:16" class="event" cx="171.37" cy="224.18" r="8" opacity="0" />
  <circle id="mol44:Atom:17" class="event" cx="170.88" cy="200.79" r="8" opacity="0" />
  <circle id="mol44:Atom:18" class="event" cx="128.64" cy="131.04" r="8" opacity="0" />
  <circle id="mol44:Atom:19" class="event" cx="128.64" cy="154.43" r="8" opacity="0" />
  <circle id="mol44:Atom:20" class="event" cx="108.38" cy="119.34" r="8" opacity="0" />
  <circle id="mol44:Atom:21" class="event" cx="88.11" cy="131.04" r="8" opacity="0" />
</svg>