<svg id="mol45" xmlns="http://www.w3.org/2000/svg" version="1.1" width="132px" height="188px" viewBox="83 56 132 188">
  <style> #mol45 text {font-family: sans-serif;} #mol45 { pointer-events:none; } #mol45 .event  { pointer-events:all; } #mol45 line { stroke-linecap:round; } #mol45 polygon { stroke-linejoin:round; } </style>
  <text x="108.25" y="257.61" stroke="none" font-size="12" fill="rgb(160,0,0)">this enantiomer</text>
  <text x="153.6" y="105.45" stroke="none" font-size="14" fill="rgb(129,140,248)">N</text>
  <text x="171.29" y="94.64" stroke="none" font-size="9" fill="rgb(160,0,0)">S</text>
  <text x="176.21" y="88.4" stroke="none" font-size="9" fill="rgb(160,0,0)">abs</text>
  <text x="132.94" y="95.43" stroke="none" font-size="9" fill="rgb(160,0,0)">R</text>
  <text x="125.96" y="89.45" stroke="none" font-size="9" fill="rgb(160,0,0)">abs</text>
  <text x="132.28" y="127.34" stroke="none" font-size="9" fill="rgb(160,0,0)">R</text>
  <text x="137.05" y="119.32" stroke="none" font-size="9" fill="rgb(160,0,0)">abs</text>
  <text x="153.3" y="139.92" stroke="none" font-size="9" fill="rgb(160,0,0)">S</text>
  <text x="151.92" y="128.62" stroke="none" font-size="9" fill="rgb(160,0,0)">abs</text>
  <text x="154.32" y="158.67" stroke="none" font-size="14" fill="rgb(248,113,113)">O</text>
  <text x="194.84" y="157.82" stroke="none" font-size="14" fill="rgb(248,113,113)">O</text>
  <text x="92.8" y="124" stroke="none" font-size="14" fill="rgb(248,113,113)">O</text>
  <text x="113.06" y="159.1" stroke="none" font-size="14" fill="rgb(248,113,113)">O</text>
  <line x1="180.31" y1="167.35" x2="194.77" y2="158.6" stroke="rgb(228,226,242)" stroke-width="1.5" />
  <line x1="178.45" y1="164.27" x2="192.91" y2="155.52" stroke="rgb(228,226,242)" stroke-width="1.5" />
  <line x1="180.76" y1="188.67" x2="201.26" y2="199.94" stroke="rgb(228,226,242)" stroke-width="1.5" />
  <line x1="181.27" y1="193.06" x2="197.29" y2="201.86" stroke="rgb(228,226,242)" stroke-width="1.5" />
  <line x1="201.75" y1="223.34" x2="181.74" y2="235.46" stroke="rgb(228,226,242)" stroke-width="1.5" />
  <line x1="197.7" y1="221.58" x2="182.06" y2="231.05" stroke="rgb(228,226,242)" stroke-width="1.5" />
  <line x1="161.23" y1="224.18" x2="160.75" y2="200.79" stroke="rgb(228,226,242)" stroke-width="1.5" />
  <line x1="164.78" y1="221.55" x2="164.4" y2="203.28" stroke="rgb(228,226,242)" stroke-width="1.5" />
  <line x1="120.31" y1="130" x2="105.59" y2="121.5" stroke="rgb(228,226,242)" stroke-width="1.5" />
  <line x1="118.51" y1="133.11" x2="103.79" y2="124.62" stroke="rgb(228,226,242)" stroke-width="1.5" />
  <line x1="159.09" y1="121.53" x2="158.8" y2="107.79" stroke="rgb(228,226,242)" stroke-width="1.5" />
  <line x1="174.88" y1="88.01" x2="175.32" y2="88.6" stroke="rgb(160,0,0)" stroke-width="1.5" />
  <line x1="172.47" y1="89.39" x2="173.35" y2="90.55" stroke="rgb(160,0,0)" stroke-width="1.5" />
  <line x1="170.05" y1="90.76" x2="171.38" y2="92.51" stroke="rgb(160,0,0)" stroke-width="1.5" />
  <line x1="167.64" y1="92.13" x2="169.41" y2="94.46" stroke="rgb(160,0,0)" stroke-width="1.5" />
  <line x1="165.22" y1="93.51" x2="167.43" y2="96.42" stroke="rgb(160,0,0)" stroke-width="1.5" />
  <line x1="164.71" y1="97.38" x2="165.46" y2="98.37" stroke="rgb(160,0,0)" stroke-width="1.5" />
  <line x1="177.29" y1="86.64" x2="169.6" y2="64.54" stroke="rgb(228,226,242)" stroke-width="1.5" />
  <line x1="169.6" y1="64.54" x2="146.21" y2="65.03" stroke="rgb(228,226,242)" stroke-width="1.5" />
  <line x1="146.21" y1="65.03" x2="139.44" y2="87.43" stroke="rgb(228,226,242)" stroke-width="1.5" />
  <line x1="141.49" y1="89.3" x2="141.91" y2="88.7" stroke="rgb(160,0,0)" stroke-width="1.5" />
  <line x1="143.54" y1="91.17" x2="144.38" y2="89.97" stroke="rgb(160,0,0)" stroke-width="1.5" />
  <line x1="145.6" y1="93.05" x2="146.85" y2="91.24" stroke="rgb(160,0,0)" stroke-width="1.5" />
  <line x1="147.65" y1="94.92" x2="149.32" y2="92.52" stroke="rgb(160,0,0)" stroke-width="1.5" />
  <line x1="149.7" y1="96.79" x2="151.79" y2="93.79" stroke="rgb(160,0,0)" stroke-width="1.5" />
  <line x1="151.75" y1="98.66" x2="152.6" y2="97.44" stroke="rgb(160,0,0)" stroke-width="1.5" />
  <line x1="139.44" y1="87.43" x2="138.77" y2="119.34" stroke="rgb(228,226,242)" stroke-width="1.5" />
  <line x1="138.77" y1="119.34" x2="159.31" y2="131.92" stroke="rgb(228,226,242)" stroke-width="1.5" />
  <line x1="159.31" y1="131.92" x2="179.29" y2="118.49" stroke="rgb(228,226,242)" stroke-width="1.5" />
  <line x1="177.29" y1="86.64" x2="179.29" y2="118.49" stroke="rgb(228,226,242)" stroke-width="1.5" />
  <line x1="159.01" y1="134.52" x2="159.7" y2="134.51" stroke="rgb(160,0,0)" stroke-width="1.5" />
  <line x1="158.72" y1="137.13" x2="160.1" y2="137.1" stroke="rgb(160,0,0)" stroke-width="1.5" />
  <line x1="158.43" y1="139.74" x2="160.5" y2="139.69" stroke="rgb(160,0,0)" stroke-width="1.5" />
  <line x1="158.14" y1="142.34" x2="160.9" y2="142.28" stroke="rgb(160,0,0)" stroke-width="1.5" />
  <line x1="157.85" y1="144.95" x2="161.3" y2="144.87" stroke="rgb(160,0,0)" stroke-width="1.5" />
  <line x1="166.21" y1="157.55" x2="180.27" y2="165.28" stroke="rgb(228,226,242)" stroke-width="1.5" />
  <line x1="180.27" y1="165.28" x2="180.76" y2="188.67" stroke="rgb(228,226,242)" stroke-width="1.5" />
  <line x1="201.26" y1="199.94" x2="201.75" y2="223.34" stroke="rgb(228,226,242)" stroke-width="1.5" />
  <line x1="181.74" y1="235.46" x2="161.23" y2="224.18" stroke="rgb(228,226,242)" stroke-width="1.5" />
  <line x1="180.76" y1="188.67" x2="160.75" y2="200.79" stroke="rgb(228,226,242)" stroke-width="1.5" />
  <line x1="136.21" y1="120.4" x2="136.57" y2="121.03" stroke="rgb(160,0,0)" stroke-width="1.5" />
  <line x1="133.64" y1="121.46" x2="134.37" y2="122.72" stroke="rgb(160,0,0)" stroke-width="1.5" />
  <line x1="131.07" y1="122.52" x2="132.17" y2="124.42" stroke="rgb(160,0,0)" stroke-width="1.5" />
  <line x1="128.51" y1="123.58" x2="129.97" y2="126.11" stroke="rgb(160,0,0)" stroke-width="1.5" />
  <line x1="125.94" y1="124.63" x2="127.77" y2="127.8" stroke="rgb(160,0,0)" stroke-width="1.5" />
  <line x1="123.37" y1="125.69" x2="125.57" y2="129.49" stroke="rgb(160,0,0)" stroke-width="1.5" />
  <line x1="120.81" y1="126.75" x2="123.37" y2="131.19" stroke="rgb(160,0,0)" stroke-width="1.5" />
  <line x1="118.24" y1="127.81" x2="121.16" y2="132.88" stroke="rgb(160,0,0)" stroke-width="1.5" />
  <line x1="118.51" y1="131.04" x2="118.51" y2="147.43" stroke="rgb(228,226,242)" stroke-width="1.5" />
  <line x1="112.06" y1="158.16" x2="98.25" y2="166.13" stroke="rgb(228,226,242)" stroke-width="1.5" />
  <line id="mol45:Bond:12" class="event" x1="180.27" y1="165.28" x2="200.29" y2="153.16" stroke-width="1.5" opacity="0" />
  <line id="mol45:Bond:14" class="event" x1="180.76" y1="188.67" x2="201.26" y2="199.94" stroke-width="1.5" opacity="0" />
  <line id="mol45:Bond:16" class="event" x1="201.75" y1="223.34" x2="181.74" y2="235.46" stroke-width="1.5" opacity="0" />
  <line id="mol45:Bond:18" class="event" x1="161.23" y1="224.18" x2="160.75" y2="200.79" stroke-width="1.5" opacity="0" />
  <line id="mol45:Bond:21" class="event" x1="118.51" y1="131.04" x2="98.25" y2="119.34" stroke-width="1.5" opacity="0" />
  <line id="mol45:Bond:0" class="event" x1="159.09" y1="121.53" x2="158.65" y2="100.79" stroke-width="1.5" opacity="0" />
  <line id="mol45:Bond:1" class="event" x1="177.29" y1="86.64" x2="158.65" y2="100.79" stroke-width="1.5" opacity="0" />
  <line id="mol45:Bond:2" class="event" x1="177.29" y1="86.64" x2="169.6" y2="64.54" stroke-width="1.5" opacity="0" />
  <line id="mol45:Bond:3" class="event" x1="169.6" y1="64.54" x2="146.21" y2="65.03" stroke-width="1.5" opacity="0" />
  <line id="mol45:Bond:4" class="event" x1="146.21" y1="65.03" x2="139.44" y2="87.43" stroke-width="1.5" opacity="0" />
  <line id="mol45:Bond:5" class="event" x1="139.44" y1="87.43" x2="158.65" y2="100.79" stroke-width="1.5" opacity="0" />
  <line id="mol45:Bond:6" class="event" x1="139.44" y1="87.43" x2="138.77" y2="119.34" stroke-width="1.5" opacity="0" />
  <line id="mol45:Bond:7" class="event" x1="138.77" y1="119.34" x2="159.31" y2="131.92" stroke-width="1.5" opacity="0" />
  <line id="mol45:Bond:8" class="event" x1="159.31" y1="131.92" x2="179.29" y2="118.49" stroke-width="1.5" opacity="0" />
  <line id="mol45:Bond:9" class="event" x1="177.29" y1="86.64" x2="179.29" y2="118.49" stroke-width="1.5" opacity="0" />
  <line id="mol45:Bond:10" class="event" x1="159.31" y1="131.92" x2="159.77" y2="154" stroke-width="1.5" opacity="0" />
  <line id="mol45:Bond:11" class="event" x1="159.77" y1="154" x2="180.27" y2="165.28" stroke-width="1.5" opacity="0" />
  <line id="mol45:Bond:13" class="event" x1="180.27" y1="165.28" x2="180.76" y2="188.67" stroke-width="1.5" opacity="0" />
  <line id="mol45:Bond:15" class="event" x1="201.26" y1="199.94" x2="201.75" y2="223.34" stroke-width="1.5" opacity="0" />
  <line id="mol45:Bond:17" class="event" x1="181.74" y1="235.46" x2="161.23" y2="224.18" stroke-width="1.5" opacity="0" />
  <line id="mol45:Bond:19" class="event" x1="180.76" y1="188.67" x2="160.75" y2="200.79" stroke-width="1.5" opacity="0" />
  <line id="mol45:Bond:20" class="event" x1="138.77" y1="119.34" x2="118.51" y2="131.04" stroke-width="1.5" opacity="0" />
  <line id="mol45:Bond:22" class="event" x1="118.51" y1="131.04" x2="118.51" y2="154.43" stroke-width="1.5" opacity="0" />
  <line id="mol45:Bond:23" class="event" x1="118.51" y1="154.43" x2="98.25" y2="166.13" stroke-width="1.5" opacity="0" />
  <circle id="mol45:Atom:0" class="event" cx="159.09" cy="121.53" r="8" opacity="0" />
  <circle id="mol45:Atom:1" class="event" cx="158.65" cy="100.79" r="8" opacity="0" />
  <circle id="mol45:Atom:2" class="event" cx="177.29" cy="86.64" r="8" opacity="0" />
  <circle id="mol45:Atom:3" class="event" cx="169.6" cy="64.54" r="8" opacity="0" />
  <circle id="mol45:Atom:4" class="event" cx="146.21" cy="65.03" r="8" opacity="0" />
  <circle id="mol45:Atom:5" class="event" cx="139.44" cy="87.43" r="8" opacity="0" />
  <circle id="mol45:Atom:6" class="event" cx="138.77" cy="119.34" r="8" opacity="0" />
  <circle id="mol45:Atom:7" class="event" cx="159.31" cy="131.92" r="8" opacity="0" />
  <circle id="mol45:Atom:8" class="event" cx="179.29" cy="118.49" r="8" opacity="0" />
  <circle id="mol45:Atom:9" class="event" cx="159.77" cy="154" r="8" opacity="0" />
  <circle id="mol45:Atom:10" class="event" cx="180.27" cy="165.28" r="8" opacity="0" />
  <circle id="mol45:Atom:11" class="event" cx="200.29" cy="153.16" r="8" opacity="0" />
  <circle id="mol45:Atom:12" class="event" cx="180.76" cy="188.67" r="8" opacity="0" />
  <circle id="mol45:Atom:13" class="event" cx="201.26" cy="199.94" r="8" opacity="0" />
  <circle id="mol45:Atom:14" class="event" cx="201.75" cy="223.34" r="8" opacity="0" />
  <circle id="mol45:Atom:15" class="event" cx="181.74" cy="235.46" r="8" opacity="0" />
  <circle id="mol45:Atom:16" class="event" cx="161.23" cy="224.18" r="8" opacity="0" />
  <circle id="mol45:Atom:17" class="event" cx="160.75" cy="200.79" r="8" opacity="0" />
  <circle id="mol45:Atom:18" class="event" cx="118.51" cy="131.04" r="8" opacity="0" />
  <circle id="mol45:Atom:19" class="event" cx="98.25" cy="119.34" r="8" opacity="0" />
  <circle id="mol45:Atom:20" class="event" cx="118.51" cy="154.43" r="8" opacity="0" />
  <circle id="mol45:Atom:21" class="event" cx="98.25" cy="166.13" r="8" opacity="0" />
</svg>