<svg id="mol46" xmlns="http://www.w3.org/2000/svg" version="1.1" width="137px" height="132px" viewBox="73 81 137 132">
  <style> #mol46 text {font-family: sans-serif;} #mol46 { pointer-events:none; } #mol46 .event  { pointer-events:all; } #mol46 line { stroke-linecap:round; } #mol46 polygon { stroke-linejoin:round; } </style>
  <text x="154.95" y="100.67" stroke="none" font-size="14" fill="rgb(248,113,113)">O</text>
  <text x="175.73" y="136.67" stroke="none" font-size="14" fill="rgb(248,113,113)">O</text>
  <text x="113.38" y="100.67" stroke="none" font-size="14" fill="rgb(248,113,113)">O</text>
  <text x="92.59" y="136.67" stroke="none" font-size="14" fill="rgb(248,113,113)">O</text>
  <text x="82.48" y="136.67" stroke="none" font-size="14" fill="rgb(248,113,113)">H</text>
  <line x1="181.18" y1="204" x2="201.96" y2="192" stroke="rgb(228,226,242)" stroke-width="1.5" />
  <line x1="181.59" y1="199.6" x2="197.94" y2="190.16" stroke="rgb(228,226,242)" stroke-width="1.5" />
  <line x1="201.96" y1="168" x2="181.18" y2="156" stroke="rgb(228,226,242)" stroke-width="1.5" />
  <line x1="197.94" y1="169.84" x2="181.59" y2="160.4" stroke="rgb(228,226,242)" stroke-width="1.5" />
  <line x1="160.39" y1="168" x2="160.39" y2="192" stroke="rgb(228,226,242)" stroke-width="1.5" />
  <line x1="163.99" y1="170.56" x2="163.99" y2="189.44" stroke="rgb(228,226,242)" stroke-width="1.5" />
  <line x1="139.61" y1="156" x2="139.61" y2="132" stroke="rgb(228,226,242)" stroke-width="1.5" />
  <line x1="143.21" y1="153.44" x2="143.21" y2="134.56" stroke="rgb(228,226,242)" stroke-width="1.5" />
  <line x1="162.19" y1="121.04" x2="162.19" y2="103" stroke="rgb(228,226,242)" stroke-width="1.5" />
  <line x1="158.59" y1="121.04" x2="158.59" y2="103" stroke="rgb(228,226,242)" stroke-width="1.5" />
  <line x1="120.62" y1="121.04" x2="120.62" y2="103" stroke="rgb(228,226,242)" stroke-width="1.5" />
  <line x1="117.02" y1="121.04" x2="117.02" y2="103" stroke="rgb(228,226,242)" stroke-width="1.5" />
  <line x1="201.96" y1="192" x2="201.96" y2="168" stroke="rgb(228,226,242)" stroke-width="1.5" />
  <line x1="181.18" y1="156" x2="160.39" y2="168" stroke="rgb(228,226,242)" stroke-width="1.5" />
  <line x1="181.18" y1="204" x2="160.39" y2="192" stroke="rgb(228,226,242)" stroke-width="1.5" />
  <line x1="160.39" y1="168" x2="139.61" y2="156" stroke="rgb(228,226,242)" stroke-width="1.5" />
  <line x1="139.61" y1="132" x2="160.39" y2="120" stroke="rgb(228,226,242)" stroke-width="1.5" />
  <line x1="160.39" y1="120" x2="174.73" y2="128.28" stroke="rgb(228,226,242)" stroke-width="1.5" />
  <line x1="181.18" y1="156" x2="181.18" y2="139" stroke="rgb(228,226,242)" stroke-width="1.5" />
  <line x1="139.61" y1="132" x2="118.82" y2="120" stroke="rgb(228,226,242)" stroke-width="1.5" />
  <line x1="118.82" y1="120" x2="104.48" y2="128.28" stroke="rgb(228,226,242)" stroke-width="1.5" />
  <line id="mol46:Bond:0" class="event" x1="181.18" y1="204" x2="201.96" y2="192" stroke-width="1.5" opacity="0" />
  <line id="mol46:Bond:2" class="event" x1="201.96" y1="168" x2="181.18" y2="156" stroke-width="1.5" opacity="0" />
  <line id="mol46:Bond:4" class="event" x1="160.39" y1="168" x2="160.39" y2="192" stroke-width="1.5" opacity="0" />
  <line id="mol46:Bond:7" class="event" x1="139.61" y1="156" x2="139.61" y2="132" stroke-width="1.5" opacity="0" />
  <line id="mol46:Bond:9" class="event" x1="160.39" y1="120" x2="160.39" y2="96" stroke-width="1.5" opacity="0" />
  <line id="mol46:Bond:13" class="event" x1="118.82" y1="120" x2="118.82" y2="96" stroke-width="1.5" opacity="0" />
  <line id="mol46:Bond:1" class="event" x1="201.96" y1="192" x2="201.96" y2="168" stroke-width="1.5" opacity="0" />
  <line id="mol46:Bond:3" class="event" x1="181.18" y1="156" x2="160.39" y2="168" stroke-width="1.5" opacity="0" />
  <line id="mol46:Bond:5" class="event" x1="181.18" y1="204" x2="160.39" y2="192" stroke-width="1.5" opacity="0" />
  <line id="mol46:Bond:6" class="event" x1="160.39" y1="168" x2="139.61" y2="156" stroke-width="1.5" opacity="0" />
  <line id="mol46:Bond:8" class="event" x1="139.61" y1="132" x2="160.39" y2="120" stroke-width="1.5" opacity="0" />
  <line id="mol46:Bond:10" class="event" x1="160.39" y1="120" x2="181.18" y2="132" stroke-width="1.5" opacity="0" />
  <line id="mol46:Bond:11" class="event" x1="181.18" y1="156" x2="181.18" y2="132" stroke-width="1.5" opacity="0" />
  <line id="mol46:Bond:12" class="event" x1="139.61" y1="132" x2="118.82" y2="120" stroke-width="1.5" opacity="0" />
  <line id="mol46:Bond:14" class="event" x1="118.82" y1="120" x2="98.04" y2="132" stroke-width="1.5" opacity="0" />
  <circle id="mol46:Atom:0" class="event" cx="181.18" cy="204" r="8" opacity="0" />
  <circle id="mol46:Atom:1" class="event" cx="201.96" cy="192" r="8" opacity="0" />
  <circle id="mol46:Atom:2" class="event" cx="201.96" cy="168" r="8" opacity="0" />
  <circle id="mol46:Atom:3" class="event" cx="181.18" cy="156" r="8" opacity="0" />
  <circle id="mol46:Atom:4" class="event" cx="160.39" cy="168" r="8" opacity="0" />
  <circle id="mol46:Atom:5" class="event" cx="160.39" cy="192" r="8" opacity="0" />
  <circle id="mol46:Atom:6" class="event" cx="139.61" cy="156" r="8" opacity="0" />
  <circle id="mol46:Atom:7" class="event" cx="139.61" cy="132" r="8" opacity="0" />
  <circle id="mol46:Atom:8" class="event" cx="160.39" cy="120" r="8" opacity="0" />
  <circle id="mol46:Atom:9" class="event" cx="160.39" cy="96" r="8" opacity="0" />
  <circle id="mol46:Atom:10" class="event" cx="181.18" cy="132" r="8" opacity="0" />
  <circle id="mol46:Atom:11" class="event" cx="118.82" cy="120" r="8" opacity="0" />
  <circle id="mol46:Atom:12" class="event" cx="118.82" cy="96" r="8" opacity="0" />
  <circle id="mol46:Atom:13" class="event" cx="98.04" cy="132" r="8" opacity="0" />
</svg>