<svg id="mol46" xmlns="http://www.w3.org/2000/svg" version="1.1" width="142px" height="86px" viewBox="79 97 142 86">
  <style> #mol46 text {font-family: sans-serif;} #mol46 { pointer-events:none; } #mol46 .event  { pointer-events:all; } #mol46 line { stroke-linecap:round; } #mol46 polygon { stroke-linejoin:round; } </style>
  <text x="108.98" y="196.15" stroke="none" font-size="12" fill="rgb(160,0,0)">this enantiomer</text>
  <text x="123.21" y="146" stroke="none" font-size="9" fill="rgb(160,0,0)">S</text>
  <text x="121.96" y="134.7" stroke="none" font-size="9" fill="rgb(160,0,0)">abs</text>
  <text x="103.38" y="130.67" stroke="none" font-size="14" fill="rgb(129,140,248)">N</text>
  <text x="103.38" y="116.67" stroke="none" font-size="14" fill="rgb(129,140,248)">H</text>
  <line x1="170.78" y1="138" x2="170.78" y2="162" stroke="rgb(228,226,242)" stroke-width="1.5" />
  <line x1="174.38" y1="140.56" x2="174.38" y2="159.44" stroke="rgb(228,226,242)" stroke-width="1.5" />
  <line x1="191.57" y1="174" x2="212.35" y2="162" stroke="rgb(228,226,242)" stroke-width="1.5" />
  <line x1="191.99" y1="169.6" x2="208.34" y2="160.16" stroke="rgb(228,226,242)" stroke-width="1.5" />
  <line x1="212.35" y1="138" x2="191.57" y2="126" stroke="rgb(228,226,242)" stroke-width="1.5" />
  <line x1="208.34" y1="139.84" x2="191.99" y2="130.4" stroke="rgb(228,226,242)" stroke-width="1.5" />
  <line x1="128.84" y1="140.82" x2="129.59" y2="140.82" stroke="rgb(160,0,0)" stroke-width="1.5" />
  <line x1="128.47" y1="143.65" x2="129.97" y2="143.65" stroke="rgb(160,0,0)" stroke-width="1.5" />
  <line x1="128.09" y1="146.47" x2="130.34" y2="146.47" stroke="rgb(160,0,0)" stroke-width="1.5" />
  <line x1="127.72" y1="149.29" x2="130.72" y2="149.29" stroke="rgb(160,0,0)" stroke-width="1.5" />
  <line x1="127.34" y1="152.12" x2="131.09" y2="152.12" stroke="rgb(160,0,0)" stroke-width="1.5" />
  <line x1="126.97" y1="154.94" x2="131.47" y2="154.94" stroke="rgb(160,0,0)" stroke-width="1.5" />
  <line x1="126.59" y1="157.76" x2="131.84" y2="157.76" stroke="rgb(160,0,0)" stroke-width="1.5" />
  <line x1="126.22" y1="160.59" x2="132.22" y2="160.59" stroke="rgb(160,0,0)" stroke-width="1.5" />
  <line x1="129.22" y1="138" x2="150" y2="126" stroke="rgb(228,226,242)" stroke-width="1.5" />
  <line x1="150" y1="126" x2="170.78" y2="138" stroke="rgb(228,226,242)" stroke-width="1.5" />
  <line x1="170.78" y1="162" x2="191.57" y2="174" stroke="rgb(228,226,242)" stroke-width="1.5" />
  <line x1="212.35" y1="162" x2="212.35" y2="138" stroke="rgb(228,226,242)" stroke-width="1.5" />
  <line x1="170.78" y1="138" x2="191.57" y2="126" stroke="rgb(228,226,242)" stroke-width="1.5" />
  <line x1="129.22" y1="138" x2="114.48" y2="129.5" stroke="rgb(228,226,242)" stroke-width="1.5" />
  <line x1="102.38" y1="129.5" x2="87.65" y2="138" stroke="rgb(228,226,242)" stroke-width="1.5" />
  <line id="mol46:Bond:3" class="event" x1="170.78" y1="138" x2="170.78" y2="162" stroke-width="1.5" opacity="0" />
  <line id="mol46:Bond:5" class="event" x1="191.57" y1="174" x2="212.35" y2="162" stroke-width="1.5" opacity="0" />
  <line id="mol46:Bond:7" class="event" x1="212.35" y1="138" x2="191.57" y2="126" stroke-width="1.5" opacity="0" />
  <line id="mol46:Bond:0" class="event" x1="129.22" y1="138" x2="129.22" y2="162" stroke-width="1.5" opacity="0" />
  <line id="mol46:Bond:1" class="event" x1="129.22" y1="138" x2="150" y2="126" stroke-width="1.5" opacity="0" />
  <line id="mol46:Bond:2" class="event" x1="150" y1="126" x2="170.78" y2="138" stroke-width="1.5" opacity="0" />
  <line id="mol46:Bond:4" class="event" x1="170.78" y1="162" x2="191.57" y2="174" stroke-width="1.5" opacity="0" />
  <line id="mol46:Bond:6" class="event" x1="212.35" y1="162" x2="212.35" y2="138" stroke-width="1.5" opacity="0" />
  <line id="mol46:Bond:8" class="event" x1="170.78" y1="138" x2="191.57" y2="126" stroke-width="1.5" opacity="0" />
  <line id="mol46:Bond:9" class="event" x1="129.22" y1="138" x2="108.43" y2="126" stroke-width="1.5" opacity="0" />
  <line id="mol46:Bond:10" class="event" x1="108.43" y1="126" x2="87.65" y2="138" stroke-width="1.5" opacity="0" />
  <circle id="mol46:Atom:0" class="event" cx="129.22" cy="162" r="8" opacity="0" />
  <circle id="mol46:Atom:1" class="event" cx="129.22" cy="138" r="8" opacity="0" />
  <circle id="mol46:Atom:2" class="event" cx="150" cy="126" r="8" opacity="0" />
  <circle id="mol46:Atom:3" class="event" cx="170.78" cy="138" r="8" opacity="0" />
  <circle id="mol46:Atom:4" class="event" cx="170.78" cy="162" r="8" opacity="0" />
  <circle id="mol46:Atom:5" class="event" cx="191.57" cy="174" r="8" opacity="0" />
  <circle id="mol46:Atom:6" class="event" cx="212.35" cy="162" r="8" opacity="0" />
  <circle id="mol46:Atom:7" class="event" cx="212.35" cy="138" r="8" opacity="0" />
  <circle id="mol46:Atom:8" class="event" cx="191.57" cy="126" r="8" opacity="0" />
  <circle id="mol46:Atom:9" class="event" cx="108.43" cy="126" r="8" opacity="0" />
  <circle id="mol46:Atom:10" class="event" cx="87.65" cy="138" r="8" opacity="0" />
</svg>