<svg id="mol47" xmlns="http://www.w3.org/2000/svg" version="1.1" width="175px" height="196px" viewBox="63 52 175 196">
  <style> #mol47 text {font-family: sans-serif;} #mol47 { pointer-events:none; } #mol47 .event  { pointer-events:all; } #mol47 line { stroke-linecap:round; } #mol47 polygon { stroke-linejoin:round; } </style>
  <text x="108.98" y="261.89" stroke="none" font-size="12" fill="rgb(160,0,0)">this enantiomer</text>
  <text x="203.3" y="191.76" stroke="none" font-size="14" fill="rgb(248,113,113)">O</text>
  <text x="183.03" y="156.65" stroke="none" font-size="14" fill="rgb(248,113,113)">O</text>
  <text x="162.21" y="171.69" stroke="none" font-size="9" fill="rgb(160,0,0)">S</text>
  <text x="161.03" y="160.39" stroke="none" font-size="9" fill="rgb(160,0,0)">abs</text>
  <text x="120.55" y="196.65" stroke="none" font-size="9" fill="rgb(160,0,0)">R</text>
  <text x="125.28" y="188.55" stroke="none" font-size="9" fill="rgb(160,0,0)">abs</text>
  <text x="99.4" y="206.66" stroke="none" font-size="9" fill="rgb(160,0,0)">R</text>
  <text x="99.15" y="195.38" stroke="none" font-size="9" fill="rgb(160,0,0)">abs</text>
  <text x="122.96" y="173.32" stroke="none" font-size="9" fill="rgb(160,0,0)">S</text>
  <text x="121.56" y="162.02" stroke="none" font-size="9" fill="rgb(160,0,0)">abs</text>
  <text x="141.08" y="159.13" stroke="none" font-size="9" fill="rgb(160,0,0)">R</text>
  <text x="145.22" y="150.17" stroke="none" font-size="9" fill="rgb(160,0,0)">abs</text>
  <text x="134.38" y="133.71" stroke="none" font-size="14" fill="rgb(248,113,113)">O</text>
  <text x="95.77" y="96.27" stroke="none" font-size="14" fill="rgb(248,113,113)">O</text>
  <text x="135.77" y="102.86" stroke="none" font-size="14" fill="rgb(248,113,113)">O</text>
  <text x="126.5" y="221.08" stroke="none" font-size="14" fill="rgb(129,140,248)">N</text>
  <line x1="206.95" y1="162.65" x2="206.95" y2="180.09" stroke="rgb(228,226,242)" stroke-width="1.5" />
  <line x1="210.55" y1="162.65" x2="210.55" y2="180.09" stroke="rgb(228,226,242)" stroke-width="1.5" />
  <line x1="168.75" y1="187.09" x2="146.54" y2="198.33" stroke="rgb(228,226,242)" stroke-width="1.5" />
  <line x1="164.68" y1="185.11" x2="146.93" y2="194.1" stroke="rgb(228,226,242)" stroke-width="1.5" />
  <line x1="88.56" y1="162.01" x2="109.71" y2="152" stroke="rgb(228,226,242)" stroke-width="1.5" />
  <line x1="89.64" y1="157.52" x2="106.39" y2="149.6" stroke="rgb(228,226,242)" stroke-width="1.5" />
  <line x1="116.43" y1="129.58" x2="97.41" y2="114.7" stroke="rgb(228,226,242)" stroke-width="1.5" />
  <line x1="111.93" y1="130.63" x2="97.12" y2="119.04" stroke="rgb(228,226,242)" stroke-width="1.5" />
  <line x1="75.32" y1="122.44" x2="70.98" y2="145.44" stroke="rgb(228,226,242)" stroke-width="1.5" />
  <line x1="78.38" y1="125.62" x2="74.97" y2="143.7" stroke="rgb(228,226,242)" stroke-width="1.5" />
  <line x1="121.17" y1="84.09" x2="133.62" y2="94.3" stroke="rgb(228,226,242)" stroke-width="1.5" />
  <line x1="123.45" y1="81.3" x2="135.91" y2="91.52" stroke="rgb(228,226,242)" stroke-width="1.5" />
  <line x1="229.02" y1="151.99" x2="208.75" y2="163.69" stroke="rgb(228,226,242)" stroke-width="1.5" />
  <line x1="208.75" y1="163.69" x2="194.93" y2="155.71" stroke="rgb(228,226,242)" stroke-width="1.5" />
  <polygon points="168,164 176,160 175,159 " fill="rgb(160,0,0)" stroke="rgb(160,0,0)" stroke-width="1.5" />
  <polygon points="175,159 176,160 183,157 181,154 " fill="rgb(160,0,0)" stroke="rgb(160,0,0)" stroke-width="1.5" />
  <line x1="168.21" y1="163.69" x2="168.75" y2="187.09" stroke="rgb(228,226,242)" stroke-width="1.5" />
  <polygon points="127,189 136,195 137,192 " fill="rgb(160,0,0)" stroke="rgb(160,0,0)" stroke-width="1.5" />
  <polygon points="137,192 136,195 145,200 148,196 " fill="rgb(160,0,0)" stroke="rgb(160,0,0)" stroke-width="1.5" />
  <line x1="127.05" y1="188.65" x2="105.89" y2="198.66" stroke="rgb(228,226,242)" stroke-width="1.5" />
  <line x1="105.89" y1="198.66" x2="86.65" y2="185.34" stroke="rgb(228,226,242)" stroke-width="1.5" />
  <line x1="86.65" y1="185.34" x2="88.56" y2="162.01" stroke="rgb(228,226,242)" stroke-width="1.5" />
  <line x1="109.71" y1="152" x2="128.96" y2="165.32" stroke="rgb(228,226,242)" stroke-width="1.5" />
  <line x1="127.05" y1="188.65" x2="128.96" y2="165.32" stroke="rgb(228,226,242)" stroke-width="1.5" />
  <line x1="128.96" y1="165.32" x2="147.57" y2="151.13" stroke="rgb(228,226,242)" stroke-width="1.5" />
  <line x1="168.21" y1="163.69" x2="147.57" y2="151.13" stroke="rgb(228,226,242)" stroke-width="1.5" />
  <polygon points="148,151 146,143 144,144 " fill="rgb(160,0,0)" stroke="rgb(160,0,0)" stroke-width="1.5" />
  <polygon points="144,144 146,143 144,135 141,137 " fill="rgb(160,0,0)" stroke="rgb(160,0,0)" stroke-width="1.5" />
  <line x1="133.38" y1="129.19" x2="116.43" y2="129.58" stroke="rgb(228,226,242)" stroke-width="1.5" />
  <line x1="109.71" y1="152" x2="116.43" y2="129.58" stroke="rgb(228,226,242)" stroke-width="1.5" />
  <line x1="97.41" y1="114.7" x2="75.32" y2="122.44" stroke="rgb(228,226,242)" stroke-width="1.5" />
  <line x1="88.56" y1="162.01" x2="70.98" y2="145.44" stroke="rgb(228,226,242)" stroke-width="1.5" />
  <line x1="97.41" y1="114.7" x2="100.06" y2="98.6" stroke="rgb(228,226,242)" stroke-width="1.5" />
  <line x1="107.66" y1="89.18" x2="123.12" y2="83.35" stroke="rgb(228,226,242)" stroke-width="1.5" />
  <line x1="123.12" y1="83.35" x2="126.92" y2="60.26" stroke="rgb(228,226,242)" stroke-width="1.5" />
  <line x1="131.67" y1="167.71" x2="132.2" y2="166.92" stroke="rgb(160,0,0)" stroke-width="1.5" />
  <line x1="134.38" y1="170.11" x2="135.44" y2="168.53" stroke="rgb(160,0,0)" stroke-width="1.5" />
  <line x1="137.08" y1="172.5" x2="138.67" y2="170.13" stroke="rgb(160,0,0)" stroke-width="1.5" />
  <line x1="139.79" y1="174.89" x2="141.91" y2="171.73" stroke="rgb(160,0,0)" stroke-width="1.5" />
  <line x1="142.5" y1="177.28" x2="145.15" y2="173.33" stroke="rgb(160,0,0)" stroke-width="1.5" />
  <line x1="145.21" y1="179.67" x2="148.39" y2="174.94" stroke="rgb(160,0,0)" stroke-width="1.5" />
  <line x1="147.91" y1="182.07" x2="151.63" y2="176.54" stroke="rgb(160,0,0)" stroke-width="1.5" />
  <line x1="150.62" y1="184.46" x2="154.87" y2="178.14" stroke="rgb(160,0,0)" stroke-width="1.5" />
  <line x1="154.23" y1="182.3" x2="153.18" y2="207.02" stroke="rgb(228,226,242)" stroke-width="1.5" />
  <line x1="153.18" y1="207.02" x2="137.61" y2="213.78" stroke="rgb(228,226,242)" stroke-width="1.5" />
  <line x1="108.64" y1="201.15" x2="109.19" y2="200.34" stroke="rgb(160,0,0)" stroke-width="1.5" />
  <line x1="111.38" y1="203.64" x2="112.49" y2="202.03" stroke="rgb(160,0,0)" stroke-width="1.5" />
  <line x1="114.12" y1="206.13" x2="115.78" y2="203.72" stroke="rgb(160,0,0)" stroke-width="1.5" />
  <line x1="116.86" y1="208.62" x2="119.08" y2="205.41" stroke="rgb(160,0,0)" stroke-width="1.5" />
  <line x1="119.6" y1="211.11" x2="122.38" y2="207.1" stroke="rgb(160,0,0)" stroke-width="1.5" />
  <line x1="122.34" y1="213.6" x2="125.67" y2="208.78" stroke="rgb(160,0,0)" stroke-width="1.5" />
  <line x1="125.09" y1="216.09" x2="125.5" y2="215.48" stroke="rgb(160,0,0)" stroke-width="1.5" />
  <line x1="130.98" y1="223.41" x2="129.65" y2="239.74" stroke="rgb(228,226,242)" stroke-width="1.5" />
  <line id="mol47:Bond:1" class="event" x1="208.75" y1="163.69" x2="208.75" y2="187.09" stroke-width="1.5" opacity="0" />
  <line id="mol47:Bond:5" class="event" x1="168.75" y1="187.09" x2="146.54" y2="198.33" stroke-width="1.5" opacity="0" />
  <line id="mol47:Bond:10" class="event" x1="88.56" y1="162.01" x2="109.71" y2="152" stroke-width="1.5" opacity="0" />
  <line id="mol47:Bond:18" class="event" x1="116.43" y1="129.58" x2="97.41" y2="114.7" stroke-width="1.5" opacity="0" />
  <line id="mol47:Bond:20" class="event" x1="75.32" y1="122.44" x2="70.98" y2="145.44" stroke-width="1.5" opacity="0" />
  <line id="mol47:Bond:24" class="event" x1="123.12" y1="83.35" x2="141.21" y2="98.2" stroke-width="1.5" opacity="0" />
  <line id="mol47:Bond:0" class="event" x1="229.02" y1="151.99" x2="208.75" y2="163.69" stroke-width="1.5" opacity="0" />
  <line id="mol47:Bond:2" class="event" x1="208.75" y1="163.69" x2="188.48" y2="151.99" stroke-width="1.5" opacity="0" />
  <line id="mol47:Bond:3" class="event" x1="168.21" y1="163.69" x2="188.48" y2="151.99" stroke-width="1.5" opacity="0" />
  <line id="mol47:Bond:4" class="event" x1="168.21" y1="163.69" x2="168.75" y2="187.09" stroke-width="1.5" opacity="0" />
  <line id="mol47:Bond:6" class="event" x1="127.05" y1="188.65" x2="146.54" y2="198.33" stroke-width="1.5" opacity="0" />
  <line id="mol47:Bond:7" class="event" x1="127.05" y1="188.65" x2="105.89" y2="198.66" stroke-width="1.5" opacity="0" />
  <line id="mol47:Bond:8" class="event" x1="105.89" y1="198.66" x2="86.65" y2="185.34" stroke-width="1.5" opacity="0" />
  <line id="mol47:Bond:9" class="event" x1="86.65" y1="185.34" x2="88.56" y2="162.01" stroke-width="1.5" opacity="0" />
  <line id="mol47:Bond:11" class="event" x1="109.71" y1="152" x2="128.96" y2="165.32" stroke-width="1.5" opacity="0" />
  <line id="mol47:Bond:12" class="event" x1="127.05" y1="188.65" x2="128.96" y2="165.32" stroke-width="1.5" opacity="0" />
  <line id="mol47:Bond:13" class="event" x1="128.96" y1="165.32" x2="147.57" y2="151.13" stroke-width="1.5" opacity="0" />
  <line id="mol47:Bond:14" class="event" x1="168.21" y1="163.69" x2="147.57" y2="151.13" stroke-width="1.5" opacity="0" />
  <line id="mol47:Bond:15" class="event" x1="147.57" y1="151.13" x2="139.83" y2="129.04" stroke-width="1.5" opacity="0" />
  <line id="mol47:Bond:16" class="event" x1="139.83" y1="129.04" x2="116.43" y2="129.58" stroke-width="1.5" opacity="0" />
  <line id="mol47:Bond:17" class="event" x1="109.71" y1="152" x2="116.43" y2="129.58" stroke-width="1.5" opacity="0" />
  <line id="mol47:Bond:19" class="event" x1="97.41" y1="114.7" x2="75.32" y2="122.44" stroke-width="1.5" opacity="0" />
  <line id="mol47:Bond:21" class="event" x1="88.56" y1="162.01" x2="70.98" y2="145.44" stroke-width="1.5" opacity="0" />
  <line id="mol47:Bond:22" class="event" x1="97.41" y1="114.7" x2="101.21" y2="91.6" stroke-width="1.5" opacity="0" />
  <line id="mol47:Bond:23" class="event" x1="101.21" y1="91.6" x2="123.12" y2="83.35" stroke-width="1.5" opacity="0" />
  <line id="mol47:Bond:25" class="event" x1="123.12" y1="83.35" x2="126.92" y2="60.26" stroke-width="1.5" opacity="0" />
  <line id="mol47:Bond:26" class="event" x1="128.96" y1="165.32" x2="154.23" y2="182.3" stroke-width="1.5" opacity="0" />
  <line id="mol47:Bond:27" class="event" x1="154.23" y1="182.3" x2="153.18" y2="207.02" stroke-width="1.5" opacity="0" />
  <line id="mol47:Bond:28" class="event" x1="153.18" y1="207.02" x2="131.56" y2="216.41" stroke-width="1.5" opacity="0" />
  <line id="mol47:Bond:29" class="event" x1="105.89" y1="198.66" x2="131.56" y2="216.41" stroke-width="1.5" opacity="0" />
  <line id="mol47:Bond:30" class="event" x1="131.56" y1="216.41" x2="129.65" y2="239.74" stroke-width="1.5" opacity="0" />
  <circle id="mol47:Atom:0" class="event" cx="229.02" cy="151.99" r="8" opacity="0" />
  <circle id="mol47:Atom:1" class="event" cx="208.75" cy="163.69" r="8" opacity="0" />
  <circle id="mol47:Atom:2" class="event" cx="208.75" cy="187.09" r="8" opacity="0" />
  <circle id="mol47:Atom:3" class="event" cx="188.48" cy="151.99" r="8" opacity="0" />
  <circle id="mol47:Atom:4" class="event" cx="168.21" cy="163.69" r="8" opacity="0" />
  <circle id="mol47:Atom:5" class="event" cx="168.75" cy="187.09" r="8" opacity="0" />
  <circle id="mol47:Atom:6" class="event" cx="146.54" cy="198.33" r="8" opacity="0" />
  <circle id="mol47:Atom:7" class="event" cx="127.05" cy="188.65" r="8" opacity="0" />
  <circle id="mol47:Atom:8" class="event" cx="105.89" cy="198.66" r="8" opacity="0" />
  <circle id="mol47:Atom:9" class="event" cx="86.65" cy="185.34" r="8" opacity="0" />
  <circle id="mol47:Atom:10" class="event" cx="88.56" cy="162.01" r="8" opacity="0" />
  <circle id="mol47:Atom:11" class="event" cx="109.71" cy="152" r="8" opacity="0" />
  <circle id="mol47:Atom:12" class="event" cx="128.96" cy="165.32" r="8" opacity="0" />
  <circle id="mol47:Atom:13" class="event" cx="147.57" cy="151.13" r="8" opacity="0" />
  <circle id="mol47:Atom:14" class="event" cx="139.83" cy="129.04" r="8" opacity="0" />
  <circle id="mol47:Atom:15" class="event" cx="116.43" cy="129.58" r="8" opacity="0" />
  <circle id="mol47:Atom:16" class="event" cx="97.41" cy="114.7" r="8" opacity="0" />
  <circle id="mol47:Atom:17" class="event" cx="75.32" cy="122.44" r="8" opacity="0" />
  <circle id="mol47:Atom:18" class="event" cx="70.98" cy="145.44" r="8" opacity="0" />
  <circle id="mol47:Atom:19" class="event" cx="101.21" cy="91.6" r="8" opacity="0" />
  <circle id="mol47:Atom:20" class="event" cx="123.12" cy="83.35" r="8" opacity="0" />
  <circle id="mol47:Atom:21" class="event" cx="141.21" cy="98.2" r="8" opacity="0" />
  <circle id="mol47:Atom:22" class="event" cx="126.92" cy="60.26" r="8" opacity="0" />
  <circle id="mol47:Atom:23" class="event" cx="154.23" cy="182.3" r="8" opacity="0" />
  <circle id="mol47:Atom:24" class="event" cx="153.18" cy="207.02" r="8" opacity="0" />
  <circle id="mol47:Atom:25" class="event" cx="131.56" cy="216.41" r="8" opacity="0" />
  <circle id="mol47:Atom:26" class="event" cx="129.65" cy="239.74" r="8" opacity="0" />
</svg>