<svg id="mol48" xmlns="http://www.w3.org/2000/svg" version="1.1" width="312px" height="233px" viewBox="-6 33 312 233">
  <style> #mol48 text {font-family: sans-serif;} #mol48 { pointer-events:none; } #mol48 .event  { pointer-events:all; } #mol48 line { stroke-linecap:round; } #mol48 polygon { stroke-linejoin:round; } </style>
  <text x="119.24" y="275.95" stroke="none" font-size="9" fill="rgb(160,0,0)">this enantiomer</text>
  <text x="234.16" y="241.32" stroke="none" font-size="7" fill="rgb(160,0,0)">R</text>
  <text x="235.31" y="232.73" stroke="none" font-size="7" fill="rgb(160,0,0)">abs</text>
  <text x="247.61" y="206.73" stroke="none" font-size="7" fill="rgb(160,0,0)">S</text>
  <text x="243.78" y="198.75" stroke="none" font-size="7" fill="rgb(160,0,0)">abs</text>
  <text x="263.95" y="170.28" stroke="none" font-size="7" fill="rgb(160,0,0)">S</text>
  <text x="266.5" y="162.88" stroke="none" font-size="7" fill="rgb(160,0,0)">abs</text>
  <text x="205.15" y="68.45" stroke="none" font-size="7" fill="rgb(160,0,0)">S</text>
  <text x="208.61" y="62.35" stroke="none" font-size="7" fill="rgb(160,0,0)">abs</text>
  <text x="168.11" y="65.8" stroke="none" font-size="7" fill="rgb(160,0,0)">R</text>
  <text x="170.66" y="58.03" stroke="none" font-size="7" fill="rgb(160,0,0)">abs</text>
  <text x="144.45" y="50.46" stroke="none" font-size="11" fill="rgb(248,113,113)">O</text>
  <text x="133.72" y="78.78" stroke="none" font-size="7" fill="rgb(160,0,0)">R</text>
  <text x="134.4" y="70.05" stroke="none" font-size="7" fill="rgb(160,0,0)">abs</text>
  <text x="119.42" y="90.5" stroke="none" font-size="7" fill="rgb(160,0,0)">R</text>
  <text x="122.68" y="89.53" stroke="none" font-size="7" fill="rgb(160,0,0)">abs</text>
  <text x="95.6" y="139.62" stroke="none" font-size="7" fill="rgb(160,0,0)">R</text>
  <text x="99.87" y="136.24" stroke="none" font-size="7" fill="rgb(160,0,0)">abs</text>
  <text x="77.63" y="157.11" stroke="none" font-size="11" fill="rgb(248,113,113)">O</text>
  <text x="106.76" y="193.15" stroke="none" font-size="7" fill="rgb(160,0,0)">S</text>
  <text x="110.03" y="186.7" stroke="none" font-size="7" fill="rgb(160,0,0)">abs</text>
  <text x="118.07" y="205.4" stroke="none" font-size="11" fill="rgb(248,113,113)">O</text>
  <text x="121.29" y="232.73" stroke="none" font-size="11" fill="rgb(248,113,113)">O</text>
  <text x="147.72" y="229.24" stroke="none" font-size="7" fill="rgb(160,0,0)">S</text>
  <text x="148.65" y="220.72" stroke="none" font-size="7" fill="rgb(160,0,0)">abs</text>
  <text x="166.14" y="231.84" stroke="none" font-size="11" fill="rgb(129,140,248)">N</text>
  <text x="184.94" y="251.65" stroke="none" font-size="11" fill="rgb(248,113,113)">O</text>
  <text x="206.55" y="248.56" stroke="none" font-size="11" fill="rgb(248,113,113)">O</text>
  <text x="222.45" y="227.01" stroke="none" font-size="7" fill="rgb(160,0,0)">R</text>
  <text x="226.7" y="222.22" stroke="none" font-size="7" fill="rgb(160,0,0)">abs</text>
  <text x="229.76" y="207.05" stroke="none" font-size="11" fill="rgb(248,113,113)">O</text>
  <text x="217.81" y="242.02" stroke="none" font-size="11" fill="rgb(248,113,113)">O</text>
  <text x="209.87" y="242.02" stroke="none" font-size="11" fill="rgb(248,113,113)">H</text>
  <text x="90.36" y="202.39" stroke="none" font-size="7" fill="rgb(160,0,0)">R</text>
  <text x="89.78" y="193.49" stroke="none" font-size="7" fill="rgb(160,0,0)">abs</text>
  <text x="58.73" y="202.39" stroke="none" font-size="7" fill="rgb(160,0,0)">S</text>
  <text x="57.76" y="193.49" stroke="none" font-size="7" fill="rgb(160,0,0)">abs</text>
  <text x="26.32" y="220.88" stroke="none" font-size="7" fill="rgb(160,0,0)">R</text>
  <text x="29.98" y="214.43" stroke="none" font-size="7" fill="rgb(160,0,0)">abs</text>
  <text x="42.33" y="230.12" stroke="none" font-size="7" fill="rgb(160,0,0)">R</text>
  <text x="41.74" y="221.22" stroke="none" font-size="7" fill="rgb(160,0,0)">abs</text>
  <text x="43.11" y="245.94" stroke="none" font-size="11" fill="rgb(248,113,113)">O</text>
  <text x="11.09" y="227.45" stroke="none" font-size="11" fill="rgb(248,113,113)">O</text>
  <text x="3.15" y="227.45" stroke="none" font-size="11" fill="rgb(248,113,113)">H</text>
  <text x="105.68" y="76.38" stroke="none" font-size="11" fill="rgb(248,113,113)">O</text>
  <text x="97.74" y="76.38" stroke="none" font-size="11" fill="rgb(248,113,113)">H</text>
  <text x="124.4" y="60.63" stroke="none" font-size="11" fill="rgb(248,113,113)">O</text>
  <text x="282.68" y="169.95" stroke="none" font-size="11" fill="rgb(248,113,113)">O</text>
  <line x1="266.95" y1="145.54" x2="269.28" y2="127.2" stroke="rgb(228,226,242)" stroke-width="1.5" />
  <line x1="264.52" y1="142.57" x2="266.39" y2="127.79" stroke="rgb(228,226,242)" stroke-width="1.5" />
  <line x1="260.04" y1="111.19" x2="254.45" y2="93.57" stroke="rgb(228,226,242)" stroke-width="1.5" />
  <line x1="262.58" y1="109.99" x2="257.22" y2="93.08" stroke="rgb(228,226,242)" stroke-width="1.5" />
  <line x1="239.34" y1="82.92" x2="226.87" y2="69.27" stroke="rgb(228,226,242)" stroke-width="1.5" />
  <line x1="241.14" y1="80.76" x2="229.18" y2="67.66" stroke="rgb(228,226,242)" stroke-width="1.5" />
  <line x1="156.62" y1="63.74" x2="151.92" y2="51.3" stroke="rgb(228,226,242)" stroke-width="1.5" />
  <line x1="154.01" y1="64.72" x2="149.31" y2="52.28" stroke="rgb(228,226,242)" stroke-width="1.5" />
  <line x1="116.41" y1="100.8" x2="104.95" y2="115.31" stroke="rgb(228,226,242)" stroke-width="1.5" />
  <line x1="116.96" y1="104.59" x2="107.37" y2="116.74" stroke="rgb(228,226,242)" stroke-width="1.5" />
  <line x1="100.35" y1="150.37" x2="87.06" y2="151.58" stroke="rgb(228,226,242)" stroke-width="1.5" />
  <line x1="100.6" y1="153.15" x2="87.31" y2="154.35" stroke="rgb(228,226,242)" stroke-width="1.5" />
  <line x1="135.17" y1="213.02" x2="127.95" y2="223.26" stroke="rgb(228,226,242)" stroke-width="1.5" />
  <line x1="137.45" y1="214.63" x2="130.23" y2="224.86" stroke="rgb(228,226,242)" stroke-width="1.5" />
  <line x1="187.16" y1="229.4" x2="187.65" y2="243.03" stroke="rgb(228,226,242)" stroke-width="1.5" />
  <line x1="189.94" y1="229.3" x2="190.43" y2="242.93" stroke="rgb(228,226,242)" stroke-width="1.5" />
  <line x1="205.46" y1="227.04" x2="207.51" y2="236.29" stroke="rgb(228,226,242)" stroke-width="1.5" />
  <line x1="208.19" y1="226.44" x2="210.23" y2="235.69" stroke="rgb(228,226,242)" stroke-width="1.5" />
  <polygon points="239,235 235,243 237,244 " fill="rgb(160,0,0)" stroke="rgb(160,0,0)" stroke-width="1.5" />
  <polygon points="237,244 235,243 231,252 235,253 " fill="rgb(160,0,0)" stroke="rgb(160,0,0)" stroke-width="1.5" />
  <line x1="239.22" y1="234.98" x2="257.46" y2="231.99" stroke="rgb(228,226,242)" stroke-width="1.5" />
  <line x1="257.46" y1="231.99" x2="263.99" y2="214.7" stroke="rgb(228,226,242)" stroke-width="1.5" />
  <line x1="263.99" y1="214.7" x2="252.28" y2="200.39" stroke="rgb(228,226,242)" stroke-width="1.5" />
  <line x1="252.28" y1="200.39" x2="262.4" y2="181.36" stroke="rgb(228,226,242)" stroke-width="1.5" />
  <line x1="262.4" y1="181.36" x2="268.62" y2="163.95" stroke="rgb(228,226,242)" stroke-width="1.5" />
  <line x1="268.62" y1="163.95" x2="266.95" y2="145.54" stroke="rgb(228,226,242)" stroke-width="1.5" />
  <line x1="269.28" y1="127.2" x2="260.04" y2="111.19" stroke="rgb(228,226,242)" stroke-width="1.5" />
  <line x1="254.45" y1="93.57" x2="239.34" y2="82.92" stroke="rgb(228,226,242)" stroke-width="1.5" />
  <line x1="226.87" y1="69.27" x2="209.82" y2="62.12" stroke="rgb(228,226,242)" stroke-width="1.5" />
  <line x1="209.82" y1="62.12" x2="191.64" y2="58.8" stroke="rgb(228,226,242)" stroke-width="1.5" />
  <line x1="191.64" y1="58.8" x2="173.16" y2="59.46" stroke="rgb(228,226,242)" stroke-width="1.5" />
  <line x1="173.16" y1="59.46" x2="155.26" y2="64.09" stroke="rgb(228,226,242)" stroke-width="1.5" />
  <line x1="155.26" y1="64.09" x2="138.77" y2="72.45" stroke="rgb(228,226,242)" stroke-width="1.5" />
  <line x1="138.77" y1="72.45" x2="124.47" y2="84.16" stroke="rgb(228,226,242)" stroke-width="1.5" />
  <line x1="124.47" y1="84.16" x2="116.41" y2="100.8" stroke="rgb(228,226,242)" stroke-width="1.5" />
  <line x1="104.95" y1="115.31" x2="100.66" y2="133.29" stroke="rgb(228,226,242)" stroke-width="1.5" />
  <line x1="100.66" y1="133.29" x2="100.32" y2="151.77" stroke="rgb(228,226,242)" stroke-width="1.5" />
  <line x1="100.32" y1="151.77" x2="103.97" y2="169.9" stroke="rgb(228,226,242)" stroke-width="1.5" />
  <line x1="103.97" y1="169.9" x2="111.43" y2="186.81" stroke="rgb(228,226,242)" stroke-width="1.5" />
  <line x1="112.48" y1="188.74" x2="112.95" y2="188.4" stroke="rgb(160,0,0)" stroke-width="1.5" />
  <line x1="113.53" y1="190.66" x2="114.46" y2="189.98" stroke="rgb(160,0,0)" stroke-width="1.5" />
  <line x1="114.58" y1="192.59" x2="115.98" y2="191.57" stroke="rgb(160,0,0)" stroke-width="1.5" />
  <line x1="115.63" y1="194.52" x2="117.5" y2="193.15" stroke="rgb(160,0,0)" stroke-width="1.5" />
  <line x1="116.69" y1="196.44" x2="119.02" y2="194.73" stroke="rgb(160,0,0)" stroke-width="1.5" />
  <line x1="119.97" y1="196.73" x2="120.53" y2="196.32" stroke="rgb(160,0,0)" stroke-width="1.5" />
  <line x1="127.63" y1="206.38" x2="136.22" y2="213.95" stroke="rgb(228,226,242)" stroke-width="1.5" />
  <line x1="136.22" y1="213.95" x2="152.39" y2="222.9" stroke="rgb(228,226,242)" stroke-width="1.5" />
  <line x1="152.39" y1="222.9" x2="138.97" y2="235.62" stroke="rgb(228,226,242)" stroke-width="1.5" />
  <line x1="138.97" y1="235.62" x2="143.27" y2="253.6" stroke="rgb(228,226,242)" stroke-width="1.5" />
  <line x1="143.27" y1="253.6" x2="160.99" y2="258.86" stroke="rgb(228,226,242)" stroke-width="1.5" />
  <line x1="160.99" y1="258.86" x2="174.41" y2="246.15" stroke="rgb(228,226,242)" stroke-width="1.5" />
  <line x1="174.41" y1="246.15" x2="171.31" y2="233.17" stroke="rgb(228,226,242)" stroke-width="1.5" />
  <polygon points="152,223 159,226 159,224 " fill="rgb(160,0,0)" stroke="rgb(160,0,0)" stroke-width="1.5" />
  <polygon points="159,224 159,226 165,228 166,225 " fill="rgb(160,0,0)" stroke="rgb(160,0,0)" stroke-width="1.5" />
  <line x1="175.09" y1="228.53" x2="188.55" y2="229.5" stroke="rgb(228,226,242)" stroke-width="1.5" />
  <line x1="188.55" y1="229.5" x2="206.85" y2="226.84" stroke="rgb(228,226,242)" stroke-width="1.5" />
  <line x1="206.85" y1="226.84" x2="227.5" y2="220.68" stroke="rgb(228,226,242)" stroke-width="1.5" />
  <line x1="239.22" y1="234.98" x2="227.5" y2="220.68" stroke="rgb(228,226,242)" stroke-width="1.5" />
  <line x1="227.5" y1="220.68" x2="232.15" y2="208.38" stroke="rgb(228,226,242)" stroke-width="1.5" />
  <line x1="250.09" y1="200.46" x2="250.18" y2="201.03" stroke="rgb(160,0,0)" stroke-width="1.5" />
  <line x1="247.89" y1="200.53" x2="248.08" y2="201.67" stroke="rgb(160,0,0)" stroke-width="1.5" />
  <line x1="245.7" y1="200.59" x2="245.98" y2="202.3" stroke="rgb(160,0,0)" stroke-width="1.5" />
  <line x1="243.51" y1="200.66" x2="243.88" y2="202.94" stroke="rgb(160,0,0)" stroke-width="1.5" />
  <line x1="241.31" y1="200.73" x2="241.78" y2="203.58" stroke="rgb(160,0,0)" stroke-width="1.5" />
  <line x1="239.31" y1="201.98" x2="239.68" y2="204.22" stroke="rgb(160,0,0)" stroke-width="1.5" />
  <polygon points="228,221 225,227 226,227 " fill="rgb(160,0,0)" stroke="rgb(160,0,0)" stroke-width="1.5" />
  <polygon points="226,227 225,227 222,233 225,234 " fill="rgb(160,0,0)" stroke="rgb(160,0,0)" stroke-width="1.5" />
  <line x1="111.43" y1="186.81" x2="95.42" y2="196.06" stroke="rgb(228,226,242)" stroke-width="1.5" />
  <line x1="95.13" y1="198.23" x2="95.71" y2="198.23" stroke="rgb(160,0,0)" stroke-width="1.5" />
  <line x1="94.84" y1="200.41" x2="95.99" y2="200.41" stroke="rgb(160,0,0)" stroke-width="1.5" />
  <line x1="94.55" y1="202.58" x2="96.28" y2="202.58" stroke="rgb(160,0,0)" stroke-width="1.5" />
  <line x1="94.26" y1="204.76" x2="96.57" y2="204.76" stroke="rgb(160,0,0)" stroke-width="1.5" />
  <line x1="93.97" y1="206.93" x2="96.86" y2="206.93" stroke="rgb(160,0,0)" stroke-width="1.5" />
  <line x1="93.68" y1="209.11" x2="97.15" y2="209.11" stroke="rgb(160,0,0)" stroke-width="1.5" />
  <line x1="93.4" y1="211.28" x2="97.44" y2="211.28" stroke="rgb(160,0,0)" stroke-width="1.5" />
  <line x1="93.11" y1="213.46" x2="97.73" y2="213.46" stroke="rgb(160,0,0)" stroke-width="1.5" />
  <line x1="95.42" y1="196.06" x2="79.41" y2="186.81" stroke="rgb(228,226,242)" stroke-width="1.5" />
  <polygon points="63,196 72,192 71,191 " fill="rgb(160,0,0)" stroke="rgb(160,0,0)" stroke-width="1.5" />
  <polygon points="71,191 72,192 80,189 78,185 " fill="rgb(160,0,0)" stroke="rgb(160,0,0)" stroke-width="1.5" />
  <line x1="63.4" y1="196.06" x2="47.39" y2="186.81" stroke="rgb(228,226,242)" stroke-width="1.5" />
  <line x1="47.39" y1="186.81" x2="31.38" y2="196.06" stroke="rgb(228,226,242)" stroke-width="1.5" />
  <line x1="31.38" y1="196.06" x2="31.38" y2="214.54" stroke="rgb(228,226,242)" stroke-width="1.5" />
  <line x1="31.38" y1="214.54" x2="47.39" y2="223.79" stroke="rgb(228,226,242)" stroke-width="1.5" />
  <line x1="47.39" y1="223.79" x2="63.4" y2="214.54" stroke="rgb(228,226,242)" stroke-width="1.5" />
  <line x1="63.4" y1="196.06" x2="63.4" y2="214.54" stroke="rgb(228,226,242)" stroke-width="1.5" />
  <polygon points="47,224 47,231 48,231 " fill="rgb(160,0,0)" stroke="rgb(160,0,0)" stroke-width="1.5" />
  <polygon points="48,231 47,231 46,237 49,237 " fill="rgb(160,0,0)" stroke="rgb(160,0,0)" stroke-width="1.5" />
  <line x1="52.67" y1="245.32" x2="63.4" y2="251.52" stroke="rgb(228,226,242)" stroke-width="1.5" />
  <line x1="29.35" y1="215.38" x2="29.64" y2="215.88" stroke="rgb(160,0,0)" stroke-width="1.5" />
  <line x1="27.32" y1="216.22" x2="27.9" y2="217.22" stroke="rgb(160,0,0)" stroke-width="1.5" />
  <line x1="25.29" y1="217.06" x2="26.16" y2="218.56" stroke="rgb(160,0,0)" stroke-width="1.5" />
  <line x1="23.27" y1="217.89" x2="24.42" y2="219.89" stroke="rgb(160,0,0)" stroke-width="1.5" />
  <line x1="21.24" y1="218.73" x2="22.68" y2="221.23" stroke="rgb(160,0,0)" stroke-width="1.5" />
  <line x1="20.65" y1="222.06" x2="20.94" y2="222.57" stroke="rgb(160,0,0)" stroke-width="1.5" />
  <line x1="98.53" y1="132.73" x2="98.46" y2="133.3" stroke="rgb(160,0,0)" stroke-width="1.5" />
  <line x1="96.41" y1="132.17" x2="96.27" y2="133.31" stroke="rgb(160,0,0)" stroke-width="1.5" />
  <line x1="94.29" y1="131.61" x2="94.07" y2="133.33" stroke="rgb(160,0,0)" stroke-width="1.5" />
  <line x1="92.17" y1="131.05" x2="91.88" y2="133.34" stroke="rgb(160,0,0)" stroke-width="1.5" />
  <line x1="90.05" y1="130.49" x2="89.69" y2="133.35" stroke="rgb(160,0,0)" stroke-width="1.5" />
  <line x1="87.93" y1="129.93" x2="87.49" y2="133.36" stroke="rgb(160,0,0)" stroke-width="1.5" />
  <line x1="85.81" y1="129.37" x2="85.3" y2="133.38" stroke="rgb(160,0,0)" stroke-width="1.5" />
  <line x1="83.69" y1="128.8" x2="83.1" y2="133.39" stroke="rgb(160,0,0)" stroke-width="1.5" />
  <line x1="116.41" y1="100.8" x2="132.07" y2="110.61" stroke="rgb(228,226,242)" stroke-width="1.5" />
  <polygon points="124,84 120,80 119,81 " fill="rgb(160,0,0)" stroke="rgb(160,0,0)" stroke-width="1.5" />
  <polygon points="119,81 120,80 116,76 114,78 " fill="rgb(160,0,0)" stroke="rgb(160,0,0)" stroke-width="1.5" />
  <polygon points="139,72 136,67 135,68 " fill="rgb(160,0,0)" stroke="rgb(160,0,0)" stroke-width="1.5" />
  <polygon points="135,68 136,67 133,61 131,63 " fill="rgb(160,0,0)" stroke="rgb(160,0,0)" stroke-width="1.5" />
  <line x1="123.4" y1="57.25" x2="110.22" y2="57.96" stroke="rgb(228,226,242)" stroke-width="1.5" />
  <line x1="173.13" y1="57.27" x2="172.56" y2="57.35" stroke="rgb(160,0,0)" stroke-width="1.5" />
  <line x1="173.11" y1="55.08" x2="171.96" y2="55.24" stroke="rgb(160,0,0)" stroke-width="1.5" />
  <line x1="173.08" y1="52.88" x2="171.36" y2="53.13" stroke="rgb(160,0,0)" stroke-width="1.5" />
  <line x1="173.05" y1="50.69" x2="170.76" y2="51.02" stroke="rgb(160,0,0)" stroke-width="1.5" />
  <line x1="173.02" y1="48.49" x2="170.17" y2="48.91" stroke="rgb(160,0,0)" stroke-width="1.5" />
  <line x1="173" y1="46.3" x2="169.57" y2="46.8" stroke="rgb(160,0,0)" stroke-width="1.5" />
  <line x1="172.97" y1="44.11" x2="168.97" y2="44.69" stroke="rgb(160,0,0)" stroke-width="1.5" />
  <line x1="172.94" y1="41.91" x2="168.37" y2="42.58" stroke="rgb(160,0,0)" stroke-width="1.5" />
  <line x1="210.72" y1="60.11" x2="210.16" y2="59.95" stroke="rgb(160,0,0)" stroke-width="1.5" />
  <line x1="211.61" y1="58.11" x2="210.51" y2="57.78" stroke="rgb(160,0,0)" stroke-width="1.5" />
  <line x1="212.51" y1="56.11" x2="210.85" y2="55.61" stroke="rgb(160,0,0)" stroke-width="1.5" />
  <line x1="213.41" y1="54.11" x2="211.19" y2="53.45" stroke="rgb(160,0,0)" stroke-width="1.5" />
  <line x1="214.3" y1="52.1" x2="211.54" y2="51.28" stroke="rgb(160,0,0)" stroke-width="1.5" />
  <line x1="215.2" y1="50.1" x2="211.88" y2="49.11" stroke="rgb(160,0,0)" stroke-width="1.5" />
  <line x1="216.1" y1="48.1" x2="212.22" y2="46.95" stroke="rgb(160,0,0)" stroke-width="1.5" />
  <line x1="216.99" y1="46.1" x2="212.56" y2="44.78" stroke="rgb(160,0,0)" stroke-width="1.5" />
  <line x1="266.95" y1="145.54" x2="248.46" y2="145.2" stroke="rgb(228,226,242)" stroke-width="1.5" />
  <polygon points="269,164 275,166 275,164 " fill="rgb(160,0,0)" stroke="rgb(160,0,0)" stroke-width="1.5" />
  <polygon points="275,164 275,166 281,167 282,164 " fill="rgb(160,0,0)" stroke="rgb(160,0,0)" stroke-width="1.5" />
  <line x1="290.76" y1="161.28" x2="298.14" y2="151.56" stroke="rgb(228,226,242)" stroke-width="1.5" />
  <text x="271.89" y="139.48" stroke="none" font-size="7" fill="rgb(160,0,0)">E</text>
  <text x="260.78" y="102.85" stroke="none" font-size="7" fill="rgb(160,0,0)">E</text>
  <text x="235.32" y="74.27" stroke="none" font-size="7" fill="rgb(160,0,0)">E</text>
  <text x="103.51" y="106.57" stroke="none" font-size="7" fill="rgb(160,0,0)">E</text>
  <line id="mol48:Bond:7" class="event" x1="266.95" y1="145.54" x2="269.28" y2="127.2" stroke-width="1.5" opacity="0" />
  <line id="mol48:Bond:9" class="event" x1="260.04" y1="111.19" x2="254.45" y2="93.57" stroke-width="1.5" opacity="0" />
  <line id="mol48:Bond:11" class="event" x1="239.34" y1="82.92" x2="226.87" y2="69.27" stroke-width="1.5" opacity="0" />
  <line id="mol48:Bond:16" class="event" x1="155.26" y1="64.09" x2="148.73" y2="46.79" stroke-width="1.5" opacity="0" />
  <line id="mol48:Bond:20" class="event" x1="116.41" y1="100.8" x2="104.95" y2="115.31" stroke-width="1.5" opacity="0" />
  <line id="mol48:Bond:23" class="event" x1="100.32" y1="151.77" x2="81.91" y2="153.44" stroke-width="1.5" opacity="0" />
  <line id="mol48:Bond:28" class="event" x1="136.22" y1="213.95" x2="125.57" y2="229.06" stroke-width="1.5" opacity="0" />
  <line id="mol48:Bond:37" class="event" x1="188.55" y1="229.5" x2="189.22" y2="247.98" stroke-width="1.5" opacity="0" />
  <line id="mol48:Bond:39" class="event" x1="206.85" y1="226.84" x2="210.83" y2="244.9" stroke-width="1.5" opacity="0" />
  <line id="mol48:Bond:0" class="event" x1="239.22" y1="234.98" x2="232.68" y2="252.28" stroke-width="1.5" opacity="0" />
  <line id="mol48:Bond:1" class="event" x1="239.22" y1="234.98" x2="257.46" y2="231.99" stroke-width="1.5" opacity="0" />
  <line id="mol48:Bond:2" class="event" x1="257.46" y1="231.99" x2="263.99" y2="214.7" stroke-width="1.5" opacity="0" />
  <line id="mol48:Bond:3" class="event" x1="263.99" y1="214.7" x2="252.28" y2="200.39" stroke-width="1.5" opacity="0" />
  <line id="mol48:Bond:4" class="event" x1="252.28" y1="200.39" x2="262.4" y2="181.36" stroke-width="1.5" opacity="0" />
  <line id="mol48:Bond:5" class="event" x1="262.4" y1="181.36" x2="268.62" y2="163.95" stroke-width="1.5" opacity="0" />
  <line id="mol48:Bond:6" class="event" x1="268.62" y1="163.95" x2="266.95" y2="145.54" stroke-width="1.5" opacity="0" />
  <line id="mol48:Bond:8" class="event" x1="269.28" y1="127.2" x2="260.04" y2="111.19" stroke-width="1.5" opacity="0" />
  <line id="mol48:Bond:10" class="event" x1="254.45" y1="93.57" x2="239.34" y2="82.92" stroke-width="1.5" opacity="0" />
  <line id="mol48:Bond:12" class="event" x1="226.87" y1="69.27" x2="209.82" y2="62.12" stroke-width="1.5" opacity="0" />
  <line id="mol48:Bond:13" class="event" x1="209.82" y1="62.12" x2="191.64" y2="58.8" stroke-width="1.5" opacity="0" />
  <line id="mol48:Bond:14" class="event" x1="191.64" y1="58.8" x2="173.16" y2="59.46" stroke-width="1.5" opacity="0" />
  <line id="mol48:Bond:15" class="event" x1="173.16" y1="59.46" x2="155.26" y2="64.09" stroke-width="1.5" opacity="0" />
  <line id="mol48:Bond:17" class="event" x1="155.26" y1="64.09" x2="138.77" y2="72.45" stroke-width="1.5" opacity="0" />
  <line id="mol48:Bond:18" class="event" x1="138.77" y1="72.45" x2="124.47" y2="84.16" stroke-width="1.5" opacity="0" />
  <line id="mol48:Bond:19" class="event" x1="124.47" y1="84.16" x2="116.41" y2="100.8" stroke-width="1.5" opacity="0" />
  <line id="mol48:Bond:21" class="event" x1="104.95" y1="115.31" x2="100.66" y2="133.29" stroke-width="1.5" opacity="0" />
  <line id="mol48:Bond:22" class="event" x1="100.66" y1="133.29" x2="100.32" y2="151.77" stroke-width="1.5" opacity="0" />
  <line id="mol48:Bond:24" class="event" x1="100.32" y1="151.77" x2="103.97" y2="169.9" stroke-width="1.5" opacity="0" />
  <line id="mol48:Bond:25" class="event" x1="103.97" y1="169.9" x2="111.43" y2="186.81" stroke-width="1.5" opacity="0" />
  <line id="mol48:Bond:26" class="event" x1="111.43" y1="186.81" x2="122.35" y2="201.73" stroke-width="1.5" opacity="0" />
  <line id="mol48:Bond:27" class="event" x1="122.35" y1="201.73" x2="136.22" y2="213.95" stroke-width="1.5" opacity="0" />
  <line id="mol48:Bond:29" class="event" x1="136.22" y1="213.95" x2="152.39" y2="222.9" stroke-width="1.5" opacity="0" />
  <line id="mol48:Bond:30" class="event" x1="152.39" y1="222.9" x2="138.97" y2="235.62" stroke-width="1.5" opacity="0" />
  <line id="mol48:Bond:31" class="event" x1="138.97" y1="235.62" x2="143.27" y2="253.6" stroke-width="1.5" opacity="0" />
  <line id="mol48:Bond:32" class="event" x1="143.27" y1="253.6" x2="160.99" y2="258.86" stroke-width="1.5" opacity="0" />
  <line id="mol48:Bond:33" class="event" x1="160.99" y1="258.86" x2="174.41" y2="246.15" stroke-width="1.5" opacity="0" />
  <line id="mol48:Bond:34" class="event" x1="174.41" y1="246.15" x2="170.11" y2="228.17" stroke-width="1.5" opacity="0" />
  <line id="mol48:Bond:35" class="event" x1="152.39" y1="222.9" x2="170.11" y2="228.17" stroke-width="1.5" opacity="0" />
  <line id="mol48:Bond:36" class="event" x1="170.11" y1="228.17" x2="188.55" y2="229.5" stroke-width="1.5" opacity="0" />
  <line id="mol48:Bond:38" class="event" x1="188.55" y1="229.5" x2="206.85" y2="226.84" stroke-width="1.5" opacity="0" />
  <line id="mol48:Bond:40" class="event" x1="206.85" y1="226.84" x2="227.5" y2="220.68" stroke-width="1.5" opacity="0" />
  <line id="mol48:Bond:41" class="event" x1="239.22" y1="234.98" x2="227.5" y2="220.68" stroke-width="1.5" opacity="0" />
  <line id="mol48:Bond:42" class="event" x1="227.5" y1="220.68" x2="234.04" y2="203.38" stroke-width="1.5" opacity="0" />
  <line id="mol48:Bond:43" class="event" x1="252.28" y1="200.39" x2="234.04" y2="203.38" stroke-width="1.5" opacity="0" />
  <line id="mol48:Bond:44" class="event" x1="227.5" y1="220.68" x2="222.09" y2="238.35" stroke-width="1.5" opacity="0" />
  <line id="mol48:Bond:45" class="event" x1="111.43" y1="186.81" x2="95.42" y2="196.06" stroke-width="1.5" opacity="0" />
  <line id="mol48:Bond:46" class="event" x1="95.42" y1="196.06" x2="95.42" y2="214.54" stroke-width="1.5" opacity="0" />
  <line id="mol48:Bond:47" class="event" x1="95.42" y1="196.06" x2="79.41" y2="186.81" stroke-width="1.5" opacity="0" />
  <line id="mol48:Bond:48" class="event" x1="63.4" y1="196.06" x2="79.41" y2="186.81" stroke-width="1.5" opacity="0" />
  <line id="mol48:Bond:49" class="event" x1="63.4" y1="196.06" x2="47.39" y2="186.81" stroke-width="1.5" opacity="0" />
  <line id="mol48:Bond:50" class="event" x1="47.39" y1="186.81" x2="31.38" y2="196.06" stroke-width="1.5" opacity="0" />
  <line id="mol48:Bond:51" class="event" x1="31.38" y1="196.06" x2="31.38" y2="214.54" stroke-width="1.5" opacity="0" />
  <line id="mol48:Bond:52" class="event" x1="31.38" y1="214.54" x2="47.39" y2="223.79" stroke-width="1.5" opacity="0" />
  <line id="mol48:Bond:53" class="event" x1="47.39" y1="223.79" x2="63.4" y2="214.54" stroke-width="1.5" opacity="0" />
  <line id="mol48:Bond:54" class="event" x1="63.4" y1="196.06" x2="63.4" y2="214.54" stroke-width="1.5" opacity="0" />
  <line id="mol48:Bond:55" class="event" x1="47.39" y1="223.79" x2="47.39" y2="242.27" stroke-width="1.5" opacity="0" />
  <line id="mol48:Bond:56" class="event" x1="47.39" y1="242.27" x2="63.4" y2="251.52" stroke-width="1.5" opacity="0" />
  <line id="mol48:Bond:57" class="event" x1="31.38" y1="214.54" x2="15.37" y2="223.79" stroke-width="1.5" opacity="0" />
  <line id="mol48:Bond:58" class="event" x1="100.66" y1="133.29" x2="82.32" y2="130.96" stroke-width="1.5" opacity="0" />
  <line id="mol48:Bond:59" class="event" x1="116.41" y1="100.8" x2="132.07" y2="110.61" stroke-width="1.5" opacity="0" />
  <line id="mol48:Bond:60" class="event" x1="124.47" y1="84.16" x2="109.96" y2="72.71" stroke-width="1.5" opacity="0" />
  <line id="mol48:Bond:61" class="event" x1="138.77" y1="72.45" x2="128.68" y2="56.96" stroke-width="1.5" opacity="0" />
  <line id="mol48:Bond:62" class="event" x1="128.68" y1="56.96" x2="110.22" y2="57.96" stroke-width="1.5" opacity="0" />
  <line id="mol48:Bond:63" class="event" x1="173.16" y1="59.46" x2="170.5" y2="41.17" stroke-width="1.5" opacity="0" />
  <line id="mol48:Bond:64" class="event" x1="209.82" y1="62.12" x2="215.09" y2="44.4" stroke-width="1.5" opacity="0" />
  <line id="mol48:Bond:65" class="event" x1="266.95" y1="145.54" x2="248.46" y2="145.2" stroke-width="1.5" opacity="0" />
  <line id="mol48:Bond:66" class="event" x1="268.62" y1="163.95" x2="286.95" y2="166.28" stroke-width="1.5" opacity="0" />
  <line id="mol48:Bond:67" class="event" x1="286.95" y1="166.28" x2="298.14" y2="151.56" stroke-width="1.5" opacity="0" />
  <circle id="mol48:Atom:0" class="event" cx="232.68" cy="252.28" r="8" opacity="0" />
  <circle id="mol48:Atom:1" class="event" cx="239.22" cy="234.98" r="8" opacity="0" />
  <circle id="mol48:Atom:2" class="event" cx="257.46" cy="231.99" r="8" opacity="0" />
  <circle id="mol48:Atom:3" class="event" cx="263.99" cy="214.7" r="8" opacity="0" />
  <circle id="mol48:Atom:4" class="event" cx="252.28" cy="200.39" r="8" opacity="0" />
  <circle id="mol48:Atom:5" class="event" cx="262.4" cy="181.36" r="8" opacity="0" />
  <circle id="mol48:Atom:6" class="event" cx="268.62" cy="163.95" r="8" opacity="0" />
  <circle id="mol48:Atom:7" class="event" cx="266.95" cy="145.54" r="8" opacity="0" />
  <circle id="mol48:Atom:8" class="event" cx="269.28" cy="127.2" r="8" opacity="0" />
  <circle id="mol48:Atom:9" class="event" cx="260.04" cy="111.19" r="8" opacity="0" />
  <circle id="mol48:Atom:10" class="event" cx="254.45" cy="93.57" r="8" opacity="0" />
  <circle id="mol48:Atom:11" class="event" cx="239.34" cy="82.92" r="8" opacity="0" />
  <circle id="mol48:Atom:12" class="event" cx="226.87" cy="69.27" r="8" opacity="0" />
  <circle id="mol48:Atom:13" class="event" cx="209.82" cy="62.12" r="8" opacity="0" />
  <circle id="mol48:Atom:14" class="event" cx="191.64" cy="58.8" r="8" opacity="0" />
  <circle id="mol48:Atom:15" class="event" cx="173.16" cy="59.46" r="8" opacity="0" />
  <circle id="mol48:Atom:16" class="event" cx="155.26" cy="64.09" r="8" opacity="0" />
  <circle id="mol48:Atom:17" class="event" cx="148.73" cy="46.79" r="8" opacity="0" />
  <circle id="mol48:Atom:18" class="event" cx="138.77" cy="72.45" r="8" opacity="0" />
  <circle id="mol48:Atom:19" class="event" cx="124.47" cy="84.16" r="8" opacity="0" />
  <circle id="mol48:Atom:20" class="event" cx="116.41" cy="100.8" r="8" opacity="0" />
  <circle id="mol48:Atom:21" class="event" cx="104.95" cy="115.31" r="8" opacity="0" />
  <circle id="mol48:Atom:22" class="event" cx="100.66" cy="133.29" r="8" opacity="0" />
  <circle id="mol48:Atom:23" class="event" cx="100.32" cy="151.77" r="8" opacity="0" />
  <circle id="mol48:Atom:24" class="event" cx="81.91" cy="153.44" r="8" opacity="0" />
  <circle id="mol48:Atom:25" class="event" cx="103.97" cy="169.9" r="8" opacity="0" />
  <circle id="mol48:Atom:26" class="event" cx="111.43" cy="186.81" r="8" opacity="0" />
  <circle id="mol48:Atom:27" class="event" cx="122.35" cy="201.73" r="8" opacity="0" />
  <circle id="mol48:Atom:28" class="event" cx="136.22" cy="213.95" r="8" opacity="0" />
  <circle id="mol48:Atom:29" class="event" cx="125.57" cy="229.06" r="8" opacity="0" />
  <circle id="mol48:Atom:30" class="event" cx="152.39" cy="222.9" r="8" opacity="0" />
  <circle id="mol48:Atom:31" class="event" cx="138.97" cy="235.62" r="8" opacity="0" />
  <circle id="mol48:Atom:32" class="event" cx="143.27" cy="253.6" r="8" opacity="0" />
  <circle id="mol48:Atom:33" class="event" cx="160.99" cy="258.86" r="8" opacity="0" />
  <circle id="mol48:Atom:34" class="event" cx="174.41" cy="246.15" r="8" opacity="0" />
  <circle id="mol48:Atom:35" class="event" cx="170.11" cy="228.17" r="8" opacity="0" />
  <circle id="mol48:Atom:36" class="event" cx="188.55" cy="229.5" r="8" opacity="0" />
  <circle id="mol48:Atom:37" class="event" cx="189.22" cy="247.98" r="8" opacity="0" />
  <circle id="mol48:Atom:38" class="event" cx="206.85" cy="226.84" r="8" opacity="0" />
  <circle id="mol48:Atom:39" class="event" cx="210.83" cy="244.9" r="8" opacity="0" />
  <circle id="mol48:Atom:40" class="event" cx="227.5" cy="220.68" r="8" opacity="0" />
  <circle id="mol48:Atom:41" class="event" cx="234.04" cy="203.38" r="8" opacity="0" />
  <circle id="mol48:Atom:42" class="event" cx="222.09" cy="238.35" r="8" opacity="0" />
  <circle id="mol48:Atom:43" class="event" cx="95.42" cy="196.06" r="8" opacity="0" />
  <circle id="mol48:Atom:44" class="event" cx="95.42" cy="214.54" r="8" opacity="0" />
  <circle id="mol48:Atom:45" class="event" cx="79.41" cy="186.81" r="8" opacity="0" />
  <circle id="mol48:Atom:46" class="event" cx="63.4" cy="196.06" r="8" opacity="0" />
  <circle id="mol48:Atom:47" class="event" cx="47.39" cy="186.81" r="8" opacity="0" />
  <circle id="mol48:Atom:48" class="event" cx="31.38" cy="196.06" r="8" opacity="0" />
  <circle id="mol48:Atom:49" class="event" cx="31.38" cy="214.54" r="8" opacity="0" />
  <circle id="mol48:Atom:50" class="event" cx="47.39" cy="223.79" r="8" opacity="0" />
  <circle id="mol48:Atom:51" class="event" cx="63.4" cy="214.54" r="8" opacity="0" />
  <circle id="mol48:Atom:52" class="event" cx="47.39" cy="242.27" r="8" opacity="0" />
  <circle id="mol48:Atom:53" class="event" cx="63.4" cy="251.52" r="8" opacity="0" />
  <circle id="mol48:Atom:54" class="event" cx="15.37" cy="223.79" r="8" opacity="0" />
  <circle id="mol48:Atom:55" class="event" cx="82.32" cy="130.96" r="8" opacity="0" />
  <circle id="mol48:Atom:56" class="event" cx="132.07" cy="110.61" r="8" opacity="0" />
  <circle id="mol48:Atom:57" class="event" cx="109.96" cy="72.71" r="8" opacity="0" />
  <circle id="mol48:Atom:58" class="event" cx="128.68" cy="56.96" r="8" opacity="0" />
  <circle id="mol48:Atom:59" class="event" cx="110.22" cy="57.96" r="8" opacity="0" />
  <circle id="mol48:Atom:60" class="event" cx="170.5" cy="41.17" r="8" opacity="0" />
  <circle id="mol48:Atom:61" class="event" cx="215.09" cy="44.4" r="8" opacity="0" />
  <circle id="mol48:Atom:62" class="event" cx="248.46" cy="145.2" r="8" opacity="0" />
  <circle id="mol48:Atom:63" class="event" cx="286.95" cy="166.28" r="8" opacity="0" />
  <circle id="mol48:Atom:64" class="event" cx="298.14" cy="151.56" r="8" opacity="0" />
</svg>