<svg id="mol48" xmlns="http://www.w3.org/2000/svg" version="1.1" width="122px" height="114px" viewBox="89 93 122 114">
  <style> #mol48 text {font-family: sans-serif;} #mol48 { pointer-events:none; } #mol48 .event  { pointer-events:all; } #mol48 line { stroke-linecap:round; } #mol48 polygon { stroke-linejoin:round; } </style>
  <text x="155.5" y="166.85" stroke="none" font-size="14" fill="rgb(129,140,248)">N</text>
  <line x1="160.55" y1="137.81" x2="182.66" y2="143.99" stroke="rgb(228,226,242)" stroke-width="1.5" />
  <line x1="164.51" y1="135.18" x2="182.87" y2="140.31" stroke="rgb(228,226,242)" stroke-width="1.5" />
  <line x1="202.77" y1="137.81" x2="202.77" y2="113.44" stroke="rgb(228,226,242)" stroke-width="1.5" />
  <line x1="199.17" y1="134.77" x2="199.17" y2="116" stroke="rgb(228,226,242)" stroke-width="1.5" />
  <line x1="181.66" y1="101.25" x2="160.55" y2="113.44" stroke="rgb(228,226,242)" stroke-width="1.5" />
  <line x1="181.24" y1="105.65" x2="164.57" y2="115.28" stroke="rgb(228,226,242)" stroke-width="1.5" />
  <line x1="97.23" y1="174.37" x2="118.34" y2="186.56" stroke="rgb(228,226,242)" stroke-width="1.5" />
  <line x1="118.34" y1="186.56" x2="139.45" y2="174.37" stroke="rgb(228,226,242)" stroke-width="1.5" />
  <line x1="139.45" y1="174.37" x2="139.45" y2="150" stroke="rgb(228,226,242)" stroke-width="1.5" />
  <line x1="139.45" y1="150" x2="118.34" y2="137.81" stroke="rgb(228,226,242)" stroke-width="1.5" />
  <line x1="118.34" y1="137.81" x2="97.23" y2="150" stroke="rgb(228,226,242)" stroke-width="1.5" />
  <line x1="97.23" y1="174.37" x2="97.23" y2="150" stroke="rgb(228,226,242)" stroke-width="1.5" />
  <line x1="139.45" y1="150" x2="160.55" y2="137.81" stroke="rgb(228,226,242)" stroke-width="1.5" />
  <line x1="182.66" y1="143.99" x2="202.77" y2="137.81" stroke="rgb(228,226,242)" stroke-width="1.5" />
  <line x1="202.77" y1="113.44" x2="181.66" y2="101.25" stroke="rgb(228,226,242)" stroke-width="1.5" />
  <line x1="160.55" y1="137.81" x2="160.55" y2="113.44" stroke="rgb(228,226,242)" stroke-width="1.5" />
  <line x1="139.45" y1="150" x2="154.5" y2="158.69" stroke="rgb(228,226,242)" stroke-width="1.5" />
  <line x1="160.55" y1="169.19" x2="160.55" y2="186.56" stroke="rgb(228,226,242)" stroke-width="1.5" />
  <line x1="160.55" y1="186.56" x2="181.66" y2="198.75" stroke="rgb(228,226,242)" stroke-width="1.5" />
  <line x1="181.66" y1="198.75" x2="202.77" y2="186.56" stroke="rgb(228,226,242)" stroke-width="1.5" />
  <line x1="202.77" y1="186.56" x2="202.77" y2="162.19" stroke="rgb(228,226,242)" stroke-width="1.5" />
  <line x1="202.77" y1="162.19" x2="181.16" y2="153.01" stroke="rgb(228,226,242)" stroke-width="1.5" />
  <line x1="166.61" y1="159.49" x2="181.16" y2="153.01" stroke="rgb(228,226,242)" stroke-width="1.5" />
  <line id="mol48:Bond:7" class="event" x1="160.55" y1="137.81" x2="182.66" y2="143.99" stroke-width="1.5" opacity="0" />
  <line id="mol48:Bond:9" class="event" x1="202.77" y1="137.81" x2="202.77" y2="113.44" stroke-width="1.5" opacity="0" />
  <line id="mol48:Bond:11" class="event" x1="181.66" y1="101.25" x2="160.55" y2="113.44" stroke-width="1.5" opacity="0" />
  <line id="mol48:Bond:0" class="event" x1="97.23" y1="174.37" x2="118.34" y2="186.56" stroke-width="1.5" opacity="0" />
  <line id="mol48:Bond:1" class="event" x1="118.34" y1="186.56" x2="139.45" y2="174.37" stroke-width="1.5" opacity="0" />
  <line id="mol48:Bond:2" class="event" x1="139.45" y1="174.37" x2="139.45" y2="150" stroke-width="1.5" opacity="0" />
  <line id="mol48:Bond:3" class="event" x1="139.45" y1="150" x2="118.34" y2="137.81" stroke-width="1.5" opacity="0" />
  <line id="mol48:Bond:4" class="event" x1="118.34" y1="137.81" x2="97.23" y2="150" stroke-width="1.5" opacity="0" />
  <line id="mol48:Bond:5" class="event" x1="97.23" y1="174.37" x2="97.23" y2="150" stroke-width="1.5" opacity="0" />
  <line id="mol48:Bond:6" class="event" x1="139.45" y1="150" x2="160.55" y2="137.81" stroke-width="1.5" opacity="0" />
  <line id="mol48:Bond:8" class="event" x1="182.66" y1="143.99" x2="202.77" y2="137.81" stroke-width="1.5" opacity="0" />
  <line id="mol48:Bond:10" class="event" x1="202.77" y1="113.44" x2="181.66" y2="101.25" stroke-width="1.5" opacity="0" />
  <line id="mol48:Bond:12" class="event" x1="160.55" y1="137.81" x2="160.55" y2="113.44" stroke-width="1.5" opacity="0" />
  <line id="mol48:Bond:13" class="event" x1="139.45" y1="150" x2="160.55" y2="162.19" stroke-width="1.5" opacity="0" />
  <line id="mol48:Bond:14" class="event" x1="160.55" y1="162.19" x2="160.55" y2="186.56" stroke-width="1.5" opacity="0" />
  <line id="mol48:Bond:15" class="event" x1="160.55" y1="186.56" x2="181.66" y2="198.75" stroke-width="1.5" opacity="0" />
  <line id="mol48:Bond:16" class="event" x1="181.66" y1="198.75" x2="202.77" y2="186.56" stroke-width="1.5" opacity="0" />
  <line id="mol48:Bond:17" class="event" x1="202.77" y1="186.56" x2="202.77" y2="162.19" stroke-width="1.5" opacity="0" />
  <line id="mol48:Bond:18" class="event" x1="202.77" y1="162.19" x2="181.16" y2="153.01" stroke-width="1.5" opacity="0" />
  <line id="mol48:Bond:19" class="event" x1="160.55" y1="162.19" x2="181.16" y2="153.01" stroke-width="1.5" opacity="0" />
  <circle id="mol48:Atom:0" class="event" cx="97.23" cy="174.37" r="8" opacity="0" />
  <circle id="mol48:Atom:1" class="event" cx="118.34" cy="186.56" r="8" opacity="0" />
  <circle id="mol48:Atom:2" class="event" cx="139.45" cy="174.37" r="8" opacity="0" />
  <circle id="mol48:Atom:3" class="event" cx="139.45" cy="150" r="8" opacity="0" />
  <circle id="mol48:Atom:4" class="event" cx="118.34" cy="137.81" r="8" opacity="0" />
  <circle id="mol48:Atom:5" class="event" cx="97.23" cy="150" r="8" opacity="0" />
  <circle id="mol48:Atom:6" class="event" cx="160.55" cy="137.81" r="8" opacity="0" />
  <circle id="mol48:Atom:7" class="event" cx="182.66" cy="143.99" r="8" opacity="0" />
  <circle id="mol48:Atom:8" class="event" cx="202.77" cy="137.81" r="8" opacity="0" />
  <circle id="mol48:Atom:9" class="event" cx="202.77" cy="113.44" r="8" opacity="0" />
  <circle id="mol48:Atom:10" class="event" cx="181.66" cy="101.25" r="8" opacity="0" />
  <circle id="mol48:Atom:11" class="event" cx="160.55" cy="113.44" r="8" opacity="0" />
  <circle id="mol48:Atom:12" class="event" cx="160.55" cy="162.19" r="8" opacity="0" />
  <circle id="mol48:Atom:13" class="event" cx="160.55" cy="186.56" r="8" opacity="0" />
  <circle id="mol48:Atom:14" class="event" cx="181.66" cy="198.75" r="8" opacity="0" />
  <circle id="mol48:Atom:15" class="event" cx="202.77" cy="186.56" r="8" opacity="0" />
  <circle id="mol48:Atom:16" class="event" cx="202.77" cy="162.19" r="8" opacity="0" />
  <circle id="mol48:Atom:17" class="event" cx="181.16" cy="153.01" r="8" opacity="0" />
</svg>