<svg id="mol49" xmlns="http://www.w3.org/2000/svg" version="1.1" width="186px" height="79px" viewBox="57 110 186 79">
  <style> #mol49 text {font-family: sans-serif;} #mol49 { pointer-events:none; } #mol49 .event  { pointer-events:all; } #mol49 line { stroke-linecap:round; } #mol49 polygon { stroke-linejoin:round; } </style>
  <text x="108.98" y="203.33" stroke="none" font-size="12" fill="rgb(160,0,0)">this enantiomer</text>
  <text x="209.09" y="158.56" stroke="none" font-size="14" fill="rgb(129,140,248)">N</text>
  <text x="167.63" y="138.51" stroke="none" font-size="9" fill="rgb(160,0,0)">S</text>
  <text x="166.38" y="127.21" stroke="none" font-size="9" fill="rgb(160,0,0)">abs</text>
  <text x="167.63" y="161.9" stroke="none" font-size="9" fill="rgb(160,0,0)">S</text>
  <text x="171.83" y="153.75" stroke="none" font-size="9" fill="rgb(160,0,0)">abs</text>
  <text x="187.88" y="173.59" stroke="none" font-size="9" fill="rgb(160,0,0)">S</text>
  <text x="186.63" y="162.29" stroke="none" font-size="9" fill="rgb(160,0,0)">abs</text>
  <text x="80.41" y="139.07" stroke="none" font-size="14" fill="rgb(248,113,113)">O</text>
  <line x1="145.85" y1="170.51" x2="146.62" y2="146.1" stroke="rgb(228,226,242)" stroke-width="1.5" />
  <line x1="142.33" y1="167.86" x2="142.94" y2="148.7" stroke="rgb(228,226,242)" stroke-width="1.5" />
  <line x1="125.04" y1="134.61" x2="106.11" y2="146.1" stroke="rgb(228,226,242)" stroke-width="1.5" />
  <line x1="124.74" y1="139" x2="110.12" y2="147.88" stroke="rgb(228,226,242)" stroke-width="1.5" />
  <line x1="106.11" y1="169.49" x2="126.37" y2="181.18" stroke="rgb(228,226,242)" stroke-width="1.5" />
  <line x1="110.13" y1="167.65" x2="126" y2="176.81" stroke="rgb(228,226,242)" stroke-width="1.5" />
  <line x1="234.4" y1="165.59" x2="220.2" y2="157.39" stroke="rgb(228,226,242)" stroke-width="1.5" />
  <line x1="214.14" y1="146.9" x2="214.14" y2="130.51" stroke="rgb(228,226,242)" stroke-width="1.5" />
  <line x1="214.14" y1="130.51" x2="193.89" y2="118.82" stroke="rgb(228,226,242)" stroke-width="1.5" />
  <line x1="193.89" y1="118.82" x2="173.63" y2="130.51" stroke="rgb(228,226,242)" stroke-width="1.5" />
  <line x1="173.63" y1="130.51" x2="153.38" y2="118.82" stroke="rgb(228,226,242)" stroke-width="1.5" />
  <line x1="153.38" y1="118.82" x2="134.58" y2="128.95" stroke="rgb(228,226,242)" stroke-width="1.5" />
  <line x1="134.58" y1="128.95" x2="133.12" y2="153.9" stroke="rgb(228,226,242)" stroke-width="1.5" />
  <line x1="133.12" y1="153.9" x2="155.17" y2="164.55" stroke="rgb(228,226,242)" stroke-width="1.5" />
  <polygon points="174,154 164,158 165,160 " fill="rgb(160,0,0)" stroke="rgb(160,0,0)" stroke-width="1.5" />
  <polygon points="165,160 164,158 154,163 156,167 " fill="rgb(160,0,0)" stroke="rgb(160,0,0)" stroke-width="1.5" />
  <line x1="173.63" y1="130.51" x2="173.63" y2="153.9" stroke="rgb(228,226,242)" stroke-width="1.5" />
  <line x1="173.63" y1="153.9" x2="193.89" y2="165.59" stroke="rgb(228,226,242)" stroke-width="1.5" />
  <line x1="208.09" y1="157.39" x2="193.89" y2="165.59" stroke="rgb(228,226,242)" stroke-width="1.5" />
  <polygon points="194,166 180,172 181,175 " fill="rgb(160,0,0)" stroke="rgb(160,0,0)" stroke-width="1.5" />
  <polygon points="181,175 180,172 165,178 169,184 " fill="rgb(160,0,0)" stroke="rgb(160,0,0)" stroke-width="1.5" />
  <line x1="166.88" y1="181.18" x2="145.85" y2="170.51" stroke="rgb(228,226,242)" stroke-width="1.5" />
  <polygon points="174,131 159,137 161,140 " fill="rgb(160,0,0)" stroke="rgb(160,0,0)" stroke-width="1.5" />
  <polygon points="161,140 159,137 145,143 148,149 " fill="rgb(160,0,0)" stroke="rgb(160,0,0)" stroke-width="1.5" />
  <line x1="146.62" y1="146.1" x2="125.04" y2="134.61" stroke="rgb(228,226,242)" stroke-width="1.5" />
  <line x1="106.11" y1="146.1" x2="106.11" y2="169.49" stroke="rgb(228,226,242)" stroke-width="1.5" />
  <line x1="145.85" y1="170.51" x2="126.37" y2="181.18" stroke="rgb(228,226,242)" stroke-width="1.5" />
  <line x1="106.11" y1="146.1" x2="92.3" y2="138.13" stroke="rgb(228,226,242)" stroke-width="1.5" />
  <line x1="79.41" y1="138.13" x2="65.6" y2="146.1" stroke="rgb(228,226,242)" stroke-width="1.5" />
  <line id="mol49:Bond:14" class="event" x1="145.85" y1="170.51" x2="146.62" y2="146.1" stroke-width="1.5" opacity="0" />
  <line id="mol49:Bond:17" class="event" x1="125.04" y1="134.61" x2="106.11" y2="146.1" stroke-width="1.5" opacity="0" />
  <line id="mol49:Bond:19" class="event" x1="106.11" y1="169.49" x2="126.37" y2="181.18" stroke-width="1.5" opacity="0" />
  <line id="mol49:Bond:0" class="event" x1="234.4" y1="165.59" x2="214.14" y2="153.9" stroke-width="1.5" opacity="0" />
  <line id="mol49:Bond:1" class="event" x1="214.14" y1="153.9" x2="214.14" y2="130.51" stroke-width="1.5" opacity="0" />
  <line id="mol49:Bond:2" class="event" x1="214.14" y1="130.51" x2="193.89" y2="118.82" stroke-width="1.5" opacity="0" />
  <line id="mol49:Bond:3" class="event" x1="193.89" y1="118.82" x2="173.63" y2="130.51" stroke-width="1.5" opacity="0" />
  <line id="mol49:Bond:4" class="event" x1="173.63" y1="130.51" x2="153.38" y2="118.82" stroke-width="1.5" opacity="0" />
  <line id="mol49:Bond:5" class="event" x1="153.38" y1="118.82" x2="134.58" y2="128.95" stroke-width="1.5" opacity="0" />
  <line id="mol49:Bond:6" class="event" x1="134.58" y1="128.95" x2="133.12" y2="153.9" stroke-width="1.5" opacity="0" />
  <line id="mol49:Bond:7" class="event" x1="133.12" y1="153.9" x2="155.17" y2="164.55" stroke-width="1.5" opacity="0" />
  <line id="mol49:Bond:8" class="event" x1="173.63" y1="153.9" x2="155.17" y2="164.55" stroke-width="1.5" opacity="0" />
  <line id="mol49:Bond:9" class="event" x1="173.63" y1="130.51" x2="173.63" y2="153.9" stroke-width="1.5" opacity="0" />
  <line id="mol49:Bond:10" class="event" x1="173.63" y1="153.9" x2="193.89" y2="165.59" stroke-width="1.5" opacity="0" />
  <line id="mol49:Bond:11" class="event" x1="214.14" y1="153.9" x2="193.89" y2="165.59" stroke-width="1.5" opacity="0" />
  <line id="mol49:Bond:12" class="event" x1="193.89" y1="165.59" x2="166.88" y2="181.18" stroke-width="1.5" opacity="0" />
  <line id="mol49:Bond:13" class="event" x1="166.88" y1="181.18" x2="145.85" y2="170.51" stroke-width="1.5" opacity="0" />
  <line id="mol49:Bond:15" class="event" x1="173.63" y1="130.51" x2="146.62" y2="146.1" stroke-width="1.5" opacity="0" />
  <line id="mol49:Bond:16" class="event" x1="146.62" y1="146.1" x2="125.04" y2="134.61" stroke-width="1.5" opacity="0" />
  <line id="mol49:Bond:18" class="event" x1="106.11" y1="146.1" x2="106.11" y2="169.49" stroke-width="1.5" opacity="0" />
  <line id="mol49:Bond:20" class="event" x1="145.85" y1="170.51" x2="126.37" y2="181.18" stroke-width="1.5" opacity="0" />
  <line id="mol49:Bond:21" class="event" x1="106.11" y1="146.1" x2="85.86" y2="134.41" stroke-width="1.5" opacity="0" />
  <line id="mol49:Bond:22" class="event" x1="85.86" y1="134.41" x2="65.6" y2="146.1" stroke-width="1.5" opacity="0" />
  <circle id="mol49:Atom:0" class="event" cx="234.4" cy="165.59" r="8" opacity="0" />
  <circle id="mol49:Atom:1" class="event" cx="214.14" cy="153.9" r="8" opacity="0" />
  <circle id="mol49:Atom:2" class="event" cx="214.14" cy="130.51" r="8" opacity="0" />
  <circle id="mol49:Atom:3" class="event" cx="193.89" cy="118.82" r="8" opacity="0" />
  <circle id="mol49:Atom:4" class="event" cx="173.63" cy="130.51" r="8" opacity="0" />
  <circle id="mol49:Atom:5" class="event" cx="153.38" cy="118.82" r="8" opacity="0" />
  <circle id="mol49:Atom:6" class="event" cx="134.58" cy="128.95" r="8" opacity="0" />
  <circle id="mol49:Atom:7" class="event" cx="133.12" cy="153.9" r="8" opacity="0" />
  <circle id="mol49:Atom:8" class="event" cx="155.17" cy="164.55" r="8" opacity="0" />
  <circle id="mol49:Atom:9" class="event" cx="173.63" cy="153.9" r="8" opacity="0" />
  <circle id="mol49:Atom:10" class="event" cx="193.89" cy="165.59" r="8" opacity="0" />
  <circle id="mol49:Atom:11" class="event" cx="166.88" cy="181.18" r="8" opacity="0" />
  <circle id="mol49:Atom:12" class="event" cx="145.85" cy="170.51" r="8" opacity="0" />
  <circle id="mol49:Atom:13" class="event" cx="146.62" cy="146.1" r="8" opacity="0" />
  <circle id="mol49:Atom:14" class="event" cx="125.04" cy="134.61" r="8" opacity="0" />
  <circle id="mol49:Atom:15" class="event" cx="106.11" cy="146.1" r="8" opacity="0" />
  <circle id="mol49:Atom:16" class="event" cx="106.11" cy="169.49" r="8" opacity="0" />
  <circle id="mol49:Atom:17" class="event" cx="126.37" cy="181.18" r="8" opacity="0" />
  <circle id="mol49:Atom:18" class="event" cx="85.86" cy="134.41" r="8" opacity="0" />
  <circle id="mol49:Atom:19" class="event" cx="65.6" cy="146.1" r="8" opacity="0" />
</svg>