<svg id="mol49" xmlns="http://www.w3.org/2000/svg" version="1.1" width="217px" height="163px" viewBox="42 69 217 163">
  <style> #mol49 text {font-family: sans-serif;} #mol49 { pointer-events:none; } #mol49 .event  { pointer-events:all; } #mol49 line { stroke-linecap:round; } #mol49 polygon { stroke-linejoin:round; } </style>
  <text x="135.33" y="245.15" stroke="none" font-size="12" fill="rgb(160,0,0)">meso</text>
  <text x="133.11" y="164" stroke="none" font-size="9" fill="rgb(160,0,0)">R</text>
  <text x="132.35" y="152.7" stroke="none" font-size="9" fill="rgb(160,0,0)">abs</text>
  <text x="154.39" y="152" stroke="none" font-size="9" fill="rgb(160,0,0)">S</text>
  <text x="158.59" y="143.85" stroke="none" font-size="9" fill="rgb(160,0,0)">abs</text>
  <text x="196.52" y="148.67" stroke="none" font-size="14" fill="rgb(248,113,113)">O</text>
  <text x="217.69" y="160.67" stroke="none" font-size="14" fill="rgb(129,140,248)">N</text>
  <text x="228.8" y="155" stroke="none" font-size="9" fill="rgb(129,140,248)">+</text>
  <text x="238.08" y="148.67" stroke="none" font-size="14" fill="rgb(248,113,113)">O</text>
  <text x="217.3" y="184.67" stroke="none" font-size="14" fill="rgb(248,113,113)">O</text>
  <text x="229.19" y="179" stroke="none" font-size="9" fill="rgb(248,113,113)">-</text>
  <text x="154.95" y="124.67" stroke="none" font-size="14" fill="rgb(248,113,113)">O</text>
  <text x="176.12" y="112.67" stroke="none" font-size="14" fill="rgb(129,140,248)">N</text>
  <text x="187.23" y="107" stroke="none" font-size="9" fill="rgb(129,140,248)">+</text>
  <text x="196.52" y="124.67" stroke="none" font-size="14" fill="rgb(248,113,113)">O</text>
  <text x="175.73" y="88.67" stroke="none" font-size="14" fill="rgb(248,113,113)">O</text>
  <text x="187.62" y="83" stroke="none" font-size="9" fill="rgb(248,113,113)">-</text>
  <text x="134.16" y="184.67" stroke="none" font-size="14" fill="rgb(248,113,113)">O</text>
  <text x="113.77" y="196.67" stroke="none" font-size="14" fill="rgb(129,140,248)">N</text>
  <text x="124.88" y="191" stroke="none" font-size="9" fill="rgb(129,140,248)">+</text>
  <text x="92.59" y="184.67" stroke="none" font-size="14" fill="rgb(248,113,113)">O</text>
  <text x="113.38" y="220.67" stroke="none" font-size="14" fill="rgb(248,113,113)">O</text>
  <text x="125.27" y="215" stroke="none" font-size="9" fill="rgb(248,113,113)">-</text>
  <text x="92.59" y="160.67" stroke="none" font-size="14" fill="rgb(248,113,113)">O</text>
  <text x="72.2" y="148.67" stroke="none" font-size="14" fill="rgb(129,140,248)">N</text>
  <text x="83.31" y="143" stroke="none" font-size="9" fill="rgb(129,140,248)">+</text>
  <text x="71.81" y="124.67" stroke="none" font-size="14" fill="rgb(248,113,113)">O</text>
  <text x="51.02" y="160.67" stroke="none" font-size="14" fill="rgb(248,113,113)">O</text>
  <text x="62.92" y="155" stroke="none" font-size="9" fill="rgb(248,113,113)">-</text>
  <line x1="235.19" y1="150.89" x2="237.98" y2="149.28" stroke="rgb(228,226,242)" stroke-width="1.5" />
  <line x1="233.39" y1="147.77" x2="236.18" y2="146.16" stroke="rgb(228,226,242)" stroke-width="1.5" />
  <line x1="186.33" y1="113.05" x2="194.62" y2="117.84" stroke="rgb(228,226,242)" stroke-width="1.5" />
  <line x1="188.13" y1="109.94" x2="196.42" y2="114.72" stroke="rgb(228,226,242)" stroke-width="1.5" />
  <line x1="113.67" y1="186.95" x2="105.38" y2="182.16" stroke="rgb(228,226,242)" stroke-width="1.5" />
  <line x1="111.87" y1="190.06" x2="103.58" y2="185.28" stroke="rgb(228,226,242)" stroke-width="1.5" />
  <line x1="79.05" y1="137" x2="79.05" y2="127" stroke="rgb(228,226,242)" stroke-width="1.5" />
  <line x1="75.45" y1="137" x2="75.45" y2="127" stroke="rgb(228,226,242)" stroke-width="1.5" />
  <line x1="118.82" y1="144" x2="139.61" y2="156" stroke="rgb(228,226,242)" stroke-width="1.5" />
  <line x1="139.61" y1="156" x2="160.39" y2="144" stroke="rgb(228,226,242)" stroke-width="1.5" />
  <line x1="160.39" y1="144" x2="181.18" y2="156" stroke="rgb(228,226,242)" stroke-width="1.5" />
  <line x1="181.18" y1="156" x2="195.52" y2="147.72" stroke="rgb(228,226,242)" stroke-width="1.5" />
  <line x1="208.41" y1="147.72" x2="216.69" y2="152.5" stroke="rgb(228,226,242)" stroke-width="1.5" />
  <line x1="222.75" y1="163" x2="222.75" y2="173" stroke="rgb(228,226,242)" stroke-width="1.5" />
  <polygon points="160,144 161,136 159,136 " fill="rgb(160,0,0)" stroke="rgb(160,0,0)" stroke-width="1.5" />
  <polygon points="159,136 161,136 162,127 159,127 " fill="rgb(160,0,0)" stroke="rgb(160,0,0)" stroke-width="1.5" />
  <line x1="166.84" y1="116.28" x2="175.12" y2="111.5" stroke="rgb(228,226,242)" stroke-width="1.5" />
  <line x1="181.18" y1="101" x2="181.18" y2="91" stroke="rgb(228,226,242)" stroke-width="1.5" />
  <line x1="139.23" y1="158.82" x2="139.98" y2="158.82" stroke="rgb(160,0,0)" stroke-width="1.5" />
  <line x1="138.86" y1="161.65" x2="140.36" y2="161.65" stroke="rgb(160,0,0)" stroke-width="1.5" />
  <line x1="138.48" y1="164.47" x2="140.73" y2="164.47" stroke="rgb(160,0,0)" stroke-width="1.5" />
  <line x1="138.11" y1="167.29" x2="141.11" y2="167.29" stroke="rgb(160,0,0)" stroke-width="1.5" />
  <line x1="137.73" y1="170.12" x2="141.48" y2="170.12" stroke="rgb(160,0,0)" stroke-width="1.5" />
  <line x1="137.36" y1="172.94" x2="141.86" y2="172.94" stroke="rgb(160,0,0)" stroke-width="1.5" />
  <line x1="133.16" y1="183.72" x2="130.37" y2="185.33" stroke="rgb(228,226,242)" stroke-width="1.5" />
  <line x1="118.82" y1="199" x2="118.82" y2="209" stroke="rgb(228,226,242)" stroke-width="1.5" />
  <line x1="118.82" y1="144" x2="104.48" y2="152.28" stroke="rgb(228,226,242)" stroke-width="1.5" />
  <line x1="91.59" y1="152.28" x2="83.31" y2="147.5" stroke="rgb(228,226,242)" stroke-width="1.5" />
  <line x1="71.2" y1="147.5" x2="66.91" y2="149.97" stroke="rgb(228,226,242)" stroke-width="1.5" />
  <line id="mol49:Bond:5" class="event" x1="222.75" y1="156" x2="243.53" y2="144" stroke-width="1.5" opacity="0" />
  <line id="mol49:Bond:9" class="event" x1="181.18" y1="108" x2="201.96" y2="120" stroke-width="1.5" opacity="0" />
  <line id="mol49:Bond:13" class="event" x1="118.82" y1="192" x2="98.04" y2="180" stroke-width="1.5" opacity="0" />
  <line id="mol49:Bond:17" class="event" x1="77.25" y1="144" x2="77.25" y2="120" stroke-width="1.5" opacity="0" />
  <line id="mol49:Bond:0" class="event" x1="118.82" y1="144" x2="139.61" y2="156" stroke-width="1.5" opacity="0" />
  <line id="mol49:Bond:1" class="event" x1="139.61" y1="156" x2="160.39" y2="144" stroke-width="1.5" opacity="0" />
  <line id="mol49:Bond:2" class="event" x1="160.39" y1="144" x2="181.18" y2="156" stroke-width="1.5" opacity="0" />
  <line id="mol49:Bond:3" class="event" x1="181.18" y1="156" x2="201.96" y2="144" stroke-width="1.5" opacity="0" />
  <line id="mol49:Bond:4" class="event" x1="201.96" y1="144" x2="222.75" y2="156" stroke-width="1.5" opacity="0" />
  <line id="mol49:Bond:6" class="event" x1="222.75" y1="156" x2="222.75" y2="180" stroke-width="1.5" opacity="0" />
  <line id="mol49:Bond:7" class="event" x1="160.39" y1="144" x2="160.39" y2="120" stroke-width="1.5" opacity="0" />
  <line id="mol49:Bond:8" class="event" x1="160.39" y1="120" x2="181.18" y2="108" stroke-width="1.5" opacity="0" />
  <line id="mol49:Bond:10" class="event" x1="181.18" y1="108" x2="181.18" y2="84" stroke-width="1.5" opacity="0" />
  <line id="mol49:Bond:11" class="event" x1="139.61" y1="156" x2="139.61" y2="180" stroke-width="1.5" opacity="0" />
  <line id="mol49:Bond:12" class="event" x1="139.61" y1="180" x2="118.82" y2="192" stroke-width="1.5" opacity="0" />
  <line id="mol49:Bond:14" class="event" x1="118.82" y1="192" x2="118.82" y2="216" stroke-width="1.5" opacity="0" />
  <line id="mol49:Bond:15" class="event" x1="118.82" y1="144" x2="98.04" y2="156" stroke-width="1.5" opacity="0" />
  <line id="mol49:Bond:16" class="event" x1="98.04" y1="156" x2="77.25" y2="144" stroke-width="1.5" opacity="0" />
  <line id="mol49:Bond:18" class="event" x1="77.25" y1="144" x2="56.47" y2="156" stroke-width="1.5" opacity="0" />
  <circle id="mol49:Atom:0" class="event" cx="118.82" cy="144" r="8" opacity="0" />
  <circle id="mol49:Atom:1" class="event" cx="139.61" cy="156" r="8" opacity="0" />
  <circle id="mol49:Atom:2" class="event" cx="160.39" cy="144" r="8" opacity="0" />
  <circle id="mol49:Atom:3" class="event" cx="181.18" cy="156" r="8" opacity="0" />
  <circle id="mol49:Atom:4" class="event" cx="201.96" cy="144" r="8" opacity="0" />
  <circle id="mol49:Atom:5" class="event" cx="222.75" cy="156" r="8" opacity="0" />
  <circle id="mol49:Atom:6" class="event" cx="243.53" cy="144" r="8" opacity="0" />
  <circle id="mol49:Atom:7" class="event" cx="222.75" cy="180" r="8" opacity="0" />
  <circle id="mol49:Atom:8" class="event" cx="160.39" cy="120" r="8" opacity="0" />
  <circle id="mol49:Atom:9" class="event" cx="181.18" cy="108" r="8" opacity="0" />
  <circle id="mol49:Atom:10" class="event" cx="201.96" cy="120" r="8" opacity="0" />
  <circle id="mol49:Atom:11" class="event" cx="181.18" cy="84" r="8" opacity="0" />
  <circle id="mol49:Atom:12" class="event" cx="139.61" cy="180" r="8" opacity="0" />
  <circle id="mol49:Atom:13" class="event" cx="118.82" cy="192" r="8" opacity="0" />
  <circle id="mol49:Atom:14" class="event" cx="98.04" cy="180" r="8" opacity="0" />
  <circle id="mol49:Atom:15" class="event" cx="118.82" cy="216" r="8" opacity="0" />
  <circle id="mol49:Atom:16" class="event" cx="98.04" cy="156" r="8" opacity="0" />
  <circle id="mol49:Atom:17" class="event" cx="77.25" cy="144" r="8" opacity="0" />
  <circle id="mol49:Atom:18" class="event" cx="77.25" cy="120" r="8" opacity="0" />
  <circle id="mol49:Atom:19" class="event" cx="56.47" cy="156" r="8" opacity="0" />
</svg>