<svg id="mol5" xmlns="http://www.w3.org/2000/svg" version="1.1" width="175px" height="139px" viewBox="54 73 175 139">
  <style> #mol5 text {font-family: sans-serif;} #mol5 { pointer-events:none; } #mol5 .event  { pointer-events:all; } #mol5 line { stroke-linecap:round; } #mol5 polygon { stroke-linejoin:round; } </style>
  <text x="194.72" y="143.48" stroke="none" font-size="14" fill="rgb(248,113,113)">O</text>
  <text x="174.33" y="107.48" stroke="none" font-size="14" fill="rgb(129,140,248)">N</text>
  <text x="174.33" y="93.48" stroke="none" font-size="14" fill="rgb(129,140,248)">H</text>
  <text x="73.99" y="127.56" stroke="none" font-size="14" fill="rgb(129,140,248)">N</text>
  <text x="63.88" y="127.56" stroke="none" font-size="14" fill="rgb(129,140,248)">H</text>
  <text x="133.78" y="201.85" stroke="none" font-size="14" fill="rgb(248,113,113)">O</text>
  <line x1="198.37" y1="113.78" x2="198.37" y2="131.82" stroke="rgb(228,226,242)" stroke-width="1.5" />
  <line x1="201.97" y1="113.78" x2="201.97" y2="131.82" stroke="rgb(228,226,242)" stroke-width="1.5" />
  <line x1="117.03" y1="114.82" x2="95.11" y2="105.06" stroke="rgb(228,226,242)" stroke-width="1.5" />
  <line x1="112.81" y1="116.88" x2="96.4" y2="109.57" stroke="rgb(228,226,242)" stroke-width="1.5" />
  <line x1="91.05" y1="143.68" x2="114.52" y2="138.69" stroke="rgb(228,226,242)" stroke-width="1.5" />
  <line x1="94.3" y1="146.66" x2="112.77" y2="142.74" stroke="rgb(228,226,242)" stroke-width="1.5" />
  <line x1="130.58" y1="156.52" x2="123.16" y2="179.35" stroke="rgb(228,226,242)" stroke-width="1.5" />
  <line x1="126.37" y1="157.84" x2="120.53" y2="175.8" stroke="rgb(228,226,242)" stroke-width="1.5" />
  <line x1="99.69" y1="184.34" x2="83.63" y2="166.5" stroke="rgb(228,226,242)" stroke-width="1.5" />
  <line x1="100.65" y1="180.02" x2="88.02" y2="166" stroke="rgb(228,226,242)" stroke-width="1.5" />
  <line x1="220.95" y1="102.82" x2="200.17" y2="114.82" stroke="rgb(228,226,242)" stroke-width="1.5" />
  <line x1="200.17" y1="114.82" x2="185.44" y2="106.31" stroke="rgb(228,226,242)" stroke-width="1.5" />
  <line x1="173.33" y1="106.31" x2="158.6" y2="114.82" stroke="rgb(228,226,242)" stroke-width="1.5" />
  <line x1="158.6" y1="114.82" x2="137.82" y2="102.82" stroke="rgb(228,226,242)" stroke-width="1.5" />
  <line x1="137.82" y1="102.82" x2="117.03" y2="114.82" stroke="rgb(228,226,242)" stroke-width="1.5" />
  <line x1="95.11" y1="105.06" x2="85.1" y2="116.17" stroke="rgb(228,226,242)" stroke-width="1.5" />
  <line x1="83.09" y1="129.89" x2="91.05" y2="143.68" stroke="rgb(228,226,242)" stroke-width="1.5" />
  <line x1="117.03" y1="114.82" x2="114.52" y2="138.69" stroke="rgb(228,226,242)" stroke-width="1.5" />
  <line x1="114.52" y1="138.69" x2="130.58" y2="156.52" stroke="rgb(228,226,242)" stroke-width="1.5" />
  <line x1="123.16" y1="179.35" x2="99.69" y2="184.34" stroke="rgb(228,226,242)" stroke-width="1.5" />
  <line x1="91.05" y1="143.68" x2="83.63" y2="166.5" stroke="rgb(228,226,242)" stroke-width="1.5" />
  <line x1="123.16" y1="179.35" x2="132.92" y2="190.18" stroke="rgb(228,226,242)" stroke-width="1.5" />
  <line x1="145.67" y1="195.81" x2="162.7" y2="192.19" stroke="rgb(228,226,242)" stroke-width="1.5" />
  <line id="mol5:Bond:1" class="event" x1="200.17" y1="114.82" x2="200.17" y2="138.82" stroke-width="1.5" opacity="0" />
  <line id="mol5:Bond:6" class="event" x1="117.03" y1="114.82" x2="95.11" y2="105.06" stroke-width="1.5" opacity="0" />
  <line id="mol5:Bond:9" class="event" x1="91.05" y1="143.68" x2="114.52" y2="138.69" stroke-width="1.5" opacity="0" />
  <line id="mol5:Bond:12" class="event" x1="130.58" y1="156.52" x2="123.16" y2="179.35" stroke-width="1.5" opacity="0" />
  <line id="mol5:Bond:14" class="event" x1="99.69" y1="184.34" x2="83.63" y2="166.5" stroke-width="1.5" opacity="0" />
  <line id="mol5:Bond:0" class="event" x1="220.95" y1="102.82" x2="200.17" y2="114.82" stroke-width="1.5" opacity="0" />
  <line id="mol5:Bond:2" class="event" x1="200.17" y1="114.82" x2="179.38" y2="102.82" stroke-width="1.5" opacity="0" />
  <line id="mol5:Bond:3" class="event" x1="179.38" y1="102.82" x2="158.6" y2="114.82" stroke-width="1.5" opacity="0" />
  <line id="mol5:Bond:4" class="event" x1="158.6" y1="114.82" x2="137.82" y2="102.82" stroke-width="1.5" opacity="0" />
  <line id="mol5:Bond:5" class="event" x1="137.82" y1="102.82" x2="117.03" y2="114.82" stroke-width="1.5" opacity="0" />
  <line id="mol5:Bond:7" class="event" x1="95.11" y1="105.06" x2="79.05" y2="122.89" stroke-width="1.5" opacity="0" />
  <line id="mol5:Bond:8" class="event" x1="79.05" y1="122.89" x2="91.05" y2="143.68" stroke-width="1.5" opacity="0" />
  <line id="mol5:Bond:10" class="event" x1="117.03" y1="114.82" x2="114.52" y2="138.69" stroke-width="1.5" opacity="0" />
  <line id="mol5:Bond:11" class="event" x1="114.52" y1="138.69" x2="130.58" y2="156.52" stroke-width="1.5" opacity="0" />
  <line id="mol5:Bond:13" class="event" x1="123.16" y1="179.35" x2="99.69" y2="184.34" stroke-width="1.5" opacity="0" />
  <line id="mol5:Bond:15" class="event" x1="91.05" y1="143.68" x2="83.63" y2="166.5" stroke-width="1.5" opacity="0" />
  <line id="mol5:Bond:16" class="event" x1="123.16" y1="179.35" x2="139.22" y2="197.18" stroke-width="1.5" opacity="0" />
  <line id="mol5:Bond:17" class="event" x1="139.22" y1="197.18" x2="162.7" y2="192.19" stroke-width="1.5" opacity="0" />
  <circle id="mol5:Atom:0" class="event" cx="220.95" cy="102.82" r="8" opacity="0" />
  <circle id="mol5:Atom:1" class="event" cx="200.17" cy="114.82" r="8" opacity="0" />
  <circle id="mol5:Atom:2" class="event" cx="200.17" cy="138.82" r="8" opacity="0" />
  <circle id="mol5:Atom:3" class="event" cx="179.38" cy="102.82" r="8" opacity="0" />
  <circle id="mol5:Atom:4" class="event" cx="158.6" cy="114.82" r="8" opacity="0" />
  <circle id="mol5:Atom:5" class="event" cx="137.82" cy="102.82" r="8" opacity="0" />
  <circle id="mol5:Atom:6" class="event" cx="117.03" cy="114.82" r="8" opacity="0" />
  <circle id="mol5:Atom:7" class="event" cx="95.11" cy="105.06" r="8" opacity="0" />
  <circle id="mol5:Atom:8" class="event" cx="79.05" cy="122.89" r="8" opacity="0" />
  <circle id="mol5:Atom:9" class="event" cx="91.05" cy="143.68" r="8" opacity="0" />
  <circle id="mol5:Atom:10" class="event" cx="114.52" cy="138.69" r="8" opacity="0" />
  <circle id="mol5:Atom:11" class="event" cx="130.58" cy="156.52" r="8" opacity="0" />
  <circle id="mol5:Atom:12" class="event" cx="123.16" cy="179.35" r="8" opacity="0" />
  <circle id="mol5:Atom:13" class="event" cx="99.69" cy="184.34" r="8" opacity="0" />
  <circle id="mol5:Atom:14" class="event" cx="83.63" cy="166.5" r="8" opacity="0" />
  <circle id="mol5:Atom:15" class="event" cx="139.22" cy="197.18" r="8" opacity="0" />
  <circle id="mol5:Atom:16" class="event" cx="162.7" cy="192.19" r="8" opacity="0" />
</svg>