<svg id="mol53" xmlns="http://www.w3.org/2000/svg" version="1.1" width="142px" height="245px" viewBox="79 28 142 245">
  <style> #mol53 text {font-family: sans-serif;} #mol53 { pointer-events:none; } #mol53 .event  { pointer-events:all; } #mol53 line { stroke-linecap:round; } #mol53 polygon { stroke-linejoin:round; } </style>
  <text x="165.34" y="256.67" stroke="none" font-size="14" fill="rgb(248,113,113)">O</text>
  <text x="144.95" y="220.67" stroke="none" font-size="14" fill="rgb(129,140,248)">N</text>
  <text x="144.95" y="148.67" stroke="none" font-size="14" fill="rgb(129,140,248)">N</text>
  <line x1="168.98" y1="226.96" x2="168.98" y2="245" stroke="rgb(228,226,242)" stroke-width="1.5" />
  <line x1="172.58" y1="226.96" x2="172.58" y2="245" stroke="rgb(228,226,242)" stroke-width="1.5" />
  <line x1="170.78" y1="84" x2="191.57" y2="72" stroke="rgb(228,226,242)" stroke-width="1.5" />
  <line x1="171.2" y1="79.6" x2="187.55" y2="70.16" stroke="rgb(228,226,242)" stroke-width="1.5" />
  <line x1="191.57" y1="48" x2="170.78" y2="36" stroke="rgb(228,226,242)" stroke-width="1.5" />
  <line x1="187.55" y1="49.84" x2="171.2" y2="40.4" stroke="rgb(228,226,242)" stroke-width="1.5" />
  <line x1="150" y1="48" x2="150" y2="72" stroke="rgb(228,226,242)" stroke-width="1.5" />
  <line x1="153.6" y1="50.56" x2="153.6" y2="69.44" stroke="rgb(228,226,242)" stroke-width="1.5" />
  <line x1="129.22" y1="228" x2="108.43" y2="216" stroke="rgb(228,226,242)" stroke-width="1.5" />
  <line x1="125.2" y1="229.84" x2="108.85" y2="220.4" stroke="rgb(228,226,242)" stroke-width="1.5" />
  <line x1="87.65" y1="228" x2="87.65" y2="252" stroke="rgb(228,226,242)" stroke-width="1.5" />
  <line x1="91.25" y1="230.56" x2="91.25" y2="249.44" stroke="rgb(228,226,242)" stroke-width="1.5" />
  <line x1="108.43" y1="264" x2="129.22" y2="252" stroke="rgb(228,226,242)" stroke-width="1.5" />
  <line x1="108.85" y1="259.6" x2="125.2" y2="250.16" stroke="rgb(228,226,242)" stroke-width="1.5" />
  <line x1="212.35" y1="228" x2="191.57" y2="216" stroke="rgb(228,226,242)" stroke-width="1.5" />
  <line x1="191.57" y1="216" x2="170.78" y2="228" stroke="rgb(228,226,242)" stroke-width="1.5" />
  <line x1="170.78" y1="228" x2="156.05" y2="219.5" stroke="rgb(228,226,242)" stroke-width="1.5" />
  <line x1="150" y1="209" x2="150" y2="192" stroke="rgb(228,226,242)" stroke-width="1.5" />
  <line x1="150" y1="192" x2="170.78" y2="180" stroke="rgb(228,226,242)" stroke-width="1.5" />
  <line x1="170.78" y1="180" x2="170.78" y2="156" stroke="rgb(228,226,242)" stroke-width="1.5" />
  <line x1="170.78" y1="156" x2="156.05" y2="147.5" stroke="rgb(228,226,242)" stroke-width="1.5" />
  <line x1="143.95" y1="147.5" x2="129.22" y2="156" stroke="rgb(228,226,242)" stroke-width="1.5" />
  <line x1="129.22" y1="156" x2="129.22" y2="180" stroke="rgb(228,226,242)" stroke-width="1.5" />
  <line x1="150" y1="192" x2="129.22" y2="180" stroke="rgb(228,226,242)" stroke-width="1.5" />
  <line x1="150" y1="137" x2="150" y2="120" stroke="rgb(228,226,242)" stroke-width="1.5" />
  <line x1="150" y1="120" x2="170.78" y2="108" stroke="rgb(228,226,242)" stroke-width="1.5" />
  <line x1="170.78" y1="108" x2="170.78" y2="84" stroke="rgb(228,226,242)" stroke-width="1.5" />
  <line x1="191.57" y1="72" x2="191.57" y2="48" stroke="rgb(228,226,242)" stroke-width="1.5" />
  <line x1="170.78" y1="36" x2="150" y2="48" stroke="rgb(228,226,242)" stroke-width="1.5" />
  <line x1="170.78" y1="84" x2="150" y2="72" stroke="rgb(228,226,242)" stroke-width="1.5" />
  <line x1="143.95" y1="219.5" x2="129.22" y2="228" stroke="rgb(228,226,242)" stroke-width="1.5" />
  <line x1="108.43" y1="216" x2="87.65" y2="228" stroke="rgb(228,226,242)" stroke-width="1.5" />
  <line x1="87.65" y1="252" x2="108.43" y2="264" stroke="rgb(228,226,242)" stroke-width="1.5" />
  <line x1="129.22" y1="228" x2="129.22" y2="252" stroke="rgb(228,226,242)" stroke-width="1.5" />
  <line id="mol53:Bond:2" class="event" x1="170.78" y1="228" x2="170.78" y2="252" stroke-width="1.5" opacity="0" />
  <line id="mol53:Bond:14" class="event" x1="170.78" y1="84" x2="191.57" y2="72" stroke-width="1.5" opacity="0" />
  <line id="mol53:Bond:16" class="event" x1="191.57" y1="48" x2="170.78" y2="36" stroke-width="1.5" opacity="0" />
  <line id="mol53:Bond:18" class="event" x1="150" y1="48" x2="150" y2="72" stroke-width="1.5" opacity="0" />
  <line id="mol53:Bond:21" class="event" x1="129.22" y1="228" x2="108.43" y2="216" stroke-width="1.5" opacity="0" />
  <line id="mol53:Bond:23" class="event" x1="87.65" y1="228" x2="87.65" y2="252" stroke-width="1.5" opacity="0" />
  <line id="mol53:Bond:25" class="event" x1="108.43" y1="264" x2="129.22" y2="252" stroke-width="1.5" opacity="0" />
  <line id="mol53:Bond:0" class="event" x1="212.35" y1="228" x2="191.57" y2="216" stroke-width="1.5" opacity="0" />
  <line id="mol53:Bond:1" class="event" x1="191.57" y1="216" x2="170.78" y2="228" stroke-width="1.5" opacity="0" />
  <line id="mol53:Bond:3" class="event" x1="170.78" y1="228" x2="150" y2="216" stroke-width="1.5" opacity="0" />
  <line id="mol53:Bond:4" class="event" x1="150" y1="216" x2="150" y2="192" stroke-width="1.5" opacity="0" />
  <line id="mol53:Bond:5" class="event" x1="150" y1="192" x2="170.78" y2="180" stroke-width="1.5" opacity="0" />
  <line id="mol53:Bond:6" class="event" x1="170.78" y1="180" x2="170.78" y2="156" stroke-width="1.5" opacity="0" />
  <line id="mol53:Bond:7" class="event" x1="170.78" y1="156" x2="150" y2="144" stroke-width="1.5" opacity="0" />
  <line id="mol53:Bond:8" class="event" x1="150" y1="144" x2="129.22" y2="156" stroke-width="1.5" opacity="0" />
  <line id="mol53:Bond:9" class="event" x1="129.22" y1="156" x2="129.22" y2="180" stroke-width="1.5" opacity="0" />
  <line id="mol53:Bond:10" class="event" x1="150" y1="192" x2="129.22" y2="180" stroke-width="1.5" opacity="0" />
  <line id="mol53:Bond:11" class="event" x1="150" y1="144" x2="150" y2="120" stroke-width="1.5" opacity="0" />
  <line id="mol53:Bond:12" class="event" x1="150" y1="120" x2="170.78" y2="108" stroke-width="1.5" opacity="0" />
  <line id="mol53:Bond:13" class="event" x1="170.78" y1="108" x2="170.78" y2="84" stroke-width="1.5" opacity="0" />
  <line id="mol53:Bond:15" class="event" x1="191.57" y1="72" x2="191.57" y2="48" stroke-width="1.5" opacity="0" />
  <line id="mol53:Bond:17" class="event" x1="170.78" y1="36" x2="150" y2="48" stroke-width="1.5" opacity="0" />
  <line id="mol53:Bond:19" class="event" x1="170.78" y1="84" x2="150" y2="72" stroke-width="1.5" opacity="0" />
  <line id="mol53:Bond:20" class="event" x1="150" y1="216" x2="129.22" y2="228" stroke-width="1.5" opacity="0" />
  <line id="mol53:Bond:22" class="event" x1="108.43" y1="216" x2="87.65" y2="228" stroke-width="1.5" opacity="0" />
  <line id="mol53:Bond:24" class="event" x1="87.65" y1="252" x2="108.43" y2="264" stroke-width="1.5" opacity="0" />
  <line id="mol53:Bond:26" class="event" x1="129.22" y1="228" x2="129.22" y2="252" stroke-width="1.5" opacity="0" />
  <circle id="mol53:Atom:0" class="event" cx="212.35" cy="228" r="8" opacity="0" />
  <circle id="mol53:Atom:1" class="event" cx="191.57" cy="216" r="8" opacity="0" />
  <circle id="mol53:Atom:2" class="event" cx="170.78" cy="228" r="8" opacity="0" />
  <circle id="mol53:Atom:3" class="event" cx="170.78" cy="252" r="8" opacity="0" />
  <circle id="mol53:Atom:4" class="event" cx="150" cy="216" r="8" opacity="0" />
  <circle id="mol53:Atom:5" class="event" cx="150" cy="192" r="8" opacity="0" />
  <circle id="mol53:Atom:6" class="event" cx="170.78" cy="180" r="8" opacity="0" />
  <circle id="mol53:Atom:7" class="event" cx="170.78" cy="156" r="8" opacity="0" />
  <circle id="mol53:Atom:8" class="event" cx="150" cy="144" r="8" opacity="0" />
  <circle id="mol53:Atom:9" class="event" cx="129.22" cy="156" r="8" opacity="0" />
  <circle id="mol53:Atom:10" class="event" cx="129.22" cy="180" r="8" opacity="0" />
  <circle id="mol53:Atom:11" class="event" cx="150" cy="120" r="8" opacity="0" />
  <circle id="mol53:Atom:12" class="event" cx="170.78" cy="108" r="8" opacity="0" />
  <circle id="mol53:Atom:13" class="event" cx="170.78" cy="84" r="8" opacity="0" />
  <circle id="mol53:Atom:14" class="event" cx="191.57" cy="72" r="8" opacity="0" />
  <circle id="mol53:Atom:15" class="event" cx="191.57" cy="48" r="8" opacity="0" />
  <circle id="mol53:Atom:16" class="event" cx="170.78" cy="36" r="8" opacity="0" />
  <circle id="mol53:Atom:17" class="event" cx="150" cy="48" r="8" opacity="0" />
  <circle id="mol53:Atom:18" class="event" cx="150" cy="72" r="8" opacity="0" />
  <circle id="mol53:Atom:19" class="event" cx="129.22" cy="228" r="8" opacity="0" />
  <circle id="mol53:Atom:20" class="event" cx="108.43" cy="216" r="8" opacity="0" />
  <circle id="mol53:Atom:21" class="event" cx="87.65" cy="228" r="8" opacity="0" />
  <circle id="mol53:Atom:22" class="event" cx="87.65" cy="252" r="8" opacity="0" />
  <circle id="mol53:Atom:23" class="event" cx="108.43" cy="264" r="8" opacity="0" />
  <circle id="mol53:Atom:24" class="event" cx="129.22" cy="252" r="8" opacity="0" />
</svg>