<svg id="mol54" xmlns="http://www.w3.org/2000/svg" version="1.1" width="163px" height="162px" viewBox="68 69 163 162">
  <style> #mol54 text {font-family: sans-serif;} #mol54 { pointer-events:none; } #mol54 .event  { pointer-events:all; } #mol54 line { stroke-linecap:round; } #mol54 polygon { stroke-linejoin:round; } </style>
  <text x="103.99" y="244.66" stroke="none" font-size="12" fill="rgb(160,0,0)">unknown chirality</text>
  <text x="181.61" y="120.53" stroke="none" font-size="14" fill="rgb(248,113,113)">O</text>
  <text x="113.6" y="158" stroke="none" font-size="9" fill="rgb(160,0,0)">?</text>
  <text x="92.62" y="142.58" stroke="none" font-size="14" fill="rgb(129,140,248)">N</text>
  <line x1="183.02" y1="138.85" x2="187" y2="123.31" stroke="rgb(228,226,242)" stroke-width="1.5" />
  <line x1="179.22" y1="139.17" x2="183.52" y2="122.42" stroke="rgb(228,226,242)" stroke-width="1.5" />
  <line x1="160.47" y1="174.17" x2="139.53" y2="186.26" stroke="rgb(228,226,242)" stroke-width="1.5" />
  <line x1="160.05" y1="178.57" x2="143.55" y2="188.09" stroke="rgb(228,226,242)" stroke-width="1.5" />
  <line x1="139.53" y1="210.43" x2="160.47" y2="222.51" stroke="rgb(228,226,242)" stroke-width="1.5" />
  <line x1="143.55" y1="208.59" x2="160.05" y2="218.11" stroke="rgb(228,226,242)" stroke-width="1.5" />
  <line x1="181.4" y1="210.43" x2="181.4" y2="186.26" stroke="rgb(228,226,242)" stroke-width="1.5" />
  <line x1="177.8" y1="207.87" x2="177.8" y2="188.82" stroke="rgb(228,226,242)" stroke-width="1.5" />
  <line x1="160.47" y1="125.83" x2="178.57" y2="112.68" stroke="rgb(228,226,242)" stroke-width="1.5" />
  <line x1="160.61" y1="121.27" x2="174.9" y2="110.9" stroke="rgb(228,226,242)" stroke-width="1.5" />
  <line x1="181.4" y1="89.57" x2="160.47" y2="77.49" stroke="rgb(228,226,242)" stroke-width="1.5" />
  <line x1="177.14" y1="91.27" x2="160.88" y2="81.89" stroke="rgb(228,226,242)" stroke-width="1.5" />
  <line x1="139.53" y1="89.57" x2="139.53" y2="113.74" stroke="rgb(228,226,242)" stroke-width="1.5" />
  <line x1="143.13" y1="92.13" x2="143.13" y2="111.18" stroke="rgb(228,226,242)" stroke-width="1.5" />
  <line x1="223.26" y1="137.91" x2="202.33" y2="150" stroke="rgb(228,226,242)" stroke-width="1.5" />
  <line x1="202.33" y1="150" x2="181.4" y2="137.91" stroke="rgb(228,226,242)" stroke-width="1.5" />
  <line x1="181.4" y1="137.91" x2="160.47" y2="150" stroke="rgb(228,226,242)" stroke-width="1.5" />
  <line x1="160.47" y1="150" x2="139.53" y2="137.91" stroke="rgb(228,226,242)" stroke-width="1.5" />
  <line x1="139.53" y1="137.91" x2="118.6" y2="150" stroke="rgb(228,226,242)" stroke-width="1.5" />
  <line x1="118.6" y1="150" x2="118.6" y2="174.17" stroke="rgb(228,226,242)" stroke-width="1.5" />
  <line x1="118.6" y1="150" x2="103.72" y2="141.41" stroke="rgb(228,226,242)" stroke-width="1.5" />
  <line x1="97.67" y1="130.91" x2="97.67" y2="113.74" stroke="rgb(228,226,242)" stroke-width="1.5" />
  <line x1="91.62" y1="141.41" x2="76.74" y2="150" stroke="rgb(228,226,242)" stroke-width="1.5" />
  <line x1="160.47" y1="150" x2="160.47" y2="174.17" stroke="rgb(228,226,242)" stroke-width="1.5" />
  <line x1="139.53" y1="186.26" x2="139.53" y2="210.43" stroke="rgb(228,226,242)" stroke-width="1.5" />
  <line x1="160.47" y1="222.51" x2="181.4" y2="210.43" stroke="rgb(228,226,242)" stroke-width="1.5" />
  <line x1="160.47" y1="174.17" x2="181.4" y2="186.26" stroke="rgb(228,226,242)" stroke-width="1.5" />
  <line x1="160.47" y1="150" x2="160.47" y2="125.83" stroke="rgb(228,226,242)" stroke-width="1.5" />
  <line x1="178.57" y1="112.68" x2="181.4" y2="89.57" stroke="rgb(228,226,242)" stroke-width="1.5" />
  <line x1="160.47" y1="77.49" x2="139.53" y2="89.57" stroke="rgb(228,226,242)" stroke-width="1.5" />
  <line x1="160.47" y1="125.83" x2="139.53" y2="113.74" stroke="rgb(228,226,242)" stroke-width="1.5" />
  <line id="mol54:Bond:2" class="event" x1="181.4" y1="137.91" x2="187.06" y2="115.87" stroke-width="1.5" opacity="0" />
  <line id="mol54:Bond:11" class="event" x1="160.47" y1="174.17" x2="139.53" y2="186.26" stroke-width="1.5" opacity="0" />
  <line id="mol54:Bond:13" class="event" x1="139.53" y1="210.43" x2="160.47" y2="222.51" stroke-width="1.5" opacity="0" />
  <line id="mol54:Bond:15" class="event" x1="181.4" y1="210.43" x2="181.4" y2="186.26" stroke-width="1.5" opacity="0" />
  <line id="mol54:Bond:18" class="event" x1="160.47" y1="125.83" x2="178.57" y2="112.68" stroke-width="1.5" opacity="0" />
  <line id="mol54:Bond:20" class="event" x1="181.4" y1="89.57" x2="160.47" y2="77.49" stroke-width="1.5" opacity="0" />
  <line id="mol54:Bond:22" class="event" x1="139.53" y1="89.57" x2="139.53" y2="113.74" stroke-width="1.5" opacity="0" />
  <line id="mol54:Bond:0" class="event" x1="223.26" y1="137.91" x2="202.33" y2="150" stroke-width="1.5" opacity="0" />
  <line id="mol54:Bond:1" class="event" x1="202.33" y1="150" x2="181.4" y2="137.91" stroke-width="1.5" opacity="0" />
  <line id="mol54:Bond:3" class="event" x1="181.4" y1="137.91" x2="160.47" y2="150" stroke-width="1.5" opacity="0" />
  <line id="mol54:Bond:4" class="event" x1="160.47" y1="150" x2="139.53" y2="137.91" stroke-width="1.5" opacity="0" />
  <line id="mol54:Bond:5" class="event" x1="139.53" y1="137.91" x2="118.6" y2="150" stroke-width="1.5" opacity="0" />
  <line id="mol54:Bond:6" class="event" x1="118.6" y1="150" x2="118.6" y2="174.17" stroke-width="1.5" opacity="0" />
  <line id="mol54:Bond:7" class="event" x1="118.6" y1="150" x2="97.67" y2="137.91" stroke-width="1.5" opacity="0" />
  <line id="mol54:Bond:8" class="event" x1="97.67" y1="137.91" x2="97.67" y2="113.74" stroke-width="1.5" opacity="0" />
  <line id="mol54:Bond:9" class="event" x1="97.67" y1="137.91" x2="76.74" y2="150" stroke-width="1.5" opacity="0" />
  <line id="mol54:Bond:10" class="event" x1="160.47" y1="150" x2="160.47" y2="174.17" stroke-width="1.5" opacity="0" />
  <line id="mol54:Bond:12" class="event" x1="139.53" y1="186.26" x2="139.53" y2="210.43" stroke-width="1.5" opacity="0" />
  <line id="mol54:Bond:14" class="event" x1="160.47" y1="222.51" x2="181.4" y2="210.43" stroke-width="1.5" opacity="0" />
  <line id="mol54:Bond:16" class="event" x1="160.47" y1="174.17" x2="181.4" y2="186.26" stroke-width="1.5" opacity="0" />
  <line id="mol54:Bond:17" class="event" x1="160.47" y1="150" x2="160.47" y2="125.83" stroke-width="1.5" opacity="0" />
  <line id="mol54:Bond:19" class="event" x1="178.57" y1="112.68" x2="181.4" y2="89.57" stroke-width="1.5" opacity="0" />
  <line id="mol54:Bond:21" class="event" x1="160.47" y1="77.49" x2="139.53" y2="89.57" stroke-width="1.5" opacity="0" />
  <line id="mol54:Bond:23" class="event" x1="160.47" y1="125.83" x2="139.53" y2="113.74" stroke-width="1.5" opacity="0" />
  <circle id="mol54:Atom:0" class="event" cx="223.26" cy="137.91" r="8" opacity="0" />
  <circle id="mol54:Atom:1" class="event" cx="202.33" cy="150" r="8" opacity="0" />
  <circle id="mol54:Atom:2" class="event" cx="181.4" cy="137.91" r="8" opacity="0" />
  <circle id="mol54:Atom:3" class="event" cx="187.06" cy="115.87" r="8" opacity="0" />
  <circle id="mol54:Atom:4" class="event" cx="160.47" cy="150" r="8" opacity="0" />
  <circle id="mol54:Atom:5" class="event" cx="139.53" cy="137.91" r="8" opacity="0" />
  <circle id="mol54:Atom:6" class="event" cx="118.6" cy="150" r="8" opacity="0" />
  <circle id="mol54:Atom:7" class="event" cx="118.6" cy="174.17" r="8" opacity="0" />
  <circle id="mol54:Atom:8" class="event" cx="97.67" cy="137.91" r="8" opacity="0" />
  <circle id="mol54:Atom:9" class="event" cx="97.67" cy="113.74" r="8" opacity="0" />
  <circle id="mol54:Atom:10" class="event" cx="76.74" cy="150" r="8" opacity="0" />
  <circle id="mol54:Atom:11" class="event" cx="160.47" cy="174.17" r="8" opacity="0" />
  <circle id="mol54:Atom:12" class="event" cx="139.53" cy="186.26" r="8" opacity="0" />
  <circle id="mol54:Atom:13" class="event" cx="139.53" cy="210.43" r="8" opacity="0" />
  <circle id="mol54:Atom:14" class="event" cx="160.47" cy="222.51" r="8" opacity="0" />
  <circle id="mol54:Atom:15" class="event" cx="181.4" cy="210.43" r="8" opacity="0" />
  <circle id="mol54:Atom:16" class="event" cx="181.4" cy="186.26" r="8" opacity="0" />
  <circle id="mol54:Atom:17" class="event" cx="160.47" cy="125.83" r="8" opacity="0" />
  <circle id="mol54:Atom:18" class="event" cx="178.57" cy="112.68" r="8" opacity="0" />
  <circle id="mol54:Atom:19" class="event" cx="181.4" cy="89.57" r="8" opacity="0" />
  <circle id="mol54:Atom:20" class="event" cx="160.47" cy="77.49" r="8" opacity="0" />
  <circle id="mol54:Atom:21" class="event" cx="139.53" cy="89.57" r="8" opacity="0" />
  <circle id="mol54:Atom:22" class="event" cx="139.53" cy="113.74" r="8" opacity="0" />
</svg>