<svg id="mol55" xmlns="http://www.w3.org/2000/svg" version="1.1" width="154px" height="142px" viewBox="65 82 154 142">
  <style> #mol55 text {font-family: sans-serif;} #mol55 { pointer-events:none; } #mol55 .event  { pointer-events:all; } #mol55 line { stroke-linecap:round; } #mol55 polygon { stroke-linejoin:round; } </style>
  <text x="184.72" y="119.48" stroke="none" font-size="14" fill="rgb(129,140,248)">N</text>
  <text x="84.38" y="139.56" stroke="none" font-size="14" fill="rgb(129,140,248)">N</text>
  <text x="74.28" y="139.56" stroke="none" font-size="14" fill="rgb(129,140,248)">H</text>
  <text x="144.17" y="213.85" stroke="none" font-size="14" fill="rgb(248,113,113)">O</text>
  <line x1="127.42" y1="126.82" x2="105.5" y2="117.06" stroke="rgb(228,226,242)" stroke-width="1.5" />
  <line x1="123.2" y1="128.88" x2="106.79" y2="121.57" stroke="rgb(228,226,242)" stroke-width="1.5" />
  <line x1="101.44" y1="155.68" x2="124.91" y2="150.69" stroke="rgb(228,226,242)" stroke-width="1.5" />
  <line x1="104.69" y1="158.66" x2="123.16" y2="154.74" stroke="rgb(228,226,242)" stroke-width="1.5" />
  <line x1="140.97" y1="168.52" x2="133.56" y2="191.35" stroke="rgb(228,226,242)" stroke-width="1.5" />
  <line x1="136.76" y1="169.84" x2="130.92" y2="187.8" stroke="rgb(228,226,242)" stroke-width="1.5" />
  <line x1="110.08" y1="196.34" x2="94.02" y2="178.5" stroke="rgb(228,226,242)" stroke-width="1.5" />
  <line x1="111.04" y1="192.02" x2="98.41" y2="178" stroke="rgb(228,226,242)" stroke-width="1.5" />
  <line x1="210.56" y1="126.82" x2="195.83" y2="118.31" stroke="rgb(228,226,242)" stroke-width="1.5" />
  <line x1="189.78" y1="107.82" x2="189.78" y2="90.82" stroke="rgb(228,226,242)" stroke-width="1.5" />
  <line x1="183.72" y1="118.31" x2="168.99" y2="126.82" stroke="rgb(228,226,242)" stroke-width="1.5" />
  <line x1="168.99" y1="126.82" x2="148.21" y2="114.82" stroke="rgb(228,226,242)" stroke-width="1.5" />
  <line x1="148.21" y1="114.82" x2="127.42" y2="126.82" stroke="rgb(228,226,242)" stroke-width="1.5" />
  <line x1="105.5" y1="117.06" x2="95.49" y2="128.17" stroke="rgb(228,226,242)" stroke-width="1.5" />
  <line x1="93.48" y1="141.89" x2="101.44" y2="155.68" stroke="rgb(228,226,242)" stroke-width="1.5" />
  <line x1="127.42" y1="126.82" x2="124.91" y2="150.69" stroke="rgb(228,226,242)" stroke-width="1.5" />
  <line x1="124.91" y1="150.69" x2="140.97" y2="168.52" stroke="rgb(228,226,242)" stroke-width="1.5" />
  <line x1="133.56" y1="191.35" x2="110.08" y2="196.34" stroke="rgb(228,226,242)" stroke-width="1.5" />
  <line x1="101.44" y1="155.68" x2="94.02" y2="178.5" stroke="rgb(228,226,242)" stroke-width="1.5" />
  <line x1="133.56" y1="191.35" x2="143.31" y2="202.18" stroke="rgb(228,226,242)" stroke-width="1.5" />
  <line x1="156.06" y1="207.81" x2="173.09" y2="204.19" stroke="rgb(228,226,242)" stroke-width="1.5" />
  <line id="mol55:Bond:5" class="event" x1="127.42" y1="126.82" x2="105.5" y2="117.06" stroke-width="1.5" opacity="0" />
  <line id="mol55:Bond:8" class="event" x1="101.44" y1="155.68" x2="124.91" y2="150.69" stroke-width="1.5" opacity="0" />
  <line id="mol55:Bond:11" class="event" x1="140.97" y1="168.52" x2="133.56" y2="191.35" stroke-width="1.5" opacity="0" />
  <line id="mol55:Bond:13" class="event" x1="110.08" y1="196.34" x2="94.02" y2="178.5" stroke-width="1.5" opacity="0" />
  <line id="mol55:Bond:0" class="event" x1="210.56" y1="126.82" x2="189.78" y2="114.82" stroke-width="1.5" opacity="0" />
  <line id="mol55:Bond:1" class="event" x1="189.78" y1="114.82" x2="189.78" y2="90.82" stroke-width="1.5" opacity="0" />
  <line id="mol55:Bond:2" class="event" x1="189.78" y1="114.82" x2="168.99" y2="126.82" stroke-width="1.5" opacity="0" />
  <line id="mol55:Bond:3" class="event" x1="168.99" y1="126.82" x2="148.21" y2="114.82" stroke-width="1.5" opacity="0" />
  <line id="mol55:Bond:4" class="event" x1="148.21" y1="114.82" x2="127.42" y2="126.82" stroke-width="1.5" opacity="0" />
  <line id="mol55:Bond:6" class="event" x1="105.5" y1="117.06" x2="89.44" y2="134.89" stroke-width="1.5" opacity="0" />
  <line id="mol55:Bond:7" class="event" x1="89.44" y1="134.89" x2="101.44" y2="155.68" stroke-width="1.5" opacity="0" />
  <line id="mol55:Bond:9" class="event" x1="127.42" y1="126.82" x2="124.91" y2="150.69" stroke-width="1.5" opacity="0" />
  <line id="mol55:Bond:10" class="event" x1="124.91" y1="150.69" x2="140.97" y2="168.52" stroke-width="1.5" opacity="0" />
  <line id="mol55:Bond:12" class="event" x1="133.56" y1="191.35" x2="110.08" y2="196.34" stroke-width="1.5" opacity="0" />
  <line id="mol55:Bond:14" class="event" x1="101.44" y1="155.68" x2="94.02" y2="178.5" stroke-width="1.5" opacity="0" />
  <line id="mol55:Bond:15" class="event" x1="133.56" y1="191.35" x2="149.62" y2="209.18" stroke-width="1.5" opacity="0" />
  <line id="mol55:Bond:16" class="event" x1="149.62" y1="209.18" x2="173.09" y2="204.19" stroke-width="1.5" opacity="0" />
  <circle id="mol55:Atom:0" class="event" cx="210.56" cy="126.82" r="8" opacity="0" />
  <circle id="mol55:Atom:1" class="event" cx="189.78" cy="114.82" r="8" opacity="0" />
  <circle id="mol55:Atom:2" class="event" cx="189.78" cy="90.82" r="8" opacity="0" />
  <circle id="mol55:Atom:3" class="event" cx="168.99" cy="126.82" r="8" opacity="0" />
  <circle id="mol55:Atom:4" class="event" cx="148.21" cy="114.82" r="8" opacity="0" />
  <circle id="mol55:Atom:5" class="event" cx="127.42" cy="126.82" r="8" opacity="0" />
  <circle id="mol55:Atom:6" class="event" cx="105.5" cy="117.06" r="8" opacity="0" />
  <circle id="mol55:Atom:7" class="event" cx="89.44" cy="134.89" r="8" opacity="0" />
  <circle id="mol55:Atom:8" class="event" cx="101.44" cy="155.68" r="8" opacity="0" />
  <circle id="mol55:Atom:9" class="event" cx="124.91" cy="150.69" r="8" opacity="0" />
  <circle id="mol55:Atom:10" class="event" cx="140.97" cy="168.52" r="8" opacity="0" />
  <circle id="mol55:Atom:11" class="event" cx="133.56" cy="191.35" r="8" opacity="0" />
  <circle id="mol55:Atom:12" class="event" cx="110.08" cy="196.34" r="8" opacity="0" />
  <circle id="mol55:Atom:13" class="event" cx="94.02" cy="178.5" r="8" opacity="0" />
  <circle id="mol55:Atom:14" class="event" cx="149.62" cy="209.18" r="8" opacity="0" />
  <circle id="mol55:Atom:15" class="event" cx="173.09" cy="204.19" r="8" opacity="0" />
</svg>