<svg id="mol56" xmlns="http://www.w3.org/2000/svg" version="1.1" width="154px" height="122px" viewBox="65 89 154 122">
  <style> #mol56 text {font-family: sans-serif;} #mol56 { pointer-events:none; } #mol56 .event  { pointer-events:all; } #mol56 line { stroke-linecap:round; } #mol56 polygon { stroke-linejoin:round; } </style>
  <text x="184.72" y="125.91" stroke="none" font-size="14" fill="rgb(129,140,248)">N</text>
  <text x="84.38" y="145.98" stroke="none" font-size="14" fill="rgb(129,140,248)">N</text>
  <text x="74.28" y="145.98" stroke="none" font-size="14" fill="rgb(129,140,248)">H</text>
  <text x="159" y="174.62" stroke="none" font-size="14" fill="rgb(248,113,113)">O</text>
  <text x="169.89" y="174.62" stroke="none" font-size="14" fill="rgb(248,113,113)">H</text>
  <line x1="127.42" y1="133.24" x2="105.5" y2="123.48" stroke="rgb(228,226,242)" stroke-width="1.5" />
  <line x1="123.2" y1="135.3" x2="106.79" y2="127.99" stroke="rgb(228,226,242)" stroke-width="1.5" />
  <line x1="101.44" y1="162.1" x2="124.91" y2="157.11" stroke="rgb(228,226,242)" stroke-width="1.5" />
  <line x1="104.69" y1="165.09" x2="123.16" y2="161.16" stroke="rgb(228,226,242)" stroke-width="1.5" />
  <line x1="140.97" y1="174.94" x2="133.56" y2="197.77" stroke="rgb(228,226,242)" stroke-width="1.5" />
  <line x1="136.76" y1="176.27" x2="130.92" y2="194.22" stroke="rgb(228,226,242)" stroke-width="1.5" />
  <line x1="110.08" y1="202.76" x2="94.02" y2="184.92" stroke="rgb(228,226,242)" stroke-width="1.5" />
  <line x1="111.04" y1="198.45" x2="98.41" y2="184.42" stroke="rgb(228,226,242)" stroke-width="1.5" />
  <line x1="210.56" y1="133.24" x2="195.83" y2="124.74" stroke="rgb(228,226,242)" stroke-width="1.5" />
  <line x1="189.78" y1="114.24" x2="189.78" y2="97.24" stroke="rgb(228,226,242)" stroke-width="1.5" />
  <line x1="183.72" y1="124.74" x2="168.99" y2="133.24" stroke="rgb(228,226,242)" stroke-width="1.5" />
  <line x1="168.99" y1="133.24" x2="148.21" y2="121.24" stroke="rgb(228,226,242)" stroke-width="1.5" />
  <line x1="148.21" y1="121.24" x2="127.42" y2="133.24" stroke="rgb(228,226,242)" stroke-width="1.5" />
  <line x1="105.5" y1="123.48" x2="95.49" y2="134.59" stroke="rgb(228,226,242)" stroke-width="1.5" />
  <line x1="93.48" y1="148.31" x2="101.44" y2="162.1" stroke="rgb(228,226,242)" stroke-width="1.5" />
  <line x1="127.42" y1="133.24" x2="124.91" y2="157.11" stroke="rgb(228,226,242)" stroke-width="1.5" />
  <line x1="124.91" y1="157.11" x2="140.97" y2="174.94" stroke="rgb(228,226,242)" stroke-width="1.5" />
  <line x1="133.56" y1="197.77" x2="110.08" y2="202.76" stroke="rgb(228,226,242)" stroke-width="1.5" />
  <line x1="101.44" y1="162.1" x2="94.02" y2="184.92" stroke="rgb(228,226,242)" stroke-width="1.5" />
  <line x1="140.97" y1="174.94" x2="158" y2="171.32" stroke="rgb(228,226,242)" stroke-width="1.5" />
  <line id="mol56:Bond:5" class="event" x1="127.42" y1="133.24" x2="105.5" y2="123.48" stroke-width="1.5" opacity="0" />
  <line id="mol56:Bond:8" class="event" x1="101.44" y1="162.1" x2="124.91" y2="157.11" stroke-width="1.5" opacity="0" />
  <line id="mol56:Bond:11" class="event" x1="140.97" y1="174.94" x2="133.56" y2="197.77" stroke-width="1.5" opacity="0" />
  <line id="mol56:Bond:13" class="event" x1="110.08" y1="202.76" x2="94.02" y2="184.92" stroke-width="1.5" opacity="0" />
  <line id="mol56:Bond:0" class="event" x1="210.56" y1="133.24" x2="189.78" y2="121.24" stroke-width="1.5" opacity="0" />
  <line id="mol56:Bond:1" class="event" x1="189.78" y1="121.24" x2="189.78" y2="97.24" stroke-width="1.5" opacity="0" />
  <line id="mol56:Bond:2" class="event" x1="189.78" y1="121.24" x2="168.99" y2="133.24" stroke-width="1.5" opacity="0" />
  <line id="mol56:Bond:3" class="event" x1="168.99" y1="133.24" x2="148.21" y2="121.24" stroke-width="1.5" opacity="0" />
  <line id="mol56:Bond:4" class="event" x1="148.21" y1="121.24" x2="127.42" y2="133.24" stroke-width="1.5" opacity="0" />
  <line id="mol56:Bond:6" class="event" x1="105.5" y1="123.48" x2="89.44" y2="141.31" stroke-width="1.5" opacity="0" />
  <line id="mol56:Bond:7" class="event" x1="89.44" y1="141.31" x2="101.44" y2="162.1" stroke-width="1.5" opacity="0" />
  <line id="mol56:Bond:9" class="event" x1="127.42" y1="133.24" x2="124.91" y2="157.11" stroke-width="1.5" opacity="0" />
  <line id="mol56:Bond:10" class="event" x1="124.91" y1="157.11" x2="140.97" y2="174.94" stroke-width="1.5" opacity="0" />
  <line id="mol56:Bond:12" class="event" x1="133.56" y1="197.77" x2="110.08" y2="202.76" stroke-width="1.5" opacity="0" />
  <line id="mol56:Bond:14" class="event" x1="101.44" y1="162.1" x2="94.02" y2="184.92" stroke-width="1.5" opacity="0" />
  <line id="mol56:Bond:15" class="event" x1="140.97" y1="174.94" x2="164.45" y2="169.95" stroke-width="1.5" opacity="0" />
  <circle id="mol56:Atom:0" class="event" cx="210.56" cy="133.24" r="8" opacity="0" />
  <circle id="mol56:Atom:1" class="event" cx="189.78" cy="121.24" r="8" opacity="0" />
  <circle id="mol56:Atom:2" class="event" cx="189.78" cy="97.24" r="8" opacity="0" />
  <circle id="mol56:Atom:3" class="event" cx="168.99" cy="133.24" r="8" opacity="0" />
  <circle id="mol56:Atom:4" class="event" cx="148.21" cy="121.24" r="8" opacity="0" />
  <circle id="mol56:Atom:5" class="event" cx="127.42" cy="133.24" r="8" opacity="0" />
  <circle id="mol56:Atom:6" class="event" cx="105.5" cy="123.48" r="8" opacity="0" />
  <circle id="mol56:Atom:7" class="event" cx="89.44" cy="141.31" r="8" opacity="0" />
  <circle id="mol56:Atom:8" class="event" cx="101.44" cy="162.1" r="8" opacity="0" />
  <circle id="mol56:Atom:9" class="event" cx="124.91" cy="157.11" r="8" opacity="0" />
  <circle id="mol56:Atom:10" class="event" cx="140.97" cy="174.94" r="8" opacity="0" />
  <circle id="mol56:Atom:11" class="event" cx="133.56" cy="197.77" r="8" opacity="0" />
  <circle id="mol56:Atom:12" class="event" cx="110.08" cy="202.76" r="8" opacity="0" />
  <circle id="mol56:Atom:13" class="event" cx="94.02" cy="184.92" r="8" opacity="0" />
  <circle id="mol56:Atom:14" class="event" cx="164.45" cy="169.95" r="8" opacity="0" />
</svg>