<svg id="mol6" xmlns="http://www.w3.org/2000/svg" version="1.1" width="230px" height="122px" viewBox="32 79 230 122">
  <style> #mol6 text {font-family: sans-serif;} #mol6 { pointer-events:none; } #mol6 .event  { pointer-events:all; } #mol6 line { stroke-linecap:round; } #mol6 polygon { stroke-linejoin:round; } </style>
  <text x="101.35" y="214.15" stroke="none" font-size="12" fill="rgb(160,0,0)">unknown chirality</text>
  <text x="228.08" y="112.67" stroke="none" font-size="14" fill="rgb(129,140,248)">N</text>
  <text x="228.08" y="98.67" stroke="none" font-size="14" fill="rgb(129,140,248)">H</text>
  <text x="165.78" y="128" stroke="none" font-size="9" fill="rgb(160,0,0)">?</text>
  <text x="144.55" y="112.67" stroke="none" font-size="14" fill="rgb(248,113,113)">O</text>
  <text x="74.58" y="181.45" stroke="none" font-size="14" fill="rgb(144,224,80)">F</text>
  <text x="41.8" y="172.67" stroke="none" font-size="14" fill="rgb(144,224,80)">F</text>
  <text x="50.58" y="139.88" stroke="none" font-size="14" fill="rgb(144,224,80)">F</text>
  <line x1="170.78" y1="144" x2="150" y2="156" stroke="rgb(228,226,242)" stroke-width="1.5" />
  <line x1="170.37" y1="148.4" x2="154.02" y2="157.84" stroke="rgb(228,226,242)" stroke-width="1.5" />
  <line x1="150" y1="180" x2="170.78" y2="192" stroke="rgb(228,226,242)" stroke-width="1.5" />
  <line x1="154.02" y1="178.16" x2="170.37" y2="187.6" stroke="rgb(228,226,242)" stroke-width="1.5" />
  <line x1="191.57" y1="180" x2="191.57" y2="156" stroke="rgb(228,226,242)" stroke-width="1.5" />
  <line x1="187.97" y1="177.44" x2="187.97" y2="158.56" stroke="rgb(228,226,242)" stroke-width="1.5" />
  <line x1="129.22" y1="120" x2="108.43" y2="108" stroke="rgb(228,226,242)" stroke-width="1.5" />
  <line x1="125.2" y1="121.84" x2="108.85" y2="112.4" stroke="rgb(228,226,242)" stroke-width="1.5" />
  <line x1="87.65" y1="120" x2="87.65" y2="144" stroke="rgb(228,226,242)" stroke-width="1.5" />
  <line x1="91.25" y1="122.56" x2="91.25" y2="141.44" stroke="rgb(228,226,242)" stroke-width="1.5" />
  <line x1="108.43" y1="156" x2="129.22" y2="144" stroke="rgb(228,226,242)" stroke-width="1.5" />
  <line x1="108.85" y1="151.6" x2="125.2" y2="142.16" stroke="rgb(228,226,242)" stroke-width="1.5" />
  <line x1="253.92" y1="120" x2="239.19" y2="111.5" stroke="rgb(228,226,242)" stroke-width="1.5" />
  <line x1="227.08" y1="111.5" x2="212.35" y2="120" stroke="rgb(228,226,242)" stroke-width="1.5" />
  <line x1="212.35" y1="120" x2="191.57" y2="108" stroke="rgb(228,226,242)" stroke-width="1.5" />
  <line x1="191.57" y1="108" x2="170.78" y2="120" stroke="rgb(228,226,242)" stroke-width="1.5" />
  <line x1="170.78" y1="120" x2="170.78" y2="144" stroke="rgb(228,226,242)" stroke-width="1.5" />
  <line x1="150" y1="156" x2="150" y2="180" stroke="rgb(228,226,242)" stroke-width="1.5" />
  <line x1="170.78" y1="192" x2="191.57" y2="180" stroke="rgb(228,226,242)" stroke-width="1.5" />
  <line x1="170.78" y1="144" x2="191.57" y2="156" stroke="rgb(228,226,242)" stroke-width="1.5" />
  <line x1="170.78" y1="120" x2="156.45" y2="111.72" stroke="rgb(228,226,242)" stroke-width="1.5" />
  <line x1="143.55" y1="111.72" x2="129.22" y2="120" stroke="rgb(228,226,242)" stroke-width="1.5" />
  <line x1="108.43" y1="108" x2="87.65" y2="120" stroke="rgb(228,226,242)" stroke-width="1.5" />
  <line x1="87.65" y1="144" x2="108.43" y2="156" stroke="rgb(228,226,242)" stroke-width="1.5" />
  <line x1="129.22" y1="120" x2="129.22" y2="144" stroke="rgb(228,226,242)" stroke-width="1.5" />
  <line x1="87.65" y1="144" x2="66.86" y2="156" stroke="rgb(228,226,242)" stroke-width="1.5" />
  <line x1="66.86" y1="156" x2="74.82" y2="169.78" stroke="rgb(228,226,242)" stroke-width="1.5" />
  <line x1="66.86" y1="156" x2="51.35" y2="164.95" stroke="rgb(228,226,242)" stroke-width="1.5" />
  <line x1="66.86" y1="156" x2="58.9" y2="142.22" stroke="rgb(228,226,242)" stroke-width="1.5" />
  <line id="mol6:Bond:5" class="event" x1="170.78" y1="144" x2="150" y2="156" stroke-width="1.5" opacity="0" />
  <line id="mol6:Bond:7" class="event" x1="150" y1="180" x2="170.78" y2="192" stroke-width="1.5" opacity="0" />
  <line id="mol6:Bond:9" class="event" x1="191.57" y1="180" x2="191.57" y2="156" stroke-width="1.5" opacity="0" />
  <line id="mol6:Bond:13" class="event" x1="129.22" y1="120" x2="108.43" y2="108" stroke-width="1.5" opacity="0" />
  <line id="mol6:Bond:15" class="event" x1="87.65" y1="120" x2="87.65" y2="144" stroke-width="1.5" opacity="0" />
  <line id="mol6:Bond:17" class="event" x1="108.43" y1="156" x2="129.22" y2="144" stroke-width="1.5" opacity="0" />
  <line id="mol6:Bond:0" class="event" x1="253.92" y1="120" x2="233.14" y2="108" stroke-width="1.5" opacity="0" />
  <line id="mol6:Bond:1" class="event" x1="233.14" y1="108" x2="212.35" y2="120" stroke-width="1.5" opacity="0" />
  <line id="mol6:Bond:2" class="event" x1="212.35" y1="120" x2="191.57" y2="108" stroke-width="1.5" opacity="0" />
  <line id="mol6:Bond:3" class="event" x1="191.57" y1="108" x2="170.78" y2="120" stroke-width="1.5" opacity="0" />
  <line id="mol6:Bond:4" class="event" x1="170.78" y1="120" x2="170.78" y2="144" stroke-width="1.5" opacity="0" />
  <line id="mol6:Bond:6" class="event" x1="150" y1="156" x2="150" y2="180" stroke-width="1.5" opacity="0" />
  <line id="mol6:Bond:8" class="event" x1="170.78" y1="192" x2="191.57" y2="180" stroke-width="1.5" opacity="0" />
  <line id="mol6:Bond:10" class="event" x1="170.78" y1="144" x2="191.57" y2="156" stroke-width="1.5" opacity="0" />
  <line id="mol6:Bond:11" class="event" x1="170.78" y1="120" x2="150" y2="108" stroke-width="1.5" opacity="0" />
  <line id="mol6:Bond:12" class="event" x1="150" y1="108" x2="129.22" y2="120" stroke-width="1.5" opacity="0" />
  <line id="mol6:Bond:14" class="event" x1="108.43" y1="108" x2="87.65" y2="120" stroke-width="1.5" opacity="0" />
  <line id="mol6:Bond:16" class="event" x1="87.65" y1="144" x2="108.43" y2="156" stroke-width="1.5" opacity="0" />
  <line id="mol6:Bond:18" class="event" x1="129.22" y1="120" x2="129.22" y2="144" stroke-width="1.5" opacity="0" />
  <line id="mol6:Bond:19" class="event" x1="87.65" y1="144" x2="66.86" y2="156" stroke-width="1.5" opacity="0" />
  <line id="mol6:Bond:20" class="event" x1="66.86" y1="156" x2="78.86" y2="176.78" stroke-width="1.5" opacity="0" />
  <line id="mol6:Bond:21" class="event" x1="66.86" y1="156" x2="46.08" y2="168" stroke-width="1.5" opacity="0" />
  <line id="mol6:Bond:22" class="event" x1="66.86" y1="156" x2="54.86" y2="135.22" stroke-width="1.5" opacity="0" />
  <circle id="mol6:Atom:0" class="event" cx="253.92" cy="120" r="8" opacity="0" />
  <circle id="mol6:Atom:1" class="event" cx="233.14" cy="108" r="8" opacity="0" />
  <circle id="mol6:Atom:2" class="event" cx="212.35" cy="120" r="8" opacity="0" />
  <circle id="mol6:Atom:3" class="event" cx="191.57" cy="108" r="8" opacity="0" />
  <circle id="mol6:Atom:4" class="event" cx="170.78" cy="120" r="8" opacity="0" />
  <circle id="mol6:Atom:5" class="event" cx="170.78" cy="144" r="8" opacity="0" />
  <circle id="mol6:Atom:6" class="event" cx="150" cy="156" r="8" opacity="0" />
  <circle id="mol6:Atom:7" class="event" cx="150" cy="180" r="8" opacity="0" />
  <circle id="mol6:Atom:8" class="event" cx="170.78" cy="192" r="8" opacity="0" />
  <circle id="mol6:Atom:9" class="event" cx="191.57" cy="180" r="8" opacity="0" />
  <circle id="mol6:Atom:10" class="event" cx="191.57" cy="156" r="8" opacity="0" />
  <circle id="mol6:Atom:11" class="event" cx="150" cy="108" r="8" opacity="0" />
  <circle id="mol6:Atom:12" class="event" cx="129.22" cy="120" r="8" opacity="0" />
  <circle id="mol6:Atom:13" class="event" cx="108.43" cy="108" r="8" opacity="0" />
  <circle id="mol6:Atom:14" class="event" cx="87.65" cy="120" r="8" opacity="0" />
  <circle id="mol6:Atom:15" class="event" cx="87.65" cy="144" r="8" opacity="0" />
  <circle id="mol6:Atom:16" class="event" cx="108.43" cy="156" r="8" opacity="0" />
  <circle id="mol6:Atom:17" class="event" cx="129.22" cy="144" r="8" opacity="0" />
  <circle id="mol6:Atom:18" class="event" cx="66.86" cy="156" r="8" opacity="0" />
  <circle id="mol6:Atom:19" class="event" cx="78.86" cy="176.78" r="8" opacity="0" />
  <circle id="mol6:Atom:20" class="event" cx="46.08" cy="168" r="8" opacity="0" />
  <circle id="mol6:Atom:21" class="event" cx="54.86" cy="135.22" r="8" opacity="0" />
</svg>