<svg id="mol60" xmlns="http://www.w3.org/2000/svg" version="1.1" width="278px" height="160px" viewBox="11 70 278 160">
  <style> #mol60 text {font-family: sans-serif;} #mol60 { pointer-events:none; } #mol60 .event  { pointer-events:all; } #mol60 line { stroke-linecap:round; } #mol60 polygon { stroke-linejoin:round; } </style>
  <text x="213.12" y="147.29" stroke="none" font-size="14" fill="rgb(129,140,248)">N</text>
  <text x="171.55" y="123.29" stroke="none" font-size="14" fill="rgb(129,140,248)">N</text>
  <text x="88.41" y="123.29" stroke="none" font-size="14" fill="rgb(129,140,248)">N</text>
  <text x="61.1" y="90.05" stroke="none" font-size="14" fill="rgb(248,113,113)">O</text>
  <text x="50.42" y="131.36" stroke="none" font-size="14" fill="rgb(129,140,248)">N</text>
  <text x="85.9" y="147.15" stroke="none" font-size="14" fill="rgb(129,140,248)">N</text>
  <text x="253.13" y="219.29" stroke="none" font-size="14" fill="rgb(31,240,31)">Cl</text>
  <line x1="73.57" y1="109.76" x2="69.79" y2="92.01" stroke="rgb(228,226,242)" stroke-width="1.5" />
  <line x1="70.05" y1="110.51" x2="66.27" y2="92.76" stroke="rgb(228,226,242)" stroke-width="1.5" />
  <line x1="31.48" y1="126.69" x2="19.48" y2="147.48" stroke="rgb(228,226,242)" stroke-width="1.5" />
  <line x1="33.31" y1="130.71" x2="23.88" y2="147.06" stroke="rgb(228,226,242)" stroke-width="1.5" />
  <line x1="31.48" y1="168.26" x2="55.48" y2="168.26" stroke="rgb(228,226,242)" stroke-width="1.5" />
  <line x1="34.04" y1="164.66" x2="52.92" y2="164.66" stroke="rgb(228,226,242)" stroke-width="1.5" />
  <line x1="67.48" y1="147.48" x2="84.9" y2="143.77" stroke="rgb(228,226,242)" stroke-width="1.5" />
  <line x1="69.68" y1="143.33" x2="84.15" y2="140.25" stroke="rgb(228,226,242)" stroke-width="1.5" />
  <line x1="238.95" y1="154.62" x2="238.95" y2="178.62" stroke="rgb(228,226,242)" stroke-width="1.5" />
  <line x1="242.55" y1="157.18" x2="242.55" y2="176.06" stroke="rgb(228,226,242)" stroke-width="1.5" />
  <line x1="259.74" y1="190.62" x2="280.52" y2="178.62" stroke="rgb(228,226,242)" stroke-width="1.5" />
  <line x1="260.16" y1="186.22" x2="276.51" y2="176.78" stroke="rgb(228,226,242)" stroke-width="1.5" />
  <line x1="280.52" y1="154.62" x2="259.74" y2="142.62" stroke="rgb(228,226,242)" stroke-width="1.5" />
  <line x1="276.51" y1="156.46" x2="260.16" y2="147.02" stroke="rgb(228,226,242)" stroke-width="1.5" />
  <line x1="176.6" y1="142.62" x2="197.38" y2="154.62" stroke="rgb(228,226,242)" stroke-width="1.5" />
  <line x1="197.38" y1="154.62" x2="212.12" y2="146.11" stroke="rgb(228,226,242)" stroke-width="1.5" />
  <line x1="218.17" y1="135.62" x2="218.17" y2="118.62" stroke="rgb(228,226,242)" stroke-width="1.5" />
  <line x1="218.17" y1="118.62" x2="197.38" y2="106.62" stroke="rgb(228,226,242)" stroke-width="1.5" />
  <line x1="197.38" y1="106.62" x2="182.65" y2="115.12" stroke="rgb(228,226,242)" stroke-width="1.5" />
  <line x1="176.6" y1="142.62" x2="176.6" y2="125.62" stroke="rgb(228,226,242)" stroke-width="1.5" />
  <line x1="170.55" y1="115.12" x2="155.82" y2="106.62" stroke="rgb(228,226,242)" stroke-width="1.5" />
  <line x1="155.82" y1="106.62" x2="135.03" y2="118.62" stroke="rgb(228,226,242)" stroke-width="1.5" />
  <line x1="135.03" y1="118.62" x2="114.25" y2="106.62" stroke="rgb(228,226,242)" stroke-width="1.5" />
  <line x1="114.25" y1="106.62" x2="99.52" y2="115.12" stroke="rgb(228,226,242)" stroke-width="1.5" />
  <line x1="87.41" y1="115.92" x2="71.54" y2="108.86" stroke="rgb(228,226,242)" stroke-width="1.5" />
  <line x1="71.54" y1="108.86" x2="61.53" y2="119.97" stroke="rgb(228,226,242)" stroke-width="1.5" />
  <line x1="49.42" y1="126.69" x2="31.48" y2="126.69" stroke="rgb(228,226,242)" stroke-width="1.5" />
  <line x1="19.48" y1="147.48" x2="31.48" y2="168.26" stroke="rgb(228,226,242)" stroke-width="1.5" />
  <line x1="55.48" y1="168.26" x2="67.48" y2="147.48" stroke="rgb(228,226,242)" stroke-width="1.5" />
  <line x1="59.52" y1="133.69" x2="67.48" y2="147.48" stroke="rgb(228,226,242)" stroke-width="1.5" />
  <line x1="92.73" y1="125.62" x2="91.69" y2="135.49" stroke="rgb(228,226,242)" stroke-width="1.5" />
  <line x1="224.22" y1="146.11" x2="238.95" y2="154.62" stroke="rgb(228,226,242)" stroke-width="1.5" />
  <line x1="238.95" y1="178.62" x2="259.74" y2="190.62" stroke="rgb(228,226,242)" stroke-width="1.5" />
  <line x1="280.52" y1="178.62" x2="280.52" y2="154.62" stroke="rgb(228,226,242)" stroke-width="1.5" />
  <line x1="238.95" y1="154.62" x2="259.74" y2="142.62" stroke="rgb(228,226,242)" stroke-width="1.5" />
  <line x1="259.74" y1="190.62" x2="259.74" y2="207.62" stroke="rgb(228,226,242)" stroke-width="1.5" />
  <line id="mol60:Bond:11" class="event" x1="71.54" y1="108.86" x2="66.55" y2="85.38" stroke-width="1.5" opacity="0" />
  <line id="mol60:Bond:14" class="event" x1="31.48" y1="126.69" x2="19.48" y2="147.48" stroke-width="1.5" opacity="0" />
  <line id="mol60:Bond:16" class="event" x1="31.48" y1="168.26" x2="55.48" y2="168.26" stroke-width="1.5" opacity="0" />
  <line id="mol60:Bond:19" class="event" x1="67.48" y1="147.48" x2="90.95" y2="142.49" stroke-width="1.5" opacity="0" />
  <line id="mol60:Bond:22" class="event" x1="238.95" y1="154.62" x2="238.95" y2="178.62" stroke-width="1.5" opacity="0" />
  <line id="mol60:Bond:24" class="event" x1="259.74" y1="190.62" x2="280.52" y2="178.62" stroke-width="1.5" opacity="0" />
  <line id="mol60:Bond:26" class="event" x1="280.52" y1="154.62" x2="259.74" y2="142.62" stroke-width="1.5" opacity="0" />
  <line id="mol60:Bond:0" class="event" x1="176.6" y1="142.62" x2="197.38" y2="154.62" stroke-width="1.5" opacity="0" />
  <line id="mol60:Bond:1" class="event" x1="197.38" y1="154.62" x2="218.17" y2="142.62" stroke-width="1.5" opacity="0" />
  <line id="mol60:Bond:2" class="event" x1="218.17" y1="142.62" x2="218.17" y2="118.62" stroke-width="1.5" opacity="0" />
  <line id="mol60:Bond:3" class="event" x1="218.17" y1="118.62" x2="197.38" y2="106.62" stroke-width="1.5" opacity="0" />
  <line id="mol60:Bond:4" class="event" x1="197.38" y1="106.62" x2="176.6" y2="118.62" stroke-width="1.5" opacity="0" />
  <line id="mol60:Bond:5" class="event" x1="176.6" y1="142.62" x2="176.6" y2="118.62" stroke-width="1.5" opacity="0" />
  <line id="mol60:Bond:6" class="event" x1="176.6" y1="118.62" x2="155.82" y2="106.62" stroke-width="1.5" opacity="0" />
  <line id="mol60:Bond:7" class="event" x1="155.82" y1="106.62" x2="135.03" y2="118.62" stroke-width="1.5" opacity="0" />
  <line id="mol60:Bond:8" class="event" x1="135.03" y1="118.62" x2="114.25" y2="106.62" stroke-width="1.5" opacity="0" />
  <line id="mol60:Bond:9" class="event" x1="114.25" y1="106.62" x2="93.46" y2="118.62" stroke-width="1.5" opacity="0" />
  <line id="mol60:Bond:10" class="event" x1="93.46" y1="118.62" x2="71.54" y2="108.86" stroke-width="1.5" opacity="0" />
  <line id="mol60:Bond:12" class="event" x1="71.54" y1="108.86" x2="55.48" y2="126.69" stroke-width="1.5" opacity="0" />
  <line id="mol60:Bond:13" class="event" x1="55.48" y1="126.69" x2="31.48" y2="126.69" stroke-width="1.5" opacity="0" />
  <line id="mol60:Bond:15" class="event" x1="19.48" y1="147.48" x2="31.48" y2="168.26" stroke-width="1.5" opacity="0" />
  <line id="mol60:Bond:17" class="event" x1="55.48" y1="168.26" x2="67.48" y2="147.48" stroke-width="1.5" opacity="0" />
  <line id="mol60:Bond:18" class="event" x1="55.48" y1="126.69" x2="67.48" y2="147.48" stroke-width="1.5" opacity="0" />
  <line id="mol60:Bond:20" class="event" x1="93.46" y1="118.62" x2="90.95" y2="142.49" stroke-width="1.5" opacity="0" />
  <line id="mol60:Bond:21" class="event" x1="218.17" y1="142.62" x2="238.95" y2="154.62" stroke-width="1.5" opacity="0" />
  <line id="mol60:Bond:23" class="event" x1="238.95" y1="178.62" x2="259.74" y2="190.62" stroke-width="1.5" opacity="0" />
  <line id="mol60:Bond:25" class="event" x1="280.52" y1="178.62" x2="280.52" y2="154.62" stroke-width="1.5" opacity="0" />
  <line id="mol60:Bond:27" class="event" x1="238.95" y1="154.62" x2="259.74" y2="142.62" stroke-width="1.5" opacity="0" />
  <line id="mol60:Bond:28" class="event" x1="259.74" y1="190.62" x2="259.74" y2="214.62" stroke-width="1.5" opacity="0" />
  <circle id="mol60:Atom:0" class="event" cx="176.6" cy="142.62" r="8" opacity="0" />
  <circle id="mol60:Atom:1" class="event" cx="197.38" cy="154.62" r="8" opacity="0" />
  <circle id="mol60:Atom:2" class="event" cx="218.17" cy="142.62" r="8" opacity="0" />
  <circle id="mol60:Atom:3" class="event" cx="218.17" cy="118.62" r="8" opacity="0" />
  <circle id="mol60:Atom:4" class="event" cx="197.38" cy="106.62" r="8" opacity="0" />
  <circle id="mol60:Atom:5" class="event" cx="176.6" cy="118.62" r="8" opacity="0" />
  <circle id="mol60:Atom:6" class="event" cx="155.82" cy="106.62" r="8" opacity="0" />
  <circle id="mol60:Atom:7" class="event" cx="135.03" cy="118.62" r="8" opacity="0" />
  <circle id="mol60:Atom:8" class="event" cx="114.25" cy="106.62" r="8" opacity="0" />
  <circle id="mol60:Atom:9" class="event" cx="93.46" cy="118.62" r="8" opacity="0" />
  <circle id="mol60:Atom:10" class="event" cx="71.54" cy="108.86" r="8" opacity="0" />
  <circle id="mol60:Atom:11" class="event" cx="66.55" cy="85.38" r="8" opacity="0" />
  <circle id="mol60:Atom:12" class="event" cx="55.48" cy="126.69" r="8" opacity="0" />
  <circle id="mol60:Atom:13" class="event" cx="31.48" cy="126.69" r="8" opacity="0" />
  <circle id="mol60:Atom:14" class="event" cx="19.48" cy="147.48" r="8" opacity="0" />
  <circle id="mol60:Atom:15" class="event" cx="31.48" cy="168.26" r="8" opacity="0" />
  <circle id="mol60:Atom:16" class="event" cx="55.48" cy="168.26" r="8" opacity="0" />
  <circle id="mol60:Atom:17" class="event" cx="67.48" cy="147.48" r="8" opacity="0" />
  <circle id="mol60:Atom:18" class="event" cx="90.95" cy="142.49" r="8" opacity="0" />
  <circle id="mol60:Atom:19" class="event" cx="238.95" cy="154.62" r="8" opacity="0" />
  <circle id="mol60:Atom:20" class="event" cx="238.95" cy="178.62" r="8" opacity="0" />
  <circle id="mol60:Atom:21" class="event" cx="259.74" cy="190.62" r="8" opacity="0" />
  <circle id="mol60:Atom:22" class="event" cx="280.52" cy="178.62" r="8" opacity="0" />
  <circle id="mol60:Atom:23" class="event" cx="280.52" cy="154.62" r="8" opacity="0" />
  <circle id="mol60:Atom:24" class="event" cx="259.74" cy="142.62" r="8" opacity="0" />
  <circle id="mol60:Atom:25" class="event" cx="259.74" cy="214.62" r="8" opacity="0" />
</svg>