<svg id="mol61" xmlns="http://www.w3.org/2000/svg" version="1.1" width="181px" height="141px" viewBox="59 80 181 141">
  <style> #mol61 text {font-family: sans-serif;} #mol61 { pointer-events:none; } #mol61 .event  { pointer-events:all; } #mol61 line { stroke-linecap:round; } #mol61 polygon { stroke-linejoin:round; } </style>
  <text x="206.3" y="145.92" stroke="none" font-size="14" fill="rgb(129,140,248)">N</text>
  <line x1="149" y1="129.26" x2="128.22" y2="141.26" stroke="rgb(228,226,242)" stroke-width="1.5" />
  <line x1="148.58" y1="133.65" x2="132.38" y2="143.01" stroke="rgb(228,226,242)" stroke-width="1.5" />
  <line x1="108.39" y1="127.74" x2="113.73" y2="104.34" stroke="rgb(228,226,242)" stroke-width="1.5" />
  <line x1="105.45" y1="124.44" x2="109.65" y2="106.03" stroke="rgb(228,226,242)" stroke-width="1.5" />
  <line x1="96.13" y1="88.01" x2="73.2" y2="95.09" stroke="rgb(228,226,242)" stroke-width="1.5" />
  <line x1="94.75" y1="92.21" x2="76.71" y2="97.77" stroke="rgb(228,226,242)" stroke-width="1.5" />
  <line x1="67.86" y1="118.49" x2="85.45" y2="134.81" stroke="rgb(228,226,242)" stroke-width="1.5" />
  <line x1="72.19" y1="117.59" x2="86.02" y2="130.43" stroke="rgb(228,226,242)" stroke-width="1.5" />
  <line x1="112.42" y1="181.51" x2="117.76" y2="204.91" stroke="rgb(228,226,242)" stroke-width="1.5" />
  <line x1="116.5" y1="183.21" x2="120.7" y2="201.61" stroke="rgb(228,226,242)" stroke-width="1.5" />
  <line x1="140.69" y1="211.99" x2="158.28" y2="195.66" stroke="rgb(228,226,242)" stroke-width="1.5" />
  <line x1="140.12" y1="207.61" x2="153.96" y2="194.76" stroke="rgb(228,226,242)" stroke-width="1.5" />
  <line x1="152.94" y1="172.26" x2="130.01" y2="165.19" stroke="rgb(228,226,242)" stroke-width="1.5" />
  <line x1="149.44" y1="174.95" x2="131.4" y2="169.38" stroke="rgb(228,226,242)" stroke-width="1.5" />
  <line x1="232.14" y1="129.26" x2="217.41" y2="137.76" stroke="rgb(228,226,242)" stroke-width="1.5" />
  <line x1="211.36" y1="148.26" x2="211.36" y2="165.26" stroke="rgb(228,226,242)" stroke-width="1.5" />
  <line x1="205.3" y1="137.76" x2="190.57" y2="129.26" stroke="rgb(228,226,242)" stroke-width="1.5" />
  <line x1="190.57" y1="129.26" x2="169.79" y2="141.26" stroke="rgb(228,226,242)" stroke-width="1.5" />
  <line x1="169.79" y1="141.26" x2="149" y2="129.26" stroke="rgb(228,226,242)" stroke-width="1.5" />
  <line x1="128.22" y1="141.26" x2="108.39" y2="127.74" stroke="rgb(228,226,242)" stroke-width="1.5" />
  <line x1="113.73" y1="104.34" x2="96.13" y2="88.01" stroke="rgb(228,226,242)" stroke-width="1.5" />
  <line x1="73.2" y1="95.09" x2="67.86" y2="118.49" stroke="rgb(228,226,242)" stroke-width="1.5" />
  <line x1="108.39" y1="127.74" x2="85.45" y2="134.81" stroke="rgb(228,226,242)" stroke-width="1.5" />
  <line x1="85.45" y1="134.81" x2="76.69" y2="157.15" stroke="rgb(228,226,242)" stroke-width="1.5" />
  <line x1="76.69" y1="157.15" x2="88.69" y2="177.94" stroke="rgb(228,226,242)" stroke-width="1.5" />
  <line x1="88.69" y1="177.94" x2="112.42" y2="181.51" stroke="rgb(228,226,242)" stroke-width="1.5" />
  <line x1="117.76" y1="204.91" x2="140.69" y2="211.99" stroke="rgb(228,226,242)" stroke-width="1.5" />
  <line x1="158.28" y1="195.66" x2="152.94" y2="172.26" stroke="rgb(228,226,242)" stroke-width="1.5" />
  <line x1="112.42" y1="181.51" x2="130.01" y2="165.19" stroke="rgb(228,226,242)" stroke-width="1.5" />
  <line x1="128.22" y1="141.26" x2="130.01" y2="165.19" stroke="rgb(228,226,242)" stroke-width="1.5" />
  <line id="mol61:Bond:5" class="event" x1="149" y1="129.26" x2="128.22" y2="141.26" stroke-width="1.5" opacity="0" />
  <line id="mol61:Bond:7" class="event" x1="108.39" y1="127.74" x2="113.73" y2="104.34" stroke-width="1.5" opacity="0" />
  <line id="mol61:Bond:9" class="event" x1="96.13" y1="88.01" x2="73.2" y2="95.09" stroke-width="1.5" opacity="0" />
  <line id="mol61:Bond:11" class="event" x1="67.86" y1="118.49" x2="85.45" y2="134.81" stroke-width="1.5" opacity="0" />
  <line id="mol61:Bond:16" class="event" x1="112.42" y1="181.51" x2="117.76" y2="204.91" stroke-width="1.5" opacity="0" />
  <line id="mol61:Bond:18" class="event" x1="140.69" y1="211.99" x2="158.28" y2="195.66" stroke-width="1.5" opacity="0" />
  <line id="mol61:Bond:20" class="event" x1="152.94" y1="172.26" x2="130.01" y2="165.19" stroke-width="1.5" opacity="0" />
  <line id="mol61:Bond:0" class="event" x1="232.14" y1="129.26" x2="211.36" y2="141.26" stroke-width="1.5" opacity="0" />
  <line id="mol61:Bond:1" class="event" x1="211.36" y1="141.26" x2="211.36" y2="165.26" stroke-width="1.5" opacity="0" />
  <line id="mol61:Bond:2" class="event" x1="211.36" y1="141.26" x2="190.57" y2="129.26" stroke-width="1.5" opacity="0" />
  <line id="mol61:Bond:3" class="event" x1="190.57" y1="129.26" x2="169.79" y2="141.26" stroke-width="1.5" opacity="0" />
  <line id="mol61:Bond:4" class="event" x1="169.79" y1="141.26" x2="149" y2="129.26" stroke-width="1.5" opacity="0" />
  <line id="mol61:Bond:6" class="event" x1="128.22" y1="141.26" x2="108.39" y2="127.74" stroke-width="1.5" opacity="0" />
  <line id="mol61:Bond:8" class="event" x1="113.73" y1="104.34" x2="96.13" y2="88.01" stroke-width="1.5" opacity="0" />
  <line id="mol61:Bond:10" class="event" x1="73.2" y1="95.09" x2="67.86" y2="118.49" stroke-width="1.5" opacity="0" />
  <line id="mol61:Bond:12" class="event" x1="108.39" y1="127.74" x2="85.45" y2="134.81" stroke-width="1.5" opacity="0" />
  <line id="mol61:Bond:13" class="event" x1="85.45" y1="134.81" x2="76.69" y2="157.15" stroke-width="1.5" opacity="0" />
  <line id="mol61:Bond:14" class="event" x1="76.69" y1="157.15" x2="88.69" y2="177.94" stroke-width="1.5" opacity="0" />
  <line id="mol61:Bond:15" class="event" x1="88.69" y1="177.94" x2="112.42" y2="181.51" stroke-width="1.5" opacity="0" />
  <line id="mol61:Bond:17" class="event" x1="117.76" y1="204.91" x2="140.69" y2="211.99" stroke-width="1.5" opacity="0" />
  <line id="mol61:Bond:19" class="event" x1="158.28" y1="195.66" x2="152.94" y2="172.26" stroke-width="1.5" opacity="0" />
  <line id="mol61:Bond:21" class="event" x1="112.42" y1="181.51" x2="130.01" y2="165.19" stroke-width="1.5" opacity="0" />
  <line id="mol61:Bond:22" class="event" x1="128.22" y1="141.26" x2="130.01" y2="165.19" stroke-width="1.5" opacity="0" />
  <circle id="mol61:Atom:0" class="event" cx="232.14" cy="129.26" r="8" opacity="0" />
  <circle id="mol61:Atom:1" class="event" cx="211.36" cy="141.26" r="8" opacity="0" />
  <circle id="mol61:Atom:2" class="event" cx="211.36" cy="165.26" r="8" opacity="0" />
  <circle id="mol61:Atom:3" class="event" cx="190.57" cy="129.26" r="8" opacity="0" />
  <circle id="mol61:Atom:4" class="event" cx="169.79" cy="141.26" r="8" opacity="0" />
  <circle id="mol61:Atom:5" class="event" cx="149" cy="129.26" r="8" opacity="0" />
  <circle id="mol61:Atom:6" class="event" cx="128.22" cy="141.26" r="8" opacity="0" />
  <circle id="mol61:Atom:7" class="event" cx="108.39" cy="127.74" r="8" opacity="0" />
  <circle id="mol61:Atom:8" class="event" cx="113.73" cy="104.34" r="8" opacity="0" />
  <circle id="mol61:Atom:9" class="event" cx="96.13" cy="88.01" r="8" opacity="0" />
  <circle id="mol61:Atom:10" class="event" cx="73.2" cy="95.09" r="8" opacity="0" />
  <circle id="mol61:Atom:11" class="event" cx="67.86" cy="118.49" r="8" opacity="0" />
  <circle id="mol61:Atom:12" class="event" cx="85.45" cy="134.81" r="8" opacity="0" />
  <circle id="mol61:Atom:13" class="event" cx="76.69" cy="157.15" r="8" opacity="0" />
  <circle id="mol61:Atom:14" class="event" cx="88.69" cy="177.94" r="8" opacity="0" />
  <circle id="mol61:Atom:15" class="event" cx="112.42" cy="181.51" r="8" opacity="0" />
  <circle id="mol61:Atom:16" class="event" cx="117.76" cy="204.91" r="8" opacity="0" />
  <circle id="mol61:Atom:17" class="event" cx="140.69" cy="211.99" r="8" opacity="0" />
  <circle id="mol61:Atom:18" class="event" cx="158.28" cy="195.66" r="8" opacity="0" />
  <circle id="mol61:Atom:19" class="event" cx="152.94" cy="172.26" r="8" opacity="0" />
  <circle id="mol61:Atom:20" class="event" cx="130.01" cy="165.19" r="8" opacity="0" />
</svg>