<svg id="mol62" xmlns="http://www.w3.org/2000/svg" version="1.1" width="183px" height="137px" viewBox="58 82 183 137">
  <style> #mol62 text {font-family: sans-serif;} #mol62 { pointer-events:none; } #mol62 .event  { pointer-events:all; } #mol62 line { stroke-linecap:round; } #mol62 polygon { stroke-linejoin:round; } </style>
  <text x="207.3" y="166.67" stroke="none" font-size="14" fill="rgb(129,140,248)">N</text>
  <text x="144.55" y="178.67" stroke="none" font-size="14" fill="rgb(248,113,113)">O</text>
  <line x1="129.22" y1="138" x2="150" y2="126" stroke="rgb(228,226,242)" stroke-width="1.5" />
  <line x1="129.63" y1="133.6" x2="145.98" y2="124.16" stroke="rgb(228,226,242)" stroke-width="1.5" />
  <line x1="150" y1="102" x2="129.22" y2="90" stroke="rgb(228,226,242)" stroke-width="1.5" />
  <line x1="145.98" y1="103.84" x2="129.63" y2="94.4" stroke="rgb(228,226,242)" stroke-width="1.5" />
  <line x1="108.43" y1="102" x2="108.43" y2="126" stroke="rgb(228,226,242)" stroke-width="1.5" />
  <line x1="112.03" y1="104.56" x2="112.03" y2="123.44" stroke="rgb(228,226,242)" stroke-width="1.5" />
  <line x1="108.43" y1="174" x2="87.65" y2="162" stroke="rgb(228,226,242)" stroke-width="1.5" />
  <line x1="104.41" y1="175.84" x2="88.06" y2="166.4" stroke="rgb(228,226,242)" stroke-width="1.5" />
  <line x1="66.86" y1="174" x2="66.86" y2="198" stroke="rgb(228,226,242)" stroke-width="1.5" />
  <line x1="70.46" y1="176.56" x2="70.46" y2="195.44" stroke="rgb(228,226,242)" stroke-width="1.5" />
  <line x1="87.65" y1="210" x2="108.43" y2="198" stroke="rgb(228,226,242)" stroke-width="1.5" />
  <line x1="88.06" y1="205.6" x2="104.41" y2="196.16" stroke="rgb(228,226,242)" stroke-width="1.5" />
  <line x1="233.14" y1="174" x2="218.41" y2="165.5" stroke="rgb(228,226,242)" stroke-width="1.5" />
  <line x1="212.35" y1="155" x2="212.35" y2="138" stroke="rgb(228,226,242)" stroke-width="1.5" />
  <line x1="206.3" y1="165.5" x2="191.57" y2="174" stroke="rgb(228,226,242)" stroke-width="1.5" />
  <line x1="191.57" y1="174" x2="170.78" y2="162" stroke="rgb(228,226,242)" stroke-width="1.5" />
  <line x1="170.78" y1="162" x2="156.45" y2="170.28" stroke="rgb(228,226,242)" stroke-width="1.5" />
  <line x1="143.55" y1="170.28" x2="129.22" y2="162" stroke="rgb(228,226,242)" stroke-width="1.5" />
  <line x1="129.22" y1="162" x2="129.22" y2="138" stroke="rgb(228,226,242)" stroke-width="1.5" />
  <line x1="150" y1="126" x2="150" y2="102" stroke="rgb(228,226,242)" stroke-width="1.5" />
  <line x1="129.22" y1="90" x2="108.43" y2="102" stroke="rgb(228,226,242)" stroke-width="1.5" />
  <line x1="129.22" y1="138" x2="108.43" y2="126" stroke="rgb(228,226,242)" stroke-width="1.5" />
  <line x1="129.22" y1="162" x2="108.43" y2="174" stroke="rgb(228,226,242)" stroke-width="1.5" />
  <line x1="87.65" y1="162" x2="66.86" y2="174" stroke="rgb(228,226,242)" stroke-width="1.5" />
  <line x1="66.86" y1="198" x2="87.65" y2="210" stroke="rgb(228,226,242)" stroke-width="1.5" />
  <line x1="108.43" y1="174" x2="108.43" y2="198" stroke="rgb(228,226,242)" stroke-width="1.5" />
  <line id="mol62:Bond:7" class="event" x1="129.22" y1="138" x2="150" y2="126" stroke-width="1.5" opacity="0" />
  <line id="mol62:Bond:9" class="event" x1="150" y1="102" x2="129.22" y2="90" stroke-width="1.5" opacity="0" />
  <line id="mol62:Bond:11" class="event" x1="108.43" y1="102" x2="108.43" y2="126" stroke-width="1.5" opacity="0" />
  <line id="mol62:Bond:14" class="event" x1="108.43" y1="174" x2="87.65" y2="162" stroke-width="1.5" opacity="0" />
  <line id="mol62:Bond:16" class="event" x1="66.86" y1="174" x2="66.86" y2="198" stroke-width="1.5" opacity="0" />
  <line id="mol62:Bond:18" class="event" x1="87.65" y1="210" x2="108.43" y2="198" stroke-width="1.5" opacity="0" />
  <line id="mol62:Bond:0" class="event" x1="233.14" y1="174" x2="212.35" y2="162" stroke-width="1.5" opacity="0" />
  <line id="mol62:Bond:1" class="event" x1="212.35" y1="162" x2="212.35" y2="138" stroke-width="1.5" opacity="0" />
  <line id="mol62:Bond:2" class="event" x1="212.35" y1="162" x2="191.57" y2="174" stroke-width="1.5" opacity="0" />
  <line id="mol62:Bond:3" class="event" x1="191.57" y1="174" x2="170.78" y2="162" stroke-width="1.5" opacity="0" />
  <line id="mol62:Bond:4" class="event" x1="170.78" y1="162" x2="150" y2="174" stroke-width="1.5" opacity="0" />
  <line id="mol62:Bond:5" class="event" x1="150" y1="174" x2="129.22" y2="162" stroke-width="1.5" opacity="0" />
  <line id="mol62:Bond:6" class="event" x1="129.22" y1="162" x2="129.22" y2="138" stroke-width="1.5" opacity="0" />
  <line id="mol62:Bond:8" class="event" x1="150" y1="126" x2="150" y2="102" stroke-width="1.5" opacity="0" />
  <line id="mol62:Bond:10" class="event" x1="129.22" y1="90" x2="108.43" y2="102" stroke-width="1.5" opacity="0" />
  <line id="mol62:Bond:12" class="event" x1="129.22" y1="138" x2="108.43" y2="126" stroke-width="1.5" opacity="0" />
  <line id="mol62:Bond:13" class="event" x1="129.22" y1="162" x2="108.43" y2="174" stroke-width="1.5" opacity="0" />
  <line id="mol62:Bond:15" class="event" x1="87.65" y1="162" x2="66.86" y2="174" stroke-width="1.5" opacity="0" />
  <line id="mol62:Bond:17" class="event" x1="66.86" y1="198" x2="87.65" y2="210" stroke-width="1.5" opacity="0" />
  <line id="mol62:Bond:19" class="event" x1="108.43" y1="174" x2="108.43" y2="198" stroke-width="1.5" opacity="0" />
  <circle id="mol62:Atom:0" class="event" cx="233.14" cy="174" r="8" opacity="0" />
  <circle id="mol62:Atom:1" class="event" cx="212.35" cy="162" r="8" opacity="0" />
  <circle id="mol62:Atom:2" class="event" cx="212.35" cy="138" r="8" opacity="0" />
  <circle id="mol62:Atom:3" class="event" cx="191.57" cy="174" r="8" opacity="0" />
  <circle id="mol62:Atom:4" class="event" cx="170.78" cy="162" r="8" opacity="0" />
  <circle id="mol62:Atom:5" class="event" cx="150" cy="174" r="8" opacity="0" />
  <circle id="mol62:Atom:6" class="event" cx="129.22" cy="162" r="8" opacity="0" />
  <circle id="mol62:Atom:7" class="event" cx="129.22" cy="138" r="8" opacity="0" />
  <circle id="mol62:Atom:8" class="event" cx="150" cy="126" r="8" opacity="0" />
  <circle id="mol62:Atom:9" class="event" cx="150" cy="102" r="8" opacity="0" />
  <circle id="mol62:Atom:10" class="event" cx="129.22" cy="90" r="8" opacity="0" />
  <circle id="mol62:Atom:11" class="event" cx="108.43" cy="102" r="8" opacity="0" />
  <circle id="mol62:Atom:12" class="event" cx="108.43" cy="126" r="8" opacity="0" />
  <circle id="mol62:Atom:13" class="event" cx="108.43" cy="174" r="8" opacity="0" />
  <circle id="mol62:Atom:14" class="event" cx="87.65" cy="162" r="8" opacity="0" />
  <circle id="mol62:Atom:15" class="event" cx="66.86" cy="174" r="8" opacity="0" />
  <circle id="mol62:Atom:16" class="event" cx="66.86" cy="198" r="8" opacity="0" />
  <circle id="mol62:Atom:17" class="event" cx="87.65" cy="210" r="8" opacity="0" />
  <circle id="mol62:Atom:18" class="event" cx="108.43" cy="198" r="8" opacity="0" />
</svg>