<svg id="mol64" xmlns="http://www.w3.org/2000/svg" version="1.1" width="191px" height="212px" viewBox="54 44 191 212">
  <style> #mol64 text {font-family: sans-serif;} #mol64 { pointer-events:none; } #mol64 .event  { pointer-events:all; } #mol64 line { stroke-linecap:round; } #mol64 polygon { stroke-linejoin:round; } </style>
  <text x="108.98" y="269.53" stroke="none" font-size="12" fill="rgb(160,0,0)">this enantiomer</text>
  <text x="98.32" y="176.38" stroke="none" font-size="9" fill="rgb(160,0,0)">S</text>
  <text x="102.53" y="168.23" stroke="none" font-size="9" fill="rgb(160,0,0)">abs</text>
  <text x="120.06" y="137.05" stroke="none" font-size="14" fill="rgb(129,140,248)">N</text>
  <text x="139.89" y="152.38" stroke="none" font-size="9" fill="rgb(160,0,0)">S</text>
  <text x="138.64" y="141.08" stroke="none" font-size="9" fill="rgb(160,0,0)">abs</text>
  <text x="119.11" y="188.38" stroke="none" font-size="9" fill="rgb(160,0,0)">S</text>
  <text x="117.86" y="177.08" stroke="none" font-size="9" fill="rgb(160,0,0)">abs</text>
  <text x="161.23" y="209.05" stroke="none" font-size="14" fill="rgb(248,113,113)">O</text>
  <text x="98.88" y="245.05" stroke="none" font-size="14" fill="rgb(248,113,113)">O</text>
  <text x="78.1" y="209.05" stroke="none" font-size="14" fill="rgb(248,113,113)">O</text>
  <text x="184.45" y="144.46" stroke="none" font-size="14" fill="rgb(129,140,248)">N</text>
  <text x="194.56" y="144.46" stroke="none" font-size="14" fill="rgb(129,140,248)">H</text>
  <text x="179.71" y="64.29" stroke="none" font-size="14" fill="rgb(248,113,113)">O</text>
  <line x1="166.68" y1="108.38" x2="166.68" y2="132.38" stroke="rgb(228,226,242)" stroke-width="1.5" />
  <line x1="170.28" y1="111.39" x2="170.28" y2="129.36" stroke="rgb(228,226,242)" stroke-width="1.5" />
  <line x1="125.11" y1="204.38" x2="145.9" y2="216.38" stroke="rgb(228,226,242)" stroke-width="1.5" />
  <line x1="129.13" y1="202.54" x2="145.48" y2="211.98" stroke="rgb(228,226,242)" stroke-width="1.5" />
  <line x1="102.53" y1="215.34" x2="102.53" y2="233.38" stroke="rgb(228,226,242)" stroke-width="1.5" />
  <line x1="106.13" y1="215.34" x2="106.13" y2="233.38" stroke="rgb(228,226,242)" stroke-width="1.5" />
  <line x1="203.61" y1="120.38" x2="189.51" y2="100.96" stroke="rgb(228,226,242)" stroke-width="1.5" />
  <line x1="205.02" y1="116.19" x2="193.92" y2="100.92" stroke="rgb(228,226,242)" stroke-width="1.5" />
  <line x1="199.27" y1="79.04" x2="223.14" y2="76.53" stroke="rgb(228,226,242)" stroke-width="1.5" />
  <line x1="202.19" y1="82.35" x2="220.97" y2="80.38" stroke="rgb(228,226,242)" stroke-width="1.5" />
  <line x1="237.24" y1="95.95" x2="227.48" y2="117.87" stroke="rgb(228,226,242)" stroke-width="1.5" />
  <line x1="232.91" y1="96.82" x2="225.23" y2="114.07" stroke="rgb(228,226,242)" stroke-width="1.5" />
  <line x1="62.76" y1="168.38" x2="83.54" y2="180.38" stroke="rgb(228,226,242)" stroke-width="1.5" />
  <line x1="101.69" y1="169.47" x2="102.07" y2="170.12" stroke="rgb(160,0,0)" stroke-width="1.5" />
  <line x1="99.06" y1="170.55" x2="99.81" y2="171.85" stroke="rgb(160,0,0)" stroke-width="1.5" />
  <line x1="96.43" y1="171.64" x2="97.55" y2="173.59" stroke="rgb(160,0,0)" stroke-width="1.5" />
  <line x1="93.8" y1="172.73" x2="95.3" y2="175.33" stroke="rgb(160,0,0)" stroke-width="1.5" />
  <line x1="91.16" y1="173.81" x2="93.04" y2="177.06" stroke="rgb(160,0,0)" stroke-width="1.5" />
  <line x1="88.53" y1="174.9" x2="90.78" y2="178.8" stroke="rgb(160,0,0)" stroke-width="1.5" />
  <line x1="85.9" y1="175.99" x2="88.52" y2="180.53" stroke="rgb(160,0,0)" stroke-width="1.5" />
  <line x1="83.26" y1="177.07" x2="86.26" y2="182.27" stroke="rgb(160,0,0)" stroke-width="1.5" />
  <line x1="104.33" y1="168.38" x2="104.33" y2="144.38" stroke="rgb(228,226,242)" stroke-width="1.5" />
  <line x1="104.33" y1="144.38" x2="119.06" y2="135.87" stroke="rgb(228,226,242)" stroke-width="1.5" />
  <line x1="125.11" y1="125.38" x2="125.11" y2="108.38" stroke="rgb(228,226,242)" stroke-width="1.5" />
  <line x1="125.11" y1="108.38" x2="145.9" y2="96.38" stroke="rgb(228,226,242)" stroke-width="1.5" />
  <line x1="145.9" y1="96.38" x2="166.68" y2="108.38" stroke="rgb(228,226,242)" stroke-width="1.5" />
  <line x1="166.68" y1="132.38" x2="145.9" y2="144.38" stroke="rgb(228,226,242)" stroke-width="1.5" />
  <line x1="143.64" y1="142.64" x2="143.26" y2="143.29" stroke="rgb(160,0,0)" stroke-width="1.5" />
  <line x1="141.38" y1="140.91" x2="140.63" y2="142.2" stroke="rgb(160,0,0)" stroke-width="1.5" />
  <line x1="139.12" y1="139.17" x2="138" y2="141.12" stroke="rgb(160,0,0)" stroke-width="1.5" />
  <line x1="136.86" y1="137.43" x2="135.36" y2="140.03" stroke="rgb(160,0,0)" stroke-width="1.5" />
  <line x1="134.61" y1="135.7" x2="132.73" y2="138.94" stroke="rgb(160,0,0)" stroke-width="1.5" />
  <line x1="132.35" y1="133.96" x2="131.17" y2="136.01" stroke="rgb(160,0,0)" stroke-width="1.5" />
  <line x1="145.9" y1="144.38" x2="145.9" y2="168.38" stroke="rgb(228,226,242)" stroke-width="1.5" />
  <line x1="145.9" y1="168.38" x2="125.11" y2="180.38" stroke="rgb(228,226,242)" stroke-width="1.5" />
  <line x1="104.33" y1="168.38" x2="125.11" y2="180.38" stroke="rgb(228,226,242)" stroke-width="1.5" />
  <line x1="124.74" y1="183.2" x2="125.49" y2="183.2" stroke="rgb(160,0,0)" stroke-width="1.5" />
  <line x1="124.36" y1="186.03" x2="125.86" y2="186.03" stroke="rgb(160,0,0)" stroke-width="1.5" />
  <line x1="123.99" y1="188.85" x2="126.24" y2="188.85" stroke="rgb(160,0,0)" stroke-width="1.5" />
  <line x1="123.61" y1="191.67" x2="126.61" y2="191.67" stroke="rgb(160,0,0)" stroke-width="1.5" />
  <line x1="123.24" y1="194.5" x2="126.99" y2="194.5" stroke="rgb(160,0,0)" stroke-width="1.5" />
  <line x1="122.86" y1="197.32" x2="127.36" y2="197.32" stroke="rgb(160,0,0)" stroke-width="1.5" />
  <line x1="122.49" y1="200.14" x2="127.74" y2="200.14" stroke="rgb(160,0,0)" stroke-width="1.5" />
  <line x1="122.11" y1="202.97" x2="128.11" y2="202.97" stroke="rgb(160,0,0)" stroke-width="1.5" />
  <line x1="145.9" y1="216.38" x2="160.23" y2="208.1" stroke="rgb(228,226,242)" stroke-width="1.5" />
  <line x1="173.13" y1="208.1" x2="187.46" y2="216.38" stroke="rgb(228,226,242)" stroke-width="1.5" />
  <line x1="125.11" y1="204.38" x2="104.33" y2="216.38" stroke="rgb(228,226,242)" stroke-width="1.5" />
  <line x1="104.33" y1="216.38" x2="89.99" y2="208.1" stroke="rgb(228,226,242)" stroke-width="1.5" />
  <line x1="77.1" y1="208.1" x2="62.76" y2="216.38" stroke="rgb(228,226,242)" stroke-width="1.5" />
  <line x1="166.68" y1="132.38" x2="183.45" y2="137.83" stroke="rgb(228,226,242)" stroke-width="1.5" />
  <line x1="194.59" y1="132.8" x2="203.61" y2="120.38" stroke="rgb(228,226,242)" stroke-width="1.5" />
  <line x1="166.68" y1="108.38" x2="189.51" y2="100.96" stroke="rgb(228,226,242)" stroke-width="1.5" />
  <line x1="189.51" y1="100.96" x2="199.27" y2="79.04" stroke="rgb(228,226,242)" stroke-width="1.5" />
  <line x1="223.14" y1="76.53" x2="237.24" y2="95.95" stroke="rgb(228,226,242)" stroke-width="1.5" />
  <line x1="203.61" y1="120.38" x2="227.48" y2="117.87" stroke="rgb(228,226,242)" stroke-width="1.5" />
  <line x1="199.27" y1="79.04" x2="190.25" y2="66.62" stroke="rgb(228,226,242)" stroke-width="1.5" />
  <line x1="178.71" y1="60.3" x2="161.29" y2="62.13" stroke="rgb(228,226,242)" stroke-width="1.5" />
  <text x="128.5" y="220.31" stroke="none" font-size="9" fill="rgb(160,0,0)">E</text>
  <line id="mol64:Bond:7" class="event" x1="166.68" y1="108.38" x2="166.68" y2="132.38" stroke-width="1.5" opacity="0" />
  <line id="mol64:Bond:14" class="event" x1="125.11" y1="204.38" x2="145.9" y2="216.38" stroke-width="1.5" opacity="0" />
  <line id="mol64:Bond:18" class="event" x1="104.33" y1="216.38" x2="104.33" y2="240.38" stroke-width="1.5" opacity="0" />
  <line id="mol64:Bond:23" class="event" x1="203.61" y1="120.38" x2="189.51" y2="100.96" stroke-width="1.5" opacity="0" />
  <line id="mol64:Bond:26" class="event" x1="199.27" y1="79.04" x2="223.14" y2="76.53" stroke-width="1.5" opacity="0" />
  <line id="mol64:Bond:28" class="event" x1="237.24" y1="95.95" x2="227.48" y2="117.87" stroke-width="1.5" opacity="0" />
  <line id="mol64:Bond:0" class="event" x1="62.76" y1="168.38" x2="83.54" y2="180.38" stroke-width="1.5" opacity="0" />
  <line id="mol64:Bond:1" class="event" x1="104.33" y1="168.38" x2="83.54" y2="180.38" stroke-width="1.5" opacity="0" />
  <line id="mol64:Bond:2" class="event" x1="104.33" y1="168.38" x2="104.33" y2="144.38" stroke-width="1.5" opacity="0" />
  <line id="mol64:Bond:3" class="event" x1="104.33" y1="144.38" x2="125.11" y2="132.38" stroke-width="1.5" opacity="0" />
  <line id="mol64:Bond:4" class="event" x1="125.11" y1="132.38" x2="125.11" y2="108.38" stroke-width="1.5" opacity="0" />
  <line id="mol64:Bond:5" class="event" x1="125.11" y1="108.38" x2="145.9" y2="96.38" stroke-width="1.5" opacity="0" />
  <line id="mol64:Bond:6" class="event" x1="145.9" y1="96.38" x2="166.68" y2="108.38" stroke-width="1.5" opacity="0" />
  <line id="mol64:Bond:8" class="event" x1="166.68" y1="132.38" x2="145.9" y2="144.38" stroke-width="1.5" opacity="0" />
  <line id="mol64:Bond:9" class="event" x1="145.9" y1="144.38" x2="125.11" y2="132.38" stroke-width="1.5" opacity="0" />
  <line id="mol64:Bond:10" class="event" x1="145.9" y1="144.38" x2="145.9" y2="168.38" stroke-width="1.5" opacity="0" />
  <line id="mol64:Bond:11" class="event" x1="145.9" y1="168.38" x2="125.11" y2="180.38" stroke-width="1.5" opacity="0" />
  <line id="mol64:Bond:12" class="event" x1="104.33" y1="168.38" x2="125.11" y2="180.38" stroke-width="1.5" opacity="0" />
  <line id="mol64:Bond:13" class="event" x1="125.11" y1="180.38" x2="125.11" y2="204.38" stroke-width="1.5" opacity="0" />
  <line id="mol64:Bond:15" class="event" x1="145.9" y1="216.38" x2="166.68" y2="204.38" stroke-width="1.5" opacity="0" />
  <line id="mol64:Bond:16" class="event" x1="166.68" y1="204.38" x2="187.46" y2="216.38" stroke-width="1.5" opacity="0" />
  <line id="mol64:Bond:17" class="event" x1="125.11" y1="204.38" x2="104.33" y2="216.38" stroke-width="1.5" opacity="0" />
  <line id="mol64:Bond:19" class="event" x1="104.33" y1="216.38" x2="83.54" y2="204.38" stroke-width="1.5" opacity="0" />
  <line id="mol64:Bond:20" class="event" x1="83.54" y1="204.38" x2="62.76" y2="216.38" stroke-width="1.5" opacity="0" />
  <line id="mol64:Bond:21" class="event" x1="166.68" y1="132.38" x2="189.51" y2="139.8" stroke-width="1.5" opacity="0" />
  <line id="mol64:Bond:22" class="event" x1="189.51" y1="139.8" x2="203.61" y2="120.38" stroke-width="1.5" opacity="0" />
  <line id="mol64:Bond:24" class="event" x1="166.68" y1="108.38" x2="189.51" y2="100.96" stroke-width="1.5" opacity="0" />
  <line id="mol64:Bond:25" class="event" x1="189.51" y1="100.96" x2="199.27" y2="79.04" stroke-width="1.5" opacity="0" />
  <line id="mol64:Bond:27" class="event" x1="223.14" y1="76.53" x2="237.24" y2="95.95" stroke-width="1.5" opacity="0" />
  <line id="mol64:Bond:29" class="event" x1="203.61" y1="120.38" x2="227.48" y2="117.87" stroke-width="1.5" opacity="0" />
  <line id="mol64:Bond:30" class="event" x1="199.27" y1="79.04" x2="185.16" y2="59.62" stroke-width="1.5" opacity="0" />
  <line id="mol64:Bond:31" class="event" x1="185.16" y1="59.62" x2="161.29" y2="62.13" stroke-width="1.5" opacity="0" />
  <circle id="mol64:Atom:0" class="event" cx="62.76" cy="168.38" r="8" opacity="0" />
  <circle id="mol64:Atom:1" class="event" cx="83.54" cy="180.38" r="8" opacity="0" />
  <circle id="mol64:Atom:2" class="event" cx="104.33" cy="168.38" r="8" opacity="0" />
  <circle id="mol64:Atom:3" class="event" cx="104.33" cy="144.38" r="8" opacity="0" />
  <circle id="mol64:Atom:4" class="event" cx="125.11" cy="132.38" r="8" opacity="0" />
  <circle id="mol64:Atom:5" class="event" cx="125.11" cy="108.38" r="8" opacity="0" />
  <circle id="mol64:Atom:6" class="event" cx="145.9" cy="96.38" r="8" opacity="0" />
  <circle id="mol64:Atom:7" class="event" cx="166.68" cy="108.38" r="8" opacity="0" />
  <circle id="mol64:Atom:8" class="event" cx="166.68" cy="132.38" r="8" opacity="0" />
  <circle id="mol64:Atom:9" class="event" cx="145.9" cy="144.38" r="8" opacity="0" />
  <circle id="mol64:Atom:10" class="event" cx="145.9" cy="168.38" r="8" opacity="0" />
  <circle id="mol64:Atom:11" class="event" cx="125.11" cy="180.38" r="8" opacity="0" />
  <circle id="mol64:Atom:12" class="event" cx="125.11" cy="204.38" r="8" opacity="0" />
  <circle id="mol64:Atom:13" class="event" cx="145.9" cy="216.38" r="8" opacity="0" />
  <circle id="mol64:Atom:14" class="event" cx="166.68" cy="204.38" r="8" opacity="0" />
  <circle id="mol64:Atom:15" class="event" cx="187.46" cy="216.38" r="8" opacity="0" />
  <circle id="mol64:Atom:16" class="event" cx="104.33" cy="216.38" r="8" opacity="0" />
  <circle id="mol64:Atom:17" class="event" cx="104.33" cy="240.38" r="8" opacity="0" />
  <circle id="mol64:Atom:18" class="event" cx="83.54" cy="204.38" r="8" opacity="0" />
  <circle id="mol64:Atom:19" class="event" cx="62.76" cy="216.38" r="8" opacity="0" />
  <circle id="mol64:Atom:20" class="event" cx="189.51" cy="139.8" r="8" opacity="0" />
  <circle id="mol64:Atom:21" class="event" cx="203.61" cy="120.38" r="8" opacity="0" />
  <circle id="mol64:Atom:22" class="event" cx="189.51" cy="100.96" r="8" opacity="0" />
  <circle id="mol64:Atom:23" class="event" cx="199.27" cy="79.04" r="8" opacity="0" />
  <circle id="mol64:Atom:24" class="event" cx="223.14" cy="76.53" r="8" opacity="0" />
  <circle id="mol64:Atom:25" class="event" cx="237.24" cy="95.95" r="8" opacity="0" />
  <circle id="mol64:Atom:26" class="event" cx="227.48" cy="117.87" r="8" opacity="0" />
  <circle id="mol64:Atom:27" class="event" cx="185.16" cy="59.62" r="8" opacity="0" />
  <circle id="mol64:Atom:28" class="event" cx="161.29" cy="62.13" r="8" opacity="0" />
</svg>