<svg id="mol65" xmlns="http://www.w3.org/2000/svg" version="1.1" width="174px" height="178px" viewBox="59 64 174 178">
  <style> #mol65 text {font-family: sans-serif;} #mol65 { pointer-events:none; } #mol65 .event  { pointer-events:all; } #mol65 line { stroke-linecap:round; } #mol65 polygon { stroke-linejoin:round; } </style>
  <text x="176.29" y="165.67" stroke="none" font-size="14" fill="rgb(205,205,38)">S</text>
  <text x="143.67" y="193" stroke="none" font-size="14" fill="rgb(129,140,248)">N</text>
  <text x="143.08" y="231.83" stroke="none" font-size="14" fill="rgb(129,140,248)">N</text>
  <text x="120.37" y="224.08" stroke="none" font-size="14" fill="rgb(129,140,248)">N</text>
  <text x="99.11" y="162.63" stroke="none" font-size="14" fill="rgb(129,140,248)">N</text>
  <text x="68.35" y="135.62" stroke="none" font-size="14" fill="rgb(31,240,31)">Cl</text>
  <line x1="183.47" y1="137.14" x2="161.55" y2="127.38" stroke="rgb(228,226,242)" stroke-width="1.5" />
  <line x1="179.25" y1="139.2" x2="162.84" y2="131.89" stroke="rgb(228,226,242)" stroke-width="1.5" />
  <line x1="145.49" y1="145.21" x2="157.49" y2="166" stroke="rgb(228,226,242)" stroke-width="1.5" />
  <line x1="150.11" y1="146.02" x2="159.1" y2="161.59" stroke="rgb(228,226,242)" stroke-width="1.5" />
  <line x1="162.53" y1="207.96" x2="153.39" y2="220.17" stroke="rgb(228,226,242)" stroke-width="1.5" />
  <line x1="157.85" y1="208.22" x2="150.51" y2="218.01" stroke="rgb(228,226,242)" stroke-width="1.5" />
  <line x1="125.79" y1="195.41" x2="125.53" y2="212.41" stroke="rgb(228,226,242)" stroke-width="1.5" />
  <line x1="129.34" y1="198.48" x2="129.13" y2="212.41" stroke="rgb(228,226,242)" stroke-width="1.5" />
  <line x1="121.76" y1="141.64" x2="110.22" y2="152.34" stroke="rgb(228,226,242)" stroke-width="1.5" />
  <line x1="122.62" y1="145.75" x2="112.66" y2="154.98" stroke="rgb(228,226,242)" stroke-width="1.5" />
  <line x1="114.68" y1="118.7" x2="131.01" y2="101.11" stroke="rgb(228,226,242)" stroke-width="1.5" />
  <line x1="113.78" y1="114.38" x2="126.62" y2="100.54" stroke="rgb(228,226,242)" stroke-width="1.5" />
  <line x1="123.93" y1="78.17" x2="100.53" y2="72.83" stroke="rgb(228,226,242)" stroke-width="1.5" />
  <line x1="120.63" y1="81.11" x2="102.23" y2="76.91" stroke="rgb(228,226,242)" stroke-width="1.5" />
  <line x1="84.21" y1="90.43" x2="91.28" y2="113.36" stroke="rgb(228,226,242)" stroke-width="1.5" />
  <line x1="88.4" y1="91.81" x2="93.97" y2="109.85" stroke="rgb(228,226,242)" stroke-width="1.5" />
  <line x1="225.04" y1="137.14" x2="204.26" y2="125.14" stroke="rgb(228,226,242)" stroke-width="1.5" />
  <line x1="204.26" y1="125.14" x2="183.47" y2="137.14" stroke="rgb(228,226,242)" stroke-width="1.5" />
  <line x1="161.55" y1="127.38" x2="145.49" y2="145.21" stroke="rgb(228,226,242)" stroke-width="1.5" />
  <line x1="157.49" y1="166" x2="175.29" y2="162.21" stroke="rgb(228,226,242)" stroke-width="1.5" />
  <line x1="183.47" y1="137.14" x2="181.7" y2="154.01" stroke="rgb(228,226,242)" stroke-width="1.5" />
  <line x1="157.49" y1="166" x2="151.47" y2="181.34" stroke="rgb(228,226,242)" stroke-width="1.5" />
  <line x1="153.65" y1="195.34" x2="162.53" y2="207.96" stroke="rgb(228,226,242)" stroke-width="1.5" />
  <line x1="142.08" y1="225.1" x2="131.48" y2="221.48" stroke="rgb(228,226,242)" stroke-width="1.5" />
  <line x1="142.67" y1="190.21" x2="125.79" y2="195.41" stroke="rgb(228,226,242)" stroke-width="1.5" />
  <line x1="125.79" y1="195.41" x2="105.96" y2="181.89" stroke="rgb(228,226,242)" stroke-width="1.5" />
  <line x1="105.96" y1="181.89" x2="104.69" y2="164.96" stroke="rgb(228,226,242)" stroke-width="1.5" />
  <line x1="145.49" y1="145.21" x2="121.76" y2="141.64" stroke="rgb(228,226,242)" stroke-width="1.5" />
  <line x1="121.76" y1="141.64" x2="114.68" y2="118.7" stroke="rgb(228,226,242)" stroke-width="1.5" />
  <line x1="131.01" y1="101.11" x2="123.93" y2="78.17" stroke="rgb(228,226,242)" stroke-width="1.5" />
  <line x1="100.53" y1="72.83" x2="84.21" y2="90.43" stroke="rgb(228,226,242)" stroke-width="1.5" />
  <line x1="114.68" y1="118.7" x2="91.28" y2="113.36" stroke="rgb(228,226,242)" stroke-width="1.5" />
  <line x1="91.28" y1="113.36" x2="81.45" y2="123.95" stroke="rgb(228,226,242)" stroke-width="1.5" />
  <line x1="162.53" y1="207.96" x2="186.53" y2="208.32" stroke="rgb(228,226,242)" stroke-width="1.5" />
  <line id="mol65:Bond:2" class="event" x1="183.47" y1="137.14" x2="161.55" y2="127.38" stroke-width="1.5" opacity="0" />
  <line id="mol65:Bond:4" class="event" x1="145.49" y1="145.21" x2="157.49" y2="166" stroke-width="1.5" opacity="0" />
  <line id="mol65:Bond:9" class="event" x1="162.53" y1="207.96" x2="148.14" y2="227.17" stroke-width="1.5" opacity="0" />
  <line id="mol65:Bond:11" class="event" x1="125.43" y1="219.41" x2="125.79" y2="195.41" stroke-width="1.5" opacity="0" />
  <line id="mol65:Bond:15" class="event" x1="104.16" y1="157.96" x2="121.76" y2="141.64" stroke-width="1.5" opacity="0" />
  <line id="mol65:Bond:18" class="event" x1="114.68" y1="118.7" x2="131.01" y2="101.11" stroke-width="1.5" opacity="0" />
  <line id="mol65:Bond:20" class="event" x1="123.93" y1="78.17" x2="100.53" y2="72.83" stroke-width="1.5" opacity="0" />
  <line id="mol65:Bond:22" class="event" x1="84.21" y1="90.43" x2="91.28" y2="113.36" stroke-width="1.5" opacity="0" />
  <line id="mol65:Bond:0" class="event" x1="225.04" y1="137.14" x2="204.26" y2="125.14" stroke-width="1.5" opacity="0" />
  <line id="mol65:Bond:1" class="event" x1="204.26" y1="125.14" x2="183.47" y2="137.14" stroke-width="1.5" opacity="0" />
  <line id="mol65:Bond:3" class="event" x1="161.55" y1="127.38" x2="145.49" y2="145.21" stroke-width="1.5" opacity="0" />
  <line id="mol65:Bond:5" class="event" x1="157.49" y1="166" x2="180.96" y2="161.01" stroke-width="1.5" opacity="0" />
  <line id="mol65:Bond:6" class="event" x1="183.47" y1="137.14" x2="180.96" y2="161.01" stroke-width="1.5" opacity="0" />
  <line id="mol65:Bond:7" class="event" x1="157.49" y1="166" x2="148.72" y2="188.34" stroke-width="1.5" opacity="0" />
  <line id="mol65:Bond:8" class="event" x1="148.72" y1="188.34" x2="162.53" y2="207.96" stroke-width="1.5" opacity="0" />
  <line id="mol65:Bond:10" class="event" x1="148.14" y1="227.17" x2="125.43" y2="219.41" stroke-width="1.5" opacity="0" />
  <line id="mol65:Bond:12" class="event" x1="148.72" y1="188.34" x2="125.79" y2="195.41" stroke-width="1.5" opacity="0" />
  <line id="mol65:Bond:13" class="event" x1="125.79" y1="195.41" x2="105.96" y2="181.89" stroke-width="1.5" opacity="0" />
  <line id="mol65:Bond:14" class="event" x1="105.96" y1="181.89" x2="104.16" y2="157.96" stroke-width="1.5" opacity="0" />
  <line id="mol65:Bond:16" class="event" x1="145.49" y1="145.21" x2="121.76" y2="141.64" stroke-width="1.5" opacity="0" />
  <line id="mol65:Bond:17" class="event" x1="121.76" y1="141.64" x2="114.68" y2="118.7" stroke-width="1.5" opacity="0" />
  <line id="mol65:Bond:19" class="event" x1="131.01" y1="101.11" x2="123.93" y2="78.17" stroke-width="1.5" opacity="0" />
  <line id="mol65:Bond:21" class="event" x1="100.53" y1="72.83" x2="84.21" y2="90.43" stroke-width="1.5" opacity="0" />
  <line id="mol65:Bond:23" class="event" x1="114.68" y1="118.7" x2="91.28" y2="113.36" stroke-width="1.5" opacity="0" />
  <line id="mol65:Bond:24" class="event" x1="91.28" y1="113.36" x2="74.96" y2="130.95" stroke-width="1.5" opacity="0" />
  <line id="mol65:Bond:25" class="event" x1="162.53" y1="207.96" x2="186.53" y2="208.32" stroke-width="1.5" opacity="0" />
  <circle id="mol65:Atom:0" class="event" cx="225.04" cy="137.14" r="8" opacity="0" />
  <circle id="mol65:Atom:1" class="event" cx="204.26" cy="125.14" r="8" opacity="0" />
  <circle id="mol65:Atom:2" class="event" cx="183.47" cy="137.14" r="8" opacity="0" />
  <circle id="mol65:Atom:3" class="event" cx="161.55" cy="127.38" r="8" opacity="0" />
  <circle id="mol65:Atom:4" class="event" cx="145.49" cy="145.21" r="8" opacity="0" />
  <circle id="mol65:Atom:5" class="event" cx="157.49" cy="166" r="8" opacity="0" />
  <circle id="mol65:Atom:6" class="event" cx="180.96" cy="161.01" r="8" opacity="0" />
  <circle id="mol65:Atom:7" class="event" cx="148.72" cy="188.34" r="8" opacity="0" />
  <circle id="mol65:Atom:8" class="event" cx="162.53" cy="207.96" r="8" opacity="0" />
  <circle id="mol65:Atom:9" class="event" cx="148.14" cy="227.17" r="8" opacity="0" />
  <circle id="mol65:Atom:10" class="event" cx="125.43" cy="219.41" r="8" opacity="0" />
  <circle id="mol65:Atom:11" class="event" cx="125.79" cy="195.41" r="8" opacity="0" />
  <circle id="mol65:Atom:12" class="event" cx="105.96" cy="181.89" r="8" opacity="0" />
  <circle id="mol65:Atom:13" class="event" cx="104.16" cy="157.96" r="8" opacity="0" />
  <circle id="mol65:Atom:14" class="event" cx="121.76" cy="141.64" r="8" opacity="0" />
  <circle id="mol65:Atom:15" class="event" cx="114.68" cy="118.7" r="8" opacity="0" />
  <circle id="mol65:Atom:16" class="event" cx="131.01" cy="101.11" r="8" opacity="0" />
  <circle id="mol65:Atom:17" class="event" cx="123.93" cy="78.17" r="8" opacity="0" />
  <circle id="mol65:Atom:18" class="event" cx="100.53" cy="72.83" r="8" opacity="0" />
  <circle id="mol65:Atom:19" class="event" cx="84.21" cy="90.43" r="8" opacity="0" />
  <circle id="mol65:Atom:20" class="event" cx="91.28" cy="113.36" r="8" opacity="0" />
  <circle id="mol65:Atom:21" class="event" cx="74.96" cy="130.95" r="8" opacity="0" />
  <circle id="mol65:Atom:22" class="event" cx="186.53" cy="208.32" r="8" opacity="0" />
</svg>