<svg id="mol66" xmlns="http://www.w3.org/2000/svg" version="1.1" width="163px" height="117px" viewBox="58 93 163 117">
  <style> #mol66 text {font-family: sans-serif;} #mol66 { pointer-events:none; } #mol66 .event  { pointer-events:all; } #mol66 line { stroke-linecap:round; } #mol66 polygon { stroke-linejoin:round; } </style>
  <text x="93.4" y="223.15" stroke="none" font-size="12" fill="rgb(160,0,0)">unknown chirality</text>
  <text x="186.12" y="160.67" stroke="none" font-size="14" fill="rgb(248,113,113)">O</text>
  <text x="103.43" y="188" stroke="none" font-size="9" fill="rgb(160,0,0)">?</text>
  <text x="82.59" y="196.67" stroke="none" font-size="14" fill="rgb(129,140,248)">N</text>
  <text x="77.59" y="200" stroke="none" font-size="9" fill="rgb(129,140,248)">2</text>
  <text x="67.48" y="196.67" stroke="none" font-size="14" fill="rgb(129,140,248)">H</text>
  <text x="102.98" y="112.67" stroke="none" font-size="14" fill="rgb(248,113,113)">O</text>
  <line x1="170.78" y1="120" x2="150" y2="108" stroke="rgb(228,226,242)" stroke-width="1.5" />
  <line x1="166.77" y1="121.84" x2="150.42" y2="112.4" stroke="rgb(228,226,242)" stroke-width="1.5" />
  <line x1="129.22" y1="120" x2="129.22" y2="144" stroke="rgb(228,226,242)" stroke-width="1.5" />
  <line x1="132.82" y1="122.56" x2="132.82" y2="141.44" stroke="rgb(228,226,242)" stroke-width="1.5" />
  <line x1="150" y1="156" x2="170.78" y2="144" stroke="rgb(228,226,242)" stroke-width="1.5" />
  <line x1="150.42" y1="151.6" x2="166.77" y2="142.16" stroke="rgb(228,226,242)" stroke-width="1.5" />
  <line x1="191.57" y1="108" x2="170.78" y2="120" stroke="rgb(228,226,242)" stroke-width="1.5" />
  <line x1="150" y1="108" x2="129.22" y2="120" stroke="rgb(228,226,242)" stroke-width="1.5" />
  <line x1="129.22" y1="144" x2="150" y2="156" stroke="rgb(228,226,242)" stroke-width="1.5" />
  <line x1="170.78" y1="120" x2="170.78" y2="144" stroke="rgb(228,226,242)" stroke-width="1.5" />
  <line x1="170.78" y1="144" x2="185.12" y2="152.28" stroke="rgb(228,226,242)" stroke-width="1.5" />
  <line x1="198.02" y1="152.28" x2="212.35" y2="144" stroke="rgb(228,226,242)" stroke-width="1.5" />
  <line x1="129.22" y1="144" x2="108.43" y2="156" stroke="rgb(228,226,242)" stroke-width="1.5" />
  <line x1="108.43" y1="156" x2="108.43" y2="180" stroke="rgb(228,226,242)" stroke-width="1.5" />
  <line x1="108.43" y1="180" x2="129.22" y2="192" stroke="rgb(228,226,242)" stroke-width="1.5" />
  <line x1="108.43" y1="180" x2="93.7" y2="188.5" stroke="rgb(228,226,242)" stroke-width="1.5" />
  <line x1="129.22" y1="120" x2="114.88" y2="111.72" stroke="rgb(228,226,242)" stroke-width="1.5" />
  <line x1="101.98" y1="111.72" x2="87.65" y2="120" stroke="rgb(228,226,242)" stroke-width="1.5" />
  <line id="mol66:Bond:1" class="event" x1="170.78" y1="120" x2="150" y2="108" stroke-width="1.5" opacity="0" />
  <line id="mol66:Bond:3" class="event" x1="129.22" y1="120" x2="129.22" y2="144" stroke-width="1.5" opacity="0" />
  <line id="mol66:Bond:5" class="event" x1="150" y1="156" x2="170.78" y2="144" stroke-width="1.5" opacity="0" />
  <line id="mol66:Bond:0" class="event" x1="191.57" y1="108" x2="170.78" y2="120" stroke-width="1.5" opacity="0" />
  <line id="mol66:Bond:2" class="event" x1="150" y1="108" x2="129.22" y2="120" stroke-width="1.5" opacity="0" />
  <line id="mol66:Bond:4" class="event" x1="129.22" y1="144" x2="150" y2="156" stroke-width="1.5" opacity="0" />
  <line id="mol66:Bond:6" class="event" x1="170.78" y1="120" x2="170.78" y2="144" stroke-width="1.5" opacity="0" />
  <line id="mol66:Bond:7" class="event" x1="170.78" y1="144" x2="191.57" y2="156" stroke-width="1.5" opacity="0" />
  <line id="mol66:Bond:8" class="event" x1="191.57" y1="156" x2="212.35" y2="144" stroke-width="1.5" opacity="0" />
  <line id="mol66:Bond:9" class="event" x1="129.22" y1="144" x2="108.43" y2="156" stroke-width="1.5" opacity="0" />
  <line id="mol66:Bond:10" class="event" x1="108.43" y1="156" x2="108.43" y2="180" stroke-width="1.5" opacity="0" />
  <line id="mol66:Bond:11" class="event" x1="108.43" y1="180" x2="129.22" y2="192" stroke-width="1.5" opacity="0" />
  <line id="mol66:Bond:12" class="event" x1="108.43" y1="180" x2="87.65" y2="192" stroke-width="1.5" opacity="0" />
  <line id="mol66:Bond:13" class="event" x1="129.22" y1="120" x2="108.43" y2="108" stroke-width="1.5" opacity="0" />
  <line id="mol66:Bond:14" class="event" x1="108.43" y1="108" x2="87.65" y2="120" stroke-width="1.5" opacity="0" />
  <circle id="mol66:Atom:0" class="event" cx="191.57" cy="108" r="8" opacity="0" />
  <circle id="mol66:Atom:1" class="event" cx="170.78" cy="120" r="8" opacity="0" />
  <circle id="mol66:Atom:2" class="event" cx="150" cy="108" r="8" opacity="0" />
  <circle id="mol66:Atom:3" class="event" cx="129.22" cy="120" r="8" opacity="0" />
  <circle id="mol66:Atom:4" class="event" cx="129.22" cy="144" r="8" opacity="0" />
  <circle id="mol66:Atom:5" class="event" cx="150" cy="156" r="8" opacity="0" />
  <circle id="mol66:Atom:6" class="event" cx="170.78" cy="144" r="8" opacity="0" />
  <circle id="mol66:Atom:7" class="event" cx="191.57" cy="156" r="8" opacity="0" />
  <circle id="mol66:Atom:8" class="event" cx="212.35" cy="144" r="8" opacity="0" />
  <circle id="mol66:Atom:9" class="event" cx="108.43" cy="156" r="8" opacity="0" />
  <circle id="mol66:Atom:10" class="event" cx="108.43" cy="180" r="8" opacity="0" />
  <circle id="mol66:Atom:11" class="event" cx="129.22" cy="192" r="8" opacity="0" />
  <circle id="mol66:Atom:12" class="event" cx="87.65" cy="192" r="8" opacity="0" />
  <circle id="mol66:Atom:13" class="event" cx="108.43" cy="108" r="8" opacity="0" />
  <circle id="mol66:Atom:14" class="event" cx="87.65" cy="120" r="8" opacity="0" />
</svg>