<svg id="mol66" xmlns="http://www.w3.org/2000/svg" version="1.1" width="183px" height="98px" viewBox="48 106 183 98">
  <style> #mol66 text {font-family: sans-serif;} #mol66 { pointer-events:none; } #mol66 .event  { pointer-events:all; } #mol66 line { stroke-linecap:round; } #mol66 polygon { stroke-linejoin:round; } </style>
  <text x="93.4" y="217.15" stroke="none" font-size="12" fill="rgb(160,0,0)">unknown chirality</text>
  <text x="196.52" y="190.67" stroke="none" font-size="14" fill="rgb(248,113,113)">O</text>
  <text x="93.03" y="182" stroke="none" font-size="9" fill="rgb(160,0,0)">?</text>
  <text x="72.2" y="190.67" stroke="none" font-size="14" fill="rgb(129,140,248)">N</text>
  <text x="67.2" y="194" stroke="none" font-size="9" fill="rgb(129,140,248)">2</text>
  <text x="57.09" y="190.67" stroke="none" font-size="14" fill="rgb(129,140,248)">H</text>
  <text x="113.38" y="142.67" stroke="none" font-size="14" fill="rgb(248,113,113)">O</text>
  <line x1="181.18" y1="150" x2="160.39" y2="138" stroke="rgb(228,226,242)" stroke-width="1.5" />
  <line x1="177.16" y1="151.84" x2="160.81" y2="142.4" stroke="rgb(228,226,242)" stroke-width="1.5" />
  <line x1="139.61" y1="150" x2="139.61" y2="174" stroke="rgb(228,226,242)" stroke-width="1.5" />
  <line x1="143.21" y1="152.56" x2="143.21" y2="171.44" stroke="rgb(228,226,242)" stroke-width="1.5" />
  <line x1="160.39" y1="186" x2="181.18" y2="174" stroke="rgb(228,226,242)" stroke-width="1.5" />
  <line x1="160.81" y1="181.6" x2="177.16" y2="172.16" stroke="rgb(228,226,242)" stroke-width="1.5" />
  <line x1="201.96" y1="138" x2="181.18" y2="150" stroke="rgb(228,226,242)" stroke-width="1.5" />
  <line x1="160.39" y1="138" x2="139.61" y2="150" stroke="rgb(228,226,242)" stroke-width="1.5" />
  <line x1="139.61" y1="174" x2="160.39" y2="186" stroke="rgb(228,226,242)" stroke-width="1.5" />
  <line x1="181.18" y1="150" x2="181.18" y2="174" stroke="rgb(228,226,242)" stroke-width="1.5" />
  <line x1="181.18" y1="174" x2="195.52" y2="182.28" stroke="rgb(228,226,242)" stroke-width="1.5" />
  <line x1="208.41" y1="182.28" x2="222.75" y2="174" stroke="rgb(228,226,242)" stroke-width="1.5" />
  <line x1="139.61" y1="174" x2="118.82" y2="186" stroke="rgb(228,226,242)" stroke-width="1.5" />
  <line x1="118.82" y1="186" x2="98.04" y2="174" stroke="rgb(228,226,242)" stroke-width="1.5" />
  <line x1="98.04" y1="174" x2="98.04" y2="150" stroke="rgb(228,226,242)" stroke-width="1.5" />
  <line x1="98.04" y1="174" x2="83.31" y2="182.5" stroke="rgb(228,226,242)" stroke-width="1.5" />
  <line x1="139.61" y1="150" x2="125.27" y2="141.72" stroke="rgb(228,226,242)" stroke-width="1.5" />
  <line x1="118.82" y1="131" x2="118.82" y2="114" stroke="rgb(228,226,242)" stroke-width="1.5" />
  <line id="mol66:Bond:1" class="event" x1="181.18" y1="150" x2="160.39" y2="138" stroke-width="1.5" opacity="0" />
  <line id="mol66:Bond:3" class="event" x1="139.61" y1="150" x2="139.61" y2="174" stroke-width="1.5" opacity="0" />
  <line id="mol66:Bond:5" class="event" x1="160.39" y1="186" x2="181.18" y2="174" stroke-width="1.5" opacity="0" />
  <line id="mol66:Bond:0" class="event" x1="201.96" y1="138" x2="181.18" y2="150" stroke-width="1.5" opacity="0" />
  <line id="mol66:Bond:2" class="event" x1="160.39" y1="138" x2="139.61" y2="150" stroke-width="1.5" opacity="0" />
  <line id="mol66:Bond:4" class="event" x1="139.61" y1="174" x2="160.39" y2="186" stroke-width="1.5" opacity="0" />
  <line id="mol66:Bond:6" class="event" x1="181.18" y1="150" x2="181.18" y2="174" stroke-width="1.5" opacity="0" />
  <line id="mol66:Bond:7" class="event" x1="181.18" y1="174" x2="201.96" y2="186" stroke-width="1.5" opacity="0" />
  <line id="mol66:Bond:8" class="event" x1="201.96" y1="186" x2="222.75" y2="174" stroke-width="1.5" opacity="0" />
  <line id="mol66:Bond:9" class="event" x1="139.61" y1="174" x2="118.82" y2="186" stroke-width="1.5" opacity="0" />
  <line id="mol66:Bond:10" class="event" x1="118.82" y1="186" x2="98.04" y2="174" stroke-width="1.5" opacity="0" />
  <line id="mol66:Bond:11" class="event" x1="98.04" y1="174" x2="98.04" y2="150" stroke-width="1.5" opacity="0" />
  <line id="mol66:Bond:12" class="event" x1="98.04" y1="174" x2="77.25" y2="186" stroke-width="1.5" opacity="0" />
  <line id="mol66:Bond:13" class="event" x1="139.61" y1="150" x2="118.82" y2="138" stroke-width="1.5" opacity="0" />
  <line id="mol66:Bond:14" class="event" x1="118.82" y1="138" x2="118.82" y2="114" stroke-width="1.5" opacity="0" />
  <circle id="mol66:Atom:0" class="event" cx="201.96" cy="138" r="8" opacity="0" />
  <circle id="mol66:Atom:1" class="event" cx="181.18" cy="150" r="8" opacity="0" />
  <circle id="mol66:Atom:2" class="event" cx="160.39" cy="138" r="8" opacity="0" />
  <circle id="mol66:Atom:3" class="event" cx="139.61" cy="150" r="8" opacity="0" />
  <circle id="mol66:Atom:4" class="event" cx="139.61" cy="174" r="8" opacity="0" />
  <circle id="mol66:Atom:5" class="event" cx="160.39" cy="186" r="8" opacity="0" />
  <circle id="mol66:Atom:6" class="event" cx="181.18" cy="174" r="8" opacity="0" />
  <circle id="mol66:Atom:7" class="event" cx="201.96" cy="186" r="8" opacity="0" />
  <circle id="mol66:Atom:8" class="event" cx="222.75" cy="174" r="8" opacity="0" />
  <circle id="mol66:Atom:9" class="event" cx="118.82" cy="186" r="8" opacity="0" />
  <circle id="mol66:Atom:10" class="event" cx="98.04" cy="174" r="8" opacity="0" />
  <circle id="mol66:Atom:11" class="event" cx="98.04" cy="150" r="8" opacity="0" />
  <circle id="mol66:Atom:12" class="event" cx="77.25" cy="186" r="8" opacity="0" />
  <circle id="mol66:Atom:13" class="event" cx="118.82" cy="138" r="8" opacity="0" />
  <circle id="mol66:Atom:14" class="event" cx="118.82" cy="114" r="8" opacity="0" />
</svg>