<svg id="mol7" xmlns="http://www.w3.org/2000/svg" version="1.1" width="191px" height="129px" viewBox="51 79 191 129">
  <style> #mol7 text {font-family: sans-serif;} #mol7 { pointer-events:none; } #mol7 .event  { pointer-events:all; } #mol7 line { stroke-linecap:round; } #mol7 polygon { stroke-linejoin:round; } </style>
  <text x="105.18" y="221.15" stroke="none" font-size="12" fill="rgb(160,0,0)">this enantiomer</text>
  <text x="207.3" y="112.67" stroke="none" font-size="14" fill="rgb(129,140,248)">N</text>
  <text x="207.3" y="98.67" stroke="none" font-size="14" fill="rgb(129,140,248)">H</text>
  <text x="185.57" y="128" stroke="none" font-size="9" fill="rgb(160,0,0)">S</text>
  <text x="184.32" y="116.7" stroke="none" font-size="9" fill="rgb(160,0,0)">abs</text>
  <text x="144" y="152" stroke="none" font-size="9" fill="rgb(160,0,0)">S</text>
  <text x="148.2" y="143.85" stroke="none" font-size="9" fill="rgb(160,0,0)">abs</text>
  <text x="60.25" y="196.67" stroke="none" font-size="14" fill="rgb(31,240,31)">Cl</text>
  <text x="60.25" y="148.67" stroke="none" font-size="14" fill="rgb(31,240,31)">Cl</text>
  <line x1="170.78" y1="156" x2="170.78" y2="180" stroke="rgb(228,226,242)" stroke-width="1.5" />
  <line x1="174.38" y1="158.56" x2="174.38" y2="177.44" stroke="rgb(228,226,242)" stroke-width="1.5" />
  <line x1="191.57" y1="192" x2="212.35" y2="180" stroke="rgb(228,226,242)" stroke-width="1.5" />
  <line x1="191.99" y1="187.6" x2="208.34" y2="178.16" stroke="rgb(228,226,242)" stroke-width="1.5" />
  <line x1="212.35" y1="156" x2="191.57" y2="144" stroke="rgb(228,226,242)" stroke-width="1.5" />
  <line x1="208.34" y1="157.84" x2="191.99" y2="148.4" stroke="rgb(228,226,242)" stroke-width="1.5" />
  <line x1="129.22" y1="156" x2="108.43" y2="144" stroke="rgb(228,226,242)" stroke-width="1.5" />
  <line x1="125.2" y1="157.84" x2="108.85" y2="148.4" stroke="rgb(228,226,242)" stroke-width="1.5" />
  <line x1="87.65" y1="156" x2="87.65" y2="180" stroke="rgb(228,226,242)" stroke-width="1.5" />
  <line x1="91.25" y1="158.56" x2="91.25" y2="177.44" stroke="rgb(228,226,242)" stroke-width="1.5" />
  <line x1="108.43" y1="192" x2="129.22" y2="180" stroke="rgb(228,226,242)" stroke-width="1.5" />
  <line x1="108.85" y1="187.6" x2="125.2" y2="178.16" stroke="rgb(228,226,242)" stroke-width="1.5" />
  <line x1="233.14" y1="120" x2="218.41" y2="111.5" stroke="rgb(228,226,242)" stroke-width="1.5" />
  <line x1="194.2" y1="118.91" x2="193.83" y2="118.26" stroke="rgb(160,0,0)" stroke-width="1.5" />
  <line x1="196.83" y1="117.83" x2="196.08" y2="116.53" stroke="rgb(160,0,0)" stroke-width="1.5" />
  <line x1="199.47" y1="116.74" x2="198.34" y2="114.79" stroke="rgb(160,0,0)" stroke-width="1.5" />
  <line x1="202.1" y1="115.65" x2="200.6" y2="113.05" stroke="rgb(160,0,0)" stroke-width="1.5" />
  <line x1="204.73" y1="114.56" x2="202.86" y2="111.32" stroke="rgb(160,0,0)" stroke-width="1.5" />
  <line x1="206.3" y1="111.63" x2="205.12" y2="109.58" stroke="rgb(160,0,0)" stroke-width="1.5" />
  <line x1="191.57" y1="120" x2="170.78" y2="108" stroke="rgb(228,226,242)" stroke-width="1.5" />
  <line x1="170.78" y1="108" x2="150" y2="120" stroke="rgb(228,226,242)" stroke-width="1.5" />
  <line x1="150" y1="120" x2="150" y2="144" stroke="rgb(228,226,242)" stroke-width="1.5" />
  <line x1="150" y1="144" x2="170.78" y2="156" stroke="rgb(228,226,242)" stroke-width="1.5" />
  <line x1="170.78" y1="180" x2="191.57" y2="192" stroke="rgb(228,226,242)" stroke-width="1.5" />
  <line x1="212.35" y1="180" x2="212.35" y2="156" stroke="rgb(228,226,242)" stroke-width="1.5" />
  <line x1="191.57" y1="120" x2="191.57" y2="144" stroke="rgb(228,226,242)" stroke-width="1.5" />
  <line x1="170.78" y1="156" x2="191.57" y2="144" stroke="rgb(228,226,242)" stroke-width="1.5" />
  <line x1="147.37" y1="145.09" x2="147.74" y2="145.74" stroke="rgb(160,0,0)" stroke-width="1.5" />
  <line x1="144.73" y1="146.17" x2="145.48" y2="147.47" stroke="rgb(160,0,0)" stroke-width="1.5" />
  <line x1="142.1" y1="147.26" x2="143.23" y2="149.21" stroke="rgb(160,0,0)" stroke-width="1.5" />
  <line x1="139.47" y1="148.35" x2="140.97" y2="150.95" stroke="rgb(160,0,0)" stroke-width="1.5" />
  <line x1="136.84" y1="149.44" x2="138.71" y2="152.68" stroke="rgb(160,0,0)" stroke-width="1.5" />
  <line x1="134.2" y1="150.52" x2="136.45" y2="154.42" stroke="rgb(160,0,0)" stroke-width="1.5" />
  <line x1="131.57" y1="151.61" x2="134.2" y2="156.16" stroke="rgb(160,0,0)" stroke-width="1.5" />
  <line x1="128.94" y1="152.7" x2="131.94" y2="157.89" stroke="rgb(160,0,0)" stroke-width="1.5" />
  <line x1="108.43" y1="144" x2="87.65" y2="156" stroke="rgb(228,226,242)" stroke-width="1.5" />
  <line x1="87.65" y1="180" x2="108.43" y2="192" stroke="rgb(228,226,242)" stroke-width="1.5" />
  <line x1="129.22" y1="156" x2="129.22" y2="180" stroke="rgb(228,226,242)" stroke-width="1.5" />
  <line x1="87.65" y1="180" x2="74.47" y2="187.61" stroke="rgb(228,226,242)" stroke-width="1.5" />
  <line x1="87.65" y1="156" x2="74.47" y2="148.39" stroke="rgb(228,226,242)" stroke-width="1.5" />
  <line id="mol7:Bond:6" class="event" x1="170.78" y1="156" x2="170.78" y2="180" stroke-width="1.5" opacity="0" />
  <line id="mol7:Bond:8" class="event" x1="191.57" y1="192" x2="212.35" y2="180" stroke-width="1.5" opacity="0" />
  <line id="mol7:Bond:10" class="event" x1="212.35" y1="156" x2="191.57" y2="144" stroke-width="1.5" opacity="0" />
  <line id="mol7:Bond:14" class="event" x1="129.22" y1="156" x2="108.43" y2="144" stroke-width="1.5" opacity="0" />
  <line id="mol7:Bond:16" class="event" x1="87.65" y1="156" x2="87.65" y2="180" stroke-width="1.5" opacity="0" />
  <line id="mol7:Bond:18" class="event" x1="108.43" y1="192" x2="129.22" y2="180" stroke-width="1.5" opacity="0" />
  <line id="mol7:Bond:0" class="event" x1="233.14" y1="120" x2="212.35" y2="108" stroke-width="1.5" opacity="0" />
  <line id="mol7:Bond:1" class="event" x1="191.57" y1="120" x2="212.35" y2="108" stroke-width="1.5" opacity="0" />
  <line id="mol7:Bond:2" class="event" x1="191.57" y1="120" x2="170.78" y2="108" stroke-width="1.5" opacity="0" />
  <line id="mol7:Bond:3" class="event" x1="170.78" y1="108" x2="150" y2="120" stroke-width="1.5" opacity="0" />
  <line id="mol7:Bond:4" class="event" x1="150" y1="120" x2="150" y2="144" stroke-width="1.5" opacity="0" />
  <line id="mol7:Bond:5" class="event" x1="150" y1="144" x2="170.78" y2="156" stroke-width="1.5" opacity="0" />
  <line id="mol7:Bond:7" class="event" x1="170.78" y1="180" x2="191.57" y2="192" stroke-width="1.5" opacity="0" />
  <line id="mol7:Bond:9" class="event" x1="212.35" y1="180" x2="212.35" y2="156" stroke-width="1.5" opacity="0" />
  <line id="mol7:Bond:11" class="event" x1="191.57" y1="120" x2="191.57" y2="144" stroke-width="1.5" opacity="0" />
  <line id="mol7:Bond:12" class="event" x1="170.78" y1="156" x2="191.57" y2="144" stroke-width="1.5" opacity="0" />
  <line id="mol7:Bond:13" class="event" x1="150" y1="144" x2="129.22" y2="156" stroke-width="1.5" opacity="0" />
  <line id="mol7:Bond:15" class="event" x1="108.43" y1="144" x2="87.65" y2="156" stroke-width="1.5" opacity="0" />
  <line id="mol7:Bond:17" class="event" x1="87.65" y1="180" x2="108.43" y2="192" stroke-width="1.5" opacity="0" />
  <line id="mol7:Bond:19" class="event" x1="129.22" y1="156" x2="129.22" y2="180" stroke-width="1.5" opacity="0" />
  <line id="mol7:Bond:20" class="event" x1="87.65" y1="180" x2="66.86" y2="192" stroke-width="1.5" opacity="0" />
  <line id="mol7:Bond:21" class="event" x1="87.65" y1="156" x2="66.86" y2="144" stroke-width="1.5" opacity="0" />
  <circle id="mol7:Atom:0" class="event" cx="233.14" cy="120" r="8" opacity="0" />
  <circle id="mol7:Atom:1" class="event" cx="212.35" cy="108" r="8" opacity="0" />
  <circle id="mol7:Atom:2" class="event" cx="191.57" cy="120" r="8" opacity="0" />
  <circle id="mol7:Atom:3" class="event" cx="170.78" cy="108" r="8" opacity="0" />
  <circle id="mol7:Atom:4" class="event" cx="150" cy="120" r="8" opacity="0" />
  <circle id="mol7:Atom:5" class="event" cx="150" cy="144" r="8" opacity="0" />
  <circle id="mol7:Atom:6" class="event" cx="170.78" cy="156" r="8" opacity="0" />
  <circle id="mol7:Atom:7" class="event" cx="170.78" cy="180" r="8" opacity="0" />
  <circle id="mol7:Atom:8" class="event" cx="191.57" cy="192" r="8" opacity="0" />
  <circle id="mol7:Atom:9" class="event" cx="212.35" cy="180" r="8" opacity="0" />
  <circle id="mol7:Atom:10" class="event" cx="212.35" cy="156" r="8" opacity="0" />
  <circle id="mol7:Atom:11" class="event" cx="191.57" cy="144" r="8" opacity="0" />
  <circle id="mol7:Atom:12" class="event" cx="129.22" cy="156" r="8" opacity="0" />
  <circle id="mol7:Atom:13" class="event" cx="108.43" cy="144" r="8" opacity="0" />
  <circle id="mol7:Atom:14" class="event" cx="87.65" cy="156" r="8" opacity="0" />
  <circle id="mol7:Atom:15" class="event" cx="87.65" cy="180" r="8" opacity="0" />
  <circle id="mol7:Atom:16" class="event" cx="108.43" cy="192" r="8" opacity="0" />
  <circle id="mol7:Atom:17" class="event" cx="129.22" cy="180" r="8" opacity="0" />
  <circle id="mol7:Atom:18" class="event" cx="66.86" cy="192" r="8" opacity="0" />
  <circle id="mol7:Atom:19" class="event" cx="66.86" cy="144" r="8" opacity="0" />
</svg>