<svg id="mol70" xmlns="http://www.w3.org/2000/svg" version="1.1" width="121px" height="150px" viewBox="89 75 121 150">
  <style> #mol70 text {font-family: sans-serif;} #mol70 { pointer-events:none; } #mol70 .event  { pointer-events:all; } #mol70 line { stroke-linecap:round; } #mol70 polygon { stroke-linejoin:round; } </style>
  <text x="103.99" y="238.58" stroke="none" font-size="12" fill="rgb(160,0,0)">unknown chirality</text>
  <text x="155.41" y="124.47" stroke="none" font-size="14" fill="rgb(129,140,248)">N</text>
  <text x="165.51" y="124.47" stroke="none" font-size="14" fill="rgb(129,140,248)">H</text>
  <text x="134.54" y="139.88" stroke="none" font-size="9" fill="rgb(160,0,0)">?</text>
  <text x="151.04" y="177.33" stroke="none" font-size="14" fill="rgb(248,113,113)">O</text>
  <text x="175.94" y="209.02" stroke="none" font-size="14" fill="rgb(248,113,113)">O</text>
  <line x1="137.92" y1="156.97" x2="148.78" y2="167.62" stroke="rgb(228,226,242)" stroke-width="1.5" />
  <line x1="139.54" y1="153.52" x2="151.3" y2="165.05" stroke="rgb(228,226,242)" stroke-width="1.5" />
  <line x1="160.46" y1="143.96" x2="162.43" y2="165.66" stroke="rgb(228,226,242)" stroke-width="1.5" />
  <line x1="164.3" y1="146.39" x2="165.86" y2="163.57" stroke="rgb(228,226,242)" stroke-width="1.5" />
  <line x1="181.38" y1="180.2" x2="202.3" y2="168.12" stroke="rgb(228,226,242)" stroke-width="1.5" />
  <line x1="182.04" y1="175.66" x2="198.29" y2="166.28" stroke="rgb(228,226,242)" stroke-width="1.5" />
  <line x1="202.3" y1="143.96" x2="181.38" y2="131.88" stroke="rgb(228,226,242)" stroke-width="1.5" />
  <line x1="198.29" y1="145.8" x2="181.8" y2="136.28" stroke="rgb(228,226,242)" stroke-width="1.5" />
  <line x1="181.38" y1="83.57" x2="160.46" y2="95.64" stroke="rgb(228,226,242)" stroke-width="1.5" />
  <line x1="160.46" y1="95.64" x2="160.46" y2="112.8" stroke="rgb(228,226,242)" stroke-width="1.5" />
  <line x1="154.41" y1="123.3" x2="139.54" y2="131.88" stroke="rgb(228,226,242)" stroke-width="1.5" />
  <line x1="139.54" y1="131.88" x2="118.62" y2="119.8" stroke="rgb(228,226,242)" stroke-width="1.5" />
  <line x1="118.62" y1="119.8" x2="97.7" y2="131.88" stroke="rgb(228,226,242)" stroke-width="1.5" />
  <line x1="97.7" y1="131.88" x2="97.7" y2="156.04" stroke="rgb(228,226,242)" stroke-width="1.5" />
  <line x1="97.7" y1="156.04" x2="118.62" y2="168.12" stroke="rgb(228,226,242)" stroke-width="1.5" />
  <line x1="118.62" y1="168.12" x2="139.54" y2="156.04" stroke="rgb(228,226,242)" stroke-width="1.5" />
  <line x1="139.54" y1="131.88" x2="139.54" y2="156.04" stroke="rgb(228,226,242)" stroke-width="1.5" />
  <line x1="139.54" y1="131.88" x2="160.46" y2="143.96" stroke="rgb(228,226,242)" stroke-width="1.5" />
  <line x1="162.93" y1="166.21" x2="181.38" y2="180.2" stroke="rgb(228,226,242)" stroke-width="1.5" />
  <line x1="202.3" y1="168.12" x2="202.3" y2="143.96" stroke="rgb(228,226,242)" stroke-width="1.5" />
  <line x1="160.46" y1="143.96" x2="181.38" y2="131.88" stroke="rgb(228,226,242)" stroke-width="1.5" />
  <line x1="181.38" y1="180.2" x2="181.38" y2="197.36" stroke="rgb(228,226,242)" stroke-width="1.5" />
  <line x1="187.83" y1="208.08" x2="202.3" y2="216.43" stroke="rgb(228,226,242)" stroke-width="1.5" />
  <line id="mol70:Bond:9" class="event" x1="139.54" y1="156.04" x2="156.48" y2="172.66" stroke-width="1.5" opacity="0" />
  <line id="mol70:Bond:11" class="event" x1="160.46" y1="143.96" x2="162.45" y2="165.85" stroke-width="1.5" opacity="0" />
  <line id="mol70:Bond:13" class="event" x1="181.38" y1="180.2" x2="202.3" y2="168.12" stroke-width="1.5" opacity="0" />
  <line id="mol70:Bond:15" class="event" x1="202.3" y1="143.96" x2="181.38" y2="131.88" stroke-width="1.5" opacity="0" />
  <line id="mol70:Bond:0" class="event" x1="181.38" y1="83.57" x2="160.46" y2="95.64" stroke-width="1.5" opacity="0" />
  <line id="mol70:Bond:1" class="event" x1="160.46" y1="95.64" x2="160.46" y2="119.8" stroke-width="1.5" opacity="0" />
  <line id="mol70:Bond:2" class="event" x1="160.46" y1="119.8" x2="139.54" y2="131.88" stroke-width="1.5" opacity="0" />
  <line id="mol70:Bond:3" class="event" x1="139.54" y1="131.88" x2="118.62" y2="119.8" stroke-width="1.5" opacity="0" />
  <line id="mol70:Bond:4" class="event" x1="118.62" y1="119.8" x2="97.7" y2="131.88" stroke-width="1.5" opacity="0" />
  <line id="mol70:Bond:5" class="event" x1="97.7" y1="131.88" x2="97.7" y2="156.04" stroke-width="1.5" opacity="0" />
  <line id="mol70:Bond:6" class="event" x1="97.7" y1="156.04" x2="118.62" y2="168.12" stroke-width="1.5" opacity="0" />
  <line id="mol70:Bond:7" class="event" x1="118.62" y1="168.12" x2="139.54" y2="156.04" stroke-width="1.5" opacity="0" />
  <line id="mol70:Bond:8" class="event" x1="139.54" y1="131.88" x2="139.54" y2="156.04" stroke-width="1.5" opacity="0" />
  <line id="mol70:Bond:10" class="event" x1="139.54" y1="131.88" x2="160.46" y2="143.96" stroke-width="1.5" opacity="0" />
  <line id="mol70:Bond:12" class="event" x1="162.45" y1="165.85" x2="181.38" y2="180.2" stroke-width="1.5" opacity="0" />
  <line id="mol70:Bond:14" class="event" x1="202.3" y1="168.12" x2="202.3" y2="143.96" stroke-width="1.5" opacity="0" />
  <line id="mol70:Bond:16" class="event" x1="160.46" y1="143.96" x2="181.38" y2="131.88" stroke-width="1.5" opacity="0" />
  <line id="mol70:Bond:17" class="event" x1="181.38" y1="180.2" x2="181.38" y2="204.36" stroke-width="1.5" opacity="0" />
  <line id="mol70:Bond:18" class="event" x1="181.38" y1="204.36" x2="202.3" y2="216.43" stroke-width="1.5" opacity="0" />
  <circle id="mol70:Atom:0" class="event" cx="181.38" cy="83.57" r="8" opacity="0" />
  <circle id="mol70:Atom:1" class="event" cx="160.46" cy="95.64" r="8" opacity="0" />
  <circle id="mol70:Atom:2" class="event" cx="160.46" cy="119.8" r="8" opacity="0" />
  <circle id="mol70:Atom:3" class="event" cx="139.54" cy="131.88" r="8" opacity="0" />
  <circle id="mol70:Atom:4" class="event" cx="118.62" cy="119.8" r="8" opacity="0" />
  <circle id="mol70:Atom:5" class="event" cx="97.7" cy="131.88" r="8" opacity="0" />
  <circle id="mol70:Atom:6" class="event" cx="97.7" cy="156.04" r="8" opacity="0" />
  <circle id="mol70:Atom:7" class="event" cx="118.62" cy="168.12" r="8" opacity="0" />
  <circle id="mol70:Atom:8" class="event" cx="139.54" cy="156.04" r="8" opacity="0" />
  <circle id="mol70:Atom:9" class="event" cx="156.48" cy="172.66" r="8" opacity="0" />
  <circle id="mol70:Atom:10" class="event" cx="160.46" cy="143.96" r="8" opacity="0" />
  <circle id="mol70:Atom:11" class="event" cx="162.45" cy="165.85" r="8" opacity="0" />
  <circle id="mol70:Atom:12" class="event" cx="181.38" cy="180.2" r="8" opacity="0" />
  <circle id="mol70:Atom:13" class="event" cx="202.3" cy="168.12" r="8" opacity="0" />
  <circle id="mol70:Atom:14" class="event" cx="202.3" cy="143.96" r="8" opacity="0" />
  <circle id="mol70:Atom:15" class="event" cx="181.38" cy="131.88" r="8" opacity="0" />
  <circle id="mol70:Atom:16" class="event" cx="181.38" cy="204.36" r="8" opacity="0" />
  <circle id="mol70:Atom:17" class="event" cx="202.3" cy="216.43" r="8" opacity="0" />
</svg>