<svg id="mol8" xmlns="http://www.w3.org/2000/svg" version="1.1" width="224px" height="160px" viewBox="37 73 224 160">
  <style> #mol8 text {font-family: sans-serif;} #mol8 { pointer-events:none; } #mol8 .event  { pointer-events:all; } #mol8 line { stroke-linecap:round; } #mol8 polygon { stroke-linejoin:round; } </style>
  <text x="108.6" y="247.29" stroke="none" font-size="12" fill="rgb(160,0,0)">this enantiomer</text>
  <text x="204.17" y="98.52" stroke="none" font-size="14" fill="rgb(129,140,248)">N</text>
  <text x="161.65" y="173.86" stroke="none" font-size="9" fill="rgb(160,0,0)">S</text>
  <text x="160.07" y="162.57" stroke="none" font-size="9" fill="rgb(160,0,0)">abs</text>
  <text x="159.7" y="194.39" stroke="none" font-size="14" fill="rgb(248,113,113)">O</text>
  <text x="46.78" y="140.8" stroke="none" font-size="14" fill="rgb(129,140,248)">N</text>
  <text x="243.89" y="222.81" stroke="none" font-size="14" fill="rgb(144,224,80)">F</text>
  <line x1="145.73" y1="156.1" x2="129.67" y2="173.93" stroke="rgb(228,226,242)" stroke-width="1.5" />
  <line x1="141.34" y1="155.59" x2="128.71" y2="169.62" stroke="rgb(228,226,242)" stroke-width="1.5" />
  <line x1="106.2" y1="168.94" x2="98.78" y2="146.12" stroke="rgb(228,226,242)" stroke-width="1.5" />
  <line x1="108.83" y1="165.39" x2="103" y2="147.44" stroke="rgb(228,226,242)" stroke-width="1.5" />
  <line x1="114.84" y1="128.28" x2="138.32" y2="133.27" stroke="rgb(228,226,242)" stroke-width="1.5" />
  <line x1="116.6" y1="132.33" x2="135.06" y2="136.26" stroke="rgb(228,226,242)" stroke-width="1.5" />
  <line x1="187.79" y1="178.93" x2="186.53" y2="202.9" stroke="rgb(228,226,242)" stroke-width="1.5" />
  <line x1="191.25" y1="181.67" x2="190.26" y2="200.53" stroke="rgb(228,226,242)" stroke-width="1.5" />
  <line x1="206.66" y1="215.97" x2="228.04" y2="205.07" stroke="rgb(228,226,242)" stroke-width="1.5" />
  <line x1="207.3" y1="211.6" x2="224.13" y2="203.03" stroke="rgb(228,226,242)" stroke-width="1.5" />
  <line x1="229.3" y1="181.1" x2="209.17" y2="168.03" stroke="rgb(228,226,242)" stroke-width="1.5" />
  <line x1="225.19" y1="182.73" x2="209.36" y2="172.45" stroke="rgb(228,226,242)" stroke-width="1.5" />
  <line x1="230.01" y1="81.86" x2="215.28" y2="90.36" stroke="rgb(228,226,242)" stroke-width="1.5" />
  <line x1="203.17" y1="90.36" x2="188.44" y2="81.86" stroke="rgb(228,226,242)" stroke-width="1.5" />
  <line x1="209.23" y1="100.86" x2="209.23" y2="117.86" stroke="rgb(228,226,242)" stroke-width="1.5" />
  <line x1="209.23" y1="117.86" x2="188.44" y2="129.86" stroke="rgb(228,226,242)" stroke-width="1.5" />
  <line x1="188.44" y1="129.86" x2="188.44" y2="153.86" stroke="rgb(228,226,242)" stroke-width="1.5" />
  <polygon points="168,166 179,161 177,159 " fill="rgb(160,0,0)" stroke="rgb(160,0,0)" stroke-width="1.5" />
  <polygon points="177,159 179,161 190,156 187,152 " fill="rgb(160,0,0)" stroke="rgb(160,0,0)" stroke-width="1.5" />
  <line x1="167.66" y1="165.86" x2="145.73" y2="156.1" stroke="rgb(228,226,242)" stroke-width="1.5" />
  <line x1="129.67" y1="173.93" x2="141.67" y2="194.72" stroke="rgb(228,226,242)" stroke-width="1.5" />
  <line x1="141.67" y1="194.72" x2="158.7" y2="191.1" stroke="rgb(228,226,242)" stroke-width="1.5" />
  <line x1="167.66" y1="165.86" x2="165.88" y2="182.73" stroke="rgb(228,226,242)" stroke-width="1.5" />
  <line x1="129.67" y1="173.93" x2="106.2" y2="168.94" stroke="rgb(228,226,242)" stroke-width="1.5" />
  <line x1="98.78" y1="146.12" x2="114.84" y2="128.28" stroke="rgb(228,226,242)" stroke-width="1.5" />
  <line x1="145.73" y1="156.1" x2="138.32" y2="133.27" stroke="rgb(228,226,242)" stroke-width="1.5" />
  <line x1="98.78" y1="146.12" x2="75.31" y2="141.13" stroke="rgb(228,226,242)" stroke-width="1.5" />
  <line x1="75.31" y1="141.13" x2="57.88" y2="137.42" stroke="rgb(228,226,242)" stroke-width="1.5" />
  <line x1="76.05" y1="137.6" x2="58.63" y2="133.9" stroke="rgb(228,226,242)" stroke-width="1.5" />
  <line x1="74.56" y1="144.65" x2="57.14" y2="140.94" stroke="rgb(228,226,242)" stroke-width="1.5" />
  <line x1="167.66" y1="165.86" x2="187.79" y2="178.93" stroke="rgb(228,226,242)" stroke-width="1.5" />
  <line x1="186.53" y1="202.9" x2="206.66" y2="215.97" stroke="rgb(228,226,242)" stroke-width="1.5" />
  <line x1="228.04" y1="205.07" x2="229.3" y2="181.1" stroke="rgb(228,226,242)" stroke-width="1.5" />
  <line x1="187.79" y1="178.93" x2="209.17" y2="168.03" stroke="rgb(228,226,242)" stroke-width="1.5" />
  <line x1="228.04" y1="205.07" x2="242.89" y2="214.72" stroke="rgb(228,226,242)" stroke-width="1.5" />
  <line id="mol8:Bond:7" class="event" x1="145.73" y1="156.1" x2="129.67" y2="173.93" stroke-width="1.5" opacity="0" />
  <line id="mol8:Bond:12" class="event" x1="106.2" y1="168.94" x2="98.78" y2="146.12" stroke-width="1.5" opacity="0" />
  <line id="mol8:Bond:14" class="event" x1="114.84" y1="128.28" x2="138.32" y2="133.27" stroke-width="1.5" opacity="0" />
  <line id="mol8:Bond:19" class="event" x1="187.79" y1="178.93" x2="186.53" y2="202.9" stroke-width="1.5" opacity="0" />
  <line id="mol8:Bond:21" class="event" x1="206.66" y1="215.97" x2="228.04" y2="205.07" stroke-width="1.5" opacity="0" />
  <line id="mol8:Bond:23" class="event" x1="229.3" y1="181.1" x2="209.17" y2="168.03" stroke-width="1.5" opacity="0" />
  <line id="mol8:Bond:0" class="event" x1="230.01" y1="81.86" x2="209.23" y2="93.86" stroke-width="1.5" opacity="0" />
  <line id="mol8:Bond:1" class="event" x1="209.23" y1="93.86" x2="188.44" y2="81.86" stroke-width="1.5" opacity="0" />
  <line id="mol8:Bond:2" class="event" x1="209.23" y1="93.86" x2="209.23" y2="117.86" stroke-width="1.5" opacity="0" />
  <line id="mol8:Bond:3" class="event" x1="209.23" y1="117.86" x2="188.44" y2="129.86" stroke-width="1.5" opacity="0" />
  <line id="mol8:Bond:4" class="event" x1="188.44" y1="129.86" x2="188.44" y2="153.86" stroke-width="1.5" opacity="0" />
  <line id="mol8:Bond:5" class="event" x1="167.66" y1="165.86" x2="188.44" y2="153.86" stroke-width="1.5" opacity="0" />
  <line id="mol8:Bond:6" class="event" x1="167.66" y1="165.86" x2="145.73" y2="156.1" stroke-width="1.5" opacity="0" />
  <line id="mol8:Bond:8" class="event" x1="129.67" y1="173.93" x2="141.67" y2="194.72" stroke-width="1.5" opacity="0" />
  <line id="mol8:Bond:9" class="event" x1="141.67" y1="194.72" x2="165.15" y2="189.73" stroke-width="1.5" opacity="0" />
  <line id="mol8:Bond:10" class="event" x1="167.66" y1="165.86" x2="165.15" y2="189.73" stroke-width="1.5" opacity="0" />
  <line id="mol8:Bond:11" class="event" x1="129.67" y1="173.93" x2="106.2" y2="168.94" stroke-width="1.5" opacity="0" />
  <line id="mol8:Bond:13" class="event" x1="98.78" y1="146.12" x2="114.84" y2="128.28" stroke-width="1.5" opacity="0" />
  <line id="mol8:Bond:15" class="event" x1="145.73" y1="156.1" x2="138.32" y2="133.27" stroke-width="1.5" opacity="0" />
  <line id="mol8:Bond:16" class="event" x1="98.78" y1="146.12" x2="75.31" y2="141.13" stroke-width="1.5" opacity="0" />
  <line id="mol8:Bond:17" class="event" x1="75.31" y1="141.13" x2="51.83" y2="136.14" stroke-width="1.5" opacity="0" />
  <line id="mol8:Bond:18" class="event" x1="167.66" y1="165.86" x2="187.79" y2="178.93" stroke-width="1.5" opacity="0" />
  <line id="mol8:Bond:20" class="event" x1="186.53" y1="202.9" x2="206.66" y2="215.97" stroke-width="1.5" opacity="0" />
  <line id="mol8:Bond:22" class="event" x1="228.04" y1="205.07" x2="229.3" y2="181.1" stroke-width="1.5" opacity="0" />
  <line id="mol8:Bond:24" class="event" x1="187.79" y1="178.93" x2="209.17" y2="168.03" stroke-width="1.5" opacity="0" />
  <line id="mol8:Bond:25" class="event" x1="228.04" y1="205.07" x2="248.17" y2="218.14" stroke-width="1.5" opacity="0" />
  <circle id="mol8:Atom:0" class="event" cx="230.01" cy="81.86" r="8" opacity="0" />
  <circle id="mol8:Atom:1" class="event" cx="209.23" cy="93.86" r="8" opacity="0" />
  <circle id="mol8:Atom:2" class="event" cx="188.44" cy="81.86" r="8" opacity="0" />
  <circle id="mol8:Atom:3" class="event" cx="209.23" cy="117.86" r="8" opacity="0" />
  <circle id="mol8:Atom:4" class="event" cx="188.44" cy="129.86" r="8" opacity="0" />
  <circle id="mol8:Atom:5" class="event" cx="188.44" cy="153.86" r="8" opacity="0" />
  <circle id="mol8:Atom:6" class="event" cx="167.66" cy="165.86" r="8" opacity="0" />
  <circle id="mol8:Atom:7" class="event" cx="145.73" cy="156.1" r="8" opacity="0" />
  <circle id="mol8:Atom:8" class="event" cx="129.67" cy="173.93" r="8" opacity="0" />
  <circle id="mol8:Atom:9" class="event" cx="141.67" cy="194.72" r="8" opacity="0" />
  <circle id="mol8:Atom:10" class="event" cx="165.15" cy="189.73" r="8" opacity="0" />
  <circle id="mol8:Atom:11" class="event" cx="106.2" cy="168.94" r="8" opacity="0" />
  <circle id="mol8:Atom:12" class="event" cx="98.78" cy="146.12" r="8" opacity="0" />
  <circle id="mol8:Atom:13" class="event" cx="114.84" cy="128.28" r="8" opacity="0" />
  <circle id="mol8:Atom:14" class="event" cx="138.32" cy="133.27" r="8" opacity="0" />
  <circle id="mol8:Atom:15" class="event" cx="75.31" cy="141.13" r="8" opacity="0" />
  <circle id="mol8:Atom:16" class="event" cx="51.83" cy="136.14" r="8" opacity="0" />
  <circle id="mol8:Atom:17" class="event" cx="187.79" cy="178.93" r="8" opacity="0" />
  <circle id="mol8:Atom:18" class="event" cx="186.53" cy="202.9" r="8" opacity="0" />
  <circle id="mol8:Atom:19" class="event" cx="206.66" cy="215.97" r="8" opacity="0" />
  <circle id="mol8:Atom:20" class="event" cx="228.04" cy="205.07" r="8" opacity="0" />
  <circle id="mol8:Atom:21" class="event" cx="229.3" cy="181.1" r="8" opacity="0" />
  <circle id="mol8:Atom:22" class="event" cx="209.17" cy="168.03" r="8" opacity="0" />
  <circle id="mol8:Atom:23" class="event" cx="248.17" cy="218.14" r="8" opacity="0" />
</svg>