<svg id="mol8" xmlns="http://www.w3.org/2000/svg" version="1.1" width="195px" height="175px" viewBox="56 67 195 175">
  <style> #mol8 text {font-family: sans-serif;} #mol8 { pointer-events:none; } #mol8 .event  { pointer-events:all; } #mol8 line { stroke-linecap:round; } #mol8 polygon { stroke-linejoin:round; } </style>
  <text x="112.79" y="255.76" stroke="none" font-size="12" fill="rgb(160,0,0)">this enantiomer</text>
  <text x="98.55" y="133.5" stroke="none" font-size="14" fill="rgb(129,140,248)">N</text>
  <text x="98.55" y="147.5" stroke="none" font-size="14" fill="rgb(129,140,248)">H</text>
  <text x="121.23" y="132.66" stroke="none" font-size="9" fill="rgb(160,0,0)">S</text>
  <text x="126.19" y="126.57" stroke="none" font-size="9" fill="rgb(160,0,0)">abs</text>
  <text x="153.08" y="105.94" stroke="none" font-size="9" fill="rgb(160,0,0)">S</text>
  <text x="158.03" y="99.85" stroke="none" font-size="9" fill="rgb(160,0,0)">abs</text>
  <text x="169.84" y="121" stroke="none" font-size="14" fill="rgb(205,205,38)">S</text>
  <text x="191.61" y="129.2" stroke="none" font-size="14" fill="rgb(248,113,113)">O</text>
  <text x="187.45" y="105.57" stroke="none" font-size="14" fill="rgb(248,113,113)">O</text>
  <text x="172.9" y="164.74" stroke="none" font-size="14" fill="rgb(205,205,38)">S</text>
  <text x="160.39" y="205.64" stroke="none" font-size="14" fill="rgb(205,205,38)">S</text>
  <text x="135.98" y="209.81" stroke="none" font-size="14" fill="rgb(248,113,113)">O</text>
  <text x="183.25" y="201.47" stroke="none" font-size="14" fill="rgb(248,113,113)">O</text>
  <text x="164.18" y="229.27" stroke="none" font-size="14" fill="rgb(129,140,248)">N</text>
  <text x="184.39" y="232.61" stroke="none" font-size="9" fill="rgb(129,140,248)">2</text>
  <text x="174.28" y="229.27" stroke="none" font-size="14" fill="rgb(129,140,248)">H</text>
  <text x="228.85" y="147.27" stroke="none" font-size="14" fill="rgb(31,240,31)">Cl</text>
  <text x="218.74" y="147.27" stroke="none" font-size="14" fill="rgb(31,240,31)">H</text>
  <line x1="179.56" y1="120.08" x2="190" y2="123.88" stroke="rgb(228,226,242)" stroke-width="1.5" />
  <line x1="180.79" y1="116.7" x2="191.23" y2="120.5" stroke="rgb(228,226,242)" stroke-width="1.5" />
  <line x1="181.33" y1="112.95" x2="187.6" y2="107.69" stroke="rgb(228,226,242)" stroke-width="1.5" />
  <line x1="179.02" y1="110.19" x2="185.29" y2="104.93" stroke="rgb(228,226,242)" stroke-width="1.5" />
  <line x1="166.3" y1="138.88" x2="142.66" y2="143.05" stroke="rgb(228,226,242)" stroke-width="1.5" />
  <line x1="163.96" y1="142.95" x2="146.26" y2="146.07" stroke="rgb(228,226,242)" stroke-width="1.5" />
  <line x1="139.32" y1="166.82" x2="160.9" y2="177.34" stroke="rgb(228,226,242)" stroke-width="1.5" />
  <line x1="143.61" y1="164.9" x2="159.76" y2="172.78" stroke="rgb(228,226,242)" stroke-width="1.5" />
  <line x1="159.08" y1="200.2" x2="147.56" y2="202.23" stroke="rgb(228,226,242)" stroke-width="1.5" />
  <line x1="159.71" y1="203.74" x2="148.19" y2="205.78" stroke="rgb(228,226,242)" stroke-width="1.5" />
  <line x1="171.04" y1="201.75" x2="182.56" y2="199.71" stroke="rgb(228,226,242)" stroke-width="1.5" />
  <line x1="170.42" y1="198.2" x2="181.94" y2="196.17" stroke="rgb(228,226,242)" stroke-width="1.5" />
  <line x1="64.54" y1="114.61" x2="88.18" y2="110.45" stroke="rgb(228,226,242)" stroke-width="1.5" />
  <line x1="88.18" y1="110.45" x2="97.73" y2="121.83" stroke="rgb(228,226,242)" stroke-width="1.5" />
  <polygon points="127,125 118,125 119,127 " fill="rgb(160,0,0)" stroke="rgb(160,0,0)" stroke-width="1.5" />
  <polygon points="119,127 118,125 109,126 110,130 " fill="rgb(160,0,0)" stroke="rgb(160,0,0)" stroke-width="1.5" />
  <line x1="127.24" y1="124.66" x2="135.45" y2="102.11" stroke="rgb(228,226,242)" stroke-width="1.5" />
  <line x1="135.45" y1="102.11" x2="159.08" y2="97.94" stroke="rgb(228,226,242)" stroke-width="1.5" />
  <line x1="159.08" y1="97.94" x2="168.84" y2="109.57" stroke="rgb(228,226,242)" stroke-width="1.5" />
  <line x1="171.96" y1="123.33" x2="166.3" y2="138.88" stroke="rgb(228,226,242)" stroke-width="1.5" />
  <line x1="127.24" y1="124.66" x2="142.66" y2="143.05" stroke="rgb(228,226,242)" stroke-width="1.5" />
  <line x1="142.66" y1="143.05" x2="139.32" y2="166.82" stroke="rgb(228,226,242)" stroke-width="1.5" />
  <line x1="160.9" y1="177.34" x2="171.9" y2="165.94" stroke="rgb(228,226,242)" stroke-width="1.5" />
  <line x1="166.3" y1="138.88" x2="173.85" y2="153.07" stroke="rgb(228,226,242)" stroke-width="1.5" />
  <line x1="160.9" y1="177.34" x2="163.83" y2="193.97" stroke="rgb(228,226,242)" stroke-width="1.5" />
  <line x1="166.3" y1="207.97" x2="168" y2="217.61" stroke="rgb(228,226,242)" stroke-width="1.5" />
  <line x1="160.4" y1="95.42" x2="159.69" y2="95.16" stroke="rgb(160,0,0)" stroke-width="1.5" />
  <line x1="161.72" y1="92.89" x2="160.31" y2="92.38" stroke="rgb(160,0,0)" stroke-width="1.5" />
  <line x1="163.04" y1="90.37" x2="160.92" y2="89.6" stroke="rgb(160,0,0)" stroke-width="1.5" />
  <line x1="164.35" y1="87.84" x2="161.53" y2="86.82" stroke="rgb(160,0,0)" stroke-width="1.5" />
  <line x1="165.67" y1="85.32" x2="162.15" y2="84.04" stroke="rgb(160,0,0)" stroke-width="1.5" />
  <line x1="166.99" y1="82.79" x2="162.76" y2="81.26" stroke="rgb(160,0,0)" stroke-width="1.5" />
  <line x1="168.31" y1="80.27" x2="163.37" y2="78.47" stroke="rgb(160,0,0)" stroke-width="1.5" />
  <line x1="169.63" y1="77.74" x2="163.99" y2="75.69" stroke="rgb(160,0,0)" stroke-width="1.5" />
  <line id="mol8:Bond:6" class="event" x1="174.51" y1="116.33" x2="197.06" y2="124.54" stroke-width="1.5" opacity="0" />
  <line id="mol8:Bond:7" class="event" x1="174.51" y1="116.33" x2="192.89" y2="100.9" stroke-width="1.5" opacity="0" />
  <line id="mol8:Bond:9" class="event" x1="166.3" y1="138.88" x2="142.66" y2="143.05" stroke-width="1.5" opacity="0" />
  <line id="mol8:Bond:12" class="event" x1="139.32" y1="166.82" x2="160.9" y2="177.34" stroke-width="1.5" opacity="0" />
  <line id="mol8:Bond:16" class="event" x1="165.06" y1="200.97" x2="141.43" y2="205.14" stroke-width="1.5" opacity="0" />
  <line id="mol8:Bond:17" class="event" x1="165.06" y1="200.97" x2="188.7" y2="196.81" stroke-width="1.5" opacity="0" />
  <line id="mol8:Bond:0" class="event" x1="64.54" y1="114.61" x2="88.18" y2="110.45" stroke-width="1.5" opacity="0" />
  <line id="mol8:Bond:1" class="event" x1="88.18" y1="110.45" x2="103.6" y2="128.83" stroke-width="1.5" opacity="0" />
  <line id="mol8:Bond:2" class="event" x1="127.24" y1="124.66" x2="103.6" y2="128.83" stroke-width="1.5" opacity="0" />
  <line id="mol8:Bond:3" class="event" x1="127.24" y1="124.66" x2="135.45" y2="102.11" stroke-width="1.5" opacity="0" />
  <line id="mol8:Bond:4" class="event" x1="135.45" y1="102.11" x2="159.08" y2="97.94" stroke-width="1.5" opacity="0" />
  <line id="mol8:Bond:5" class="event" x1="159.08" y1="97.94" x2="174.51" y2="116.33" stroke-width="1.5" opacity="0" />
  <line id="mol8:Bond:8" class="event" x1="174.51" y1="116.33" x2="166.3" y2="138.88" stroke-width="1.5" opacity="0" />
  <line id="mol8:Bond:10" class="event" x1="127.24" y1="124.66" x2="142.66" y2="143.05" stroke-width="1.5" opacity="0" />
  <line id="mol8:Bond:11" class="event" x1="142.66" y1="143.05" x2="139.32" y2="166.82" stroke-width="1.5" opacity="0" />
  <line id="mol8:Bond:13" class="event" x1="160.9" y1="177.34" x2="177.57" y2="160.07" stroke-width="1.5" opacity="0" />
  <line id="mol8:Bond:14" class="event" x1="166.3" y1="138.88" x2="177.57" y2="160.07" stroke-width="1.5" opacity="0" />
  <line id="mol8:Bond:15" class="event" x1="160.9" y1="177.34" x2="165.06" y2="200.97" stroke-width="1.5" opacity="0" />
  <line id="mol8:Bond:18" class="event" x1="165.06" y1="200.97" x2="169.23" y2="224.61" stroke-width="1.5" opacity="0" />
  <line id="mol8:Bond:19" class="event" x1="159.08" y1="97.94" x2="167.29" y2="75.39" stroke-width="1.5" opacity="0" />
  <circle id="mol8:Atom:0" class="event" cx="64.54" cy="114.61" r="8" opacity="0" />
  <circle id="mol8:Atom:1" class="event" cx="88.18" cy="110.45" r="8" opacity="0" />
  <circle id="mol8:Atom:2" class="event" cx="103.6" cy="128.83" r="8" opacity="0" />
  <circle id="mol8:Atom:3" class="event" cx="127.24" cy="124.66" r="8" opacity="0" />
  <circle id="mol8:Atom:4" class="event" cx="135.45" cy="102.11" r="8" opacity="0" />
  <circle id="mol8:Atom:5" class="event" cx="159.08" cy="97.94" r="8" opacity="0" />
  <circle id="mol8:Atom:6" class="event" cx="174.51" cy="116.33" r="8" opacity="0" />
  <circle id="mol8:Atom:7" class="event" cx="197.06" cy="124.54" r="8" opacity="0" />
  <circle id="mol8:Atom:8" class="event" cx="192.89" cy="100.9" r="8" opacity="0" />
  <circle id="mol8:Atom:9" class="event" cx="166.3" cy="138.88" r="8" opacity="0" />
  <circle id="mol8:Atom:10" class="event" cx="142.66" cy="143.05" r="8" opacity="0" />
  <circle id="mol8:Atom:11" class="event" cx="139.32" cy="166.82" r="8" opacity="0" />
  <circle id="mol8:Atom:12" class="event" cx="160.9" cy="177.34" r="8" opacity="0" />
  <circle id="mol8:Atom:13" class="event" cx="177.57" cy="160.07" r="8" opacity="0" />
  <circle id="mol8:Atom:14" class="event" cx="165.06" cy="200.97" r="8" opacity="0" />
  <circle id="mol8:Atom:15" class="event" cx="141.43" cy="205.14" r="8" opacity="0" />
  <circle id="mol8:Atom:16" class="event" cx="188.7" cy="196.81" r="8" opacity="0" />
  <circle id="mol8:Atom:17" class="event" cx="169.23" cy="224.61" r="8" opacity="0" />
  <circle id="mol8:Atom:18" class="event" cx="167.29" cy="75.39" r="8" opacity="0" />
  <circle id="mol8:Atom:19" class="event" cx="235.46" cy="142.6" r="8" opacity="0" />
</svg>