<svg id="mol9" xmlns="http://www.w3.org/2000/svg" version="1.1" width="312px" height="70px" viewBox="-6 115 312 70">
  <style> #mol9 text {font-family: sans-serif;} #mol9 { pointer-events:none; } #mol9 .event  { pointer-events:all; } #mol9 line { stroke-linecap:round; } #mol9 polygon { stroke-linejoin:round; } </style>
  <text x="123.16" y="189.9" stroke="none" font-size="7" fill="rgb(160,0,0)">unknown chirality</text>
  <text x="112.58" y="158.17" stroke="none" font-size="8" fill="rgb(248,113,113)">O</text>
  <text x="90.04" y="160.17" stroke="none" font-size="5" fill="rgb(160,0,0)">?</text>
  <text x="66.83" y="158.17" stroke="none" font-size="8" fill="rgb(248,113,113)">O</text>
  <text x="55.84" y="164.78" stroke="none" font-size="8" fill="rgb(255,128,0)">P</text>
  <text x="53.06" y="166.78" stroke="none" font-size="5" fill="rgb(160,0,0)">?</text>
  <text x="48.79" y="176.21" stroke="none" font-size="8" fill="rgb(248,113,113)">O</text>
  <text x="62" y="176.21" stroke="none" font-size="8" fill="rgb(248,113,113)">O</text>
  <text x="69.22" y="173.21" stroke="none" font-size="5" fill="rgb(248,113,113)">-</text>
  <text x="43.96" y="158.17" stroke="none" font-size="8" fill="rgb(248,113,113)">O</text>
  <text x="9.87" y="164.78" stroke="none" font-size="8" fill="rgb(129,140,248)">N</text>
  <text x="16.65" y="161.78" stroke="none" font-size="5" fill="rgb(129,140,248)">+</text>
  <text x="89.7" y="144.97" stroke="none" font-size="8" fill="rgb(248,113,113)">O</text>
  <text x="112.58" y="144.97" stroke="none" font-size="8" fill="rgb(248,113,113)">O</text>
  <line x1="55.34" y1="165.61" x2="53.35" y2="169.05" stroke="rgb(228,226,242)" stroke-width="1.5" />
  <line x1="57.05" y1="166.6" x2="55.07" y2="170.04" stroke="rgb(228,226,242)" stroke-width="1.5" />
  <line x1="103.26" y1="136.27" x2="111.08" y2="140.78" stroke="rgb(228,226,242)" stroke-width="1.5" />
  <line x1="104.25" y1="134.55" x2="112.07" y2="139.07" stroke="rgb(228,226,242)" stroke-width="1.5" />
  <line x1="298.68" y1="155.51" x2="287.24" y2="162.11" stroke="rgb(228,226,242)" stroke-width="1.5" />
  <line x1="287.24" y1="162.11" x2="275.81" y2="155.51" stroke="rgb(228,226,242)" stroke-width="1.5" />
  <line x1="275.81" y1="155.51" x2="264.37" y2="162.11" stroke="rgb(228,226,242)" stroke-width="1.5" />
  <line x1="264.37" y1="162.11" x2="252.93" y2="155.51" stroke="rgb(228,226,242)" stroke-width="1.5" />
  <line x1="252.93" y1="155.51" x2="241.5" y2="162.11" stroke="rgb(228,226,242)" stroke-width="1.5" />
  <line x1="241.5" y1="162.11" x2="230.06" y2="155.51" stroke="rgb(228,226,242)" stroke-width="1.5" />
  <line x1="230.06" y1="155.51" x2="218.62" y2="162.11" stroke="rgb(228,226,242)" stroke-width="1.5" />
  <line x1="218.62" y1="162.11" x2="207.18" y2="155.51" stroke="rgb(228,226,242)" stroke-width="1.5" />
  <line x1="207.18" y1="155.51" x2="195.75" y2="162.11" stroke="rgb(228,226,242)" stroke-width="1.5" />
  <line x1="195.75" y1="162.11" x2="184.31" y2="155.51" stroke="rgb(228,226,242)" stroke-width="1.5" />
  <line x1="184.31" y1="155.51" x2="172.87" y2="162.11" stroke="rgb(228,226,242)" stroke-width="1.5" />
  <line x1="172.87" y1="162.11" x2="161.44" y2="155.51" stroke="rgb(228,226,242)" stroke-width="1.5" />
  <line x1="161.44" y1="155.51" x2="150" y2="162.11" stroke="rgb(228,226,242)" stroke-width="1.5" />
  <line x1="150" y1="162.11" x2="138.56" y2="155.51" stroke="rgb(228,226,242)" stroke-width="1.5" />
  <line x1="138.56" y1="155.51" x2="127.13" y2="162.11" stroke="rgb(228,226,242)" stroke-width="1.5" />
  <line x1="127.13" y1="162.11" x2="119.8" y2="157.88" stroke="rgb(228,226,242)" stroke-width="1.5" />
  <line x1="111.58" y1="157.88" x2="104.25" y2="162.11" stroke="rgb(228,226,242)" stroke-width="1.5" />
  <line x1="104.25" y1="162.11" x2="92.82" y2="155.51" stroke="rgb(228,226,242)" stroke-width="1.5" />
  <line x1="92.82" y1="155.51" x2="81.38" y2="162.11" stroke="rgb(228,226,242)" stroke-width="1.5" />
  <line x1="81.38" y1="162.11" x2="74.05" y2="157.88" stroke="rgb(228,226,242)" stroke-width="1.5" />
  <line x1="65.83" y1="157.88" x2="62.17" y2="159.99" stroke="rgb(228,226,242)" stroke-width="1.5" />
  <line x1="60.81" y1="166.11" x2="62.8" y2="169.55" stroke="rgb(228,226,242)" stroke-width="1.5" />
  <line x1="54.84" y1="159.99" x2="51.18" y2="157.88" stroke="rgb(228,226,242)" stroke-width="1.5" />
  <line x1="42.96" y1="157.88" x2="35.63" y2="162.11" stroke="rgb(228,226,242)" stroke-width="1.5" />
  <line x1="35.63" y1="162.11" x2="24.19" y2="155.51" stroke="rgb(228,226,242)" stroke-width="1.5" />
  <line x1="24.19" y1="155.51" x2="16.65" y2="159.86" stroke="rgb(228,226,242)" stroke-width="1.5" />
  <line x1="15.07" y1="166.11" x2="19.36" y2="173.55" stroke="rgb(228,226,242)" stroke-width="1.5" />
  <line x1="8.87" y1="164.35" x2="1.32" y2="168.71" stroke="rgb(228,226,242)" stroke-width="1.5" />
  <line x1="10.45" y1="158.11" x2="6.15" y2="150.67" stroke="rgb(228,226,242)" stroke-width="1.5" />
  <line x1="92.82" y1="155.51" x2="92.82" y2="146.3" stroke="rgb(228,226,242)" stroke-width="1.5" />
  <line x1="96.93" y1="139.93" x2="104.25" y2="135.7" stroke="rgb(228,226,242)" stroke-width="1.5" />
  <line x1="104.25" y1="135.7" x2="104.25" y2="122.49" stroke="rgb(228,226,242)" stroke-width="1.5" />
  <line id="mol9:Bond:21" class="event" x1="58.5" y1="162.11" x2="51.9" y2="173.55" stroke-width="1.5" opacity="0" />
  <line id="mol9:Bond:32" class="event" x1="104.25" y1="135.7" x2="115.69" y2="142.3" stroke-width="1.5" opacity="0" />
  <line id="mol9:Bond:0" class="event" x1="298.68" y1="155.51" x2="287.24" y2="162.11" stroke-width="1.5" opacity="0" />
  <line id="mol9:Bond:1" class="event" x1="287.24" y1="162.11" x2="275.81" y2="155.51" stroke-width="1.5" opacity="0" />
  <line id="mol9:Bond:2" class="event" x1="275.81" y1="155.51" x2="264.37" y2="162.11" stroke-width="1.5" opacity="0" />
  <line id="mol9:Bond:3" class="event" x1="264.37" y1="162.11" x2="252.93" y2="155.51" stroke-width="1.5" opacity="0" />
  <line id="mol9:Bond:4" class="event" x1="252.93" y1="155.51" x2="241.5" y2="162.11" stroke-width="1.5" opacity="0" />
  <line id="mol9:Bond:5" class="event" x1="241.5" y1="162.11" x2="230.06" y2="155.51" stroke-width="1.5" opacity="0" />
  <line id="mol9:Bond:6" class="event" x1="230.06" y1="155.51" x2="218.62" y2="162.11" stroke-width="1.5" opacity="0" />
  <line id="mol9:Bond:7" class="event" x1="218.62" y1="162.11" x2="207.18" y2="155.51" stroke-width="1.5" opacity="0" />
  <line id="mol9:Bond:8" class="event" x1="207.18" y1="155.51" x2="195.75" y2="162.11" stroke-width="1.5" opacity="0" />
  <line id="mol9:Bond:9" class="event" x1="195.75" y1="162.11" x2="184.31" y2="155.51" stroke-width="1.5" opacity="0" />
  <line id="mol9:Bond:10" class="event" x1="184.31" y1="155.51" x2="172.87" y2="162.11" stroke-width="1.5" opacity="0" />
  <line id="mol9:Bond:11" class="event" x1="172.87" y1="162.11" x2="161.44" y2="155.51" stroke-width="1.5" opacity="0" />
  <line id="mol9:Bond:12" class="event" x1="161.44" y1="155.51" x2="150" y2="162.11" stroke-width="1.5" opacity="0" />
  <line id="mol9:Bond:13" class="event" x1="150" y1="162.11" x2="138.56" y2="155.51" stroke-width="1.5" opacity="0" />
  <line id="mol9:Bond:14" class="event" x1="138.56" y1="155.51" x2="127.13" y2="162.11" stroke-width="1.5" opacity="0" />
  <line id="mol9:Bond:15" class="event" x1="127.13" y1="162.11" x2="115.69" y2="155.51" stroke-width="1.5" opacity="0" />
  <line id="mol9:Bond:16" class="event" x1="115.69" y1="155.51" x2="104.25" y2="162.11" stroke-width="1.5" opacity="0" />
  <line id="mol9:Bond:17" class="event" x1="104.25" y1="162.11" x2="92.82" y2="155.51" stroke-width="1.5" opacity="0" />
  <line id="mol9:Bond:18" class="event" x1="92.82" y1="155.51" x2="81.38" y2="162.11" stroke-width="1.5" opacity="0" />
  <line id="mol9:Bond:19" class="event" x1="81.38" y1="162.11" x2="69.94" y2="155.51" stroke-width="1.5" opacity="0" />
  <line id="mol9:Bond:20" class="event" x1="69.94" y1="155.51" x2="58.5" y2="162.11" stroke-width="1.5" opacity="0" />
  <line id="mol9:Bond:22" class="event" x1="58.5" y1="162.11" x2="65.11" y2="173.55" stroke-width="1.5" opacity="0" />
  <line id="mol9:Bond:23" class="event" x1="58.5" y1="162.11" x2="47.07" y2="155.51" stroke-width="1.5" opacity="0" />
  <line id="mol9:Bond:24" class="event" x1="47.07" y1="155.51" x2="35.63" y2="162.11" stroke-width="1.5" opacity="0" />
  <line id="mol9:Bond:25" class="event" x1="35.63" y1="162.11" x2="24.19" y2="155.51" stroke-width="1.5" opacity="0" />
  <line id="mol9:Bond:26" class="event" x1="24.19" y1="155.51" x2="12.76" y2="162.11" stroke-width="1.5" opacity="0" />
  <line id="mol9:Bond:27" class="event" x1="12.76" y1="162.11" x2="19.36" y2="173.55" stroke-width="1.5" opacity="0" />
  <line id="mol9:Bond:28" class="event" x1="12.76" y1="162.11" x2="1.32" y2="168.71" stroke-width="1.5" opacity="0" />
  <line id="mol9:Bond:29" class="event" x1="12.76" y1="162.11" x2="6.15" y2="150.67" stroke-width="1.5" opacity="0" />
  <line id="mol9:Bond:30" class="event" x1="92.82" y1="155.51" x2="92.82" y2="142.3" stroke-width="1.5" opacity="0" />
  <line id="mol9:Bond:31" class="event" x1="92.82" y1="142.3" x2="104.25" y2="135.7" stroke-width="1.5" opacity="0" />
  <line id="mol9:Bond:33" class="event" x1="104.25" y1="135.7" x2="104.25" y2="122.49" stroke-width="1.5" opacity="0" />
  <circle id="mol9:Atom:0" class="event" cx="298.68" cy="155.51" r="8" opacity="0" />
  <circle id="mol9:Atom:1" class="event" cx="287.24" cy="162.11" r="8" opacity="0" />
  <circle id="mol9:Atom:2" class="event" cx="275.81" cy="155.51" r="8" opacity="0" />
  <circle id="mol9:Atom:3" class="event" cx="264.37" cy="162.11" r="8" opacity="0" />
  <circle id="mol9:Atom:4" class="event" cx="252.93" cy="155.51" r="8" opacity="0" />
  <circle id="mol9:Atom:5" class="event" cx="241.5" cy="162.11" r="8" opacity="0" />
  <circle id="mol9:Atom:6" class="event" cx="230.06" cy="155.51" r="8" opacity="0" />
  <circle id="mol9:Atom:7" class="event" cx="218.62" cy="162.11" r="8" opacity="0" />
  <circle id="mol9:Atom:8" class="event" cx="207.18" cy="155.51" r="8" opacity="0" />
  <circle id="mol9:Atom:9" class="event" cx="195.75" cy="162.11" r="8" opacity="0" />
  <circle id="mol9:Atom:10" class="event" cx="184.31" cy="155.51" r="8" opacity="0" />
  <circle id="mol9:Atom:11" class="event" cx="172.87" cy="162.11" r="8" opacity="0" />
  <circle id="mol9:Atom:12" class="event" cx="161.44" cy="155.51" r="8" opacity="0" />
  <circle id="mol9:Atom:13" class="event" cx="150" cy="162.11" r="8" opacity="0" />
  <circle id="mol9:Atom:14" class="event" cx="138.56" cy="155.51" r="8" opacity="0" />
  <circle id="mol9:Atom:15" class="event" cx="127.13" cy="162.11" r="8" opacity="0" />
  <circle id="mol9:Atom:16" class="event" cx="115.69" cy="155.51" r="8" opacity="0" />
  <circle id="mol9:Atom:17" class="event" cx="104.25" cy="162.11" r="8" opacity="0" />
  <circle id="mol9:Atom:18" class="event" cx="92.82" cy="155.51" r="8" opacity="0" />
  <circle id="mol9:Atom:19" class="event" cx="81.38" cy="162.11" r="8" opacity="0" />
  <circle id="mol9:Atom:20" class="event" cx="69.94" cy="155.51" r="8" opacity="0" />
  <circle id="mol9:Atom:21" class="event" cx="58.5" cy="162.11" r="8" opacity="0" />
  <circle id="mol9:Atom:22" class="event" cx="51.9" cy="173.55" r="8" opacity="0" />
  <circle id="mol9:Atom:23" class="event" cx="65.11" cy="173.55" r="8" opacity="0" />
  <circle id="mol9:Atom:24" class="event" cx="47.07" cy="155.51" r="8" opacity="0" />
  <circle id="mol9:Atom:25" class="event" cx="35.63" cy="162.11" r="8" opacity="0" />
  <circle id="mol9:Atom:26" class="event" cx="24.19" cy="155.51" r="8" opacity="0" />
  <circle id="mol9:Atom:27" class="event" cx="12.76" cy="162.11" r="8" opacity="0" />
  <circle id="mol9:Atom:28" class="event" cx="19.36" cy="173.55" r="8" opacity="0" />
  <circle id="mol9:Atom:29" class="event" cx="1.32" cy="168.71" r="8" opacity="0" />
  <circle id="mol9:Atom:30" class="event" cx="6.15" cy="150.67" r="8" opacity="0" />
  <circle id="mol9:Atom:31" class="event" cx="92.82" cy="142.3" r="8" opacity="0" />
  <circle id="mol9:Atom:32" class="event" cx="104.25" cy="135.7" r="8" opacity="0" />
  <circle id="mol9:Atom:33" class="event" cx="115.69" cy="142.3" r="8" opacity="0" />
  <circle id="mol9:Atom:34" class="event" cx="104.25" cy="122.49" r="8" opacity="0" />
</svg>