<svg id="mol9" xmlns="http://www.w3.org/2000/svg" version="1.1" width="149px" height="132px" viewBox="79 81 149 132">
  <style> #mol9 text {font-family: sans-serif;} #mol9 { pointer-events:none; } #mol9 .event  { pointer-events:all; } #mol9 line { stroke-linecap:round; } #mol9 polygon { stroke-linejoin:round; } </style>
  <text x="107.79" y="226.15" stroke="none" font-size="12" fill="rgb(160,0,0)">unknown chirality</text>
  <text x="145" y="188" stroke="none" font-size="9" fill="rgb(160,0,0)">?</text>
  <text x="186.12" y="184.67" stroke="none" font-size="14" fill="rgb(248,113,113)">O</text>
  <text x="205.75" y="100.67" stroke="none" font-size="14" fill="rgb(31,240,31)">Cl</text>
  <text x="124.16" y="172.67" stroke="none" font-size="14" fill="rgb(129,140,248)">N</text>
  <text x="124.16" y="158.67" stroke="none" font-size="14" fill="rgb(129,140,248)">H</text>
  <line x1="168.98" y1="169.04" x2="184.22" y2="177.84" stroke="rgb(228,226,242)" stroke-width="1.5" />
  <line x1="170.78" y1="165.92" x2="186.02" y2="174.72" stroke="rgb(228,226,242)" stroke-width="1.5" />
  <line x1="170.78" y1="144" x2="191.57" y2="132" stroke="rgb(228,226,242)" stroke-width="1.5" />
  <line x1="171.2" y1="139.6" x2="187.55" y2="130.16" stroke="rgb(228,226,242)" stroke-width="1.5" />
  <line x1="191.57" y1="108" x2="170.78" y2="96" stroke="rgb(228,226,242)" stroke-width="1.5" />
  <line x1="187.55" y1="109.84" x2="171.2" y2="100.4" stroke="rgb(228,226,242)" stroke-width="1.5" />
  <line x1="150" y1="108" x2="150" y2="132" stroke="rgb(228,226,242)" stroke-width="1.5" />
  <line x1="153.6" y1="110.56" x2="153.6" y2="129.44" stroke="rgb(228,226,242)" stroke-width="1.5" />
  <line x1="150" y1="204" x2="150" y2="180" stroke="rgb(228,226,242)" stroke-width="1.5" />
  <line x1="150" y1="180" x2="170.78" y2="168" stroke="rgb(228,226,242)" stroke-width="1.5" />
  <line x1="170.78" y1="168" x2="170.78" y2="144" stroke="rgb(228,226,242)" stroke-width="1.5" />
  <line x1="191.57" y1="132" x2="191.57" y2="108" stroke="rgb(228,226,242)" stroke-width="1.5" />
  <line x1="170.78" y1="96" x2="150" y2="108" stroke="rgb(228,226,242)" stroke-width="1.5" />
  <line x1="170.78" y1="144" x2="150" y2="132" stroke="rgb(228,226,242)" stroke-width="1.5" />
  <line x1="191.57" y1="108" x2="204.75" y2="100.39" stroke="rgb(228,226,242)" stroke-width="1.5" />
  <line x1="150" y1="180" x2="135.27" y2="171.5" stroke="rgb(228,226,242)" stroke-width="1.5" />
  <line x1="123.16" y1="171.5" x2="108.43" y2="180" stroke="rgb(228,226,242)" stroke-width="1.5" />
  <line x1="108.43" y1="180" x2="120.43" y2="200.78" stroke="rgb(228,226,242)" stroke-width="1.5" />
  <line x1="108.43" y1="180" x2="87.65" y2="192" stroke="rgb(228,226,242)" stroke-width="1.5" />
  <line x1="108.43" y1="180" x2="96.43" y2="159.22" stroke="rgb(228,226,242)" stroke-width="1.5" />
  <line id="mol9:Bond:2" class="event" x1="170.78" y1="168" x2="191.57" y2="180" stroke-width="1.5" opacity="0" />
  <line id="mol9:Bond:4" class="event" x1="170.78" y1="144" x2="191.57" y2="132" stroke-width="1.5" opacity="0" />
  <line id="mol9:Bond:6" class="event" x1="191.57" y1="108" x2="170.78" y2="96" stroke-width="1.5" opacity="0" />
  <line id="mol9:Bond:8" class="event" x1="150" y1="108" x2="150" y2="132" stroke-width="1.5" opacity="0" />
  <line id="mol9:Bond:0" class="event" x1="150" y1="204" x2="150" y2="180" stroke-width="1.5" opacity="0" />
  <line id="mol9:Bond:1" class="event" x1="150" y1="180" x2="170.78" y2="168" stroke-width="1.5" opacity="0" />
  <line id="mol9:Bond:3" class="event" x1="170.78" y1="168" x2="170.78" y2="144" stroke-width="1.5" opacity="0" />
  <line id="mol9:Bond:5" class="event" x1="191.57" y1="132" x2="191.57" y2="108" stroke-width="1.5" opacity="0" />
  <line id="mol9:Bond:7" class="event" x1="170.78" y1="96" x2="150" y2="108" stroke-width="1.5" opacity="0" />
  <line id="mol9:Bond:9" class="event" x1="170.78" y1="144" x2="150" y2="132" stroke-width="1.5" opacity="0" />
  <line id="mol9:Bond:10" class="event" x1="191.57" y1="108" x2="212.35" y2="96" stroke-width="1.5" opacity="0" />
  <line id="mol9:Bond:11" class="event" x1="150" y1="180" x2="129.22" y2="168" stroke-width="1.5" opacity="0" />
  <line id="mol9:Bond:12" class="event" x1="129.22" y1="168" x2="108.43" y2="180" stroke-width="1.5" opacity="0" />
  <line id="mol9:Bond:13" class="event" x1="108.43" y1="180" x2="120.43" y2="200.78" stroke-width="1.5" opacity="0" />
  <line id="mol9:Bond:14" class="event" x1="108.43" y1="180" x2="87.65" y2="192" stroke-width="1.5" opacity="0" />
  <line id="mol9:Bond:15" class="event" x1="108.43" y1="180" x2="96.43" y2="159.22" stroke-width="1.5" opacity="0" />
  <circle id="mol9:Atom:0" class="event" cx="150" cy="204" r="8" opacity="0" />
  <circle id="mol9:Atom:1" class="event" cx="150" cy="180" r="8" opacity="0" />
  <circle id="mol9:Atom:2" class="event" cx="170.78" cy="168" r="8" opacity="0" />
  <circle id="mol9:Atom:3" class="event" cx="191.57" cy="180" r="8" opacity="0" />
  <circle id="mol9:Atom:4" class="event" cx="170.78" cy="144" r="8" opacity="0" />
  <circle id="mol9:Atom:5" class="event" cx="191.57" cy="132" r="8" opacity="0" />
  <circle id="mol9:Atom:6" class="event" cx="191.57" cy="108" r="8" opacity="0" />
  <circle id="mol9:Atom:7" class="event" cx="170.78" cy="96" r="8" opacity="0" />
  <circle id="mol9:Atom:8" class="event" cx="150" cy="108" r="8" opacity="0" />
  <circle id="mol9:Atom:9" class="event" cx="150" cy="132" r="8" opacity="0" />
  <circle id="mol9:Atom:10" class="event" cx="212.35" cy="96" r="8" opacity="0" />
  <circle id="mol9:Atom:11" class="event" cx="129.22" cy="168" r="8" opacity="0" />
  <circle id="mol9:Atom:12" class="event" cx="108.43" cy="180" r="8" opacity="0" />
  <circle id="mol9:Atom:13" class="event" cx="120.43" cy="200.78" r="8" opacity="0" />
  <circle id="mol9:Atom:14" class="event" cx="87.65" cy="192" r="8" opacity="0" />
  <circle id="mol9:Atom:15" class="event" cx="96.43" cy="159.22" r="8" opacity="0" />
</svg>